%TF.GenerationSoftware,KiCad,Pcbnew,7.0.10-7.0.10~ubuntu23.04.1*%
%TF.CreationDate,2024-02-09T20:40:25+00:00*%
%TF.ProjectId,SPACEDOS01,53504143-4544-44f5-9330-312e6b696361,B*%
%TF.SameCoordinates,Original*%
%TF.FileFunction,Soldermask,Bot*%
%TF.FilePolarity,Negative*%
%FSLAX46Y46*%
G04 Gerber Fmt 4.6, Leading zero omitted, Abs format (unit mm)*
G04 Created by KiCad (PCBNEW 7.0.10-7.0.10~ubuntu23.04.1) date 2024-02-09 20:40:25*
%MOMM*%
%LPD*%
G01*
G04 APERTURE LIST*
G04 Aperture macros list*
%AMRoundRect*
0 Rectangle with rounded corners*
0 $1 Rounding radius*
0 $2 $3 $4 $5 $6 $7 $8 $9 X,Y pos of 4 corners*
0 Add a 4 corners polygon primitive as box body*
4,1,4,$2,$3,$4,$5,$6,$7,$8,$9,$2,$3,0*
0 Add four circle primitives for the rounded corners*
1,1,$1+$1,$2,$3*
1,1,$1+$1,$4,$5*
1,1,$1+$1,$6,$7*
1,1,$1+$1,$8,$9*
0 Add four rect primitives between the rounded corners*
20,1,$1+$1,$2,$3,$4,$5,0*
20,1,$1+$1,$4,$5,$6,$7,0*
20,1,$1+$1,$6,$7,$8,$9,0*
20,1,$1+$1,$8,$9,$2,$3,0*%
G04 Aperture macros list end*
%ADD10C,6.400000*%
%ADD11C,1.924000*%
%ADD12RoundRect,0.200000X0.762000X-0.762000X0.762000X0.762000X-0.762000X0.762000X-0.762000X-0.762000X0*%
%ADD13RoundRect,0.200000X-0.762000X-0.762000X0.762000X-0.762000X0.762000X0.762000X-0.762000X0.762000X0*%
%ADD14RoundRect,0.200000X0.762000X0.762000X-0.762000X0.762000X-0.762000X-0.762000X0.762000X-0.762000X0*%
%ADD15RoundRect,0.200000X0.500000X-0.500000X0.500000X0.500000X-0.500000X0.500000X-0.500000X-0.500000X0*%
%ADD16RoundRect,0.200000X1.150000X-0.500000X1.150000X0.500000X-1.150000X0.500000X-1.150000X-0.500000X0*%
%ADD17RoundRect,0.200000X1.900000X-0.500000X1.900000X0.500000X-1.900000X0.500000X-1.900000X-0.500000X0*%
%ADD18RoundRect,0.200000X0.500000X-1.150000X0.500000X1.150000X-0.500000X1.150000X-0.500000X-1.150000X0*%
%ADD19RoundRect,0.200000X0.500000X-1.900000X0.500000X1.900000X-0.500000X1.900000X-0.500000X-1.900000X0*%
%ADD20RoundRect,0.200000X-0.500000X-0.500000X0.500000X-0.500000X0.500000X0.500000X-0.500000X0.500000X0*%
%ADD21RoundRect,0.200000X-0.500000X-1.150000X0.500000X-1.150000X0.500000X1.150000X-0.500000X1.150000X0*%
%ADD22RoundRect,0.200000X-0.500000X-1.900000X0.500000X-1.900000X0.500000X1.900000X-0.500000X1.900000X0*%
%ADD23RoundRect,0.200000X-1.150000X-0.500000X1.150000X-0.500000X1.150000X0.500000X-1.150000X0.500000X0*%
%ADD24RoundRect,0.200000X-1.900000X-0.500000X1.900000X-0.500000X1.900000X0.500000X-1.900000X0.500000X0*%
G04 APERTURE END LIST*
D10*
%TO.C,M4*%
X113934528Y-84421653D03*
%TD*%
%TO.C,M2*%
X168824527Y-84421653D03*
%TD*%
%TO.C,M1*%
X181744527Y-122521653D03*
%TD*%
%TO.C,M3*%
X96014527Y-125061654D03*
%TD*%
D11*
%TO.C,D1*%
X112524527Y-114221653D03*
X107524527Y-114221653D03*
%TD*%
D12*
%TO.C,J19*%
X154942527Y-119473653D03*
X154942527Y-116933653D03*
%TD*%
D13*
%TO.C,J6*%
X152402527Y-116933653D03*
%TD*%
%TO.C,J4*%
X149862527Y-116933653D03*
%TD*%
%TO.C,J7*%
X152402527Y-119473653D03*
%TD*%
D14*
%TO.C,J3*%
X162562527Y-116933653D03*
X162562527Y-119473653D03*
%TD*%
%TO.C,J2*%
X157482527Y-116933653D03*
X157482527Y-119473653D03*
%TD*%
D15*
%TO.C,M10*%
X131930527Y-114037654D03*
D16*
X133580527Y-114037654D03*
D17*
X138830527Y-114037654D03*
X144830527Y-114037654D03*
X150830527Y-114037654D03*
X156830527Y-114037654D03*
D16*
X162080527Y-114037654D03*
D15*
X163730527Y-114037654D03*
D18*
X131930527Y-112387654D03*
X163730527Y-112387654D03*
D19*
X131930527Y-107137654D03*
X163730527Y-107137654D03*
X131930527Y-101137654D03*
X163730527Y-101137654D03*
X131930527Y-95137654D03*
X163730527Y-95137654D03*
X131930527Y-89137654D03*
X163730527Y-89137654D03*
D18*
X131930527Y-83887654D03*
X163730527Y-83887654D03*
D15*
X131930527Y-82237654D03*
D16*
X133580527Y-82237654D03*
D17*
X138830527Y-82237654D03*
X144830527Y-82237654D03*
X150830527Y-82237654D03*
X156830527Y-82237654D03*
D16*
X162080527Y-82237654D03*
D15*
X163730527Y-82237654D03*
%TD*%
D20*
%TO.C,M8*%
X98567627Y-88346353D03*
D21*
X98567627Y-89996353D03*
D22*
X98567627Y-95246353D03*
X98567627Y-101246353D03*
X98567627Y-107246353D03*
X98567627Y-113246353D03*
D21*
X98567627Y-118496353D03*
D20*
X98567627Y-120146353D03*
D23*
X100217627Y-88346353D03*
X100217627Y-120146353D03*
D24*
X105467627Y-88346353D03*
X105467627Y-120146353D03*
X111467627Y-88346353D03*
X111467627Y-120146353D03*
X117467627Y-88346353D03*
X117467627Y-120146353D03*
X123467627Y-88346353D03*
X123467627Y-120146353D03*
D23*
X128717627Y-88346353D03*
X128717627Y-120146353D03*
D20*
X130367627Y-88346353D03*
D21*
X130367627Y-89996353D03*
D22*
X130367627Y-95246353D03*
X130367627Y-101246353D03*
X130367627Y-107246353D03*
X130367627Y-113246353D03*
D21*
X130367627Y-118496353D03*
D20*
X130367627Y-120146353D03*
%TD*%
D13*
%TO.C,J5*%
X149862527Y-119473653D03*
%TD*%
%TO.C,J1*%
X160022527Y-119473653D03*
X160022527Y-116933653D03*
%TD*%
G36*
X131070473Y-128847429D02*
G01*
X131049514Y-128915261D01*
X130995208Y-128960993D01*
X130944488Y-128971653D01*
X97407153Y-128971653D01*
X97339032Y-128951651D01*
X97292539Y-128897995D01*
X97281162Y-128847167D01*
X97180582Y-120477788D01*
X97180660Y-120471599D01*
X97181240Y-120455977D01*
X97182303Y-120443670D01*
X97183994Y-120431238D01*
X97186262Y-120419072D01*
X97189163Y-120406871D01*
X97192608Y-120395003D01*
X97196695Y-120383133D01*
X97201290Y-120371649D01*
X97206517Y-120360245D01*
X97212215Y-120349272D01*
X97218533Y-120338436D01*
X97225281Y-120328071D01*
X97232639Y-120317897D01*
X97240370Y-120308241D01*
X97248679Y-120298851D01*
X97257311Y-120290009D01*
X97266502Y-120281476D01*
X97275963Y-120273518D01*
X97285955Y-120265919D01*
X97296159Y-120258922D01*
X97306841Y-120252345D01*
X97317673Y-120246386D01*
X97328949Y-120240886D01*
X97340318Y-120236017D01*
X97352075Y-120231650D01*
X97363857Y-120227920D01*
X97375997Y-120224723D01*
X97388110Y-120222162D01*
X97400486Y-120220176D01*
X97412758Y-120218818D01*
X97427927Y-120217889D01*
X97435629Y-120217653D01*
X98174527Y-120217653D01*
X98242648Y-120237654D01*
X98289141Y-120291310D01*
X98300527Y-120343653D01*
X98300527Y-120453538D01*
X98305002Y-120468777D01*
X98306392Y-120469982D01*
X98314075Y-120471652D01*
X130540412Y-120471653D01*
X130555651Y-120467178D01*
X130556856Y-120465788D01*
X130558527Y-120458105D01*
X130558527Y-120343653D01*
X130578529Y-120275532D01*
X130632185Y-120229039D01*
X130684527Y-120217653D01*
X130931439Y-120217653D01*
X130937621Y-120217805D01*
X130953236Y-120218572D01*
X130965542Y-120219784D01*
X130977953Y-120221625D01*
X130990080Y-120224037D01*
X131002260Y-120227088D01*
X131014092Y-120230677D01*
X131025897Y-120234901D01*
X131037325Y-120239634D01*
X131048668Y-120244999D01*
X131059579Y-120250831D01*
X131070337Y-120257280D01*
X131080606Y-120264142D01*
X131090690Y-120271620D01*
X131100260Y-120279474D01*
X131109552Y-120287897D01*
X131118283Y-120296628D01*
X131126705Y-120305920D01*
X131134560Y-120315490D01*
X131142038Y-120325574D01*
X131148900Y-120335843D01*
X131155349Y-120346601D01*
X131161181Y-120357512D01*
X131166546Y-120368855D01*
X131171279Y-120380282D01*
X131175503Y-120392088D01*
X131179091Y-120403920D01*
X131182143Y-120416101D01*
X131184555Y-120428227D01*
X131186397Y-120440638D01*
X131187608Y-120452941D01*
X131188352Y-120468080D01*
X131188491Y-120476041D01*
X131070473Y-128847429D01*
G37*
G36*
X98534525Y-128913774D02*
G01*
X98480869Y-128960267D01*
X98428527Y-128971653D01*
X94439028Y-128971653D01*
X94430040Y-128971333D01*
X94158882Y-128951939D01*
X94141087Y-128949380D01*
X93879873Y-128892556D01*
X93862624Y-128887492D01*
X93612141Y-128794067D01*
X93595787Y-128786598D01*
X93361152Y-128658477D01*
X93346029Y-128648758D01*
X93132017Y-128488550D01*
X93118431Y-128476777D01*
X92929403Y-128287749D01*
X92917630Y-128274163D01*
X92757422Y-128060151D01*
X92747703Y-128045028D01*
X92619582Y-127810393D01*
X92612113Y-127794039D01*
X92518689Y-127543556D01*
X92513623Y-127526307D01*
X92461406Y-127286270D01*
X92458527Y-127259486D01*
X92458527Y-119683820D01*
X92461406Y-119657037D01*
X92513624Y-119416999D01*
X92518688Y-119399750D01*
X92612113Y-119149267D01*
X92619582Y-119132913D01*
X92747703Y-118898278D01*
X92757422Y-118883155D01*
X92917630Y-118669143D01*
X92929403Y-118655557D01*
X93118431Y-118466529D01*
X93132017Y-118454756D01*
X93346029Y-118294548D01*
X93361152Y-118284829D01*
X93595787Y-118156709D01*
X93612141Y-118149239D01*
X93862624Y-118055814D01*
X93879873Y-118050750D01*
X94141087Y-117993926D01*
X94158881Y-117991367D01*
X94714666Y-117951616D01*
X94723561Y-117950338D01*
X94993585Y-117891598D01*
X95002212Y-117889065D01*
X95261145Y-117792488D01*
X95269302Y-117788763D01*
X95511855Y-117656319D01*
X95519417Y-117651460D01*
X95740644Y-117485849D01*
X95747433Y-117479967D01*
X95942841Y-117284559D01*
X95948724Y-117277770D01*
X96114334Y-117056543D01*
X96119194Y-117048982D01*
X96146338Y-116999268D01*
X96196540Y-116949066D01*
X96256926Y-116933653D01*
X98174527Y-116933653D01*
X98242648Y-116953655D01*
X98289141Y-117007311D01*
X98300527Y-117059653D01*
X98300527Y-120453538D01*
X98305002Y-120468777D01*
X98306392Y-120469982D01*
X98314075Y-120471652D01*
X98428527Y-120471653D01*
X98496649Y-120491655D01*
X98543141Y-120545311D01*
X98554527Y-120597653D01*
X98554527Y-128845653D01*
X98534525Y-128913774D01*
G37*
G36*
X98418525Y-88163774D02*
G01*
X98364869Y-88210267D01*
X98312527Y-88221653D01*
X98202642Y-88221653D01*
X98187402Y-88226128D01*
X98186198Y-88227518D01*
X98184527Y-88235201D01*
X98184527Y-116915538D01*
X98189002Y-116930777D01*
X98190394Y-116931983D01*
X98201310Y-116934358D01*
X98263624Y-116968383D01*
X98297648Y-117030695D01*
X98300527Y-117057478D01*
X98300527Y-120453538D01*
X98305002Y-120468777D01*
X98306392Y-120469982D01*
X98327310Y-120474532D01*
X98327011Y-120475906D01*
X98380648Y-120491655D01*
X98427141Y-120545311D01*
X98438527Y-120597653D01*
X98438527Y-121218565D01*
X98438375Y-121224747D01*
X98437608Y-121240362D01*
X98436396Y-121252667D01*
X98434555Y-121265079D01*
X98432143Y-121277205D01*
X98429092Y-121289386D01*
X98425503Y-121301218D01*
X98421279Y-121313024D01*
X98416546Y-121324451D01*
X98411181Y-121335794D01*
X98405349Y-121346705D01*
X98398900Y-121357463D01*
X98392038Y-121367732D01*
X98384560Y-121377816D01*
X98376706Y-121387386D01*
X98368283Y-121396678D01*
X98359552Y-121405410D01*
X98350260Y-121413832D01*
X98340690Y-121421686D01*
X98330606Y-121429164D01*
X98320337Y-121436026D01*
X98309579Y-121442475D01*
X98298669Y-121448307D01*
X98287325Y-121453672D01*
X98275898Y-121458405D01*
X98264092Y-121462629D01*
X98252260Y-121466218D01*
X98240078Y-121469269D01*
X98227954Y-121471681D01*
X98215542Y-121473522D01*
X98203236Y-121474734D01*
X98187621Y-121475501D01*
X98181439Y-121475653D01*
X96187615Y-121475653D01*
X96181433Y-121475501D01*
X96165818Y-121474734D01*
X96153512Y-121473522D01*
X96141100Y-121471681D01*
X96128975Y-121469268D01*
X96116794Y-121466218D01*
X96104962Y-121462629D01*
X96093157Y-121458405D01*
X96081729Y-121453672D01*
X96070386Y-121448307D01*
X96059475Y-121442475D01*
X96048717Y-121436026D01*
X96038448Y-121429164D01*
X96028364Y-121421686D01*
X96018794Y-121413832D01*
X96009502Y-121405409D01*
X96000771Y-121396678D01*
X95992349Y-121387386D01*
X95984494Y-121377816D01*
X95977016Y-121367732D01*
X95970154Y-121357463D01*
X95963705Y-121346705D01*
X95957873Y-121335794D01*
X95952508Y-121324451D01*
X95947775Y-121313024D01*
X95943551Y-121301218D01*
X95939963Y-121289386D01*
X95936911Y-121277205D01*
X95934499Y-121265079D01*
X95932657Y-121252668D01*
X95931446Y-121240362D01*
X95930679Y-121224747D01*
X95930527Y-121218565D01*
X95930527Y-117344014D01*
X95950529Y-117275894D01*
X95955660Y-117268506D01*
X96114334Y-117056543D01*
X96119193Y-117048981D01*
X96182167Y-116933653D01*
X96184196Y-116934761D01*
X96189874Y-116919540D01*
X96251637Y-116806428D01*
X96255362Y-116798271D01*
X96351939Y-116539338D01*
X96354472Y-116530711D01*
X96413212Y-116260687D01*
X96414491Y-116251792D01*
X96434366Y-115973903D01*
X96434527Y-115969396D01*
X96434527Y-87093653D01*
X96454529Y-87025532D01*
X96508185Y-86979039D01*
X96560527Y-86967653D01*
X98181439Y-86967653D01*
X98187621Y-86967805D01*
X98203236Y-86968572D01*
X98215542Y-86969784D01*
X98227953Y-86971625D01*
X98240079Y-86974037D01*
X98252260Y-86977088D01*
X98264092Y-86980677D01*
X98275898Y-86984901D01*
X98287325Y-86989634D01*
X98298668Y-86994999D01*
X98309579Y-87000831D01*
X98320337Y-87007279D01*
X98330606Y-87014142D01*
X98340690Y-87021620D01*
X98350260Y-87029474D01*
X98359552Y-87037897D01*
X98368282Y-87046628D01*
X98376706Y-87055920D01*
X98384560Y-87065491D01*
X98392038Y-87075574D01*
X98398900Y-87085843D01*
X98405349Y-87096600D01*
X98411181Y-87107512D01*
X98416546Y-87118855D01*
X98421279Y-87130282D01*
X98425504Y-87142088D01*
X98429092Y-87153920D01*
X98432143Y-87166101D01*
X98434555Y-87178227D01*
X98436396Y-87190638D01*
X98437608Y-87202944D01*
X98438375Y-87218559D01*
X98438526Y-87224741D01*
X98438527Y-88095653D01*
X98418525Y-88163774D01*
G37*
G36*
X131918525Y-82163774D02*
G01*
X131864869Y-82210267D01*
X131812528Y-82221653D01*
X131702642Y-82221653D01*
X131687403Y-82226128D01*
X131686198Y-82227518D01*
X131684527Y-82235201D01*
X131684527Y-88095653D01*
X131664524Y-88163774D01*
X131610868Y-88210267D01*
X131558527Y-88221653D01*
X98202642Y-88221653D01*
X98187402Y-88226128D01*
X98186198Y-88227518D01*
X98184527Y-88235201D01*
X98184527Y-88349653D01*
X98164525Y-88417774D01*
X98110869Y-88464267D01*
X98058527Y-88475653D01*
X96560527Y-88475653D01*
X96492406Y-88455651D01*
X96445913Y-88401995D01*
X96434526Y-88349653D01*
X96434527Y-82816154D01*
X96434848Y-82807166D01*
X96454241Y-82536008D01*
X96456800Y-82518213D01*
X96513623Y-82256999D01*
X96518688Y-82239750D01*
X96612113Y-81989267D01*
X96619582Y-81972913D01*
X96747703Y-81738278D01*
X96757422Y-81723155D01*
X96917630Y-81509143D01*
X96929403Y-81495557D01*
X97118431Y-81306529D01*
X97132017Y-81294756D01*
X97346029Y-81134548D01*
X97361152Y-81124829D01*
X97595787Y-80996708D01*
X97612141Y-80989239D01*
X97862624Y-80895814D01*
X97879873Y-80890750D01*
X98141087Y-80833926D01*
X98158882Y-80831366D01*
X98430040Y-80811974D01*
X98439029Y-80811653D01*
X131812527Y-80811653D01*
X131880647Y-80831655D01*
X131927141Y-80885312D01*
X131938527Y-80937653D01*
X131938527Y-82095654D01*
X131918525Y-82163774D01*
G37*
G36*
X164938375Y-82224747D02*
G01*
X164937608Y-82240362D01*
X164936396Y-82252668D01*
X164934555Y-82265079D01*
X164932143Y-82277205D01*
X164929092Y-82289386D01*
X164925502Y-82301218D01*
X164921279Y-82313024D01*
X164916546Y-82324451D01*
X164911181Y-82335794D01*
X164905349Y-82346705D01*
X164898900Y-82357463D01*
X164892039Y-82367732D01*
X164884559Y-82377816D01*
X164876706Y-82387386D01*
X164868283Y-82396678D01*
X164859552Y-82405409D01*
X164850260Y-82413833D01*
X164840690Y-82421686D01*
X164830606Y-82429164D01*
X164820337Y-82436026D01*
X164809579Y-82442475D01*
X164798668Y-82448307D01*
X164787325Y-82453672D01*
X164775898Y-82458405D01*
X164764092Y-82462629D01*
X164752260Y-82466218D01*
X164740079Y-82469269D01*
X164727953Y-82471681D01*
X164715542Y-82473522D01*
X164703236Y-82474733D01*
X164687621Y-82475501D01*
X164681439Y-82475653D01*
X164205213Y-82475653D01*
X164137092Y-82455651D01*
X164090599Y-82401995D01*
X164079214Y-82349123D01*
X164079674Y-82239768D01*
X164075264Y-82224511D01*
X164073984Y-82223393D01*
X164066068Y-82221653D01*
X131702642Y-82221653D01*
X131687403Y-82226128D01*
X131686198Y-82227518D01*
X131684527Y-82235201D01*
X131684527Y-82242491D01*
X131664525Y-82310612D01*
X131610869Y-82357105D01*
X131540595Y-82367209D01*
X131476015Y-82337715D01*
X131437631Y-82277990D01*
X131433891Y-82260981D01*
X131432658Y-82252671D01*
X131431446Y-82240362D01*
X131430679Y-82224747D01*
X131430527Y-82218565D01*
X131430527Y-80937653D01*
X131450528Y-80869532D01*
X131504184Y-80823039D01*
X131556527Y-80811653D01*
X164812527Y-80811653D01*
X164880648Y-80831655D01*
X164927141Y-80885311D01*
X164938527Y-80937653D01*
X164938527Y-82218565D01*
X164938375Y-82224747D01*
G37*
G36*
X182628375Y-116682747D02*
G01*
X182627608Y-116698362D01*
X182626395Y-116710668D01*
X182624555Y-116723079D01*
X182622143Y-116735205D01*
X182619092Y-116747386D01*
X182615503Y-116759218D01*
X182611279Y-116771024D01*
X182606546Y-116782451D01*
X182601181Y-116793794D01*
X182595349Y-116804705D01*
X182588900Y-116815463D01*
X182582038Y-116825732D01*
X182574560Y-116835816D01*
X182566706Y-116845386D01*
X182558283Y-116854678D01*
X182549552Y-116863410D01*
X182540260Y-116871832D01*
X182530690Y-116879686D01*
X182520606Y-116887164D01*
X182510337Y-116894026D01*
X182499579Y-116900475D01*
X182488668Y-116906308D01*
X182477325Y-116911672D01*
X182465898Y-116916405D01*
X182454092Y-116920629D01*
X182442260Y-116924218D01*
X182430078Y-116927269D01*
X182417949Y-116929682D01*
X182405468Y-116931533D01*
X182393312Y-116932737D01*
X182378138Y-116933499D01*
X182372097Y-116933658D01*
X163938190Y-116975645D01*
X163932013Y-116975507D01*
X163916392Y-116974776D01*
X163904078Y-116973592D01*
X163891668Y-116971780D01*
X163879530Y-116969393D01*
X163867358Y-116966374D01*
X163855521Y-116962812D01*
X163843690Y-116958609D01*
X163832261Y-116953906D01*
X163820909Y-116948568D01*
X163809985Y-116942762D01*
X163799207Y-116936335D01*
X163788908Y-116929487D01*
X163778817Y-116922039D01*
X163769251Y-116914225D01*
X163759928Y-116905815D01*
X163751154Y-116897080D01*
X163742719Y-116887815D01*
X163734857Y-116878279D01*
X163727349Y-116868205D01*
X163720460Y-116857944D01*
X163713990Y-116847206D01*
X163708130Y-116836304D01*
X163702740Y-116824973D01*
X163697985Y-116813569D01*
X163693734Y-116801771D01*
X163690118Y-116789949D01*
X163687037Y-116777769D01*
X163684597Y-116765644D01*
X163682759Y-116753453D01*
X163681499Y-116740734D01*
X163680688Y-116723878D01*
X163680543Y-116717293D01*
X163691934Y-114011122D01*
X163712223Y-113943087D01*
X163766074Y-113896820D01*
X163817933Y-113885653D01*
X163928350Y-113885653D01*
X163943589Y-113881177D01*
X163944887Y-113879681D01*
X163946521Y-113872241D01*
X164085157Y-80937123D01*
X164105446Y-80869087D01*
X164159297Y-80822820D01*
X164211155Y-80811653D01*
X179030026Y-80811653D01*
X179039014Y-80811974D01*
X179310172Y-80831367D01*
X179327967Y-80833925D01*
X179589181Y-80890750D01*
X179606430Y-80895814D01*
X179856913Y-80989239D01*
X179873267Y-80996708D01*
X180107902Y-81124829D01*
X180123025Y-81134548D01*
X180337037Y-81294756D01*
X180350623Y-81306529D01*
X180539651Y-81495557D01*
X180551424Y-81509143D01*
X180711632Y-81723155D01*
X180721351Y-81738278D01*
X180849472Y-81972913D01*
X180856941Y-81989267D01*
X180950366Y-82239750D01*
X180955430Y-82256999D01*
X181012254Y-82518213D01*
X181014813Y-82536008D01*
X181034206Y-82807166D01*
X181034527Y-82816154D01*
X181034527Y-111969395D01*
X181034688Y-111973903D01*
X181054563Y-112251792D01*
X181055842Y-112260687D01*
X181114583Y-112530711D01*
X181117115Y-112539338D01*
X181213691Y-112798271D01*
X181217417Y-112806428D01*
X181349861Y-113048981D01*
X181354721Y-113056543D01*
X181520330Y-113277770D01*
X181526214Y-113284559D01*
X181721621Y-113479966D01*
X181728410Y-113485850D01*
X181949637Y-113651459D01*
X181957199Y-113656319D01*
X182199752Y-113788764D01*
X182207904Y-113792486D01*
X182311178Y-113831005D01*
X182349833Y-113859943D01*
X182351041Y-113858549D01*
X182380392Y-113883982D01*
X182388075Y-113885653D01*
X182437105Y-113885653D01*
X182472600Y-113890756D01*
X182475458Y-113891595D01*
X182529312Y-113903311D01*
X182591623Y-113937337D01*
X182625649Y-113999649D01*
X182628527Y-114026431D01*
X182628527Y-116676565D01*
X182628375Y-116682747D01*
G37*
G36*
X185934206Y-123376140D02*
G01*
X185914812Y-123647298D01*
X185912254Y-123665093D01*
X185855430Y-123926307D01*
X185850366Y-123943557D01*
X185756941Y-124194039D01*
X185749472Y-124210393D01*
X185621351Y-124445028D01*
X185611632Y-124460151D01*
X185451424Y-124674163D01*
X185439651Y-124687749D01*
X185250623Y-124876777D01*
X185237037Y-124888550D01*
X185023025Y-125048758D01*
X185007902Y-125058477D01*
X184773267Y-125186598D01*
X184756913Y-125194066D01*
X184506430Y-125287492D01*
X184489181Y-125292556D01*
X184227967Y-125349380D01*
X184210172Y-125351939D01*
X183939014Y-125371332D01*
X183930026Y-125371653D01*
X160936997Y-125371653D01*
X160932070Y-125371846D01*
X160704810Y-125389732D01*
X160695061Y-125391275D01*
X160475814Y-125443913D01*
X160466429Y-125446962D01*
X160258113Y-125533249D01*
X160249318Y-125537731D01*
X160057074Y-125655539D01*
X160049081Y-125661346D01*
X159877630Y-125807780D01*
X159870654Y-125814756D01*
X159724220Y-125986207D01*
X159718413Y-125994200D01*
X159600605Y-126186444D01*
X159596123Y-126195239D01*
X159509836Y-126403555D01*
X159506787Y-126412940D01*
X159454148Y-126632188D01*
X159452606Y-126641935D01*
X159434720Y-126869196D01*
X159434527Y-126874122D01*
X159434528Y-127466697D01*
X159434139Y-127476583D01*
X159416838Y-127696420D01*
X159413745Y-127715949D01*
X159363427Y-127925537D01*
X159357317Y-127944341D01*
X159274831Y-128143481D01*
X159265854Y-128161099D01*
X159153233Y-128344877D01*
X159141612Y-128360872D01*
X159001627Y-128524773D01*
X158987647Y-128538753D01*
X158823746Y-128678738D01*
X158807751Y-128690359D01*
X158623973Y-128802980D01*
X158606355Y-128811957D01*
X158407215Y-128894443D01*
X158388411Y-128900553D01*
X158178823Y-128950871D01*
X158159294Y-128953964D01*
X157939457Y-128971265D01*
X157929571Y-128971654D01*
X130430527Y-128971653D01*
X130362406Y-128951651D01*
X130315913Y-128897995D01*
X130304527Y-128845653D01*
X130304527Y-120597652D01*
X130324529Y-120529532D01*
X130378185Y-120483039D01*
X130430527Y-120471652D01*
X130540412Y-120471653D01*
X130555651Y-120467178D01*
X130556856Y-120465788D01*
X130558527Y-120458105D01*
X130558527Y-114011653D01*
X130578529Y-113943532D01*
X130632185Y-113897039D01*
X130684527Y-113885653D01*
X182437106Y-113885653D01*
X182472601Y-113890756D01*
X182475464Y-113891597D01*
X182745493Y-113950338D01*
X182754388Y-113951617D01*
X183032277Y-113971492D01*
X183036784Y-113971652D01*
X183930026Y-113971653D01*
X183939014Y-113971974D01*
X184210172Y-113991367D01*
X184227967Y-113993926D01*
X184489181Y-114050750D01*
X184506430Y-114055814D01*
X184756913Y-114149240D01*
X184773267Y-114156708D01*
X185007902Y-114284829D01*
X185023025Y-114294548D01*
X185237037Y-114454756D01*
X185250623Y-114466529D01*
X185439651Y-114655557D01*
X185451424Y-114669143D01*
X185611632Y-114883155D01*
X185621351Y-114898278D01*
X185749472Y-115132913D01*
X185756941Y-115149267D01*
X185850366Y-115399749D01*
X185855430Y-115416999D01*
X185912254Y-115678213D01*
X185914812Y-115696008D01*
X185934206Y-115967166D01*
X185934527Y-115976154D01*
X185934527Y-123367152D01*
X185934206Y-123376140D01*
G37*
M02*
