%TF.GenerationSoftware,KiCad,Pcbnew,7.0.10-7.0.10~ubuntu23.04.1*%
%TF.CreationDate,2024-02-09T21:50:14+00:00*%
%TF.ProjectId,SPACEDOS01,53504143-4544-44f5-9330-312e6b696361,B*%
%TF.SameCoordinates,Original*%
%TF.FileFunction,Copper,L2,Bot*%
%TF.FilePolarity,Positive*%
%FSLAX46Y46*%
G04 Gerber Fmt 4.6, Leading zero omitted, Abs format (unit mm)*
G04 Created by KiCad (PCBNEW 7.0.10-7.0.10~ubuntu23.04.1) date 2024-02-09 21:50:14*
%MOMM*%
%LPD*%
G01*
G04 APERTURE LIST*
%TA.AperFunction,ComponentPad*%
%ADD10C,6.000000*%
%TD*%
%TA.AperFunction,ComponentPad*%
%ADD11C,1.524000*%
%TD*%
%TA.AperFunction,ComponentPad*%
%ADD12R,1.524000X1.524000*%
%TD*%
%TA.AperFunction,SMDPad,CuDef*%
%ADD13R,1.000000X1.000000*%
%TD*%
%TA.AperFunction,SMDPad,CuDef*%
%ADD14R,2.300000X1.000000*%
%TD*%
%TA.AperFunction,SMDPad,CuDef*%
%ADD15R,3.800000X1.000000*%
%TD*%
%TA.AperFunction,SMDPad,CuDef*%
%ADD16R,1.000000X2.300000*%
%TD*%
%TA.AperFunction,SMDPad,CuDef*%
%ADD17R,1.000000X3.800000*%
%TD*%
%TA.AperFunction,ViaPad*%
%ADD18C,0.800000*%
%TD*%
%TA.AperFunction,Conductor*%
%ADD19C,0.250000*%
%TD*%
%TA.AperFunction,Conductor*%
%ADD20C,0.400000*%
%TD*%
%TA.AperFunction,Conductor*%
%ADD21C,0.300000*%
%TD*%
%TA.AperFunction,Conductor*%
%ADD22C,0.800000*%
%TD*%
%TA.AperFunction,Conductor*%
%ADD23C,0.600000*%
%TD*%
G04 APERTURE END LIST*
D10*
%TO.P,M4,1*%
%TO.N,GND*%
X113934528Y-84421653D03*
%TD*%
%TO.P,M2,1*%
%TO.N,GND*%
X168824527Y-84421653D03*
%TD*%
%TO.P,M1,1*%
%TO.N,GND*%
X181744527Y-122521653D03*
%TD*%
%TO.P,M3,1*%
%TO.N,GND*%
X96014527Y-125061654D03*
%TD*%
D11*
%TO.P,D1,1*%
%TO.N,/K*%
X112524527Y-114221653D03*
%TO.P,D1,2*%
%TO.N,/A*%
X107524527Y-114221653D03*
%TD*%
D12*
%TO.P,J19,1*%
%TO.N,/cpu/RST#*%
X154942527Y-119473653D03*
%TO.P,J19,2*%
X154942527Y-116933653D03*
%TD*%
%TO.P,J6,1*%
%TO.N,/cpu/RX0*%
X152402527Y-116933653D03*
%TD*%
%TO.P,J4,1*%
%TO.N,/cpu/PD3*%
X149862527Y-116933653D03*
%TD*%
%TO.P,J7,1*%
%TO.N,/cpu/TX0*%
X152402527Y-119473653D03*
%TD*%
%TO.P,J3,1*%
%TO.N,/power/3*%
X162562527Y-116933653D03*
%TO.P,J3,2*%
X162562527Y-119473653D03*
%TD*%
%TO.P,J2,1*%
%TO.N,GND*%
X157482527Y-116933653D03*
%TO.P,J2,2*%
X157482527Y-119473653D03*
%TD*%
D13*
%TO.P,M10,1*%
%TO.N,GND*%
X131930527Y-114037654D03*
D14*
X133580527Y-114037654D03*
D15*
X138830527Y-114037654D03*
X144830527Y-114037654D03*
X150830527Y-114037654D03*
X156830527Y-114037654D03*
D14*
X162080527Y-114037654D03*
D13*
X163730527Y-114037654D03*
D16*
X131930527Y-112387654D03*
X163730527Y-112387654D03*
D17*
X131930527Y-107137654D03*
X163730527Y-107137654D03*
X131930527Y-101137654D03*
X163730527Y-101137654D03*
X131930527Y-95137654D03*
X163730527Y-95137654D03*
X131930527Y-89137654D03*
X163730527Y-89137654D03*
D16*
X131930527Y-83887654D03*
X163730527Y-83887654D03*
D13*
X131930527Y-82237654D03*
D14*
X133580527Y-82237654D03*
D15*
X138830527Y-82237654D03*
X144830527Y-82237654D03*
X150830527Y-82237654D03*
X156830527Y-82237654D03*
D14*
X162080527Y-82237654D03*
D13*
X163730527Y-82237654D03*
%TD*%
%TO.P,M8,1*%
%TO.N,GND*%
X98567627Y-88346353D03*
D16*
X98567627Y-89996353D03*
D17*
X98567627Y-95246353D03*
X98567627Y-101246353D03*
X98567627Y-107246353D03*
X98567627Y-113246353D03*
D16*
X98567627Y-118496353D03*
D13*
X98567627Y-120146353D03*
D14*
X100217627Y-88346353D03*
X100217627Y-120146353D03*
D15*
X105467627Y-88346353D03*
X105467627Y-120146353D03*
X111467627Y-88346353D03*
X111467627Y-120146353D03*
X117467627Y-88346353D03*
X117467627Y-120146353D03*
X123467627Y-88346353D03*
X123467627Y-120146353D03*
D14*
X128717627Y-88346353D03*
X128717627Y-120146353D03*
D13*
X130367627Y-88346353D03*
D16*
X130367627Y-89996353D03*
D17*
X130367627Y-95246353D03*
X130367627Y-101246353D03*
X130367627Y-107246353D03*
X130367627Y-113246353D03*
D16*
X130367627Y-118496353D03*
D13*
X130367627Y-120146353D03*
%TD*%
D12*
%TO.P,J5,1*%
%TO.N,/cpu/PD2*%
X149862527Y-119473653D03*
%TD*%
%TO.P,J1,1*%
%TO.N,N/C*%
X160022527Y-119473653D03*
%TO.P,J1,2*%
X160022527Y-116933653D03*
%TD*%
D18*
%TO.N,GND*%
X153570736Y-100614352D03*
X135945050Y-116412314D03*
X138031934Y-114094660D03*
X157647627Y-102214353D03*
X123230627Y-112501353D03*
X107355627Y-117454353D03*
X105831627Y-117454353D03*
X104307627Y-116438353D03*
X103291627Y-115422353D03*
X151932627Y-104627353D03*
X125770627Y-113136353D03*
X124500627Y-110596353D03*
X112684527Y-115971653D03*
X140883627Y-108310353D03*
X125770628Y-115041353D03*
X138089627Y-111358353D03*
X119420627Y-109326353D03*
X113705627Y-117581353D03*
X138089627Y-110342353D03*
X134660627Y-116946352D03*
X124500627Y-115041353D03*
X120563627Y-108818353D03*
X127040627Y-114406353D03*
X113705627Y-116311353D03*
X111419627Y-116438353D03*
X133390627Y-116311353D03*
X133390627Y-115041353D03*
X110403627Y-117454353D03*
X124500627Y-109326353D03*
X123230626Y-109834353D03*
X155615627Y-100690353D03*
X140121627Y-109326353D03*
X129580627Y-114406353D03*
X137200628Y-116311353D03*
X130850627Y-114406353D03*
X128310627Y-114406353D03*
X123230627Y-114406353D03*
X138851627Y-109326353D03*
X138089628Y-112882353D03*
X125135627Y-111866353D03*
X121960627Y-110850353D03*
X118150627Y-109326353D03*
X132120627Y-114406353D03*
X108879627Y-117454353D03*
X131485626Y-97261353D03*
X117434527Y-100221653D03*
X107990627Y-110596353D03*
X107952527Y-111853653D03*
X104934527Y-111721654D03*
X102910628Y-111471653D03*
X99735627Y-110596353D03*
X127167627Y-100690353D03*
X99735628Y-108691353D03*
X120055627Y-100436353D03*
X129580627Y-100436353D03*
X108934527Y-112971653D03*
X99735627Y-99801353D03*
X108934527Y-114721653D03*
X120055626Y-103738353D03*
X111508527Y-115409652D03*
X99735627Y-102976353D03*
X113184527Y-112471653D03*
X99735627Y-101071353D03*
X107990627Y-95991353D03*
X102275627Y-114406353D03*
X108934527Y-111721653D03*
X104815627Y-96626354D03*
X99735628Y-111866353D03*
X99735627Y-106786353D03*
X100370626Y-98531353D03*
X101640627Y-97261352D03*
X130850627Y-98531353D03*
X131231627Y-96118353D03*
X128310627Y-101071353D03*
X118785627Y-103738353D03*
X131485627Y-101071353D03*
X120055626Y-101706353D03*
X118785627Y-100436353D03*
X118785627Y-101706353D03*
X123865627Y-100436353D03*
X116245627Y-99166353D03*
X122595627Y-100436353D03*
X121325627Y-100436352D03*
X105684527Y-114471653D03*
X105184527Y-110471653D03*
X99735627Y-104881354D03*
X102910627Y-96626353D03*
X129707627Y-96118352D03*
X106085627Y-95991353D03*
X104934527Y-113221653D03*
X116880627Y-95356353D03*
X125135627Y-95356353D03*
X123230627Y-97261353D03*
X118150627Y-96626354D03*
X136311627Y-91038353D03*
X125135627Y-94086353D03*
X127962627Y-107669353D03*
X131485627Y-91038353D03*
X119420627Y-97261353D03*
X125478527Y-92549653D03*
X135963627Y-104748353D03*
X123865627Y-92816353D03*
X133009628Y-91038353D03*
X136090627Y-100811353D03*
X128526527Y-92295653D03*
X102181627Y-104494353D03*
X129105627Y-109066353D03*
X116245627Y-100221653D03*
X134533626Y-91038353D03*
X114975627Y-100221654D03*
X114975627Y-97896353D03*
X130413627Y-106526353D03*
X111165627Y-95991353D03*
X106499627Y-100938353D03*
X134820628Y-100811353D03*
X136725627Y-108431353D03*
X130623813Y-107548167D03*
X124500627Y-96626354D03*
X130629627Y-103478353D03*
X121960627Y-97261353D03*
X115610627Y-94721353D03*
X114975627Y-99166353D03*
X109895627Y-95991353D03*
X112435627Y-94721353D03*
X131645627Y-108266354D03*
X114340627Y-94721353D03*
X120690627Y-97261353D03*
X136090628Y-109066353D03*
X137835627Y-91038353D03*
X127002527Y-92295653D03*
X130215627Y-92562353D03*
X127835627Y-109066353D03*
X102181627Y-105764353D03*
X107515084Y-109046918D03*
X109420627Y-110336353D03*
X134660627Y-94721353D03*
X107515627Y-104621353D03*
X101259627Y-113390353D03*
X107515627Y-107796353D03*
X107515627Y-106526353D03*
X107863627Y-100811353D03*
X109420627Y-100811353D03*
X111927627Y-101198353D03*
X110055627Y-102716352D03*
X124434527Y-113471653D03*
X163684527Y-104471653D03*
X165184527Y-114471653D03*
X171452527Y-99661653D03*
X163324527Y-94327653D03*
X166434527Y-114471653D03*
X172468527Y-92803653D03*
X168677365Y-97820153D03*
X163324527Y-93057654D03*
X127256528Y-108297653D03*
X163324527Y-95597653D03*
X172722527Y-99661653D03*
X172684527Y-102721653D03*
X157684527Y-109721653D03*
X158184527Y-107971653D03*
X170434527Y-116721653D03*
X172468527Y-94073654D03*
X159684527Y-109221653D03*
%TO.N,Net-(R1-Pad2)*%
X135988730Y-112927085D03*
X133606527Y-105503653D03*
%TO.N,/cpu/RST#*%
X149354527Y-110761353D03*
X154434527Y-112869653D03*
%TO.N,/cpu/PC0*%
X161800527Y-110075653D03*
X162308527Y-96867653D03*
%TO.N,/cpu/PC1*%
X163324527Y-110329653D03*
X163070526Y-98137655D03*
%TO.N,/cpu/PB6*%
X153075627Y-102214353D03*
X149138627Y-100563353D03*
%TO.N,+3V3*%
X126057627Y-111352353D03*
X126057627Y-98906353D03*
X133606527Y-92803653D03*
X161038527Y-91279653D03*
X133606527Y-93819653D03*
X162308527Y-91279653D03*
%TO.N,PA1*%
X128691627Y-104373353D03*
X160784527Y-105249653D03*
%TO.N,PA0*%
X140375627Y-110596353D03*
X159265113Y-105508239D03*
%TO.N,PB0*%
X159171627Y-102722353D03*
X139900627Y-101706354D03*
%TO.N,/cpu/PD3*%
X155673352Y-112266745D03*
X152080174Y-111847686D03*
%TO.N,/cpu/PD2*%
X151199832Y-110904958D03*
X154717866Y-111369642D03*
%TD*%
D19*
%TO.N,GND*%
X130629627Y-102208353D02*
X130883627Y-101954353D01*
X130629627Y-103478353D02*
X130629627Y-102208353D01*
X102181627Y-104494353D02*
X102181627Y-105764353D01*
D20*
X129105627Y-109066353D02*
X127835627Y-109066353D01*
X131645627Y-108266354D02*
X131645627Y-107758353D01*
X136725627Y-105510353D02*
X135963627Y-104748353D01*
D19*
X109420627Y-100811353D02*
X111325627Y-100811353D01*
X110690627Y-110336353D02*
X109401192Y-109046918D01*
X109401192Y-109046918D02*
X107515084Y-109046918D01*
D20*
X136725627Y-108431353D02*
X136725627Y-105510353D01*
X131645627Y-107758353D02*
X130413627Y-106526353D01*
X131341999Y-108266353D02*
X130623813Y-107548167D01*
D19*
X107515627Y-107796353D02*
X107515627Y-106526353D01*
D20*
X136090627Y-100811353D02*
X134820628Y-100811353D01*
X131645627Y-108266354D02*
X131341999Y-108266353D01*
D19*
X127334328Y-108297653D02*
X127256528Y-108297653D01*
X127962627Y-107669353D02*
X127334328Y-108297653D01*
D20*
%TO.N,Net-(R1-Pad2)*%
X135588731Y-112527086D02*
X135988730Y-112927085D01*
X133606527Y-105503653D02*
X133606527Y-110544882D01*
X133606527Y-110544882D02*
X135588731Y-112527086D01*
D21*
%TO.N,/cpu/RST#*%
X153868842Y-112869653D02*
X154434527Y-112869653D01*
X149354527Y-110761353D02*
X151462827Y-112869653D01*
X151462827Y-112869653D02*
X153868842Y-112869653D01*
%TO.N,/cpu/PC0*%
X161800527Y-110075653D02*
X161800527Y-97375653D01*
X161800527Y-97375653D02*
X162308527Y-96867653D01*
%TO.N,/cpu/PC1*%
X162300537Y-109305663D02*
X163324527Y-110329653D01*
X163070526Y-98137655D02*
X162300537Y-98907645D01*
X162300537Y-98907645D02*
X162300537Y-109305663D01*
D20*
%TO.N,/cpu/PB6*%
X149138627Y-100563353D02*
X151424627Y-100563353D01*
X151424627Y-100563353D02*
X152675628Y-101814354D01*
X152675628Y-101814354D02*
X153075627Y-102214353D01*
D22*
%TO.N,+3V3*%
X126057627Y-111352353D02*
X126057627Y-98906353D01*
X161038527Y-91279653D02*
X159260527Y-91279653D01*
X159260527Y-91279653D02*
X157736527Y-92803653D01*
X157736527Y-92803653D02*
X133606527Y-92803653D01*
X161038527Y-91279653D02*
X162308527Y-91279653D01*
D23*
X133606527Y-92803653D02*
X133606527Y-93819653D01*
D20*
%TO.N,PA1*%
X131464630Y-103827352D02*
X159362226Y-103827352D01*
X130918629Y-104373353D02*
X131464630Y-103827352D01*
X128691627Y-104373353D02*
X130918629Y-104373353D01*
X159362226Y-103827352D02*
X160384528Y-104849654D01*
X160384528Y-104849654D02*
X160784527Y-105249653D01*
%TO.N,PA0*%
X141188329Y-109783651D02*
X151348525Y-109783651D01*
X140375627Y-110596353D02*
X141188329Y-109783651D01*
X159265113Y-105508239D02*
X154989701Y-109783651D01*
X154989701Y-109783651D02*
X151348525Y-109783651D01*
%TO.N,PB0*%
X141332617Y-103138343D02*
X139900627Y-101706354D01*
X159171627Y-102722353D02*
X158755637Y-103138343D01*
X158755637Y-103138343D02*
X141332617Y-103138343D01*
D21*
%TO.N,/cpu/PD3*%
X152645859Y-111847686D02*
X152917825Y-112119652D01*
X152917825Y-112119652D02*
X155526259Y-112119652D01*
X152080174Y-111847686D02*
X152645859Y-111847686D01*
X155526259Y-112119652D02*
X155673352Y-112266745D01*
%TO.N,/cpu/PD2*%
X154253181Y-110904958D02*
X154317867Y-110969643D01*
X151199832Y-110904958D02*
X154253181Y-110904958D01*
X154317867Y-110969643D02*
X154717866Y-111369642D01*
%TD*%
%TA.AperFunction,Conductor*%
%TO.N,GND*%
G36*
X179036129Y-80887258D02*
G01*
X179282522Y-80903410D01*
X179288876Y-80904246D01*
X179529479Y-80952108D01*
X179535660Y-80953764D01*
X179767959Y-81032621D01*
X179773872Y-81035070D01*
X179993904Y-81143579D01*
X179999439Y-81146774D01*
X180150739Y-81247869D01*
X180203418Y-81283068D01*
X180208504Y-81286970D01*
X180383287Y-81440251D01*
X180392939Y-81448715D01*
X180397471Y-81453247D01*
X180559224Y-81637689D01*
X180563116Y-81642760D01*
X180658376Y-81785325D01*
X180699409Y-81846734D01*
X180702614Y-81852284D01*
X180811121Y-82072309D01*
X180813573Y-82078231D01*
X180892428Y-82310517D01*
X180894087Y-82316708D01*
X180941949Y-82557304D01*
X180942786Y-82563658D01*
X180958922Y-82809763D01*
X180959027Y-82812969D01*
X180959027Y-111989007D01*
X180959045Y-111989229D01*
X180959044Y-112107682D01*
X180959044Y-112107685D01*
X180994550Y-112377428D01*
X181064965Y-112640236D01*
X181064967Y-112640241D01*
X181169072Y-112891586D01*
X181169076Y-112891593D01*
X181169077Y-112891595D01*
X181305110Y-113127218D01*
X181432739Y-113293549D01*
X181470738Y-113343071D01*
X181470740Y-113343073D01*
X181663115Y-113535449D01*
X181663127Y-113535460D01*
X181878953Y-113701070D01*
X181878962Y-113701076D01*
X181878966Y-113701079D01*
X182114587Y-113837114D01*
X182365948Y-113941230D01*
X182365953Y-113941231D01*
X182365955Y-113941232D01*
X182628741Y-114011643D01*
X182628742Y-114011643D01*
X182628749Y-114011645D01*
X182898493Y-114047154D01*
X183034529Y-114047153D01*
X183932923Y-114047153D01*
X183936128Y-114047258D01*
X184182521Y-114063410D01*
X184188875Y-114064246D01*
X184429478Y-114112108D01*
X184435659Y-114113764D01*
X184667959Y-114192621D01*
X184673872Y-114195070D01*
X184893903Y-114303578D01*
X184899438Y-114306774D01*
X185050736Y-114407868D01*
X185103417Y-114443068D01*
X185108502Y-114446970D01*
X185292938Y-114608715D01*
X185297470Y-114613247D01*
X185459218Y-114797683D01*
X185463120Y-114802768D01*
X185599413Y-115006740D01*
X185602617Y-115012290D01*
X185711118Y-115232301D01*
X185713571Y-115238223D01*
X185792428Y-115470516D01*
X185794087Y-115476707D01*
X185841949Y-115717304D01*
X185842786Y-115723658D01*
X185858922Y-115969747D01*
X185859027Y-115972953D01*
X185859027Y-123370053D01*
X185858922Y-123373257D01*
X185842778Y-123619650D01*
X185841942Y-123626004D01*
X185794087Y-123866616D01*
X185792428Y-123872808D01*
X185713578Y-124105107D01*
X185711125Y-124111028D01*
X185602631Y-124331045D01*
X185599427Y-124336596D01*
X185463136Y-124540579D01*
X185459234Y-124545664D01*
X185297491Y-124730102D01*
X185292959Y-124734635D01*
X185108519Y-124896391D01*
X185103434Y-124900293D01*
X184899456Y-125036592D01*
X184893905Y-125039796D01*
X184673893Y-125148298D01*
X184667971Y-125150751D01*
X184435673Y-125229610D01*
X184429482Y-125231269D01*
X184188881Y-125279131D01*
X184182527Y-125279968D01*
X183958662Y-125294644D01*
X183937255Y-125296048D01*
X183934052Y-125296153D01*
X176299568Y-125296153D01*
X176755045Y-80887153D01*
X179032924Y-80887153D01*
X179036129Y-80887258D01*
G37*
%TD.AperFunction*%
%TD*%
%TA.AperFunction,Conductor*%
%TO.N,GND*%
G36*
X179036129Y-80887258D02*
G01*
X179282522Y-80903410D01*
X179288876Y-80904246D01*
X179529479Y-80952108D01*
X179535660Y-80953764D01*
X179767959Y-81032621D01*
X179773872Y-81035070D01*
X179993904Y-81143579D01*
X179999439Y-81146774D01*
X180150739Y-81247869D01*
X180203418Y-81283068D01*
X180208504Y-81286970D01*
X180383287Y-81440251D01*
X180392939Y-81448715D01*
X180397471Y-81453247D01*
X180559224Y-81637689D01*
X180563116Y-81642760D01*
X180594051Y-81689057D01*
X180699409Y-81846734D01*
X180702614Y-81852284D01*
X180811121Y-82072309D01*
X180813573Y-82078231D01*
X180892428Y-82310517D01*
X180894087Y-82316708D01*
X180941949Y-82557304D01*
X180942786Y-82563658D01*
X180958922Y-82809763D01*
X180959027Y-82812969D01*
X180959027Y-84715184D01*
X164738527Y-84851110D01*
X164738527Y-84141654D01*
X162722527Y-84141654D01*
X162722527Y-84868004D01*
X132935153Y-85117619D01*
X132938527Y-85086250D01*
X132938527Y-84141654D01*
X130922527Y-84141654D01*
X130922527Y-85086250D01*
X130927708Y-85134441D01*
X96510027Y-85422857D01*
X96510027Y-82813255D01*
X96510132Y-82810049D01*
X96510151Y-82809763D01*
X96526288Y-82563658D01*
X96527124Y-82557310D01*
X96527125Y-82557304D01*
X96540185Y-82491654D01*
X130922527Y-82491654D01*
X130922527Y-83633654D01*
X131676527Y-83633654D01*
X131676527Y-82491654D01*
X132184527Y-82491654D01*
X132184527Y-83633654D01*
X132938527Y-83633654D01*
X132938527Y-83294654D01*
X132952879Y-83260006D01*
X132987527Y-83245654D01*
X133326527Y-83245654D01*
X133326527Y-82491654D01*
X133834527Y-82491654D01*
X133834527Y-83245654D01*
X134779123Y-83245654D01*
X134839617Y-83239150D01*
X134976491Y-83188098D01*
X135093430Y-83100557D01*
X135180971Y-82983618D01*
X135232023Y-82846744D01*
X135238527Y-82786250D01*
X135238527Y-82491654D01*
X136422527Y-82491654D01*
X136422527Y-82786250D01*
X136429030Y-82846744D01*
X136480082Y-82983618D01*
X136567623Y-83100557D01*
X136684562Y-83188098D01*
X136821436Y-83239150D01*
X136881931Y-83245654D01*
X138576527Y-83245654D01*
X138576527Y-82491654D01*
X139084527Y-82491654D01*
X139084527Y-83245654D01*
X140779123Y-83245654D01*
X140839617Y-83239150D01*
X140976491Y-83188098D01*
X141093430Y-83100557D01*
X141180971Y-82983618D01*
X141232023Y-82846744D01*
X141238527Y-82786250D01*
X141238527Y-82491654D01*
X142422527Y-82491654D01*
X142422527Y-82786250D01*
X142429030Y-82846744D01*
X142480082Y-82983618D01*
X142567623Y-83100557D01*
X142684562Y-83188098D01*
X142821436Y-83239150D01*
X142881931Y-83245654D01*
X144576527Y-83245654D01*
X144576527Y-82491654D01*
X145084527Y-82491654D01*
X145084527Y-83245654D01*
X146779123Y-83245654D01*
X146839617Y-83239150D01*
X146976491Y-83188098D01*
X147093430Y-83100557D01*
X147180971Y-82983618D01*
X147232023Y-82846744D01*
X147238527Y-82786250D01*
X147238527Y-82491654D01*
X148422527Y-82491654D01*
X148422527Y-82786250D01*
X148429030Y-82846744D01*
X148480082Y-82983618D01*
X148567623Y-83100557D01*
X148684562Y-83188098D01*
X148821436Y-83239150D01*
X148881931Y-83245654D01*
X150576527Y-83245654D01*
X150576527Y-82491654D01*
X151084527Y-82491654D01*
X151084527Y-83245654D01*
X152779123Y-83245654D01*
X152839617Y-83239150D01*
X152976491Y-83188098D01*
X153093430Y-83100557D01*
X153180971Y-82983618D01*
X153232023Y-82846744D01*
X153238527Y-82786250D01*
X153238527Y-82491654D01*
X154422527Y-82491654D01*
X154422527Y-82786250D01*
X154429030Y-82846744D01*
X154480082Y-82983618D01*
X154567623Y-83100557D01*
X154684562Y-83188098D01*
X154821436Y-83239150D01*
X154881931Y-83245654D01*
X156576527Y-83245654D01*
X156576527Y-82491654D01*
X157084527Y-82491654D01*
X157084527Y-83245654D01*
X158779123Y-83245654D01*
X158839617Y-83239150D01*
X158976491Y-83188098D01*
X159093430Y-83100557D01*
X159180971Y-82983618D01*
X159232023Y-82846744D01*
X159238527Y-82786250D01*
X159238527Y-82491654D01*
X160422527Y-82491654D01*
X160422527Y-82786250D01*
X160429030Y-82846744D01*
X160480082Y-82983618D01*
X160567623Y-83100557D01*
X160684562Y-83188098D01*
X160821436Y-83239150D01*
X160881931Y-83245654D01*
X161826527Y-83245654D01*
X161826527Y-82491654D01*
X162334527Y-82491654D01*
X162334527Y-83245654D01*
X162673527Y-83245654D01*
X162708175Y-83260006D01*
X162722527Y-83294654D01*
X162722527Y-83633654D01*
X163476527Y-83633654D01*
X163476527Y-82491654D01*
X163984527Y-82491654D01*
X163984527Y-83633654D01*
X164738527Y-83633654D01*
X164738527Y-82491654D01*
X163984527Y-82491654D01*
X163476527Y-82491654D01*
X162334527Y-82491654D01*
X161826527Y-82491654D01*
X160422527Y-82491654D01*
X159238527Y-82491654D01*
X157084527Y-82491654D01*
X156576527Y-82491654D01*
X154422527Y-82491654D01*
X153238527Y-82491654D01*
X151084527Y-82491654D01*
X150576527Y-82491654D01*
X148422527Y-82491654D01*
X147238527Y-82491654D01*
X145084527Y-82491654D01*
X144576527Y-82491654D01*
X142422527Y-82491654D01*
X141238527Y-82491654D01*
X139084527Y-82491654D01*
X138576527Y-82491654D01*
X136422527Y-82491654D01*
X135238527Y-82491654D01*
X133834527Y-82491654D01*
X133326527Y-82491654D01*
X132184527Y-82491654D01*
X131676527Y-82491654D01*
X130922527Y-82491654D01*
X96540185Y-82491654D01*
X96574989Y-82316708D01*
X96576641Y-82310540D01*
X96655504Y-82078231D01*
X96657954Y-82072319D01*
X96701681Y-81983654D01*
X130922527Y-81983654D01*
X131676527Y-81983654D01*
X131676527Y-81229654D01*
X132184527Y-81229654D01*
X132184527Y-81983654D01*
X133326527Y-81983654D01*
X133326527Y-81229654D01*
X133834527Y-81229654D01*
X133834527Y-81983654D01*
X135238527Y-81983654D01*
X136422527Y-81983654D01*
X138576527Y-81983654D01*
X138576527Y-81229654D01*
X139084527Y-81229654D01*
X139084527Y-81983654D01*
X141238527Y-81983654D01*
X142422527Y-81983654D01*
X144576527Y-81983654D01*
X144576527Y-81229654D01*
X145084527Y-81229654D01*
X145084527Y-81983654D01*
X147238527Y-81983654D01*
X148422527Y-81983654D01*
X150576527Y-81983654D01*
X150576527Y-81229654D01*
X151084527Y-81229654D01*
X151084527Y-81983654D01*
X153238527Y-81983654D01*
X154422527Y-81983654D01*
X156576527Y-81983654D01*
X156576527Y-81229654D01*
X157084527Y-81229654D01*
X157084527Y-81983654D01*
X159238527Y-81983654D01*
X160422527Y-81983654D01*
X161826527Y-81983654D01*
X161826527Y-81229654D01*
X162334527Y-81229654D01*
X162334527Y-81983654D01*
X163476527Y-81983654D01*
X163476527Y-81229654D01*
X163984527Y-81229654D01*
X163984527Y-81983654D01*
X164738527Y-81983654D01*
X164738527Y-81689057D01*
X164732023Y-81628563D01*
X164680971Y-81491689D01*
X164593430Y-81374750D01*
X164476491Y-81287209D01*
X164339617Y-81236157D01*
X164279123Y-81229654D01*
X163984527Y-81229654D01*
X163476527Y-81229654D01*
X162334527Y-81229654D01*
X161826527Y-81229654D01*
X160881931Y-81229654D01*
X160821436Y-81236157D01*
X160684562Y-81287209D01*
X160567623Y-81374750D01*
X160480082Y-81491689D01*
X160429030Y-81628563D01*
X160422527Y-81689057D01*
X160422527Y-81983654D01*
X159238527Y-81983654D01*
X159238527Y-81689057D01*
X159232023Y-81628563D01*
X159180971Y-81491689D01*
X159093430Y-81374750D01*
X158976491Y-81287209D01*
X158839617Y-81236157D01*
X158779123Y-81229654D01*
X157084527Y-81229654D01*
X156576527Y-81229654D01*
X154881931Y-81229654D01*
X154821436Y-81236157D01*
X154684562Y-81287209D01*
X154567623Y-81374750D01*
X154480082Y-81491689D01*
X154429030Y-81628563D01*
X154422527Y-81689057D01*
X154422527Y-81983654D01*
X153238527Y-81983654D01*
X153238527Y-81689057D01*
X153232023Y-81628563D01*
X153180971Y-81491689D01*
X153093430Y-81374750D01*
X152976491Y-81287209D01*
X152839617Y-81236157D01*
X152779123Y-81229654D01*
X151084527Y-81229654D01*
X150576527Y-81229654D01*
X148881931Y-81229654D01*
X148821436Y-81236157D01*
X148684562Y-81287209D01*
X148567623Y-81374750D01*
X148480082Y-81491689D01*
X148429030Y-81628563D01*
X148422527Y-81689057D01*
X148422527Y-81983654D01*
X147238527Y-81983654D01*
X147238527Y-81689057D01*
X147232023Y-81628563D01*
X147180971Y-81491689D01*
X147093430Y-81374750D01*
X146976491Y-81287209D01*
X146839617Y-81236157D01*
X146779123Y-81229654D01*
X145084527Y-81229654D01*
X144576527Y-81229654D01*
X142881931Y-81229654D01*
X142821436Y-81236157D01*
X142684562Y-81287209D01*
X142567623Y-81374750D01*
X142480082Y-81491689D01*
X142429030Y-81628563D01*
X142422527Y-81689057D01*
X142422527Y-81983654D01*
X141238527Y-81983654D01*
X141238527Y-81689057D01*
X141232023Y-81628563D01*
X141180971Y-81491689D01*
X141093430Y-81374750D01*
X140976491Y-81287209D01*
X140839617Y-81236157D01*
X140779123Y-81229654D01*
X139084527Y-81229654D01*
X138576527Y-81229654D01*
X136881931Y-81229654D01*
X136821436Y-81236157D01*
X136684562Y-81287209D01*
X136567623Y-81374750D01*
X136480082Y-81491689D01*
X136429030Y-81628563D01*
X136422527Y-81689057D01*
X136422527Y-81983654D01*
X135238527Y-81983654D01*
X135238527Y-81689057D01*
X135232023Y-81628563D01*
X135180971Y-81491689D01*
X135093430Y-81374750D01*
X134976491Y-81287209D01*
X134839617Y-81236157D01*
X134779123Y-81229654D01*
X133834527Y-81229654D01*
X133326527Y-81229654D01*
X132184527Y-81229654D01*
X131676527Y-81229654D01*
X131381931Y-81229654D01*
X131321436Y-81236157D01*
X131184562Y-81287209D01*
X131067623Y-81374750D01*
X130980082Y-81491689D01*
X130929030Y-81628563D01*
X130922527Y-81689057D01*
X130922527Y-81983654D01*
X96701681Y-81983654D01*
X96766460Y-81852302D01*
X96769655Y-81846767D01*
X96905952Y-81642795D01*
X96909844Y-81637721D01*
X97071606Y-81453273D01*
X97076130Y-81448750D01*
X97260579Y-81286998D01*
X97265636Y-81283118D01*
X97469635Y-81146815D01*
X97475166Y-81143623D01*
X97695183Y-81035128D01*
X97701102Y-81032676D01*
X97701267Y-81032620D01*
X97933407Y-80953822D01*
X97939573Y-80952170D01*
X98180197Y-80904311D01*
X98186531Y-80903478D01*
X98379600Y-80890826D01*
X98434056Y-80887258D01*
X98437260Y-80887153D01*
X98459057Y-80887153D01*
X179032924Y-80887153D01*
X179036129Y-80887258D01*
G37*
%TD.AperFunction*%
%TD*%
%TA.AperFunction,Conductor*%
%TO.N,GND*%
G36*
X99404888Y-87338353D02*
G01*
X98821627Y-87338353D01*
X98821627Y-88092353D01*
X99412280Y-88092353D01*
X99417261Y-88600353D01*
X98821627Y-88600353D01*
X98821627Y-91654353D01*
X99116223Y-91654353D01*
X99176717Y-91647849D01*
X99313591Y-91596797D01*
X99430530Y-91509257D01*
X99445581Y-91489149D01*
X99460626Y-93023651D01*
X99430530Y-92983449D01*
X99313591Y-92895908D01*
X99176717Y-92844856D01*
X99116223Y-92838353D01*
X98821627Y-92838353D01*
X98821627Y-97654353D01*
X99116223Y-97654353D01*
X99176717Y-97647849D01*
X99313591Y-97596797D01*
X99430530Y-97509256D01*
X99503644Y-97411588D01*
X99520259Y-99106254D01*
X99518071Y-99100388D01*
X99430530Y-98983449D01*
X99313591Y-98895908D01*
X99176717Y-98844856D01*
X99116223Y-98838353D01*
X98821627Y-98838353D01*
X98821627Y-103654353D01*
X99116223Y-103654353D01*
X99176717Y-103647849D01*
X99313591Y-103596797D01*
X99430530Y-103509256D01*
X99518071Y-103392317D01*
X99561146Y-103276827D01*
X99716651Y-119138353D01*
X99624627Y-119138353D01*
X99589979Y-119124001D01*
X99575627Y-119089353D01*
X99575627Y-118750353D01*
X98821627Y-118750353D01*
X98821627Y-119892353D01*
X99724044Y-119892353D01*
X99729024Y-120400353D01*
X98821627Y-120400353D01*
X98821627Y-121154353D01*
X99736416Y-121154353D01*
X99812316Y-128896153D01*
X94436128Y-128896153D01*
X94432924Y-128896048D01*
X94186537Y-128879902D01*
X94180182Y-128879066D01*
X93939577Y-128831209D01*
X93933386Y-128829550D01*
X93701092Y-128750698D01*
X93695170Y-128748245D01*
X93475154Y-128639746D01*
X93469607Y-128636543D01*
X93318312Y-128535451D01*
X93265633Y-128500252D01*
X93260548Y-128496350D01*
X93076113Y-128334604D01*
X93071581Y-128330072D01*
X92909837Y-128145635D01*
X92905935Y-128140550D01*
X92769649Y-127936579D01*
X92766444Y-127931028D01*
X92741547Y-127880540D01*
X92657943Y-127711003D01*
X92655498Y-127705100D01*
X92576642Y-127472787D01*
X92574988Y-127466613D01*
X92527129Y-127225988D01*
X92526296Y-127219655D01*
X92510132Y-126972952D01*
X92510027Y-126969748D01*
X92510027Y-120400353D01*
X97559627Y-120400353D01*
X97559627Y-120694949D01*
X97566130Y-120755443D01*
X97617182Y-120892317D01*
X97704723Y-121009256D01*
X97821662Y-121096797D01*
X97958536Y-121147849D01*
X98019031Y-121154353D01*
X98313627Y-121154353D01*
X98313627Y-120400353D01*
X97559627Y-120400353D01*
X92510027Y-120400353D01*
X92510027Y-119973255D01*
X92510132Y-119970049D01*
X92526287Y-119723664D01*
X92527124Y-119717310D01*
X92574988Y-119476710D01*
X92576641Y-119470540D01*
X92655504Y-119238231D01*
X92657954Y-119232319D01*
X92766460Y-119012302D01*
X92769655Y-119006767D01*
X92905952Y-118802795D01*
X92909844Y-118797721D01*
X92951386Y-118750353D01*
X97559627Y-118750353D01*
X97559627Y-119892353D01*
X98313627Y-119892353D01*
X98313627Y-118750353D01*
X97559627Y-118750353D01*
X92951386Y-118750353D01*
X93071606Y-118613273D01*
X93076130Y-118608750D01*
X93260579Y-118446998D01*
X93265636Y-118443118D01*
X93469635Y-118306815D01*
X93475166Y-118303623D01*
X93599415Y-118242353D01*
X97559627Y-118242353D01*
X98313627Y-118242353D01*
X98313627Y-116838353D01*
X98821627Y-116838353D01*
X98821627Y-118242353D01*
X99575627Y-118242353D01*
X99575627Y-117297756D01*
X99569123Y-117237262D01*
X99518071Y-117100388D01*
X99430530Y-116983449D01*
X99313591Y-116895908D01*
X99176717Y-116844856D01*
X99116223Y-116838353D01*
X98821627Y-116838353D01*
X98313627Y-116838353D01*
X98019031Y-116838353D01*
X97958536Y-116844856D01*
X97821662Y-116895908D01*
X97704723Y-116983449D01*
X97617182Y-117100388D01*
X97566130Y-117237262D01*
X97559627Y-117297756D01*
X97559627Y-118242353D01*
X93599415Y-118242353D01*
X93695183Y-118195128D01*
X93701102Y-118192676D01*
X93933407Y-118113822D01*
X93939573Y-118112170D01*
X94180197Y-118064311D01*
X94186531Y-118063478D01*
X94432947Y-118047330D01*
X94436104Y-118047226D01*
X94570566Y-118047225D01*
X94840314Y-118011708D01*
X95103118Y-117941285D01*
X95354482Y-117837162D01*
X95590105Y-117701120D01*
X95805954Y-117535487D01*
X95998338Y-117343097D01*
X96163963Y-117127241D01*
X96299996Y-116891613D01*
X96404110Y-116640245D01*
X96474523Y-116377439D01*
X96510030Y-116107689D01*
X96510027Y-115971651D01*
X96510027Y-113500353D01*
X97559627Y-113500353D01*
X97559627Y-115194949D01*
X97566130Y-115255443D01*
X97617182Y-115392317D01*
X97704723Y-115509256D01*
X97821662Y-115596797D01*
X97958536Y-115647849D01*
X98019031Y-115654353D01*
X98313627Y-115654353D01*
X98313627Y-113500353D01*
X98821627Y-113500353D01*
X98821627Y-115654353D01*
X99116223Y-115654353D01*
X99176717Y-115647849D01*
X99313591Y-115596797D01*
X99430530Y-115509256D01*
X99518071Y-115392317D01*
X99569123Y-115255443D01*
X99575627Y-115194949D01*
X99575627Y-113500353D01*
X98821627Y-113500353D01*
X98313627Y-113500353D01*
X97559627Y-113500353D01*
X96510027Y-113500353D01*
X96510027Y-112992353D01*
X97559627Y-112992353D01*
X98313627Y-112992353D01*
X98313627Y-110838353D01*
X98821627Y-110838353D01*
X98821627Y-112992353D01*
X99575627Y-112992353D01*
X99575627Y-111297756D01*
X99569123Y-111237262D01*
X99518071Y-111100388D01*
X99430530Y-110983449D01*
X99313591Y-110895908D01*
X99176717Y-110844856D01*
X99116223Y-110838353D01*
X98821627Y-110838353D01*
X98313627Y-110838353D01*
X98019031Y-110838353D01*
X97958536Y-110844856D01*
X97821662Y-110895908D01*
X97704723Y-110983449D01*
X97617182Y-111100388D01*
X97566130Y-111237262D01*
X97559627Y-111297756D01*
X97559627Y-112992353D01*
X96510027Y-112992353D01*
X96510027Y-107500353D01*
X97559627Y-107500353D01*
X97559627Y-109194949D01*
X97566130Y-109255443D01*
X97617182Y-109392317D01*
X97704723Y-109509256D01*
X97821662Y-109596797D01*
X97958536Y-109647849D01*
X98019031Y-109654353D01*
X98313627Y-109654353D01*
X98313627Y-107500353D01*
X98821627Y-107500353D01*
X98821627Y-109654353D01*
X99116223Y-109654353D01*
X99176717Y-109647849D01*
X99313591Y-109596797D01*
X99430530Y-109509256D01*
X99518071Y-109392317D01*
X99569123Y-109255443D01*
X99575627Y-109194949D01*
X99575627Y-107500353D01*
X98821627Y-107500353D01*
X98313627Y-107500353D01*
X97559627Y-107500353D01*
X96510027Y-107500353D01*
X96510027Y-106992353D01*
X97559627Y-106992353D01*
X98313627Y-106992353D01*
X98313627Y-104838353D01*
X98821627Y-104838353D01*
X98821627Y-106992353D01*
X99575627Y-106992353D01*
X99575627Y-105297756D01*
X99569123Y-105237262D01*
X99518071Y-105100388D01*
X99430530Y-104983449D01*
X99313591Y-104895908D01*
X99176717Y-104844856D01*
X99116223Y-104838353D01*
X98821627Y-104838353D01*
X98313627Y-104838353D01*
X98019031Y-104838353D01*
X97958536Y-104844856D01*
X97821662Y-104895908D01*
X97704723Y-104983449D01*
X97617182Y-105100388D01*
X97566130Y-105237262D01*
X97559627Y-105297756D01*
X97559627Y-106992353D01*
X96510027Y-106992353D01*
X96510027Y-101500353D01*
X97559627Y-101500353D01*
X97559627Y-103194949D01*
X97566130Y-103255443D01*
X97617182Y-103392317D01*
X97704723Y-103509256D01*
X97821662Y-103596797D01*
X97958536Y-103647849D01*
X98019031Y-103654353D01*
X98313627Y-103654353D01*
X98313627Y-101500353D01*
X97559627Y-101500353D01*
X96510027Y-101500353D01*
X96510027Y-100992353D01*
X97559627Y-100992353D01*
X98313627Y-100992353D01*
X98313627Y-98838353D01*
X98019031Y-98838353D01*
X97958536Y-98844856D01*
X97821662Y-98895908D01*
X97704723Y-98983449D01*
X97617182Y-99100388D01*
X97566130Y-99237262D01*
X97559627Y-99297756D01*
X97559627Y-100992353D01*
X96510027Y-100992353D01*
X96510027Y-95500353D01*
X97559627Y-95500353D01*
X97559627Y-97194949D01*
X97566130Y-97255443D01*
X97617182Y-97392317D01*
X97704723Y-97509256D01*
X97821662Y-97596797D01*
X97958536Y-97647849D01*
X98019031Y-97654353D01*
X98313627Y-97654353D01*
X98313627Y-95500353D01*
X97559627Y-95500353D01*
X96510027Y-95500353D01*
X96510027Y-94992353D01*
X97559627Y-94992353D01*
X98313627Y-94992353D01*
X98313627Y-92838353D01*
X98019031Y-92838353D01*
X97958536Y-92844856D01*
X97821662Y-92895908D01*
X97704723Y-92983449D01*
X97617182Y-93100388D01*
X97566130Y-93237262D01*
X97559627Y-93297756D01*
X97559627Y-94992353D01*
X96510027Y-94992353D01*
X96510027Y-90250353D01*
X97559627Y-90250353D01*
X97559627Y-91194949D01*
X97566130Y-91255443D01*
X97617182Y-91392317D01*
X97704723Y-91509256D01*
X97821662Y-91596797D01*
X97958536Y-91647849D01*
X98019031Y-91654353D01*
X98313627Y-91654353D01*
X98313627Y-90250353D01*
X97559627Y-90250353D01*
X96510027Y-90250353D01*
X96510027Y-88600353D01*
X97559627Y-88600353D01*
X97559627Y-89742353D01*
X98313627Y-89742353D01*
X98313627Y-88600353D01*
X97559627Y-88600353D01*
X96510027Y-88600353D01*
X96510027Y-88092353D01*
X97559627Y-88092353D01*
X98313627Y-88092353D01*
X98313627Y-87338353D01*
X98019031Y-87338353D01*
X97958536Y-87344856D01*
X97821662Y-87395908D01*
X97704723Y-87483449D01*
X97617182Y-87600388D01*
X97566130Y-87737262D01*
X97559627Y-87797756D01*
X97559627Y-88092353D01*
X96510027Y-88092353D01*
X96510027Y-82813255D01*
X96510132Y-82810049D01*
X96526287Y-82563664D01*
X96527124Y-82557310D01*
X96574988Y-82316710D01*
X96576641Y-82310540D01*
X96655504Y-82078231D01*
X96657954Y-82072319D01*
X96766460Y-81852302D01*
X96769655Y-81846767D01*
X96905952Y-81642795D01*
X96909844Y-81637721D01*
X97071606Y-81453273D01*
X97076130Y-81448750D01*
X97260579Y-81286998D01*
X97265636Y-81283118D01*
X97469635Y-81146815D01*
X97475166Y-81143623D01*
X97695183Y-81035128D01*
X97701102Y-81032676D01*
X97933407Y-80953822D01*
X97939573Y-80952170D01*
X98180197Y-80904311D01*
X98186531Y-80903478D01*
X98379600Y-80890826D01*
X98434056Y-80887258D01*
X98437260Y-80887153D01*
X99341641Y-80887153D01*
X99404888Y-87338353D01*
G37*
%TD.AperFunction*%
%TD*%
%TA.AperFunction,Conductor*%
%TO.N,GND*%
G36*
X185713578Y-124105107D02*
G01*
X185711125Y-124111028D01*
X185602631Y-124331045D01*
X185599427Y-124336596D01*
X185463136Y-124540579D01*
X185459234Y-124545664D01*
X185297491Y-124730102D01*
X185292959Y-124734635D01*
X185108519Y-124896391D01*
X185103434Y-124900293D01*
X184899456Y-125036592D01*
X184893905Y-125039796D01*
X184673893Y-125148298D01*
X184667971Y-125150751D01*
X184435673Y-125229610D01*
X184429482Y-125231269D01*
X184188881Y-125279131D01*
X184182527Y-125279968D01*
X183958662Y-125294644D01*
X183937255Y-125296048D01*
X183934052Y-125296153D01*
X160917401Y-125296153D01*
X160916557Y-125296225D01*
X160821845Y-125296225D01*
X160598786Y-125328292D01*
X160598780Y-125328293D01*
X160382565Y-125391775D01*
X160382557Y-125391777D01*
X160382553Y-125391779D01*
X160382549Y-125391780D01*
X160382540Y-125391784D01*
X160177561Y-125485390D01*
X160177554Y-125485394D01*
X159987984Y-125607216D01*
X159987961Y-125607233D01*
X159817654Y-125754799D01*
X159670076Y-125925104D01*
X159670065Y-125925118D01*
X159548230Y-126114688D01*
X159454606Y-126319678D01*
X159454604Y-126319683D01*
X159391108Y-126535908D01*
X159359031Y-126758970D01*
X159359030Y-126758975D01*
X159359027Y-126844172D01*
X159359027Y-127469731D01*
X159358876Y-127473574D01*
X159341797Y-127690661D01*
X159340594Y-127698255D01*
X159290219Y-127908108D01*
X159287844Y-127915421D01*
X159205255Y-128114826D01*
X159201764Y-128121677D01*
X159089004Y-128305695D01*
X159084485Y-128311916D01*
X158944321Y-128476036D01*
X158938884Y-128481473D01*
X158774775Y-128621642D01*
X158768554Y-128626162D01*
X158584538Y-128738933D01*
X158577688Y-128742424D01*
X158378294Y-128825021D01*
X158370981Y-128827397D01*
X158161122Y-128877783D01*
X158153528Y-128878986D01*
X157937384Y-128896002D01*
X157933538Y-128896153D01*
X94436128Y-128896153D01*
X94432924Y-128896048D01*
X94186537Y-128879902D01*
X94180182Y-128879066D01*
X93939577Y-128831209D01*
X93933386Y-128829550D01*
X93701092Y-128750698D01*
X93695170Y-128748245D01*
X93475154Y-128639746D01*
X93469607Y-128636543D01*
X93318312Y-128535451D01*
X93265633Y-128500252D01*
X93260548Y-128496350D01*
X93076113Y-128334604D01*
X93071581Y-128330072D01*
X93053089Y-128308986D01*
X92909837Y-128145635D01*
X92905935Y-128140550D01*
X92769649Y-127936579D01*
X92766444Y-127931028D01*
X92705485Y-127807412D01*
X92657943Y-127711003D01*
X92655498Y-127705100D01*
X92576642Y-127472787D01*
X92574988Y-127466613D01*
X92527129Y-127225988D01*
X92526296Y-127219655D01*
X92510132Y-126972952D01*
X92510027Y-126969748D01*
X92510027Y-124045653D01*
X185733759Y-124045653D01*
X185713578Y-124105107D01*
G37*
%TD.AperFunction*%
%TD*%
%TA.AperFunction,Conductor*%
%TO.N,GND*%
G36*
X179036129Y-80887258D02*
G01*
X179282522Y-80903410D01*
X179288876Y-80904246D01*
X179529479Y-80952108D01*
X179535660Y-80953764D01*
X179767959Y-81032621D01*
X179773872Y-81035070D01*
X179993904Y-81143579D01*
X179999439Y-81146774D01*
X180150739Y-81247869D01*
X180203418Y-81283068D01*
X180208504Y-81286970D01*
X180383287Y-81440251D01*
X180392939Y-81448715D01*
X180397471Y-81453247D01*
X180559224Y-81637689D01*
X180563116Y-81642760D01*
X180658376Y-81785325D01*
X180699409Y-81846734D01*
X180702614Y-81852284D01*
X180811121Y-82072309D01*
X180813573Y-82078231D01*
X180892428Y-82310517D01*
X180894087Y-82316708D01*
X180941949Y-82557304D01*
X180942786Y-82563658D01*
X180958922Y-82809763D01*
X180959027Y-82812969D01*
X180959027Y-111989007D01*
X180959045Y-111989229D01*
X180959044Y-112107682D01*
X180959044Y-112107685D01*
X180994550Y-112377428D01*
X181064965Y-112640236D01*
X181064967Y-112640241D01*
X181169072Y-112891586D01*
X181169076Y-112891593D01*
X181169077Y-112891595D01*
X181305110Y-113127218D01*
X181432739Y-113293549D01*
X181470738Y-113343071D01*
X181470740Y-113343073D01*
X181663115Y-113535449D01*
X181663127Y-113535460D01*
X181878953Y-113701070D01*
X181878962Y-113701076D01*
X181878966Y-113701079D01*
X182114587Y-113837114D01*
X182365948Y-113941230D01*
X182365953Y-113941231D01*
X182365955Y-113941232D01*
X182628741Y-114011643D01*
X182628742Y-114011643D01*
X182628749Y-114011645D01*
X182898493Y-114047154D01*
X183034529Y-114047153D01*
X183932923Y-114047153D01*
X183936128Y-114047258D01*
X184182521Y-114063410D01*
X184188875Y-114064246D01*
X184429478Y-114112108D01*
X184435659Y-114113764D01*
X184667959Y-114192621D01*
X184673872Y-114195070D01*
X184893903Y-114303578D01*
X184899438Y-114306774D01*
X185050736Y-114407868D01*
X185103417Y-114443068D01*
X185108502Y-114446970D01*
X185292938Y-114608715D01*
X185297470Y-114613247D01*
X185459218Y-114797683D01*
X185463120Y-114802768D01*
X185599413Y-115006740D01*
X185602617Y-115012290D01*
X185711118Y-115232301D01*
X185713571Y-115238223D01*
X185792428Y-115470516D01*
X185794087Y-115476707D01*
X185841949Y-115717304D01*
X185842786Y-115723658D01*
X185858922Y-115969747D01*
X185859027Y-115972953D01*
X185859027Y-123370053D01*
X185858922Y-123373257D01*
X185842778Y-123619650D01*
X185841942Y-123626004D01*
X185794087Y-123866616D01*
X185792428Y-123872808D01*
X185713578Y-124105107D01*
X185711125Y-124111028D01*
X185602631Y-124331045D01*
X185599427Y-124336596D01*
X185463136Y-124540579D01*
X185459234Y-124545664D01*
X185297491Y-124730102D01*
X185292959Y-124734635D01*
X185108519Y-124896391D01*
X185103434Y-124900293D01*
X184899456Y-125036592D01*
X184893905Y-125039796D01*
X184673893Y-125148298D01*
X184667971Y-125150751D01*
X184435673Y-125229610D01*
X184429482Y-125231269D01*
X184188881Y-125279131D01*
X184182527Y-125279968D01*
X183958662Y-125294644D01*
X183937255Y-125296048D01*
X183934052Y-125296153D01*
X176344434Y-125296153D01*
X176981883Y-80887153D01*
X179032924Y-80887153D01*
X179036129Y-80887258D01*
G37*
%TD.AperFunction*%
%TD*%
%TA.AperFunction,Conductor*%
%TO.N,GND*%
G36*
X157287487Y-117338657D02*
G01*
X157415529Y-117378153D01*
X157515839Y-117378153D01*
X157615026Y-117363203D01*
X157735751Y-117305065D01*
X157736527Y-117304344D01*
X157736527Y-119108847D01*
X157677567Y-119068649D01*
X157549525Y-119029153D01*
X157449215Y-119029153D01*
X157350028Y-119044103D01*
X157229303Y-119102241D01*
X157228527Y-119102961D01*
X157228527Y-117298458D01*
X157287487Y-117338657D01*
G37*
%TD.AperFunction*%
%TA.AperFunction,Conductor*%
G36*
X179038645Y-80887422D02*
G01*
X179277487Y-80903080D01*
X179293813Y-80905229D01*
X179524531Y-80951124D01*
X179540442Y-80955387D01*
X179763182Y-81031000D01*
X179778403Y-81037305D01*
X179989371Y-81141343D01*
X180003637Y-81149579D01*
X180199222Y-81280264D01*
X180212297Y-81290297D01*
X180389145Y-81445388D01*
X180400799Y-81457042D01*
X180555887Y-81633884D01*
X180565921Y-81646959D01*
X180696610Y-81842545D01*
X180704850Y-81856818D01*
X180808884Y-82067772D01*
X180815192Y-82082999D01*
X180890808Y-82305744D01*
X180895073Y-82321663D01*
X180940965Y-82552354D01*
X180943117Y-82568695D01*
X180958757Y-82807246D01*
X180959027Y-82815489D01*
X180959027Y-111995537D01*
X180959045Y-111995759D01*
X180959044Y-112107685D01*
X180959044Y-112107698D01*
X180994549Y-112377422D01*
X180994553Y-112377443D01*
X181064959Y-112640219D01*
X181064962Y-112640229D01*
X181104081Y-112734674D01*
X181169077Y-112891595D01*
X181169080Y-112891600D01*
X181305106Y-113127212D01*
X181305109Y-113127218D01*
X181470728Y-113343059D01*
X181470738Y-113343070D01*
X181663114Y-113535448D01*
X181663126Y-113535459D01*
X181797186Y-113638327D01*
X181878966Y-113701079D01*
X182114587Y-113837114D01*
X182114589Y-113837115D01*
X182114593Y-113837117D01*
X182257121Y-113896153D01*
X182365948Y-113941230D01*
X182628749Y-114011645D01*
X182628751Y-114011645D01*
X182628754Y-114011646D01*
X182763621Y-114029399D01*
X182898493Y-114047154D01*
X183034529Y-114047153D01*
X183930403Y-114047153D01*
X183938644Y-114047422D01*
X184177486Y-114063080D01*
X184193812Y-114065229D01*
X184424530Y-114111124D01*
X184440441Y-114115387D01*
X184663182Y-114191000D01*
X184678400Y-114197303D01*
X184889379Y-114301347D01*
X184903636Y-114309579D01*
X185099221Y-114440264D01*
X185112296Y-114450297D01*
X185289144Y-114605388D01*
X185300798Y-114617042D01*
X185455890Y-114793889D01*
X185465923Y-114806964D01*
X185596606Y-115002540D01*
X185604847Y-115016813D01*
X185708884Y-115227771D01*
X185715192Y-115242998D01*
X185790808Y-115465743D01*
X185795073Y-115481662D01*
X185840965Y-115712354D01*
X185843117Y-115728694D01*
X185858757Y-115967231D01*
X185859027Y-115975475D01*
X185859027Y-123367537D01*
X185858757Y-123375775D01*
X185843107Y-123614617D01*
X185840957Y-123630957D01*
X185811824Y-123777439D01*
X185795073Y-123861660D01*
X185790807Y-123877580D01*
X185715201Y-124100326D01*
X185708894Y-124115554D01*
X185604863Y-124326518D01*
X185596623Y-124340792D01*
X185465938Y-124536385D01*
X185455904Y-124549461D01*
X185300814Y-124726313D01*
X185289160Y-124737967D01*
X185112317Y-124893060D01*
X185099242Y-124903094D01*
X184903656Y-125033786D01*
X184889382Y-125042027D01*
X184678422Y-125146064D01*
X184663196Y-125152371D01*
X184440452Y-125227987D01*
X184424531Y-125232254D01*
X184193824Y-125278148D01*
X184177484Y-125280299D01*
X183976244Y-125293492D01*
X183939772Y-125295883D01*
X183931532Y-125296153D01*
X160910739Y-125296153D01*
X160909895Y-125296225D01*
X160821852Y-125296225D01*
X160821851Y-125296225D01*
X160821849Y-125296225D01*
X160602001Y-125327830D01*
X160598777Y-125328294D01*
X160382558Y-125391777D01*
X160382552Y-125391779D01*
X160177558Y-125485392D01*
X159987971Y-125607225D01*
X159817653Y-125754800D01*
X159670073Y-125925108D01*
X159548227Y-126114692D01*
X159548226Y-126114693D01*
X159454608Y-126319673D01*
X159454604Y-126319684D01*
X159391109Y-126535904D01*
X159359030Y-126758976D01*
X159359030Y-126758977D01*
X159359027Y-126844174D01*
X159359027Y-127466704D01*
X159358639Y-127476587D01*
X159342272Y-127684620D01*
X159339180Y-127704146D01*
X159314392Y-127807412D01*
X159291633Y-127902222D01*
X159285523Y-127921027D01*
X159207576Y-128109224D01*
X159198600Y-128126841D01*
X159092169Y-128300530D01*
X159080548Y-128316526D01*
X158948258Y-128471426D01*
X158934278Y-128485407D01*
X158779382Y-128617707D01*
X158763387Y-128629329D01*
X158589709Y-128735765D01*
X158572091Y-128744742D01*
X158383889Y-128822702D01*
X158365085Y-128828812D01*
X158167012Y-128876369D01*
X158147485Y-128879462D01*
X157966110Y-128893740D01*
X157940406Y-128895764D01*
X157930519Y-128896153D01*
X94438645Y-128896153D01*
X94430406Y-128895883D01*
X94191570Y-128880232D01*
X94175229Y-128878081D01*
X93944528Y-128832194D01*
X93928607Y-128827928D01*
X93924391Y-128826497D01*
X93891598Y-128815365D01*
X93705872Y-128752320D01*
X93690645Y-128746013D01*
X93479682Y-128641978D01*
X93465409Y-128633737D01*
X93269834Y-128503059D01*
X93256757Y-128493026D01*
X93248069Y-128485407D01*
X93079901Y-128337926D01*
X93068250Y-128326274D01*
X92913161Y-128149425D01*
X92903137Y-128136363D01*
X92772450Y-127940771D01*
X92764211Y-127926501D01*
X92752238Y-127902222D01*
X92660177Y-127715533D01*
X92653871Y-127700307D01*
X92648546Y-127684620D01*
X92578265Y-127477568D01*
X92574001Y-127461649D01*
X92528117Y-127230953D01*
X92525966Y-127214612D01*
X92510297Y-126975463D01*
X92510027Y-126967225D01*
X92510027Y-120280512D01*
X148800027Y-120280512D01*
X148800028Y-120280519D01*
X148802941Y-120305643D01*
X148802943Y-120305647D01*
X148848320Y-120408418D01*
X148927759Y-120487857D01*
X148927761Y-120487858D01*
X148927762Y-120487859D01*
X149030536Y-120533238D01*
X149055662Y-120536153D01*
X150669391Y-120536152D01*
X150694518Y-120533238D01*
X150797292Y-120487859D01*
X150876733Y-120408418D01*
X150922112Y-120305644D01*
X150925027Y-120280518D01*
X150925027Y-120280512D01*
X151340027Y-120280512D01*
X151340028Y-120280519D01*
X151342941Y-120305643D01*
X151342943Y-120305647D01*
X151388320Y-120408418D01*
X151467759Y-120487857D01*
X151467761Y-120487858D01*
X151467762Y-120487859D01*
X151570536Y-120533238D01*
X151595662Y-120536153D01*
X153209391Y-120536152D01*
X153234518Y-120533238D01*
X153337292Y-120487859D01*
X153416733Y-120408418D01*
X153462112Y-120305644D01*
X153465027Y-120280518D01*
X153465027Y-120280512D01*
X153880027Y-120280512D01*
X153880028Y-120280519D01*
X153882941Y-120305643D01*
X153882943Y-120305647D01*
X153928320Y-120408418D01*
X154007759Y-120487857D01*
X154007761Y-120487858D01*
X154007762Y-120487859D01*
X154110536Y-120533238D01*
X154135662Y-120536153D01*
X155749391Y-120536152D01*
X155774518Y-120533238D01*
X155877292Y-120487859D01*
X155956733Y-120408418D01*
X155986703Y-120340541D01*
X156032515Y-120286304D01*
X156100378Y-120265445D01*
X156168746Y-120284587D01*
X156215912Y-120337652D01*
X156220023Y-120347402D01*
X156270083Y-120481619D01*
X156357622Y-120598557D01*
X156474561Y-120686097D01*
X156611433Y-120737147D01*
X156671929Y-120743652D01*
X156671942Y-120743653D01*
X157228527Y-120743653D01*
X157228527Y-119838458D01*
X157287487Y-119878657D01*
X157415529Y-119918153D01*
X157515839Y-119918153D01*
X157615026Y-119903203D01*
X157735751Y-119845065D01*
X157736527Y-119844344D01*
X157736527Y-120743653D01*
X158293112Y-120743653D01*
X158293124Y-120743652D01*
X158353620Y-120737147D01*
X158490491Y-120686097D01*
X158490492Y-120686097D01*
X158607431Y-120598557D01*
X158694971Y-120481618D01*
X158745030Y-120347403D01*
X158787576Y-120290567D01*
X158854097Y-120265756D01*
X158923471Y-120280847D01*
X158973673Y-120331049D01*
X158978350Y-120340541D01*
X159008320Y-120408418D01*
X159087759Y-120487857D01*
X159087761Y-120487858D01*
X159087762Y-120487859D01*
X159190536Y-120533238D01*
X159215662Y-120536153D01*
X160829391Y-120536152D01*
X160854518Y-120533238D01*
X160957292Y-120487859D01*
X161036733Y-120408418D01*
X161082112Y-120305644D01*
X161085027Y-120280518D01*
X161085027Y-120280512D01*
X161500027Y-120280512D01*
X161500028Y-120280519D01*
X161502941Y-120305643D01*
X161502943Y-120305647D01*
X161548320Y-120408418D01*
X161627759Y-120487857D01*
X161627761Y-120487858D01*
X161627762Y-120487859D01*
X161730536Y-120533238D01*
X161755662Y-120536153D01*
X163369391Y-120536152D01*
X163394518Y-120533238D01*
X163497292Y-120487859D01*
X163576733Y-120408418D01*
X163622112Y-120305644D01*
X163625027Y-120280518D01*
X163625026Y-118666789D01*
X163622112Y-118641662D01*
X163576733Y-118538888D01*
X163576733Y-118538887D01*
X163497294Y-118459448D01*
X163497292Y-118459447D01*
X163394516Y-118414067D01*
X163394517Y-118414067D01*
X163369395Y-118411153D01*
X161755667Y-118411153D01*
X161755660Y-118411154D01*
X161730536Y-118414067D01*
X161730532Y-118414069D01*
X161627761Y-118459446D01*
X161548322Y-118538885D01*
X161548321Y-118538887D01*
X161502941Y-118641662D01*
X161500027Y-118666782D01*
X161500027Y-120280512D01*
X161085027Y-120280512D01*
X161085026Y-118666789D01*
X161082112Y-118641662D01*
X161036733Y-118538888D01*
X161036733Y-118538887D01*
X160957294Y-118459448D01*
X160957292Y-118459447D01*
X160854516Y-118414067D01*
X160854517Y-118414067D01*
X160829395Y-118411153D01*
X159215667Y-118411153D01*
X159215660Y-118411154D01*
X159190536Y-118414067D01*
X159190532Y-118414069D01*
X159087761Y-118459446D01*
X159008321Y-118538886D01*
X158978350Y-118606765D01*
X158932536Y-118661002D01*
X158864673Y-118681860D01*
X158796305Y-118662717D01*
X158749141Y-118609651D01*
X158745030Y-118599902D01*
X158694971Y-118465687D01*
X158607431Y-118348748D01*
X158548350Y-118304521D01*
X158505803Y-118247685D01*
X158500739Y-118176870D01*
X158534764Y-118114557D01*
X158548350Y-118102785D01*
X158607431Y-118058557D01*
X158694971Y-117941618D01*
X158745030Y-117807403D01*
X158787576Y-117750567D01*
X158854097Y-117725756D01*
X158923471Y-117740847D01*
X158973673Y-117791049D01*
X158978350Y-117800541D01*
X159008320Y-117868418D01*
X159087759Y-117947857D01*
X159087761Y-117947858D01*
X159087762Y-117947859D01*
X159190536Y-117993238D01*
X159215662Y-117996153D01*
X160829391Y-117996152D01*
X160854518Y-117993238D01*
X160957292Y-117947859D01*
X161036733Y-117868418D01*
X161082112Y-117765644D01*
X161085027Y-117740518D01*
X161085027Y-117740512D01*
X161500027Y-117740512D01*
X161500028Y-117740519D01*
X161502941Y-117765643D01*
X161502943Y-117765647D01*
X161548320Y-117868418D01*
X161627759Y-117947857D01*
X161627761Y-117947858D01*
X161627762Y-117947859D01*
X161730536Y-117993238D01*
X161755662Y-117996153D01*
X163369391Y-117996152D01*
X163394518Y-117993238D01*
X163497292Y-117947859D01*
X163576733Y-117868418D01*
X163622112Y-117765644D01*
X163625027Y-117740518D01*
X163625026Y-116126789D01*
X163622112Y-116101662D01*
X163576733Y-115998888D01*
X163576733Y-115998887D01*
X163497294Y-115919448D01*
X163497292Y-115919447D01*
X163394516Y-115874067D01*
X163394517Y-115874067D01*
X163369395Y-115871153D01*
X161755667Y-115871153D01*
X161755660Y-115871154D01*
X161730536Y-115874067D01*
X161730532Y-115874069D01*
X161627761Y-115919446D01*
X161548322Y-115998885D01*
X161548321Y-115998887D01*
X161502941Y-116101662D01*
X161500027Y-116126782D01*
X161500027Y-117740512D01*
X161085027Y-117740512D01*
X161085026Y-116126789D01*
X161082112Y-116101662D01*
X161036733Y-115998888D01*
X161036733Y-115998887D01*
X160957294Y-115919448D01*
X160957292Y-115919447D01*
X160854516Y-115874067D01*
X160854517Y-115874067D01*
X160829395Y-115871153D01*
X159215667Y-115871153D01*
X159215660Y-115871154D01*
X159190536Y-115874067D01*
X159190532Y-115874069D01*
X159087761Y-115919446D01*
X159008321Y-115998886D01*
X158978350Y-116066765D01*
X158932536Y-116121002D01*
X158864673Y-116141860D01*
X158796305Y-116122717D01*
X158749141Y-116069651D01*
X158745030Y-116059902D01*
X158694971Y-115925687D01*
X158607431Y-115808748D01*
X158490492Y-115721208D01*
X158353620Y-115670158D01*
X158293124Y-115663653D01*
X157736527Y-115663653D01*
X157736527Y-116568847D01*
X157677567Y-116528649D01*
X157549525Y-116489153D01*
X157449215Y-116489153D01*
X157350028Y-116504103D01*
X157229303Y-116562241D01*
X157228527Y-116562961D01*
X157228527Y-115663653D01*
X156671929Y-115663653D01*
X156611433Y-115670158D01*
X156474562Y-115721208D01*
X156474561Y-115721208D01*
X156357622Y-115808748D01*
X156270083Y-115925686D01*
X156220023Y-116059903D01*
X156177476Y-116116738D01*
X156110955Y-116141549D01*
X156041581Y-116126457D01*
X155991379Y-116076255D01*
X155986703Y-116066765D01*
X155956733Y-115998888D01*
X155956732Y-115998887D01*
X155956731Y-115998885D01*
X155877294Y-115919448D01*
X155877292Y-115919447D01*
X155774516Y-115874067D01*
X155774517Y-115874067D01*
X155749395Y-115871153D01*
X154135667Y-115871153D01*
X154135660Y-115871154D01*
X154110536Y-115874067D01*
X154110532Y-115874069D01*
X154007761Y-115919446D01*
X153928322Y-115998885D01*
X153928321Y-115998887D01*
X153882941Y-116101662D01*
X153880027Y-116126782D01*
X153880027Y-117740512D01*
X153880028Y-117740519D01*
X153882941Y-117765643D01*
X153882943Y-117765647D01*
X153928320Y-117868418D01*
X154007759Y-117947857D01*
X154007761Y-117947858D01*
X154007762Y-117947859D01*
X154110536Y-117993238D01*
X154135662Y-117996153D01*
X155749391Y-117996152D01*
X155774518Y-117993238D01*
X155877292Y-117947859D01*
X155956733Y-117868418D01*
X155986703Y-117800541D01*
X156032515Y-117746304D01*
X156100378Y-117725445D01*
X156168746Y-117744587D01*
X156215912Y-117797652D01*
X156220023Y-117807402D01*
X156270083Y-117941619D01*
X156357621Y-118058555D01*
X156416704Y-118102785D01*
X156459250Y-118159622D01*
X156464314Y-118230437D01*
X156430289Y-118292749D01*
X156416704Y-118304521D01*
X156357621Y-118348750D01*
X156270083Y-118465686D01*
X156220023Y-118599903D01*
X156177476Y-118656738D01*
X156110955Y-118681549D01*
X156041581Y-118666457D01*
X155991379Y-118616255D01*
X155986703Y-118606765D01*
X155956733Y-118538888D01*
X155956732Y-118538887D01*
X155956731Y-118538885D01*
X155877294Y-118459448D01*
X155877292Y-118459447D01*
X155774516Y-118414067D01*
X155774517Y-118414067D01*
X155749395Y-118411153D01*
X154135667Y-118411153D01*
X154135660Y-118411154D01*
X154110536Y-118414067D01*
X154110532Y-118414069D01*
X154007761Y-118459446D01*
X153928322Y-118538885D01*
X153928321Y-118538887D01*
X153882941Y-118641662D01*
X153880027Y-118666782D01*
X153880027Y-120280512D01*
X153465027Y-120280512D01*
X153465026Y-118666789D01*
X153462112Y-118641662D01*
X153416733Y-118538888D01*
X153416733Y-118538887D01*
X153337294Y-118459448D01*
X153337292Y-118459447D01*
X153234516Y-118414067D01*
X153234517Y-118414067D01*
X153209395Y-118411153D01*
X151595667Y-118411153D01*
X151595660Y-118411154D01*
X151570536Y-118414067D01*
X151570532Y-118414069D01*
X151467761Y-118459446D01*
X151388322Y-118538885D01*
X151388321Y-118538887D01*
X151342941Y-118641662D01*
X151340027Y-118666782D01*
X151340027Y-120280512D01*
X150925027Y-120280512D01*
X150925026Y-118666789D01*
X150922112Y-118641662D01*
X150876733Y-118538888D01*
X150876733Y-118538887D01*
X150797294Y-118459448D01*
X150797292Y-118459447D01*
X150694516Y-118414067D01*
X150694517Y-118414067D01*
X150669395Y-118411153D01*
X149055667Y-118411153D01*
X149055660Y-118411154D01*
X149030536Y-118414067D01*
X149030532Y-118414069D01*
X148927761Y-118459446D01*
X148848322Y-118538885D01*
X148848321Y-118538887D01*
X148802941Y-118641662D01*
X148800027Y-118666782D01*
X148800027Y-120280512D01*
X92510027Y-120280512D01*
X92510027Y-119975777D01*
X92510297Y-119967534D01*
X92518946Y-119835618D01*
X92525957Y-119728688D01*
X92528106Y-119712374D01*
X92574003Y-119481659D01*
X92578264Y-119465758D01*
X92653882Y-119243010D01*
X92660178Y-119227808D01*
X92764227Y-119016829D01*
X92772461Y-119002569D01*
X92903155Y-118806980D01*
X92913178Y-118793920D01*
X93068276Y-118617070D01*
X93079917Y-118605429D01*
X93256781Y-118450329D01*
X93269840Y-118440309D01*
X93465428Y-118309626D01*
X93479685Y-118301395D01*
X93690673Y-118197351D01*
X93705868Y-118191058D01*
X93928636Y-118115442D01*
X93944529Y-118111184D01*
X94175233Y-118065298D01*
X94191573Y-118063148D01*
X94430408Y-118047496D01*
X94438640Y-118047227D01*
X94570367Y-118047225D01*
X94570566Y-118047225D01*
X94840314Y-118011708D01*
X95103118Y-117941285D01*
X95354482Y-117837162D01*
X95354483Y-117837161D01*
X95354486Y-117837160D01*
X95521879Y-117740512D01*
X148800027Y-117740512D01*
X148800028Y-117740519D01*
X148802941Y-117765643D01*
X148802943Y-117765647D01*
X148848320Y-117868418D01*
X148927759Y-117947857D01*
X148927761Y-117947858D01*
X148927762Y-117947859D01*
X149030536Y-117993238D01*
X149055662Y-117996153D01*
X150669391Y-117996152D01*
X150694518Y-117993238D01*
X150797292Y-117947859D01*
X150876733Y-117868418D01*
X150922112Y-117765644D01*
X150925027Y-117740518D01*
X150925027Y-117740512D01*
X151340027Y-117740512D01*
X151340028Y-117740519D01*
X151342941Y-117765643D01*
X151342943Y-117765647D01*
X151388320Y-117868418D01*
X151467759Y-117947857D01*
X151467761Y-117947858D01*
X151467762Y-117947859D01*
X151570536Y-117993238D01*
X151595662Y-117996153D01*
X153209391Y-117996152D01*
X153234518Y-117993238D01*
X153337292Y-117947859D01*
X153416733Y-117868418D01*
X153462112Y-117765644D01*
X153465027Y-117740518D01*
X153465026Y-116126789D01*
X153462112Y-116101662D01*
X153416733Y-115998888D01*
X153416733Y-115998887D01*
X153337294Y-115919448D01*
X153337292Y-115919447D01*
X153234516Y-115874067D01*
X153234517Y-115874067D01*
X153209395Y-115871153D01*
X151595667Y-115871153D01*
X151595660Y-115871154D01*
X151570536Y-115874067D01*
X151570532Y-115874069D01*
X151467761Y-115919446D01*
X151388322Y-115998885D01*
X151388321Y-115998887D01*
X151342941Y-116101662D01*
X151340027Y-116126782D01*
X151340027Y-117740512D01*
X150925027Y-117740512D01*
X150925026Y-116126789D01*
X150922112Y-116101662D01*
X150876733Y-115998888D01*
X150876733Y-115998887D01*
X150797294Y-115919448D01*
X150797292Y-115919447D01*
X150694516Y-115874067D01*
X150694517Y-115874067D01*
X150669395Y-115871153D01*
X149055667Y-115871153D01*
X149055660Y-115871154D01*
X149030536Y-115874067D01*
X149030532Y-115874069D01*
X148927761Y-115919446D01*
X148848322Y-115998885D01*
X148848321Y-115998887D01*
X148802941Y-116101662D01*
X148800027Y-116126782D01*
X148800027Y-117740512D01*
X95521879Y-117740512D01*
X95590100Y-117701123D01*
X95590100Y-117701122D01*
X95590105Y-117701120D01*
X95805954Y-117535487D01*
X95998338Y-117343097D01*
X96163963Y-117127241D01*
X96299996Y-116891613D01*
X96404110Y-116640245D01*
X96425010Y-116562241D01*
X96474522Y-116377443D01*
X96474522Y-116377442D01*
X96474523Y-116377439D01*
X96505573Y-116141549D01*
X96510029Y-116107700D01*
X96510029Y-116107696D01*
X96510030Y-116107689D01*
X96510027Y-115971651D01*
X96510027Y-114221656D01*
X106456886Y-114221656D01*
X106477398Y-114429932D01*
X106477399Y-114429938D01*
X106477400Y-114429939D01*
X106538155Y-114630222D01*
X106636816Y-114814803D01*
X106769591Y-114976589D01*
X106931377Y-115109364D01*
X107115958Y-115208025D01*
X107316241Y-115268780D01*
X107316245Y-115268780D01*
X107316247Y-115268781D01*
X107524524Y-115289294D01*
X107524527Y-115289294D01*
X107524530Y-115289294D01*
X107732806Y-115268781D01*
X107732807Y-115268780D01*
X107732813Y-115268780D01*
X107933096Y-115208025D01*
X108117677Y-115109364D01*
X108279463Y-114976589D01*
X108412238Y-114814803D01*
X108510899Y-114630222D01*
X108571654Y-114429939D01*
X108584320Y-114301343D01*
X108592168Y-114221656D01*
X111456886Y-114221656D01*
X111477398Y-114429932D01*
X111477399Y-114429938D01*
X111477400Y-114429939D01*
X111538155Y-114630222D01*
X111636816Y-114814803D01*
X111769591Y-114976589D01*
X111931377Y-115109364D01*
X112115958Y-115208025D01*
X112316241Y-115268780D01*
X112316245Y-115268780D01*
X112316247Y-115268781D01*
X112524524Y-115289294D01*
X112524527Y-115289294D01*
X112524530Y-115289294D01*
X112732806Y-115268781D01*
X112732807Y-115268780D01*
X112732813Y-115268780D01*
X112933096Y-115208025D01*
X113117677Y-115109364D01*
X113279463Y-114976589D01*
X113412238Y-114814803D01*
X113510899Y-114630222D01*
X113571654Y-114429939D01*
X113584320Y-114301343D01*
X113592168Y-114221656D01*
X113592168Y-114221649D01*
X113571655Y-114013373D01*
X113571654Y-114013371D01*
X113571654Y-114013367D01*
X113510899Y-113813084D01*
X113412238Y-113628503D01*
X113279463Y-113466717D01*
X113117677Y-113333942D01*
X112933096Y-113235281D01*
X112732813Y-113174526D01*
X112732812Y-113174525D01*
X112732806Y-113174524D01*
X112524530Y-113154012D01*
X112524524Y-113154012D01*
X112316247Y-113174524D01*
X112115957Y-113235281D01*
X111931376Y-113333942D01*
X111769591Y-113466717D01*
X111636816Y-113628502D01*
X111538155Y-113813083D01*
X111477398Y-114013373D01*
X111456886Y-114221649D01*
X111456886Y-114221656D01*
X108592168Y-114221656D01*
X108592168Y-114221649D01*
X108571655Y-114013373D01*
X108571654Y-114013371D01*
X108571654Y-114013367D01*
X108510899Y-113813084D01*
X108412238Y-113628503D01*
X108279463Y-113466717D01*
X108117677Y-113333942D01*
X107933096Y-113235281D01*
X107732813Y-113174526D01*
X107732812Y-113174525D01*
X107732806Y-113174524D01*
X107524530Y-113154012D01*
X107524524Y-113154012D01*
X107316247Y-113174524D01*
X107115957Y-113235281D01*
X106931376Y-113333942D01*
X106769591Y-113466717D01*
X106636816Y-113628502D01*
X106538155Y-113813083D01*
X106477398Y-114013373D01*
X106456886Y-114221649D01*
X106456886Y-114221656D01*
X96510027Y-114221656D01*
X96510027Y-111352354D01*
X125351982Y-111352354D01*
X125357127Y-111394724D01*
X125357127Y-111394726D01*
X125372486Y-111521223D01*
X125432806Y-111680278D01*
X125432808Y-111680282D01*
X125514626Y-111798814D01*
X125529444Y-111820282D01*
X125656775Y-111933087D01*
X125807402Y-112012143D01*
X125807403Y-112012143D01*
X125807405Y-112012144D01*
X125964088Y-112050762D01*
X125972571Y-112052853D01*
X125972574Y-112052853D01*
X126142680Y-112052853D01*
X126142683Y-112052853D01*
X126307852Y-112012143D01*
X126458479Y-111933087D01*
X126585810Y-111820282D01*
X126682445Y-111680283D01*
X126742767Y-111521225D01*
X126757828Y-111397186D01*
X126758127Y-111394726D01*
X126758127Y-111394724D01*
X126763272Y-111352354D01*
X126763272Y-111352351D01*
X126759046Y-111317548D01*
X126758127Y-111302360D01*
X126758127Y-105503655D01*
X132900882Y-105503655D01*
X132921386Y-105672524D01*
X132981706Y-105831578D01*
X132981708Y-105831582D01*
X133082674Y-105977855D01*
X133080210Y-105979555D01*
X133104539Y-106031310D01*
X133106027Y-106050615D01*
X133106027Y-110477522D01*
X133103148Y-110504302D01*
X133102168Y-110508805D01*
X133102168Y-110508810D01*
X133105706Y-110558272D01*
X133106027Y-110567262D01*
X133106027Y-110580679D01*
X133107937Y-110593970D01*
X133108897Y-110602901D01*
X133112435Y-110652363D01*
X133112437Y-110652370D01*
X133114048Y-110656690D01*
X133120704Y-110682765D01*
X133121361Y-110687337D01*
X133121363Y-110687344D01*
X133141958Y-110732440D01*
X133145399Y-110740746D01*
X133153086Y-110761353D01*
X133162731Y-110787213D01*
X133162732Y-110787214D01*
X133165495Y-110790906D01*
X133179233Y-110814060D01*
X133181146Y-110818249D01*
X133181148Y-110818252D01*
X133181149Y-110818253D01*
X133181150Y-110818255D01*
X133184805Y-110822473D01*
X133213619Y-110855726D01*
X133219259Y-110862726D01*
X133227306Y-110873475D01*
X133236801Y-110882970D01*
X133242921Y-110889543D01*
X133273018Y-110924278D01*
X133275399Y-110927025D01*
X133279278Y-110929517D01*
X133300250Y-110946419D01*
X135252638Y-112898807D01*
X135286664Y-112961119D01*
X135288624Y-112972714D01*
X135303589Y-113095956D01*
X135363909Y-113255010D01*
X135363911Y-113255014D01*
X135424685Y-113343059D01*
X135460547Y-113395014D01*
X135587878Y-113507819D01*
X135738505Y-113586875D01*
X135738506Y-113586875D01*
X135738508Y-113586876D01*
X135895191Y-113625494D01*
X135903674Y-113627585D01*
X135903677Y-113627585D01*
X136073783Y-113627585D01*
X136073786Y-113627585D01*
X136238955Y-113586875D01*
X136389582Y-113507819D01*
X136516913Y-113395014D01*
X136613548Y-113255015D01*
X136673870Y-113095957D01*
X136689804Y-112964729D01*
X136694375Y-112927087D01*
X136694375Y-112927082D01*
X136673870Y-112758213D01*
X136613550Y-112599159D01*
X136613548Y-112599155D01*
X136516913Y-112459156D01*
X136516911Y-112459154D01*
X136389587Y-112346355D01*
X136389581Y-112346350D01*
X136238955Y-112267295D01*
X136238951Y-112267293D01*
X136073789Y-112226585D01*
X136073786Y-112226585D01*
X136048234Y-112226585D01*
X135980113Y-112206583D01*
X135959139Y-112189680D01*
X134143932Y-110374473D01*
X134109906Y-110312161D01*
X134107027Y-110285378D01*
X134107027Y-106050615D01*
X134127029Y-105982494D01*
X134130486Y-105977928D01*
X134130380Y-105977855D01*
X134177601Y-105909444D01*
X134231345Y-105831583D01*
X134231801Y-105830382D01*
X134244306Y-105797406D01*
X134291667Y-105672525D01*
X134303195Y-105577583D01*
X134312172Y-105503655D01*
X134312172Y-105503650D01*
X134291667Y-105334781D01*
X134231347Y-105175727D01*
X134231345Y-105175723D01*
X134134710Y-105035724D01*
X134134708Y-105035722D01*
X134007384Y-104922923D01*
X134007378Y-104922918D01*
X133856752Y-104843863D01*
X133856748Y-104843861D01*
X133691586Y-104803153D01*
X133691583Y-104803153D01*
X133521471Y-104803153D01*
X133521467Y-104803153D01*
X133356305Y-104843861D01*
X133356301Y-104843863D01*
X133205675Y-104922918D01*
X133205669Y-104922923D01*
X133078345Y-105035722D01*
X133078343Y-105035724D01*
X132981708Y-105175723D01*
X132981706Y-105175727D01*
X132921386Y-105334781D01*
X132900882Y-105503650D01*
X132900882Y-105503655D01*
X126758127Y-105503655D01*
X126758127Y-104373355D01*
X127985982Y-104373355D01*
X128006486Y-104542224D01*
X128066806Y-104701278D01*
X128066808Y-104701282D01*
X128163443Y-104841281D01*
X128163445Y-104841283D01*
X128260774Y-104927509D01*
X128290775Y-104954087D01*
X128441402Y-105033143D01*
X128441403Y-105033143D01*
X128441405Y-105033144D01*
X128598088Y-105071762D01*
X128606571Y-105073853D01*
X128606574Y-105073853D01*
X128776680Y-105073853D01*
X128776683Y-105073853D01*
X128941852Y-105033143D01*
X129092479Y-104954087D01*
X129147278Y-104905539D01*
X129211531Y-104875340D01*
X129230830Y-104873853D01*
X130851271Y-104873853D01*
X130878055Y-104876732D01*
X130882556Y-104877712D01*
X130932021Y-104874173D01*
X130941009Y-104873853D01*
X130954427Y-104873853D01*
X130954428Y-104873853D01*
X130967729Y-104871940D01*
X130976638Y-104870982D01*
X131026112Y-104867444D01*
X131030420Y-104865836D01*
X131056530Y-104859172D01*
X131061086Y-104858518D01*
X131106195Y-104837916D01*
X131114491Y-104834480D01*
X131160960Y-104817149D01*
X131164646Y-104814389D01*
X131187812Y-104800642D01*
X131192002Y-104798730D01*
X131229475Y-104766259D01*
X131236473Y-104760619D01*
X131247222Y-104752574D01*
X131256709Y-104743085D01*
X131263277Y-104736968D01*
X131300772Y-104704481D01*
X131303258Y-104700611D01*
X131320161Y-104679633D01*
X131635040Y-104364756D01*
X131697352Y-104330731D01*
X131724135Y-104327852D01*
X159102721Y-104327852D01*
X159170842Y-104347854D01*
X159191816Y-104364757D01*
X159419703Y-104592644D01*
X159453729Y-104654956D01*
X159448664Y-104725771D01*
X159406117Y-104782607D01*
X159339597Y-104807418D01*
X159330608Y-104807739D01*
X159180053Y-104807739D01*
X159014891Y-104848447D01*
X159014887Y-104848449D01*
X158864261Y-104927504D01*
X158864255Y-104927509D01*
X158736931Y-105040308D01*
X158736929Y-105040310D01*
X158640294Y-105180309D01*
X158640292Y-105180313D01*
X158579972Y-105339367D01*
X158565007Y-105462609D01*
X158536939Y-105527822D01*
X158529021Y-105536515D01*
X154819292Y-109246246D01*
X154756980Y-109280271D01*
X154730197Y-109283151D01*
X141255687Y-109283151D01*
X141228902Y-109280271D01*
X141224402Y-109279292D01*
X141224401Y-109279292D01*
X141201453Y-109280933D01*
X141174936Y-109282830D01*
X141165949Y-109283151D01*
X141152530Y-109283151D01*
X141142985Y-109284522D01*
X141139242Y-109285061D01*
X141130311Y-109286021D01*
X141080845Y-109289560D01*
X141080841Y-109289560D01*
X141076515Y-109291174D01*
X141050446Y-109297827D01*
X141045877Y-109298484D01*
X141045873Y-109298485D01*
X141000763Y-109319086D01*
X140992456Y-109322526D01*
X140946000Y-109339853D01*
X140942304Y-109342620D01*
X140919148Y-109356358D01*
X140917735Y-109357004D01*
X140914955Y-109358274D01*
X140877482Y-109390744D01*
X140870485Y-109396382D01*
X140859739Y-109404426D01*
X140859738Y-109404428D01*
X140850234Y-109413930D01*
X140843664Y-109420046D01*
X140806188Y-109452520D01*
X140806185Y-109452524D01*
X140803690Y-109456406D01*
X140786795Y-109477369D01*
X140405218Y-109858948D01*
X140342906Y-109892973D01*
X140316122Y-109895853D01*
X140290567Y-109895853D01*
X140125405Y-109936561D01*
X140125401Y-109936563D01*
X139974775Y-110015618D01*
X139974769Y-110015623D01*
X139847445Y-110128422D01*
X139847443Y-110128424D01*
X139750808Y-110268423D01*
X139750806Y-110268427D01*
X139690486Y-110427481D01*
X139669982Y-110596350D01*
X139669982Y-110596355D01*
X139690486Y-110765224D01*
X139750806Y-110924278D01*
X139750808Y-110924282D01*
X139847443Y-111064281D01*
X139847445Y-111064283D01*
X139878961Y-111092204D01*
X139974775Y-111177087D01*
X140125402Y-111256143D01*
X140125403Y-111256143D01*
X140125405Y-111256144D01*
X140282088Y-111294762D01*
X140290571Y-111296853D01*
X140290574Y-111296853D01*
X140460680Y-111296853D01*
X140460683Y-111296853D01*
X140625852Y-111256143D01*
X140776479Y-111177087D01*
X140903810Y-111064282D01*
X141000445Y-110924283D01*
X141060767Y-110765225D01*
X141061148Y-110762092D01*
X141075731Y-110641984D01*
X141103797Y-110576771D01*
X141111705Y-110568087D01*
X141358739Y-110321055D01*
X141421051Y-110287030D01*
X141447834Y-110284151D01*
X148603778Y-110284151D01*
X148671899Y-110304153D01*
X148718392Y-110357809D01*
X148728496Y-110428083D01*
X148721590Y-110454831D01*
X148669386Y-110592481D01*
X148648882Y-110761350D01*
X148648882Y-110761355D01*
X148669386Y-110930224D01*
X148729706Y-111089278D01*
X148729708Y-111089282D01*
X148826343Y-111229281D01*
X148826345Y-111229283D01*
X148917433Y-111309980D01*
X148953675Y-111342087D01*
X149104302Y-111421143D01*
X149104303Y-111421143D01*
X149104305Y-111421144D01*
X149260988Y-111459762D01*
X149269471Y-111461853D01*
X149365733Y-111461853D01*
X149433854Y-111481855D01*
X149454828Y-111498758D01*
X151121379Y-113165309D01*
X151130793Y-113175843D01*
X151148127Y-113197578D01*
X151152948Y-113203623D01*
X151152951Y-113203625D01*
X151152954Y-113203628D01*
X151200144Y-113235802D01*
X151203985Y-113238527D01*
X151249942Y-113272444D01*
X151257515Y-113276446D01*
X151265150Y-113280123D01*
X151265151Y-113280123D01*
X151265154Y-113280125D01*
X151319790Y-113296977D01*
X151324216Y-113298434D01*
X151378127Y-113317299D01*
X151378131Y-113317299D01*
X151386504Y-113318883D01*
X151394923Y-113320152D01*
X151394925Y-113320153D01*
X151452041Y-113320153D01*
X151456751Y-113320240D01*
X151513837Y-113322377D01*
X151513842Y-113322375D01*
X151523217Y-113321320D01*
X151523314Y-113322181D01*
X151538724Y-113320153D01*
X153800940Y-113320153D01*
X153838885Y-113320153D01*
X153907006Y-113340155D01*
X153922438Y-113351840D01*
X154033675Y-113450387D01*
X154184302Y-113529443D01*
X154184303Y-113529443D01*
X154184305Y-113529444D01*
X154340988Y-113568062D01*
X154349471Y-113570153D01*
X154349474Y-113570153D01*
X154519580Y-113570153D01*
X154519583Y-113570153D01*
X154684752Y-113529443D01*
X154835379Y-113450387D01*
X154962710Y-113337582D01*
X155059345Y-113197583D01*
X155119667Y-113038525D01*
X155128322Y-112967245D01*
X155128628Y-112964729D01*
X155156695Y-112899516D01*
X155215563Y-112859829D01*
X155286543Y-112858269D01*
X155312261Y-112868347D01*
X155423127Y-112926535D01*
X155423128Y-112926535D01*
X155423130Y-112926536D01*
X155578088Y-112964729D01*
X155588296Y-112967245D01*
X155588299Y-112967245D01*
X155758405Y-112967245D01*
X155758408Y-112967245D01*
X155923577Y-112926535D01*
X156074204Y-112847479D01*
X156201535Y-112734674D01*
X156298170Y-112594675D01*
X156358492Y-112435617D01*
X156365558Y-112377422D01*
X156378997Y-112266747D01*
X156378997Y-112266742D01*
X156358492Y-112097873D01*
X156298172Y-111938819D01*
X156298170Y-111938815D01*
X156201535Y-111798816D01*
X156201533Y-111798814D01*
X156074209Y-111686015D01*
X156074203Y-111686010D01*
X155923577Y-111606955D01*
X155923573Y-111606953D01*
X155758411Y-111566245D01*
X155758408Y-111566245D01*
X155588296Y-111566245D01*
X155588292Y-111566245D01*
X155571056Y-111570494D01*
X155500128Y-111567375D01*
X155442146Y-111526404D01*
X155415518Y-111460590D01*
X155415822Y-111432967D01*
X155423511Y-111369644D01*
X155423511Y-111369639D01*
X155403006Y-111200770D01*
X155342686Y-111041716D01*
X155342684Y-111041712D01*
X155246049Y-110901713D01*
X155246047Y-110901711D01*
X155118723Y-110788912D01*
X155118717Y-110788907D01*
X154968091Y-110709852D01*
X154968087Y-110709850D01*
X154802925Y-110669142D01*
X154802922Y-110669142D01*
X154706660Y-110669142D01*
X154638539Y-110649140D01*
X154617565Y-110632237D01*
X154594621Y-110609293D01*
X154585206Y-110598758D01*
X154563060Y-110570988D01*
X154563056Y-110570985D01*
X154563055Y-110570984D01*
X154515848Y-110538797D01*
X154512012Y-110536075D01*
X154478756Y-110511533D01*
X154435821Y-110454990D01*
X154430272Y-110384211D01*
X154463870Y-110321667D01*
X154525948Y-110287217D01*
X154553573Y-110284151D01*
X154922343Y-110284151D01*
X154949127Y-110287030D01*
X154953628Y-110288010D01*
X155003093Y-110284471D01*
X155012081Y-110284151D01*
X155025499Y-110284151D01*
X155025500Y-110284151D01*
X155038801Y-110282238D01*
X155047710Y-110281280D01*
X155097184Y-110277742D01*
X155101492Y-110276134D01*
X155127602Y-110269470D01*
X155132158Y-110268816D01*
X155177267Y-110248214D01*
X155185563Y-110244778D01*
X155232032Y-110227447D01*
X155235718Y-110224687D01*
X155258884Y-110210940D01*
X155263074Y-110209028D01*
X155300547Y-110176557D01*
X155307545Y-110170917D01*
X155318294Y-110162872D01*
X155327781Y-110153383D01*
X155334349Y-110147266D01*
X155371844Y-110114779D01*
X155374332Y-110110907D01*
X155391235Y-110089929D01*
X159235522Y-106245644D01*
X159297834Y-106211618D01*
X159324617Y-106208739D01*
X159350166Y-106208739D01*
X159350169Y-106208739D01*
X159515338Y-106168029D01*
X159665965Y-106088973D01*
X159793296Y-105976168D01*
X159889931Y-105836169D01*
X159950253Y-105677111D01*
X159951816Y-105664232D01*
X159979880Y-105599020D01*
X160038747Y-105559331D01*
X160109726Y-105557768D01*
X160170283Y-105594827D01*
X160180588Y-105607832D01*
X160256344Y-105717582D01*
X160383675Y-105830387D01*
X160534302Y-105909443D01*
X160534303Y-105909443D01*
X160534305Y-105909444D01*
X160690988Y-105948062D01*
X160699471Y-105950153D01*
X160699474Y-105950153D01*
X160869580Y-105950153D01*
X160869583Y-105950153D01*
X161034752Y-105909443D01*
X161165472Y-105840834D01*
X161235084Y-105826888D01*
X161301187Y-105852791D01*
X161342792Y-105910320D01*
X161350027Y-105952402D01*
X161350027Y-109482195D01*
X161330025Y-109550316D01*
X161307581Y-109576507D01*
X161272342Y-109607725D01*
X161175708Y-109747723D01*
X161175706Y-109747727D01*
X161115386Y-109906781D01*
X161094882Y-110075650D01*
X161094882Y-110075655D01*
X161115386Y-110244524D01*
X161175706Y-110403578D01*
X161175708Y-110403582D01*
X161272343Y-110543581D01*
X161272345Y-110543583D01*
X161395140Y-110652370D01*
X161399675Y-110656387D01*
X161550302Y-110735443D01*
X161550303Y-110735443D01*
X161550305Y-110735444D01*
X161671130Y-110765224D01*
X161715471Y-110776153D01*
X161715474Y-110776153D01*
X161885580Y-110776153D01*
X161885583Y-110776153D01*
X162050752Y-110735443D01*
X162201379Y-110656387D01*
X162328710Y-110543582D01*
X162408835Y-110427501D01*
X162463990Y-110382804D01*
X162534559Y-110375021D01*
X162598133Y-110406625D01*
X162634528Y-110467584D01*
X162637609Y-110483889D01*
X162639386Y-110498524D01*
X162699706Y-110657578D01*
X162699708Y-110657582D01*
X162796343Y-110797581D01*
X162796345Y-110797583D01*
X162917543Y-110904955D01*
X162923675Y-110910387D01*
X163074302Y-110989443D01*
X163074303Y-110989443D01*
X163074305Y-110989444D01*
X163202672Y-111021083D01*
X163239471Y-111030153D01*
X163239474Y-111030153D01*
X163409580Y-111030153D01*
X163409583Y-111030153D01*
X163574752Y-110989443D01*
X163725379Y-110910387D01*
X163852710Y-110797582D01*
X163949345Y-110657583D01*
X163949801Y-110656382D01*
X163978510Y-110580679D01*
X164009667Y-110498525D01*
X164021196Y-110403578D01*
X164030172Y-110329655D01*
X164030172Y-110329650D01*
X164009667Y-110160781D01*
X163949347Y-110001727D01*
X163949345Y-110001723D01*
X163852710Y-109861724D01*
X163852708Y-109861722D01*
X163725384Y-109748923D01*
X163725378Y-109748918D01*
X163574752Y-109669863D01*
X163574748Y-109669861D01*
X163409586Y-109629153D01*
X163409583Y-109629153D01*
X163313320Y-109629153D01*
X163245199Y-109609151D01*
X163224225Y-109592248D01*
X162787942Y-109155965D01*
X162753916Y-109093653D01*
X162751037Y-109066870D01*
X162751037Y-99146437D01*
X162771039Y-99078316D01*
X162787942Y-99057342D01*
X162970224Y-98875060D01*
X163032536Y-98841034D01*
X163059319Y-98838155D01*
X163155579Y-98838155D01*
X163155582Y-98838155D01*
X163320751Y-98797445D01*
X163471378Y-98718389D01*
X163598709Y-98605584D01*
X163695344Y-98465585D01*
X163755666Y-98306527D01*
X163776171Y-98137655D01*
X163755666Y-97968783D01*
X163695344Y-97809725D01*
X163598709Y-97669726D01*
X163598707Y-97669724D01*
X163471383Y-97556925D01*
X163471377Y-97556920D01*
X163320751Y-97477865D01*
X163320747Y-97477863D01*
X163155585Y-97437155D01*
X163155582Y-97437155D01*
X163006672Y-97437155D01*
X162938551Y-97417153D01*
X162892058Y-97363497D01*
X162881954Y-97293223D01*
X162902977Y-97239578D01*
X162904730Y-97237039D01*
X162933345Y-97195583D01*
X162993667Y-97036525D01*
X163014126Y-96868035D01*
X163014172Y-96867655D01*
X163014172Y-96867650D01*
X162993667Y-96698781D01*
X162933347Y-96539727D01*
X162933345Y-96539723D01*
X162836710Y-96399724D01*
X162836708Y-96399722D01*
X162709384Y-96286923D01*
X162709378Y-96286918D01*
X162558752Y-96207863D01*
X162558748Y-96207861D01*
X162393586Y-96167153D01*
X162393583Y-96167153D01*
X162223471Y-96167153D01*
X162223467Y-96167153D01*
X162058305Y-96207861D01*
X162058301Y-96207863D01*
X161907675Y-96286918D01*
X161907669Y-96286923D01*
X161780345Y-96399722D01*
X161780343Y-96399724D01*
X161683708Y-96539723D01*
X161683706Y-96539727D01*
X161623386Y-96698781D01*
X161602882Y-96867650D01*
X161602882Y-96867653D01*
X161602909Y-96867873D01*
X161602882Y-96868035D01*
X161602882Y-96875274D01*
X161601678Y-96875274D01*
X161591262Y-96937908D01*
X161566922Y-96972153D01*
X161504869Y-97034206D01*
X161494335Y-97043621D01*
X161466556Y-97065774D01*
X161434367Y-97112985D01*
X161431643Y-97116824D01*
X161397733Y-97162770D01*
X161393742Y-97170322D01*
X161390054Y-97177980D01*
X161373216Y-97232568D01*
X161371745Y-97237039D01*
X161352880Y-97290955D01*
X161351293Y-97299341D01*
X161350027Y-97307749D01*
X161350027Y-97364866D01*
X161349939Y-97369577D01*
X161347803Y-97426664D01*
X161348860Y-97436043D01*
X161347997Y-97436140D01*
X161350027Y-97451549D01*
X161350027Y-104546903D01*
X161330025Y-104615024D01*
X161276369Y-104661517D01*
X161206095Y-104671621D01*
X161165472Y-104658470D01*
X161034756Y-104589865D01*
X161034748Y-104589861D01*
X160869586Y-104549153D01*
X160869583Y-104549153D01*
X160844031Y-104549153D01*
X160775910Y-104529151D01*
X160754935Y-104512247D01*
X160709982Y-104467293D01*
X160709951Y-104467264D01*
X159763760Y-103521072D01*
X159746855Y-103500093D01*
X159744369Y-103496224D01*
X159706885Y-103463744D01*
X159700314Y-103457626D01*
X159690819Y-103448131D01*
X159680068Y-103440083D01*
X159673068Y-103434442D01*
X159655941Y-103419601D01*
X159617558Y-103359875D01*
X159617559Y-103288878D01*
X159654901Y-103230067D01*
X159699810Y-103190282D01*
X159796445Y-103050283D01*
X159856767Y-102891225D01*
X159877272Y-102722353D01*
X159856767Y-102553481D01*
X159850877Y-102537950D01*
X159796447Y-102394427D01*
X159796445Y-102394423D01*
X159699810Y-102254424D01*
X159699808Y-102254422D01*
X159572484Y-102141623D01*
X159572478Y-102141618D01*
X159421852Y-102062563D01*
X159421848Y-102062561D01*
X159256686Y-102021853D01*
X159256683Y-102021853D01*
X159086571Y-102021853D01*
X159086567Y-102021853D01*
X158921405Y-102062561D01*
X158921401Y-102062563D01*
X158770775Y-102141618D01*
X158770769Y-102141623D01*
X158643445Y-102254422D01*
X158643443Y-102254424D01*
X158546808Y-102394423D01*
X158546806Y-102394427D01*
X158485333Y-102556523D01*
X158442475Y-102613124D01*
X158375820Y-102637569D01*
X158367521Y-102637843D01*
X153846746Y-102637843D01*
X153778625Y-102617841D01*
X153732132Y-102564185D01*
X153722028Y-102493911D01*
X153728934Y-102467163D01*
X153751806Y-102406853D01*
X153760767Y-102383225D01*
X153775732Y-102259982D01*
X153781272Y-102214355D01*
X153781272Y-102214350D01*
X153760767Y-102045481D01*
X153700447Y-101886427D01*
X153700445Y-101886423D01*
X153603810Y-101746424D01*
X153603808Y-101746422D01*
X153476484Y-101633623D01*
X153476478Y-101633618D01*
X153325852Y-101554563D01*
X153325848Y-101554561D01*
X153160686Y-101513853D01*
X153160683Y-101513853D01*
X153135131Y-101513853D01*
X153067010Y-101493851D01*
X153046036Y-101476948D01*
X151826164Y-100257076D01*
X151809262Y-100236104D01*
X151806770Y-100232225D01*
X151769286Y-100199745D01*
X151762715Y-100193627D01*
X151753220Y-100184132D01*
X151742471Y-100176085D01*
X151735471Y-100170445D01*
X151698000Y-100137976D01*
X151697998Y-100137975D01*
X151697997Y-100137974D01*
X151697994Y-100137972D01*
X151693805Y-100136059D01*
X151670651Y-100122321D01*
X151666959Y-100119558D01*
X151666958Y-100119557D01*
X151643756Y-100110903D01*
X151620491Y-100102225D01*
X151612185Y-100098784D01*
X151567089Y-100078189D01*
X151567082Y-100078187D01*
X151562510Y-100077530D01*
X151536435Y-100070874D01*
X151532115Y-100069263D01*
X151532108Y-100069261D01*
X151482646Y-100065723D01*
X151473715Y-100064763D01*
X151466842Y-100063775D01*
X151460426Y-100062853D01*
X151460424Y-100062853D01*
X151447007Y-100062853D01*
X151438019Y-100062532D01*
X151388554Y-100058994D01*
X151388553Y-100058994D01*
X151384054Y-100059973D01*
X151357269Y-100062853D01*
X149677830Y-100062853D01*
X149609709Y-100042851D01*
X149594280Y-100031168D01*
X149539479Y-99982619D01*
X149388852Y-99903563D01*
X149388848Y-99903561D01*
X149223686Y-99862853D01*
X149223683Y-99862853D01*
X149053571Y-99862853D01*
X149053567Y-99862853D01*
X148888405Y-99903561D01*
X148888401Y-99903563D01*
X148737775Y-99982618D01*
X148737769Y-99982623D01*
X148610445Y-100095422D01*
X148610443Y-100095424D01*
X148513808Y-100235423D01*
X148513806Y-100235427D01*
X148453486Y-100394481D01*
X148432982Y-100563350D01*
X148432982Y-100563355D01*
X148453486Y-100732224D01*
X148513806Y-100891278D01*
X148513808Y-100891282D01*
X148610443Y-101031281D01*
X148610445Y-101031283D01*
X148716934Y-101125624D01*
X148737775Y-101144087D01*
X148888402Y-101223143D01*
X148888403Y-101223143D01*
X148888405Y-101223144D01*
X148950396Y-101238423D01*
X149053571Y-101263853D01*
X149053574Y-101263853D01*
X149223680Y-101263853D01*
X149223683Y-101263853D01*
X149388852Y-101223143D01*
X149539479Y-101144087D01*
X149594278Y-101095539D01*
X149658531Y-101065340D01*
X149677830Y-101063853D01*
X151165123Y-101063853D01*
X151233244Y-101083855D01*
X151254218Y-101100758D01*
X152339535Y-102186075D01*
X152373561Y-102248387D01*
X152375521Y-102259982D01*
X152390486Y-102383223D01*
X152422320Y-102467163D01*
X152427774Y-102537950D01*
X152394091Y-102600448D01*
X152331967Y-102634815D01*
X152304508Y-102637843D01*
X141592121Y-102637843D01*
X141524000Y-102617841D01*
X141503026Y-102600938D01*
X140636717Y-101734629D01*
X140602691Y-101672317D01*
X140600731Y-101660721D01*
X140585767Y-101537483D01*
X140525447Y-101378428D01*
X140525445Y-101378424D01*
X140428810Y-101238425D01*
X140428808Y-101238423D01*
X140301484Y-101125624D01*
X140301478Y-101125619D01*
X140150852Y-101046564D01*
X140150848Y-101046562D01*
X139985686Y-101005854D01*
X139985683Y-101005854D01*
X139815571Y-101005854D01*
X139815567Y-101005854D01*
X139650405Y-101046562D01*
X139650401Y-101046564D01*
X139499775Y-101125619D01*
X139499769Y-101125624D01*
X139372445Y-101238423D01*
X139372443Y-101238425D01*
X139275808Y-101378424D01*
X139275806Y-101378428D01*
X139215486Y-101537482D01*
X139194982Y-101706351D01*
X139194982Y-101706356D01*
X139215486Y-101875225D01*
X139275806Y-102034279D01*
X139275808Y-102034283D01*
X139372443Y-102174282D01*
X139372445Y-102174284D01*
X139469178Y-102259982D01*
X139499775Y-102287088D01*
X139650402Y-102366144D01*
X139650403Y-102366144D01*
X139650405Y-102366145D01*
X139719699Y-102383224D01*
X139815571Y-102406854D01*
X139841122Y-102406854D01*
X139909243Y-102426856D01*
X139930217Y-102443758D01*
X140598216Y-103111756D01*
X140632241Y-103174069D01*
X140627177Y-103244884D01*
X140584630Y-103301720D01*
X140518110Y-103326531D01*
X140509121Y-103326852D01*
X131531988Y-103326852D01*
X131505203Y-103323972D01*
X131500703Y-103322993D01*
X131500702Y-103322993D01*
X131477754Y-103324634D01*
X131451237Y-103326531D01*
X131442250Y-103326852D01*
X131428831Y-103326852D01*
X131419286Y-103328223D01*
X131415543Y-103328762D01*
X131406612Y-103329722D01*
X131357146Y-103333261D01*
X131357142Y-103333261D01*
X131352816Y-103334875D01*
X131326747Y-103341528D01*
X131322178Y-103342185D01*
X131322174Y-103342186D01*
X131277064Y-103362787D01*
X131268757Y-103366227D01*
X131222301Y-103383554D01*
X131218605Y-103386321D01*
X131195449Y-103400059D01*
X131194036Y-103400705D01*
X131191256Y-103401975D01*
X131153783Y-103434445D01*
X131146786Y-103440083D01*
X131136040Y-103448127D01*
X131136039Y-103448129D01*
X131126535Y-103457631D01*
X131119965Y-103463747D01*
X131082489Y-103496221D01*
X131082486Y-103496225D01*
X131079991Y-103500107D01*
X131063096Y-103521070D01*
X130748220Y-103835948D01*
X130685908Y-103869973D01*
X130659124Y-103872853D01*
X129230830Y-103872853D01*
X129162709Y-103852851D01*
X129147280Y-103841168D01*
X129092479Y-103792619D01*
X128941852Y-103713563D01*
X128941848Y-103713561D01*
X128776686Y-103672853D01*
X128776683Y-103672853D01*
X128606571Y-103672853D01*
X128606567Y-103672853D01*
X128441405Y-103713561D01*
X128441401Y-103713563D01*
X128290775Y-103792618D01*
X128290769Y-103792623D01*
X128163445Y-103905422D01*
X128163443Y-103905424D01*
X128066808Y-104045423D01*
X128066806Y-104045427D01*
X128006486Y-104204481D01*
X127985982Y-104373350D01*
X127985982Y-104373355D01*
X126758127Y-104373355D01*
X126758127Y-98956344D01*
X126759046Y-98941155D01*
X126763272Y-98906353D01*
X126763272Y-98906350D01*
X126742767Y-98737481D01*
X126682447Y-98578427D01*
X126682445Y-98578423D01*
X126585810Y-98438424D01*
X126585808Y-98438422D01*
X126458484Y-98325623D01*
X126458478Y-98325618D01*
X126307852Y-98246563D01*
X126307848Y-98246561D01*
X126142686Y-98205853D01*
X126142683Y-98205853D01*
X125972571Y-98205853D01*
X125972567Y-98205853D01*
X125807405Y-98246561D01*
X125807401Y-98246563D01*
X125656775Y-98325618D01*
X125656769Y-98325623D01*
X125529445Y-98438422D01*
X125529443Y-98438424D01*
X125432808Y-98578423D01*
X125432806Y-98578427D01*
X125372486Y-98737481D01*
X125351982Y-98906350D01*
X125351982Y-98906353D01*
X125356208Y-98941155D01*
X125357127Y-98956344D01*
X125357127Y-111302360D01*
X125356208Y-111317548D01*
X125351982Y-111352351D01*
X125351982Y-111352354D01*
X96510027Y-111352354D01*
X96510027Y-93819655D01*
X132900882Y-93819655D01*
X132921386Y-93988524D01*
X132981706Y-94147578D01*
X132981708Y-94147582D01*
X132981709Y-94147583D01*
X133078344Y-94287582D01*
X133205675Y-94400387D01*
X133356302Y-94479443D01*
X133356303Y-94479443D01*
X133356305Y-94479444D01*
X133512988Y-94518062D01*
X133521471Y-94520153D01*
X133521474Y-94520153D01*
X133691580Y-94520153D01*
X133691583Y-94520153D01*
X133856752Y-94479443D01*
X134007379Y-94400387D01*
X134134710Y-94287582D01*
X134231345Y-94147583D01*
X134291667Y-93988525D01*
X134312172Y-93819653D01*
X134312172Y-93819650D01*
X134291007Y-93645341D01*
X134302652Y-93575306D01*
X134350312Y-93522684D01*
X134416088Y-93504153D01*
X157711552Y-93504153D01*
X157719160Y-93504383D01*
X157779133Y-93508011D01*
X157838261Y-93497175D01*
X157845742Y-93496036D01*
X157905399Y-93488793D01*
X157914699Y-93485265D01*
X157936662Y-93479143D01*
X157946459Y-93477348D01*
X158001299Y-93452665D01*
X158008265Y-93449781D01*
X158064457Y-93428471D01*
X158072644Y-93422818D01*
X158092509Y-93411614D01*
X158101584Y-93407531D01*
X158148902Y-93370458D01*
X158154983Y-93365983D01*
X158204456Y-93331836D01*
X158244311Y-93286847D01*
X158249496Y-93281339D01*
X159513778Y-92017058D01*
X159576090Y-91983032D01*
X159602873Y-91980153D01*
X162393580Y-91980153D01*
X162393583Y-91980153D01*
X162427636Y-91971758D01*
X162442583Y-91969019D01*
X162477399Y-91964793D01*
X162510188Y-91952357D01*
X162524707Y-91947833D01*
X162558752Y-91939443D01*
X162589795Y-91923150D01*
X162603669Y-91916905D01*
X162636457Y-91904471D01*
X162665329Y-91884540D01*
X162678323Y-91876685D01*
X162709379Y-91860387D01*
X162735627Y-91837132D01*
X162747581Y-91827766D01*
X162776456Y-91807836D01*
X162799714Y-91781581D01*
X162810455Y-91770840D01*
X162836710Y-91747582D01*
X162856640Y-91718707D01*
X162866006Y-91706753D01*
X162889261Y-91680505D01*
X162905559Y-91649449D01*
X162913414Y-91636455D01*
X162933345Y-91607583D01*
X162945779Y-91574795D01*
X162952024Y-91560921D01*
X162968316Y-91529879D01*
X162968317Y-91529878D01*
X162976707Y-91495833D01*
X162981231Y-91481314D01*
X162993667Y-91448525D01*
X162997893Y-91413709D01*
X163000632Y-91398762D01*
X163009027Y-91364709D01*
X163009027Y-91329644D01*
X163009946Y-91314455D01*
X163014172Y-91279653D01*
X163014172Y-91279651D01*
X163009946Y-91244848D01*
X163009027Y-91229660D01*
X163009027Y-91194600D01*
X163009027Y-91194597D01*
X163000632Y-91160540D01*
X162997894Y-91145597D01*
X162993667Y-91110781D01*
X162981231Y-91077992D01*
X162976708Y-91063473D01*
X162968317Y-91029428D01*
X162952021Y-90998380D01*
X162945777Y-90984505D01*
X162933346Y-90951726D01*
X162933345Y-90951723D01*
X162913420Y-90922857D01*
X162905555Y-90909846D01*
X162889262Y-90878802D01*
X162889260Y-90878800D01*
X162866009Y-90852554D01*
X162856628Y-90840579D01*
X162836712Y-90811726D01*
X162836708Y-90811722D01*
X162810465Y-90788473D01*
X162799705Y-90777713D01*
X162776457Y-90751471D01*
X162776456Y-90751470D01*
X162747582Y-90731539D01*
X162735627Y-90722172D01*
X162709379Y-90698919D01*
X162678330Y-90682623D01*
X162665316Y-90674755D01*
X162636460Y-90654837D01*
X162636459Y-90654836D01*
X162636457Y-90654835D01*
X162636455Y-90654834D01*
X162636451Y-90654832D01*
X162603666Y-90642398D01*
X162589797Y-90636156D01*
X162558751Y-90619862D01*
X162524707Y-90611471D01*
X162510186Y-90606946D01*
X162477401Y-90594513D01*
X162477394Y-90594511D01*
X162442595Y-90590286D01*
X162427633Y-90587544D01*
X162393590Y-90579154D01*
X162393584Y-90579153D01*
X162393583Y-90579153D01*
X162393581Y-90579153D01*
X159285490Y-90579153D01*
X159277883Y-90578923D01*
X159268638Y-90578363D01*
X159217921Y-90575296D01*
X159217920Y-90575296D01*
X159217919Y-90575296D01*
X159158829Y-90586124D01*
X159151306Y-90587269D01*
X159091661Y-90594511D01*
X159091659Y-90594512D01*
X159091657Y-90594512D01*
X159091655Y-90594513D01*
X159082344Y-90598044D01*
X159060390Y-90604163D01*
X159050599Y-90605957D01*
X159050594Y-90605958D01*
X158995811Y-90630614D01*
X158988783Y-90633525D01*
X158932598Y-90654833D01*
X158932596Y-90654835D01*
X158924399Y-90660493D01*
X158904545Y-90671691D01*
X158895468Y-90675776D01*
X158895466Y-90675778D01*
X158848174Y-90712828D01*
X158842047Y-90717337D01*
X158792596Y-90751471D01*
X158752743Y-90796455D01*
X158747527Y-90801995D01*
X157483275Y-92066248D01*
X157420963Y-92100273D01*
X157394180Y-92103153D01*
X133521465Y-92103153D01*
X133487423Y-92111544D01*
X133472460Y-92114286D01*
X133437659Y-92118511D01*
X133414463Y-92127307D01*
X133404867Y-92130946D01*
X133390351Y-92135470D01*
X133356298Y-92143864D01*
X133356295Y-92143865D01*
X133325255Y-92160156D01*
X133311385Y-92166399D01*
X133278601Y-92178833D01*
X133278591Y-92178838D01*
X133249730Y-92198759D01*
X133236713Y-92206628D01*
X133205677Y-92222917D01*
X133205670Y-92222922D01*
X133179424Y-92246172D01*
X133167458Y-92255547D01*
X133138600Y-92275468D01*
X133115343Y-92301718D01*
X133104592Y-92312469D01*
X133078342Y-92335726D01*
X133058421Y-92364584D01*
X133049046Y-92376550D01*
X133025796Y-92402796D01*
X133025791Y-92402803D01*
X133009502Y-92433839D01*
X133001633Y-92446856D01*
X132981712Y-92475717D01*
X132981707Y-92475727D01*
X132969273Y-92508511D01*
X132963030Y-92522381D01*
X132946739Y-92553421D01*
X132946738Y-92553424D01*
X132938344Y-92587477D01*
X132933820Y-92601996D01*
X132921385Y-92634785D01*
X132917160Y-92669586D01*
X132914418Y-92684549D01*
X132906027Y-92718591D01*
X132906027Y-92753660D01*
X132905108Y-92768848D01*
X132900882Y-92803651D01*
X132900882Y-92803653D01*
X132905108Y-92838455D01*
X132906027Y-92853644D01*
X132906027Y-92888706D01*
X132906028Y-92888716D01*
X132914418Y-92922759D01*
X132917160Y-92937721D01*
X132921385Y-92972520D01*
X132921387Y-92972527D01*
X132933820Y-93005312D01*
X132938345Y-93019833D01*
X132946736Y-93053877D01*
X132963030Y-93084923D01*
X132969272Y-93098792D01*
X132981706Y-93131577D01*
X132981712Y-93131588D01*
X132983721Y-93134498D01*
X132984534Y-93136965D01*
X132985251Y-93138330D01*
X132985024Y-93138449D01*
X133005959Y-93201922D01*
X133006027Y-93206076D01*
X133006027Y-93417229D01*
X132986025Y-93485350D01*
X132983723Y-93488804D01*
X132981712Y-93491716D01*
X132981706Y-93491728D01*
X132921386Y-93650781D01*
X132900882Y-93819650D01*
X132900882Y-93819655D01*
X96510027Y-93819655D01*
X96510027Y-82815777D01*
X96510297Y-82807534D01*
X96518946Y-82675618D01*
X96525957Y-82568688D01*
X96528106Y-82552374D01*
X96574003Y-82321659D01*
X96578264Y-82305758D01*
X96653882Y-82083010D01*
X96660178Y-82067808D01*
X96764227Y-81856829D01*
X96772461Y-81842569D01*
X96903155Y-81646980D01*
X96913178Y-81633920D01*
X97068276Y-81457070D01*
X97079917Y-81445429D01*
X97256781Y-81290329D01*
X97269840Y-81280309D01*
X97465428Y-81149626D01*
X97479685Y-81141395D01*
X97690673Y-81037351D01*
X97705868Y-81031058D01*
X97928636Y-80955442D01*
X97944529Y-80951184D01*
X98175233Y-80905298D01*
X98191573Y-80903148D01*
X98431535Y-80887423D01*
X98439774Y-80887153D01*
X98459057Y-80887153D01*
X179030404Y-80887153D01*
X179038645Y-80887422D01*
G37*
%TD.AperFunction*%
%TD*%
M02*
