%TF.GenerationSoftware,KiCad,Pcbnew,7.0.10-7.0.10~ubuntu23.04.1*%
%TF.CreationDate,2024-02-09T21:50:14+00:00*%
%TF.ProjectId,SPACEDOS01,53504143-4544-44f5-9330-312e6b696361,B*%
%TF.SameCoordinates,Original*%
%TF.FileFunction,Soldermask,Bot*%
%TF.FilePolarity,Negative*%
%FSLAX46Y46*%
G04 Gerber Fmt 4.6, Leading zero omitted, Abs format (unit mm)*
G04 Created by KiCad (PCBNEW 7.0.10-7.0.10~ubuntu23.04.1) date 2024-02-09 21:50:14*
%MOMM*%
%LPD*%
G01*
G04 APERTURE LIST*
G04 Aperture macros list*
%AMRoundRect*
0 Rectangle with rounded corners*
0 $1 Rounding radius*
0 $2 $3 $4 $5 $6 $7 $8 $9 X,Y pos of 4 corners*
0 Add a 4 corners polygon primitive as box body*
4,1,4,$2,$3,$4,$5,$6,$7,$8,$9,$2,$3,0*
0 Add four circle primitives for the rounded corners*
1,1,$1+$1,$2,$3*
1,1,$1+$1,$4,$5*
1,1,$1+$1,$6,$7*
1,1,$1+$1,$8,$9*
0 Add four rect primitives between the rounded corners*
20,1,$1+$1,$2,$3,$4,$5,0*
20,1,$1+$1,$4,$5,$6,$7,0*
20,1,$1+$1,$6,$7,$8,$9,0*
20,1,$1+$1,$8,$9,$2,$3,0*%
G04 Aperture macros list end*
%ADD10C,6.400000*%
%ADD11C,1.924000*%
%ADD12RoundRect,0.200000X0.762000X-0.762000X0.762000X0.762000X-0.762000X0.762000X-0.762000X-0.762000X0*%
%ADD13RoundRect,0.200000X-0.762000X-0.762000X0.762000X-0.762000X0.762000X0.762000X-0.762000X0.762000X0*%
%ADD14RoundRect,0.200000X0.762000X0.762000X-0.762000X0.762000X-0.762000X-0.762000X0.762000X-0.762000X0*%
%ADD15RoundRect,0.200000X0.500000X-0.500000X0.500000X0.500000X-0.500000X0.500000X-0.500000X-0.500000X0*%
%ADD16RoundRect,0.200000X1.150000X-0.500000X1.150000X0.500000X-1.150000X0.500000X-1.150000X-0.500000X0*%
%ADD17RoundRect,0.200000X1.900000X-0.500000X1.900000X0.500000X-1.900000X0.500000X-1.900000X-0.500000X0*%
%ADD18RoundRect,0.200000X0.500000X-1.150000X0.500000X1.150000X-0.500000X1.150000X-0.500000X-1.150000X0*%
%ADD19RoundRect,0.200000X0.500000X-1.900000X0.500000X1.900000X-0.500000X1.900000X-0.500000X-1.900000X0*%
%ADD20RoundRect,0.200000X-0.500000X-0.500000X0.500000X-0.500000X0.500000X0.500000X-0.500000X0.500000X0*%
%ADD21RoundRect,0.200000X-0.500000X-1.150000X0.500000X-1.150000X0.500000X1.150000X-0.500000X1.150000X0*%
%ADD22RoundRect,0.200000X-0.500000X-1.900000X0.500000X-1.900000X0.500000X1.900000X-0.500000X1.900000X0*%
%ADD23RoundRect,0.200000X-1.150000X-0.500000X1.150000X-0.500000X1.150000X0.500000X-1.150000X0.500000X0*%
%ADD24RoundRect,0.200000X-1.900000X-0.500000X1.900000X-0.500000X1.900000X0.500000X-1.900000X0.500000X0*%
G04 APERTURE END LIST*
D10*
%TO.C,M4*%
X113934528Y-84421653D03*
%TD*%
%TO.C,M2*%
X168824527Y-84421653D03*
%TD*%
%TO.C,M1*%
X181744527Y-122521653D03*
%TD*%
%TO.C,M3*%
X96014527Y-125061654D03*
%TD*%
D11*
%TO.C,D1*%
X112524527Y-114221653D03*
X107524527Y-114221653D03*
%TD*%
D12*
%TO.C,J19*%
X154942527Y-119473653D03*
X154942527Y-116933653D03*
%TD*%
D13*
%TO.C,J6*%
X152402527Y-116933653D03*
%TD*%
%TO.C,J4*%
X149862527Y-116933653D03*
%TD*%
%TO.C,J7*%
X152402527Y-119473653D03*
%TD*%
D14*
%TO.C,J3*%
X162562527Y-116933653D03*
X162562527Y-119473653D03*
%TD*%
%TO.C,J2*%
X157482527Y-116933653D03*
X157482527Y-119473653D03*
%TD*%
D15*
%TO.C,M10*%
X131930527Y-114037654D03*
D16*
X133580527Y-114037654D03*
D17*
X138830527Y-114037654D03*
X144830527Y-114037654D03*
X150830527Y-114037654D03*
X156830527Y-114037654D03*
D16*
X162080527Y-114037654D03*
D15*
X163730527Y-114037654D03*
D18*
X131930527Y-112387654D03*
X163730527Y-112387654D03*
D19*
X131930527Y-107137654D03*
X163730527Y-107137654D03*
X131930527Y-101137654D03*
X163730527Y-101137654D03*
X131930527Y-95137654D03*
X163730527Y-95137654D03*
X131930527Y-89137654D03*
X163730527Y-89137654D03*
D18*
X131930527Y-83887654D03*
X163730527Y-83887654D03*
D15*
X131930527Y-82237654D03*
D16*
X133580527Y-82237654D03*
D17*
X138830527Y-82237654D03*
X144830527Y-82237654D03*
X150830527Y-82237654D03*
X156830527Y-82237654D03*
D16*
X162080527Y-82237654D03*
D15*
X163730527Y-82237654D03*
%TD*%
D20*
%TO.C,M8*%
X98567627Y-88346353D03*
D21*
X98567627Y-89996353D03*
D22*
X98567627Y-95246353D03*
X98567627Y-101246353D03*
X98567627Y-107246353D03*
X98567627Y-113246353D03*
D21*
X98567627Y-118496353D03*
D20*
X98567627Y-120146353D03*
D23*
X100217627Y-88346353D03*
X100217627Y-120146353D03*
D24*
X105467627Y-88346353D03*
X105467627Y-120146353D03*
X111467627Y-88346353D03*
X111467627Y-120146353D03*
X117467627Y-88346353D03*
X117467627Y-120146353D03*
X123467627Y-88346353D03*
X123467627Y-120146353D03*
D23*
X128717627Y-88346353D03*
X128717627Y-120146353D03*
D20*
X130367627Y-88346353D03*
D21*
X130367627Y-89996353D03*
D22*
X130367627Y-95246353D03*
X130367627Y-101246353D03*
X130367627Y-107246353D03*
X130367627Y-113246353D03*
D21*
X130367627Y-118496353D03*
D20*
X130367627Y-120146353D03*
%TD*%
D13*
%TO.C,J5*%
X149862527Y-119473653D03*
%TD*%
%TO.C,J1*%
X160022527Y-119473653D03*
X160022527Y-116933653D03*
%TD*%
G36*
X98242648Y-120237655D02*
G01*
X98289141Y-120291311D01*
X98300527Y-120343653D01*
X98300527Y-120471653D01*
X130558527Y-120471653D01*
X130558527Y-120343653D01*
X130578529Y-120275532D01*
X130632185Y-120229039D01*
X130684527Y-120217653D01*
X130931439Y-120217653D01*
X130937621Y-120217805D01*
X130953235Y-120218572D01*
X130965540Y-120219784D01*
X130977952Y-120221625D01*
X130990081Y-120224037D01*
X131002261Y-120227088D01*
X131014091Y-120230677D01*
X131025897Y-120234901D01*
X131037324Y-120239634D01*
X131048667Y-120244999D01*
X131059570Y-120250827D01*
X131070328Y-120257275D01*
X131080607Y-120264142D01*
X131090692Y-120271621D01*
X131100255Y-120279469D01*
X131109547Y-120287891D01*
X131118288Y-120296632D01*
X131126710Y-120305924D01*
X131134558Y-120315487D01*
X131142037Y-120325572D01*
X131148904Y-120335851D01*
X131155352Y-120346609D01*
X131161180Y-120357512D01*
X131166545Y-120368855D01*
X131171278Y-120380282D01*
X131175502Y-120392088D01*
X131179091Y-120403918D01*
X131182142Y-120416098D01*
X131184554Y-120428227D01*
X131186395Y-120440639D01*
X131187607Y-120452941D01*
X131188351Y-120468079D01*
X131188490Y-120476040D01*
X131070474Y-128847429D01*
X131049514Y-128915261D01*
X130995208Y-128960993D01*
X130944487Y-128971653D01*
X97407153Y-128971653D01*
X97339032Y-128951651D01*
X97292539Y-128897995D01*
X97281162Y-128847167D01*
X97180582Y-120477788D01*
X97180659Y-120471607D01*
X97181238Y-120455985D01*
X97182303Y-120443660D01*
X97183995Y-120431228D01*
X97186261Y-120419074D01*
X97189162Y-120406873D01*
X97192609Y-120394999D01*
X97196696Y-120383129D01*
X97201289Y-120371653D01*
X97206516Y-120360248D01*
X97212214Y-120349271D01*
X97218533Y-120338435D01*
X97225276Y-120328076D01*
X97232633Y-120317902D01*
X97240369Y-120308241D01*
X97248678Y-120298850D01*
X97257310Y-120290009D01*
X97266501Y-120281475D01*
X97275973Y-120273509D01*
X97285966Y-120265911D01*
X97296147Y-120258929D01*
X97306828Y-120252350D01*
X97317680Y-120246381D01*
X97328956Y-120240882D01*
X97340310Y-120236019D01*
X97352069Y-120231651D01*
X97363866Y-120227917D01*
X97376006Y-120224721D01*
X97388099Y-120222164D01*
X97400474Y-120220176D01*
X97412766Y-120218816D01*
X97427936Y-120217888D01*
X97435629Y-120217653D01*
X98174527Y-120217653D01*
X98242648Y-120237655D01*
G37*
G36*
X98126648Y-116699655D02*
G01*
X98173141Y-116753311D01*
X98184527Y-116805653D01*
X98184527Y-116933654D01*
X98188682Y-116937809D01*
X98242648Y-116953655D01*
X98289141Y-117007311D01*
X98300527Y-117059653D01*
X98300527Y-120471653D01*
X98428527Y-120471653D01*
X98496648Y-120491655D01*
X98543141Y-120545311D01*
X98554527Y-120597653D01*
X98554528Y-128845653D01*
X98534526Y-128913774D01*
X98480870Y-128960267D01*
X98428528Y-128971653D01*
X94439025Y-128971653D01*
X94430037Y-128971332D01*
X94158887Y-128951941D01*
X94141093Y-128949383D01*
X93879866Y-128892560D01*
X93862616Y-128887495D01*
X93612140Y-128794073D01*
X93595787Y-128786605D01*
X93361151Y-128658485D01*
X93346027Y-128648765D01*
X93132019Y-128488560D01*
X93118432Y-128476787D01*
X92929400Y-128287753D01*
X92917627Y-128274166D01*
X92757421Y-128060151D01*
X92747702Y-128045027D01*
X92619587Y-127810395D01*
X92612119Y-127794042D01*
X92518699Y-127543565D01*
X92513634Y-127526314D01*
X92461406Y-127286200D01*
X92458527Y-127259420D01*
X92458527Y-119683859D01*
X92461407Y-119657073D01*
X92513635Y-119417007D01*
X92518700Y-119399758D01*
X92612129Y-119149284D01*
X92619598Y-119132931D01*
X92747717Y-118898311D01*
X92757436Y-118883188D01*
X92917646Y-118669181D01*
X92929419Y-118655595D01*
X93118449Y-118466571D01*
X93132036Y-118454798D01*
X93346046Y-118294598D01*
X93361170Y-118284879D01*
X93595807Y-118156763D01*
X93612159Y-118149296D01*
X93862626Y-118055880D01*
X93879876Y-118050815D01*
X94141111Y-117993992D01*
X94158873Y-117991436D01*
X94434528Y-117971653D01*
X94434528Y-117971660D01*
X94434556Y-117971650D01*
X94719154Y-117951291D01*
X94997982Y-117890631D01*
X94997989Y-117890629D01*
X95265337Y-117790908D01*
X95265338Y-117790908D01*
X95515783Y-117654149D01*
X95744219Y-117483138D01*
X95945987Y-117281362D01*
X96116988Y-117052922D01*
X96170525Y-116954873D01*
X96192020Y-116926159D01*
X96194031Y-116924147D01*
X96199938Y-116901005D01*
X96253738Y-116802471D01*
X96253739Y-116802468D01*
X96268973Y-116761623D01*
X96311519Y-116704786D01*
X96378039Y-116679974D01*
X96387030Y-116679653D01*
X98058527Y-116679653D01*
X98126648Y-116699655D01*
G37*
G36*
X98187621Y-86967805D02*
G01*
X98203235Y-86968572D01*
X98215540Y-86969784D01*
X98227952Y-86971625D01*
X98240081Y-86974037D01*
X98252261Y-86977088D01*
X98264091Y-86980677D01*
X98275897Y-86984901D01*
X98287324Y-86989634D01*
X98298667Y-86994999D01*
X98309570Y-87000827D01*
X98320328Y-87007275D01*
X98330607Y-87014142D01*
X98340692Y-87021621D01*
X98350255Y-87029469D01*
X98359547Y-87037891D01*
X98368288Y-87046632D01*
X98376710Y-87055924D01*
X98384558Y-87065487D01*
X98392037Y-87075572D01*
X98398904Y-87085851D01*
X98405352Y-87096609D01*
X98411180Y-87107512D01*
X98416545Y-87118855D01*
X98421278Y-87130282D01*
X98425502Y-87142088D01*
X98429091Y-87153918D01*
X98432142Y-87166098D01*
X98434554Y-87178227D01*
X98436395Y-87190639D01*
X98437607Y-87202936D01*
X98438375Y-87218550D01*
X98438527Y-87224740D01*
X98438527Y-88095653D01*
X98418525Y-88163774D01*
X98364869Y-88210267D01*
X98312527Y-88221653D01*
X98184527Y-88221653D01*
X98184527Y-116933654D01*
X98188682Y-116937809D01*
X98242648Y-116953655D01*
X98289141Y-117007311D01*
X98300527Y-117059653D01*
X98300527Y-120471653D01*
X98312527Y-120471653D01*
X98380648Y-120491655D01*
X98427141Y-120545311D01*
X98438527Y-120597653D01*
X98438527Y-121218565D01*
X98438375Y-121224755D01*
X98437607Y-121240369D01*
X98436395Y-121252666D01*
X98434554Y-121265078D01*
X98432142Y-121277207D01*
X98429091Y-121289387D01*
X98425502Y-121301217D01*
X98421278Y-121313023D01*
X98416545Y-121324450D01*
X98411180Y-121335793D01*
X98405352Y-121346696D01*
X98398904Y-121357454D01*
X98392037Y-121367733D01*
X98384558Y-121377818D01*
X98376710Y-121387381D01*
X98368288Y-121396673D01*
X98359547Y-121405414D01*
X98350255Y-121413836D01*
X98340692Y-121421684D01*
X98330607Y-121429163D01*
X98320328Y-121436030D01*
X98309570Y-121442478D01*
X98298667Y-121448306D01*
X98287324Y-121453671D01*
X98275897Y-121458404D01*
X98264091Y-121462628D01*
X98252261Y-121466217D01*
X98240081Y-121469268D01*
X98227952Y-121471680D01*
X98215540Y-121473521D01*
X98203243Y-121474733D01*
X98187629Y-121475501D01*
X98181439Y-121475653D01*
X96187615Y-121475653D01*
X96181425Y-121475501D01*
X96165810Y-121474733D01*
X96153513Y-121473521D01*
X96141101Y-121471680D01*
X96128972Y-121469268D01*
X96116792Y-121466217D01*
X96104962Y-121462628D01*
X96093156Y-121458404D01*
X96081729Y-121453671D01*
X96070386Y-121448306D01*
X96059483Y-121442478D01*
X96048725Y-121436030D01*
X96038446Y-121429163D01*
X96028361Y-121421684D01*
X96018798Y-121413836D01*
X96009506Y-121405414D01*
X96000765Y-121396673D01*
X95992343Y-121387381D01*
X95984495Y-121377818D01*
X95977016Y-121367733D01*
X95970149Y-121357454D01*
X95963701Y-121346696D01*
X95957873Y-121335793D01*
X95952508Y-121324450D01*
X95947775Y-121313023D01*
X95943551Y-121301217D01*
X95939962Y-121289387D01*
X95936911Y-121277207D01*
X95934499Y-121265078D01*
X95932658Y-121252666D01*
X95931446Y-121240361D01*
X95930679Y-121224747D01*
X95930527Y-121218565D01*
X95930527Y-117343951D01*
X95950529Y-117275830D01*
X95955658Y-117268444D01*
X96116986Y-117052927D01*
X96170525Y-116954873D01*
X96192020Y-116926159D01*
X96194031Y-116924147D01*
X96199938Y-116901005D01*
X96253737Y-116802472D01*
X96353455Y-116535103D01*
X96414102Y-116256283D01*
X96434526Y-115971649D01*
X96434527Y-115971642D01*
X96434527Y-87093653D01*
X96454529Y-87025532D01*
X96508185Y-86979039D01*
X96560527Y-86967653D01*
X98181439Y-86967653D01*
X98187621Y-86967805D01*
G37*
G36*
X131880648Y-80831655D02*
G01*
X131927141Y-80885311D01*
X131938527Y-80937653D01*
X131938527Y-82095653D01*
X131918525Y-82163774D01*
X131864869Y-82210267D01*
X131812527Y-82221653D01*
X131684527Y-82221653D01*
X131684527Y-88095653D01*
X131664525Y-88163774D01*
X131610869Y-88210267D01*
X131558527Y-88221653D01*
X98184527Y-88221653D01*
X98184527Y-88349653D01*
X98164525Y-88417774D01*
X98110869Y-88464267D01*
X98058527Y-88475653D01*
X96560527Y-88475653D01*
X96492406Y-88455651D01*
X96445913Y-88401995D01*
X96434527Y-88349653D01*
X96434527Y-82816158D01*
X96434848Y-82807167D01*
X96454247Y-82536017D01*
X96456806Y-82518222D01*
X96513635Y-82257007D01*
X96518700Y-82239758D01*
X96612129Y-81989284D01*
X96619598Y-81972931D01*
X96747717Y-81738311D01*
X96757436Y-81723188D01*
X96917646Y-81509181D01*
X96929419Y-81495595D01*
X97118449Y-81306571D01*
X97132036Y-81294798D01*
X97346046Y-81134598D01*
X97361170Y-81124879D01*
X97595807Y-80996763D01*
X97612159Y-80989296D01*
X97862626Y-80895880D01*
X97879876Y-80890815D01*
X98141111Y-80833992D01*
X98158873Y-80831436D01*
X98430027Y-80811976D01*
X98439046Y-80811653D01*
X131812527Y-80811653D01*
X131880648Y-80831655D01*
G37*
G36*
X164880648Y-80831655D02*
G01*
X164927141Y-80885311D01*
X164938527Y-80937653D01*
X164938527Y-82218565D01*
X164938375Y-82224755D01*
X164937607Y-82240369D01*
X164936395Y-82252666D01*
X164934554Y-82265078D01*
X164932142Y-82277207D01*
X164929091Y-82289387D01*
X164925502Y-82301217D01*
X164921278Y-82313023D01*
X164916545Y-82324450D01*
X164911180Y-82335793D01*
X164905352Y-82346696D01*
X164898904Y-82357454D01*
X164892037Y-82367733D01*
X164884558Y-82377818D01*
X164876710Y-82387381D01*
X164868288Y-82396673D01*
X164859547Y-82405414D01*
X164850255Y-82413836D01*
X164840692Y-82421684D01*
X164830607Y-82429163D01*
X164820328Y-82436030D01*
X164809570Y-82442478D01*
X164798667Y-82448306D01*
X164787324Y-82453671D01*
X164775897Y-82458404D01*
X164764091Y-82462628D01*
X164752261Y-82466217D01*
X164740081Y-82469268D01*
X164727952Y-82471680D01*
X164715540Y-82473521D01*
X164703243Y-82474733D01*
X164687629Y-82475501D01*
X164681439Y-82475653D01*
X164205212Y-82475653D01*
X164137091Y-82455651D01*
X164090598Y-82401995D01*
X164079213Y-82349123D01*
X164079750Y-82221653D01*
X131684527Y-82221653D01*
X131684527Y-82242490D01*
X131664525Y-82310611D01*
X131610869Y-82357104D01*
X131540595Y-82367208D01*
X131476015Y-82337714D01*
X131437631Y-82277988D01*
X131433891Y-82260981D01*
X131432658Y-82252670D01*
X131431446Y-82240361D01*
X131430679Y-82224747D01*
X131430527Y-82218565D01*
X131430527Y-80937653D01*
X131450529Y-80869532D01*
X131504185Y-80823039D01*
X131556527Y-80811653D01*
X164812527Y-80811653D01*
X164880648Y-80831655D01*
G37*
G36*
X179039015Y-80811974D02*
G01*
X179310171Y-80831371D01*
X179327965Y-80833930D01*
X179589187Y-80890757D01*
X179606436Y-80895822D01*
X179856911Y-80989246D01*
X179873264Y-80996714D01*
X180107899Y-81124835D01*
X180123022Y-81134554D01*
X180337032Y-81294759D01*
X180350618Y-81306531D01*
X180539655Y-81495567D01*
X180551428Y-81509153D01*
X180711633Y-81723158D01*
X180721352Y-81738281D01*
X180849478Y-81972919D01*
X180856946Y-81989272D01*
X180950372Y-82239747D01*
X180955437Y-82256995D01*
X181012267Y-82518215D01*
X181014826Y-82536018D01*
X181034206Y-82807161D01*
X181034527Y-82816144D01*
X181034527Y-111971661D01*
X181054877Y-112256283D01*
X181115531Y-112535127D01*
X181115532Y-112535130D01*
X181215247Y-112802488D01*
X181215251Y-112802498D01*
X181352003Y-113052949D01*
X181523012Y-113281393D01*
X181724792Y-113483175D01*
X181724793Y-113483176D01*
X181953230Y-113654182D01*
X182203689Y-113790943D01*
X182299418Y-113826647D01*
X182344481Y-113855608D01*
X182374526Y-113885653D01*
X182435875Y-113885653D01*
X182466579Y-113890068D01*
X182466658Y-113889707D01*
X182529309Y-113903335D01*
X182591621Y-113937359D01*
X182625647Y-113999671D01*
X182628527Y-114026456D01*
X182628527Y-116676565D01*
X182628375Y-116682755D01*
X182627607Y-116698369D01*
X182626395Y-116710666D01*
X182624554Y-116723078D01*
X182622142Y-116735207D01*
X182619091Y-116747387D01*
X182615502Y-116759217D01*
X182611278Y-116771023D01*
X182606545Y-116782450D01*
X182601180Y-116793793D01*
X182595352Y-116804696D01*
X182588904Y-116815454D01*
X182582037Y-116825733D01*
X182574558Y-116835818D01*
X182566710Y-116845381D01*
X182558288Y-116854673D01*
X182549547Y-116863414D01*
X182540255Y-116871836D01*
X182530692Y-116879684D01*
X182520607Y-116887163D01*
X182510328Y-116894030D01*
X182499570Y-116900478D01*
X182488667Y-116906306D01*
X182477324Y-116911671D01*
X182465897Y-116916404D01*
X182454091Y-116920628D01*
X182442261Y-116924217D01*
X182430081Y-116927268D01*
X182417959Y-116929679D01*
X182405478Y-116931531D01*
X182393303Y-116932737D01*
X182378128Y-116933499D01*
X182372096Y-116933658D01*
X163938190Y-116975644D01*
X163932013Y-116975506D01*
X163916393Y-116974775D01*
X163904079Y-116973591D01*
X163891669Y-116971779D01*
X163879533Y-116969394D01*
X163867360Y-116966374D01*
X163855526Y-116962813D01*
X163843696Y-116958611D01*
X163832257Y-116953904D01*
X163820904Y-116948566D01*
X163809980Y-116942758D01*
X163799203Y-116936331D01*
X163788920Y-116929494D01*
X163778828Y-116922046D01*
X163769246Y-116914220D01*
X163759923Y-116905809D01*
X163751159Y-116897084D01*
X163742724Y-116887820D01*
X163734849Y-116878268D01*
X163727343Y-116868193D01*
X163720463Y-116857948D01*
X163713993Y-116847211D01*
X163708133Y-116836308D01*
X163702742Y-116824976D01*
X163697986Y-116813568D01*
X163693734Y-116801770D01*
X163690116Y-116789939D01*
X163687036Y-116777759D01*
X163684598Y-116765643D01*
X163682731Y-116753253D01*
X163681490Y-116740943D01*
X163680703Y-116725622D01*
X163680538Y-116718628D01*
X163691935Y-114011123D01*
X163712224Y-113943087D01*
X163766075Y-113896820D01*
X163817934Y-113885653D01*
X163946466Y-113885653D01*
X163946466Y-113885652D01*
X164079749Y-82221653D01*
X163952279Y-82221653D01*
X163884158Y-82201651D01*
X163837665Y-82147995D01*
X163826280Y-82095123D01*
X163831155Y-80937123D01*
X163851444Y-80869087D01*
X163905295Y-80822820D01*
X163957154Y-80811653D01*
X179030025Y-80811653D01*
X179039015Y-80811974D01*
G37*
G36*
X181949318Y-113651655D02*
G01*
X181949602Y-113651852D01*
X181953222Y-113654178D01*
X182203689Y-113790943D01*
X182299418Y-113826647D01*
X182344481Y-113855608D01*
X182374526Y-113885653D01*
X182435875Y-113885653D01*
X182466579Y-113890068D01*
X182466658Y-113889707D01*
X182749892Y-113951318D01*
X183034530Y-113971653D01*
X183930025Y-113971653D01*
X183939015Y-113971974D01*
X184210168Y-113991370D01*
X184227962Y-113993929D01*
X184489181Y-114050756D01*
X184506430Y-114055821D01*
X184756917Y-114149249D01*
X184773270Y-114156717D01*
X185007898Y-114284834D01*
X185023021Y-114294553D01*
X185237031Y-114454759D01*
X185250617Y-114466531D01*
X185439655Y-114655568D01*
X185451427Y-114669154D01*
X185611632Y-114883158D01*
X185621352Y-114898281D01*
X185749478Y-115132919D01*
X185756946Y-115149272D01*
X185850372Y-115399746D01*
X185855437Y-115416995D01*
X185912267Y-115678216D01*
X185914826Y-115696018D01*
X185934206Y-115967161D01*
X185934527Y-115976144D01*
X185934527Y-123367156D01*
X185934206Y-123376142D01*
X185914818Y-123647299D01*
X185912260Y-123665094D01*
X185855439Y-123926323D01*
X185850375Y-123943572D01*
X185756954Y-124194060D01*
X185749486Y-124210413D01*
X185621370Y-124445052D01*
X185611650Y-124460176D01*
X185451442Y-124674196D01*
X185439670Y-124687783D01*
X185250638Y-124876822D01*
X185237052Y-124888595D01*
X185023034Y-125048813D01*
X185007911Y-125058532D01*
X184773284Y-125186654D01*
X184756930Y-125194123D01*
X184506444Y-125287553D01*
X184489195Y-125292618D01*
X184227983Y-125349446D01*
X184210156Y-125352007D01*
X183939003Y-125371334D01*
X183930045Y-125371653D01*
X160934528Y-125371653D01*
X160699861Y-125390118D01*
X160470995Y-125445058D01*
X160253515Y-125535136D01*
X160052821Y-125658117D01*
X160052817Y-125658120D01*
X159873834Y-125810978D01*
X159720959Y-125989961D01*
X159597968Y-126190653D01*
X159507884Y-126408118D01*
X159452926Y-126637003D01*
X159434527Y-126871649D01*
X159434527Y-127466702D01*
X159434139Y-127476585D01*
X159416843Y-127696424D01*
X159413751Y-127715951D01*
X159363438Y-127925552D01*
X159357328Y-127944357D01*
X159274848Y-128143495D01*
X159265872Y-128161112D01*
X159153247Y-128344910D01*
X159141626Y-128360906D01*
X159001645Y-128524811D01*
X158987665Y-128538792D01*
X158823761Y-128678787D01*
X158807765Y-128690409D01*
X158623985Y-128803035D01*
X158606369Y-128812012D01*
X158407223Y-128894506D01*
X158388419Y-128900616D01*
X158178849Y-128950934D01*
X158159281Y-128954030D01*
X157939437Y-128971267D01*
X157929588Y-128971653D01*
X130430527Y-128971653D01*
X130362406Y-128951651D01*
X130315913Y-128897995D01*
X130304527Y-128845653D01*
X130304527Y-120597653D01*
X130324529Y-120529532D01*
X130378185Y-120483039D01*
X130430527Y-120471653D01*
X130558527Y-120471653D01*
X130558527Y-114011653D01*
X130578529Y-113943532D01*
X130632185Y-113897039D01*
X130684527Y-113885653D01*
X163946466Y-113885653D01*
X163947007Y-113757123D01*
X163967296Y-113689087D01*
X164021147Y-113642820D01*
X164073006Y-113631653D01*
X181881197Y-113631653D01*
X181949318Y-113651655D01*
G37*
M02*
