%TF.GenerationSoftware,KiCad,Pcbnew,7.0.10-7.0.10~ubuntu23.04.1*%
%TF.CreationDate,2024-02-10T00:29:08+00:00*%
%TF.ProjectId,SPACEDOS01,53504143-4544-44f5-9330-312e6b696361,B*%
%TF.SameCoordinates,Original*%
%TF.FileFunction,Legend,Bot*%
%TF.FilePolarity,Positive*%
%FSLAX46Y46*%
G04 Gerber Fmt 4.6, Leading zero omitted, Abs format (unit mm)*
G04 Created by KiCad (PCBNEW 7.0.10-7.0.10~ubuntu23.04.1) date 2024-02-10 00:29:08*
%MOMM*%
%LPD*%
G01*
G04 APERTURE LIST*
%ADD10C,0.300000*%
%ADD11C,0.150000*%
%ADD12C,0.120000*%
%ADD13R,1.524000X1.524000*%
G04 APERTURE END LIST*
D10*
X155938241Y-88679981D02*
X155938241Y-89894267D01*
X155938241Y-89894267D02*
X155866812Y-90037124D01*
X155866812Y-90037124D02*
X155795384Y-90108553D01*
X155795384Y-90108553D02*
X155652526Y-90179981D01*
X155652526Y-90179981D02*
X155366812Y-90179981D01*
X155366812Y-90179981D02*
X155223955Y-90108553D01*
X155223955Y-90108553D02*
X155152526Y-90037124D01*
X155152526Y-90037124D02*
X155081098Y-89894267D01*
X155081098Y-89894267D02*
X155081098Y-88679981D01*
X154438240Y-90108553D02*
X154223955Y-90179981D01*
X154223955Y-90179981D02*
X153866812Y-90179981D01*
X153866812Y-90179981D02*
X153723955Y-90108553D01*
X153723955Y-90108553D02*
X153652526Y-90037124D01*
X153652526Y-90037124D02*
X153581097Y-89894267D01*
X153581097Y-89894267D02*
X153581097Y-89751410D01*
X153581097Y-89751410D02*
X153652526Y-89608553D01*
X153652526Y-89608553D02*
X153723955Y-89537124D01*
X153723955Y-89537124D02*
X153866812Y-89465695D01*
X153866812Y-89465695D02*
X154152526Y-89394267D01*
X154152526Y-89394267D02*
X154295383Y-89322838D01*
X154295383Y-89322838D02*
X154366812Y-89251410D01*
X154366812Y-89251410D02*
X154438240Y-89108553D01*
X154438240Y-89108553D02*
X154438240Y-88965695D01*
X154438240Y-88965695D02*
X154366812Y-88822838D01*
X154366812Y-88822838D02*
X154295383Y-88751410D01*
X154295383Y-88751410D02*
X154152526Y-88679981D01*
X154152526Y-88679981D02*
X153795383Y-88679981D01*
X153795383Y-88679981D02*
X153581097Y-88751410D01*
X153152526Y-88679981D02*
X152295384Y-88679981D01*
X152723955Y-90179981D02*
X152723955Y-88679981D01*
X151795384Y-90037124D02*
X151723955Y-90108553D01*
X151723955Y-90108553D02*
X151795384Y-90179981D01*
X151795384Y-90179981D02*
X151866812Y-90108553D01*
X151866812Y-90108553D02*
X151795384Y-90037124D01*
X151795384Y-90037124D02*
X151795384Y-90179981D01*
X150223955Y-90037124D02*
X150295383Y-90108553D01*
X150295383Y-90108553D02*
X150509669Y-90179981D01*
X150509669Y-90179981D02*
X150652526Y-90179981D01*
X150652526Y-90179981D02*
X150866812Y-90108553D01*
X150866812Y-90108553D02*
X151009669Y-89965695D01*
X151009669Y-89965695D02*
X151081098Y-89822838D01*
X151081098Y-89822838D02*
X151152526Y-89537124D01*
X151152526Y-89537124D02*
X151152526Y-89322838D01*
X151152526Y-89322838D02*
X151081098Y-89037124D01*
X151081098Y-89037124D02*
X151009669Y-88894267D01*
X151009669Y-88894267D02*
X150866812Y-88751410D01*
X150866812Y-88751410D02*
X150652526Y-88679981D01*
X150652526Y-88679981D02*
X150509669Y-88679981D01*
X150509669Y-88679981D02*
X150295383Y-88751410D01*
X150295383Y-88751410D02*
X150223955Y-88822838D01*
X149723955Y-88679981D02*
X148723955Y-88679981D01*
X148723955Y-88679981D02*
X149723955Y-90179981D01*
X149723955Y-90179981D02*
X148723955Y-90179981D01*
X158889988Y-86723553D02*
X158704274Y-86785457D01*
X158704274Y-86785457D02*
X158394750Y-86785457D01*
X158394750Y-86785457D02*
X158270941Y-86723553D01*
X158270941Y-86723553D02*
X158209036Y-86661648D01*
X158209036Y-86661648D02*
X158147131Y-86537838D01*
X158147131Y-86537838D02*
X158147131Y-86414029D01*
X158147131Y-86414029D02*
X158209036Y-86290219D01*
X158209036Y-86290219D02*
X158270941Y-86228314D01*
X158270941Y-86228314D02*
X158394750Y-86166410D01*
X158394750Y-86166410D02*
X158642369Y-86104505D01*
X158642369Y-86104505D02*
X158766179Y-86042600D01*
X158766179Y-86042600D02*
X158828084Y-85980695D01*
X158828084Y-85980695D02*
X158889988Y-85856886D01*
X158889988Y-85856886D02*
X158889988Y-85733076D01*
X158889988Y-85733076D02*
X158828084Y-85609267D01*
X158828084Y-85609267D02*
X158766179Y-85547362D01*
X158766179Y-85547362D02*
X158642369Y-85485457D01*
X158642369Y-85485457D02*
X158332846Y-85485457D01*
X158332846Y-85485457D02*
X158147131Y-85547362D01*
X157589989Y-86785457D02*
X157589989Y-85485457D01*
X157589989Y-85485457D02*
X157094751Y-85485457D01*
X157094751Y-85485457D02*
X156970941Y-85547362D01*
X156970941Y-85547362D02*
X156909036Y-85609267D01*
X156909036Y-85609267D02*
X156847132Y-85733076D01*
X156847132Y-85733076D02*
X156847132Y-85918791D01*
X156847132Y-85918791D02*
X156909036Y-86042600D01*
X156909036Y-86042600D02*
X156970941Y-86104505D01*
X156970941Y-86104505D02*
X157094751Y-86166410D01*
X157094751Y-86166410D02*
X157589989Y-86166410D01*
X156351893Y-86414029D02*
X155732846Y-86414029D01*
X156475703Y-86785457D02*
X156042370Y-85485457D01*
X156042370Y-85485457D02*
X155609036Y-86785457D01*
X154432846Y-86661648D02*
X154494750Y-86723553D01*
X154494750Y-86723553D02*
X154680465Y-86785457D01*
X154680465Y-86785457D02*
X154804274Y-86785457D01*
X154804274Y-86785457D02*
X154989988Y-86723553D01*
X154989988Y-86723553D02*
X155113798Y-86599743D01*
X155113798Y-86599743D02*
X155175703Y-86475933D01*
X155175703Y-86475933D02*
X155237607Y-86228314D01*
X155237607Y-86228314D02*
X155237607Y-86042600D01*
X155237607Y-86042600D02*
X155175703Y-85794981D01*
X155175703Y-85794981D02*
X155113798Y-85671172D01*
X155113798Y-85671172D02*
X154989988Y-85547362D01*
X154989988Y-85547362D02*
X154804274Y-85485457D01*
X154804274Y-85485457D02*
X154680465Y-85485457D01*
X154680465Y-85485457D02*
X154494750Y-85547362D01*
X154494750Y-85547362D02*
X154432846Y-85609267D01*
X153875703Y-86104505D02*
X153442369Y-86104505D01*
X153256655Y-86785457D02*
X153875703Y-86785457D01*
X153875703Y-86785457D02*
X153875703Y-85485457D01*
X153875703Y-85485457D02*
X153256655Y-85485457D01*
X152699513Y-86785457D02*
X152699513Y-85485457D01*
X152699513Y-85485457D02*
X152389989Y-85485457D01*
X152389989Y-85485457D02*
X152204275Y-85547362D01*
X152204275Y-85547362D02*
X152080465Y-85671172D01*
X152080465Y-85671172D02*
X152018560Y-85794981D01*
X152018560Y-85794981D02*
X151956656Y-86042600D01*
X151956656Y-86042600D02*
X151956656Y-86228314D01*
X151956656Y-86228314D02*
X152018560Y-86475933D01*
X152018560Y-86475933D02*
X152080465Y-86599743D01*
X152080465Y-86599743D02*
X152204275Y-86723553D01*
X152204275Y-86723553D02*
X152389989Y-86785457D01*
X152389989Y-86785457D02*
X152699513Y-86785457D01*
X151151894Y-85485457D02*
X150904275Y-85485457D01*
X150904275Y-85485457D02*
X150780465Y-85547362D01*
X150780465Y-85547362D02*
X150656656Y-85671172D01*
X150656656Y-85671172D02*
X150594751Y-85918791D01*
X150594751Y-85918791D02*
X150594751Y-86352124D01*
X150594751Y-86352124D02*
X150656656Y-86599743D01*
X150656656Y-86599743D02*
X150780465Y-86723553D01*
X150780465Y-86723553D02*
X150904275Y-86785457D01*
X150904275Y-86785457D02*
X151151894Y-86785457D01*
X151151894Y-86785457D02*
X151275703Y-86723553D01*
X151275703Y-86723553D02*
X151399513Y-86599743D01*
X151399513Y-86599743D02*
X151461417Y-86352124D01*
X151461417Y-86352124D02*
X151461417Y-85918791D01*
X151461417Y-85918791D02*
X151399513Y-85671172D01*
X151399513Y-85671172D02*
X151275703Y-85547362D01*
X151275703Y-85547362D02*
X151151894Y-85485457D01*
X150099512Y-86723553D02*
X149913798Y-86785457D01*
X149913798Y-86785457D02*
X149604274Y-86785457D01*
X149604274Y-86785457D02*
X149480465Y-86723553D01*
X149480465Y-86723553D02*
X149418560Y-86661648D01*
X149418560Y-86661648D02*
X149356655Y-86537838D01*
X149356655Y-86537838D02*
X149356655Y-86414029D01*
X149356655Y-86414029D02*
X149418560Y-86290219D01*
X149418560Y-86290219D02*
X149480465Y-86228314D01*
X149480465Y-86228314D02*
X149604274Y-86166410D01*
X149604274Y-86166410D02*
X149851893Y-86104505D01*
X149851893Y-86104505D02*
X149975703Y-86042600D01*
X149975703Y-86042600D02*
X150037608Y-85980695D01*
X150037608Y-85980695D02*
X150099512Y-85856886D01*
X150099512Y-85856886D02*
X150099512Y-85733076D01*
X150099512Y-85733076D02*
X150037608Y-85609267D01*
X150037608Y-85609267D02*
X149975703Y-85547362D01*
X149975703Y-85547362D02*
X149851893Y-85485457D01*
X149851893Y-85485457D02*
X149542370Y-85485457D01*
X149542370Y-85485457D02*
X149356655Y-85547362D01*
X148551894Y-85485457D02*
X148428084Y-85485457D01*
X148428084Y-85485457D02*
X148304275Y-85547362D01*
X148304275Y-85547362D02*
X148242370Y-85609267D01*
X148242370Y-85609267D02*
X148180465Y-85733076D01*
X148180465Y-85733076D02*
X148118560Y-85980695D01*
X148118560Y-85980695D02*
X148118560Y-86290219D01*
X148118560Y-86290219D02*
X148180465Y-86537838D01*
X148180465Y-86537838D02*
X148242370Y-86661648D01*
X148242370Y-86661648D02*
X148304275Y-86723553D01*
X148304275Y-86723553D02*
X148428084Y-86785457D01*
X148428084Y-86785457D02*
X148551894Y-86785457D01*
X148551894Y-86785457D02*
X148675703Y-86723553D01*
X148675703Y-86723553D02*
X148737608Y-86661648D01*
X148737608Y-86661648D02*
X148799513Y-86537838D01*
X148799513Y-86537838D02*
X148861417Y-86290219D01*
X148861417Y-86290219D02*
X148861417Y-85980695D01*
X148861417Y-85980695D02*
X148799513Y-85733076D01*
X148799513Y-85733076D02*
X148737608Y-85609267D01*
X148737608Y-85609267D02*
X148675703Y-85547362D01*
X148675703Y-85547362D02*
X148551894Y-85485457D01*
X146880465Y-86785457D02*
X147623322Y-86785457D01*
X147251894Y-86785457D02*
X147251894Y-85485457D01*
X147251894Y-85485457D02*
X147375703Y-85671172D01*
X147375703Y-85671172D02*
X147499513Y-85794981D01*
X147499513Y-85794981D02*
X147623322Y-85856886D01*
X145889989Y-86104505D02*
X145704275Y-86166410D01*
X145704275Y-86166410D02*
X145642370Y-86228314D01*
X145642370Y-86228314D02*
X145580466Y-86352124D01*
X145580466Y-86352124D02*
X145580466Y-86537838D01*
X145580466Y-86537838D02*
X145642370Y-86661648D01*
X145642370Y-86661648D02*
X145704275Y-86723553D01*
X145704275Y-86723553D02*
X145828085Y-86785457D01*
X145828085Y-86785457D02*
X146323323Y-86785457D01*
X146323323Y-86785457D02*
X146323323Y-85485457D01*
X146323323Y-85485457D02*
X145889989Y-85485457D01*
X145889989Y-85485457D02*
X145766180Y-85547362D01*
X145766180Y-85547362D02*
X145704275Y-85609267D01*
X145704275Y-85609267D02*
X145642370Y-85733076D01*
X145642370Y-85733076D02*
X145642370Y-85856886D01*
X145642370Y-85856886D02*
X145704275Y-85980695D01*
X145704275Y-85980695D02*
X145766180Y-86042600D01*
X145766180Y-86042600D02*
X145889989Y-86104505D01*
X145889989Y-86104505D02*
X146323323Y-86104505D01*
X145332847Y-86909267D02*
X144342370Y-86909267D01*
X144032847Y-86785457D02*
X144032847Y-85485457D01*
X144032847Y-85485457D02*
X143537609Y-85485457D01*
X143537609Y-85485457D02*
X143413799Y-85547362D01*
X143413799Y-85547362D02*
X143351894Y-85609267D01*
X143351894Y-85609267D02*
X143289990Y-85733076D01*
X143289990Y-85733076D02*
X143289990Y-85918791D01*
X143289990Y-85918791D02*
X143351894Y-86042600D01*
X143351894Y-86042600D02*
X143413799Y-86104505D01*
X143413799Y-86104505D02*
X143537609Y-86166410D01*
X143537609Y-86166410D02*
X144032847Y-86166410D01*
X141989990Y-86661648D02*
X142051894Y-86723553D01*
X142051894Y-86723553D02*
X142237609Y-86785457D01*
X142237609Y-86785457D02*
X142361418Y-86785457D01*
X142361418Y-86785457D02*
X142547132Y-86723553D01*
X142547132Y-86723553D02*
X142670942Y-86599743D01*
X142670942Y-86599743D02*
X142732847Y-86475933D01*
X142732847Y-86475933D02*
X142794751Y-86228314D01*
X142794751Y-86228314D02*
X142794751Y-86042600D01*
X142794751Y-86042600D02*
X142732847Y-85794981D01*
X142732847Y-85794981D02*
X142670942Y-85671172D01*
X142670942Y-85671172D02*
X142547132Y-85547362D01*
X142547132Y-85547362D02*
X142361418Y-85485457D01*
X142361418Y-85485457D02*
X142237609Y-85485457D01*
X142237609Y-85485457D02*
X142051894Y-85547362D01*
X142051894Y-85547362D02*
X141989990Y-85609267D01*
X140999513Y-86104505D02*
X140813799Y-86166410D01*
X140813799Y-86166410D02*
X140751894Y-86228314D01*
X140751894Y-86228314D02*
X140689990Y-86352124D01*
X140689990Y-86352124D02*
X140689990Y-86537838D01*
X140689990Y-86537838D02*
X140751894Y-86661648D01*
X140751894Y-86661648D02*
X140813799Y-86723553D01*
X140813799Y-86723553D02*
X140937609Y-86785457D01*
X140937609Y-86785457D02*
X141432847Y-86785457D01*
X141432847Y-86785457D02*
X141432847Y-85485457D01*
X141432847Y-85485457D02*
X140999513Y-85485457D01*
X140999513Y-85485457D02*
X140875704Y-85547362D01*
X140875704Y-85547362D02*
X140813799Y-85609267D01*
X140813799Y-85609267D02*
X140751894Y-85733076D01*
X140751894Y-85733076D02*
X140751894Y-85856886D01*
X140751894Y-85856886D02*
X140813799Y-85980695D01*
X140813799Y-85980695D02*
X140875704Y-86042600D01*
X140875704Y-86042600D02*
X140999513Y-86104505D01*
X140999513Y-86104505D02*
X141432847Y-86104505D01*
X139885228Y-85485457D02*
X139761418Y-85485457D01*
X139761418Y-85485457D02*
X139637609Y-85547362D01*
X139637609Y-85547362D02*
X139575704Y-85609267D01*
X139575704Y-85609267D02*
X139513799Y-85733076D01*
X139513799Y-85733076D02*
X139451894Y-85980695D01*
X139451894Y-85980695D02*
X139451894Y-86290219D01*
X139451894Y-86290219D02*
X139513799Y-86537838D01*
X139513799Y-86537838D02*
X139575704Y-86661648D01*
X139575704Y-86661648D02*
X139637609Y-86723553D01*
X139637609Y-86723553D02*
X139761418Y-86785457D01*
X139761418Y-86785457D02*
X139885228Y-86785457D01*
X139885228Y-86785457D02*
X140009037Y-86723553D01*
X140009037Y-86723553D02*
X140070942Y-86661648D01*
X140070942Y-86661648D02*
X140132847Y-86537838D01*
X140132847Y-86537838D02*
X140194751Y-86290219D01*
X140194751Y-86290219D02*
X140194751Y-85980695D01*
X140194751Y-85980695D02*
X140132847Y-85733076D01*
X140132847Y-85733076D02*
X140070942Y-85609267D01*
X140070942Y-85609267D02*
X140009037Y-85547362D01*
X140009037Y-85547362D02*
X139885228Y-85485457D01*
X138213799Y-86785457D02*
X138956656Y-86785457D01*
X138585228Y-86785457D02*
X138585228Y-85485457D01*
X138585228Y-85485457D02*
X138709037Y-85671172D01*
X138709037Y-85671172D02*
X138832847Y-85794981D01*
X138832847Y-85794981D02*
X138956656Y-85856886D01*
X137718561Y-86414029D02*
X137099514Y-86414029D01*
X137842371Y-86785457D02*
X137409038Y-85485457D01*
X137409038Y-85485457D02*
X136975704Y-86785457D01*
X154264198Y-125552163D02*
X154978484Y-126052163D01*
X154264198Y-126409306D02*
X155764198Y-126409306D01*
X155764198Y-126409306D02*
X155764198Y-125837877D01*
X155764198Y-125837877D02*
X155692769Y-125695020D01*
X155692769Y-125695020D02*
X155621341Y-125623591D01*
X155621341Y-125623591D02*
X155478484Y-125552163D01*
X155478484Y-125552163D02*
X155264198Y-125552163D01*
X155264198Y-125552163D02*
X155121341Y-125623591D01*
X155121341Y-125623591D02*
X155049912Y-125695020D01*
X155049912Y-125695020D02*
X154978484Y-125837877D01*
X154978484Y-125837877D02*
X154978484Y-126409306D01*
X154335627Y-124980734D02*
X154264198Y-124766449D01*
X154264198Y-124766449D02*
X154264198Y-124409306D01*
X154264198Y-124409306D02*
X154335627Y-124266449D01*
X154335627Y-124266449D02*
X154407055Y-124195020D01*
X154407055Y-124195020D02*
X154549912Y-124123591D01*
X154549912Y-124123591D02*
X154692769Y-124123591D01*
X154692769Y-124123591D02*
X154835627Y-124195020D01*
X154835627Y-124195020D02*
X154907055Y-124266449D01*
X154907055Y-124266449D02*
X154978484Y-124409306D01*
X154978484Y-124409306D02*
X155049912Y-124695020D01*
X155049912Y-124695020D02*
X155121341Y-124837877D01*
X155121341Y-124837877D02*
X155192769Y-124909306D01*
X155192769Y-124909306D02*
X155335627Y-124980734D01*
X155335627Y-124980734D02*
X155478484Y-124980734D01*
X155478484Y-124980734D02*
X155621341Y-124909306D01*
X155621341Y-124909306D02*
X155692769Y-124837877D01*
X155692769Y-124837877D02*
X155764198Y-124695020D01*
X155764198Y-124695020D02*
X155764198Y-124337877D01*
X155764198Y-124337877D02*
X155692769Y-124123591D01*
X155764198Y-123695020D02*
X155764198Y-122837878D01*
X154264198Y-123266449D02*
X155764198Y-123266449D01*
X155264198Y-122409306D02*
X155264198Y-121337878D01*
X155907055Y-121980735D02*
X153978484Y-122409306D01*
X154621341Y-121480735D02*
X154621341Y-122552163D01*
X153978484Y-121909306D02*
X155907055Y-121480735D01*
X163130198Y-124869590D02*
X163130198Y-123941018D01*
X163130198Y-123941018D02*
X162558769Y-124441018D01*
X162558769Y-124441018D02*
X162558769Y-124226733D01*
X162558769Y-124226733D02*
X162487341Y-124083876D01*
X162487341Y-124083876D02*
X162415912Y-124012447D01*
X162415912Y-124012447D02*
X162273055Y-123941018D01*
X162273055Y-123941018D02*
X161915912Y-123941018D01*
X161915912Y-123941018D02*
X161773055Y-124012447D01*
X161773055Y-124012447D02*
X161701627Y-124083876D01*
X161701627Y-124083876D02*
X161630198Y-124226733D01*
X161630198Y-124226733D02*
X161630198Y-124655304D01*
X161630198Y-124655304D02*
X161701627Y-124798161D01*
X161701627Y-124798161D02*
X161773055Y-124869590D01*
X163130198Y-123512447D02*
X161630198Y-123012447D01*
X161630198Y-123012447D02*
X163130198Y-122512447D01*
X163130198Y-122155305D02*
X163130198Y-121226733D01*
X163130198Y-121226733D02*
X162558769Y-121726733D01*
X162558769Y-121726733D02*
X162558769Y-121512448D01*
X162558769Y-121512448D02*
X162487341Y-121369591D01*
X162487341Y-121369591D02*
X162415912Y-121298162D01*
X162415912Y-121298162D02*
X162273055Y-121226733D01*
X162273055Y-121226733D02*
X161915912Y-121226733D01*
X161915912Y-121226733D02*
X161773055Y-121298162D01*
X161773055Y-121298162D02*
X161701627Y-121369591D01*
X161701627Y-121369591D02*
X161630198Y-121512448D01*
X161630198Y-121512448D02*
X161630198Y-121941019D01*
X161630198Y-121941019D02*
X161701627Y-122083876D01*
X161701627Y-122083876D02*
X161773055Y-122155305D01*
X179434526Y-82399981D02*
X179434526Y-83471410D01*
X179434526Y-83471410D02*
X179505955Y-83685695D01*
X179505955Y-83685695D02*
X179648812Y-83828553D01*
X179648812Y-83828553D02*
X179863098Y-83899981D01*
X179863098Y-83899981D02*
X180005955Y-83899981D01*
X178791669Y-83471410D02*
X178077384Y-83471410D01*
X178934526Y-83899981D02*
X178434526Y-82399981D01*
X178434526Y-82399981D02*
X177934526Y-83899981D01*
X176577384Y-83757124D02*
X176648812Y-83828553D01*
X176648812Y-83828553D02*
X176863098Y-83899981D01*
X176863098Y-83899981D02*
X177005955Y-83899981D01*
X177005955Y-83899981D02*
X177220241Y-83828553D01*
X177220241Y-83828553D02*
X177363098Y-83685695D01*
X177363098Y-83685695D02*
X177434527Y-83542838D01*
X177434527Y-83542838D02*
X177505955Y-83257124D01*
X177505955Y-83257124D02*
X177505955Y-83042838D01*
X177505955Y-83042838D02*
X177434527Y-82757124D01*
X177434527Y-82757124D02*
X177363098Y-82614267D01*
X177363098Y-82614267D02*
X177220241Y-82471410D01*
X177220241Y-82471410D02*
X177005955Y-82399981D01*
X177005955Y-82399981D02*
X176863098Y-82399981D01*
X176863098Y-82399981D02*
X176648812Y-82471410D01*
X176648812Y-82471410D02*
X176577384Y-82542838D01*
X175934527Y-83899981D02*
X175934527Y-82399981D01*
X175934527Y-83114267D02*
X175077384Y-83114267D01*
X175077384Y-83899981D02*
X175077384Y-82399981D01*
X174077383Y-82399981D02*
X173791669Y-82399981D01*
X173791669Y-82399981D02*
X173648812Y-82471410D01*
X173648812Y-82471410D02*
X173505955Y-82614267D01*
X173505955Y-82614267D02*
X173434526Y-82899981D01*
X173434526Y-82899981D02*
X173434526Y-83399981D01*
X173434526Y-83399981D02*
X173505955Y-83685695D01*
X173505955Y-83685695D02*
X173648812Y-83828553D01*
X173648812Y-83828553D02*
X173791669Y-83899981D01*
X173791669Y-83899981D02*
X174077383Y-83899981D01*
X174077383Y-83899981D02*
X174220241Y-83828553D01*
X174220241Y-83828553D02*
X174363098Y-83685695D01*
X174363098Y-83685695D02*
X174434526Y-83399981D01*
X174434526Y-83399981D02*
X174434526Y-82899981D01*
X174434526Y-82899981D02*
X174363098Y-82614267D01*
X174363098Y-82614267D02*
X174220241Y-82471410D01*
X174220241Y-82471410D02*
X174077383Y-82399981D01*
X184720242Y-115899981D02*
X184720242Y-117114267D01*
X184720242Y-117114267D02*
X184648813Y-117257124D01*
X184648813Y-117257124D02*
X184577385Y-117328553D01*
X184577385Y-117328553D02*
X184434527Y-117399981D01*
X184434527Y-117399981D02*
X184148813Y-117399981D01*
X184148813Y-117399981D02*
X184005956Y-117328553D01*
X184005956Y-117328553D02*
X183934527Y-117257124D01*
X183934527Y-117257124D02*
X183863099Y-117114267D01*
X183863099Y-117114267D02*
X183863099Y-115899981D01*
X183220241Y-117328553D02*
X183005956Y-117399981D01*
X183005956Y-117399981D02*
X182648813Y-117399981D01*
X182648813Y-117399981D02*
X182505956Y-117328553D01*
X182505956Y-117328553D02*
X182434527Y-117257124D01*
X182434527Y-117257124D02*
X182363098Y-117114267D01*
X182363098Y-117114267D02*
X182363098Y-116971410D01*
X182363098Y-116971410D02*
X182434527Y-116828553D01*
X182434527Y-116828553D02*
X182505956Y-116757124D01*
X182505956Y-116757124D02*
X182648813Y-116685695D01*
X182648813Y-116685695D02*
X182934527Y-116614267D01*
X182934527Y-116614267D02*
X183077384Y-116542838D01*
X183077384Y-116542838D02*
X183148813Y-116471410D01*
X183148813Y-116471410D02*
X183220241Y-116328553D01*
X183220241Y-116328553D02*
X183220241Y-116185695D01*
X183220241Y-116185695D02*
X183148813Y-116042838D01*
X183148813Y-116042838D02*
X183077384Y-115971410D01*
X183077384Y-115971410D02*
X182934527Y-115899981D01*
X182934527Y-115899981D02*
X182577384Y-115899981D01*
X182577384Y-115899981D02*
X182363098Y-115971410D01*
X181934527Y-115899981D02*
X181077385Y-115899981D01*
X181505956Y-117399981D02*
X181505956Y-115899981D01*
X180577385Y-117257124D02*
X180505956Y-117328553D01*
X180505956Y-117328553D02*
X180577385Y-117399981D01*
X180577385Y-117399981D02*
X180648813Y-117328553D01*
X180648813Y-117328553D02*
X180577385Y-117257124D01*
X180577385Y-117257124D02*
X180577385Y-117399981D01*
X179005956Y-117257124D02*
X179077384Y-117328553D01*
X179077384Y-117328553D02*
X179291670Y-117399981D01*
X179291670Y-117399981D02*
X179434527Y-117399981D01*
X179434527Y-117399981D02*
X179648813Y-117328553D01*
X179648813Y-117328553D02*
X179791670Y-117185695D01*
X179791670Y-117185695D02*
X179863099Y-117042838D01*
X179863099Y-117042838D02*
X179934527Y-116757124D01*
X179934527Y-116757124D02*
X179934527Y-116542838D01*
X179934527Y-116542838D02*
X179863099Y-116257124D01*
X179863099Y-116257124D02*
X179791670Y-116114267D01*
X179791670Y-116114267D02*
X179648813Y-115971410D01*
X179648813Y-115971410D02*
X179434527Y-115899981D01*
X179434527Y-115899981D02*
X179291670Y-115899981D01*
X179291670Y-115899981D02*
X179077384Y-115971410D01*
X179077384Y-115971410D02*
X179005956Y-116042838D01*
X178505956Y-115899981D02*
X177505956Y-115899981D01*
X177505956Y-115899981D02*
X178505956Y-117399981D01*
X178505956Y-117399981D02*
X177505956Y-117399981D01*
X153224198Y-127433591D02*
X153224198Y-126576449D01*
X151724198Y-127005020D02*
X153224198Y-127005020D01*
X153224198Y-126219306D02*
X151724198Y-125219306D01*
X153224198Y-125219306D02*
X151724198Y-126219306D01*
X149184198Y-125520449D02*
X150684198Y-125520449D01*
X150684198Y-125520449D02*
X150684198Y-124949020D01*
X150684198Y-124949020D02*
X150612769Y-124806163D01*
X150612769Y-124806163D02*
X150541341Y-124734734D01*
X150541341Y-124734734D02*
X150398484Y-124663306D01*
X150398484Y-124663306D02*
X150184198Y-124663306D01*
X150184198Y-124663306D02*
X150041341Y-124734734D01*
X150041341Y-124734734D02*
X149969912Y-124806163D01*
X149969912Y-124806163D02*
X149898484Y-124949020D01*
X149898484Y-124949020D02*
X149898484Y-125520449D01*
X149184198Y-124020449D02*
X150684198Y-124020449D01*
X150684198Y-124020449D02*
X150684198Y-123663306D01*
X150684198Y-123663306D02*
X150612769Y-123449020D01*
X150612769Y-123449020D02*
X150469912Y-123306163D01*
X150469912Y-123306163D02*
X150327055Y-123234734D01*
X150327055Y-123234734D02*
X150041341Y-123163306D01*
X150041341Y-123163306D02*
X149827055Y-123163306D01*
X149827055Y-123163306D02*
X149541341Y-123234734D01*
X149541341Y-123234734D02*
X149398484Y-123306163D01*
X149398484Y-123306163D02*
X149255627Y-123449020D01*
X149255627Y-123449020D02*
X149184198Y-123663306D01*
X149184198Y-123663306D02*
X149184198Y-124020449D01*
X150541341Y-122591877D02*
X150612769Y-122520449D01*
X150612769Y-122520449D02*
X150684198Y-122377592D01*
X150684198Y-122377592D02*
X150684198Y-122020449D01*
X150684198Y-122020449D02*
X150612769Y-121877592D01*
X150612769Y-121877592D02*
X150541341Y-121806163D01*
X150541341Y-121806163D02*
X150398484Y-121734734D01*
X150398484Y-121734734D02*
X150255627Y-121734734D01*
X150255627Y-121734734D02*
X150041341Y-121806163D01*
X150041341Y-121806163D02*
X149184198Y-122663306D01*
X149184198Y-122663306D02*
X149184198Y-121734734D01*
X151724198Y-123025652D02*
X152438484Y-123525652D01*
X151724198Y-123882795D02*
X153224198Y-123882795D01*
X153224198Y-123882795D02*
X153224198Y-123311366D01*
X153224198Y-123311366D02*
X153152769Y-123168509D01*
X153152769Y-123168509D02*
X153081341Y-123097080D01*
X153081341Y-123097080D02*
X152938484Y-123025652D01*
X152938484Y-123025652D02*
X152724198Y-123025652D01*
X152724198Y-123025652D02*
X152581341Y-123097080D01*
X152581341Y-123097080D02*
X152509912Y-123168509D01*
X152509912Y-123168509D02*
X152438484Y-123311366D01*
X152438484Y-123311366D02*
X152438484Y-123882795D01*
X153224198Y-122525652D02*
X151724198Y-121525652D01*
X153224198Y-121525652D02*
X151724198Y-122525652D01*
X148163669Y-117611981D02*
X148163669Y-116111981D01*
X148163669Y-116111981D02*
X147592240Y-116111981D01*
X147592240Y-116111981D02*
X147449383Y-116183410D01*
X147449383Y-116183410D02*
X147377954Y-116254838D01*
X147377954Y-116254838D02*
X147306526Y-116397695D01*
X147306526Y-116397695D02*
X147306526Y-116611981D01*
X147306526Y-116611981D02*
X147377954Y-116754838D01*
X147377954Y-116754838D02*
X147449383Y-116826267D01*
X147449383Y-116826267D02*
X147592240Y-116897695D01*
X147592240Y-116897695D02*
X148163669Y-116897695D01*
X146663669Y-117611981D02*
X146663669Y-116111981D01*
X146663669Y-116111981D02*
X146306526Y-116111981D01*
X146306526Y-116111981D02*
X146092240Y-116183410D01*
X146092240Y-116183410D02*
X145949383Y-116326267D01*
X145949383Y-116326267D02*
X145877954Y-116469124D01*
X145877954Y-116469124D02*
X145806526Y-116754838D01*
X145806526Y-116754838D02*
X145806526Y-116969124D01*
X145806526Y-116969124D02*
X145877954Y-117254838D01*
X145877954Y-117254838D02*
X145949383Y-117397695D01*
X145949383Y-117397695D02*
X146092240Y-117540553D01*
X146092240Y-117540553D02*
X146306526Y-117611981D01*
X146306526Y-117611981D02*
X146663669Y-117611981D01*
X145306526Y-116111981D02*
X144377954Y-116111981D01*
X144377954Y-116111981D02*
X144877954Y-116683410D01*
X144877954Y-116683410D02*
X144663669Y-116683410D01*
X144663669Y-116683410D02*
X144520812Y-116754838D01*
X144520812Y-116754838D02*
X144449383Y-116826267D01*
X144449383Y-116826267D02*
X144377954Y-116969124D01*
X144377954Y-116969124D02*
X144377954Y-117326267D01*
X144377954Y-117326267D02*
X144449383Y-117469124D01*
X144449383Y-117469124D02*
X144520812Y-117540553D01*
X144520812Y-117540553D02*
X144663669Y-117611981D01*
X144663669Y-117611981D02*
X145092240Y-117611981D01*
X145092240Y-117611981D02*
X145235097Y-117540553D01*
X145235097Y-117540553D02*
X145306526Y-117469124D01*
X158232769Y-124623592D02*
X158304198Y-124766450D01*
X158304198Y-124766450D02*
X158304198Y-124980735D01*
X158304198Y-124980735D02*
X158232769Y-125195021D01*
X158232769Y-125195021D02*
X158089912Y-125337878D01*
X158089912Y-125337878D02*
X157947055Y-125409307D01*
X157947055Y-125409307D02*
X157661341Y-125480735D01*
X157661341Y-125480735D02*
X157447055Y-125480735D01*
X157447055Y-125480735D02*
X157161341Y-125409307D01*
X157161341Y-125409307D02*
X157018484Y-125337878D01*
X157018484Y-125337878D02*
X156875627Y-125195021D01*
X156875627Y-125195021D02*
X156804198Y-124980735D01*
X156804198Y-124980735D02*
X156804198Y-124837878D01*
X156804198Y-124837878D02*
X156875627Y-124623592D01*
X156875627Y-124623592D02*
X156947055Y-124552164D01*
X156947055Y-124552164D02*
X157447055Y-124552164D01*
X157447055Y-124552164D02*
X157447055Y-124837878D01*
X156804198Y-123909307D02*
X158304198Y-123909307D01*
X158304198Y-123909307D02*
X156804198Y-123052164D01*
X156804198Y-123052164D02*
X158304198Y-123052164D01*
X156804198Y-122337878D02*
X158304198Y-122337878D01*
X158304198Y-122337878D02*
X158304198Y-121980735D01*
X158304198Y-121980735D02*
X158232769Y-121766449D01*
X158232769Y-121766449D02*
X158089912Y-121623592D01*
X158089912Y-121623592D02*
X157947055Y-121552163D01*
X157947055Y-121552163D02*
X157661341Y-121480735D01*
X157661341Y-121480735D02*
X157447055Y-121480735D01*
X157447055Y-121480735D02*
X157161341Y-121552163D01*
X157161341Y-121552163D02*
X157018484Y-121623592D01*
X157018484Y-121623592D02*
X156875627Y-121766449D01*
X156875627Y-121766449D02*
X156804198Y-121980735D01*
X156804198Y-121980735D02*
X156804198Y-122337878D01*
X179005954Y-85042838D02*
X178934526Y-84971410D01*
X178934526Y-84971410D02*
X178791669Y-84899981D01*
X178791669Y-84899981D02*
X178434526Y-84899981D01*
X178434526Y-84899981D02*
X178291669Y-84971410D01*
X178291669Y-84971410D02*
X178220240Y-85042838D01*
X178220240Y-85042838D02*
X178148811Y-85185695D01*
X178148811Y-85185695D02*
X178148811Y-85328553D01*
X178148811Y-85328553D02*
X178220240Y-85542838D01*
X178220240Y-85542838D02*
X179077383Y-86399981D01*
X179077383Y-86399981D02*
X178148811Y-86399981D01*
X177220240Y-84899981D02*
X177077383Y-84899981D01*
X177077383Y-84899981D02*
X176934526Y-84971410D01*
X176934526Y-84971410D02*
X176863098Y-85042838D01*
X176863098Y-85042838D02*
X176791669Y-85185695D01*
X176791669Y-85185695D02*
X176720240Y-85471410D01*
X176720240Y-85471410D02*
X176720240Y-85828553D01*
X176720240Y-85828553D02*
X176791669Y-86114267D01*
X176791669Y-86114267D02*
X176863098Y-86257124D01*
X176863098Y-86257124D02*
X176934526Y-86328553D01*
X176934526Y-86328553D02*
X177077383Y-86399981D01*
X177077383Y-86399981D02*
X177220240Y-86399981D01*
X177220240Y-86399981D02*
X177363098Y-86328553D01*
X177363098Y-86328553D02*
X177434526Y-86257124D01*
X177434526Y-86257124D02*
X177505955Y-86114267D01*
X177505955Y-86114267D02*
X177577383Y-85828553D01*
X177577383Y-85828553D02*
X177577383Y-85471410D01*
X177577383Y-85471410D02*
X177505955Y-85185695D01*
X177505955Y-85185695D02*
X177434526Y-85042838D01*
X177434526Y-85042838D02*
X177363098Y-84971410D01*
X177363098Y-84971410D02*
X177220240Y-84899981D01*
X175291669Y-86399981D02*
X176148812Y-86399981D01*
X175720241Y-86399981D02*
X175720241Y-84899981D01*
X175720241Y-84899981D02*
X175863098Y-85114267D01*
X175863098Y-85114267D02*
X176005955Y-85257124D01*
X176005955Y-85257124D02*
X176148812Y-85328553D01*
X174577384Y-86399981D02*
X174291670Y-86399981D01*
X174291670Y-86399981D02*
X174148813Y-86328553D01*
X174148813Y-86328553D02*
X174077384Y-86257124D01*
X174077384Y-86257124D02*
X173934527Y-86042838D01*
X173934527Y-86042838D02*
X173863098Y-85757124D01*
X173863098Y-85757124D02*
X173863098Y-85185695D01*
X173863098Y-85185695D02*
X173934527Y-85042838D01*
X173934527Y-85042838D02*
X174005956Y-84971410D01*
X174005956Y-84971410D02*
X174148813Y-84899981D01*
X174148813Y-84899981D02*
X174434527Y-84899981D01*
X174434527Y-84899981D02*
X174577384Y-84971410D01*
X174577384Y-84971410D02*
X174648813Y-85042838D01*
X174648813Y-85042838D02*
X174720241Y-85185695D01*
X174720241Y-85185695D02*
X174720241Y-85542838D01*
X174720241Y-85542838D02*
X174648813Y-85685695D01*
X174648813Y-85685695D02*
X174577384Y-85757124D01*
X174577384Y-85757124D02*
X174434527Y-85828553D01*
X174434527Y-85828553D02*
X174148813Y-85828553D01*
X174148813Y-85828553D02*
X174005956Y-85757124D01*
X174005956Y-85757124D02*
X173934527Y-85685695D01*
X173934527Y-85685695D02*
X173863098Y-85542838D01*
D11*
X161747346Y-92787940D02*
X160747346Y-92787940D01*
X160747346Y-92787940D02*
X161461631Y-93121273D01*
X161461631Y-93121273D02*
X160747346Y-93454606D01*
X160747346Y-93454606D02*
X161747346Y-93454606D01*
X161747346Y-94454606D02*
X161747346Y-93883178D01*
X161747346Y-94168892D02*
X160747346Y-94168892D01*
X160747346Y-94168892D02*
X160890203Y-94073654D01*
X160890203Y-94073654D02*
X160985441Y-93978416D01*
X160985441Y-93978416D02*
X161033060Y-93883178D01*
X160747346Y-95073654D02*
X160747346Y-95168892D01*
X160747346Y-95168892D02*
X160794965Y-95264130D01*
X160794965Y-95264130D02*
X160842584Y-95311749D01*
X160842584Y-95311749D02*
X160937822Y-95359368D01*
X160937822Y-95359368D02*
X161128298Y-95406987D01*
X161128298Y-95406987D02*
X161366393Y-95406987D01*
X161366393Y-95406987D02*
X161556869Y-95359368D01*
X161556869Y-95359368D02*
X161652107Y-95311749D01*
X161652107Y-95311749D02*
X161699727Y-95264130D01*
X161699727Y-95264130D02*
X161747346Y-95168892D01*
X161747346Y-95168892D02*
X161747346Y-95073654D01*
X161747346Y-95073654D02*
X161699727Y-94978416D01*
X161699727Y-94978416D02*
X161652107Y-94930797D01*
X161652107Y-94930797D02*
X161556869Y-94883178D01*
X161556869Y-94883178D02*
X161366393Y-94835559D01*
X161366393Y-94835559D02*
X161128298Y-94835559D01*
X161128298Y-94835559D02*
X160937822Y-94883178D01*
X160937822Y-94883178D02*
X160842584Y-94930797D01*
X160842584Y-94930797D02*
X160794965Y-94978416D01*
X160794965Y-94978416D02*
X160747346Y-95073654D01*
X115277150Y-104942472D02*
X115277150Y-103942472D01*
X115277150Y-103942472D02*
X114943817Y-104656757D01*
X114943817Y-104656757D02*
X114610484Y-103942472D01*
X114610484Y-103942472D02*
X114610484Y-104942472D01*
X113991436Y-104371043D02*
X114086674Y-104323424D01*
X114086674Y-104323424D02*
X114134293Y-104275805D01*
X114134293Y-104275805D02*
X114181912Y-104180567D01*
X114181912Y-104180567D02*
X114181912Y-104132948D01*
X114181912Y-104132948D02*
X114134293Y-104037710D01*
X114134293Y-104037710D02*
X114086674Y-103990091D01*
X114086674Y-103990091D02*
X113991436Y-103942472D01*
X113991436Y-103942472D02*
X113800960Y-103942472D01*
X113800960Y-103942472D02*
X113705722Y-103990091D01*
X113705722Y-103990091D02*
X113658103Y-104037710D01*
X113658103Y-104037710D02*
X113610484Y-104132948D01*
X113610484Y-104132948D02*
X113610484Y-104180567D01*
X113610484Y-104180567D02*
X113658103Y-104275805D01*
X113658103Y-104275805D02*
X113705722Y-104323424D01*
X113705722Y-104323424D02*
X113800960Y-104371043D01*
X113800960Y-104371043D02*
X113991436Y-104371043D01*
X113991436Y-104371043D02*
X114086674Y-104418662D01*
X114086674Y-104418662D02*
X114134293Y-104466281D01*
X114134293Y-104466281D02*
X114181912Y-104561519D01*
X114181912Y-104561519D02*
X114181912Y-104751995D01*
X114181912Y-104751995D02*
X114134293Y-104847233D01*
X114134293Y-104847233D02*
X114086674Y-104894853D01*
X114086674Y-104894853D02*
X113991436Y-104942472D01*
X113991436Y-104942472D02*
X113800960Y-104942472D01*
X113800960Y-104942472D02*
X113705722Y-104894853D01*
X113705722Y-104894853D02*
X113658103Y-104847233D01*
X113658103Y-104847233D02*
X113610484Y-104751995D01*
X113610484Y-104751995D02*
X113610484Y-104561519D01*
X113610484Y-104561519D02*
X113658103Y-104466281D01*
X113658103Y-104466281D02*
X113705722Y-104418662D01*
X113705722Y-104418662D02*
X113800960Y-104371043D01*
%TO.C,J19*%
X153672527Y-120743653D02*
X156212527Y-120743653D01*
X156212527Y-120743653D02*
X156212527Y-115663653D01*
X153672527Y-115663653D02*
X153672527Y-120743653D01*
X156212527Y-115663653D02*
X153672527Y-115663653D01*
%TO.C,J6*%
X151132527Y-115663653D02*
X151132527Y-118203653D01*
X151132527Y-118203653D02*
X153672527Y-118203653D01*
X153672527Y-115663653D02*
X151132527Y-115663653D01*
X153672527Y-118203653D02*
X153672527Y-115663653D01*
%TO.C,J4*%
X148592527Y-115663653D02*
X148592527Y-118203653D01*
X148592527Y-118203653D02*
X151132527Y-118203653D01*
X151132527Y-115663653D02*
X148592527Y-115663653D01*
X151132527Y-118203653D02*
X151132527Y-115663653D01*
%TO.C,J7*%
X151132527Y-118203653D02*
X151132527Y-120743653D01*
X151132527Y-120743653D02*
X153672527Y-120743653D01*
X153672527Y-118203653D02*
X151132527Y-118203653D01*
X153672527Y-120743653D02*
X153672527Y-118203653D01*
%TO.C,J3*%
X163832527Y-120743653D02*
X163832527Y-115663653D01*
X163832527Y-115663653D02*
X161292527Y-115663653D01*
X161292527Y-120743653D02*
X163832527Y-120743653D01*
X161292527Y-115663653D02*
X161292527Y-120743653D01*
%TO.C,J2*%
X158752527Y-120743653D02*
X158752527Y-115663653D01*
X158752527Y-115663653D02*
X156212527Y-115663653D01*
X156212527Y-120743653D02*
X158752527Y-120743653D01*
X156212527Y-115663653D02*
X156212527Y-120743653D01*
D12*
%TO.C,M10*%
X136630527Y-114287654D02*
X135030527Y-114287654D01*
X142630527Y-114287654D02*
X141030527Y-114287654D01*
X148630527Y-114287654D02*
X147030527Y-114287654D01*
X154630527Y-114287654D02*
X153030527Y-114287654D01*
X160630527Y-114287654D02*
X159030527Y-114287654D01*
X131680527Y-110937654D02*
X131680527Y-109337654D01*
X163980527Y-110937654D02*
X163980527Y-109337654D01*
X131680527Y-104937654D02*
X131680527Y-103337654D01*
X163980527Y-104937654D02*
X163980527Y-103337654D01*
X131680527Y-98937654D02*
X131680527Y-97337654D01*
X163980527Y-98937654D02*
X163980527Y-97337654D01*
X131680527Y-92937654D02*
X131680527Y-91337654D01*
X163980527Y-92937654D02*
X163980527Y-91337654D01*
X131680527Y-86937654D02*
X131680527Y-85337654D01*
X163980527Y-86937654D02*
X163980527Y-85337654D01*
X136630527Y-81987654D02*
X135030527Y-81987654D01*
X142630527Y-81987654D02*
X141030527Y-81987654D01*
X148630527Y-81987654D02*
X147030527Y-81987654D01*
X154630527Y-81987654D02*
X153030527Y-81987654D01*
X160630527Y-81987654D02*
X159030527Y-81987654D01*
%TO.C,M8*%
X98317627Y-93046353D02*
X98317627Y-91446353D01*
X98317627Y-99046353D02*
X98317627Y-97446353D01*
X98317627Y-105046353D02*
X98317627Y-103446353D01*
X98317627Y-111046353D02*
X98317627Y-109446353D01*
X98317627Y-117046353D02*
X98317627Y-115446353D01*
X101667627Y-88096353D02*
X103267627Y-88096353D01*
X101667627Y-120396353D02*
X103267627Y-120396353D01*
X107667627Y-88096353D02*
X109267627Y-88096353D01*
X107667627Y-120396353D02*
X109267627Y-120396353D01*
X113667627Y-88096353D02*
X115267627Y-88096353D01*
X113667627Y-120396353D02*
X115267627Y-120396353D01*
X119667627Y-88096353D02*
X121267627Y-88096353D01*
X119667627Y-120396353D02*
X121267627Y-120396353D01*
X125667627Y-88096353D02*
X127267627Y-88096353D01*
X125667627Y-120396353D02*
X127267627Y-120396353D01*
X130617627Y-93046353D02*
X130617627Y-91446353D01*
X130617627Y-99046353D02*
X130617627Y-97446353D01*
X130617627Y-105046353D02*
X130617627Y-103446353D01*
X130617627Y-111046353D02*
X130617627Y-109446353D01*
X130617627Y-117046353D02*
X130617627Y-115446353D01*
D11*
%TO.C,J5*%
X148592527Y-118203653D02*
X148592527Y-120743653D01*
X148592527Y-120743653D02*
X151132527Y-120743653D01*
X151132527Y-118203653D02*
X148592527Y-118203653D01*
X151132527Y-120743653D02*
X151132527Y-118203653D01*
%TO.C,J1*%
X158752527Y-115663653D02*
X158752527Y-120743653D01*
X158752527Y-120743653D02*
X161292527Y-120743653D01*
X161292527Y-115663653D02*
X158752527Y-115663653D01*
X161292527Y-120743653D02*
X161292527Y-115663653D01*
%TD*%
D13*
%TO.C,J19*%
X154942527Y-119473653D03*
X154942527Y-116933653D03*
%TD*%
%TO.C,J6*%
X152402527Y-116933653D03*
%TD*%
%TO.C,J4*%
X149862527Y-116933653D03*
%TD*%
%TO.C,J7*%
X152402527Y-119473653D03*
%TD*%
%TO.C,J3*%
X162562527Y-116933653D03*
X162562527Y-119473653D03*
%TD*%
%TO.C,J2*%
X157482527Y-116933653D03*
X157482527Y-119473653D03*
%TD*%
%TO.C,J5*%
X149862527Y-119473653D03*
%TD*%
%TO.C,J1*%
X160022527Y-119473653D03*
X160022527Y-116933653D03*
%TD*%
M02*
