%TF.GenerationSoftware,KiCad,Pcbnew,7.0.10-7.0.10~ubuntu23.04.1*%
%TF.CreationDate,2024-02-09T20:40:25+00:00*%
%TF.ProjectId,SPACEDOS01,53504143-4544-44f5-9330-312e6b696361,B*%
%TF.SameCoordinates,Original*%
%TF.FileFunction,Paste,Bot*%
%TF.FilePolarity,Positive*%
%FSLAX46Y46*%
G04 Gerber Fmt 4.6, Leading zero omitted, Abs format (unit mm)*
G04 Created by KiCad (PCBNEW 7.0.10-7.0.10~ubuntu23.04.1) date 2024-02-09 20:40:25*
%MOMM*%
%LPD*%
G01*
G04 APERTURE LIST*
%ADD10R,1.000000X1.000000*%
%ADD11R,2.300000X1.000000*%
%ADD12R,3.800000X1.000000*%
%ADD13R,1.000000X2.300000*%
%ADD14R,1.000000X3.800000*%
G04 APERTURE END LIST*
D10*
%TO.C,M10*%
X131930527Y-114037654D03*
D11*
X133580527Y-114037654D03*
D12*
X138830527Y-114037654D03*
X144830527Y-114037654D03*
X150830527Y-114037654D03*
X156830527Y-114037654D03*
D11*
X162080527Y-114037654D03*
D10*
X163730527Y-114037654D03*
D13*
X131930527Y-112387654D03*
X163730527Y-112387654D03*
D14*
X131930527Y-107137654D03*
X163730527Y-107137654D03*
X131930527Y-101137654D03*
X163730527Y-101137654D03*
X131930527Y-95137654D03*
X163730527Y-95137654D03*
X131930527Y-89137654D03*
X163730527Y-89137654D03*
D13*
X131930527Y-83887654D03*
X163730527Y-83887654D03*
D10*
X131930527Y-82237654D03*
D11*
X133580527Y-82237654D03*
D12*
X138830527Y-82237654D03*
X144830527Y-82237654D03*
X150830527Y-82237654D03*
X156830527Y-82237654D03*
D11*
X162080527Y-82237654D03*
D10*
X163730527Y-82237654D03*
%TD*%
%TO.C,M8*%
X98567627Y-88346353D03*
D13*
X98567627Y-89996353D03*
D14*
X98567627Y-95246353D03*
X98567627Y-101246353D03*
X98567627Y-107246353D03*
X98567627Y-113246353D03*
D13*
X98567627Y-118496353D03*
D10*
X98567627Y-120146353D03*
D11*
X100217627Y-88346353D03*
X100217627Y-120146353D03*
D12*
X105467627Y-88346353D03*
X105467627Y-120146353D03*
X111467627Y-88346353D03*
X111467627Y-120146353D03*
X117467627Y-88346353D03*
X117467627Y-120146353D03*
X123467627Y-88346353D03*
X123467627Y-120146353D03*
D11*
X128717627Y-88346353D03*
X128717627Y-120146353D03*
D10*
X130367627Y-88346353D03*
D13*
X130367627Y-89996353D03*
D14*
X130367627Y-95246353D03*
X130367627Y-101246353D03*
X130367627Y-107246353D03*
X130367627Y-113246353D03*
D13*
X130367627Y-118496353D03*
D10*
X130367627Y-120146353D03*
%TD*%
M02*
