M48
; DRILL file {KiCad 7.0.10-7.0.10~ubuntu23.04.1} date Fri Feb  9 23:09:11 2024
; FORMAT={-:-/ absolute / metric / decimal}
; #@! TF.CreationDate,2024-02-09T23:09:11+00:00
; #@! TF.GenerationSoftware,Kicad,Pcbnew,7.0.10-7.0.10~ubuntu23.04.1
; #@! TF.FileFunction,Plated,1,2,PTH
FMAT,2
METRIC
; #@! TA.AperFunction,Plated,PTH,ViaDrill
T1C0.400
; #@! TA.AperFunction,Plated,PTH,ComponentDrill
T2C0.762
; #@! TA.AperFunction,Plated,PTH,ComponentDrill
T3C0.889
; #@! TA.AperFunction,Plated,PTH,ComponentDrill
T4C3.000
%
G90
G05
T1
X99.736Y-99.801
X99.736Y-101.071
X99.736Y-102.976
X99.736Y-104.881
X99.736Y-106.786
X99.736Y-110.596
X99.736Y-108.691
X99.736Y-111.866
X100.371Y-98.531
X101.26Y-113.39
X101.641Y-97.261
X102.182Y-104.494
X102.182Y-105.764
X102.276Y-114.406
X102.911Y-96.626
X102.911Y-111.472
X103.292Y-115.422
X104.308Y-116.438
X104.816Y-96.626
X104.935Y-111.722
X104.935Y-113.222
X105.185Y-110.472
X105.685Y-114.472
X105.832Y-117.454
X106.086Y-95.991
X106.5Y-100.938
X107.356Y-117.454
X107.515Y-109.047
X107.516Y-104.621
X107.516Y-106.526
X107.516Y-107.796
X107.864Y-100.811
X107.953Y-111.854
X107.991Y-95.991
X107.991Y-110.596
X108.88Y-117.454
X108.935Y-111.722
X108.935Y-112.972
X108.935Y-114.722
X109.421Y-100.811
X109.421Y-110.336
X109.896Y-95.991
X110.056Y-102.716
X110.404Y-117.454
X111.166Y-95.991
X111.42Y-116.438
X111.509Y-115.41
X111.928Y-101.198
X112.436Y-94.721
X112.685Y-115.972
X113.185Y-112.472
X113.706Y-116.311
X113.706Y-117.581
X114.341Y-94.721
X114.976Y-97.896
X114.976Y-99.166
X114.976Y-100.222
X115.611Y-94.721
X116.246Y-99.166
X116.246Y-100.222
X116.881Y-95.356
X117.435Y-100.222
X118.151Y-96.626
X118.151Y-109.326
X118.786Y-100.436
X118.786Y-101.706
X118.786Y-103.738
X119.421Y-97.261
X119.421Y-109.326
X120.056Y-101.706
X120.056Y-103.738
X120.056Y-100.436
X120.564Y-108.818
X120.691Y-97.261
X121.326Y-100.436
X121.961Y-97.261
X121.961Y-110.85
X122.596Y-100.436
X123.231Y-109.834
X123.231Y-97.261
X123.231Y-112.501
X123.231Y-114.406
X123.866Y-92.816
X123.866Y-100.436
X124.435Y-113.472
X124.501Y-96.626
X124.501Y-109.326
X124.501Y-110.596
X124.501Y-115.041
X125.136Y-94.086
X125.136Y-95.356
X125.136Y-111.866
X125.479Y-92.55
X125.771Y-113.136
X125.771Y-115.041
X126.058Y-98.906
X126.058Y-111.352
X127.003Y-92.296
X127.041Y-114.406
X127.168Y-100.69
X127.257Y-108.298
X127.836Y-109.066
X127.963Y-107.669
X128.311Y-101.071
X128.311Y-114.406
X128.527Y-92.296
X128.692Y-104.373
X129.106Y-109.066
X129.581Y-100.436
X129.581Y-114.406
X129.708Y-96.118
X130.216Y-92.562
X130.414Y-106.526
X130.624Y-107.548
X130.63Y-103.478
X130.851Y-98.531
X130.851Y-114.406
X131.232Y-96.118
X131.486Y-97.261
X131.486Y-91.038
X131.486Y-101.071
X131.646Y-108.266
X132.121Y-114.406
X133.01Y-91.038
X133.391Y-115.041
X133.391Y-116.311
X133.607Y-92.804
X133.607Y-93.82
X133.607Y-105.504
X134.534Y-91.038
X134.661Y-94.721
X134.661Y-116.946
X134.821Y-100.811
X135.945Y-116.412
X135.964Y-104.748
X135.989Y-112.927
X136.091Y-100.811
X136.091Y-109.066
X136.312Y-91.038
X136.726Y-108.431
X137.201Y-116.311
X137.836Y-91.038
X138.032Y-114.095
X138.09Y-110.342
X138.09Y-111.358
X138.09Y-112.882
X138.852Y-109.326
X139.901Y-101.706
X140.122Y-109.326
X140.376Y-110.596
X140.884Y-108.31
X149.139Y-100.563
X149.355Y-110.761
X151.2Y-110.905
X151.933Y-104.627
X152.08Y-111.848
X153.076Y-102.214
X153.571Y-100.614
X154.435Y-112.87
X154.718Y-111.37
X155.616Y-100.69
X155.673Y-112.267
X157.648Y-102.214
X157.685Y-109.722
X158.185Y-107.972
X159.172Y-102.722
X159.265Y-105.508
X159.685Y-109.222
X160.785Y-105.25
X161.039Y-91.28
X161.801Y-110.076
X162.309Y-91.28
X162.309Y-96.868
X163.071Y-98.138
X163.325Y-93.058
X163.325Y-94.328
X163.325Y-95.598
X163.325Y-110.33
X163.685Y-104.472
X165.185Y-114.472
X166.435Y-114.472
X168.677Y-97.82
X170.435Y-116.722
X171.453Y-99.662
X172.469Y-92.804
X172.469Y-94.074
X172.685Y-102.722
X172.723Y-99.662
T2
X107.525Y-114.222
X112.525Y-114.222
T3
X149.863Y-116.934
X149.863Y-119.474
X152.403Y-116.934
X152.403Y-119.474
X154.943Y-116.934
X154.943Y-119.474
X157.483Y-116.934
X157.483Y-119.474
X160.023Y-116.934
X160.023Y-119.474
X162.563Y-116.934
X162.563Y-119.474
T4
X96.015Y-125.062
X113.935Y-84.422
X168.825Y-84.422
X181.745Y-122.522
M30
