%TF.GenerationSoftware,KiCad,Pcbnew,7.0.10-7.0.10~ubuntu23.04.1*%
%TF.CreationDate,2024-02-09T20:40:25+00:00*%
%TF.ProjectId,SPACEDOS01,53504143-4544-44f5-9330-312e6b696361,B*%
%TF.SameCoordinates,Original*%
%TF.FileFunction,Copper,L2,Bot*%
%TF.FilePolarity,Positive*%
%FSLAX46Y46*%
G04 Gerber Fmt 4.6, Leading zero omitted, Abs format (unit mm)*
G04 Created by KiCad (PCBNEW 7.0.10-7.0.10~ubuntu23.04.1) date 2024-02-09 20:40:25*
%MOMM*%
%LPD*%
G01*
G04 APERTURE LIST*
%TA.AperFunction,ComponentPad*%
%ADD10C,6.000000*%
%TD*%
%TA.AperFunction,ComponentPad*%
%ADD11C,1.524000*%
%TD*%
%TA.AperFunction,ComponentPad*%
%ADD12R,1.524000X1.524000*%
%TD*%
%TA.AperFunction,SMDPad,CuDef*%
%ADD13R,1.000000X1.000000*%
%TD*%
%TA.AperFunction,SMDPad,CuDef*%
%ADD14R,2.300000X1.000000*%
%TD*%
%TA.AperFunction,SMDPad,CuDef*%
%ADD15R,3.800000X1.000000*%
%TD*%
%TA.AperFunction,SMDPad,CuDef*%
%ADD16R,1.000000X2.300000*%
%TD*%
%TA.AperFunction,SMDPad,CuDef*%
%ADD17R,1.000000X3.800000*%
%TD*%
%TA.AperFunction,ViaPad*%
%ADD18C,0.800000*%
%TD*%
%TA.AperFunction,Conductor*%
%ADD19C,0.250000*%
%TD*%
%TA.AperFunction,Conductor*%
%ADD20C,0.400000*%
%TD*%
%TA.AperFunction,Conductor*%
%ADD21C,0.300000*%
%TD*%
%TA.AperFunction,Conductor*%
%ADD22C,0.800000*%
%TD*%
%TA.AperFunction,Conductor*%
%ADD23C,0.600000*%
%TD*%
G04 APERTURE END LIST*
D10*
%TO.P,M4,1*%
%TO.N,GND*%
X113934528Y-84421653D03*
%TD*%
%TO.P,M2,1*%
%TO.N,GND*%
X168824527Y-84421653D03*
%TD*%
%TO.P,M1,1*%
%TO.N,GND*%
X181744527Y-122521653D03*
%TD*%
%TO.P,M3,1*%
%TO.N,GND*%
X96014527Y-125061654D03*
%TD*%
D11*
%TO.P,D1,1*%
%TO.N,/K*%
X112524527Y-114221653D03*
%TO.P,D1,2*%
%TO.N,/A*%
X107524527Y-114221653D03*
%TD*%
D12*
%TO.P,J19,1*%
%TO.N,/cpu/RST#*%
X154942527Y-119473653D03*
%TO.P,J19,2*%
X154942527Y-116933653D03*
%TD*%
%TO.P,J6,1*%
%TO.N,/cpu/RX0*%
X152402527Y-116933653D03*
%TD*%
%TO.P,J4,1*%
%TO.N,/cpu/PD3*%
X149862527Y-116933653D03*
%TD*%
%TO.P,J7,1*%
%TO.N,/cpu/TX0*%
X152402527Y-119473653D03*
%TD*%
%TO.P,J3,1*%
%TO.N,/power/3*%
X162562527Y-116933653D03*
%TO.P,J3,2*%
X162562527Y-119473653D03*
%TD*%
%TO.P,J2,1*%
%TO.N,GND*%
X157482527Y-116933653D03*
%TO.P,J2,2*%
X157482527Y-119473653D03*
%TD*%
D13*
%TO.P,M10,1*%
%TO.N,GND*%
X131930527Y-114037654D03*
D14*
X133580527Y-114037654D03*
D15*
X138830527Y-114037654D03*
X144830527Y-114037654D03*
X150830527Y-114037654D03*
X156830527Y-114037654D03*
D14*
X162080527Y-114037654D03*
D13*
X163730527Y-114037654D03*
D16*
X131930527Y-112387654D03*
X163730527Y-112387654D03*
D17*
X131930527Y-107137654D03*
X163730527Y-107137654D03*
X131930527Y-101137654D03*
X163730527Y-101137654D03*
X131930527Y-95137654D03*
X163730527Y-95137654D03*
X131930527Y-89137654D03*
X163730527Y-89137654D03*
D16*
X131930527Y-83887654D03*
X163730527Y-83887654D03*
D13*
X131930527Y-82237654D03*
D14*
X133580527Y-82237654D03*
D15*
X138830527Y-82237654D03*
X144830527Y-82237654D03*
X150830527Y-82237654D03*
X156830527Y-82237654D03*
D14*
X162080527Y-82237654D03*
D13*
X163730527Y-82237654D03*
%TD*%
%TO.P,M8,1*%
%TO.N,GND*%
X98567627Y-88346353D03*
D16*
X98567627Y-89996353D03*
D17*
X98567627Y-95246353D03*
X98567627Y-101246353D03*
X98567627Y-107246353D03*
X98567627Y-113246353D03*
D16*
X98567627Y-118496353D03*
D13*
X98567627Y-120146353D03*
D14*
X100217627Y-88346353D03*
X100217627Y-120146353D03*
D15*
X105467627Y-88346353D03*
X105467627Y-120146353D03*
X111467627Y-88346353D03*
X111467627Y-120146353D03*
X117467627Y-88346353D03*
X117467627Y-120146353D03*
X123467627Y-88346353D03*
X123467627Y-120146353D03*
D14*
X128717627Y-88346353D03*
X128717627Y-120146353D03*
D13*
X130367627Y-88346353D03*
D16*
X130367627Y-89996353D03*
D17*
X130367627Y-95246353D03*
X130367627Y-101246353D03*
X130367627Y-107246353D03*
X130367627Y-113246353D03*
D16*
X130367627Y-118496353D03*
D13*
X130367627Y-120146353D03*
%TD*%
D12*
%TO.P,J5,1*%
%TO.N,/cpu/PD2*%
X149862527Y-119473653D03*
%TD*%
%TO.P,J1,1*%
%TO.N,N/C*%
X160022527Y-119473653D03*
%TO.P,J1,2*%
X160022527Y-116933653D03*
%TD*%
D18*
%TO.N,GND*%
X153570736Y-100614352D03*
X135945050Y-116412314D03*
X138031934Y-114094660D03*
X157647627Y-102214353D03*
X123230627Y-112501353D03*
X107355627Y-117454353D03*
X105831627Y-117454353D03*
X104307627Y-116438353D03*
X103291627Y-115422353D03*
X151932627Y-104627353D03*
X125770627Y-113136353D03*
X124500627Y-110596353D03*
X112684527Y-115971653D03*
X140883627Y-108310353D03*
X125770628Y-115041353D03*
X138089627Y-111358353D03*
X119420627Y-109326353D03*
X113705627Y-117581353D03*
X138089627Y-110342353D03*
X134660627Y-116946352D03*
X124500627Y-115041353D03*
X120563627Y-108818353D03*
X127040627Y-114406353D03*
X113705627Y-116311353D03*
X111419627Y-116438353D03*
X133390627Y-116311353D03*
X133390627Y-115041353D03*
X110403627Y-117454353D03*
X124500627Y-109326353D03*
X123230626Y-109834353D03*
X155615627Y-100690353D03*
X140121627Y-109326353D03*
X129580627Y-114406353D03*
X137200628Y-116311353D03*
X130850627Y-114406353D03*
X128310627Y-114406353D03*
X123230627Y-114406353D03*
X138851627Y-109326353D03*
X138089628Y-112882353D03*
X125135627Y-111866353D03*
X121960627Y-110850353D03*
X118150627Y-109326353D03*
X132120627Y-114406353D03*
X108879627Y-117454353D03*
X131485626Y-97261353D03*
X117434527Y-100221653D03*
X107990627Y-110596353D03*
X107952527Y-111853653D03*
X104934527Y-111721654D03*
X102910628Y-111471653D03*
X99735627Y-110596353D03*
X127167627Y-100690353D03*
X99735628Y-108691353D03*
X120055627Y-100436353D03*
X129580627Y-100436353D03*
X108934527Y-112971653D03*
X99735627Y-99801353D03*
X108934527Y-114721653D03*
X120055626Y-103738353D03*
X111508527Y-115409652D03*
X99735627Y-102976353D03*
X113184527Y-112471653D03*
X99735627Y-101071353D03*
X107990627Y-95991353D03*
X102275627Y-114406353D03*
X108934527Y-111721653D03*
X104815627Y-96626354D03*
X99735628Y-111866353D03*
X99735627Y-106786353D03*
X100370626Y-98531353D03*
X101640627Y-97261352D03*
X130850627Y-98531353D03*
X131231627Y-96118353D03*
X128310627Y-101071353D03*
X118785627Y-103738353D03*
X131485627Y-101071353D03*
X120055626Y-101706353D03*
X118785627Y-100436353D03*
X118785627Y-101706353D03*
X123865627Y-100436353D03*
X116245627Y-99166353D03*
X122595627Y-100436353D03*
X121325627Y-100436352D03*
X105684527Y-114471653D03*
X105184527Y-110471653D03*
X99735627Y-104881354D03*
X102910627Y-96626353D03*
X129707627Y-96118352D03*
X106085627Y-95991353D03*
X104934527Y-113221653D03*
X116880627Y-95356353D03*
X125135627Y-95356353D03*
X123230627Y-97261353D03*
X118150627Y-96626354D03*
X136311627Y-91038353D03*
X125135627Y-94086353D03*
X127962627Y-107669353D03*
X131485627Y-91038353D03*
X119420627Y-97261353D03*
X125478527Y-92549653D03*
X135963627Y-104748353D03*
X123865627Y-92816353D03*
X133009628Y-91038353D03*
X136090627Y-100811353D03*
X128526527Y-92295653D03*
X102181627Y-104494353D03*
X129105627Y-109066353D03*
X116245627Y-100221653D03*
X134533626Y-91038353D03*
X114975627Y-100221654D03*
X114975627Y-97896353D03*
X130413627Y-106526353D03*
X111165627Y-95991353D03*
X106499627Y-100938353D03*
X134820628Y-100811353D03*
X136725627Y-108431353D03*
X130623813Y-107548167D03*
X124500627Y-96626354D03*
X130629627Y-103478353D03*
X121960627Y-97261353D03*
X115610627Y-94721353D03*
X114975627Y-99166353D03*
X109895627Y-95991353D03*
X112435627Y-94721353D03*
X131645627Y-108266354D03*
X114340627Y-94721353D03*
X120690627Y-97261353D03*
X136090628Y-109066353D03*
X137835627Y-91038353D03*
X127002527Y-92295653D03*
X130215627Y-92562353D03*
X127835627Y-109066353D03*
X102181627Y-105764353D03*
X107515084Y-109046918D03*
X109420627Y-110336353D03*
X134660627Y-94721353D03*
X107515627Y-104621353D03*
X101259627Y-113390353D03*
X107515627Y-107796353D03*
X107515627Y-106526353D03*
X107863627Y-100811353D03*
X109420627Y-100811353D03*
X111927627Y-101198353D03*
X110055627Y-102716352D03*
X124434527Y-113471653D03*
X163684527Y-104471653D03*
X165184527Y-114471653D03*
X171452527Y-99661653D03*
X163324527Y-94327653D03*
X166434527Y-114471653D03*
X172468527Y-92803653D03*
X168677365Y-97820153D03*
X163324527Y-93057654D03*
X127256528Y-108297653D03*
X163324527Y-95597653D03*
X172722527Y-99661653D03*
X172684527Y-102721653D03*
X157684527Y-109721653D03*
X158184527Y-107971653D03*
X170434527Y-116721653D03*
X172468527Y-94073654D03*
X159684527Y-109221653D03*
%TO.N,Net-(R1-Pad2)*%
X135988730Y-112927085D03*
X133606527Y-105503653D03*
%TO.N,/cpu/RST#*%
X149354527Y-110761353D03*
X154434527Y-112869653D03*
%TO.N,/cpu/PC0*%
X161800527Y-110075653D03*
X162308527Y-96867653D03*
%TO.N,/cpu/PC1*%
X163324527Y-110329653D03*
X163070526Y-98137655D03*
%TO.N,/cpu/PB6*%
X153075627Y-102214353D03*
X149138627Y-100563353D03*
%TO.N,+3V3*%
X126057627Y-111352353D03*
X126057627Y-98906353D03*
X133606527Y-92803653D03*
X161038527Y-91279653D03*
X133606527Y-93819653D03*
X162308527Y-91279653D03*
%TO.N,PA1*%
X128691627Y-104373353D03*
X160784527Y-105249653D03*
%TO.N,PA0*%
X140375627Y-110596353D03*
X159265113Y-105508239D03*
%TO.N,PB0*%
X159171627Y-102722353D03*
X139900627Y-101706354D03*
%TO.N,/cpu/PD3*%
X155673352Y-112266745D03*
X152080174Y-111847686D03*
%TO.N,/cpu/PD2*%
X151199832Y-110904958D03*
X154717866Y-111369642D03*
%TD*%
D19*
%TO.N,GND*%
X130629627Y-102208353D02*
X130883627Y-101954353D01*
X130629627Y-103478353D02*
X130629627Y-102208353D01*
X102181627Y-104494353D02*
X102181627Y-105764353D01*
D20*
X129105627Y-109066353D02*
X127835627Y-109066353D01*
X131645627Y-108266354D02*
X131645627Y-107758353D01*
X136725627Y-105510353D02*
X135963627Y-104748353D01*
D19*
X109420627Y-100811353D02*
X111325627Y-100811353D01*
X110690627Y-110336353D02*
X109401192Y-109046918D01*
X109401192Y-109046918D02*
X107515084Y-109046918D01*
D20*
X136725627Y-108431353D02*
X136725627Y-105510353D01*
X131645627Y-107758353D02*
X130413627Y-106526353D01*
X131341999Y-108266353D02*
X130623813Y-107548167D01*
D19*
X107515627Y-107796353D02*
X107515627Y-106526353D01*
D20*
X136090627Y-100811353D02*
X134820628Y-100811353D01*
X131645627Y-108266354D02*
X131341999Y-108266353D01*
D19*
X127334328Y-108297653D02*
X127256528Y-108297653D01*
X127962627Y-107669353D02*
X127334328Y-108297653D01*
D20*
%TO.N,Net-(R1-Pad2)*%
X135588731Y-112527086D02*
X135988730Y-112927085D01*
X133606527Y-105503653D02*
X133606527Y-110544882D01*
X133606527Y-110544882D02*
X135588731Y-112527086D01*
D21*
%TO.N,/cpu/RST#*%
X153868842Y-112869653D02*
X154434527Y-112869653D01*
X149354527Y-110761353D02*
X151462827Y-112869653D01*
X151462827Y-112869653D02*
X153868842Y-112869653D01*
%TO.N,/cpu/PC0*%
X161800527Y-110075653D02*
X161800527Y-97375653D01*
X161800527Y-97375653D02*
X162308527Y-96867653D01*
%TO.N,/cpu/PC1*%
X162300537Y-109305663D02*
X163324527Y-110329653D01*
X163070526Y-98137655D02*
X162300537Y-98907645D01*
X162300537Y-98907645D02*
X162300537Y-109305663D01*
D20*
%TO.N,/cpu/PB6*%
X149138627Y-100563353D02*
X151424627Y-100563353D01*
X151424627Y-100563353D02*
X152675628Y-101814354D01*
X152675628Y-101814354D02*
X153075627Y-102214353D01*
D22*
%TO.N,+3V3*%
X126057627Y-111352353D02*
X126057627Y-98906353D01*
X161038527Y-91279653D02*
X159260527Y-91279653D01*
X159260527Y-91279653D02*
X157736527Y-92803653D01*
X157736527Y-92803653D02*
X133606527Y-92803653D01*
X161038527Y-91279653D02*
X162308527Y-91279653D01*
D23*
X133606527Y-92803653D02*
X133606527Y-93819653D01*
D20*
%TO.N,PA1*%
X131464630Y-103827352D02*
X159362226Y-103827352D01*
X130918629Y-104373353D02*
X131464630Y-103827352D01*
X128691627Y-104373353D02*
X130918629Y-104373353D01*
X159362226Y-103827352D02*
X160384528Y-104849654D01*
X160384528Y-104849654D02*
X160784527Y-105249653D01*
%TO.N,PA0*%
X141188329Y-109783651D02*
X151348525Y-109783651D01*
X140375627Y-110596353D02*
X141188329Y-109783651D01*
X159265113Y-105508239D02*
X154989701Y-109783651D01*
X154989701Y-109783651D02*
X151348525Y-109783651D01*
%TO.N,PB0*%
X141332617Y-103138343D02*
X139900627Y-101706354D01*
X159171627Y-102722353D02*
X158755637Y-103138343D01*
X158755637Y-103138343D02*
X141332617Y-103138343D01*
D21*
%TO.N,/cpu/PD3*%
X152645859Y-111847686D02*
X152917825Y-112119652D01*
X152917825Y-112119652D02*
X155526259Y-112119652D01*
X152080174Y-111847686D02*
X152645859Y-111847686D01*
X155526259Y-112119652D02*
X155673352Y-112266745D01*
%TO.N,/cpu/PD2*%
X154253181Y-110904958D02*
X154317867Y-110969643D01*
X151199832Y-110904958D02*
X154253181Y-110904958D01*
X154317867Y-110969643D02*
X154717866Y-111369642D01*
%TD*%
%TA.AperFunction,Conductor*%
%TO.N,GND*%
G36*
X185857540Y-123361322D02*
G01*
X185857540Y-123364273D01*
X185855142Y-123371653D01*
X185857540Y-123379033D01*
X185857540Y-123386795D01*
X185857234Y-123386796D01*
X185857760Y-123390998D01*
X185848289Y-123535482D01*
X185842773Y-123619651D01*
X185841936Y-123626001D01*
X185794078Y-123866597D01*
X185792422Y-123872782D01*
X185754430Y-123984702D01*
X185713564Y-124105089D01*
X185711111Y-124111010D01*
X185602613Y-124331023D01*
X185599408Y-124336574D01*
X185463120Y-124540544D01*
X185459218Y-124545629D01*
X185297471Y-124730065D01*
X185292940Y-124734597D01*
X185108503Y-124896344D01*
X185103418Y-124900247D01*
X184899448Y-125036534D01*
X184893897Y-125039739D01*
X184673884Y-125148237D01*
X184667963Y-125150690D01*
X184472858Y-125216920D01*
X184435660Y-125229547D01*
X184429467Y-125231205D01*
X184188879Y-125279062D01*
X184182523Y-125279899D01*
X183953872Y-125294885D01*
X183949669Y-125294360D01*
X183949669Y-125294666D01*
X183941907Y-125294666D01*
X183934527Y-125292268D01*
X183927147Y-125294666D01*
X183924196Y-125294667D01*
X183914808Y-125296153D01*
X176299568Y-125296153D01*
X176755045Y-80887153D01*
X179014809Y-80887153D01*
X179024195Y-80888640D01*
X179027147Y-80888640D01*
X179034527Y-80891038D01*
X179041907Y-80888640D01*
X179049669Y-80888641D01*
X179049669Y-80888946D01*
X179053872Y-80888421D01*
X179282523Y-80903407D01*
X179288878Y-80904244D01*
X179529468Y-80952101D01*
X179535658Y-80953759D01*
X179572858Y-80966386D01*
X179767964Y-81032616D01*
X179773884Y-81035069D01*
X179993897Y-81143567D01*
X179999448Y-81146772D01*
X180203418Y-81283060D01*
X180208503Y-81286962D01*
X180392938Y-81448709D01*
X180397471Y-81453241D01*
X180559218Y-81637677D01*
X180563120Y-81642762D01*
X180699408Y-81846732D01*
X180702613Y-81852283D01*
X180811111Y-82072296D01*
X180813565Y-82078217D01*
X180854430Y-82198605D01*
X180892422Y-82310524D01*
X180894078Y-82316709D01*
X180941936Y-82557305D01*
X180942773Y-82563655D01*
X180948290Y-82647824D01*
X180957758Y-82792308D01*
X180957234Y-82796511D01*
X180957540Y-82796512D01*
X180957540Y-82804273D01*
X180955142Y-82811653D01*
X180957540Y-82819033D01*
X180957540Y-82821984D01*
X180959028Y-82831372D01*
X180959027Y-111951933D01*
X180958544Y-111954983D01*
X180958696Y-111955618D01*
X180959027Y-111956417D01*
X180959027Y-111959696D01*
X180955142Y-111971653D01*
X180954574Y-111971653D01*
X180955266Y-111982214D01*
X180972263Y-112241546D01*
X180972264Y-112241553D01*
X180972368Y-112243141D01*
X180972679Y-112244708D01*
X180972680Y-112244711D01*
X181025132Y-112508401D01*
X181025132Y-112508403D01*
X181025447Y-112509984D01*
X181112901Y-112767617D01*
X181126491Y-112795175D01*
X181232524Y-113010189D01*
X181232527Y-113010193D01*
X181233235Y-113011630D01*
X181234126Y-113012963D01*
X181234128Y-113012967D01*
X181383496Y-113236512D01*
X181383498Y-113236515D01*
X181384388Y-113237848D01*
X181563778Y-113442402D01*
X181768332Y-113621792D01*
X181994551Y-113772946D01*
X182072277Y-113811276D01*
X182237125Y-113892570D01*
X182237127Y-113892571D01*
X182238563Y-113893279D01*
X182496197Y-113980733D01*
X182763040Y-114033812D01*
X183034527Y-114051606D01*
X183034527Y-114051038D01*
X183039227Y-114049511D01*
X183039317Y-114049517D01*
X183046484Y-114048382D01*
X183046484Y-114047153D01*
X183049187Y-114047153D01*
X183050587Y-114047733D01*
X183054247Y-114047153D01*
X183914808Y-114047153D01*
X183924197Y-114048640D01*
X183927147Y-114048640D01*
X183934527Y-114051038D01*
X183941907Y-114048640D01*
X183949669Y-114048640D01*
X183949669Y-114048946D01*
X183953872Y-114048421D01*
X184182523Y-114063407D01*
X184188878Y-114064245D01*
X184429467Y-114112101D01*
X184435660Y-114113759D01*
X184472858Y-114126387D01*
X184667963Y-114192616D01*
X184673884Y-114195069D01*
X184893897Y-114303567D01*
X184899448Y-114306772D01*
X185103418Y-114443059D01*
X185108503Y-114446962D01*
X185292940Y-114608709D01*
X185297471Y-114613241D01*
X185459218Y-114797677D01*
X185463120Y-114802762D01*
X185599408Y-115006732D01*
X185602613Y-115012283D01*
X185711111Y-115232296D01*
X185713564Y-115238217D01*
X185754430Y-115358606D01*
X185792422Y-115470524D01*
X185794078Y-115476709D01*
X185841936Y-115717305D01*
X185842773Y-115723655D01*
X185848289Y-115807824D01*
X185857760Y-115952308D01*
X185857233Y-115956511D01*
X185857540Y-115956511D01*
X185857540Y-115964273D01*
X185855142Y-115971653D01*
X185857540Y-115979033D01*
X185857540Y-115981984D01*
X185859027Y-115991372D01*
X185859027Y-123351934D01*
X185857540Y-123361322D01*
G37*
%TD.AperFunction*%
%TD*%
%TA.AperFunction,Conductor*%
%TO.N,GND*%
G36*
X164738527Y-84851111D02*
G01*
X164738527Y-84151400D01*
X164735672Y-84144508D01*
X164728780Y-84141653D01*
X162732275Y-84141653D01*
X162725383Y-84144508D01*
X162722528Y-84151400D01*
X162722527Y-84868005D01*
X132935064Y-85117620D01*
X132938383Y-85087065D01*
X132938527Y-85084416D01*
X132938526Y-84151400D01*
X132935671Y-84144508D01*
X132928779Y-84141653D01*
X130932275Y-84141654D01*
X130925383Y-84144508D01*
X130922528Y-84151400D01*
X130922528Y-85084410D01*
X130922671Y-85087060D01*
X130927817Y-85134441D01*
X96510027Y-85422858D01*
X96510027Y-82831372D01*
X96511514Y-82821984D01*
X96511513Y-82819033D01*
X96513912Y-82811654D01*
X96511514Y-82804274D01*
X96511514Y-82796511D01*
X96511820Y-82796511D01*
X96511295Y-82792308D01*
X96520765Y-82647824D01*
X96526281Y-82563655D01*
X96527118Y-82557304D01*
X96574976Y-82316709D01*
X96576632Y-82310524D01*
X96614624Y-82198605D01*
X96655490Y-82078217D01*
X96657943Y-82072296D01*
X96766441Y-81852284D01*
X96769646Y-81846732D01*
X96905934Y-81642762D01*
X96909836Y-81637677D01*
X97071583Y-81453241D01*
X97076115Y-81448709D01*
X97260551Y-81286962D01*
X97265636Y-81283060D01*
X97469606Y-81146772D01*
X97475157Y-81143568D01*
X97695171Y-81035069D01*
X97701091Y-81032616D01*
X97821479Y-80991750D01*
X97933398Y-80953758D01*
X97939586Y-80952101D01*
X98180176Y-80904244D01*
X98186531Y-80903407D01*
X98415182Y-80888421D01*
X98419385Y-80888945D01*
X98419385Y-80888640D01*
X98427147Y-80888641D01*
X98434527Y-80891038D01*
X98441906Y-80888640D01*
X98444858Y-80888640D01*
X98454246Y-80887153D01*
X131383771Y-80887153D01*
X131383771Y-81229654D01*
X131381120Y-81229797D01*
X131323374Y-81236069D01*
X131317442Y-81237480D01*
X131187337Y-81286255D01*
X131181268Y-81289577D01*
X131070417Y-81372655D01*
X131065529Y-81377543D01*
X130982451Y-81488394D01*
X130979128Y-81494464D01*
X130930352Y-81624572D01*
X130928942Y-81630499D01*
X130922671Y-81688242D01*
X130922528Y-81690890D01*
X130922527Y-81973906D01*
X130925382Y-81980798D01*
X130932274Y-81983653D01*
X130932275Y-81983653D01*
X130932275Y-82491652D01*
X130925383Y-82494508D01*
X130922528Y-82501400D01*
X130922528Y-82689548D01*
X130922527Y-82689580D01*
X130922527Y-83623906D01*
X130925382Y-83630798D01*
X130932274Y-83633653D01*
X131666780Y-83633653D01*
X131673672Y-83630798D01*
X131676527Y-83623906D01*
X131676527Y-82501400D01*
X131673672Y-82494508D01*
X131666780Y-82491653D01*
X130932275Y-82491652D01*
X130932275Y-81983653D01*
X131666780Y-81983653D01*
X131673672Y-81980798D01*
X131676528Y-81973906D01*
X131676527Y-81239401D01*
X131673672Y-81232509D01*
X131666780Y-81229654D01*
X131383771Y-81229654D01*
X131383771Y-80887153D01*
X132194274Y-80887154D01*
X132194274Y-81229654D01*
X132187382Y-81232508D01*
X132184527Y-81239400D01*
X132184527Y-81973906D01*
X132187382Y-81980798D01*
X132194274Y-81983653D01*
X132194274Y-82491652D01*
X132187382Y-82494508D01*
X132184527Y-82501400D01*
X132184527Y-83623906D01*
X132187382Y-83630798D01*
X132194274Y-83633653D01*
X132928779Y-83633653D01*
X132935671Y-83630798D01*
X132938526Y-83623906D01*
X132938526Y-83294654D01*
X132952878Y-83260005D01*
X132987526Y-83245653D01*
X133316781Y-83245653D01*
X133323672Y-83242798D01*
X133326527Y-83235906D01*
X133326527Y-82501400D01*
X133323672Y-82494508D01*
X133316780Y-82491653D01*
X132194274Y-82491652D01*
X132194274Y-81983653D01*
X133316780Y-81983653D01*
X133323672Y-81980797D01*
X133326527Y-81973906D01*
X133326527Y-81239401D01*
X133323672Y-81232509D01*
X133316780Y-81229654D01*
X132478634Y-81229654D01*
X132478598Y-81229653D01*
X132194274Y-81229654D01*
X132194274Y-80887154D01*
X133844274Y-80887153D01*
X133844274Y-81229653D01*
X133837382Y-81232508D01*
X133834527Y-81239400D01*
X133834527Y-81973906D01*
X133837382Y-81980798D01*
X133844274Y-81983653D01*
X133844274Y-82491653D01*
X133837382Y-82494508D01*
X133834527Y-82501401D01*
X133834527Y-83235906D01*
X133837382Y-83242798D01*
X133844274Y-83245653D01*
X134777283Y-83245652D01*
X134779934Y-83245509D01*
X134837680Y-83239237D01*
X134843611Y-83237826D01*
X134973717Y-83189052D01*
X134979786Y-83185729D01*
X135090637Y-83102651D01*
X135095525Y-83097763D01*
X135178603Y-82986912D01*
X135181926Y-82980843D01*
X135230702Y-82850734D01*
X135232111Y-82844807D01*
X135238384Y-82787064D01*
X135238527Y-82784416D01*
X135238526Y-82501400D01*
X135235672Y-82494508D01*
X135228780Y-82491653D01*
X133844274Y-82491653D01*
X133844274Y-81983653D01*
X135228779Y-81983653D01*
X135235671Y-81980798D01*
X135238526Y-81973906D01*
X135238526Y-81690897D01*
X135238383Y-81688246D01*
X135232111Y-81630500D01*
X135230700Y-81624568D01*
X135181926Y-81494464D01*
X135178603Y-81488394D01*
X135095525Y-81377543D01*
X135090637Y-81372655D01*
X134979786Y-81289577D01*
X134973717Y-81286255D01*
X134843608Y-81237478D01*
X134837681Y-81236068D01*
X134779938Y-81229797D01*
X134777290Y-81229654D01*
X133844274Y-81229653D01*
X133844274Y-80887153D01*
X136883772Y-80887153D01*
X136883771Y-81229654D01*
X136881120Y-81229797D01*
X136823374Y-81236068D01*
X136817442Y-81237480D01*
X136687337Y-81286254D01*
X136681268Y-81289577D01*
X136570417Y-81372655D01*
X136565529Y-81377543D01*
X136482451Y-81488394D01*
X136479128Y-81494463D01*
X136430352Y-81624572D01*
X136428943Y-81630499D01*
X136422671Y-81688242D01*
X136422527Y-81690890D01*
X136422526Y-81973906D01*
X136425382Y-81980798D01*
X136432274Y-81983653D01*
X136432275Y-81983653D01*
X136432275Y-82491653D01*
X136425383Y-82494508D01*
X136422529Y-82501400D01*
X136422528Y-82784410D01*
X136422671Y-82787060D01*
X136428943Y-82844806D01*
X136430354Y-82850738D01*
X136479128Y-82980843D01*
X136482451Y-82986911D01*
X136565529Y-83097763D01*
X136570417Y-83102651D01*
X136681268Y-83185729D01*
X136687337Y-83189052D01*
X136817446Y-83237828D01*
X136823373Y-83239237D01*
X136881116Y-83245509D01*
X136883764Y-83245653D01*
X138566780Y-83245653D01*
X138573672Y-83242799D01*
X138576527Y-83235906D01*
X138576527Y-82501400D01*
X138573672Y-82494508D01*
X138566780Y-82491653D01*
X136432275Y-82491653D01*
X136432275Y-81983653D01*
X138566780Y-81983653D01*
X138573672Y-81980798D01*
X138576526Y-81973906D01*
X138576527Y-81239401D01*
X138573672Y-81232510D01*
X138566780Y-81229654D01*
X136883771Y-81229654D01*
X136883772Y-80887153D01*
X139094274Y-80887153D01*
X139094274Y-81229653D01*
X139087382Y-81232508D01*
X139084527Y-81239400D01*
X139084528Y-81973906D01*
X139087382Y-81980798D01*
X139094274Y-81983653D01*
X139094274Y-82491653D01*
X139087382Y-82494508D01*
X139084527Y-82501400D01*
X139084528Y-83235905D01*
X139087382Y-83242797D01*
X139094274Y-83245652D01*
X140777284Y-83245652D01*
X140779933Y-83245509D01*
X140837680Y-83239237D01*
X140843612Y-83237826D01*
X140973717Y-83189052D01*
X140979786Y-83185729D01*
X141090637Y-83102651D01*
X141095525Y-83097763D01*
X141178603Y-82986911D01*
X141181926Y-82980843D01*
X141230703Y-82850734D01*
X141232111Y-82844807D01*
X141238383Y-82787064D01*
X141238528Y-82784416D01*
X141238527Y-82501400D01*
X141235672Y-82494508D01*
X141228780Y-82491653D01*
X139094274Y-82491653D01*
X139094274Y-81983653D01*
X141228779Y-81983653D01*
X141235671Y-81980797D01*
X141238526Y-81973906D01*
X141238526Y-81690896D01*
X141238383Y-81688246D01*
X141232111Y-81630500D01*
X141230700Y-81624568D01*
X141181926Y-81494463D01*
X141178603Y-81488394D01*
X141095525Y-81377543D01*
X141090637Y-81372655D01*
X140979786Y-81289577D01*
X140973717Y-81286254D01*
X140843608Y-81237478D01*
X140837681Y-81236069D01*
X140779938Y-81229797D01*
X140777290Y-81229653D01*
X139094274Y-81229653D01*
X139094274Y-80887153D01*
X142883771Y-80887153D01*
X142883771Y-81229654D01*
X142881120Y-81229797D01*
X142823374Y-81236069D01*
X142817442Y-81237480D01*
X142687337Y-81286255D01*
X142681268Y-81289577D01*
X142570417Y-81372655D01*
X142565529Y-81377543D01*
X142482451Y-81488394D01*
X142479128Y-81494464D01*
X142430352Y-81624572D01*
X142428943Y-81630499D01*
X142422671Y-81688242D01*
X142422527Y-81690889D01*
X142422527Y-81973906D01*
X142425382Y-81980798D01*
X142432274Y-81983653D01*
X142432275Y-81983653D01*
X142432275Y-82491652D01*
X142425383Y-82494508D01*
X142422528Y-82501400D01*
X142422528Y-82784410D01*
X142422671Y-82787060D01*
X142428943Y-82844806D01*
X142430354Y-82850738D01*
X142479128Y-82980843D01*
X142482451Y-82986912D01*
X142565529Y-83097763D01*
X142570417Y-83102651D01*
X142681268Y-83185729D01*
X142687337Y-83189052D01*
X142817446Y-83237828D01*
X142823373Y-83239237D01*
X142881116Y-83245510D01*
X142883764Y-83245653D01*
X144566780Y-83245653D01*
X144573672Y-83242798D01*
X144576527Y-83235906D01*
X144576527Y-82501401D01*
X144573672Y-82494508D01*
X144566779Y-82491653D01*
X142432275Y-82491652D01*
X142432275Y-81983653D01*
X144566780Y-81983653D01*
X144573672Y-81980798D01*
X144576527Y-81973906D01*
X144576528Y-81239401D01*
X144573672Y-81232509D01*
X144566780Y-81229654D01*
X142883771Y-81229654D01*
X142883771Y-80887153D01*
X145094274Y-80887153D01*
X145094274Y-81229653D01*
X145087383Y-81232508D01*
X145084527Y-81239400D01*
X145084527Y-81973906D01*
X145087382Y-81980797D01*
X145094274Y-81983653D01*
X145094274Y-82491653D01*
X145087382Y-82494508D01*
X145084527Y-82501400D01*
X145084527Y-83235905D01*
X145087382Y-83242796D01*
X145094274Y-83245652D01*
X146777284Y-83245652D01*
X146779934Y-83245509D01*
X146837680Y-83239237D01*
X146843612Y-83237826D01*
X146973716Y-83189052D01*
X146979786Y-83185729D01*
X147090637Y-83102651D01*
X147095526Y-83097763D01*
X147178603Y-82986912D01*
X147181926Y-82980843D01*
X147230702Y-82850734D01*
X147232111Y-82844806D01*
X147238383Y-82787064D01*
X147238527Y-82784416D01*
X147238527Y-82501400D01*
X147235672Y-82494508D01*
X147228781Y-82491653D01*
X145094274Y-82491653D01*
X145094274Y-81983653D01*
X147228779Y-81983653D01*
X147235671Y-81980798D01*
X147238527Y-81973906D01*
X147238526Y-81690897D01*
X147238383Y-81688245D01*
X147232111Y-81630500D01*
X147230700Y-81624568D01*
X147181926Y-81494463D01*
X147178603Y-81488394D01*
X147095525Y-81377543D01*
X147090637Y-81372655D01*
X146979786Y-81289577D01*
X146973717Y-81286254D01*
X146843608Y-81237478D01*
X146837681Y-81236069D01*
X146779937Y-81229797D01*
X146777290Y-81229653D01*
X145094274Y-81229653D01*
X145094274Y-80887153D01*
X148883771Y-80887153D01*
X148883771Y-81229654D01*
X148881119Y-81229797D01*
X148823374Y-81236069D01*
X148817442Y-81237480D01*
X148687337Y-81286254D01*
X148681268Y-81289577D01*
X148570417Y-81372655D01*
X148565529Y-81377543D01*
X148482451Y-81488394D01*
X148479128Y-81494463D01*
X148430352Y-81624572D01*
X148428943Y-81630499D01*
X148422672Y-81688242D01*
X148422527Y-81690890D01*
X148422527Y-81973906D01*
X148425382Y-81980798D01*
X148432274Y-81983653D01*
X148432275Y-81983653D01*
X148432275Y-82491653D01*
X148425383Y-82494508D01*
X148422528Y-82501400D01*
X148422528Y-82784409D01*
X148422671Y-82787060D01*
X148428943Y-82844806D01*
X148430354Y-82850738D01*
X148479128Y-82980843D01*
X148482451Y-82986912D01*
X148565529Y-83097762D01*
X148570417Y-83102651D01*
X148681268Y-83185729D01*
X148687337Y-83189052D01*
X148817446Y-83237828D01*
X148823373Y-83239237D01*
X148881116Y-83245509D01*
X148883764Y-83245652D01*
X150566780Y-83245652D01*
X150573672Y-83242798D01*
X150576527Y-83235906D01*
X150576527Y-82501400D01*
X150573672Y-82494508D01*
X150566780Y-82491653D01*
X148432275Y-82491653D01*
X148432275Y-81983653D01*
X150566780Y-81983653D01*
X150573672Y-81980797D01*
X150576527Y-81973906D01*
X150576527Y-81239401D01*
X150573672Y-81232509D01*
X150566780Y-81229654D01*
X148883771Y-81229654D01*
X148883771Y-80887153D01*
X151094274Y-80887153D01*
X151094274Y-81229653D01*
X151087382Y-81232508D01*
X151084527Y-81239400D01*
X151084527Y-81973906D01*
X151087382Y-81980798D01*
X151094274Y-81983653D01*
X151094274Y-82491653D01*
X151087382Y-82494508D01*
X151084527Y-82501401D01*
X151084527Y-83235905D01*
X151087382Y-83242797D01*
X151094274Y-83245652D01*
X152777284Y-83245652D01*
X152779934Y-83245509D01*
X152837679Y-83239237D01*
X152843612Y-83237825D01*
X152973717Y-83189052D01*
X152979786Y-83185729D01*
X153090637Y-83102651D01*
X153095525Y-83097763D01*
X153178603Y-82986912D01*
X153181926Y-82980843D01*
X153230702Y-82850734D01*
X153232111Y-82844807D01*
X153238383Y-82787064D01*
X153238527Y-82784416D01*
X153238527Y-82501401D01*
X153235672Y-82494508D01*
X153228780Y-82491653D01*
X151094274Y-82491653D01*
X151094274Y-81983653D01*
X153228779Y-81983653D01*
X153235671Y-81980798D01*
X153238526Y-81973906D01*
X153238526Y-81690897D01*
X153238383Y-81688246D01*
X153232111Y-81630500D01*
X153230700Y-81624568D01*
X153181926Y-81494464D01*
X153178603Y-81488394D01*
X153095525Y-81377543D01*
X153090637Y-81372655D01*
X152979786Y-81289577D01*
X152973717Y-81286255D01*
X152843608Y-81237478D01*
X152837682Y-81236069D01*
X152779938Y-81229797D01*
X152777290Y-81229653D01*
X151094274Y-81229653D01*
X151094274Y-80887153D01*
X154883771Y-80887153D01*
X154883771Y-81229654D01*
X154881120Y-81229797D01*
X154823374Y-81236068D01*
X154817442Y-81237480D01*
X154687337Y-81286254D01*
X154681268Y-81289577D01*
X154570417Y-81372655D01*
X154565529Y-81377543D01*
X154482451Y-81488394D01*
X154479128Y-81494463D01*
X154430352Y-81624572D01*
X154428943Y-81630499D01*
X154422671Y-81688242D01*
X154422527Y-81690890D01*
X154422526Y-81973906D01*
X154425382Y-81980798D01*
X154432274Y-81983653D01*
X154432275Y-81983653D01*
X154432275Y-82491653D01*
X154425383Y-82494508D01*
X154422529Y-82501400D01*
X154422528Y-82784410D01*
X154422671Y-82787060D01*
X154428943Y-82844806D01*
X154430354Y-82850738D01*
X154479127Y-82980843D01*
X154482451Y-82986911D01*
X154565529Y-83097763D01*
X154570417Y-83102651D01*
X154681268Y-83185729D01*
X154687336Y-83189052D01*
X154817446Y-83237828D01*
X154823373Y-83239237D01*
X154881116Y-83245509D01*
X154883764Y-83245653D01*
X156566780Y-83245653D01*
X156573673Y-83242798D01*
X156576527Y-83235906D01*
X156576527Y-82501400D01*
X156573672Y-82494508D01*
X156566780Y-82491653D01*
X154432275Y-82491653D01*
X154432275Y-81983653D01*
X156566780Y-81983653D01*
X156573672Y-81980798D01*
X156576526Y-81973906D01*
X156576527Y-81239401D01*
X156573673Y-81232509D01*
X156566780Y-81229654D01*
X154883771Y-81229654D01*
X154883771Y-80887153D01*
X157094274Y-80887153D01*
X157094274Y-81229653D01*
X157087382Y-81232508D01*
X157084527Y-81239400D01*
X157084527Y-81973906D01*
X157087382Y-81980798D01*
X157094274Y-81983653D01*
X157094274Y-82491653D01*
X157087382Y-82494508D01*
X157084527Y-82501400D01*
X157084527Y-83235905D01*
X157087382Y-83242797D01*
X157094274Y-83245652D01*
X158777284Y-83245652D01*
X158779934Y-83245510D01*
X158837680Y-83239237D01*
X158843612Y-83237826D01*
X158973717Y-83189052D01*
X158979786Y-83185729D01*
X159090637Y-83102651D01*
X159095525Y-83097763D01*
X159178603Y-82986911D01*
X159181926Y-82980843D01*
X159230703Y-82850734D01*
X159232111Y-82844807D01*
X159238382Y-82787064D01*
X159238527Y-82784416D01*
X159238527Y-82501400D01*
X159235672Y-82494508D01*
X159228780Y-82491653D01*
X157094274Y-82491653D01*
X157094274Y-81983653D01*
X159228779Y-81983653D01*
X159235671Y-81980798D01*
X159238526Y-81973906D01*
X159238526Y-81690896D01*
X159238383Y-81688246D01*
X159232111Y-81630500D01*
X159230700Y-81624568D01*
X159181926Y-81494463D01*
X159178603Y-81488394D01*
X159095525Y-81377543D01*
X159090637Y-81372655D01*
X158979786Y-81289577D01*
X158973717Y-81286254D01*
X158843608Y-81237478D01*
X158837681Y-81236069D01*
X158779938Y-81229797D01*
X158777290Y-81229654D01*
X157094274Y-81229653D01*
X157094274Y-80887153D01*
X160883770Y-80887153D01*
X160883771Y-81229654D01*
X160881120Y-81229797D01*
X160823374Y-81236069D01*
X160817442Y-81237480D01*
X160687337Y-81286255D01*
X160681268Y-81289577D01*
X160570417Y-81372655D01*
X160565529Y-81377543D01*
X160482451Y-81488394D01*
X160479128Y-81494464D01*
X160430352Y-81624572D01*
X160428942Y-81630499D01*
X160422671Y-81688242D01*
X160422528Y-81690890D01*
X160422527Y-81973906D01*
X160425382Y-81980797D01*
X160432274Y-81983653D01*
X160432275Y-81983653D01*
X160432275Y-82491652D01*
X160425383Y-82494508D01*
X160422528Y-82501400D01*
X160422528Y-82784410D01*
X160422671Y-82787060D01*
X160428943Y-82844806D01*
X160430354Y-82850738D01*
X160479128Y-82980843D01*
X160482451Y-82986912D01*
X160565529Y-83097763D01*
X160570417Y-83102651D01*
X160681268Y-83185729D01*
X160687337Y-83189052D01*
X160817446Y-83237828D01*
X160823373Y-83239237D01*
X160881116Y-83245510D01*
X160883764Y-83245653D01*
X161816780Y-83245652D01*
X161823672Y-83242797D01*
X161826527Y-83235905D01*
X161826527Y-82501401D01*
X161823672Y-82494508D01*
X161816779Y-82491653D01*
X160432275Y-82491652D01*
X160432275Y-81983653D01*
X161816780Y-81983653D01*
X161823672Y-81980798D01*
X161826527Y-81973906D01*
X161826528Y-81239401D01*
X161823672Y-81232509D01*
X161816780Y-81229654D01*
X160883771Y-81229654D01*
X160883770Y-80887153D01*
X162344274Y-80887153D01*
X162344274Y-81229653D01*
X162337382Y-81232507D01*
X162334527Y-81239400D01*
X162334527Y-81973906D01*
X162337382Y-81980797D01*
X162344274Y-81983653D01*
X162344274Y-82491653D01*
X162337382Y-82494508D01*
X162334527Y-82501400D01*
X162334527Y-83235905D01*
X162337382Y-83242796D01*
X162344274Y-83245652D01*
X162673527Y-83245652D01*
X162708175Y-83260004D01*
X162722527Y-83294652D01*
X162722527Y-83623906D01*
X162725382Y-83630798D01*
X162732274Y-83633653D01*
X163466780Y-83633653D01*
X163473672Y-83630798D01*
X163476527Y-83623906D01*
X163476527Y-82501400D01*
X163473672Y-82494508D01*
X163466780Y-82491652D01*
X162344274Y-82491653D01*
X162344274Y-81983653D01*
X163466780Y-81983653D01*
X163473672Y-81980798D01*
X163476527Y-81973906D01*
X163476527Y-81239401D01*
X163473672Y-81232510D01*
X163466780Y-81229654D01*
X163278632Y-81229654D01*
X163278600Y-81229653D01*
X162344274Y-81229653D01*
X162344274Y-80887153D01*
X163994274Y-80887153D01*
X163994274Y-81229653D01*
X163987382Y-81232508D01*
X163984527Y-81239400D01*
X163984526Y-81973906D01*
X163987382Y-81980798D01*
X163994274Y-81983653D01*
X163994274Y-82491653D01*
X163987382Y-82494508D01*
X163984527Y-82501400D01*
X163984527Y-83623906D01*
X163987382Y-83630798D01*
X163994274Y-83633653D01*
X164728779Y-83633653D01*
X164735671Y-83630798D01*
X164738526Y-83623906D01*
X164738526Y-82785760D01*
X164738527Y-82785724D01*
X164738527Y-82501401D01*
X164735672Y-82494508D01*
X164728780Y-82491653D01*
X163994274Y-82491653D01*
X163994274Y-81983653D01*
X164728779Y-81983653D01*
X164735671Y-81980798D01*
X164738526Y-81973906D01*
X164738526Y-81690897D01*
X164738383Y-81688246D01*
X164732111Y-81630500D01*
X164730700Y-81624568D01*
X164681926Y-81494464D01*
X164678603Y-81488394D01*
X164595525Y-81377543D01*
X164590637Y-81372655D01*
X164479786Y-81289577D01*
X164473717Y-81286255D01*
X164343608Y-81237478D01*
X164337681Y-81236068D01*
X164279938Y-81229797D01*
X164277290Y-81229653D01*
X163994274Y-81229653D01*
X163994274Y-80887153D01*
X179014809Y-80887153D01*
X179024195Y-80888640D01*
X179027147Y-80888640D01*
X179034527Y-80891038D01*
X179041907Y-80888640D01*
X179049669Y-80888641D01*
X179049669Y-80888946D01*
X179053872Y-80888421D01*
X179282523Y-80903407D01*
X179288878Y-80904244D01*
X179529468Y-80952101D01*
X179535658Y-80953759D01*
X179572858Y-80966386D01*
X179767964Y-81032616D01*
X179773884Y-81035069D01*
X179993897Y-81143567D01*
X179999448Y-81146772D01*
X180203418Y-81283060D01*
X180208503Y-81286962D01*
X180392938Y-81448709D01*
X180397471Y-81453241D01*
X180559218Y-81637677D01*
X180563120Y-81642762D01*
X180699408Y-81846732D01*
X180702613Y-81852283D01*
X180811111Y-82072296D01*
X180813565Y-82078217D01*
X180854430Y-82198605D01*
X180892422Y-82310524D01*
X180894078Y-82316709D01*
X180941936Y-82557305D01*
X180942773Y-82563655D01*
X180948290Y-82647824D01*
X180957758Y-82792308D01*
X180957234Y-82796511D01*
X180957540Y-82796512D01*
X180957540Y-82804273D01*
X180955142Y-82811653D01*
X180957540Y-82819033D01*
X180957540Y-82821984D01*
X180959028Y-82831372D01*
X180959027Y-84715184D01*
X164738527Y-84851111D01*
G37*
%TD.AperFunction*%
%TD*%
%TA.AperFunction,Conductor*%
%TO.N,GND*%
G36*
X94454246Y-128896153D02*
G01*
X94444858Y-128894667D01*
X94441907Y-128894666D01*
X94434527Y-128892268D01*
X94427147Y-128894666D01*
X94419385Y-128894666D01*
X94419385Y-128894360D01*
X94415182Y-128894885D01*
X94186531Y-128879899D01*
X94180176Y-128879061D01*
X93939586Y-128831205D01*
X93933398Y-128829548D01*
X93821479Y-128791556D01*
X93701091Y-128750690D01*
X93695170Y-128748237D01*
X93475157Y-128639739D01*
X93469606Y-128636534D01*
X93265637Y-128500246D01*
X93260551Y-128496344D01*
X93076115Y-128334596D01*
X93071583Y-128330064D01*
X92909836Y-128145629D01*
X92905934Y-128140544D01*
X92769646Y-127936574D01*
X92766441Y-127931023D01*
X92657943Y-127711010D01*
X92655490Y-127705089D01*
X92614624Y-127584700D01*
X92576632Y-127472782D01*
X92574976Y-127466597D01*
X92527118Y-127226001D01*
X92526281Y-127219651D01*
X92520765Y-127135482D01*
X92511294Y-126990998D01*
X92511820Y-126986795D01*
X92511514Y-126986795D01*
X92511514Y-126979033D01*
X92513912Y-126971653D01*
X92511514Y-126964273D01*
X92511514Y-126961322D01*
X92510027Y-126951934D01*
X92510027Y-119991372D01*
X92511514Y-119981984D01*
X92511514Y-119979033D01*
X92513911Y-119971653D01*
X92511514Y-119964273D01*
X92511514Y-119956511D01*
X92511820Y-119956511D01*
X92511295Y-119952308D01*
X92520765Y-119807824D01*
X92526282Y-119723655D01*
X92527118Y-119717304D01*
X92574976Y-119476709D01*
X92576632Y-119470524D01*
X92614624Y-119358605D01*
X92655490Y-119238217D01*
X92657943Y-119232296D01*
X92766440Y-119012283D01*
X92769646Y-119006732D01*
X92905934Y-118802762D01*
X92909836Y-118797677D01*
X93071583Y-118613241D01*
X93076115Y-118608709D01*
X93260551Y-118446962D01*
X93265636Y-118443060D01*
X93469606Y-118306772D01*
X93475157Y-118303567D01*
X93695170Y-118195068D01*
X93701091Y-118192616D01*
X93821479Y-118151750D01*
X93933399Y-118113758D01*
X93939586Y-118112101D01*
X94180176Y-118064244D01*
X94186531Y-118063407D01*
X94415182Y-118048421D01*
X94415771Y-118048495D01*
X94416307Y-118048347D01*
X94424448Y-118047813D01*
X94424731Y-118047855D01*
X94434527Y-118051038D01*
X94434527Y-118051606D01*
X94445089Y-118050914D01*
X94704420Y-118033917D01*
X94704427Y-118033917D01*
X94706015Y-118033812D01*
X94972858Y-117980733D01*
X95230491Y-117893279D01*
X95474504Y-117772945D01*
X95606088Y-117685024D01*
X95699386Y-117622684D01*
X95699389Y-117622682D01*
X95700722Y-117621791D01*
X95905275Y-117442402D01*
X96084665Y-117237848D01*
X96085558Y-117236512D01*
X96234926Y-117012967D01*
X96234928Y-117012963D01*
X96235819Y-117011630D01*
X96236527Y-117010193D01*
X96236530Y-117010189D01*
X96355444Y-116769055D01*
X96355445Y-116769052D01*
X96356154Y-116767617D01*
X96443607Y-116509984D01*
X96443922Y-116508403D01*
X96443922Y-116508401D01*
X96496374Y-116244711D01*
X96496375Y-116244707D01*
X96496686Y-116243141D01*
X96496790Y-116241554D01*
X96496791Y-116241546D01*
X96513843Y-115981379D01*
X96513843Y-115981378D01*
X96514480Y-115971653D01*
X96513912Y-115971652D01*
X96512385Y-115966953D01*
X96512391Y-115966862D01*
X96511256Y-115959697D01*
X96510027Y-115959697D01*
X96510027Y-115956994D01*
X96510607Y-115955594D01*
X96510027Y-115951934D01*
X96510027Y-82831372D01*
X96511514Y-82821984D01*
X96511513Y-82819033D01*
X96513912Y-82811654D01*
X96511514Y-82804274D01*
X96511514Y-82796511D01*
X96511820Y-82796511D01*
X96511295Y-82792308D01*
X96520765Y-82647824D01*
X96526281Y-82563655D01*
X96527118Y-82557304D01*
X96574976Y-82316709D01*
X96576632Y-82310524D01*
X96614624Y-82198605D01*
X96655490Y-82078217D01*
X96657943Y-82072296D01*
X96766441Y-81852284D01*
X96769646Y-81846732D01*
X96905934Y-81642762D01*
X96909836Y-81637677D01*
X97071583Y-81453241D01*
X97076115Y-81448709D01*
X97260551Y-81286962D01*
X97265636Y-81283060D01*
X97469606Y-81146772D01*
X97475157Y-81143568D01*
X97695171Y-81035069D01*
X97701091Y-81032616D01*
X97824437Y-80990745D01*
X97933398Y-80953758D01*
X97939586Y-80952101D01*
X98018216Y-80936461D01*
X98020871Y-80935933D01*
X98020871Y-87338355D01*
X98018220Y-87338497D01*
X97960473Y-87344769D01*
X97954542Y-87346180D01*
X97824437Y-87394954D01*
X97818368Y-87398277D01*
X97707517Y-87481355D01*
X97702629Y-87486243D01*
X97619551Y-87597094D01*
X97616228Y-87603163D01*
X97567452Y-87733272D01*
X97566043Y-87739199D01*
X97559771Y-87796942D01*
X97559627Y-87799590D01*
X97559627Y-88082606D01*
X97562482Y-88089499D01*
X97569374Y-88092353D01*
X97569375Y-88092353D01*
X97569376Y-88600353D01*
X97562483Y-88603208D01*
X97559628Y-88610100D01*
X97559627Y-88798248D01*
X97559627Y-88798280D01*
X97559627Y-89732606D01*
X97562482Y-89739498D01*
X97569374Y-89742353D01*
X97569376Y-89742353D01*
X97569375Y-90250353D01*
X97562483Y-90253208D01*
X97559628Y-90260100D01*
X97559628Y-91193110D01*
X97559772Y-91195760D01*
X97566043Y-91253506D01*
X97567454Y-91259438D01*
X97616228Y-91389543D01*
X97619551Y-91395612D01*
X97702629Y-91506463D01*
X97707517Y-91511351D01*
X97818368Y-91594429D01*
X97824437Y-91597752D01*
X97954547Y-91646528D01*
X97960473Y-91647937D01*
X98018217Y-91654209D01*
X98020864Y-91654353D01*
X98020871Y-91654353D01*
X98020871Y-92838354D01*
X98018220Y-92838496D01*
X97960474Y-92844769D01*
X97954542Y-92846180D01*
X97824437Y-92894954D01*
X97818368Y-92898277D01*
X97707517Y-92981355D01*
X97702629Y-92986243D01*
X97619551Y-93097095D01*
X97616228Y-93103163D01*
X97567452Y-93233272D01*
X97566043Y-93239199D01*
X97559772Y-93296942D01*
X97559627Y-93299590D01*
X97559627Y-94982606D01*
X97562482Y-94989498D01*
X97569374Y-94992354D01*
X97569375Y-94992353D01*
X97569375Y-95500352D01*
X97562483Y-95503208D01*
X97559627Y-95510100D01*
X97559628Y-97193110D01*
X97559771Y-97195760D01*
X97566043Y-97253506D01*
X97567454Y-97259438D01*
X97616228Y-97389543D01*
X97619551Y-97395612D01*
X97702629Y-97506462D01*
X97707517Y-97511351D01*
X97818368Y-97594429D01*
X97824437Y-97597752D01*
X97954546Y-97646528D01*
X97960473Y-97647937D01*
X98018216Y-97654209D01*
X98020864Y-97654352D01*
X98020871Y-97654352D01*
X98020871Y-98838355D01*
X98018220Y-98838497D01*
X97960473Y-98844769D01*
X97954542Y-98846180D01*
X97824437Y-98894954D01*
X97818368Y-98898277D01*
X97707517Y-98981355D01*
X97702629Y-98986243D01*
X97619551Y-99097094D01*
X97616228Y-99103163D01*
X97567452Y-99233272D01*
X97566043Y-99239199D01*
X97559771Y-99296942D01*
X97559627Y-99299590D01*
X97559627Y-100982606D01*
X97562482Y-100989498D01*
X97569374Y-100992353D01*
X97569375Y-100992353D01*
X97569375Y-101500353D01*
X97562483Y-101503208D01*
X97559628Y-101510100D01*
X97559628Y-103193110D01*
X97559771Y-103195760D01*
X97566043Y-103253505D01*
X97567454Y-103259438D01*
X97616228Y-103389543D01*
X97619550Y-103395612D01*
X97702629Y-103506463D01*
X97707517Y-103511351D01*
X97818368Y-103594429D01*
X97824437Y-103597752D01*
X97954546Y-103646528D01*
X97960473Y-103647937D01*
X98018216Y-103654209D01*
X98020864Y-103654353D01*
X98020871Y-103654353D01*
X98020871Y-104838354D01*
X98018220Y-104838497D01*
X97960474Y-104844769D01*
X97954542Y-104846180D01*
X97824437Y-104894954D01*
X97818368Y-104898277D01*
X97707517Y-104981355D01*
X97702628Y-104986243D01*
X97619551Y-105097094D01*
X97616228Y-105103163D01*
X97567452Y-105233272D01*
X97566043Y-105239198D01*
X97559771Y-105296942D01*
X97559627Y-105299590D01*
X97559627Y-106982606D01*
X97562482Y-106989498D01*
X97569374Y-106992353D01*
X97569376Y-106992353D01*
X97569375Y-107500353D01*
X97562483Y-107503208D01*
X97559628Y-107510100D01*
X97559628Y-109193110D01*
X97559772Y-109195760D01*
X97566043Y-109253506D01*
X97567454Y-109259438D01*
X97616228Y-109389543D01*
X97619551Y-109395612D01*
X97702629Y-109506463D01*
X97707517Y-109511351D01*
X97818368Y-109594429D01*
X97824437Y-109597752D01*
X97954546Y-109646528D01*
X97960473Y-109647937D01*
X98018217Y-109654209D01*
X98020864Y-109654353D01*
X98020871Y-109654353D01*
X98020871Y-110838354D01*
X98018219Y-110838497D01*
X97960474Y-110844769D01*
X97954542Y-110846180D01*
X97824437Y-110894954D01*
X97818368Y-110898277D01*
X97707517Y-110981355D01*
X97702629Y-110986243D01*
X97619551Y-111097094D01*
X97616228Y-111103163D01*
X97567452Y-111233272D01*
X97566043Y-111239199D01*
X97559771Y-111296943D01*
X97559627Y-111299590D01*
X97559627Y-112982606D01*
X97562482Y-112989497D01*
X97569374Y-112992353D01*
X97569375Y-112992353D01*
X97569376Y-113500353D01*
X97562483Y-113503208D01*
X97559628Y-113510101D01*
X97559628Y-115193109D01*
X97559771Y-115195760D01*
X97566043Y-115253506D01*
X97567454Y-115259438D01*
X97616228Y-115389543D01*
X97619551Y-115395612D01*
X97702628Y-115506463D01*
X97707517Y-115511351D01*
X97818368Y-115594429D01*
X97824437Y-115597752D01*
X97954546Y-115646528D01*
X97960473Y-115647937D01*
X98018216Y-115654209D01*
X98020864Y-115654352D01*
X98020871Y-115654352D01*
X98020871Y-116838355D01*
X98018220Y-116838497D01*
X97960474Y-116844769D01*
X97954542Y-116846180D01*
X97824437Y-116894954D01*
X97818368Y-116898277D01*
X97707517Y-116981355D01*
X97702629Y-116986243D01*
X97619551Y-117097093D01*
X97616228Y-117103163D01*
X97567452Y-117233272D01*
X97566043Y-117239199D01*
X97559771Y-117296942D01*
X97559627Y-117299590D01*
X97559627Y-118232606D01*
X97562482Y-118239498D01*
X97569374Y-118242353D01*
X97569375Y-118242353D01*
X97569375Y-118750353D01*
X97562483Y-118753208D01*
X97559628Y-118760100D01*
X97559628Y-119598246D01*
X97559627Y-119598282D01*
X97559627Y-119882606D01*
X97562482Y-119889498D01*
X97569373Y-119892353D01*
X97569375Y-119892353D01*
X97569375Y-120400353D01*
X97562483Y-120403208D01*
X97559628Y-120410099D01*
X97559628Y-120693110D01*
X97559772Y-120695760D01*
X97566043Y-120753506D01*
X97567454Y-120759438D01*
X97616228Y-120889543D01*
X97619551Y-120895612D01*
X97702629Y-121006463D01*
X97707517Y-121011351D01*
X97818368Y-121094429D01*
X97824437Y-121097752D01*
X97954547Y-121146528D01*
X97960473Y-121147937D01*
X98018217Y-121154209D01*
X98020864Y-121154353D01*
X98303880Y-121154353D01*
X98310772Y-121151498D01*
X98313627Y-121144606D01*
X98313627Y-120410100D01*
X98310772Y-120403208D01*
X98303880Y-120400353D01*
X97569375Y-120400353D01*
X97569375Y-119892353D01*
X98303881Y-119892353D01*
X98310772Y-119889498D01*
X98313627Y-119882606D01*
X98313627Y-118760100D01*
X98310772Y-118753208D01*
X98303881Y-118750353D01*
X97569375Y-118750353D01*
X97569375Y-118242353D01*
X98303880Y-118242353D01*
X98310772Y-118239498D01*
X98313627Y-118232606D01*
X98313627Y-116848101D01*
X98310772Y-116841208D01*
X98303880Y-116838354D01*
X98020871Y-116838355D01*
X98020871Y-115654352D01*
X98303880Y-115654353D01*
X98310772Y-115651498D01*
X98313627Y-115644606D01*
X98313627Y-113510100D01*
X98310772Y-113503208D01*
X98303880Y-113500353D01*
X97569376Y-113500353D01*
X97569375Y-112992353D01*
X98303880Y-112992353D01*
X98310772Y-112989497D01*
X98313627Y-112982606D01*
X98313627Y-110848101D01*
X98310772Y-110841209D01*
X98303880Y-110838353D01*
X98020871Y-110838354D01*
X98020871Y-109654353D01*
X98303880Y-109654353D01*
X98310772Y-109651498D01*
X98313627Y-109644606D01*
X98313627Y-107510100D01*
X98310771Y-107503208D01*
X98303880Y-107500353D01*
X97569375Y-107500353D01*
X97569376Y-106992353D01*
X98303880Y-106992353D01*
X98310772Y-106989498D01*
X98313627Y-106982606D01*
X98313627Y-104848101D01*
X98310772Y-104841209D01*
X98303880Y-104838354D01*
X98020871Y-104838354D01*
X98020871Y-103654353D01*
X98303881Y-103654353D01*
X98310772Y-103651498D01*
X98313627Y-103644606D01*
X98313627Y-101510100D01*
X98310772Y-101503208D01*
X98303881Y-101500353D01*
X97569375Y-101500353D01*
X97569375Y-100992353D01*
X98303880Y-100992353D01*
X98310772Y-100989498D01*
X98313627Y-100982606D01*
X98313627Y-98848101D01*
X98310772Y-98841209D01*
X98303880Y-98838354D01*
X98020871Y-98838355D01*
X98020871Y-97654352D01*
X98303880Y-97654353D01*
X98310772Y-97651499D01*
X98313627Y-97644606D01*
X98313627Y-95510100D01*
X98310772Y-95503208D01*
X98303880Y-95500353D01*
X97569375Y-95500352D01*
X97569375Y-94992353D01*
X98303880Y-94992354D01*
X98310772Y-94989498D01*
X98313627Y-94982606D01*
X98313627Y-92848101D01*
X98310772Y-92841210D01*
X98303880Y-92838354D01*
X98020871Y-92838354D01*
X98020871Y-91654353D01*
X98303880Y-91654353D01*
X98310772Y-91651498D01*
X98313627Y-91644606D01*
X98313627Y-90260100D01*
X98310772Y-90253209D01*
X98303880Y-90250353D01*
X97569375Y-90250353D01*
X97569376Y-89742353D01*
X98303880Y-89742353D01*
X98310772Y-89739498D01*
X98313627Y-89732606D01*
X98313627Y-88610100D01*
X98310772Y-88603207D01*
X98303880Y-88600353D01*
X97569376Y-88600353D01*
X97569375Y-88092353D01*
X98303880Y-88092353D01*
X98310772Y-88089499D01*
X98313627Y-88082606D01*
X98313627Y-87348101D01*
X98310772Y-87341209D01*
X98303880Y-87338354D01*
X98020871Y-87338355D01*
X98020871Y-80935933D01*
X98180179Y-80904244D01*
X98186531Y-80903407D01*
X98415182Y-80888421D01*
X98419385Y-80888945D01*
X98419385Y-80888640D01*
X98427147Y-80888641D01*
X98434527Y-80891038D01*
X98441906Y-80888640D01*
X98444858Y-80888640D01*
X98454246Y-80887153D01*
X99341640Y-80887153D01*
X99404888Y-87338354D01*
X99115735Y-87338354D01*
X99115715Y-87338353D01*
X98831374Y-87338353D01*
X98824482Y-87341208D01*
X98821627Y-87348100D01*
X98821627Y-88082606D01*
X98824482Y-88089498D01*
X98831374Y-88092353D01*
X99412279Y-88092353D01*
X99417261Y-88600353D01*
X98831374Y-88600353D01*
X98824482Y-88603208D01*
X98821627Y-88610100D01*
X98821627Y-91644605D01*
X98824482Y-91651497D01*
X98831374Y-91654352D01*
X99114383Y-91654352D01*
X99117034Y-91654209D01*
X99174780Y-91647937D01*
X99180712Y-91646526D01*
X99310817Y-91597752D01*
X99316886Y-91594429D01*
X99427736Y-91511351D01*
X99432625Y-91506463D01*
X99445581Y-91489175D01*
X99460625Y-93023603D01*
X99432625Y-92986243D01*
X99427737Y-92981355D01*
X99316886Y-92898277D01*
X99310817Y-92894955D01*
X99180708Y-92846178D01*
X99174782Y-92844769D01*
X99117038Y-92838497D01*
X99114390Y-92838353D01*
X98831374Y-92838353D01*
X98824482Y-92841208D01*
X98821627Y-92848100D01*
X98821626Y-97644605D01*
X98824482Y-97651497D01*
X98831374Y-97654352D01*
X99114384Y-97654352D01*
X99117034Y-97654209D01*
X99174779Y-97647937D01*
X99180712Y-97646525D01*
X99310817Y-97597752D01*
X99316886Y-97594429D01*
X99427737Y-97511351D01*
X99432625Y-97506463D01*
X99503645Y-97411701D01*
X99520261Y-99106459D01*
X99519025Y-99103163D01*
X99515703Y-99097094D01*
X99432625Y-98986243D01*
X99427737Y-98981355D01*
X99316886Y-98898276D01*
X99310817Y-98894954D01*
X99180709Y-98846178D01*
X99174781Y-98844769D01*
X99117038Y-98838498D01*
X99114390Y-98838353D01*
X98831374Y-98838353D01*
X98824482Y-98841208D01*
X98821627Y-98848100D01*
X98821627Y-103644605D01*
X98824482Y-103651497D01*
X98831374Y-103654352D01*
X98831374Y-104838353D01*
X98824482Y-104841208D01*
X98821627Y-104848100D01*
X98821627Y-106982606D01*
X98824482Y-106989498D01*
X98831374Y-106992353D01*
X98831374Y-107500353D01*
X98824482Y-107503208D01*
X98821627Y-107510100D01*
X98821627Y-109644605D01*
X98824482Y-109651497D01*
X98831374Y-109654352D01*
X98831374Y-110838353D01*
X98824482Y-110841208D01*
X98821627Y-110848099D01*
X98821627Y-112982606D01*
X98824482Y-112989498D01*
X98831374Y-112992353D01*
X98831374Y-113500353D01*
X98824482Y-113503208D01*
X98821627Y-113510101D01*
X98821627Y-115644606D01*
X98824482Y-115651497D01*
X98831374Y-115654352D01*
X98831374Y-116838353D01*
X98824482Y-116841208D01*
X98821627Y-116848100D01*
X98821627Y-118232607D01*
X98824482Y-118239498D01*
X98831374Y-118242353D01*
X99565880Y-118242353D01*
X99572772Y-118239498D01*
X99575627Y-118232606D01*
X99575626Y-117299597D01*
X99575483Y-117296946D01*
X99569211Y-117239200D01*
X99567800Y-117233268D01*
X99519026Y-117103163D01*
X99515703Y-117097094D01*
X99432625Y-116986243D01*
X99427737Y-116981355D01*
X99316886Y-116898278D01*
X99310817Y-116894954D01*
X99180709Y-116846178D01*
X99174781Y-116844769D01*
X99117038Y-116838497D01*
X99114390Y-116838353D01*
X98831374Y-116838353D01*
X98831374Y-115654352D01*
X99114384Y-115654352D01*
X99117034Y-115654209D01*
X99174780Y-115647937D01*
X99180712Y-115646525D01*
X99310817Y-115597752D01*
X99316886Y-115594429D01*
X99427737Y-115511351D01*
X99432625Y-115506463D01*
X99515703Y-115395612D01*
X99519026Y-115389543D01*
X99567802Y-115259434D01*
X99569211Y-115253507D01*
X99575483Y-115195764D01*
X99575627Y-115193116D01*
X99575627Y-113510100D01*
X99572772Y-113503208D01*
X99565880Y-113500353D01*
X98831374Y-113500353D01*
X98831374Y-112992353D01*
X99565879Y-112992353D01*
X99572771Y-112989497D01*
X99575626Y-112982606D01*
X99575626Y-111299597D01*
X99575483Y-111296946D01*
X99569211Y-111239200D01*
X99567800Y-111233268D01*
X99519026Y-111103164D01*
X99515703Y-111097094D01*
X99432625Y-110986243D01*
X99427737Y-110981354D01*
X99316886Y-110898277D01*
X99310817Y-110894955D01*
X99180708Y-110846178D01*
X99174782Y-110844769D01*
X99117038Y-110838497D01*
X99114390Y-110838353D01*
X98831374Y-110838353D01*
X98831374Y-109654352D01*
X99114384Y-109654353D01*
X99117034Y-109654209D01*
X99174780Y-109647937D01*
X99180712Y-109646526D01*
X99310817Y-109597752D01*
X99316886Y-109594429D01*
X99427737Y-109511352D01*
X99432625Y-109506463D01*
X99515703Y-109395612D01*
X99519026Y-109389543D01*
X99567802Y-109259433D01*
X99569211Y-109253507D01*
X99575483Y-109195764D01*
X99575627Y-109193115D01*
X99575627Y-107510099D01*
X99572772Y-107503208D01*
X99565880Y-107500353D01*
X98831374Y-107500353D01*
X98831374Y-106992353D01*
X99565879Y-106992353D01*
X99572771Y-106989498D01*
X99575626Y-106982606D01*
X99575626Y-105299597D01*
X99575483Y-105296946D01*
X99569211Y-105239200D01*
X99567800Y-105233269D01*
X99519026Y-105103163D01*
X99515703Y-105097094D01*
X99432625Y-104986243D01*
X99427737Y-104981355D01*
X99316886Y-104898277D01*
X99310817Y-104894954D01*
X99180708Y-104846178D01*
X99174781Y-104844769D01*
X99117038Y-104838497D01*
X99114390Y-104838353D01*
X98831374Y-104838353D01*
X98831374Y-103654352D01*
X99114384Y-103654352D01*
X99117034Y-103654209D01*
X99174780Y-103647937D01*
X99180712Y-103646526D01*
X99310817Y-103597753D01*
X99316886Y-103594428D01*
X99427737Y-103511351D01*
X99432625Y-103506463D01*
X99515703Y-103395612D01*
X99519026Y-103389544D01*
X99561150Y-103277177D01*
X99716651Y-119138354D01*
X99624627Y-119138354D01*
X99589979Y-119124002D01*
X99575627Y-119089353D01*
X99575627Y-118760100D01*
X99572772Y-118753208D01*
X99565880Y-118750353D01*
X98831374Y-118750353D01*
X98824482Y-118753208D01*
X98821627Y-118760100D01*
X98821627Y-119882606D01*
X98824482Y-119889498D01*
X98831374Y-119892353D01*
X99724042Y-119892353D01*
X99729024Y-120400353D01*
X98831374Y-120400353D01*
X98824482Y-120403208D01*
X98821627Y-120410099D01*
X98821627Y-121144605D01*
X98824482Y-121151497D01*
X98831374Y-121154352D01*
X99019522Y-121154352D01*
X99019554Y-121154353D01*
X99736416Y-121154353D01*
X99812316Y-128896153D01*
X94454246Y-128896153D01*
G37*
%TD.AperFunction*%
%TD*%
%TA.AperFunction,Conductor*%
%TO.N,GND*%
G36*
X185713565Y-124105087D02*
G01*
X185711113Y-124111008D01*
X185602613Y-124331023D01*
X185599408Y-124336574D01*
X185463120Y-124540544D01*
X185459218Y-124545629D01*
X185297471Y-124730065D01*
X185292940Y-124734597D01*
X185108503Y-124896344D01*
X185103418Y-124900247D01*
X184899448Y-125036534D01*
X184893897Y-125039739D01*
X184673884Y-125148237D01*
X184667963Y-125150690D01*
X184472858Y-125216920D01*
X184435660Y-125229547D01*
X184429467Y-125231205D01*
X184188879Y-125279062D01*
X184182523Y-125279899D01*
X183953872Y-125294885D01*
X183949669Y-125294360D01*
X183949669Y-125294666D01*
X183941907Y-125294666D01*
X183934527Y-125292268D01*
X183927147Y-125294666D01*
X183924196Y-125294667D01*
X183914808Y-125296153D01*
X160954246Y-125296153D01*
X160951888Y-125295780D01*
X160950987Y-125296153D01*
X160946484Y-125296153D01*
X160934527Y-125292268D01*
X160934527Y-125292129D01*
X160923895Y-125292889D01*
X160923894Y-125292890D01*
X160711482Y-125308081D01*
X160709737Y-125308206D01*
X160489524Y-125356111D01*
X160278369Y-125434867D01*
X160276837Y-125435704D01*
X160276836Y-125435704D01*
X160097227Y-125533779D01*
X160080571Y-125542873D01*
X160079179Y-125543916D01*
X160079174Y-125543920D01*
X159927253Y-125657646D01*
X159900159Y-125677928D01*
X159740802Y-125837285D01*
X159739760Y-125838677D01*
X159606794Y-126016300D01*
X159606790Y-126016305D01*
X159605746Y-126017698D01*
X159604908Y-126019234D01*
X159604907Y-126019236D01*
X159513912Y-126185880D01*
X159497741Y-126215495D01*
X159458363Y-126321073D01*
X159419593Y-126425019D01*
X159419592Y-126425023D01*
X159418985Y-126426650D01*
X159371080Y-126646863D01*
X159370955Y-126648605D01*
X159370955Y-126648608D01*
X159355698Y-126861930D01*
X159355698Y-126861931D01*
X159355003Y-126871653D01*
X159355142Y-126871653D01*
X159357085Y-126877632D01*
X159357012Y-126878650D01*
X159357798Y-126883610D01*
X159359027Y-126883610D01*
X159359027Y-126886312D01*
X159358447Y-126887712D01*
X159359027Y-126891372D01*
X159359027Y-127451934D01*
X159357540Y-127461322D01*
X159357541Y-127464273D01*
X159355142Y-127471652D01*
X159357540Y-127479034D01*
X159357541Y-127486793D01*
X159357009Y-127486793D01*
X159357504Y-127490992D01*
X159349381Y-127594216D01*
X159341791Y-127690656D01*
X159340590Y-127698238D01*
X159315398Y-127803171D01*
X159290207Y-127908097D01*
X159287831Y-127915409D01*
X159205240Y-128114802D01*
X159201749Y-128121653D01*
X159088989Y-128305661D01*
X159084470Y-128311882D01*
X158944300Y-128476001D01*
X158938875Y-128481426D01*
X158828091Y-128576044D01*
X158774756Y-128621596D01*
X158768535Y-128626115D01*
X158584527Y-128738875D01*
X158577676Y-128742366D01*
X158378283Y-128824957D01*
X158370971Y-128827333D01*
X158266045Y-128852524D01*
X158161112Y-128877716D01*
X158153524Y-128878918D01*
X157953866Y-128894630D01*
X157949667Y-128894135D01*
X157949667Y-128894667D01*
X157941908Y-128894666D01*
X157934527Y-128892267D01*
X157927147Y-128894667D01*
X157924196Y-128894666D01*
X157914808Y-128896153D01*
X94454246Y-128896153D01*
X94444858Y-128894667D01*
X94441907Y-128894666D01*
X94434527Y-128892268D01*
X94427147Y-128894666D01*
X94419385Y-128894666D01*
X94419385Y-128894360D01*
X94415182Y-128894885D01*
X94186531Y-128879899D01*
X94180176Y-128879061D01*
X93939586Y-128831205D01*
X93933398Y-128829548D01*
X93821479Y-128791556D01*
X93701091Y-128750690D01*
X93695170Y-128748237D01*
X93475157Y-128639739D01*
X93469606Y-128636534D01*
X93265637Y-128500246D01*
X93260551Y-128496344D01*
X93076115Y-128334596D01*
X93071583Y-128330064D01*
X92909836Y-128145629D01*
X92905934Y-128140544D01*
X92769646Y-127936574D01*
X92766441Y-127931023D01*
X92657943Y-127711010D01*
X92655490Y-127705089D01*
X92614624Y-127584700D01*
X92576632Y-127472782D01*
X92574976Y-127466597D01*
X92527118Y-127226001D01*
X92526281Y-127219651D01*
X92520765Y-127135482D01*
X92511294Y-126990998D01*
X92511820Y-126986795D01*
X92511514Y-126986795D01*
X92511514Y-126979033D01*
X92513912Y-126971653D01*
X92511514Y-126964273D01*
X92511514Y-126961322D01*
X92510027Y-126951934D01*
X92510027Y-124045653D01*
X185733740Y-124045653D01*
X185713565Y-124105087D01*
G37*
%TD.AperFunction*%
%TD*%
%TA.AperFunction,Conductor*%
%TO.N,GND*%
G36*
X185857540Y-123361322D02*
G01*
X185857540Y-123364273D01*
X185855142Y-123371653D01*
X185857540Y-123379033D01*
X185857540Y-123386795D01*
X185857234Y-123386796D01*
X185857760Y-123390998D01*
X185848289Y-123535482D01*
X185842773Y-123619651D01*
X185841936Y-123626001D01*
X185794078Y-123866597D01*
X185792422Y-123872782D01*
X185754430Y-123984702D01*
X185713564Y-124105089D01*
X185711111Y-124111010D01*
X185602613Y-124331023D01*
X185599408Y-124336574D01*
X185463120Y-124540544D01*
X185459218Y-124545629D01*
X185297471Y-124730065D01*
X185292940Y-124734597D01*
X185108503Y-124896344D01*
X185103418Y-124900247D01*
X184899448Y-125036534D01*
X184893897Y-125039739D01*
X184673884Y-125148237D01*
X184667963Y-125150690D01*
X184472858Y-125216920D01*
X184435660Y-125229547D01*
X184429467Y-125231205D01*
X184188879Y-125279062D01*
X184182523Y-125279899D01*
X183953872Y-125294885D01*
X183949669Y-125294360D01*
X183949669Y-125294666D01*
X183941907Y-125294666D01*
X183934527Y-125292268D01*
X183927147Y-125294666D01*
X183924196Y-125294667D01*
X183914808Y-125296153D01*
X176344434Y-125296153D01*
X176981883Y-80887154D01*
X179014809Y-80887153D01*
X179024195Y-80888640D01*
X179027147Y-80888640D01*
X179034527Y-80891038D01*
X179041907Y-80888640D01*
X179049669Y-80888641D01*
X179049669Y-80888946D01*
X179053872Y-80888421D01*
X179282523Y-80903407D01*
X179288878Y-80904244D01*
X179529468Y-80952101D01*
X179535658Y-80953759D01*
X179572858Y-80966386D01*
X179767964Y-81032616D01*
X179773884Y-81035069D01*
X179993897Y-81143567D01*
X179999448Y-81146772D01*
X180203418Y-81283060D01*
X180208503Y-81286962D01*
X180392938Y-81448709D01*
X180397471Y-81453241D01*
X180559218Y-81637677D01*
X180563120Y-81642762D01*
X180699408Y-81846732D01*
X180702613Y-81852283D01*
X180811111Y-82072296D01*
X180813565Y-82078217D01*
X180854430Y-82198605D01*
X180892422Y-82310524D01*
X180894078Y-82316709D01*
X180941936Y-82557305D01*
X180942773Y-82563655D01*
X180948290Y-82647824D01*
X180957758Y-82792308D01*
X180957234Y-82796511D01*
X180957540Y-82796512D01*
X180957540Y-82804273D01*
X180955142Y-82811653D01*
X180957540Y-82819033D01*
X180957540Y-82821984D01*
X180959028Y-82831372D01*
X180959027Y-111951933D01*
X180958544Y-111954983D01*
X180958696Y-111955618D01*
X180959027Y-111956417D01*
X180959027Y-111959696D01*
X180955142Y-111971653D01*
X180954574Y-111971653D01*
X180955266Y-111982214D01*
X180972263Y-112241546D01*
X180972264Y-112241553D01*
X180972368Y-112243141D01*
X180972679Y-112244708D01*
X180972680Y-112244711D01*
X181025132Y-112508401D01*
X181025132Y-112508403D01*
X181025447Y-112509984D01*
X181112901Y-112767617D01*
X181126491Y-112795175D01*
X181232524Y-113010189D01*
X181232527Y-113010193D01*
X181233235Y-113011630D01*
X181234126Y-113012963D01*
X181234128Y-113012967D01*
X181383496Y-113236512D01*
X181383498Y-113236515D01*
X181384388Y-113237848D01*
X181563778Y-113442402D01*
X181768332Y-113621792D01*
X181994551Y-113772946D01*
X182072277Y-113811276D01*
X182237125Y-113892570D01*
X182237127Y-113892571D01*
X182238563Y-113893279D01*
X182496197Y-113980733D01*
X182763040Y-114033812D01*
X183034527Y-114051606D01*
X183034527Y-114051038D01*
X183039227Y-114049511D01*
X183039317Y-114049517D01*
X183046484Y-114048382D01*
X183046484Y-114047153D01*
X183049187Y-114047153D01*
X183050587Y-114047733D01*
X183054247Y-114047153D01*
X183914808Y-114047153D01*
X183924197Y-114048640D01*
X183927147Y-114048640D01*
X183934527Y-114051038D01*
X183941907Y-114048640D01*
X183949669Y-114048640D01*
X183949669Y-114048946D01*
X183953872Y-114048421D01*
X184182523Y-114063407D01*
X184188878Y-114064245D01*
X184429467Y-114112101D01*
X184435660Y-114113759D01*
X184472858Y-114126387D01*
X184667963Y-114192616D01*
X184673884Y-114195069D01*
X184893897Y-114303567D01*
X184899448Y-114306772D01*
X185103418Y-114443059D01*
X185108503Y-114446962D01*
X185292940Y-114608709D01*
X185297471Y-114613241D01*
X185459218Y-114797677D01*
X185463120Y-114802762D01*
X185599408Y-115006732D01*
X185602613Y-115012283D01*
X185711111Y-115232296D01*
X185713564Y-115238217D01*
X185754430Y-115358606D01*
X185792422Y-115470524D01*
X185794078Y-115476709D01*
X185841936Y-115717305D01*
X185842773Y-115723655D01*
X185848289Y-115807824D01*
X185857760Y-115952308D01*
X185857233Y-115956511D01*
X185857540Y-115956511D01*
X185857540Y-115964273D01*
X185855142Y-115971653D01*
X185857540Y-115979033D01*
X185857540Y-115981984D01*
X185859027Y-115991372D01*
X185859027Y-123351934D01*
X185857540Y-123361322D01*
G37*
%TD.AperFunction*%
%TD*%
%TA.AperFunction,Conductor*%
%TO.N,GND*%
G36*
X185632113Y-123356216D02*
G01*
X185631305Y-123360798D01*
X185629391Y-123371653D01*
X185631305Y-123382508D01*
X185631305Y-123393531D01*
X185630940Y-123393531D01*
X185631578Y-123405889D01*
X185624713Y-123501863D01*
X185617371Y-123604534D01*
X185614814Y-123622321D01*
X185578224Y-123790520D01*
X185567101Y-123841649D01*
X185562037Y-123858898D01*
X185483595Y-124069213D01*
X185476129Y-124085558D01*
X185368554Y-124282565D01*
X185358837Y-124297686D01*
X185224321Y-124477378D01*
X185212548Y-124490964D01*
X185053838Y-124649674D01*
X185040252Y-124661447D01*
X184860560Y-124795963D01*
X184845437Y-124805682D01*
X184648437Y-124913253D01*
X184632083Y-124920722D01*
X184421771Y-124999163D01*
X184404523Y-125004227D01*
X184212328Y-125046038D01*
X184185200Y-125051939D01*
X184167404Y-125054498D01*
X183968763Y-125068704D01*
X183956405Y-125068066D01*
X183956405Y-125068431D01*
X183945382Y-125068431D01*
X183934527Y-125066517D01*
X183923672Y-125068431D01*
X183919090Y-125069239D01*
X183897210Y-125071153D01*
X160971843Y-125071153D01*
X160949964Y-125069239D01*
X160934527Y-125066517D01*
X160927549Y-125067747D01*
X160918930Y-125068312D01*
X160713023Y-125081809D01*
X160699010Y-125082728D01*
X160694970Y-125083531D01*
X160694967Y-125083531D01*
X160601893Y-125102046D01*
X160467523Y-125128771D01*
X160463617Y-125130098D01*
X160463613Y-125130099D01*
X160343613Y-125170834D01*
X160244027Y-125204639D01*
X160032346Y-125309029D01*
X160028913Y-125311322D01*
X160028911Y-125311325D01*
X159978428Y-125345056D01*
X159836100Y-125440157D01*
X159833006Y-125442870D01*
X159833001Y-125442874D01*
X159723454Y-125538945D01*
X159658650Y-125595777D01*
X159655941Y-125598865D01*
X159505748Y-125770127D01*
X159505744Y-125770132D01*
X159503030Y-125773226D01*
X159371903Y-125969472D01*
X159267513Y-126181153D01*
X159236816Y-126271583D01*
X159192973Y-126400739D01*
X159192972Y-126400743D01*
X159191646Y-126404649D01*
X159190842Y-126408693D01*
X159190839Y-126408699D01*
X159146405Y-126632093D01*
X159146406Y-126632096D01*
X159145601Y-126636136D01*
X159145331Y-126640247D01*
X159145331Y-126640251D01*
X159139974Y-126721987D01*
X159130621Y-126864675D01*
X159129391Y-126871653D01*
X159132114Y-126887090D01*
X159134027Y-126908969D01*
X159134027Y-127434336D01*
X159132113Y-127456216D01*
X159131305Y-127460798D01*
X159129390Y-127471653D01*
X159131305Y-127482509D01*
X159131305Y-127493531D01*
X159130748Y-127493531D01*
X159131339Y-127505805D01*
X159120038Y-127649412D01*
X159116944Y-127668937D01*
X159077632Y-127832683D01*
X159071527Y-127851477D01*
X159007082Y-128007058D01*
X158998112Y-128024663D01*
X158918314Y-128154882D01*
X158910122Y-128168250D01*
X158898500Y-128184245D01*
X158789142Y-128312287D01*
X158775161Y-128326268D01*
X158647119Y-128435626D01*
X158631126Y-128447247D01*
X158487537Y-128535238D01*
X158469932Y-128544208D01*
X158346878Y-128595179D01*
X158314356Y-128608650D01*
X158295557Y-128614758D01*
X158131813Y-128654070D01*
X158112286Y-128657164D01*
X158001301Y-128665898D01*
X157968682Y-128668465D01*
X157956405Y-128667874D01*
X157956405Y-128668431D01*
X157945383Y-128668431D01*
X157934527Y-128666517D01*
X157923672Y-128668431D01*
X157919090Y-128669239D01*
X157897210Y-128671153D01*
X94471844Y-128671153D01*
X94449964Y-128669239D01*
X94434527Y-128666517D01*
X94423672Y-128668431D01*
X94412649Y-128668431D01*
X94412649Y-128668066D01*
X94400291Y-128668704D01*
X94201650Y-128654498D01*
X94183858Y-128651939D01*
X94015660Y-128615350D01*
X93964531Y-128604227D01*
X93947283Y-128599163D01*
X93736971Y-128520722D01*
X93720617Y-128513253D01*
X93523617Y-128405682D01*
X93508494Y-128395963D01*
X93328802Y-128261447D01*
X93315216Y-128249674D01*
X93156506Y-128090964D01*
X93144733Y-128077378D01*
X93010217Y-127897686D01*
X93000500Y-127882566D01*
X92892925Y-127685559D01*
X92885460Y-127669212D01*
X92822079Y-127499280D01*
X92807017Y-127458897D01*
X92801953Y-127441648D01*
X92754240Y-127222322D01*
X92751683Y-127204534D01*
X92744341Y-127101863D01*
X92737476Y-127005889D01*
X92738114Y-126993531D01*
X92737749Y-126993532D01*
X92737749Y-126982508D01*
X92739663Y-126971653D01*
X92737749Y-126960798D01*
X92736941Y-126956216D01*
X92735027Y-126934336D01*
X92735027Y-120008970D01*
X92736941Y-119987090D01*
X92737749Y-119982508D01*
X92739663Y-119971654D01*
X92737750Y-119960798D01*
X92737749Y-119949775D01*
X92738114Y-119949775D01*
X92737477Y-119937417D01*
X92744340Y-119841443D01*
X92751683Y-119738772D01*
X92754240Y-119720984D01*
X92801953Y-119501658D01*
X92807016Y-119484409D01*
X92822079Y-119444026D01*
X92885460Y-119274093D01*
X92892925Y-119257747D01*
X93000500Y-119060740D01*
X93010217Y-119045620D01*
X93144733Y-118865928D01*
X93156506Y-118852342D01*
X93315216Y-118693632D01*
X93328802Y-118681859D01*
X93508494Y-118547343D01*
X93523617Y-118537624D01*
X93720617Y-118430053D01*
X93736971Y-118422584D01*
X93947283Y-118344143D01*
X93964531Y-118339079D01*
X94015660Y-118327956D01*
X94183858Y-118291366D01*
X94201649Y-118288808D01*
X94400291Y-118274602D01*
X94412649Y-118275240D01*
X94412649Y-118274875D01*
X94423672Y-118274875D01*
X94434527Y-118276789D01*
X94438248Y-118276133D01*
X94449964Y-118275425D01*
X94708531Y-118259783D01*
X94708536Y-118259783D01*
X94712328Y-118259554D01*
X94986079Y-118209387D01*
X95251787Y-118126590D01*
X95505577Y-118012368D01*
X95743749Y-117868388D01*
X95864237Y-117773992D01*
X95959826Y-117699102D01*
X95959829Y-117699100D01*
X95962829Y-117696749D01*
X96159623Y-117499955D01*
X96161976Y-117496952D01*
X96328919Y-117283866D01*
X96328921Y-117283863D01*
X96331262Y-117280875D01*
X96393812Y-117177405D01*
X96473272Y-117045964D01*
X96473273Y-117045960D01*
X96475242Y-117042703D01*
X96537792Y-116903723D01*
X96587900Y-116792389D01*
X96587902Y-116792383D01*
X96589464Y-116788913D01*
X96672261Y-116523205D01*
X96722429Y-116249454D01*
X96722657Y-116245662D01*
X96722658Y-116245657D01*
X96738354Y-115986169D01*
X96739007Y-115975374D01*
X96739664Y-115971653D01*
X96737749Y-115960798D01*
X96736941Y-115956216D01*
X96735027Y-115934336D01*
X96735027Y-82848970D01*
X96736941Y-82827090D01*
X96737749Y-82822508D01*
X96739664Y-82811653D01*
X96737749Y-82800798D01*
X96737749Y-82789775D01*
X96738114Y-82789775D01*
X96737476Y-82777417D01*
X96744340Y-82681443D01*
X96751683Y-82578772D01*
X96754240Y-82560984D01*
X96801953Y-82341658D01*
X96807018Y-82324409D01*
X96822079Y-82284026D01*
X96885460Y-82114093D01*
X96892925Y-82097747D01*
X97000500Y-81900740D01*
X97010217Y-81885620D01*
X97144733Y-81705928D01*
X97156506Y-81692342D01*
X97315216Y-81533632D01*
X97328802Y-81521859D01*
X97508494Y-81387343D01*
X97523617Y-81377624D01*
X97720617Y-81270053D01*
X97736971Y-81262584D01*
X97947283Y-81184143D01*
X97964531Y-81179079D01*
X98015660Y-81167956D01*
X98183858Y-81131366D01*
X98201651Y-81128808D01*
X98400291Y-81114602D01*
X98412648Y-81115240D01*
X98412649Y-81114875D01*
X98423672Y-81114875D01*
X98434527Y-81116789D01*
X98449965Y-81114067D01*
X98471844Y-81112154D01*
X107539434Y-81112153D01*
X107539434Y-113154115D01*
X107331797Y-113171552D01*
X107131502Y-113228986D01*
X107126020Y-113231804D01*
X107126016Y-113231805D01*
X106951665Y-113321409D01*
X106951661Y-113321412D01*
X106946177Y-113324230D01*
X106941344Y-113328062D01*
X106787711Y-113449827D01*
X106787706Y-113449832D01*
X106782881Y-113453656D01*
X106647834Y-113612335D01*
X106644828Y-113617714D01*
X106644827Y-113617716D01*
X106597008Y-113703280D01*
X106546181Y-113794224D01*
X106481792Y-113992393D01*
X106457120Y-114199293D01*
X106457592Y-114205429D01*
X106457592Y-114205430D01*
X106472633Y-114400905D01*
X106472634Y-114400909D01*
X106473106Y-114407047D01*
X106529140Y-114607738D01*
X106531920Y-114613242D01*
X106531921Y-114613244D01*
X106620309Y-114788223D01*
X106620310Y-114788225D01*
X106623088Y-114793724D01*
X106751371Y-114957919D01*
X106909104Y-115094070D01*
X107090278Y-115196992D01*
X107287993Y-115262762D01*
X107494717Y-115288878D01*
X107524527Y-115289294D01*
X107731900Y-115268961D01*
X107931373Y-115208736D01*
X108115351Y-115110914D01*
X108122305Y-115105244D01*
X108166646Y-115069080D01*
X108276823Y-114979220D01*
X108409642Y-114818670D01*
X108508746Y-114635381D01*
X108570362Y-114436332D01*
X108571006Y-114430208D01*
X108571006Y-114430206D01*
X108591499Y-114235235D01*
X108591498Y-114235233D01*
X108592142Y-114229106D01*
X108580246Y-114098392D01*
X108573816Y-114027738D01*
X108573816Y-114027737D01*
X108573257Y-114021597D01*
X108571516Y-114015683D01*
X108571516Y-114015681D01*
X108568540Y-114005570D01*
X108514426Y-113821708D01*
X108417891Y-113637052D01*
X108287327Y-113474664D01*
X108127709Y-113340728D01*
X107945116Y-113240346D01*
X107746503Y-113177343D01*
X107539434Y-113154115D01*
X107539434Y-81112153D01*
X112539434Y-81112153D01*
X112539434Y-113154116D01*
X112331797Y-113171552D01*
X112131502Y-113228986D01*
X112126020Y-113231804D01*
X112126016Y-113231805D01*
X111951665Y-113321409D01*
X111951661Y-113321412D01*
X111946177Y-113324230D01*
X111941344Y-113328061D01*
X111787711Y-113449827D01*
X111787706Y-113449832D01*
X111782881Y-113453656D01*
X111647834Y-113612335D01*
X111644828Y-113617714D01*
X111644827Y-113617716D01*
X111597008Y-113703280D01*
X111546181Y-113794224D01*
X111481792Y-113992393D01*
X111457120Y-114199294D01*
X111457592Y-114205429D01*
X111457592Y-114205430D01*
X111472633Y-114400905D01*
X111472634Y-114400909D01*
X111473107Y-114407047D01*
X111529140Y-114607737D01*
X111531920Y-114613242D01*
X111531921Y-114613244D01*
X111620309Y-114788223D01*
X111620310Y-114788225D01*
X111623088Y-114793724D01*
X111751371Y-114957919D01*
X111909104Y-115094070D01*
X112090278Y-115196991D01*
X112287993Y-115262762D01*
X112494717Y-115288878D01*
X112524527Y-115289294D01*
X112731900Y-115268961D01*
X112931373Y-115208737D01*
X113115351Y-115110914D01*
X113122304Y-115105243D01*
X113166645Y-115069079D01*
X113276823Y-114979220D01*
X113409642Y-114818670D01*
X113508746Y-114635381D01*
X113570362Y-114436332D01*
X113571005Y-114430207D01*
X113571006Y-114430206D01*
X113591497Y-114235235D01*
X113591498Y-114235233D01*
X113592142Y-114229106D01*
X113580246Y-114098391D01*
X113573816Y-114027738D01*
X113573816Y-114027737D01*
X113573257Y-114021597D01*
X113571516Y-114015683D01*
X113571516Y-114015681D01*
X113568540Y-114005570D01*
X113514426Y-113821708D01*
X113417891Y-113637052D01*
X113287327Y-113474664D01*
X113127709Y-113340728D01*
X112945116Y-113240346D01*
X112746502Y-113177342D01*
X112539434Y-113154116D01*
X112539434Y-81112153D01*
X126065017Y-81112153D01*
X126065016Y-98200747D01*
X126046974Y-98202739D01*
X126028128Y-98204819D01*
X126013645Y-98205578D01*
X125976522Y-98205385D01*
X125944645Y-98213038D01*
X125929070Y-98215755D01*
X125896493Y-98219352D01*
X125861619Y-98232114D01*
X125847765Y-98236296D01*
X125811660Y-98244965D01*
X125804907Y-98248450D01*
X125782538Y-98259996D01*
X125768050Y-98266355D01*
X125737270Y-98277619D01*
X125730967Y-98281855D01*
X125706459Y-98298323D01*
X125693979Y-98305704D01*
X125660996Y-98322728D01*
X125655274Y-98327720D01*
X125655269Y-98327723D01*
X125636296Y-98344274D01*
X125623743Y-98353906D01*
X125596544Y-98372183D01*
X125591432Y-98377801D01*
X125571562Y-98399638D01*
X125561197Y-98409788D01*
X125533231Y-98434184D01*
X125528866Y-98440394D01*
X125528864Y-98440397D01*
X125514389Y-98460994D01*
X125504494Y-98473344D01*
X125487551Y-98491964D01*
X125487548Y-98491968D01*
X125482436Y-98497586D01*
X125474814Y-98511624D01*
X125464724Y-98530207D01*
X125457082Y-98542531D01*
X125440112Y-98566678D01*
X125440110Y-98566683D01*
X125435740Y-98572900D01*
X125423835Y-98603435D01*
X125417173Y-98617785D01*
X125405159Y-98639911D01*
X125405154Y-98639920D01*
X125401535Y-98646588D01*
X125399608Y-98653932D01*
X125399608Y-98653933D01*
X125392119Y-98682481D01*
X125387636Y-98696280D01*
X125376910Y-98723789D01*
X125376909Y-98723791D01*
X125374151Y-98730866D01*
X125370732Y-98756833D01*
X125369872Y-98763365D01*
X125366828Y-98778882D01*
X125358511Y-98810586D01*
X125357887Y-98850324D01*
X125357647Y-98856226D01*
X125357127Y-98860179D01*
X125357127Y-98897732D01*
X125357111Y-98899711D01*
X125355967Y-98972518D01*
X125355967Y-98972521D01*
X125355848Y-98980113D01*
X125356824Y-98984375D01*
X125357127Y-98990155D01*
X125357127Y-111343732D01*
X125357111Y-111345711D01*
X125355967Y-111418514D01*
X125355967Y-111418517D01*
X125355848Y-111426113D01*
X125365106Y-111466535D01*
X125367368Y-111479497D01*
X125372351Y-111520673D01*
X125382400Y-111547266D01*
X125387352Y-111563671D01*
X125393699Y-111591382D01*
X125412327Y-111628418D01*
X125417629Y-111640497D01*
X125423835Y-111656921D01*
X125432282Y-111679276D01*
X125436583Y-111685533D01*
X125436585Y-111685536D01*
X125448383Y-111702704D01*
X125457106Y-111717452D01*
X125469880Y-111742850D01*
X125474811Y-111748624D01*
X125474814Y-111748629D01*
X125496804Y-111774376D01*
X125504832Y-111784838D01*
X125524008Y-111812739D01*
X125524013Y-111812745D01*
X125528315Y-111819004D01*
X125549540Y-111837915D01*
X125561531Y-111850160D01*
X125579993Y-111871777D01*
X125613653Y-111895962D01*
X125623947Y-111904209D01*
X125649241Y-111926745D01*
X125649242Y-111926746D01*
X125654907Y-111931793D01*
X125661616Y-111935346D01*
X125680037Y-111945100D01*
X125694595Y-111954126D01*
X125717680Y-111970714D01*
X125756143Y-111986177D01*
X125768106Y-111991729D01*
X125798032Y-112007574D01*
X125804745Y-112011129D01*
X125812117Y-112012981D01*
X125832323Y-112018057D01*
X125848620Y-112023352D01*
X125874993Y-112033954D01*
X125916038Y-112039796D01*
X125928977Y-112042335D01*
X125961812Y-112050582D01*
X125961813Y-112050582D01*
X125969186Y-112052434D01*
X125997614Y-112052583D01*
X126014707Y-112053838D01*
X126038765Y-112057262D01*
X126038768Y-112057262D01*
X126042849Y-112057843D01*
X126057627Y-112057998D01*
X126090166Y-112054060D01*
X126105956Y-112053149D01*
X126113291Y-112053189D01*
X126138732Y-112053322D01*
X126174830Y-112044656D01*
X126189104Y-112042088D01*
X126218405Y-112038541D01*
X126218407Y-112038542D01*
X126225947Y-112037629D01*
X126233114Y-112034921D01*
X126256605Y-112026045D01*
X126271726Y-112021393D01*
X126296211Y-112015514D01*
X126296213Y-112015513D01*
X126303595Y-112013741D01*
X126310337Y-112010261D01*
X126310343Y-112010258D01*
X126336576Y-111996720D01*
X126349826Y-111990819D01*
X126377450Y-111980381D01*
X126384550Y-111977698D01*
X126411560Y-111959134D01*
X126425140Y-111951007D01*
X126447504Y-111939464D01*
X126447505Y-111939464D01*
X126454258Y-111935978D01*
X126482226Y-111911580D01*
X126493688Y-111902688D01*
X126518019Y-111885967D01*
X126518021Y-111885965D01*
X126524278Y-111881665D01*
X126546081Y-111857194D01*
X126557323Y-111846069D01*
X126562470Y-111841579D01*
X126582023Y-111824522D01*
X126586939Y-111817528D01*
X126591438Y-111811126D01*
X126603370Y-111794148D01*
X126612376Y-111782786D01*
X126632013Y-111760747D01*
X126632015Y-111760745D01*
X126637067Y-111755074D01*
X126652402Y-111726112D01*
X126660668Y-111712623D01*
X126675148Y-111692019D01*
X126675150Y-111692016D01*
X126679514Y-111685806D01*
X126692996Y-111651229D01*
X126699034Y-111638040D01*
X126712849Y-111611949D01*
X126712853Y-111611939D01*
X126716403Y-111605234D01*
X126718252Y-111597872D01*
X126718253Y-111597870D01*
X126724387Y-111573449D01*
X126729196Y-111558380D01*
X126741103Y-111527840D01*
X126742903Y-111514168D01*
X126745948Y-111491041D01*
X126748666Y-111476794D01*
X126755856Y-111448167D01*
X126757708Y-111440794D01*
X126757749Y-111433195D01*
X126757748Y-111433193D01*
X126757916Y-111401119D01*
X126757964Y-111399766D01*
X126758128Y-111398527D01*
X126758127Y-111361072D01*
X126758129Y-111360412D01*
X126758596Y-111271248D01*
X126758235Y-111269744D01*
X126758128Y-111267872D01*
X126758127Y-98915072D01*
X126758129Y-98914412D01*
X126758596Y-98825248D01*
X126751550Y-98795899D01*
X126749929Y-98789150D01*
X126747362Y-98774876D01*
X126743816Y-98745575D01*
X126743816Y-98745573D01*
X126742903Y-98738032D01*
X126740218Y-98730925D01*
X126740217Y-98730924D01*
X126731319Y-98707375D01*
X126726667Y-98692254D01*
X126720788Y-98667769D01*
X126720787Y-98667767D01*
X126719015Y-98660385D01*
X126715535Y-98653644D01*
X126715533Y-98653637D01*
X126701993Y-98627404D01*
X126696093Y-98614154D01*
X126682972Y-98579431D01*
X126667430Y-98556817D01*
X126664408Y-98552420D01*
X126656281Y-98538841D01*
X126652402Y-98531325D01*
X126641252Y-98509722D01*
X126636257Y-98503997D01*
X126636257Y-98503996D01*
X126616854Y-98481754D01*
X126607963Y-98470292D01*
X126607542Y-98469681D01*
X126586938Y-98439702D01*
X126562470Y-98417901D01*
X126551344Y-98406657D01*
X126529796Y-98381957D01*
X126499422Y-98360610D01*
X126488064Y-98351607D01*
X126460348Y-98326913D01*
X126453634Y-98323358D01*
X126431386Y-98311578D01*
X126417897Y-98303312D01*
X126411560Y-98298859D01*
X126391080Y-98284466D01*
X126356503Y-98270986D01*
X126343314Y-98264946D01*
X126317223Y-98251131D01*
X126317213Y-98251127D01*
X126310508Y-98247577D01*
X126303146Y-98245728D01*
X126303144Y-98245727D01*
X126278723Y-98239593D01*
X126263653Y-98234784D01*
X126233114Y-98222877D01*
X126225587Y-98221886D01*
X126196315Y-98218032D01*
X126182068Y-98215314D01*
X126174830Y-98213496D01*
X126146068Y-98206273D01*
X126138469Y-98206232D01*
X126138467Y-98206232D01*
X126113292Y-98206100D01*
X126097508Y-98205024D01*
X126072549Y-98201738D01*
X126072543Y-98201739D01*
X126065016Y-98200747D01*
X126065017Y-81112153D01*
X161045916Y-81112153D01*
X161045916Y-90574047D01*
X161027875Y-90576039D01*
X161006559Y-90578391D01*
X160992733Y-90579153D01*
X159289168Y-90579153D01*
X159280597Y-90578861D01*
X159267581Y-90577974D01*
X159223597Y-90574975D01*
X159216121Y-90576280D01*
X159216118Y-90576280D01*
X159161396Y-90585831D01*
X159154869Y-90586794D01*
X159129390Y-90589877D01*
X159092207Y-90594377D01*
X159085099Y-90597062D01*
X159081807Y-90597871D01*
X159067336Y-90601830D01*
X159064060Y-90602819D01*
X159056573Y-90604126D01*
X159049614Y-90607181D01*
X159049613Y-90607181D01*
X158998767Y-90629500D01*
X158992661Y-90631992D01*
X158944757Y-90650094D01*
X158933604Y-90654309D01*
X158927350Y-90658607D01*
X158924324Y-90660187D01*
X158911228Y-90667478D01*
X158908284Y-90669219D01*
X158901325Y-90672274D01*
X158895297Y-90676899D01*
X158895296Y-90676900D01*
X158851254Y-90710695D01*
X158845918Y-90714572D01*
X158800141Y-90746034D01*
X158800135Y-90746039D01*
X158793876Y-90750341D01*
X158775161Y-90771346D01*
X158752919Y-90796310D01*
X158747937Y-90801586D01*
X157483276Y-92066248D01*
X157420964Y-92100274D01*
X157394181Y-92103153D01*
X133660959Y-92103153D01*
X133644513Y-92102075D01*
X133613916Y-92098047D01*
X133570622Y-92102827D01*
X133566798Y-92103153D01*
X133564011Y-92103153D01*
X133560252Y-92103608D01*
X133560249Y-92103608D01*
X133526606Y-92107680D01*
X133525297Y-92107830D01*
X133445392Y-92116651D01*
X133441899Y-92117930D01*
X133438207Y-92118377D01*
X133431110Y-92121059D01*
X133431105Y-92121060D01*
X133362967Y-92146807D01*
X133361732Y-92147267D01*
X133286171Y-92174919D01*
X133283086Y-92176993D01*
X133279604Y-92178308D01*
X133273342Y-92182613D01*
X133273340Y-92182613D01*
X133213280Y-92223891D01*
X133212189Y-92224632D01*
X133145444Y-92269483D01*
X133142938Y-92272236D01*
X133139876Y-92274341D01*
X133134821Y-92280014D01*
X133134817Y-92280018D01*
X133086361Y-92334404D01*
X133085534Y-92335323D01*
X133031336Y-92394886D01*
X133029561Y-92398155D01*
X133027087Y-92400932D01*
X133006027Y-92440708D01*
X132989428Y-92472058D01*
X132988821Y-92473189D01*
X132950435Y-92543887D01*
X132949491Y-92547484D01*
X132947751Y-92550772D01*
X132928147Y-92628818D01*
X132927838Y-92630026D01*
X132907411Y-92707886D01*
X132907353Y-92711603D01*
X132906446Y-92715212D01*
X132906406Y-92722814D01*
X132906405Y-92722816D01*
X132906024Y-92795740D01*
X132906010Y-92797059D01*
X132904868Y-92869817D01*
X132904867Y-92869820D01*
X132904748Y-92877413D01*
X132905578Y-92881035D01*
X132905558Y-92884758D01*
X132907331Y-92892145D01*
X132907332Y-92892150D01*
X132924344Y-92963008D01*
X132924634Y-92964243D01*
X132942599Y-93042682D01*
X132944271Y-93046007D01*
X132945139Y-93049621D01*
X132982041Y-93121118D01*
X132982632Y-93122279D01*
X132988804Y-93134551D01*
X132992591Y-93142080D01*
X133006027Y-93198694D01*
X133006027Y-93425500D01*
X132990758Y-93485622D01*
X132954060Y-93553211D01*
X132954060Y-93553213D01*
X132950435Y-93559888D01*
X132948507Y-93567237D01*
X132909339Y-93716536D01*
X132909339Y-93716538D01*
X132907411Y-93723887D01*
X132906054Y-93810262D01*
X132904867Y-93885814D01*
X132904867Y-93885817D01*
X132904748Y-93893413D01*
X132906444Y-93900818D01*
X132906444Y-93900819D01*
X132924495Y-93979634D01*
X132942599Y-94058682D01*
X133018780Y-94210151D01*
X133107475Y-94313999D01*
X133123963Y-94333305D01*
X133123964Y-94333305D01*
X133128893Y-94339076D01*
X133266580Y-94438014D01*
X133283086Y-94444649D01*
X133416840Y-94498419D01*
X133416842Y-94498420D01*
X133423893Y-94501254D01*
X133560249Y-94520660D01*
X133587665Y-94524562D01*
X133587668Y-94524562D01*
X133591749Y-94525143D01*
X133606527Y-94525298D01*
X133621447Y-94523493D01*
X133767307Y-94505841D01*
X133774847Y-94504929D01*
X133933450Y-94444998D01*
X134073178Y-94348965D01*
X134109906Y-94307743D01*
X134180915Y-94228045D01*
X134180917Y-94228041D01*
X134185967Y-94222374D01*
X134265304Y-94072534D01*
X134306608Y-93908094D01*
X134306648Y-93900496D01*
X134306648Y-93900494D01*
X134307052Y-93823321D01*
X134307496Y-93738549D01*
X134305722Y-93731161D01*
X134305722Y-93731157D01*
X134292757Y-93677159D01*
X134288534Y-93659568D01*
X134292080Y-93588660D01*
X134333399Y-93530926D01*
X134399373Y-93504696D01*
X134411052Y-93504153D01*
X157707890Y-93504153D01*
X157716461Y-93504445D01*
X157742392Y-93506213D01*
X157773457Y-93508331D01*
X157780933Y-93507026D01*
X157780937Y-93507026D01*
X157835659Y-93497475D01*
X157842185Y-93496512D01*
X157897301Y-93489842D01*
X157904847Y-93488929D01*
X157911954Y-93486244D01*
X157915247Y-93485435D01*
X157929718Y-93481476D01*
X157932994Y-93480487D01*
X157940481Y-93479180D01*
X157968682Y-93466801D01*
X157998285Y-93453807D01*
X158004390Y-93451315D01*
X158015401Y-93447153D01*
X158063450Y-93428998D01*
X158069703Y-93424700D01*
X158072735Y-93423116D01*
X158085811Y-93415836D01*
X158088770Y-93414086D01*
X158095730Y-93411031D01*
X158101757Y-93406406D01*
X158101761Y-93406404D01*
X158145828Y-93372591D01*
X158151146Y-93368726D01*
X158203178Y-93332965D01*
X158244128Y-93287004D01*
X158249108Y-93281729D01*
X159513779Y-92017058D01*
X159576091Y-91983032D01*
X159602874Y-91980153D01*
X160979766Y-91980154D01*
X160997519Y-91981410D01*
X161019665Y-91984562D01*
X161019669Y-91984562D01*
X161023749Y-91985143D01*
X161038527Y-91985298D01*
X161053447Y-91983493D01*
X161073498Y-91981066D01*
X161088636Y-91980153D01*
X162249766Y-91980153D01*
X162267519Y-91981409D01*
X162289665Y-91984562D01*
X162289669Y-91984562D01*
X162293748Y-91985143D01*
X162308527Y-91985298D01*
X162315916Y-91984404D01*
X162315916Y-96162047D01*
X162147392Y-96180652D01*
X161988171Y-96238919D01*
X161847444Y-96333483D01*
X161842337Y-96339095D01*
X161842334Y-96339098D01*
X161738450Y-96453265D01*
X161738447Y-96453269D01*
X161733336Y-96458887D01*
X161729713Y-96465559D01*
X161729710Y-96465563D01*
X161656060Y-96601211D01*
X161656059Y-96601213D01*
X161652435Y-96607887D01*
X161650508Y-96615237D01*
X161611339Y-96764536D01*
X161611339Y-96764538D01*
X161609411Y-96771886D01*
X161607695Y-96881156D01*
X161586626Y-96948953D01*
X161570806Y-96968271D01*
X161506177Y-97032900D01*
X161495088Y-97042754D01*
X161475818Y-97057946D01*
X161468417Y-97063781D01*
X161463062Y-97071527D01*
X161463061Y-97071530D01*
X161435072Y-97112028D01*
X161432777Y-97115240D01*
X161397893Y-97162469D01*
X161395499Y-97169285D01*
X161391396Y-97175223D01*
X161388556Y-97184202D01*
X161388555Y-97184204D01*
X161382177Y-97204369D01*
X161373701Y-97231172D01*
X161372456Y-97234903D01*
X161356131Y-97281390D01*
X161356131Y-97281392D01*
X161353008Y-97290284D01*
X161352727Y-97297472D01*
X161352715Y-97297531D01*
X161350547Y-97304383D01*
X161350027Y-97310990D01*
X161350027Y-97363669D01*
X161349930Y-97368615D01*
X161347689Y-97425647D01*
X161349573Y-97432753D01*
X161350027Y-97440997D01*
X161350027Y-104548291D01*
X161330026Y-104616412D01*
X161276370Y-104662905D01*
X161206095Y-104673009D01*
X161151576Y-104651377D01*
X161124202Y-104632138D01*
X161124197Y-104632135D01*
X161117981Y-104627766D01*
X160960014Y-104566177D01*
X160952481Y-104565185D01*
X160952480Y-104565185D01*
X160828354Y-104548844D01*
X160763427Y-104520122D01*
X160755705Y-104513017D01*
X159765757Y-103523069D01*
X159758294Y-103513728D01*
X159757904Y-103514060D01*
X159752086Y-103507224D01*
X159747296Y-103499632D01*
X159740568Y-103493690D01*
X159740567Y-103493689D01*
X159707625Y-103464597D01*
X159701937Y-103459249D01*
X159690720Y-103448033D01*
X159687132Y-103445343D01*
X159687132Y-103445342D01*
X159682542Y-103441902D01*
X159674706Y-103435522D01*
X159657502Y-103420329D01*
X159619681Y-103360245D01*
X159620350Y-103289251D01*
X159646830Y-103242067D01*
X159648790Y-103239867D01*
X159707625Y-103173831D01*
X159746015Y-103130745D01*
X159746017Y-103130741D01*
X159751067Y-103125074D01*
X159755803Y-103116130D01*
X159793735Y-103044487D01*
X159830403Y-102975234D01*
X159871708Y-102810794D01*
X159871748Y-102803196D01*
X159871748Y-102803194D01*
X159872152Y-102726021D01*
X159872596Y-102641248D01*
X159870822Y-102633861D01*
X159870822Y-102633857D01*
X159836407Y-102490515D01*
X159833015Y-102476385D01*
X159829534Y-102469641D01*
X159829533Y-102469638D01*
X159826852Y-102464442D01*
X159755252Y-102325723D01*
X159750261Y-102320000D01*
X159750259Y-102319998D01*
X159693891Y-102255383D01*
X159643797Y-102197957D01*
X159637582Y-102193590D01*
X159513779Y-102106580D01*
X159505080Y-102100466D01*
X159347114Y-102038877D01*
X159339581Y-102037885D01*
X159339580Y-102037886D01*
X159190840Y-102018304D01*
X159179016Y-102016747D01*
X159010492Y-102035352D01*
X158978396Y-102047098D01*
X158898500Y-102076336D01*
X158851271Y-102093619D01*
X158710544Y-102188183D01*
X158705438Y-102193795D01*
X158705434Y-102193798D01*
X158601550Y-102307965D01*
X158601547Y-102307969D01*
X158596436Y-102313586D01*
X158592813Y-102320259D01*
X158592810Y-102320263D01*
X158519160Y-102455911D01*
X158519159Y-102455913D01*
X158515535Y-102462588D01*
X158498176Y-102528757D01*
X158494225Y-102543817D01*
X158457591Y-102604632D01*
X158393894Y-102635988D01*
X158372349Y-102637843D01*
X153851266Y-102637843D01*
X153783145Y-102617840D01*
X153736652Y-102564184D01*
X153726548Y-102493911D01*
X153732613Y-102470614D01*
X153734403Y-102467234D01*
X153736652Y-102458281D01*
X153773857Y-102310163D01*
X153775708Y-102302794D01*
X153775749Y-102295196D01*
X153775748Y-102295194D01*
X153776152Y-102218021D01*
X153776596Y-102133248D01*
X153774822Y-102125861D01*
X153774822Y-102125857D01*
X153740407Y-101982515D01*
X153737015Y-101968385D01*
X153733534Y-101961641D01*
X153733533Y-101961638D01*
X153662735Y-101824470D01*
X153659252Y-101817722D01*
X153547796Y-101689957D01*
X153409080Y-101592466D01*
X153251114Y-101530877D01*
X153243581Y-101529885D01*
X153243580Y-101529885D01*
X153119454Y-101513544D01*
X153054527Y-101484822D01*
X153046805Y-101477717D01*
X151828161Y-100259073D01*
X151820695Y-100249729D01*
X151820305Y-100250062D01*
X151814487Y-100243225D01*
X151809698Y-100235633D01*
X151802969Y-100229691D01*
X151802968Y-100229690D01*
X151770027Y-100200598D01*
X151764339Y-100195251D01*
X151753121Y-100184033D01*
X151749533Y-100181344D01*
X151749532Y-100181343D01*
X151744943Y-100177903D01*
X151737105Y-100171521D01*
X151702239Y-100140730D01*
X151694116Y-100136916D01*
X151690963Y-100134845D01*
X151677951Y-100127026D01*
X151674632Y-100125209D01*
X151667451Y-100119827D01*
X151659050Y-100116678D01*
X151659049Y-100116677D01*
X151623891Y-100103497D01*
X151614574Y-100099570D01*
X151580593Y-100083616D01*
X151580590Y-100083616D01*
X151572464Y-100079800D01*
X151563590Y-100078418D01*
X151559976Y-100077314D01*
X151545320Y-100073468D01*
X151541617Y-100072654D01*
X151533207Y-100069501D01*
X151486784Y-100066051D01*
X151476771Y-100064901D01*
X151463618Y-100062853D01*
X151448423Y-100062853D01*
X151439086Y-100062506D01*
X151390235Y-100058877D01*
X151381460Y-100060750D01*
X151372502Y-100061361D01*
X151372502Y-100061355D01*
X151358309Y-100062853D01*
X149684339Y-100062854D01*
X149616218Y-100042851D01*
X149610908Y-100038797D01*
X149610796Y-100038957D01*
X149472080Y-99941466D01*
X149314113Y-99879877D01*
X149306581Y-99878885D01*
X149171893Y-99861154D01*
X149146016Y-99857747D01*
X148977492Y-99876352D01*
X148938009Y-99890800D01*
X148856504Y-99920628D01*
X148818271Y-99934619D01*
X148811968Y-99938855D01*
X148811967Y-99938855D01*
X148792515Y-99951927D01*
X148677544Y-100029183D01*
X148672437Y-100034795D01*
X148672434Y-100034798D01*
X148568550Y-100148965D01*
X148568547Y-100148969D01*
X148563436Y-100154587D01*
X148559813Y-100161259D01*
X148559810Y-100161263D01*
X148486160Y-100296911D01*
X148486159Y-100296913D01*
X148482535Y-100303588D01*
X148480607Y-100310936D01*
X148441439Y-100460236D01*
X148441439Y-100460238D01*
X148439511Y-100467586D01*
X148438154Y-100553962D01*
X148436966Y-100629514D01*
X148436966Y-100629517D01*
X148436848Y-100637113D01*
X148438544Y-100644518D01*
X148438544Y-100644520D01*
X148452382Y-100704939D01*
X148474699Y-100802382D01*
X148550880Y-100953851D01*
X148618537Y-101033066D01*
X148656064Y-101077004D01*
X148656064Y-101077005D01*
X148660993Y-101082776D01*
X148798680Y-101181714D01*
X148818271Y-101189589D01*
X148948940Y-101242119D01*
X148948942Y-101242120D01*
X148955993Y-101244954D01*
X149123849Y-101268843D01*
X149138627Y-101268997D01*
X149153547Y-101267193D01*
X149299407Y-101249541D01*
X149306947Y-101248629D01*
X149465550Y-101188698D01*
X149605278Y-101092665D01*
X149605597Y-101093129D01*
X149665189Y-101065293D01*
X149684190Y-101063853D01*
X151165123Y-101063853D01*
X151233244Y-101083855D01*
X151254218Y-101100758D01*
X152337168Y-102183708D01*
X152371194Y-102246020D01*
X152374057Y-102274773D01*
X152373848Y-102288113D01*
X152375543Y-102295518D01*
X152375544Y-102295519D01*
X152389382Y-102355939D01*
X152411699Y-102453382D01*
X152415111Y-102460166D01*
X152417685Y-102467316D01*
X152415007Y-102468280D01*
X152425367Y-102525069D01*
X152398324Y-102590715D01*
X152340084Y-102631318D01*
X152300063Y-102637843D01*
X141592121Y-102637843D01*
X141524000Y-102617841D01*
X141503026Y-102600938D01*
X140638387Y-101736300D01*
X140604361Y-101673987D01*
X140601484Y-101646545D01*
X140601596Y-101625248D01*
X140599822Y-101617861D01*
X140599822Y-101617857D01*
X140565407Y-101474515D01*
X140562015Y-101460385D01*
X140558534Y-101453641D01*
X140558533Y-101453638D01*
X140487735Y-101316470D01*
X140484252Y-101309722D01*
X140372795Y-101181957D01*
X140234080Y-101084466D01*
X140076114Y-101022877D01*
X140068581Y-101021885D01*
X140068580Y-101021885D01*
X139920844Y-101002437D01*
X139908016Y-101000747D01*
X139739492Y-101019352D01*
X139580272Y-101077619D01*
X139573968Y-101081855D01*
X139573967Y-101081855D01*
X139554514Y-101094927D01*
X139439544Y-101172183D01*
X139434437Y-101177795D01*
X139434434Y-101177798D01*
X139330551Y-101291965D01*
X139330547Y-101291969D01*
X139325436Y-101297586D01*
X139321813Y-101304259D01*
X139321811Y-101304263D01*
X139248160Y-101439912D01*
X139248158Y-101439913D01*
X139244535Y-101446588D01*
X139242607Y-101453937D01*
X139203439Y-101603236D01*
X139203439Y-101603238D01*
X139201511Y-101610586D01*
X139200154Y-101696962D01*
X139198967Y-101772514D01*
X139198967Y-101772517D01*
X139198848Y-101780113D01*
X139200544Y-101787517D01*
X139200544Y-101787519D01*
X139214381Y-101847939D01*
X139236699Y-101945383D01*
X139312880Y-102096851D01*
X139422993Y-102225776D01*
X139560680Y-102324714D01*
X139580271Y-102332590D01*
X139710940Y-102385120D01*
X139710942Y-102385120D01*
X139717993Y-102387954D01*
X139858753Y-102407987D01*
X139923376Y-102437387D01*
X139930095Y-102443635D01*
X140598217Y-103111757D01*
X140632243Y-103174069D01*
X140627178Y-103244884D01*
X140584631Y-103301720D01*
X140518111Y-103326530D01*
X140509121Y-103326852D01*
X131534811Y-103326852D01*
X131522926Y-103325524D01*
X131522885Y-103326034D01*
X131513939Y-103325314D01*
X131505183Y-103323334D01*
X131496223Y-103323889D01*
X131452366Y-103326610D01*
X131444563Y-103326852D01*
X131428690Y-103326852D01*
X131424256Y-103327487D01*
X131418580Y-103328300D01*
X131408524Y-103329330D01*
X131362092Y-103332211D01*
X131353648Y-103335259D01*
X131349936Y-103336028D01*
X131335231Y-103339695D01*
X131331603Y-103340756D01*
X131322712Y-103342029D01*
X131280348Y-103361291D01*
X131270993Y-103365098D01*
X131235688Y-103377843D01*
X131235683Y-103377845D01*
X131227243Y-103380892D01*
X131219995Y-103386187D01*
X131216655Y-103387963D01*
X131203541Y-103395625D01*
X131200369Y-103397655D01*
X131192202Y-103401368D01*
X131185407Y-103407223D01*
X131185404Y-103407225D01*
X131156955Y-103431739D01*
X131149035Y-103438027D01*
X131138294Y-103445874D01*
X131127551Y-103456618D01*
X131120705Y-103462974D01*
X131083592Y-103494952D01*
X131078710Y-103502486D01*
X131072811Y-103509248D01*
X131072806Y-103509244D01*
X131063830Y-103520338D01*
X130748220Y-103835949D01*
X130685908Y-103869974D01*
X130659125Y-103872853D01*
X129237339Y-103872853D01*
X129169218Y-103852851D01*
X129163908Y-103848797D01*
X129163796Y-103848956D01*
X129025080Y-103751466D01*
X128867114Y-103689877D01*
X128699015Y-103667747D01*
X128530492Y-103686352D01*
X128371271Y-103744619D01*
X128364968Y-103748855D01*
X128364967Y-103748855D01*
X128345514Y-103761927D01*
X128230544Y-103839183D01*
X128225437Y-103844794D01*
X128225434Y-103844798D01*
X128121550Y-103958965D01*
X128121547Y-103958969D01*
X128116436Y-103964586D01*
X128112813Y-103971259D01*
X128112810Y-103971263D01*
X128039160Y-104106911D01*
X128039159Y-104106913D01*
X128035535Y-104113588D01*
X128033607Y-104120937D01*
X127994439Y-104270236D01*
X127994439Y-104270238D01*
X127992511Y-104277585D01*
X127991154Y-104363962D01*
X127989967Y-104439514D01*
X127989967Y-104439517D01*
X127989848Y-104447113D01*
X127991544Y-104454518D01*
X127991544Y-104454519D01*
X128005382Y-104514939D01*
X128027699Y-104612381D01*
X128103880Y-104763851D01*
X128213993Y-104892776D01*
X128351680Y-104991714D01*
X128371271Y-104999590D01*
X128501940Y-105052118D01*
X128501942Y-105052121D01*
X128508993Y-105054954D01*
X128676849Y-105078844D01*
X128691627Y-105078998D01*
X128706547Y-105077192D01*
X128852407Y-105059541D01*
X128859947Y-105058629D01*
X129018550Y-104998699D01*
X129158279Y-104902665D01*
X129158597Y-104903129D01*
X129218189Y-104875294D01*
X129237190Y-104873853D01*
X130848448Y-104873853D01*
X130860333Y-104875181D01*
X130860374Y-104874671D01*
X130869320Y-104875391D01*
X130878076Y-104877373D01*
X130930893Y-104874095D01*
X130938696Y-104873853D01*
X130954569Y-104873853D01*
X130964681Y-104872404D01*
X130974735Y-104871375D01*
X131012204Y-104869050D01*
X131021167Y-104868493D01*
X131029611Y-104865446D01*
X131033323Y-104864677D01*
X131048028Y-104861010D01*
X131051656Y-104859949D01*
X131060547Y-104858676D01*
X131102911Y-104839414D01*
X131112266Y-104835607D01*
X131147572Y-104822862D01*
X131147576Y-104822860D01*
X131156016Y-104819813D01*
X131163264Y-104814518D01*
X131166604Y-104812742D01*
X131179718Y-104805079D01*
X131182890Y-104803050D01*
X131191056Y-104799337D01*
X131197852Y-104793482D01*
X131197855Y-104793480D01*
X131226304Y-104768966D01*
X131234225Y-104762677D01*
X131241031Y-104757705D01*
X131244965Y-104754831D01*
X131255709Y-104744088D01*
X131262555Y-104737730D01*
X131292866Y-104711612D01*
X131299666Y-104705754D01*
X131304549Y-104698219D01*
X131310448Y-104691457D01*
X131310453Y-104691461D01*
X131319429Y-104680367D01*
X131635040Y-104364757D01*
X131697351Y-104330731D01*
X131724134Y-104327852D01*
X133613916Y-104327852D01*
X133613916Y-104798046D01*
X133445392Y-104816653D01*
X133286171Y-104874919D01*
X133279868Y-104879155D01*
X133279867Y-104879155D01*
X133260414Y-104892227D01*
X133145444Y-104969483D01*
X133140337Y-104975095D01*
X133140334Y-104975098D01*
X133036450Y-105089265D01*
X133036447Y-105089269D01*
X133031336Y-105094886D01*
X133027713Y-105101559D01*
X133027710Y-105101563D01*
X132954060Y-105237211D01*
X132954059Y-105237213D01*
X132950436Y-105243888D01*
X132948507Y-105251237D01*
X132909339Y-105400536D01*
X132909339Y-105400538D01*
X132907411Y-105407886D01*
X132906054Y-105494262D01*
X132904868Y-105569814D01*
X132904867Y-105569817D01*
X132904748Y-105577413D01*
X132906444Y-105584818D01*
X132906444Y-105584819D01*
X132924495Y-105663634D01*
X132942599Y-105742682D01*
X133018780Y-105894151D01*
X133023709Y-105899923D01*
X133023711Y-105899925D01*
X133075837Y-105960957D01*
X133104869Y-106025747D01*
X133106027Y-106042788D01*
X133106027Y-110474701D01*
X133104699Y-110486586D01*
X133105209Y-110486627D01*
X133104489Y-110495573D01*
X133102508Y-110504329D01*
X133105785Y-110557146D01*
X133106027Y-110564949D01*
X133106027Y-110580822D01*
X133107475Y-110590934D01*
X133108505Y-110600988D01*
X133110242Y-110628979D01*
X133111386Y-110647420D01*
X133114433Y-110655864D01*
X133115203Y-110659576D01*
X133118870Y-110674281D01*
X133119931Y-110677909D01*
X133121204Y-110686801D01*
X133140466Y-110729164D01*
X133144273Y-110738519D01*
X133157018Y-110773825D01*
X133157020Y-110773829D01*
X133160067Y-110782269D01*
X133165362Y-110789517D01*
X133167138Y-110792857D01*
X133174801Y-110805971D01*
X133176830Y-110809144D01*
X133180543Y-110817310D01*
X133186398Y-110824105D01*
X133186400Y-110824107D01*
X133210914Y-110852557D01*
X133217203Y-110860478D01*
X133222175Y-110867284D01*
X133225049Y-110871218D01*
X133235792Y-110881961D01*
X133242150Y-110888808D01*
X133268268Y-110919119D01*
X133274127Y-110925919D01*
X133281661Y-110930802D01*
X133288423Y-110936701D01*
X133288419Y-110936706D01*
X133299513Y-110945682D01*
X135250271Y-112896440D01*
X135284297Y-112958752D01*
X135287160Y-112987505D01*
X135286951Y-113000845D01*
X135288647Y-113008250D01*
X135288647Y-113008251D01*
X135302485Y-113068671D01*
X135324802Y-113166114D01*
X135400983Y-113317583D01*
X135511096Y-113446508D01*
X135648783Y-113545446D01*
X135806096Y-113608686D01*
X135973951Y-113632575D01*
X135988730Y-113632731D01*
X136157050Y-113612361D01*
X136315653Y-113552429D01*
X136455382Y-113456397D01*
X136465893Y-113444599D01*
X136563118Y-113335477D01*
X136563120Y-113335473D01*
X136568170Y-113329806D01*
X136647506Y-113179966D01*
X136688812Y-113015526D01*
X136688850Y-113007928D01*
X136688851Y-113007926D01*
X136689255Y-112930753D01*
X136689699Y-112845979D01*
X136687926Y-112838593D01*
X136687925Y-112838590D01*
X136653510Y-112695248D01*
X136650118Y-112681118D01*
X136646637Y-112674372D01*
X136646636Y-112674370D01*
X136643954Y-112669174D01*
X136572355Y-112530454D01*
X136460899Y-112402689D01*
X136322183Y-112305198D01*
X136164217Y-112243609D01*
X136156684Y-112242617D01*
X136156683Y-112242617D01*
X136032557Y-112226276D01*
X135967630Y-112197554D01*
X135959908Y-112190449D01*
X134143932Y-110374473D01*
X134109906Y-110312161D01*
X134107027Y-110285378D01*
X134107027Y-106042962D01*
X134127029Y-105974841D01*
X134138944Y-105959152D01*
X134185967Y-105906374D01*
X134265303Y-105756534D01*
X134306608Y-105592094D01*
X134306648Y-105584496D01*
X134306648Y-105584494D01*
X134307052Y-105507321D01*
X134307496Y-105422548D01*
X134305722Y-105415161D01*
X134305722Y-105415157D01*
X134271308Y-105271815D01*
X134267916Y-105257685D01*
X134264434Y-105250941D01*
X134264433Y-105250938D01*
X134261751Y-105245742D01*
X134190152Y-105107022D01*
X134185160Y-105101300D01*
X134185159Y-105101298D01*
X134180915Y-105096433D01*
X134078696Y-104979257D01*
X133939980Y-104881767D01*
X133782014Y-104820177D01*
X133613916Y-104798046D01*
X133613916Y-104327852D01*
X159102722Y-104327852D01*
X159170843Y-104347854D01*
X159191817Y-104364757D01*
X159421381Y-104594321D01*
X159455407Y-104656633D01*
X159450342Y-104727448D01*
X159407795Y-104784284D01*
X159341275Y-104809094D01*
X159315841Y-104808338D01*
X159280035Y-104803624D01*
X159280029Y-104803623D01*
X159272502Y-104802633D01*
X159103978Y-104821238D01*
X159077634Y-104830879D01*
X158992661Y-104861975D01*
X158944757Y-104879504D01*
X158804030Y-104974069D01*
X158798923Y-104979681D01*
X158798920Y-104979684D01*
X158695036Y-105093850D01*
X158695033Y-105093855D01*
X158689922Y-105099472D01*
X158686299Y-105106146D01*
X158686296Y-105106148D01*
X158612645Y-105241797D01*
X158612645Y-105241799D01*
X158609021Y-105248474D01*
X158607093Y-105255823D01*
X158567924Y-105405121D01*
X158567924Y-105405125D01*
X158565997Y-105412472D01*
X158565409Y-105449903D01*
X158544340Y-105517700D01*
X158528520Y-105537018D01*
X154819292Y-109246246D01*
X154756980Y-109280272D01*
X154730197Y-109283151D01*
X141258510Y-109283151D01*
X141246625Y-109281823D01*
X141246584Y-109282333D01*
X141237638Y-109281613D01*
X141228883Y-109279632D01*
X141219922Y-109280188D01*
X141176065Y-109282909D01*
X141168262Y-109283151D01*
X141152389Y-109283151D01*
X141147955Y-109283786D01*
X141142279Y-109284599D01*
X141132223Y-109285629D01*
X141085791Y-109288510D01*
X141077347Y-109291558D01*
X141073635Y-109292327D01*
X141058930Y-109295994D01*
X141055302Y-109297055D01*
X141046411Y-109298328D01*
X141004047Y-109317590D01*
X140994692Y-109321397D01*
X140959387Y-109334142D01*
X140959382Y-109334144D01*
X140950942Y-109337191D01*
X140943694Y-109342486D01*
X140940354Y-109344262D01*
X140927240Y-109351924D01*
X140924068Y-109353954D01*
X140915902Y-109357667D01*
X140909106Y-109363522D01*
X140909103Y-109363524D01*
X140880654Y-109388038D01*
X140872734Y-109394326D01*
X140861992Y-109402173D01*
X140851249Y-109412916D01*
X140844404Y-109419274D01*
X140807291Y-109451251D01*
X140802409Y-109458785D01*
X140796510Y-109465547D01*
X140796505Y-109465543D01*
X140787528Y-109476637D01*
X140403516Y-109860649D01*
X140341205Y-109894675D01*
X140328249Y-109896793D01*
X140214492Y-109909352D01*
X140192993Y-109917220D01*
X140068580Y-109962749D01*
X140055271Y-109967619D01*
X140048968Y-109971855D01*
X140048967Y-109971855D01*
X140029514Y-109984927D01*
X139914544Y-110062183D01*
X139909437Y-110067794D01*
X139909433Y-110067798D01*
X139805550Y-110181965D01*
X139805547Y-110181969D01*
X139800436Y-110187586D01*
X139796813Y-110194259D01*
X139796810Y-110194263D01*
X139723160Y-110329911D01*
X139723159Y-110329913D01*
X139719535Y-110336588D01*
X139717607Y-110343937D01*
X139678439Y-110493236D01*
X139678439Y-110493238D01*
X139676511Y-110500585D01*
X139675154Y-110586962D01*
X139673967Y-110662514D01*
X139673967Y-110662517D01*
X139673848Y-110670113D01*
X139675544Y-110677518D01*
X139675544Y-110677519D01*
X139689382Y-110737939D01*
X139711699Y-110835382D01*
X139787880Y-110986851D01*
X139897993Y-111115776D01*
X140035680Y-111214714D01*
X140055271Y-111222590D01*
X140185940Y-111275119D01*
X140185943Y-111275120D01*
X140192992Y-111277954D01*
X140244116Y-111285230D01*
X140356765Y-111301262D01*
X140356768Y-111301262D01*
X140360849Y-111301844D01*
X140375627Y-111301998D01*
X140543947Y-111281629D01*
X140702551Y-111221698D01*
X140796933Y-111156830D01*
X140836019Y-111129967D01*
X140836020Y-111129966D01*
X140842278Y-111125665D01*
X140847331Y-111119994D01*
X140950015Y-111004745D01*
X140950017Y-111004741D01*
X140955067Y-110999074D01*
X141034403Y-110849234D01*
X141075708Y-110684794D01*
X141075747Y-110677196D01*
X141075748Y-110677194D01*
X141075862Y-110655462D01*
X141096222Y-110587448D01*
X141112765Y-110567029D01*
X141358739Y-110321056D01*
X141421050Y-110287030D01*
X141447833Y-110284151D01*
X148604707Y-110284151D01*
X148672828Y-110304153D01*
X148719321Y-110357809D01*
X148729425Y-110428083D01*
X148715436Y-110470274D01*
X148702061Y-110494908D01*
X148702059Y-110494914D01*
X148698435Y-110501588D01*
X148696507Y-110508937D01*
X148657339Y-110658236D01*
X148657339Y-110658238D01*
X148655411Y-110665586D01*
X148654055Y-110751962D01*
X148652867Y-110827514D01*
X148652867Y-110827517D01*
X148652748Y-110835113D01*
X148654444Y-110842518D01*
X148654444Y-110842519D01*
X148672828Y-110922788D01*
X148690599Y-111000382D01*
X148766780Y-111151851D01*
X148876894Y-111280776D01*
X149014580Y-111379714D01*
X149039068Y-111389558D01*
X149055881Y-111396317D01*
X149055881Y-115871153D01*
X149029680Y-115874271D01*
X149021041Y-115878109D01*
X149021040Y-115878109D01*
X149008414Y-115883717D01*
X148927373Y-115919714D01*
X148848286Y-115998940D01*
X148843583Y-116009577D01*
X148843582Y-116009579D01*
X148825405Y-116050695D01*
X148803022Y-116101326D01*
X148800027Y-116127007D01*
X148800028Y-117740299D01*
X148800468Y-117744004D01*
X148800468Y-117744006D01*
X148801349Y-117751399D01*
X148803145Y-117766499D01*
X148811967Y-117786361D01*
X148843864Y-117858171D01*
X148848588Y-117868806D01*
X148927814Y-117947894D01*
X148963519Y-117963680D01*
X149021535Y-117989328D01*
X149030199Y-117993159D01*
X149055882Y-117996153D01*
X149055881Y-118411153D01*
X149029681Y-118414271D01*
X149021041Y-118418109D01*
X149021040Y-118418109D01*
X149008414Y-118423717D01*
X148927374Y-118459714D01*
X148848286Y-118538940D01*
X148843583Y-118549577D01*
X148843582Y-118549579D01*
X148825405Y-118590695D01*
X148803021Y-118641326D01*
X148800027Y-118667007D01*
X148800027Y-120280299D01*
X148800468Y-120284003D01*
X148800468Y-120284006D01*
X148801349Y-120291399D01*
X148803145Y-120306499D01*
X148811966Y-120326361D01*
X148843864Y-120398171D01*
X148848588Y-120408806D01*
X148927815Y-120487894D01*
X148963519Y-120503680D01*
X149021535Y-120529328D01*
X149030200Y-120533159D01*
X149055881Y-120536153D01*
X150669173Y-120536153D01*
X150695373Y-120533035D01*
X150797680Y-120487592D01*
X150876768Y-120408366D01*
X150881471Y-120397729D01*
X150881472Y-120397727D01*
X150907792Y-120338192D01*
X150922033Y-120305980D01*
X150925027Y-120280299D01*
X150925027Y-118667007D01*
X150924586Y-118663303D01*
X150924586Y-118663300D01*
X150923706Y-118655907D01*
X150921909Y-118640807D01*
X150876466Y-118538500D01*
X150797240Y-118459412D01*
X150694854Y-118414147D01*
X150669173Y-118411153D01*
X149055881Y-118411153D01*
X149055882Y-117996153D01*
X150669172Y-117996153D01*
X150695373Y-117993035D01*
X150797680Y-117947592D01*
X150876768Y-117868366D01*
X150881471Y-117857729D01*
X150881472Y-117857728D01*
X150907792Y-117798191D01*
X150922033Y-117765980D01*
X150925026Y-117740299D01*
X150925027Y-116127007D01*
X150924586Y-116123303D01*
X150924587Y-116123300D01*
X150923706Y-116115907D01*
X150921909Y-116100807D01*
X150876467Y-115998500D01*
X150797240Y-115919412D01*
X150694854Y-115874147D01*
X150669173Y-115871153D01*
X149055881Y-115871153D01*
X149055881Y-111396317D01*
X149164840Y-111440119D01*
X149164842Y-111440120D01*
X149171893Y-111442954D01*
X149299407Y-111461102D01*
X149335665Y-111466262D01*
X149335668Y-111466262D01*
X149339749Y-111466843D01*
X149354527Y-111466998D01*
X149358634Y-111466501D01*
X149362738Y-111466275D01*
X149362851Y-111468353D01*
X149424640Y-111478548D01*
X149459028Y-111502957D01*
X151120074Y-113164004D01*
X151129928Y-113175092D01*
X151145120Y-113194362D01*
X151145123Y-113194364D01*
X151150955Y-113201763D01*
X151199212Y-113235115D01*
X151202424Y-113237410D01*
X151217312Y-113248408D01*
X151220103Y-113250468D01*
X151242069Y-113266693D01*
X151242070Y-113266694D01*
X151249643Y-113272287D01*
X151256459Y-113274680D01*
X151262396Y-113278784D01*
X151318346Y-113296479D01*
X151322077Y-113297724D01*
X151368564Y-113314049D01*
X151368566Y-113314050D01*
X151377458Y-113317171D01*
X151384646Y-113317454D01*
X151384705Y-113317465D01*
X151391557Y-113319633D01*
X151398164Y-113320153D01*
X151450843Y-113320153D01*
X151455790Y-113320250D01*
X151467814Y-113320722D01*
X151512822Y-113322491D01*
X151519927Y-113320607D01*
X151528171Y-113320153D01*
X151595881Y-113320153D01*
X151595881Y-115871153D01*
X151569681Y-115874271D01*
X151467374Y-115919714D01*
X151459155Y-115927948D01*
X151459154Y-115927948D01*
X151450843Y-115936274D01*
X151388286Y-115998940D01*
X151383583Y-116009577D01*
X151383582Y-116009579D01*
X151358309Y-116066746D01*
X151343021Y-116101326D01*
X151340027Y-116127007D01*
X151340027Y-117740299D01*
X151340468Y-117744004D01*
X151340468Y-117744006D01*
X151341348Y-117751399D01*
X151343145Y-117766499D01*
X151368564Y-117823726D01*
X151383864Y-117858171D01*
X151388588Y-117868806D01*
X151398164Y-117878366D01*
X151448423Y-117928537D01*
X151467814Y-117947894D01*
X151486810Y-117956293D01*
X151537989Y-117978918D01*
X151570200Y-117993159D01*
X151595881Y-117996153D01*
X151595880Y-118411153D01*
X151569681Y-118414271D01*
X151467374Y-118459714D01*
X151459155Y-118467947D01*
X151459154Y-118467948D01*
X151450843Y-118476273D01*
X151388287Y-118538940D01*
X151383583Y-118549576D01*
X151383582Y-118549579D01*
X151358310Y-118606746D01*
X151343021Y-118641326D01*
X151340027Y-118667007D01*
X151340027Y-120280299D01*
X151340468Y-120284003D01*
X151340468Y-120284006D01*
X151341348Y-120291399D01*
X151343145Y-120306499D01*
X151368564Y-120363727D01*
X151383864Y-120398171D01*
X151388588Y-120408806D01*
X151398164Y-120418366D01*
X151448423Y-120468537D01*
X151467814Y-120487894D01*
X151486810Y-120496293D01*
X151537989Y-120518918D01*
X151570200Y-120533159D01*
X151595881Y-120536153D01*
X153209173Y-120536153D01*
X153235373Y-120533035D01*
X153337680Y-120487592D01*
X153416768Y-120408366D01*
X153421471Y-120397729D01*
X153421472Y-120397727D01*
X153447792Y-120338191D01*
X153462033Y-120305980D01*
X153465027Y-120280299D01*
X153465027Y-118667007D01*
X153464586Y-118663303D01*
X153464586Y-118663300D01*
X153463706Y-118655907D01*
X153461909Y-118640807D01*
X153416466Y-118538500D01*
X153337240Y-118459412D01*
X153234854Y-118414147D01*
X153209173Y-118411153D01*
X151595880Y-118411153D01*
X151595881Y-117996153D01*
X153209173Y-117996154D01*
X153235373Y-117993035D01*
X153337680Y-117947592D01*
X153416767Y-117868366D01*
X153421470Y-117857729D01*
X153421472Y-117857728D01*
X153447792Y-117798191D01*
X153462033Y-117765980D01*
X153465027Y-117740299D01*
X153465027Y-116127007D01*
X153464586Y-116123303D01*
X153464586Y-116123300D01*
X153463706Y-116115907D01*
X153461909Y-116100807D01*
X153416466Y-115998500D01*
X153337240Y-115919412D01*
X153234854Y-115874147D01*
X153209173Y-115871153D01*
X151595881Y-115871153D01*
X151595881Y-113320153D01*
X153839940Y-113320153D01*
X153908061Y-113340155D01*
X153935751Y-113364322D01*
X153951963Y-113383304D01*
X153951964Y-113383305D01*
X153956893Y-113389076D01*
X154094579Y-113488014D01*
X154119068Y-113497858D01*
X154244840Y-113548419D01*
X154244842Y-113548420D01*
X154251893Y-113551254D01*
X154317845Y-113560640D01*
X154415665Y-113574562D01*
X154415668Y-113574563D01*
X154419749Y-113575143D01*
X154426595Y-113575215D01*
X154430392Y-113575255D01*
X154430398Y-113575255D01*
X154434527Y-113575298D01*
X154602846Y-113554929D01*
X154761450Y-113494998D01*
X154901178Y-113398965D01*
X154906231Y-113393294D01*
X155008915Y-113278045D01*
X155008917Y-113278041D01*
X155013967Y-113272374D01*
X155040758Y-113221775D01*
X155057536Y-113190086D01*
X155093303Y-113122534D01*
X155134608Y-112958094D01*
X155137027Y-112958702D01*
X155160604Y-112904649D01*
X155219666Y-112865250D01*
X155290652Y-112864038D01*
X155320003Y-112878063D01*
X155320579Y-112877014D01*
X155327238Y-112880675D01*
X155333405Y-112885107D01*
X155376642Y-112902487D01*
X155483665Y-112945511D01*
X155483667Y-112945512D01*
X155490718Y-112948346D01*
X155658574Y-112972235D01*
X155673352Y-112972390D01*
X155688272Y-112970585D01*
X155745510Y-112963658D01*
X155841672Y-112952021D01*
X156000275Y-112892090D01*
X156100368Y-112823297D01*
X156133745Y-112800359D01*
X156133745Y-112800358D01*
X156140003Y-112796057D01*
X156177254Y-112754248D01*
X156247740Y-112675138D01*
X156247742Y-112675133D01*
X156252792Y-112669466D01*
X156267203Y-112642249D01*
X156288606Y-112601825D01*
X156332128Y-112519626D01*
X156373433Y-112355186D01*
X156373473Y-112347588D01*
X156373473Y-112347587D01*
X156373877Y-112270413D01*
X156374321Y-112185640D01*
X156372547Y-112178253D01*
X156372547Y-112178249D01*
X156352242Y-112093677D01*
X156334740Y-112020777D01*
X156331259Y-112014033D01*
X156331258Y-112014029D01*
X156260460Y-111876862D01*
X156256977Y-111870114D01*
X156251985Y-111864392D01*
X156251984Y-111864390D01*
X156189544Y-111792814D01*
X156145521Y-111742349D01*
X156006805Y-111644858D01*
X155848839Y-111583269D01*
X155841306Y-111582277D01*
X155841305Y-111582277D01*
X155745441Y-111569657D01*
X155680741Y-111561139D01*
X155654490Y-111564037D01*
X155557820Y-111574709D01*
X155487916Y-111562303D01*
X155435816Y-111514072D01*
X155417996Y-111448810D01*
X155418547Y-111343559D01*
X155418835Y-111288537D01*
X155417061Y-111281150D01*
X155417061Y-111281146D01*
X155390501Y-111170520D01*
X155379254Y-111123674D01*
X155375773Y-111116930D01*
X155375772Y-111116927D01*
X155316037Y-111001193D01*
X155301491Y-110973011D01*
X155190035Y-110845246D01*
X155173969Y-110833955D01*
X155083276Y-110770215D01*
X155051319Y-110747755D01*
X154893353Y-110686166D01*
X154885820Y-110685174D01*
X154885819Y-110685174D01*
X154756979Y-110668213D01*
X154725255Y-110664036D01*
X154717041Y-110664943D01*
X154716560Y-110664858D01*
X154710111Y-110664791D01*
X154710122Y-110663715D01*
X154647137Y-110652533D01*
X154614125Y-110628798D01*
X154595935Y-110610608D01*
X154586082Y-110599519D01*
X154570889Y-110580249D01*
X154570887Y-110580247D01*
X154565054Y-110572848D01*
X154557307Y-110567493D01*
X154557304Y-110567492D01*
X154516807Y-110539503D01*
X154513585Y-110537201D01*
X154478792Y-110511502D01*
X154435881Y-110454940D01*
X154430362Y-110384158D01*
X154463987Y-110321629D01*
X154526079Y-110287205D01*
X154553652Y-110284151D01*
X154919520Y-110284151D01*
X154931405Y-110285479D01*
X154931446Y-110284969D01*
X154940392Y-110285689D01*
X154949148Y-110287670D01*
X155001965Y-110284393D01*
X155009768Y-110284151D01*
X155025641Y-110284151D01*
X155035753Y-110282703D01*
X155045807Y-110281673D01*
X155083276Y-110279347D01*
X155092239Y-110278792D01*
X155100684Y-110275744D01*
X155104395Y-110274975D01*
X155119100Y-110271308D01*
X155122728Y-110270247D01*
X155131619Y-110268974D01*
X155173983Y-110249712D01*
X155183338Y-110245905D01*
X155218644Y-110233160D01*
X155218648Y-110233158D01*
X155227088Y-110230111D01*
X155234336Y-110224816D01*
X155237676Y-110223040D01*
X155250790Y-110215377D01*
X155253962Y-110213348D01*
X155262129Y-110209635D01*
X155268924Y-110203780D01*
X155268928Y-110203778D01*
X155297376Y-110179264D01*
X155305297Y-110172975D01*
X155312103Y-110168003D01*
X155316036Y-110165129D01*
X155326780Y-110154386D01*
X155333627Y-110148028D01*
X155363938Y-110121910D01*
X155370738Y-110116051D01*
X155375621Y-110108517D01*
X155381520Y-110101755D01*
X155381525Y-110101759D01*
X155390500Y-110090665D01*
X156675858Y-108805308D01*
X156675858Y-115663654D01*
X156669037Y-115664024D01*
X156618175Y-115669548D01*
X156602923Y-115673174D01*
X156482473Y-115718329D01*
X156466877Y-115726867D01*
X156364803Y-115803368D01*
X156352242Y-115815929D01*
X156275741Y-115918003D01*
X156267203Y-115933599D01*
X156219896Y-116059790D01*
X156177254Y-116116554D01*
X156110693Y-116141253D01*
X156041343Y-116126047D01*
X155991226Y-116075761D01*
X155986766Y-116066714D01*
X155956466Y-115998500D01*
X155877240Y-115919412D01*
X155866603Y-115914709D01*
X155866601Y-115914708D01*
X155841672Y-115903687D01*
X155774854Y-115874147D01*
X155749173Y-115871153D01*
X154135881Y-115871153D01*
X154109681Y-115874271D01*
X154101041Y-115878109D01*
X154101040Y-115878109D01*
X154088414Y-115883717D01*
X154007374Y-115919714D01*
X153928286Y-115998940D01*
X153923583Y-116009577D01*
X153923582Y-116009579D01*
X153908061Y-116044687D01*
X153883021Y-116101326D01*
X153880027Y-116127007D01*
X153880027Y-117740299D01*
X153880468Y-117744003D01*
X153880468Y-117744006D01*
X153881348Y-117751399D01*
X153883145Y-117766499D01*
X153895541Y-117794407D01*
X153923864Y-117858172D01*
X153928588Y-117868806D01*
X154007814Y-117947894D01*
X154032490Y-117958804D01*
X154101535Y-117989328D01*
X154110200Y-117993159D01*
X154135881Y-117996153D01*
X155749173Y-117996153D01*
X155775373Y-117993035D01*
X155877680Y-117947592D01*
X155956769Y-117868366D01*
X155961471Y-117857729D01*
X155961472Y-117857727D01*
X155986658Y-117800757D01*
X156032496Y-117746541D01*
X156100369Y-117725714D01*
X156168728Y-117744888D01*
X156215868Y-117797976D01*
X156219880Y-117807476D01*
X156267203Y-117933707D01*
X156275741Y-117949302D01*
X156352242Y-118051376D01*
X156364802Y-118063937D01*
X156416692Y-118102826D01*
X156459208Y-118159685D01*
X156464234Y-118230504D01*
X156430174Y-118292797D01*
X156416692Y-118304480D01*
X156364802Y-118343369D01*
X156352242Y-118355929D01*
X156275742Y-118458004D01*
X156267203Y-118473599D01*
X156219896Y-118599790D01*
X156177254Y-118656554D01*
X156110693Y-118681254D01*
X156041344Y-118666047D01*
X155991226Y-118615761D01*
X155986765Y-118606714D01*
X155956466Y-118538500D01*
X155877240Y-118459412D01*
X155866603Y-118454709D01*
X155866600Y-118454708D01*
X155841672Y-118443687D01*
X155774855Y-118414147D01*
X155749173Y-118411153D01*
X154135882Y-118411153D01*
X154109681Y-118414271D01*
X154101041Y-118418110D01*
X154101040Y-118418109D01*
X154088414Y-118423717D01*
X154007374Y-118459714D01*
X153928286Y-118538940D01*
X153923583Y-118549577D01*
X153923582Y-118549578D01*
X153908062Y-118584687D01*
X153883021Y-118641326D01*
X153880027Y-118667008D01*
X153880027Y-120280299D01*
X153880468Y-120284003D01*
X153880468Y-120284006D01*
X153881348Y-120291399D01*
X153883145Y-120306499D01*
X153895541Y-120334406D01*
X153923864Y-120398171D01*
X153928588Y-120408806D01*
X154007814Y-120487894D01*
X154032490Y-120498804D01*
X154101535Y-120529328D01*
X154110200Y-120533159D01*
X154135881Y-120536153D01*
X155749173Y-120536153D01*
X155775373Y-120533036D01*
X155877679Y-120487592D01*
X155956768Y-120408366D01*
X155961471Y-120397729D01*
X155961471Y-120397727D01*
X155986659Y-120340757D01*
X156032495Y-120286541D01*
X156100369Y-120265714D01*
X156168728Y-120284888D01*
X156215868Y-120337976D01*
X156219880Y-120347475D01*
X156267203Y-120473707D01*
X156275741Y-120489302D01*
X156352242Y-120591378D01*
X156364803Y-120603939D01*
X156466878Y-120680439D01*
X156482473Y-120688977D01*
X156602921Y-120734131D01*
X156618176Y-120737758D01*
X156669041Y-120743284D01*
X156675855Y-120743653D01*
X157210412Y-120743653D01*
X157225651Y-120739178D01*
X157226856Y-120737788D01*
X157228527Y-120730105D01*
X157228528Y-115681769D01*
X157224052Y-115666530D01*
X157222662Y-115665325D01*
X157214979Y-115663654D01*
X156675858Y-115663654D01*
X156675858Y-108805308D01*
X157754642Y-107726524D01*
X157754642Y-115663653D01*
X157739403Y-115668128D01*
X157738198Y-115669518D01*
X157736527Y-115677201D01*
X157736527Y-120725537D01*
X157741002Y-120740776D01*
X157742392Y-120741981D01*
X157750075Y-120743652D01*
X158289196Y-120743652D01*
X158296017Y-120743282D01*
X158346879Y-120737758D01*
X158362131Y-120734133D01*
X158482581Y-120688977D01*
X158498176Y-120680438D01*
X158600251Y-120603938D01*
X158612812Y-120591377D01*
X158689313Y-120489302D01*
X158697851Y-120473707D01*
X158745158Y-120347516D01*
X158787800Y-120290752D01*
X158854361Y-120266052D01*
X158923709Y-120281259D01*
X158973828Y-120331545D01*
X158978288Y-120340592D01*
X159008588Y-120408806D01*
X159087814Y-120487895D01*
X159099754Y-120493173D01*
X159171465Y-120524877D01*
X159190200Y-120533159D01*
X159215881Y-120536153D01*
X160829173Y-120536153D01*
X160855373Y-120533035D01*
X160945380Y-120493056D01*
X160947045Y-120492316D01*
X160957680Y-120487592D01*
X160971844Y-120473404D01*
X161019665Y-120425500D01*
X161036768Y-120408366D01*
X161041471Y-120397729D01*
X161041472Y-120397727D01*
X161067791Y-120338191D01*
X161082033Y-120305980D01*
X161085027Y-120280299D01*
X161085027Y-118667007D01*
X161084586Y-118663303D01*
X161084586Y-118663300D01*
X161083706Y-118655907D01*
X161081909Y-118640807D01*
X161078071Y-118632167D01*
X161078071Y-118632166D01*
X161045916Y-118559775D01*
X161036466Y-118538500D01*
X160957240Y-118459412D01*
X160946603Y-118454709D01*
X160946601Y-118454708D01*
X160919332Y-118442653D01*
X160854854Y-118414147D01*
X160829173Y-118411153D01*
X159215881Y-118411153D01*
X159189681Y-118414271D01*
X159181041Y-118418109D01*
X159181040Y-118418109D01*
X159111528Y-118448986D01*
X159087374Y-118459714D01*
X159079155Y-118467947D01*
X159079154Y-118467949D01*
X159067335Y-118479787D01*
X159008286Y-118538940D01*
X159003583Y-118549577D01*
X159003582Y-118549579D01*
X158978396Y-118606549D01*
X158932558Y-118660765D01*
X158864685Y-118681592D01*
X158796326Y-118662418D01*
X158749186Y-118609330D01*
X158745174Y-118599830D01*
X158697851Y-118473598D01*
X158689313Y-118458004D01*
X158612812Y-118355929D01*
X158600252Y-118343369D01*
X158548362Y-118304480D01*
X158505846Y-118247621D01*
X158500820Y-118176802D01*
X158534881Y-118114509D01*
X158548362Y-118102826D01*
X158600252Y-118063938D01*
X158612812Y-118051377D01*
X158689313Y-117949302D01*
X158697851Y-117933707D01*
X158745159Y-117807516D01*
X158787800Y-117750752D01*
X158854361Y-117726052D01*
X158923710Y-117741259D01*
X158973828Y-117791545D01*
X158978288Y-117800593D01*
X159008588Y-117868806D01*
X159087814Y-117947894D01*
X159099753Y-117953173D01*
X159171466Y-117984877D01*
X159190200Y-117993159D01*
X159215881Y-117996154D01*
X160829173Y-117996153D01*
X160855373Y-117993035D01*
X160945380Y-117953056D01*
X160947045Y-117952316D01*
X160957680Y-117947592D01*
X160971844Y-117933404D01*
X161019665Y-117885498D01*
X161036768Y-117868366D01*
X161041471Y-117857729D01*
X161041472Y-117857727D01*
X161067792Y-117798191D01*
X161082033Y-117765980D01*
X161085027Y-117740299D01*
X161085027Y-116127007D01*
X161084586Y-116123303D01*
X161084586Y-116123301D01*
X161083706Y-116115907D01*
X161081909Y-116100808D01*
X161078071Y-116092167D01*
X161078071Y-116092166D01*
X161045916Y-116019775D01*
X161036466Y-115998501D01*
X160957240Y-115919412D01*
X160946603Y-115914709D01*
X160946601Y-115914708D01*
X160919332Y-115902653D01*
X160854854Y-115874147D01*
X160829173Y-115871153D01*
X159215881Y-115871153D01*
X159189681Y-115874271D01*
X159181041Y-115878109D01*
X159181040Y-115878109D01*
X159111527Y-115908986D01*
X159087373Y-115919714D01*
X159079155Y-115927947D01*
X159079154Y-115927948D01*
X159067336Y-115939787D01*
X159008286Y-115998940D01*
X159003583Y-116009577D01*
X159003582Y-116009579D01*
X158978396Y-116066549D01*
X158932557Y-116120765D01*
X158864685Y-116141592D01*
X158796326Y-116122418D01*
X158749186Y-116069330D01*
X158745174Y-116059831D01*
X158697851Y-115933599D01*
X158689313Y-115918004D01*
X158612811Y-115815929D01*
X158600250Y-115803368D01*
X158498176Y-115726867D01*
X158482581Y-115718329D01*
X158362133Y-115673175D01*
X158346879Y-115669548D01*
X158296013Y-115664022D01*
X158289199Y-115663653D01*
X157754642Y-115663653D01*
X157754642Y-107726524D01*
X159236816Y-106244350D01*
X159299129Y-106210324D01*
X159310774Y-106208358D01*
X159341275Y-106204667D01*
X159433433Y-106193515D01*
X159592036Y-106133584D01*
X159620349Y-106114125D01*
X159725506Y-106041853D01*
X159725506Y-106041852D01*
X159731763Y-106037551D01*
X159738433Y-106030066D01*
X159839501Y-105916631D01*
X159839503Y-105916626D01*
X159844553Y-105910960D01*
X159865765Y-105870898D01*
X159880367Y-105843319D01*
X159923889Y-105761120D01*
X159940653Y-105694382D01*
X159952510Y-105647178D01*
X159988505Y-105585982D01*
X160051871Y-105553962D01*
X160122489Y-105561283D01*
X160177939Y-105605620D01*
X160187279Y-105621261D01*
X160193366Y-105633365D01*
X160193371Y-105633371D01*
X160196780Y-105640151D01*
X160306893Y-105769077D01*
X160444580Y-105868014D01*
X160601893Y-105931254D01*
X160769749Y-105955143D01*
X160784527Y-105955298D01*
X160952847Y-105934929D01*
X161111450Y-105874998D01*
X161148060Y-105849837D01*
X161152660Y-105846675D01*
X161220129Y-105824575D01*
X161288836Y-105842459D01*
X161336966Y-105894652D01*
X161350027Y-105950515D01*
X161350027Y-109481107D01*
X161330025Y-109549228D01*
X161317221Y-109565907D01*
X161230450Y-109661265D01*
X161230447Y-109661269D01*
X161225336Y-109666886D01*
X161221712Y-109673559D01*
X161221710Y-109673563D01*
X161148060Y-109809210D01*
X161148059Y-109809213D01*
X161144435Y-109815888D01*
X161142507Y-109823237D01*
X161103339Y-109972536D01*
X161103338Y-109972538D01*
X161101411Y-109979886D01*
X161100054Y-110066261D01*
X161098867Y-110141814D01*
X161098867Y-110141817D01*
X161098749Y-110149413D01*
X161100444Y-110156818D01*
X161100444Y-110156819D01*
X161117981Y-110233386D01*
X161136599Y-110314682D01*
X161212780Y-110466151D01*
X161322893Y-110595075D01*
X161460580Y-110694015D01*
X161467627Y-110696847D01*
X161610840Y-110754419D01*
X161610842Y-110754420D01*
X161617893Y-110757254D01*
X161721535Y-110772004D01*
X161755881Y-110776892D01*
X161755881Y-115871153D01*
X161729682Y-115874271D01*
X161627375Y-115919714D01*
X161619155Y-115927948D01*
X161619154Y-115927948D01*
X161607695Y-115939427D01*
X161548286Y-115998940D01*
X161543583Y-116009577D01*
X161543582Y-116009579D01*
X161517262Y-116069115D01*
X161503021Y-116101326D01*
X161500027Y-116127007D01*
X161500027Y-117740299D01*
X161500468Y-117744004D01*
X161500468Y-117744006D01*
X161501348Y-117751399D01*
X161503145Y-117766499D01*
X161548588Y-117868806D01*
X161627814Y-117947894D01*
X161730201Y-117993159D01*
X161755881Y-117996153D01*
X161755881Y-118411153D01*
X161729681Y-118414271D01*
X161627374Y-118459714D01*
X161619155Y-118467947D01*
X161619154Y-118467948D01*
X161607695Y-118479427D01*
X161548285Y-118538940D01*
X161543582Y-118549577D01*
X161543582Y-118549579D01*
X161517262Y-118609115D01*
X161503021Y-118641326D01*
X161500027Y-118667007D01*
X161500027Y-120280299D01*
X161500468Y-120284003D01*
X161500468Y-120284006D01*
X161501348Y-120291399D01*
X161503145Y-120306499D01*
X161548588Y-120408806D01*
X161627814Y-120487894D01*
X161730200Y-120533159D01*
X161755881Y-120536153D01*
X163369173Y-120536153D01*
X163395373Y-120533035D01*
X163410197Y-120526451D01*
X163487045Y-120492315D01*
X163497680Y-120487592D01*
X163576768Y-120408366D01*
X163581471Y-120397729D01*
X163581472Y-120397727D01*
X163607793Y-120338191D01*
X163622033Y-120305980D01*
X163625027Y-120280299D01*
X163625027Y-118667007D01*
X163624586Y-118663303D01*
X163624586Y-118663300D01*
X163623706Y-118655907D01*
X163621909Y-118640807D01*
X163576466Y-118538500D01*
X163497240Y-118459412D01*
X163394854Y-118414147D01*
X163369173Y-118411153D01*
X161755881Y-118411153D01*
X161755881Y-117996153D01*
X163369173Y-117996154D01*
X163395373Y-117993035D01*
X163410197Y-117986451D01*
X163487045Y-117952316D01*
X163497680Y-117947592D01*
X163576768Y-117868366D01*
X163581471Y-117857729D01*
X163581472Y-117857728D01*
X163607792Y-117798191D01*
X163622033Y-117765980D01*
X163625028Y-117740299D01*
X163625027Y-116127007D01*
X163624586Y-116123303D01*
X163624586Y-116123300D01*
X163623706Y-116115907D01*
X163621909Y-116100807D01*
X163576466Y-115998500D01*
X163497240Y-115919412D01*
X163394854Y-115874147D01*
X163369173Y-115871153D01*
X161755881Y-115871153D01*
X161755881Y-110776892D01*
X161781665Y-110780562D01*
X161781668Y-110780562D01*
X161785749Y-110781143D01*
X161800527Y-110781298D01*
X161968847Y-110760929D01*
X162127450Y-110700998D01*
X162249766Y-110616932D01*
X162260919Y-110609266D01*
X162260920Y-110609266D01*
X162267178Y-110604965D01*
X162276559Y-110594436D01*
X162374915Y-110484046D01*
X162374917Y-110484041D01*
X162379967Y-110478374D01*
X162383519Y-110471665D01*
X162383522Y-110471661D01*
X162402889Y-110435083D01*
X162452443Y-110384241D01*
X162521617Y-110368260D01*
X162588451Y-110392215D01*
X162631724Y-110448499D01*
X162637062Y-110465910D01*
X162660599Y-110568682D01*
X162736780Y-110720151D01*
X162846893Y-110849076D01*
X162984580Y-110948014D01*
X163027560Y-110965292D01*
X163134840Y-111008419D01*
X163134842Y-111008420D01*
X163141893Y-111011254D01*
X163309749Y-111035143D01*
X163324527Y-111035298D01*
X163339447Y-111033493D01*
X163365441Y-111030347D01*
X163492847Y-111014929D01*
X163651450Y-110954998D01*
X163768757Y-110874376D01*
X163784919Y-110863267D01*
X163784920Y-110863266D01*
X163791178Y-110858965D01*
X163801690Y-110847167D01*
X163898915Y-110738045D01*
X163898917Y-110738041D01*
X163903967Y-110732374D01*
X163983303Y-110582534D01*
X164024608Y-110418094D01*
X164024648Y-110410496D01*
X164024648Y-110410494D01*
X164025052Y-110333322D01*
X164025496Y-110248548D01*
X164023722Y-110241161D01*
X164023722Y-110241157D01*
X163989307Y-110097815D01*
X163985915Y-110083685D01*
X163982434Y-110076941D01*
X163982433Y-110076938D01*
X163979751Y-110071742D01*
X163908152Y-109933022D01*
X163796696Y-109805257D01*
X163768757Y-109785621D01*
X163729303Y-109757893D01*
X163657979Y-109707766D01*
X163500014Y-109646176D01*
X163492480Y-109645185D01*
X163365441Y-109628461D01*
X163331916Y-109624047D01*
X163324365Y-109624880D01*
X163323709Y-109624953D01*
X163323234Y-109624869D01*
X163316771Y-109624801D01*
X163316782Y-109623724D01*
X163253804Y-109612547D01*
X163220788Y-109588809D01*
X162787942Y-109155965D01*
X162753917Y-109093652D01*
X162751037Y-109066869D01*
X162751037Y-99146438D01*
X162771039Y-99078317D01*
X162787942Y-99057343D01*
X162965248Y-98880036D01*
X163027560Y-98846011D01*
X163055740Y-98843983D01*
X163055749Y-98843145D01*
X163066392Y-98843256D01*
X163066398Y-98843257D01*
X163070527Y-98843300D01*
X163085446Y-98841495D01*
X163231307Y-98823843D01*
X163238847Y-98822931D01*
X163397450Y-98763000D01*
X163497241Y-98694416D01*
X163530919Y-98671269D01*
X163530920Y-98671268D01*
X163537178Y-98666968D01*
X163568550Y-98631756D01*
X163644915Y-98546047D01*
X163644916Y-98546043D01*
X163649967Y-98540376D01*
X163729303Y-98390536D01*
X163770608Y-98226096D01*
X163770648Y-98218498D01*
X163770648Y-98218496D01*
X163771052Y-98141323D01*
X163771496Y-98056550D01*
X163769722Y-98049163D01*
X163769722Y-98049159D01*
X163735307Y-97905817D01*
X163731915Y-97891687D01*
X163728434Y-97884944D01*
X163728433Y-97884940D01*
X163657635Y-97747773D01*
X163654152Y-97741024D01*
X163649160Y-97735302D01*
X163649159Y-97735300D01*
X163618071Y-97699662D01*
X163542696Y-97613259D01*
X163403980Y-97515768D01*
X163246014Y-97454179D01*
X163238481Y-97453187D01*
X163238480Y-97453187D01*
X163141893Y-97440472D01*
X163077916Y-97432049D01*
X163027560Y-97437608D01*
X163021793Y-97438245D01*
X162951890Y-97425839D01*
X162899789Y-97377609D01*
X162882034Y-97308868D01*
X162896612Y-97254047D01*
X162963751Y-97127243D01*
X162963752Y-97127240D01*
X162967303Y-97120534D01*
X163008608Y-96956094D01*
X163008648Y-96948496D01*
X163008648Y-96948494D01*
X163009052Y-96871321D01*
X163009496Y-96786548D01*
X163007722Y-96779161D01*
X163007722Y-96779156D01*
X162978415Y-96657085D01*
X162969915Y-96621685D01*
X162966434Y-96614941D01*
X162966433Y-96614938D01*
X162963751Y-96609742D01*
X162892152Y-96471022D01*
X162887160Y-96465300D01*
X162887160Y-96465298D01*
X162853057Y-96426206D01*
X162780696Y-96343257D01*
X162750171Y-96321804D01*
X162660599Y-96258852D01*
X162641979Y-96245766D01*
X162484015Y-96184177D01*
X162476480Y-96183185D01*
X162452443Y-96180021D01*
X162315916Y-96162047D01*
X162315916Y-91984404D01*
X162323447Y-91983493D01*
X162379967Y-91976653D01*
X162476847Y-91964929D01*
X162635449Y-91904998D01*
X162658904Y-91888877D01*
X162768919Y-91813267D01*
X162768920Y-91813266D01*
X162775178Y-91808964D01*
X162841963Y-91734008D01*
X162882916Y-91688045D01*
X162882917Y-91688041D01*
X162887967Y-91682374D01*
X162896612Y-91666047D01*
X162951889Y-91561646D01*
X162967303Y-91532534D01*
X163008608Y-91368095D01*
X163008648Y-91360496D01*
X163008648Y-91360494D01*
X163009052Y-91283321D01*
X163009496Y-91198547D01*
X163007723Y-91191161D01*
X163007722Y-91191157D01*
X162978414Y-91069085D01*
X162969915Y-91033685D01*
X162966434Y-91026940D01*
X162966433Y-91026938D01*
X162963751Y-91021742D01*
X162892152Y-90883022D01*
X162887160Y-90877300D01*
X162887159Y-90877298D01*
X162853057Y-90838206D01*
X162780696Y-90755257D01*
X162750171Y-90733804D01*
X162660599Y-90670851D01*
X162641980Y-90657766D01*
X162484014Y-90596177D01*
X162476481Y-90595185D01*
X162476480Y-90595185D01*
X162452443Y-90592021D01*
X162315916Y-90574047D01*
X162297874Y-90576039D01*
X162276559Y-90578392D01*
X162262733Y-90579153D01*
X161092960Y-90579153D01*
X161076513Y-90578075D01*
X161045916Y-90574047D01*
X161045916Y-81112153D01*
X178997210Y-81112153D01*
X179019090Y-81114067D01*
X179023672Y-81114875D01*
X179034527Y-81116789D01*
X179045382Y-81114875D01*
X179056405Y-81114875D01*
X179056405Y-81115240D01*
X179068763Y-81114602D01*
X179267404Y-81128808D01*
X179285200Y-81131367D01*
X179312328Y-81137269D01*
X179504522Y-81179079D01*
X179521771Y-81184143D01*
X179732083Y-81262583D01*
X179748437Y-81270053D01*
X179945437Y-81377624D01*
X179960560Y-81387343D01*
X180140252Y-81521859D01*
X180153838Y-81533632D01*
X180312548Y-81692342D01*
X180324322Y-81705928D01*
X180458837Y-81885620D01*
X180468554Y-81900740D01*
X180576129Y-82097747D01*
X180583594Y-82114093D01*
X180662037Y-82324408D01*
X180667101Y-82341657D01*
X180678224Y-82392786D01*
X180714814Y-82560984D01*
X180717371Y-82578772D01*
X180724714Y-82681443D01*
X180731578Y-82777417D01*
X180730940Y-82789775D01*
X180731305Y-82789775D01*
X180731305Y-82800798D01*
X180729391Y-82811653D01*
X180732113Y-82827090D01*
X180734027Y-82848970D01*
X180734027Y-111934336D01*
X180732113Y-111956216D01*
X180731305Y-111960798D01*
X180729391Y-111971653D01*
X180730047Y-111975374D01*
X180730640Y-111985183D01*
X180730640Y-111985184D01*
X180746396Y-112245657D01*
X180746396Y-112245662D01*
X180746626Y-112249454D01*
X180796793Y-112523205D01*
X180879590Y-112788912D01*
X180881153Y-112792383D01*
X180881154Y-112792389D01*
X180936701Y-112915808D01*
X180993812Y-113042703D01*
X180995781Y-113045961D01*
X180995783Y-113045964D01*
X181135825Y-113277622D01*
X181137792Y-113280876D01*
X181189464Y-113346830D01*
X181307078Y-113496952D01*
X181307080Y-113496955D01*
X181309432Y-113499955D01*
X181506225Y-113696748D01*
X181509228Y-113699102D01*
X181722314Y-113866045D01*
X181722317Y-113866047D01*
X181725304Y-113868388D01*
X181963477Y-114012368D01*
X182217267Y-114126589D01*
X182482975Y-114209387D01*
X182756726Y-114259554D01*
X183030806Y-114276133D01*
X183034527Y-114276789D01*
X183049964Y-114274067D01*
X183071844Y-114272153D01*
X183897210Y-114272153D01*
X183919090Y-114274067D01*
X183923672Y-114274875D01*
X183934527Y-114276789D01*
X183945382Y-114274875D01*
X183956405Y-114274875D01*
X183956405Y-114275240D01*
X183968763Y-114274602D01*
X184167404Y-114288808D01*
X184185200Y-114291367D01*
X184212328Y-114297269D01*
X184404523Y-114339079D01*
X184421771Y-114344143D01*
X184632083Y-114422584D01*
X184648437Y-114430053D01*
X184845437Y-114537624D01*
X184860560Y-114547343D01*
X185040252Y-114681859D01*
X185053838Y-114693632D01*
X185212548Y-114852342D01*
X185224321Y-114865928D01*
X185358837Y-115045620D01*
X185368554Y-115060740D01*
X185476129Y-115257747D01*
X185483595Y-115274093D01*
X185562037Y-115484408D01*
X185567101Y-115501657D01*
X185578224Y-115552786D01*
X185614814Y-115720984D01*
X185617371Y-115738772D01*
X185624713Y-115841443D01*
X185631578Y-115937417D01*
X185630940Y-115949775D01*
X185631305Y-115949775D01*
X185631305Y-115960798D01*
X185629391Y-115971653D01*
X185632113Y-115987090D01*
X185634027Y-116008970D01*
X185634027Y-123334336D01*
X185632113Y-123356216D01*
G37*
%TD.AperFunction*%
%TD*%
M02*
