%TF.GenerationSoftware,KiCad,Pcbnew,7.0.10-7.0.10~ubuntu23.04.1*%
%TF.CreationDate,2024-02-10T00:29:08+00:00*%
%TF.ProjectId,SPACEDOS01,53504143-4544-44f5-9330-312e6b696361,B*%
%TF.SameCoordinates,Original*%
%TF.FileFunction,Soldermask,Top*%
%TF.FilePolarity,Negative*%
%FSLAX46Y46*%
G04 Gerber Fmt 4.6, Leading zero omitted, Abs format (unit mm)*
G04 Created by KiCad (PCBNEW 7.0.10-7.0.10~ubuntu23.04.1) date 2024-02-10 00:29:08*
%MOMM*%
%LPD*%
G01*
G04 APERTURE LIST*
G04 Aperture macros list*
%AMRoundRect*
0 Rectangle with rounded corners*
0 $1 Rounding radius*
0 $2 $3 $4 $5 $6 $7 $8 $9 X,Y pos of 4 corners*
0 Add a 4 corners polygon primitive as box body*
4,1,4,$2,$3,$4,$5,$6,$7,$8,$9,$2,$3,0*
0 Add four circle primitives for the rounded corners*
1,1,$1+$1,$2,$3*
1,1,$1+$1,$4,$5*
1,1,$1+$1,$6,$7*
1,1,$1+$1,$8,$9*
0 Add four rect primitives between the rounded corners*
20,1,$1+$1,$2,$3,$4,$5,0*
20,1,$1+$1,$4,$5,$6,$7,0*
20,1,$1+$1,$6,$7,$8,$9,0*
20,1,$1+$1,$8,$9,$2,$3,0*%
G04 Aperture macros list end*
%ADD10RoundRect,0.200000X-0.762000X-0.762000X0.762000X-0.762000X0.762000X0.762000X-0.762000X0.762000X0*%
%ADD11RoundRect,0.200000X-0.500000X-1.900000X0.500000X-1.900000X0.500000X1.900000X-0.500000X1.900000X0*%
%ADD12RoundRect,0.200000X-1.650000X-1.275000X1.650000X-1.275000X1.650000X1.275000X-1.650000X1.275000X0*%
%ADD13RoundRect,0.200000X-1.900000X-0.500000X1.900000X-0.500000X1.900000X0.500000X-1.900000X0.500000X0*%
%ADD14RoundRect,0.200000X-0.780000X-0.325000X0.780000X-0.325000X0.780000X0.325000X-0.780000X0.325000X0*%
%ADD15RoundRect,0.200000X-0.325000X0.780000X-0.325000X-0.780000X0.325000X-0.780000X0.325000X0.780000X0*%
%ADD16RoundRect,0.200000X-0.698500X0.444500X-0.698500X-0.444500X0.698500X-0.444500X0.698500X0.444500X0*%
%ADD17RoundRect,0.200000X0.444500X0.698500X-0.444500X0.698500X-0.444500X-0.698500X0.444500X-0.698500X0*%
%ADD18C,6.400000*%
%ADD19RoundRect,0.200000X0.698500X-0.444500X0.698500X0.444500X-0.698500X0.444500X-0.698500X-0.444500X0*%
%ADD20RoundRect,0.200000X-0.750000X-0.275000X0.750000X-0.275000X0.750000X0.275000X-0.750000X0.275000X0*%
%ADD21RoundRect,0.200000X0.275000X-0.750000X0.275000X0.750000X-0.275000X0.750000X-0.275000X-0.750000X0*%
%ADD22RoundRect,0.200000X-0.775000X-0.300000X0.775000X-0.300000X0.775000X0.300000X-0.775000X0.300000X0*%
%ADD23RoundRect,0.200000X-0.125000X0.550000X-0.125000X-0.550000X0.125000X-0.550000X0.125000X0.550000X0*%
%ADD24RoundRect,0.200000X-0.444500X-0.698500X0.444500X-0.698500X0.444500X0.698500X-0.444500X0.698500X0*%
%ADD25RoundRect,0.200000X0.635000X1.270000X-0.635000X1.270000X-0.635000X-1.270000X0.635000X-1.270000X0*%
%ADD26RoundRect,0.250000X0.612500X0.250000X-0.612500X0.250000X-0.612500X-0.250000X0.612500X-0.250000X0*%
%ADD27RoundRect,0.326923X0.723077X-0.523077X0.723077X0.523077X-0.723077X0.523077X-0.723077X-0.523077X0*%
%ADD28RoundRect,0.336957X0.563043X-0.438043X0.563043X0.438043X-0.563043X0.438043X-0.563043X-0.438043X0*%
%ADD29RoundRect,0.200000X0.500000X0.900000X-0.500000X0.900000X-0.500000X-0.900000X0.500000X-0.900000X0*%
%ADD30RoundRect,0.250000X-0.687500X-0.250000X0.687500X-0.250000X0.687500X0.250000X-0.687500X0.250000X0*%
%ADD31RoundRect,0.200000X-0.500000X-0.500000X0.500000X-0.500000X0.500000X0.500000X-0.500000X0.500000X0*%
%ADD32RoundRect,0.200000X-0.500000X-1.150000X0.500000X-1.150000X0.500000X1.150000X-0.500000X1.150000X0*%
%ADD33RoundRect,0.200000X-1.150000X-0.500000X1.150000X-0.500000X1.150000X0.500000X-1.150000X0.500000X0*%
%ADD34C,1.924000*%
%ADD35RoundRect,0.200000X1.275080X1.249680X-1.275080X1.249680X-1.275080X-1.249680X1.275080X-1.249680X0*%
%ADD36RoundRect,0.200000X-0.650000X-0.750000X0.650000X-0.750000X0.650000X0.750000X-0.650000X0.750000X0*%
%ADD37RoundRect,0.200000X-0.350000X-1.500000X0.350000X-1.500000X0.350000X1.500000X-0.350000X1.500000X0*%
%ADD38RoundRect,0.200000X0.650000X0.750000X-0.650000X0.750000X-0.650000X-0.750000X0.650000X-0.750000X0*%
%ADD39RoundRect,0.200000X0.350000X1.500000X-0.350000X1.500000X-0.350000X-1.500000X0.350000X-1.500000X0*%
%ADD40RoundRect,0.200000X0.762000X-0.762000X0.762000X0.762000X-0.762000X0.762000X-0.762000X-0.762000X0*%
%ADD41RoundRect,0.200000X0.762000X0.762000X-0.762000X0.762000X-0.762000X-0.762000X0.762000X-0.762000X0*%
G04 APERTURE END LIST*
D10*
%TO.C,J22*%
X147868627Y-99420353D03*
X150408627Y-99420353D03*
X147868627Y-101960353D03*
X150408627Y-101960353D03*
X147868627Y-104500353D03*
X150408627Y-104500353D03*
%TD*%
D11*
%TO.C,M6*%
X98068527Y-96606653D03*
X98068527Y-102606653D03*
X98068527Y-108606653D03*
X98068527Y-114606653D03*
D12*
X99218527Y-91231653D03*
X99218527Y-119981653D03*
D13*
X104968527Y-90456653D03*
X104968527Y-120756653D03*
X110968527Y-90456653D03*
X110968527Y-120756653D03*
X116968527Y-90456653D03*
X116968527Y-120756653D03*
X122968527Y-90456653D03*
X122968527Y-120756653D03*
X128968527Y-90456653D03*
X128968527Y-120756653D03*
X134968527Y-90456653D03*
X134968527Y-120756653D03*
D12*
X140718527Y-91231653D03*
X140718527Y-119981653D03*
D11*
X141868527Y-96606653D03*
X141868527Y-102606653D03*
X141868527Y-108606653D03*
X141868527Y-114606653D03*
%TD*%
D14*
%TO.C,U5*%
X137280627Y-98591353D03*
X137280627Y-99541353D03*
X137280627Y-100491353D03*
X139980627Y-100491353D03*
X139980627Y-98591353D03*
%TD*%
D15*
%TO.C,U4*%
X136913627Y-111018354D03*
X135963627Y-111018354D03*
X135013627Y-111018354D03*
X135013627Y-113718354D03*
X136913627Y-113718354D03*
%TD*%
D16*
%TO.C,C8*%
X130375627Y-110907853D03*
X130375627Y-112812853D03*
%TD*%
%TO.C,C3*%
X102435627Y-106971654D03*
X102435627Y-108876654D03*
%TD*%
D17*
%TO.C,R6*%
X104975627Y-100176353D03*
X103070627Y-100176353D03*
%TD*%
D16*
%TO.C,C13*%
X132661627Y-110907853D03*
X132661627Y-112812853D03*
%TD*%
D18*
%TO.C,M4*%
X113934528Y-84421653D03*
%TD*%
D19*
%TO.C,C24*%
X115229627Y-114406353D03*
X115229627Y-112501353D03*
%TD*%
D16*
%TO.C,C4*%
X128018527Y-97756654D03*
X128018527Y-99661654D03*
%TD*%
D18*
%TO.C,M2*%
X168824527Y-84421653D03*
%TD*%
D20*
%TO.C,U10*%
X155253627Y-102438353D03*
X155253627Y-103238353D03*
X155253627Y-104038353D03*
X155253627Y-104838353D03*
X155253627Y-105638353D03*
X155253627Y-106438353D03*
X155253627Y-107238353D03*
X155253627Y-108038353D03*
X155253627Y-108838353D03*
X155253627Y-109638353D03*
X155253627Y-110438353D03*
D21*
X156953627Y-112138353D03*
X157753627Y-112138353D03*
X158553627Y-112138353D03*
X159353627Y-112138353D03*
X160153627Y-112138353D03*
X160953627Y-112138353D03*
X161753627Y-112138353D03*
X162553627Y-112138353D03*
X163353627Y-112138353D03*
X164153627Y-112138353D03*
X164953627Y-112138353D03*
D20*
X166653627Y-110438353D03*
X166653627Y-109638353D03*
X166653627Y-108838353D03*
X166653627Y-108038353D03*
X166653627Y-107238353D03*
X166653627Y-106438353D03*
X166653627Y-105638353D03*
X166653627Y-104838353D03*
X166653627Y-104038353D03*
X166653627Y-103238353D03*
X166653627Y-102438353D03*
D21*
X164953627Y-100738353D03*
X164153627Y-100738353D03*
X163353627Y-100738353D03*
X162553627Y-100738353D03*
X161753627Y-100738353D03*
X160953627Y-100738353D03*
X160153627Y-100738353D03*
X159353627Y-100738353D03*
X158553627Y-100738353D03*
X157753627Y-100738353D03*
X156953627Y-100738353D03*
%TD*%
D16*
%TO.C,R4*%
X128089627Y-110907853D03*
X128089627Y-112812853D03*
%TD*%
D17*
%TO.C,C10*%
X108468127Y-102716353D03*
X106563127Y-102716353D03*
%TD*%
%TO.C,C5*%
X104975627Y-102716353D03*
X103070627Y-102716353D03*
%TD*%
D19*
%TO.C,R3*%
X132915627Y-100493852D03*
X132915627Y-98588852D03*
%TD*%
%TO.C,R2*%
X112595627Y-104621353D03*
X112595627Y-102716353D03*
%TD*%
D22*
%TO.C,U2*%
X127167627Y-102589353D03*
X127167627Y-103859353D03*
X127167627Y-105129353D03*
X127167627Y-106399353D03*
X132567627Y-106399353D03*
X132567627Y-105129353D03*
X132567627Y-103859353D03*
X132567627Y-102589353D03*
%TD*%
D16*
%TO.C,R10*%
X121993627Y-105383353D03*
X121993627Y-107288353D03*
%TD*%
%TO.C,C18*%
X124279627Y-101700353D03*
X124279627Y-103605353D03*
%TD*%
D22*
%TO.C,U1*%
X104815627Y-104621353D03*
X104815627Y-105891353D03*
X104815627Y-107161353D03*
X104815627Y-108431353D03*
X110215627Y-108431353D03*
X110215627Y-107161353D03*
X110215627Y-105891353D03*
X110215627Y-104621353D03*
%TD*%
D19*
%TO.C,C20*%
X107261627Y-99350853D03*
X107261627Y-97445853D03*
%TD*%
D17*
%TO.C,R7*%
X114089527Y-108721653D03*
X112184527Y-108721653D03*
%TD*%
D16*
%TO.C,C17*%
X124533627Y-106208853D03*
X124533627Y-108113853D03*
%TD*%
%TO.C,R9*%
X115184527Y-104971654D03*
X115184527Y-106876654D03*
%TD*%
D19*
%TO.C,C11*%
X114934527Y-103376653D03*
X114934527Y-101471653D03*
%TD*%
%TO.C,C16*%
X119961627Y-107288353D03*
X119961627Y-105383353D03*
%TD*%
D16*
%TO.C,R11*%
X121993627Y-101700353D03*
X121993627Y-103605353D03*
%TD*%
%TO.C,C15*%
X117421627Y-105256353D03*
X117421627Y-107161353D03*
%TD*%
D17*
%TO.C,R5*%
X135138127Y-96366353D03*
X133233127Y-96366353D03*
%TD*%
D16*
%TO.C,C12*%
X134947627Y-102779853D03*
X134947627Y-104684853D03*
%TD*%
D23*
%TO.C,U11*%
X169404527Y-95479653D03*
X168904527Y-95479653D03*
X168404527Y-95479653D03*
X167904527Y-95479653D03*
X167404527Y-95479653D03*
X167404527Y-99779653D03*
X167904527Y-99779653D03*
X168404527Y-99779653D03*
X168904527Y-99779653D03*
X169404527Y-99779653D03*
%TD*%
D24*
%TO.C,R13*%
X136789127Y-106780353D03*
X138694127Y-106780353D03*
%TD*%
D19*
%TO.C,C9*%
X137360627Y-96683853D03*
X137360627Y-94778853D03*
%TD*%
%TO.C,C14*%
X139900627Y-96683854D03*
X139900627Y-94778854D03*
%TD*%
D16*
%TO.C,C7*%
X137233627Y-102779853D03*
X137233627Y-104684853D03*
%TD*%
%TO.C,R12*%
X139900627Y-102398853D03*
X139900627Y-104303853D03*
%TD*%
D25*
%TO.C,L1*%
X173992527Y-108551654D03*
X170944527Y-108551654D03*
%TD*%
D16*
%TO.C,C19*%
X134947627Y-106589853D03*
X134947627Y-108494853D03*
%TD*%
D26*
%TO.C,U8*%
X155910027Y-94020353D03*
X155910027Y-93070353D03*
X155910027Y-92120353D03*
X153635027Y-92120353D03*
X153635027Y-94020353D03*
%TD*%
D19*
%TO.C,C2*%
X117515627Y-114342853D03*
X117515627Y-112437853D03*
%TD*%
D27*
%TO.C,D3*%
X169166527Y-115127653D03*
X169166527Y-111627653D03*
%TD*%
D17*
%TO.C,F2*%
X166880527Y-119219653D03*
X164975527Y-119219653D03*
%TD*%
D16*
%TO.C,C55*%
X173738527Y-117759153D03*
X173738527Y-119664153D03*
%TD*%
D28*
%TO.C,L3*%
X155704527Y-97901653D03*
X155704527Y-95851653D03*
%TD*%
D29*
%TO.C,Y2*%
X167896527Y-93311653D03*
X170396527Y-93311653D03*
%TD*%
D24*
%TO.C,R22*%
X115610627Y-116946352D03*
X117515627Y-116946352D03*
%TD*%
%TO.C,R19*%
X119420627Y-116946353D03*
X121325627Y-116946353D03*
%TD*%
%TO.C,R15*%
X123230627Y-116946353D03*
X125135627Y-116946353D03*
%TD*%
D19*
%TO.C,C23*%
X119547627Y-114342853D03*
X119547627Y-112437853D03*
%TD*%
%TO.C,C21*%
X121579627Y-114342853D03*
X121579627Y-112437853D03*
%TD*%
D16*
%TO.C,C34*%
X150916627Y-106659353D03*
X150916627Y-108564353D03*
%TD*%
D17*
%TO.C,C27*%
X173675027Y-113377653D03*
X171770027Y-113377653D03*
%TD*%
D24*
%TO.C,R20*%
X169166527Y-101693653D03*
X171071527Y-101693653D03*
%TD*%
%TO.C,R23*%
X147360627Y-106786353D03*
X149265627Y-106786353D03*
%TD*%
D17*
%TO.C,C26*%
X173675027Y-115409653D03*
X171770027Y-115409653D03*
%TD*%
D30*
%TO.C,U3*%
X111674127Y-97448353D03*
X111674127Y-99348353D03*
X113549127Y-98398353D03*
%TD*%
D16*
%TO.C,C43*%
X148084528Y-108932653D03*
X148084528Y-110837653D03*
%TD*%
D18*
%TO.C,M1*%
X181744527Y-122521653D03*
%TD*%
D24*
%TO.C,C39*%
X160886127Y-114279354D03*
X162791127Y-114279354D03*
%TD*%
D17*
%TO.C,C28*%
X173675027Y-111091653D03*
X171770027Y-111091653D03*
%TD*%
D16*
%TO.C,R1*%
X139519627Y-112431853D03*
X139519627Y-114336853D03*
%TD*%
D18*
%TO.C,M3*%
X96014527Y-125061654D03*
%TD*%
D17*
%TO.C,C36*%
X166817027Y-116933653D03*
X164912027Y-116933653D03*
%TD*%
D19*
%TO.C,C32*%
X157990527Y-95089653D03*
X157990527Y-93184653D03*
%TD*%
D31*
%TO.C,M9*%
X143978527Y-89705654D03*
D32*
X143978527Y-91355654D03*
D11*
X143978527Y-96605654D03*
X143978527Y-102605654D03*
X143978527Y-108605654D03*
X143978527Y-114605654D03*
D32*
X143978527Y-119855654D03*
D31*
X143978527Y-121505654D03*
D33*
X145628527Y-89705654D03*
X145628527Y-121505654D03*
D13*
X150878527Y-89705654D03*
X150878527Y-121505654D03*
X156878527Y-89705654D03*
X156878527Y-121505654D03*
X162878527Y-89705654D03*
X162878527Y-121505654D03*
X168878527Y-89705654D03*
X168878527Y-121505654D03*
D33*
X174128527Y-89705654D03*
X174128527Y-121505654D03*
D31*
X175778527Y-89705654D03*
D32*
X175778527Y-91355654D03*
D11*
X175778527Y-96605654D03*
X175778527Y-102605654D03*
X175778527Y-108605654D03*
X175778527Y-114605654D03*
D32*
X175778527Y-119855654D03*
D31*
X175778527Y-121505654D03*
%TD*%
D19*
%TO.C,R21*%
X165610527Y-94962653D03*
X165610527Y-93057653D03*
%TD*%
D16*
%TO.C,C44*%
X168912527Y-104487653D03*
X168912527Y-106392653D03*
%TD*%
%TO.C,C31*%
X168912527Y-107853153D03*
X168912527Y-109758153D03*
%TD*%
%TO.C,C40*%
X171198527Y-103979653D03*
X171198527Y-105884653D03*
%TD*%
%TO.C,C50*%
X149354527Y-94581653D03*
X149354527Y-96486653D03*
%TD*%
%TO.C,C42*%
X151640526Y-94454653D03*
X151640526Y-96359653D03*
%TD*%
D19*
%TO.C,C35*%
X160022527Y-97629653D03*
X160022527Y-95724653D03*
%TD*%
%TO.C,C47*%
X171706528Y-97820153D03*
X171706528Y-95915153D03*
%TD*%
D24*
%TO.C,C54*%
X145671527Y-96359653D03*
X147576527Y-96359653D03*
%TD*%
D34*
%TO.C,D1*%
X112524527Y-114221653D03*
X107524527Y-114221653D03*
%TD*%
D16*
%TO.C,R8*%
X115934528Y-108812353D03*
X115934528Y-110717353D03*
%TD*%
D19*
%TO.C,C6*%
X116913627Y-103376653D03*
X116913627Y-101471653D03*
%TD*%
D35*
%TO.C,C1*%
X127185387Y-95096353D03*
X122135867Y-95096353D03*
%TD*%
D36*
%TO.C,C29*%
X169086527Y-118203653D03*
D37*
X170436527Y-118203653D03*
D36*
X171786527Y-118203653D03*
%TD*%
D38*
%TO.C,C52*%
X148846527Y-92295653D03*
D39*
X147496527Y-92295653D03*
D38*
X146146527Y-92295653D03*
%TD*%
D40*
%TO.C,J19*%
X154942527Y-119473653D03*
X154942527Y-116933653D03*
%TD*%
D10*
%TO.C,J6*%
X152402527Y-116933653D03*
%TD*%
%TO.C,J4*%
X149862527Y-116933653D03*
%TD*%
%TO.C,J7*%
X152402527Y-119473653D03*
%TD*%
D41*
%TO.C,J3*%
X162562527Y-116933653D03*
X162562527Y-119473653D03*
%TD*%
%TO.C,J2*%
X157482527Y-116933653D03*
X157482527Y-119473653D03*
%TD*%
D10*
%TO.C,J5*%
X149862527Y-119473653D03*
%TD*%
%TO.C,J1*%
X160022527Y-119473653D03*
X160022527Y-116933653D03*
%TD*%
G36*
X97433665Y-116217635D02*
G01*
X97439845Y-116217841D01*
X97455464Y-116218746D01*
X97467766Y-116220067D01*
X97480162Y-116222018D01*
X97492260Y-116224536D01*
X97504402Y-116227691D01*
X97516201Y-116231383D01*
X97527976Y-116235713D01*
X97539367Y-116240550D01*
X97550660Y-116246014D01*
X97561498Y-116251930D01*
X97572205Y-116258475D01*
X97582436Y-116265441D01*
X97592448Y-116273004D01*
X97601933Y-116280928D01*
X97611152Y-116289432D01*
X97619825Y-116298260D01*
X97628164Y-116307626D01*
X97635919Y-116317248D01*
X97643310Y-116327399D01*
X97650091Y-116337744D01*
X97656443Y-116348557D01*
X97662174Y-116359508D01*
X97667440Y-116370900D01*
X97672071Y-116382365D01*
X97676196Y-116394221D01*
X97679680Y-116406081D01*
X97682620Y-116418270D01*
X97684927Y-116430421D01*
X97686658Y-116442841D01*
X97687762Y-116455163D01*
X97688348Y-116469711D01*
X97688407Y-116478068D01*
X97688315Y-116481594D01*
X97688239Y-116483781D01*
X97438421Y-122229597D01*
X97438001Y-122235769D01*
X97436555Y-122251348D01*
X97434810Y-122263586D01*
X97432433Y-122275899D01*
X97429497Y-122287906D01*
X97425922Y-122299937D01*
X97421819Y-122311612D01*
X97417084Y-122323227D01*
X97411863Y-122334429D01*
X97406013Y-122345524D01*
X97399713Y-122356171D01*
X97392803Y-122366639D01*
X97385498Y-122376605D01*
X97377586Y-122386358D01*
X97369331Y-122395570D01*
X97360513Y-122404488D01*
X97351395Y-122412846D01*
X97341742Y-122420859D01*
X97331859Y-122428275D01*
X97321463Y-122435307D01*
X97310884Y-122441729D01*
X97299858Y-122447702D01*
X97288719Y-122453048D01*
X97277150Y-122457917D01*
X97265524Y-122462151D01*
X97253536Y-122465861D01*
X97241560Y-122468932D01*
X97229277Y-122471447D01*
X97217062Y-122473329D01*
X97202927Y-122474802D01*
X97193904Y-122475416D01*
X97188320Y-122475595D01*
X97185447Y-122475655D01*
X92561691Y-122518364D01*
X92493388Y-122498992D01*
X92446402Y-122445768D01*
X92434527Y-122392369D01*
X92434527Y-119976158D01*
X92434848Y-119967167D01*
X92454247Y-119696017D01*
X92456806Y-119678222D01*
X92513635Y-119417007D01*
X92518700Y-119399758D01*
X92612129Y-119149284D01*
X92619598Y-119132931D01*
X92747717Y-118898311D01*
X92757436Y-118883188D01*
X92917646Y-118669181D01*
X92929419Y-118655595D01*
X93118449Y-118466571D01*
X93132036Y-118454798D01*
X93346046Y-118294598D01*
X93361170Y-118284879D01*
X93595807Y-118156763D01*
X93612159Y-118149296D01*
X93862626Y-118055880D01*
X93879876Y-118050815D01*
X94141111Y-117993992D01*
X94158873Y-117991436D01*
X94434528Y-117971653D01*
X94434528Y-117971660D01*
X94434556Y-117971650D01*
X94719154Y-117951291D01*
X94997982Y-117890631D01*
X94997989Y-117890629D01*
X95265337Y-117790908D01*
X95265338Y-117790908D01*
X95515783Y-117654149D01*
X95744219Y-117483138D01*
X95945987Y-117281362D01*
X96116988Y-117052922D01*
X96253737Y-116802472D01*
X96353455Y-116535103D01*
X96402662Y-116308875D01*
X96436685Y-116246562D01*
X96498997Y-116212535D01*
X96526891Y-116209660D01*
X97433665Y-116217635D01*
G37*
G36*
X97696977Y-80979334D02*
G01*
X98352611Y-81125030D01*
X98358613Y-81126520D01*
X98373693Y-81130657D01*
X98385445Y-81134510D01*
X98397162Y-81139000D01*
X98408484Y-81143989D01*
X98419709Y-81149609D01*
X98430469Y-81155673D01*
X98441082Y-81162360D01*
X98451209Y-81169459D01*
X98461115Y-81177154D01*
X98470497Y-81185210D01*
X98479601Y-81193839D01*
X98488146Y-81202774D01*
X98496366Y-81212260D01*
X98504000Y-81221998D01*
X98511246Y-81232239D01*
X98517884Y-81242670D01*
X98524088Y-81253566D01*
X98529670Y-81264596D01*
X98534782Y-81276060D01*
X98539255Y-81287578D01*
X98543220Y-81299489D01*
X98546547Y-81311405D01*
X98549322Y-81323635D01*
X98551462Y-81335810D01*
X98553114Y-81348960D01*
X98554007Y-81359901D01*
X98554437Y-81371263D01*
X98554527Y-81376028D01*
X98554527Y-89876509D01*
X98534525Y-89944630D01*
X98480869Y-89991123D01*
X98428901Y-90002508D01*
X98300527Y-90002888D01*
X98300527Y-121251653D01*
X98428527Y-121251653D01*
X98496648Y-121271655D01*
X98543141Y-121325311D01*
X98554527Y-121377653D01*
X98554527Y-122010565D01*
X98554375Y-122016755D01*
X98553607Y-122032369D01*
X98552395Y-122044666D01*
X98550554Y-122057078D01*
X98548142Y-122069207D01*
X98545091Y-122081387D01*
X98541502Y-122093217D01*
X98537278Y-122105023D01*
X98532545Y-122116450D01*
X98527180Y-122127793D01*
X98521352Y-122138696D01*
X98514904Y-122149454D01*
X98508037Y-122159733D01*
X98500558Y-122169818D01*
X98492710Y-122179381D01*
X98484288Y-122188673D01*
X98475547Y-122197414D01*
X98466255Y-122205836D01*
X98456692Y-122213684D01*
X98446607Y-122221163D01*
X98436328Y-122228030D01*
X98425570Y-122234478D01*
X98414667Y-122240306D01*
X98403324Y-122245671D01*
X98391897Y-122250404D01*
X98380091Y-122254628D01*
X98368261Y-122258217D01*
X98356081Y-122261268D01*
X98343952Y-122263680D01*
X98331540Y-122265521D01*
X98319242Y-122266733D01*
X98306716Y-122267349D01*
X98294340Y-122267349D01*
X98279185Y-122266604D01*
X98271458Y-122265985D01*
X95989567Y-122012442D01*
X95983441Y-122011609D01*
X95967972Y-122009117D01*
X95955875Y-122006554D01*
X95943759Y-122003358D01*
X95931967Y-121999619D01*
X95920203Y-121995243D01*
X95908845Y-121990372D01*
X95897563Y-121984863D01*
X95886721Y-121978892D01*
X95876054Y-121972315D01*
X95865869Y-121965324D01*
X95855875Y-121957717D01*
X95846418Y-121949756D01*
X95837230Y-121941218D01*
X95828592Y-121932362D01*
X95820289Y-121922968D01*
X95812561Y-121913308D01*
X95805207Y-121903128D01*
X95798474Y-121892773D01*
X95792162Y-121881939D01*
X95786466Y-121870957D01*
X95781244Y-121859550D01*
X95776654Y-121848063D01*
X95772574Y-121836194D01*
X95769136Y-121824331D01*
X95766239Y-121812125D01*
X95763975Y-121799952D01*
X95762236Y-121787122D01*
X95761209Y-121775590D01*
X95760642Y-121762353D01*
X95760527Y-121756961D01*
X95760527Y-117519019D01*
X95780529Y-117450898D01*
X95797430Y-117429925D01*
X95945987Y-117281362D01*
X96116988Y-117052922D01*
X96253737Y-116802472D01*
X96353455Y-116535103D01*
X96414102Y-116256283D01*
X96434526Y-115971649D01*
X96434527Y-115971642D01*
X96434527Y-82816158D01*
X96434848Y-82807167D01*
X96454247Y-82536017D01*
X96456806Y-82518222D01*
X96513635Y-82257007D01*
X96518700Y-82239758D01*
X96612129Y-81989284D01*
X96619598Y-81972931D01*
X96747717Y-81738311D01*
X96757436Y-81723188D01*
X96917646Y-81509181D01*
X96929419Y-81495595D01*
X97118449Y-81306571D01*
X97132036Y-81294798D01*
X97346046Y-81134598D01*
X97361169Y-81124879D01*
X97595805Y-80996763D01*
X97612160Y-80989295D01*
X97625615Y-80984277D01*
X97696431Y-80979214D01*
X97696977Y-80979334D01*
G37*
G36*
X98242648Y-121017655D02*
G01*
X98289141Y-121071311D01*
X98300527Y-121123653D01*
X98300527Y-121251653D01*
X175516527Y-121251653D01*
X175516527Y-121123653D01*
X175536529Y-121055532D01*
X175590185Y-121009039D01*
X175642527Y-120997653D01*
X185419439Y-120997653D01*
X185425621Y-120997805D01*
X185441235Y-120998572D01*
X185453540Y-120999784D01*
X185465952Y-121001625D01*
X185478081Y-121004037D01*
X185490261Y-121007088D01*
X185502091Y-121010677D01*
X185513897Y-121014901D01*
X185525324Y-121019634D01*
X185536667Y-121024999D01*
X185547570Y-121030827D01*
X185558328Y-121037275D01*
X185568607Y-121044142D01*
X185578692Y-121051621D01*
X185588255Y-121059469D01*
X185597547Y-121067891D01*
X185606288Y-121076632D01*
X185614710Y-121085924D01*
X185622554Y-121095482D01*
X185630369Y-121106019D01*
X185636663Y-121115350D01*
X185643060Y-121125812D01*
X185645618Y-121130191D01*
X185904879Y-121595277D01*
X185907761Y-121600759D01*
X185914692Y-121614770D01*
X185919622Y-121626102D01*
X185924061Y-121637850D01*
X185927855Y-121649603D01*
X185930188Y-121658261D01*
X185934527Y-121691044D01*
X185934527Y-123367156D01*
X185934206Y-123376142D01*
X185914818Y-123647299D01*
X185912260Y-123665094D01*
X185855439Y-123926323D01*
X185850375Y-123943572D01*
X185756954Y-124194060D01*
X185749486Y-124210413D01*
X185621370Y-124445052D01*
X185611650Y-124460176D01*
X185451442Y-124674196D01*
X185439670Y-124687783D01*
X185250638Y-124876822D01*
X185237052Y-124888595D01*
X185023034Y-125048813D01*
X185007911Y-125058532D01*
X184773284Y-125186654D01*
X184756930Y-125194123D01*
X184506444Y-125287553D01*
X184489195Y-125292618D01*
X184227983Y-125349446D01*
X184210156Y-125352007D01*
X183939003Y-125371334D01*
X183930045Y-125371653D01*
X160934528Y-125371653D01*
X160699861Y-125390118D01*
X160470995Y-125445058D01*
X160253515Y-125535136D01*
X160052821Y-125658117D01*
X160052817Y-125658120D01*
X159873834Y-125810978D01*
X159720959Y-125989961D01*
X159597968Y-126190653D01*
X159507884Y-126408118D01*
X159452926Y-126637003D01*
X159434527Y-126871649D01*
X159434527Y-127466702D01*
X159434139Y-127476585D01*
X159416843Y-127696424D01*
X159413751Y-127715951D01*
X159363438Y-127925552D01*
X159357328Y-127944357D01*
X159274848Y-128143495D01*
X159265872Y-128161112D01*
X159153247Y-128344910D01*
X159141626Y-128360906D01*
X159001645Y-128524811D01*
X158987665Y-128538792D01*
X158823761Y-128678787D01*
X158807765Y-128690409D01*
X158623985Y-128803035D01*
X158606369Y-128812012D01*
X158407223Y-128894506D01*
X158388419Y-128900616D01*
X158178849Y-128950934D01*
X158159281Y-128954030D01*
X157939437Y-128971267D01*
X157929588Y-128971653D01*
X94439025Y-128971653D01*
X94430037Y-128971332D01*
X94158887Y-128951941D01*
X94141093Y-128949383D01*
X93879866Y-128892560D01*
X93862616Y-128887495D01*
X93612140Y-128794073D01*
X93595787Y-128786605D01*
X93361151Y-128658485D01*
X93346027Y-128648765D01*
X93132019Y-128488560D01*
X93118432Y-128476787D01*
X92929400Y-128287753D01*
X92917627Y-128274166D01*
X92757421Y-128060151D01*
X92747702Y-128045027D01*
X92619587Y-127810395D01*
X92612119Y-127794042D01*
X92518699Y-127543565D01*
X92513634Y-127526315D01*
X92456813Y-127265087D01*
X92454255Y-127247301D01*
X92434848Y-126976138D01*
X92434527Y-126967143D01*
X92434527Y-121123653D01*
X92454529Y-121055532D01*
X92508185Y-121009039D01*
X92560527Y-120997653D01*
X98174527Y-120997653D01*
X98242648Y-121017655D01*
G37*
G36*
X181065394Y-112476479D02*
G01*
X181112827Y-112529306D01*
X181117211Y-112539632D01*
X181215247Y-112802488D01*
X181215251Y-112802498D01*
X181352003Y-113052949D01*
X181523012Y-113281393D01*
X181724792Y-113483175D01*
X181724793Y-113483176D01*
X181953230Y-113654182D01*
X182203689Y-113790943D01*
X182471052Y-113890662D01*
X182471051Y-113890662D01*
X182749892Y-113951318D01*
X183034530Y-113971653D01*
X183930025Y-113971653D01*
X183939015Y-113971974D01*
X184210168Y-113991370D01*
X184227962Y-113993929D01*
X184489181Y-114050756D01*
X184506430Y-114055821D01*
X184756917Y-114149249D01*
X184773270Y-114156717D01*
X185007898Y-114284834D01*
X185023021Y-114294553D01*
X185237031Y-114454759D01*
X185250617Y-114466531D01*
X185439655Y-114655568D01*
X185451427Y-114669154D01*
X185611632Y-114883158D01*
X185621352Y-114898281D01*
X185749478Y-115132919D01*
X185756946Y-115149272D01*
X185850372Y-115399746D01*
X185855437Y-115416995D01*
X185912267Y-115678216D01*
X185914826Y-115696018D01*
X185934206Y-115967161D01*
X185934527Y-115976144D01*
X185934527Y-123367156D01*
X185934206Y-123376142D01*
X185914818Y-123647299D01*
X185912260Y-123665094D01*
X185855439Y-123926323D01*
X185850375Y-123943572D01*
X185756954Y-124194060D01*
X185749486Y-124210413D01*
X185621370Y-124445052D01*
X185611650Y-124460176D01*
X185451442Y-124674196D01*
X185439670Y-124687783D01*
X185250638Y-124876822D01*
X185237052Y-124888595D01*
X185023034Y-125048813D01*
X185007911Y-125058532D01*
X184773284Y-125186654D01*
X184756930Y-125194123D01*
X184506444Y-125287553D01*
X184489195Y-125292618D01*
X184227983Y-125349446D01*
X184210156Y-125352007D01*
X183939003Y-125371334D01*
X183930045Y-125371653D01*
X180306527Y-125371653D01*
X180238406Y-125351651D01*
X180191913Y-125297995D01*
X180180527Y-125245653D01*
X180180527Y-112724739D01*
X180180679Y-112718557D01*
X180181446Y-112702943D01*
X180182658Y-112690638D01*
X180184499Y-112678226D01*
X180186911Y-112666097D01*
X180189962Y-112653917D01*
X180193551Y-112642087D01*
X180197775Y-112630281D01*
X180202508Y-112618854D01*
X180207873Y-112607511D01*
X180213701Y-112596608D01*
X180220149Y-112585850D01*
X180227016Y-112575571D01*
X180234495Y-112565486D01*
X180242343Y-112555923D01*
X180250765Y-112546631D01*
X180259506Y-112537890D01*
X180268798Y-112529468D01*
X180278361Y-112521620D01*
X180288446Y-112514141D01*
X180298725Y-112507274D01*
X180309483Y-112500826D01*
X180320386Y-112494998D01*
X180331729Y-112489633D01*
X180343156Y-112484900D01*
X180354962Y-112480676D01*
X180366792Y-112477087D01*
X180378972Y-112474036D01*
X180391092Y-112471625D01*
X180404050Y-112469702D01*
X180415265Y-112468548D01*
X180427531Y-112467838D01*
X180432588Y-112467647D01*
X180996931Y-112457683D01*
X181065394Y-112476479D01*
G37*
G36*
X179487025Y-80868533D02*
G01*
X179589186Y-80890757D01*
X179606436Y-80895822D01*
X179856911Y-80989246D01*
X179873264Y-80996714D01*
X180107899Y-81124835D01*
X180123022Y-81134554D01*
X180337032Y-81294759D01*
X180350618Y-81306531D01*
X180539655Y-81495567D01*
X180551428Y-81509153D01*
X180711633Y-81723158D01*
X180721352Y-81738281D01*
X180849478Y-81972919D01*
X180856946Y-81989272D01*
X180950372Y-82239747D01*
X180955437Y-82256995D01*
X181012267Y-82518215D01*
X181014826Y-82536018D01*
X181034206Y-82807161D01*
X181034527Y-82816144D01*
X181034527Y-111971661D01*
X181054877Y-112256283D01*
X181115531Y-112535127D01*
X181115532Y-112535130D01*
X181215247Y-112802488D01*
X181215251Y-112802498D01*
X181352003Y-113052949D01*
X181523012Y-113281393D01*
X181724792Y-113483175D01*
X181724793Y-113483176D01*
X181953236Y-113654186D01*
X182054911Y-113709704D01*
X182105114Y-113759906D01*
X182120527Y-113820292D01*
X182120527Y-125245653D01*
X182100525Y-125313774D01*
X182046869Y-125360267D01*
X181994527Y-125371653D01*
X175388527Y-125371653D01*
X175320406Y-125351651D01*
X175273913Y-125297995D01*
X175262527Y-125245653D01*
X175262527Y-121377653D01*
X175282529Y-121309532D01*
X175336185Y-121263039D01*
X175388527Y-121251653D01*
X175516527Y-121251653D01*
X175516527Y-89774438D01*
X175388900Y-89774816D01*
X175320720Y-89755016D01*
X175274069Y-89701498D01*
X175262527Y-89648817D01*
X175262527Y-81122740D01*
X175262679Y-81116558D01*
X175263446Y-81100944D01*
X175264658Y-81088639D01*
X175266499Y-81076227D01*
X175268911Y-81064098D01*
X175271962Y-81051918D01*
X175275551Y-81040088D01*
X175279775Y-81028282D01*
X175284508Y-81016855D01*
X175289873Y-81005512D01*
X175295701Y-80994609D01*
X175302149Y-80983851D01*
X175309016Y-80973572D01*
X175316495Y-80963487D01*
X175324343Y-80953924D01*
X175332765Y-80944632D01*
X175341506Y-80935891D01*
X175350798Y-80927469D01*
X175360361Y-80919621D01*
X175370446Y-80912142D01*
X175380725Y-80905275D01*
X175391483Y-80898827D01*
X175402386Y-80892999D01*
X175413729Y-80887634D01*
X175425156Y-80882901D01*
X175436962Y-80878677D01*
X175448792Y-80875088D01*
X175460972Y-80872037D01*
X175473101Y-80869625D01*
X175485513Y-80867784D01*
X175497818Y-80866572D01*
X175513433Y-80865805D01*
X175519615Y-80865653D01*
X179460242Y-80865653D01*
X179487025Y-80868533D01*
G37*
G36*
X179039015Y-80811974D02*
G01*
X179310171Y-80831371D01*
X179327965Y-80833930D01*
X179589187Y-80890757D01*
X179606436Y-80895822D01*
X179856911Y-80989246D01*
X179873264Y-80996714D01*
X180107899Y-81124835D01*
X180123022Y-81134554D01*
X180337032Y-81294759D01*
X180350618Y-81306531D01*
X180539655Y-81495567D01*
X180551428Y-81509153D01*
X180711633Y-81723158D01*
X180721352Y-81738281D01*
X180849478Y-81972919D01*
X180856946Y-81989272D01*
X180950372Y-82239747D01*
X180955437Y-82256995D01*
X181012267Y-82518215D01*
X181014826Y-82536018D01*
X181034206Y-82807161D01*
X181034527Y-82816144D01*
X181034527Y-89886487D01*
X181014525Y-89954608D01*
X180960869Y-90001101D01*
X180908900Y-90012486D01*
X175642900Y-90028067D01*
X175574720Y-90008267D01*
X175528069Y-89954749D01*
X175516527Y-89902068D01*
X175516527Y-89774438D01*
X98300527Y-90002888D01*
X98300527Y-90131262D01*
X98280525Y-90199383D01*
X98226869Y-90245876D01*
X98174900Y-90257261D01*
X96560900Y-90262037D01*
X96492720Y-90242237D01*
X96446069Y-90188719D01*
X96434527Y-90136038D01*
X96434527Y-82816158D01*
X96434848Y-82807167D01*
X96454247Y-82536017D01*
X96456806Y-82518222D01*
X96513635Y-82257007D01*
X96518700Y-82239758D01*
X96612129Y-81989284D01*
X96619598Y-81972931D01*
X96747717Y-81738311D01*
X96757436Y-81723188D01*
X96917646Y-81509181D01*
X96929419Y-81495595D01*
X97118449Y-81306571D01*
X97132036Y-81294798D01*
X97346046Y-81134598D01*
X97361170Y-81124879D01*
X97595807Y-80996763D01*
X97612159Y-80989296D01*
X97862626Y-80895880D01*
X97879876Y-80890815D01*
X98141111Y-80833992D01*
X98158873Y-80831436D01*
X98430027Y-80811976D01*
X98439046Y-80811653D01*
X179030025Y-80811653D01*
X179039015Y-80811974D01*
G37*
M02*
