%TF.GenerationSoftware,KiCad,Pcbnew,7.0.10-7.0.10~ubuntu23.04.1*%
%TF.CreationDate,2024-02-09T20:40:25+00:00*%
%TF.ProjectId,SPACEDOS01,53504143-4544-44f5-9330-312e6b696361,B*%
%TF.SameCoordinates,Original*%
%TF.FileFunction,Soldermask,Top*%
%TF.FilePolarity,Negative*%
%FSLAX46Y46*%
G04 Gerber Fmt 4.6, Leading zero omitted, Abs format (unit mm)*
G04 Created by KiCad (PCBNEW 7.0.10-7.0.10~ubuntu23.04.1) date 2024-02-09 20:40:25*
%MOMM*%
%LPD*%
G01*
G04 APERTURE LIST*
G04 Aperture macros list*
%AMRoundRect*
0 Rectangle with rounded corners*
0 $1 Rounding radius*
0 $2 $3 $4 $5 $6 $7 $8 $9 X,Y pos of 4 corners*
0 Add a 4 corners polygon primitive as box body*
4,1,4,$2,$3,$4,$5,$6,$7,$8,$9,$2,$3,0*
0 Add four circle primitives for the rounded corners*
1,1,$1+$1,$2,$3*
1,1,$1+$1,$4,$5*
1,1,$1+$1,$6,$7*
1,1,$1+$1,$8,$9*
0 Add four rect primitives between the rounded corners*
20,1,$1+$1,$2,$3,$4,$5,0*
20,1,$1+$1,$4,$5,$6,$7,0*
20,1,$1+$1,$6,$7,$8,$9,0*
20,1,$1+$1,$8,$9,$2,$3,0*%
G04 Aperture macros list end*
%ADD10RoundRect,0.200000X-0.762000X-0.762000X0.762000X-0.762000X0.762000X0.762000X-0.762000X0.762000X0*%
%ADD11RoundRect,0.200000X-0.500000X-1.900000X0.500000X-1.900000X0.500000X1.900000X-0.500000X1.900000X0*%
%ADD12RoundRect,0.200000X-1.650000X-1.275000X1.650000X-1.275000X1.650000X1.275000X-1.650000X1.275000X0*%
%ADD13RoundRect,0.200000X-1.900000X-0.500000X1.900000X-0.500000X1.900000X0.500000X-1.900000X0.500000X0*%
%ADD14RoundRect,0.200000X-0.780000X-0.325000X0.780000X-0.325000X0.780000X0.325000X-0.780000X0.325000X0*%
%ADD15RoundRect,0.200000X-0.325000X0.780000X-0.325000X-0.780000X0.325000X-0.780000X0.325000X0.780000X0*%
%ADD16RoundRect,0.200000X-0.698500X0.444500X-0.698500X-0.444500X0.698500X-0.444500X0.698500X0.444500X0*%
%ADD17RoundRect,0.200000X0.444500X0.698500X-0.444500X0.698500X-0.444500X-0.698500X0.444500X-0.698500X0*%
%ADD18C,6.400000*%
%ADD19RoundRect,0.200000X0.698500X-0.444500X0.698500X0.444500X-0.698500X0.444500X-0.698500X-0.444500X0*%
%ADD20RoundRect,0.200000X-0.750000X-0.275000X0.750000X-0.275000X0.750000X0.275000X-0.750000X0.275000X0*%
%ADD21RoundRect,0.200000X0.275000X-0.750000X0.275000X0.750000X-0.275000X0.750000X-0.275000X-0.750000X0*%
%ADD22RoundRect,0.200000X-0.775000X-0.300000X0.775000X-0.300000X0.775000X0.300000X-0.775000X0.300000X0*%
%ADD23RoundRect,0.200000X-0.125000X0.550000X-0.125000X-0.550000X0.125000X-0.550000X0.125000X0.550000X0*%
%ADD24RoundRect,0.200000X-0.444500X-0.698500X0.444500X-0.698500X0.444500X0.698500X-0.444500X0.698500X0*%
%ADD25RoundRect,0.200000X0.635000X1.270000X-0.635000X1.270000X-0.635000X-1.270000X0.635000X-1.270000X0*%
%ADD26RoundRect,0.200000X0.530000X0.325000X-0.530000X0.325000X-0.530000X-0.325000X0.530000X-0.325000X0*%
%ADD27RoundRect,0.200000X0.850000X-0.650000X0.850000X0.650000X-0.850000X0.650000X-0.850000X-0.650000X0*%
%ADD28RoundRect,0.336957X0.563043X-0.438043X0.563043X0.438043X-0.563043X0.438043X-0.563043X-0.438043X0*%
%ADD29RoundRect,0.200000X0.500000X0.900000X-0.500000X0.900000X-0.500000X-0.900000X0.500000X-0.900000X0*%
%ADD30RoundRect,0.200000X-0.450000X-0.400000X0.450000X-0.400000X0.450000X0.400000X-0.450000X0.400000X0*%
%ADD31RoundRect,0.200000X-0.500000X-0.500000X0.500000X-0.500000X0.500000X0.500000X-0.500000X0.500000X0*%
%ADD32RoundRect,0.200000X-0.500000X-1.150000X0.500000X-1.150000X0.500000X1.150000X-0.500000X1.150000X0*%
%ADD33RoundRect,0.200000X-1.150000X-0.500000X1.150000X-0.500000X1.150000X0.500000X-1.150000X0.500000X0*%
%ADD34C,1.924000*%
%ADD35RoundRect,0.200000X1.275080X1.249680X-1.275080X1.249680X-1.275080X-1.249680X1.275080X-1.249680X0*%
%ADD36RoundRect,0.200000X-0.650000X-0.750000X0.650000X-0.750000X0.650000X0.750000X-0.650000X0.750000X0*%
%ADD37RoundRect,0.200000X-0.350000X-1.500000X0.350000X-1.500000X0.350000X1.500000X-0.350000X1.500000X0*%
%ADD38RoundRect,0.200000X0.650000X0.750000X-0.650000X0.750000X-0.650000X-0.750000X0.650000X-0.750000X0*%
%ADD39RoundRect,0.200000X0.350000X1.500000X-0.350000X1.500000X-0.350000X-1.500000X0.350000X-1.500000X0*%
%ADD40RoundRect,0.200000X0.762000X-0.762000X0.762000X0.762000X-0.762000X0.762000X-0.762000X-0.762000X0*%
%ADD41RoundRect,0.200000X0.762000X0.762000X-0.762000X0.762000X-0.762000X-0.762000X0.762000X-0.762000X0*%
G04 APERTURE END LIST*
D10*
%TO.C,J22*%
X147868627Y-99420353D03*
X150408627Y-99420353D03*
X147868627Y-101960353D03*
X150408627Y-101960353D03*
X147868627Y-104500353D03*
X150408627Y-104500353D03*
%TD*%
D11*
%TO.C,M6*%
X98068527Y-96606653D03*
X98068527Y-102606653D03*
X98068527Y-108606653D03*
X98068527Y-114606653D03*
D12*
X99218527Y-91231653D03*
X99218527Y-119981653D03*
D13*
X104968527Y-90456653D03*
X104968527Y-120756653D03*
X110968527Y-90456653D03*
X110968527Y-120756653D03*
X116968527Y-90456653D03*
X116968527Y-120756653D03*
X122968527Y-90456653D03*
X122968527Y-120756653D03*
X128968527Y-90456653D03*
X128968527Y-120756653D03*
X134968527Y-90456653D03*
X134968527Y-120756653D03*
D12*
X140718527Y-91231653D03*
X140718527Y-119981653D03*
D11*
X141868527Y-96606653D03*
X141868527Y-102606653D03*
X141868527Y-108606653D03*
X141868527Y-114606653D03*
%TD*%
D14*
%TO.C,U5*%
X137280627Y-98591353D03*
X137280627Y-99541353D03*
X137280627Y-100491353D03*
X139980627Y-100491353D03*
X139980627Y-98591353D03*
%TD*%
D15*
%TO.C,U4*%
X136913627Y-111018354D03*
X135963627Y-111018354D03*
X135013627Y-111018354D03*
X135013627Y-113718354D03*
X136913627Y-113718354D03*
%TD*%
D16*
%TO.C,C8*%
X130375627Y-110907853D03*
X130375627Y-112812853D03*
%TD*%
%TO.C,C3*%
X102435627Y-106971654D03*
X102435627Y-108876654D03*
%TD*%
D17*
%TO.C,R6*%
X104975627Y-100176353D03*
X103070627Y-100176353D03*
%TD*%
D16*
%TO.C,C13*%
X132661627Y-110907853D03*
X132661627Y-112812853D03*
%TD*%
D18*
%TO.C,M4*%
X113934528Y-84421653D03*
%TD*%
D19*
%TO.C,C24*%
X115229627Y-114406353D03*
X115229627Y-112501353D03*
%TD*%
D16*
%TO.C,C4*%
X128018527Y-97756654D03*
X128018527Y-99661654D03*
%TD*%
D18*
%TO.C,M2*%
X168824527Y-84421653D03*
%TD*%
D20*
%TO.C,U10*%
X155253627Y-102438353D03*
X155253627Y-103238353D03*
X155253627Y-104038353D03*
X155253627Y-104838353D03*
X155253627Y-105638353D03*
X155253627Y-106438353D03*
X155253627Y-107238353D03*
X155253627Y-108038353D03*
X155253627Y-108838353D03*
X155253627Y-109638353D03*
X155253627Y-110438353D03*
D21*
X156953627Y-112138353D03*
X157753627Y-112138353D03*
X158553627Y-112138353D03*
X159353627Y-112138353D03*
X160153627Y-112138353D03*
X160953627Y-112138353D03*
X161753627Y-112138353D03*
X162553627Y-112138353D03*
X163353627Y-112138353D03*
X164153627Y-112138353D03*
X164953627Y-112138353D03*
D20*
X166653627Y-110438353D03*
X166653627Y-109638353D03*
X166653627Y-108838353D03*
X166653627Y-108038353D03*
X166653627Y-107238353D03*
X166653627Y-106438353D03*
X166653627Y-105638353D03*
X166653627Y-104838353D03*
X166653627Y-104038353D03*
X166653627Y-103238353D03*
X166653627Y-102438353D03*
D21*
X164953627Y-100738353D03*
X164153627Y-100738353D03*
X163353627Y-100738353D03*
X162553627Y-100738353D03*
X161753627Y-100738353D03*
X160953627Y-100738353D03*
X160153627Y-100738353D03*
X159353627Y-100738353D03*
X158553627Y-100738353D03*
X157753627Y-100738353D03*
X156953627Y-100738353D03*
%TD*%
D16*
%TO.C,R4*%
X128089627Y-110907853D03*
X128089627Y-112812853D03*
%TD*%
D17*
%TO.C,C10*%
X108468127Y-102716353D03*
X106563127Y-102716353D03*
%TD*%
%TO.C,C5*%
X104975627Y-102716353D03*
X103070627Y-102716353D03*
%TD*%
D19*
%TO.C,R3*%
X132915627Y-100493852D03*
X132915627Y-98588852D03*
%TD*%
%TO.C,R2*%
X112595627Y-104621353D03*
X112595627Y-102716353D03*
%TD*%
D22*
%TO.C,U2*%
X127167627Y-102589353D03*
X127167627Y-103859353D03*
X127167627Y-105129353D03*
X127167627Y-106399353D03*
X132567627Y-106399353D03*
X132567627Y-105129353D03*
X132567627Y-103859353D03*
X132567627Y-102589353D03*
%TD*%
D16*
%TO.C,R10*%
X121993627Y-105383353D03*
X121993627Y-107288353D03*
%TD*%
%TO.C,C18*%
X124279627Y-101700353D03*
X124279627Y-103605353D03*
%TD*%
D22*
%TO.C,U1*%
X104815627Y-104621353D03*
X104815627Y-105891353D03*
X104815627Y-107161353D03*
X104815627Y-108431353D03*
X110215627Y-108431353D03*
X110215627Y-107161353D03*
X110215627Y-105891353D03*
X110215627Y-104621353D03*
%TD*%
D19*
%TO.C,C20*%
X107261627Y-99350853D03*
X107261627Y-97445853D03*
%TD*%
D17*
%TO.C,R7*%
X114089527Y-108721653D03*
X112184527Y-108721653D03*
%TD*%
D16*
%TO.C,C17*%
X124533627Y-106208853D03*
X124533627Y-108113853D03*
%TD*%
%TO.C,R9*%
X115184527Y-104971654D03*
X115184527Y-106876654D03*
%TD*%
D19*
%TO.C,C11*%
X114934527Y-103376653D03*
X114934527Y-101471653D03*
%TD*%
%TO.C,C16*%
X119961627Y-107288353D03*
X119961627Y-105383353D03*
%TD*%
D16*
%TO.C,R11*%
X121993627Y-101700353D03*
X121993627Y-103605353D03*
%TD*%
%TO.C,C15*%
X117421627Y-105256353D03*
X117421627Y-107161353D03*
%TD*%
D17*
%TO.C,R5*%
X135138127Y-96366353D03*
X133233127Y-96366353D03*
%TD*%
D16*
%TO.C,C12*%
X134947627Y-102779853D03*
X134947627Y-104684853D03*
%TD*%
D23*
%TO.C,U11*%
X169404527Y-95479653D03*
X168904527Y-95479653D03*
X168404527Y-95479653D03*
X167904527Y-95479653D03*
X167404527Y-95479653D03*
X167404527Y-99779653D03*
X167904527Y-99779653D03*
X168404527Y-99779653D03*
X168904527Y-99779653D03*
X169404527Y-99779653D03*
%TD*%
D24*
%TO.C,R13*%
X136789127Y-106780353D03*
X138694127Y-106780353D03*
%TD*%
D19*
%TO.C,C9*%
X137360627Y-96683853D03*
X137360627Y-94778853D03*
%TD*%
%TO.C,C14*%
X139900627Y-96683854D03*
X139900627Y-94778854D03*
%TD*%
D16*
%TO.C,C7*%
X137233627Y-102779853D03*
X137233627Y-104684853D03*
%TD*%
%TO.C,R12*%
X139900627Y-102398853D03*
X139900627Y-104303853D03*
%TD*%
D25*
%TO.C,L1*%
X173992527Y-108551654D03*
X170944527Y-108551654D03*
%TD*%
D16*
%TO.C,C19*%
X134947627Y-106589853D03*
X134947627Y-108494853D03*
%TD*%
D26*
%TO.C,U8*%
X155872527Y-94020353D03*
X155872527Y-93070353D03*
X155872527Y-92120353D03*
X153672527Y-92120353D03*
X153672527Y-94020353D03*
%TD*%
D19*
%TO.C,C2*%
X117515627Y-114342853D03*
X117515627Y-112437853D03*
%TD*%
D27*
%TO.C,D3*%
X169166527Y-115127653D03*
X169166527Y-111627653D03*
%TD*%
D17*
%TO.C,F2*%
X166880527Y-119219653D03*
X164975527Y-119219653D03*
%TD*%
D16*
%TO.C,C55*%
X173738527Y-117759153D03*
X173738527Y-119664153D03*
%TD*%
D28*
%TO.C,L3*%
X155704527Y-97901653D03*
X155704527Y-95851653D03*
%TD*%
D29*
%TO.C,Y2*%
X167896527Y-93311653D03*
X170396527Y-93311653D03*
%TD*%
D24*
%TO.C,R22*%
X115610627Y-116946352D03*
X117515627Y-116946352D03*
%TD*%
%TO.C,R19*%
X119420627Y-116946353D03*
X121325627Y-116946353D03*
%TD*%
%TO.C,R15*%
X123230627Y-116946353D03*
X125135627Y-116946353D03*
%TD*%
D19*
%TO.C,C23*%
X119547627Y-114342853D03*
X119547627Y-112437853D03*
%TD*%
%TO.C,C21*%
X121579627Y-114342853D03*
X121579627Y-112437853D03*
%TD*%
D16*
%TO.C,C34*%
X150916627Y-106659353D03*
X150916627Y-108564353D03*
%TD*%
D17*
%TO.C,C27*%
X173675027Y-113377653D03*
X171770027Y-113377653D03*
%TD*%
D24*
%TO.C,R20*%
X169166527Y-101693653D03*
X171071527Y-101693653D03*
%TD*%
%TO.C,R23*%
X147360627Y-106786353D03*
X149265627Y-106786353D03*
%TD*%
D17*
%TO.C,C26*%
X173675027Y-115409653D03*
X171770027Y-115409653D03*
%TD*%
D30*
%TO.C,U3*%
X111611627Y-97448353D03*
X111611627Y-99348353D03*
X113611627Y-98398353D03*
%TD*%
D16*
%TO.C,C43*%
X148084528Y-108932653D03*
X148084528Y-110837653D03*
%TD*%
D18*
%TO.C,M1*%
X181744527Y-122521653D03*
%TD*%
D24*
%TO.C,C39*%
X160886127Y-114279354D03*
X162791127Y-114279354D03*
%TD*%
D17*
%TO.C,C28*%
X173675027Y-111091653D03*
X171770027Y-111091653D03*
%TD*%
D16*
%TO.C,R1*%
X139519627Y-112431853D03*
X139519627Y-114336853D03*
%TD*%
D18*
%TO.C,M3*%
X96014527Y-125061654D03*
%TD*%
D17*
%TO.C,C36*%
X166817027Y-116933653D03*
X164912027Y-116933653D03*
%TD*%
D19*
%TO.C,C32*%
X157990527Y-95089653D03*
X157990527Y-93184653D03*
%TD*%
D31*
%TO.C,M9*%
X143978527Y-89705654D03*
D32*
X143978527Y-91355654D03*
D11*
X143978527Y-96605654D03*
X143978527Y-102605654D03*
X143978527Y-108605654D03*
X143978527Y-114605654D03*
D32*
X143978527Y-119855654D03*
D31*
X143978527Y-121505654D03*
D33*
X145628527Y-89705654D03*
X145628527Y-121505654D03*
D13*
X150878527Y-89705654D03*
X150878527Y-121505654D03*
X156878527Y-89705654D03*
X156878527Y-121505654D03*
X162878527Y-89705654D03*
X162878527Y-121505654D03*
X168878527Y-89705654D03*
X168878527Y-121505654D03*
D33*
X174128527Y-89705654D03*
X174128527Y-121505654D03*
D31*
X175778527Y-89705654D03*
D32*
X175778527Y-91355654D03*
D11*
X175778527Y-96605654D03*
X175778527Y-102605654D03*
X175778527Y-108605654D03*
X175778527Y-114605654D03*
D32*
X175778527Y-119855654D03*
D31*
X175778527Y-121505654D03*
%TD*%
D19*
%TO.C,R21*%
X165610527Y-94962653D03*
X165610527Y-93057653D03*
%TD*%
D16*
%TO.C,C44*%
X168912527Y-104487653D03*
X168912527Y-106392653D03*
%TD*%
%TO.C,C31*%
X168912527Y-107853153D03*
X168912527Y-109758153D03*
%TD*%
%TO.C,C40*%
X171198527Y-103979653D03*
X171198527Y-105884653D03*
%TD*%
%TO.C,C50*%
X149354527Y-94581653D03*
X149354527Y-96486653D03*
%TD*%
%TO.C,C42*%
X151640526Y-94454653D03*
X151640526Y-96359653D03*
%TD*%
D19*
%TO.C,C35*%
X160022527Y-97629653D03*
X160022527Y-95724653D03*
%TD*%
%TO.C,C47*%
X171706528Y-97820153D03*
X171706528Y-95915153D03*
%TD*%
D24*
%TO.C,C54*%
X145671527Y-96359653D03*
X147576527Y-96359653D03*
%TD*%
D34*
%TO.C,D1*%
X112524527Y-114221653D03*
X107524527Y-114221653D03*
%TD*%
D16*
%TO.C,R8*%
X115934528Y-108812353D03*
X115934528Y-110717353D03*
%TD*%
D19*
%TO.C,C6*%
X116913627Y-103376653D03*
X116913627Y-101471653D03*
%TD*%
D35*
%TO.C,C1*%
X127185387Y-95096353D03*
X122135867Y-95096353D03*
%TD*%
D36*
%TO.C,C29*%
X169086527Y-118203653D03*
D37*
X170436527Y-118203653D03*
D36*
X171786527Y-118203653D03*
%TD*%
D38*
%TO.C,C52*%
X148846527Y-92295653D03*
D39*
X147496527Y-92295653D03*
D38*
X146146527Y-92295653D03*
%TD*%
D40*
%TO.C,J19*%
X154942527Y-119473653D03*
X154942527Y-116933653D03*
%TD*%
D10*
%TO.C,J6*%
X152402527Y-116933653D03*
%TD*%
%TO.C,J4*%
X149862527Y-116933653D03*
%TD*%
%TO.C,J7*%
X152402527Y-119473653D03*
%TD*%
D41*
%TO.C,J3*%
X162562527Y-116933653D03*
X162562527Y-119473653D03*
%TD*%
%TO.C,J2*%
X157482527Y-116933653D03*
X157482527Y-119473653D03*
%TD*%
D10*
%TO.C,J5*%
X149862527Y-119473653D03*
%TD*%
%TO.C,J1*%
X160022527Y-119473653D03*
X160022527Y-116933653D03*
%TD*%
G36*
X97688314Y-116481631D02*
G01*
X97688239Y-116483781D01*
X97438421Y-122229597D01*
X97438001Y-122235761D01*
X97436556Y-122251340D01*
X97434810Y-122263584D01*
X97432434Y-122275898D01*
X97429495Y-122287919D01*
X97425919Y-122299949D01*
X97421821Y-122311608D01*
X97417086Y-122323224D01*
X97411863Y-122334430D01*
X97406013Y-122345525D01*
X97399713Y-122356172D01*
X97392803Y-122366640D01*
X97385494Y-122376611D01*
X97377582Y-122386362D01*
X97369336Y-122395565D01*
X97360519Y-122404484D01*
X97351402Y-122412841D01*
X97341749Y-122420855D01*
X97331853Y-122428281D01*
X97321457Y-122435312D01*
X97310893Y-122441725D01*
X97299867Y-122447699D01*
X97288711Y-122453052D01*
X97277142Y-122457920D01*
X97265535Y-122462148D01*
X97253546Y-122465859D01*
X97241561Y-122468933D01*
X97229278Y-122471448D01*
X97217062Y-122473330D01*
X97202926Y-122474802D01*
X97193881Y-122475418D01*
X97188297Y-122475596D01*
X97185447Y-122475655D01*
X92561691Y-122518364D01*
X92493388Y-122498992D01*
X92446402Y-122445768D01*
X92434527Y-122392369D01*
X92434527Y-119976154D01*
X92434848Y-119967166D01*
X92454241Y-119696008D01*
X92456800Y-119678213D01*
X92513624Y-119416999D01*
X92518688Y-119399750D01*
X92612113Y-119149267D01*
X92619582Y-119132913D01*
X92747703Y-118898278D01*
X92757422Y-118883155D01*
X92917630Y-118669143D01*
X92929403Y-118655557D01*
X93118431Y-118466529D01*
X93132017Y-118454756D01*
X93346029Y-118294548D01*
X93361152Y-118284829D01*
X93595787Y-118156709D01*
X93612141Y-118149239D01*
X93862624Y-118055814D01*
X93879873Y-118050750D01*
X94141087Y-117993926D01*
X94158881Y-117991367D01*
X94714666Y-117951616D01*
X94723561Y-117950338D01*
X94993585Y-117891598D01*
X95002212Y-117889065D01*
X95261145Y-117792488D01*
X95269302Y-117788763D01*
X95511855Y-117656319D01*
X95519417Y-117651460D01*
X95740644Y-117485849D01*
X95747433Y-117479967D01*
X95942841Y-117284559D01*
X95948724Y-117277770D01*
X96114334Y-117056543D01*
X96119193Y-117048981D01*
X96251637Y-116806428D01*
X96255362Y-116798271D01*
X96351939Y-116539338D01*
X96354472Y-116530711D01*
X96402730Y-116308872D01*
X96436755Y-116246560D01*
X96499067Y-116212535D01*
X96526957Y-116209661D01*
X97433665Y-116217636D01*
X97439845Y-116217842D01*
X97455465Y-116218747D01*
X97467759Y-116220067D01*
X97480154Y-116222017D01*
X97492256Y-116224535D01*
X97504400Y-116227690D01*
X97516214Y-116231388D01*
X97527988Y-116235719D01*
X97539355Y-116240545D01*
X97550649Y-116246008D01*
X97561511Y-116251937D01*
X97572217Y-116258483D01*
X97582429Y-116265437D01*
X97592441Y-116272999D01*
X97601939Y-116280934D01*
X97611157Y-116289440D01*
X97619821Y-116298256D01*
X97628160Y-116307621D01*
X97635923Y-116317253D01*
X97643314Y-116327405D01*
X97650087Y-116337737D01*
X97656440Y-116348549D01*
X97662176Y-116359509D01*
X97667441Y-116370901D01*
X97672071Y-116382366D01*
X97676197Y-116394222D01*
X97679684Y-116406089D01*
X97682622Y-116418277D01*
X97684927Y-116430421D01*
X97686658Y-116442841D01*
X97687762Y-116455154D01*
X97688348Y-116469703D01*
X97688407Y-116478106D01*
X97688314Y-116481631D01*
G37*
G36*
X98534525Y-89944632D02*
G01*
X98480869Y-89991125D01*
X98428900Y-90002510D01*
X98318645Y-90002836D01*
X98303415Y-90007357D01*
X98302151Y-90008825D01*
X98300528Y-90016342D01*
X98300528Y-121233538D01*
X98305002Y-121248778D01*
X98306392Y-121249982D01*
X98314075Y-121251653D01*
X98428527Y-121251653D01*
X98496648Y-121271655D01*
X98543141Y-121325311D01*
X98554527Y-121377653D01*
X98554527Y-122010565D01*
X98554375Y-122016747D01*
X98553608Y-122032362D01*
X98552395Y-122044668D01*
X98550556Y-122057079D01*
X98548143Y-122069205D01*
X98545092Y-122081386D01*
X98541503Y-122093218D01*
X98537279Y-122105024D01*
X98532546Y-122116451D01*
X98527181Y-122127794D01*
X98521349Y-122138705D01*
X98514900Y-122149463D01*
X98508038Y-122159732D01*
X98500560Y-122169816D01*
X98492706Y-122179386D01*
X98484283Y-122188678D01*
X98475552Y-122197409D01*
X98466260Y-122205832D01*
X98456690Y-122213686D01*
X98446606Y-122221164D01*
X98436337Y-122228026D01*
X98425579Y-122234475D01*
X98414668Y-122240307D01*
X98403325Y-122245672D01*
X98391898Y-122250405D01*
X98380092Y-122254629D01*
X98368260Y-122258218D01*
X98356079Y-122261269D01*
X98343953Y-122263682D01*
X98331542Y-122265521D01*
X98319232Y-122266734D01*
X98306705Y-122267349D01*
X98294348Y-122267349D01*
X98279194Y-122266605D01*
X98271458Y-122265986D01*
X95989568Y-122012442D01*
X95983451Y-122011611D01*
X95967981Y-122009120D01*
X95955872Y-122006554D01*
X95943758Y-122003358D01*
X95931962Y-121999618D01*
X95920197Y-121995241D01*
X95908846Y-121990372D01*
X95897564Y-121984863D01*
X95886728Y-121978896D01*
X95876061Y-121972320D01*
X95865869Y-121965325D01*
X95855875Y-121957718D01*
X95846408Y-121949747D01*
X95837221Y-121941209D01*
X95828598Y-121932367D01*
X95820295Y-121922974D01*
X95812567Y-121913315D01*
X95805212Y-121903135D01*
X95798467Y-121892762D01*
X95792156Y-121881927D01*
X95786467Y-121870957D01*
X95781245Y-121859550D01*
X95776658Y-121848072D01*
X95772578Y-121836203D01*
X95769133Y-121824321D01*
X95766237Y-121812115D01*
X95763976Y-121799961D01*
X95762237Y-121787131D01*
X95761209Y-121775591D01*
X95760642Y-121762355D01*
X95760527Y-121756962D01*
X95760527Y-117519063D01*
X95780529Y-117450942D01*
X95797432Y-117429968D01*
X95942841Y-117284559D01*
X95948724Y-117277770D01*
X96114334Y-117056543D01*
X96119193Y-117048981D01*
X96251637Y-116806428D01*
X96255362Y-116798271D01*
X96351939Y-116539338D01*
X96354472Y-116530711D01*
X96413212Y-116260687D01*
X96414491Y-116251792D01*
X96434366Y-115973903D01*
X96434527Y-115969396D01*
X96434527Y-82816154D01*
X96434848Y-82807166D01*
X96454241Y-82536008D01*
X96456800Y-82518213D01*
X96513623Y-82256999D01*
X96518688Y-82239750D01*
X96612113Y-81989267D01*
X96619582Y-81972913D01*
X96747703Y-81738278D01*
X96757422Y-81723155D01*
X96917630Y-81509143D01*
X96929403Y-81495557D01*
X97118431Y-81306529D01*
X97132017Y-81294756D01*
X97346029Y-81134548D01*
X97361153Y-81124828D01*
X97595788Y-80996708D01*
X97612140Y-80989241D01*
X97625505Y-80984256D01*
X97696871Y-80979312D01*
X98352617Y-81125032D01*
X98358616Y-81126521D01*
X98373690Y-81130656D01*
X98385449Y-81134512D01*
X98397162Y-81139001D01*
X98408472Y-81143984D01*
X98419701Y-81149605D01*
X98430476Y-81155678D01*
X98441089Y-81162367D01*
X98451209Y-81169460D01*
X98461115Y-81177154D01*
X98470502Y-81185216D01*
X98479604Y-81193845D01*
X98488146Y-81202775D01*
X98496365Y-81212262D01*
X98503996Y-81221994D01*
X98511242Y-81232234D01*
X98517879Y-81242663D01*
X98524084Y-81253559D01*
X98529670Y-81264596D01*
X98534782Y-81276060D01*
X98539258Y-81287588D01*
X98543222Y-81299499D01*
X98546546Y-81311407D01*
X98549322Y-81323638D01*
X98551461Y-81335810D01*
X98553113Y-81348959D01*
X98554005Y-81359890D01*
X98554436Y-81371252D01*
X98554527Y-81376028D01*
X98554527Y-89876511D01*
X98534525Y-89944632D01*
G37*
G36*
X185934206Y-123376140D02*
G01*
X185914812Y-123647298D01*
X185912254Y-123665093D01*
X185855430Y-123926307D01*
X185850366Y-123943557D01*
X185756941Y-124194039D01*
X185749472Y-124210393D01*
X185621351Y-124445028D01*
X185611632Y-124460151D01*
X185451424Y-124674163D01*
X185439651Y-124687749D01*
X185250623Y-124876777D01*
X185237037Y-124888550D01*
X185023025Y-125048758D01*
X185007902Y-125058477D01*
X184773267Y-125186598D01*
X184756913Y-125194066D01*
X184506430Y-125287492D01*
X184489181Y-125292556D01*
X184227967Y-125349380D01*
X184210172Y-125351939D01*
X183939014Y-125371332D01*
X183930026Y-125371653D01*
X160936997Y-125371653D01*
X160932070Y-125371846D01*
X160704810Y-125389732D01*
X160695061Y-125391275D01*
X160475814Y-125443913D01*
X160466429Y-125446962D01*
X160258113Y-125533249D01*
X160249318Y-125537731D01*
X160057074Y-125655539D01*
X160049081Y-125661346D01*
X159877630Y-125807780D01*
X159870654Y-125814756D01*
X159724220Y-125986207D01*
X159718413Y-125994200D01*
X159600605Y-126186444D01*
X159596123Y-126195239D01*
X159509836Y-126403555D01*
X159506787Y-126412940D01*
X159454148Y-126632188D01*
X159452606Y-126641935D01*
X159434720Y-126869196D01*
X159434527Y-126874122D01*
X159434528Y-127466697D01*
X159434139Y-127476583D01*
X159416838Y-127696420D01*
X159413745Y-127715949D01*
X159363427Y-127925537D01*
X159357317Y-127944341D01*
X159274831Y-128143481D01*
X159265854Y-128161099D01*
X159153233Y-128344877D01*
X159141612Y-128360872D01*
X159001627Y-128524773D01*
X158987647Y-128538753D01*
X158823746Y-128678738D01*
X158807751Y-128690359D01*
X158623973Y-128802980D01*
X158606355Y-128811957D01*
X158407215Y-128894443D01*
X158388411Y-128900553D01*
X158178823Y-128950871D01*
X158159294Y-128953964D01*
X157939457Y-128971265D01*
X157929571Y-128971654D01*
X94439028Y-128971653D01*
X94430040Y-128971333D01*
X94158882Y-128951939D01*
X94141087Y-128949380D01*
X93879873Y-128892556D01*
X93862624Y-128887492D01*
X93612141Y-128794067D01*
X93595787Y-128786598D01*
X93361152Y-128658477D01*
X93346029Y-128648758D01*
X93132017Y-128488550D01*
X93118431Y-128476777D01*
X92929403Y-128287749D01*
X92917630Y-128274163D01*
X92757422Y-128060151D01*
X92747703Y-128045028D01*
X92619582Y-127810393D01*
X92612113Y-127794039D01*
X92518689Y-127543556D01*
X92513624Y-127526307D01*
X92456800Y-127265093D01*
X92454241Y-127247298D01*
X92434848Y-126976140D01*
X92434527Y-126967152D01*
X92434527Y-121123653D01*
X92454529Y-121055532D01*
X92508185Y-121009039D01*
X92560527Y-120997653D01*
X97106147Y-120997654D01*
X97174268Y-121017655D01*
X97220761Y-121071311D01*
X97232028Y-121129126D01*
X97227488Y-121233554D01*
X97231296Y-121248973D01*
X97231572Y-121249234D01*
X97241635Y-121251653D01*
X180416412Y-121251653D01*
X180431650Y-121247178D01*
X180432855Y-121245788D01*
X180434527Y-121238105D01*
X180434527Y-121123654D01*
X180454529Y-121055532D01*
X180508185Y-121009039D01*
X180560527Y-120997654D01*
X185419439Y-120997653D01*
X185425621Y-120997805D01*
X185441236Y-120998572D01*
X185453543Y-120999784D01*
X185465953Y-121001625D01*
X185478079Y-121004037D01*
X185490260Y-121007088D01*
X185502092Y-121010677D01*
X185513898Y-121014901D01*
X185525325Y-121019634D01*
X185536668Y-121024999D01*
X185547579Y-121030831D01*
X185558337Y-121037280D01*
X185568606Y-121044142D01*
X185578690Y-121051620D01*
X185588260Y-121059474D01*
X185597552Y-121067897D01*
X185606283Y-121076628D01*
X185614706Y-121085920D01*
X185622560Y-121095490D01*
X185630374Y-121106027D01*
X185636660Y-121115346D01*
X185643057Y-121125807D01*
X185645618Y-121130191D01*
X185904879Y-121595278D01*
X185907756Y-121600750D01*
X185914688Y-121614760D01*
X185919623Y-121626102D01*
X185924062Y-121637850D01*
X185927860Y-121649619D01*
X185930192Y-121658279D01*
X185934527Y-121691045D01*
X185934527Y-123367152D01*
X185934206Y-123376140D01*
G37*
G36*
X185934206Y-123376140D02*
G01*
X185914812Y-123647298D01*
X185912254Y-123665093D01*
X185855430Y-123926307D01*
X185850366Y-123943557D01*
X185756941Y-124194039D01*
X185749472Y-124210393D01*
X185621351Y-124445028D01*
X185611632Y-124460151D01*
X185451424Y-124674163D01*
X185439651Y-124687749D01*
X185250623Y-124876777D01*
X185237037Y-124888550D01*
X185023025Y-125048758D01*
X185007902Y-125058477D01*
X184773267Y-125186598D01*
X184756913Y-125194066D01*
X184506430Y-125287492D01*
X184489181Y-125292556D01*
X184227967Y-125349380D01*
X184210172Y-125351939D01*
X183939014Y-125371332D01*
X183930026Y-125371653D01*
X180306527Y-125371653D01*
X180238406Y-125351651D01*
X180191913Y-125297995D01*
X180180527Y-125245653D01*
X180180527Y-112724741D01*
X180180679Y-112718559D01*
X180181446Y-112702944D01*
X180182658Y-112690638D01*
X180184499Y-112678227D01*
X180186911Y-112666101D01*
X180189962Y-112653919D01*
X180193551Y-112642088D01*
X180197775Y-112630282D01*
X180202508Y-112618855D01*
X180207873Y-112607512D01*
X180213705Y-112596601D01*
X180220154Y-112585843D01*
X180227017Y-112575574D01*
X180234494Y-112565490D01*
X180242347Y-112555920D01*
X180250771Y-112546628D01*
X180259502Y-112537897D01*
X180268794Y-112529474D01*
X180278364Y-112521620D01*
X180288449Y-112514142D01*
X180298717Y-112507280D01*
X180309475Y-112500831D01*
X180320386Y-112494999D01*
X180331729Y-112489634D01*
X180343156Y-112484900D01*
X180354962Y-112480678D01*
X180366794Y-112477088D01*
X180378975Y-112474037D01*
X180391102Y-112471625D01*
X180404060Y-112469703D01*
X180415256Y-112468550D01*
X180427522Y-112467839D01*
X180432589Y-112467648D01*
X180996945Y-112457685D01*
X181065408Y-112476481D01*
X181112841Y-112529307D01*
X181117225Y-112539633D01*
X181213691Y-112798271D01*
X181217417Y-112806428D01*
X181349861Y-113048981D01*
X181354721Y-113056543D01*
X181520330Y-113277770D01*
X181526214Y-113284559D01*
X181721621Y-113479966D01*
X181728410Y-113485850D01*
X181949637Y-113651459D01*
X181957199Y-113656319D01*
X182199752Y-113788764D01*
X182207909Y-113792489D01*
X182466842Y-113889065D01*
X182475469Y-113891597D01*
X182745493Y-113950338D01*
X182754388Y-113951617D01*
X183032277Y-113971492D01*
X183036784Y-113971652D01*
X183930026Y-113971653D01*
X183939014Y-113971974D01*
X184210172Y-113991367D01*
X184227967Y-113993926D01*
X184489181Y-114050750D01*
X184506430Y-114055814D01*
X184756913Y-114149240D01*
X184773267Y-114156708D01*
X185007902Y-114284829D01*
X185023025Y-114294548D01*
X185237037Y-114454756D01*
X185250623Y-114466529D01*
X185439651Y-114655557D01*
X185451424Y-114669143D01*
X185611632Y-114883155D01*
X185621351Y-114898278D01*
X185749472Y-115132913D01*
X185756941Y-115149267D01*
X185850366Y-115399749D01*
X185855430Y-115416999D01*
X185912254Y-115678213D01*
X185914812Y-115696008D01*
X185934206Y-115967166D01*
X185934527Y-115976154D01*
X185934527Y-123367152D01*
X185934206Y-123376140D01*
G37*
G36*
X182100525Y-125313774D02*
G01*
X182046869Y-125360267D01*
X181994527Y-125371653D01*
X175388527Y-125371653D01*
X175320406Y-125351651D01*
X175273913Y-125297995D01*
X175262527Y-125245653D01*
X175262527Y-121377653D01*
X175282529Y-121309532D01*
X175336185Y-121263039D01*
X175388527Y-121251653D01*
X175498412Y-121251653D01*
X175513651Y-121247178D01*
X175514856Y-121245788D01*
X175516527Y-121238105D01*
X175516527Y-89792555D01*
X175512052Y-89777317D01*
X175510736Y-89776176D01*
X175502887Y-89774480D01*
X175388899Y-89774817D01*
X175320720Y-89755017D01*
X175274068Y-89701499D01*
X175262527Y-89648818D01*
X175262527Y-81122741D01*
X175262679Y-81116559D01*
X175263446Y-81100944D01*
X175264659Y-81088638D01*
X175266498Y-81076227D01*
X175268911Y-81064101D01*
X175271962Y-81051920D01*
X175275551Y-81040088D01*
X175279775Y-81028282D01*
X175284508Y-81016855D01*
X175289873Y-81005512D01*
X175295705Y-80994601D01*
X175302154Y-80983843D01*
X175309016Y-80973574D01*
X175316494Y-80963490D01*
X175324348Y-80953920D01*
X175332771Y-80944628D01*
X175341502Y-80935897D01*
X175350794Y-80927474D01*
X175360364Y-80919620D01*
X175370448Y-80912142D01*
X175380717Y-80905280D01*
X175391475Y-80898831D01*
X175402386Y-80892999D01*
X175413729Y-80887634D01*
X175425156Y-80882901D01*
X175436962Y-80878677D01*
X175448794Y-80875088D01*
X175460975Y-80872037D01*
X175473101Y-80869624D01*
X175485512Y-80867785D01*
X175497818Y-80866572D01*
X175513433Y-80865805D01*
X175519615Y-80865653D01*
X179460267Y-80865653D01*
X179487050Y-80868532D01*
X179589181Y-80890749D01*
X179606430Y-80895814D01*
X179856913Y-80989239D01*
X179873267Y-80996708D01*
X180107902Y-81124829D01*
X180123025Y-81134548D01*
X180337037Y-81294756D01*
X180350623Y-81306529D01*
X180539651Y-81495557D01*
X180551424Y-81509143D01*
X180711632Y-81723155D01*
X180721351Y-81738278D01*
X180849472Y-81972913D01*
X180856941Y-81989267D01*
X180950366Y-82239750D01*
X180955430Y-82256999D01*
X181012254Y-82518213D01*
X181014813Y-82536008D01*
X181034206Y-82807166D01*
X181034527Y-82816154D01*
X181034527Y-111969395D01*
X181034688Y-111973903D01*
X181054563Y-112251792D01*
X181055842Y-112260687D01*
X181114583Y-112530711D01*
X181117115Y-112539338D01*
X181213691Y-112798271D01*
X181217417Y-112806428D01*
X181349861Y-113048981D01*
X181354721Y-113056543D01*
X181520330Y-113277770D01*
X181526214Y-113284559D01*
X181721621Y-113479966D01*
X181728410Y-113485850D01*
X181949637Y-113651459D01*
X181957199Y-113656319D01*
X182054912Y-113709674D01*
X182105113Y-113759876D01*
X182120527Y-113820262D01*
X182120527Y-125245653D01*
X182100525Y-125313774D01*
G37*
G36*
X181014525Y-89954609D02*
G01*
X180960869Y-90001102D01*
X180908900Y-90012488D01*
X175642900Y-90028067D01*
X175574720Y-90008268D01*
X175528069Y-89954749D01*
X175516527Y-89902068D01*
X175516527Y-89792555D01*
X175512052Y-89777317D01*
X175510736Y-89776176D01*
X175502887Y-89774480D01*
X98318645Y-90002836D01*
X98303415Y-90007357D01*
X98302151Y-90008825D01*
X98300528Y-90016342D01*
X98300528Y-90131264D01*
X98280525Y-90199385D01*
X98226869Y-90245878D01*
X98174900Y-90257263D01*
X96560900Y-90262038D01*
X96492720Y-90242239D01*
X96446069Y-90188720D01*
X96434527Y-90136039D01*
X96434527Y-82816154D01*
X96434848Y-82807166D01*
X96454241Y-82536008D01*
X96456800Y-82518213D01*
X96513623Y-82256999D01*
X96518688Y-82239750D01*
X96612113Y-81989267D01*
X96619582Y-81972913D01*
X96747703Y-81738278D01*
X96757422Y-81723155D01*
X96917630Y-81509143D01*
X96929403Y-81495557D01*
X97118431Y-81306529D01*
X97132017Y-81294756D01*
X97346029Y-81134548D01*
X97361152Y-81124829D01*
X97595787Y-80996708D01*
X97612141Y-80989239D01*
X97862624Y-80895814D01*
X97879873Y-80890750D01*
X98141087Y-80833926D01*
X98158882Y-80831366D01*
X98430040Y-80811974D01*
X98439029Y-80811653D01*
X179030026Y-80811653D01*
X179039014Y-80811974D01*
X179310172Y-80831367D01*
X179327967Y-80833925D01*
X179589181Y-80890750D01*
X179606430Y-80895814D01*
X179856913Y-80989239D01*
X179873267Y-80996708D01*
X180107902Y-81124829D01*
X180123025Y-81134548D01*
X180337037Y-81294756D01*
X180350623Y-81306529D01*
X180539651Y-81495557D01*
X180551424Y-81509143D01*
X180711632Y-81723155D01*
X180721351Y-81738278D01*
X180849472Y-81972913D01*
X180856941Y-81989267D01*
X180950366Y-82239750D01*
X180955430Y-82256999D01*
X181012254Y-82518213D01*
X181014813Y-82536008D01*
X181034206Y-82807166D01*
X181034527Y-82816154D01*
X181034527Y-89886489D01*
X181014525Y-89954609D01*
G37*
M02*
