  0
SECTION
  2
HEADER
  9
$ANGBASE
  50
0.0
  9
$ANGDIR
  70
1
  9
$MEASUREMENT
  70
0
  0
ENDSEC
  0
SECTION
  2
TABLES
  0
TABLE
  2
LTYPE
  70
4
  0
LTYPE
  5
40F
  2
CONTINUOUS
  70
0
  3
Solid line
  72
65
  73
0
  40
0.0
  0
LTYPE
  5
410
  2
DASHDOT
 70
0
  3
Dash Dot ____ _ ____ _
 72
65
 73
4
 40
2.0
 49
1.25
 49
-0.25
 49
0.25
 49
-0.25
  0
LTYPE
  5
411
  2
DASHED
 70
0
  3
Dashed __ __ __ __ __
 72
65
 73
2
 40
0.75
 49
0.5
 49
-0.25
  0
LTYPE
  5
43B
  2
DOTTED
 70
0
  3
Dotted .  .  .  .
 72
65
 73
2
 40
0.2
 49
0.0
 49
-0.2
  0
ENDTAB
  0
TABLE
  2
STYLE
  70
4
  0
STYLE
  2
KICAD
  70
0
  40
0
  41
1
  42
1
  50
0
  71
0
  3
isocp.shx
  0
STYLE
  2
KICADB
  70
0
  40
0
  41
1
  42
1
  50
0
  71
0
  3
isocp.shx
  0
STYLE
  2
KICADI
  70
0
  40
0
  41
1
  42
1
  50
15
  71
0
  3
isocp.shx
  0
STYLE
  2
KICADBI
  70
0
  40
0
  41
1
  42
1
  50
15
  71
0
  3
isocp.shx
  0
ENDTAB
  0
TABLE
  2
LAYER
  70
1
  0
LAYER
  2
BLACK
  70
0
  62
7
  6
CONTINUOUS
  0
ENDTAB
  0
ENDSEC
  0
SECTION
  2
ENTITIES
0
LINE
8
BLACK
6
CONTINUOUS
10
6.7037832283464569
20
-4.3584470866141736
11
6.7043159055118107
21
-4.3589797637795273
0
LINE
8
BLACK
6
CONTINUOUS
10
6.7043159055118107
20
-4.3589797637795273
11
6.704390826771653
21
-4.359356417322835
0
LINE
8
BLACK
6
CONTINUOUS
10
6.704390826771653
20
-4.359356417322835
11
6.704390826771653
21
-4.5680178346456692
0
LINE
8
BLACK
6
CONTINUOUS
10
6.704390826771653
20
-4.5680178346456692
11
6.7043159055118107
21
-4.568394488188976
0
LINE
8
BLACK
6
CONTINUOUS
10
6.7043159055118107
20
-4.568394488188976
11
6.7037832283464569
21
-4.5689271653543306
0
LINE
8
BLACK
6
CONTINUOUS
10
6.7037832283464569
20
-4.5689271653543306
11
6.7034065748031493
21
-4.569002086614173
0
LINE
8
BLACK
6
CONTINUOUS
10
6.7034065748031493
20
-4.569002086614173
11
6.616792401574803
21
-4.569002086614173
0
LINE
8
BLACK
6
CONTINUOUS
10
6.616792401574803
20
-4.569002086614173
11
6.6164157480314962
21
-4.5689271653543306
0
LINE
8
BLACK
6
CONTINUOUS
10
6.6164157480314962
20
-4.5689271653543306
11
6.6158830708661416
21
-4.568394488188976
0
LINE
8
BLACK
6
CONTINUOUS
10
6.6158830708661416
20
-4.568394488188976
11
6.6158081496062993
21
-4.5680178346456692
0
LINE
8
BLACK
6
CONTINUOUS
10
6.6158081496062993
20
-4.5680178346456692
11
6.6158081496062993
21
-4.359356417322835
0
LINE
8
BLACK
6
CONTINUOUS
10
6.6158081496062993
20
-4.359356417322835
11
6.6158830708661416
21
-4.3589797637795273
0
LINE
8
BLACK
6
CONTINUOUS
10
6.6158830708661416
20
-4.3589797637795273
11
6.6164157480314962
21
-4.3584470866141736
0
LINE
8
BLACK
6
CONTINUOUS
10
6.6164157480314962
20
-4.3584470866141736
11
6.616792401574803
21
-4.3583721653543304
0
LINE
8
BLACK
6
CONTINUOUS
10
6.616792401574803
20
-4.3583721653543304
11
6.7034065748031493
21
-4.3583721653543304
0
LINE
8
BLACK
6
CONTINUOUS
10
6.7034065748031493
20
-4.3583721653543304
11
6.7037832283464569
21
-4.3584470866141736
0
LINE
8
BLACK
6
CONTINUOUS
10
6.6177766535433067
20
-4.3603406692913387
11
6.6177766535433067
21
-4.5670335826771655
0
LINE
8
BLACK
6
CONTINUOUS
10
6.6177766535433067
20
-4.5670335826771655
11
6.7024223228346456
21
-4.5670335826771655
0
LINE
8
BLACK
6
CONTINUOUS
10
6.7024223228346456
20
-4.5670335826771655
11
6.7024223228346456
21
-4.3603406692913387
0
LINE
8
BLACK
6
CONTINUOUS
10
6.7024223228346456
20
-4.3603406692913387
11
6.6177766535433067
21
-4.3603406692913387
0
LINE
8
BLACK
6
CONTINUOUS
10
6.7013422834645668
20
-3.7266360629921258
11
6.7018749606299215
21
-3.72716874015748
0
LINE
8
BLACK
6
CONTINUOUS
10
6.7018749606299215
20
-3.72716874015748
11
6.7019498818897638
21
-3.7275453937007872
0
LINE
8
BLACK
6
CONTINUOUS
10
6.7019498818897638
20
-3.7275453937007872
11
6.7019498818897638
21
-3.9598288582677164
0
LINE
8
BLACK
6
CONTINUOUS
10
6.7019498818897638
20
-3.9598288582677164
11
6.7018749606299215
21
-3.9602055118110235
0
LINE
8
BLACK
6
CONTINUOUS
10
6.7018749606299215
20
-3.9602055118110235
11
6.7013422834645668
21
-3.9607381889763777
0
LINE
8
BLACK
6
CONTINUOUS
10
6.7013422834645668
20
-3.9607381889763777
11
6.7009656299212601
21
-3.9608131102362205
0
LINE
8
BLACK
6
CONTINUOUS
10
6.7009656299212601
20
-3.9608131102362205
11
6.6015207480314961
21
-3.9608131102362205
0
LINE
8
BLACK
6
CONTINUOUS
10
6.6015207480314961
20
-3.9608131102362205
11
6.6015207480314961
21
-4.454265866141732
0
LINE
8
BLACK
6
CONTINUOUS
10
6.6015207480314961
20
-4.454265866141732
11
6.6014458267716538
21
-4.4546425196850397
0
LINE
8
BLACK
6
CONTINUOUS
10
6.6014458267716538
20
-4.4546425196850397
11
6.6009131496062992
21
-4.4551751968503934
0
LINE
8
BLACK
6
CONTINUOUS
10
6.6009131496062992
20
-4.4551751968503934
11
6.6005364960629924
21
-4.4552501181102357
0
LINE
8
BLACK
6
CONTINUOUS
10
6.6005364960629924
20
-4.4552501181102357
11
6.0729774409448813
21
-4.4552501181102357
0
LINE
8
BLACK
6
CONTINUOUS
10
6.0729774409448813
20
-4.4552501181102357
11
6.0726007874015746
21
-4.4551751968503934
0
LINE
8
BLACK
6
CONTINUOUS
10
6.0726007874015746
20
-4.4551751968503934
11
6.07206811023622
21
-4.4546425196850397
0
LINE
8
BLACK
6
CONTINUOUS
10
6.07206811023622
20
-4.4546425196850397
11
6.0719931889763776
21
-4.454265866141732
0
LINE
8
BLACK
6
CONTINUOUS
10
6.0719931889763776
20
-4.454265866141732
11
6.0719931889763776
21
-3.9267068110236218
0
LINE
8
BLACK
6
CONTINUOUS
10
6.0719931889763776
20
-3.9267068110236218
11
6.07206811023622
21
-3.9263301574803147
0
LINE
8
BLACK
6
CONTINUOUS
10
6.07206811023622
20
-3.9263301574803147
11
6.0726007874015746
21
-3.9257974803149605
0
LINE
8
BLACK
6
CONTINUOUS
10
6.0726007874015746
20
-3.9257974803149605
11
6.0729774409448813
21
-3.9257225590551181
0
LINE
8
BLACK
6
CONTINUOUS
10
6.0729774409448813
20
-3.9257225590551181
11
6.5582490944881888
21
-3.9257225590551181
0
LINE
8
BLACK
6
CONTINUOUS
10
6.5582490944881888
20
-3.9257225590551181
11
6.5582490944881888
21
-3.7275453937007872
0
LINE
8
BLACK
6
CONTINUOUS
10
6.5582490944881888
20
-3.7275453937007872
11
6.5583240157480311
21
-3.72716874015748
0
LINE
8
BLACK
6
CONTINUOUS
10
6.5583240157480311
20
-3.72716874015748
11
6.5588566929133858
21
-3.7266360629921258
0
LINE
8
BLACK
6
CONTINUOUS
10
6.5588566929133858
20
-3.7266360629921258
11
6.5592333464566925
21
-3.7265611417322835
0
LINE
8
BLACK
6
CONTINUOUS
10
6.5592333464566925
20
-3.7265611417322835
11
6.7009656299212601
21
-3.7265611417322835
0
LINE
8
BLACK
6
CONTINUOUS
10
6.7009656299212601
20
-3.7265611417322835
11
6.7013422834645668
21
-3.7266360629921258
0
LINE
8
BLACK
6
CONTINUOUS
10
6.0739616929133859
20
-3.927691062992126
11
6.0739616929133859
21
-4.4532816141732283
0
LINE
8
BLACK
6
CONTINUOUS
10
6.0739616929133859
20
-4.4532816141732283
11
6.5995522440944878
21
-4.4532816141732283
0
LINE
8
BLACK
6
CONTINUOUS
10
6.5995522440944878
20
-4.4532816141732283
11
6.5995522440944878
21
-3.9608131102362205
0
LINE
8
BLACK
6
CONTINUOUS
10
6.5995522440944878
20
-3.9608131102362205
11
6.5592333464566925
21
-3.9608131102362205
0
LINE
8
BLACK
6
CONTINUOUS
10
6.5592333464566925
20
-3.9608131102362205
11
6.5588566929133858
21
-3.9607381889763777
0
LINE
8
BLACK
6
CONTINUOUS
10
6.5588566929133858
20
-3.9607381889763777
11
6.5583240157480311
21
-3.9602055118110235
0
LINE
8
BLACK
6
CONTINUOUS
10
6.5583240157480311
20
-3.9602055118110235
11
6.5582490944881888
21
-3.9598288582677164
0
LINE
8
BLACK
6
CONTINUOUS
10
6.5582490944881888
20
-3.9598288582677164
11
6.5582490944881888
21
-3.927691062992126
0
LINE
8
BLACK
6
CONTINUOUS
10
6.5582490944881888
20
-3.927691062992126
11
6.0739616929133859
21
-3.927691062992126
0
LINE
8
BLACK
6
CONTINUOUS
10
6.5602175984251971
20
-3.927691062992126
11
6.5602175984251971
21
-3.9588446062992126
0
LINE
8
BLACK
6
CONTINUOUS
10
6.5602175984251971
20
-3.9588446062992126
11
6.5995522440944878
21
-3.9588446062992126
0
LINE
8
BLACK
6
CONTINUOUS
10
6.5995522440944878
20
-3.9588446062992126
11
6.5995522440944878
21
-3.927691062992126
0
LINE
8
BLACK
6
CONTINUOUS
10
6.5995522440944878
20
-3.927691062992126
11
6.5602175984251971
21
-3.927691062992126
0
LINE
8
BLACK
6
CONTINUOUS
10
6.5602175984251971
20
-3.7285296456692913
11
6.5602175984251971
21
-3.9257225590551181
0
LINE
8
BLACK
6
CONTINUOUS
10
6.5602175984251971
20
-3.9257225590551181
11
6.6005364960629924
21
-3.9257225590551181
0
LINE
8
BLACK
6
CONTINUOUS
10
6.6005364960629924
20
-3.9257225590551181
11
6.6009131496062992
21
-3.9257974803149605
0
LINE
8
BLACK
6
CONTINUOUS
10
6.6009131496062992
20
-3.9257974803149605
11
6.6014458267716538
21
-3.9263301574803147
0
LINE
8
BLACK
6
CONTINUOUS
10
6.6014458267716538
20
-3.9263301574803147
11
6.6015207480314961
21
-3.9267068110236218
0
LINE
8
BLACK
6
CONTINUOUS
10
6.6015207480314961
20
-3.9267068110236218
11
6.6015207480314961
21
-3.9588446062992126
0
LINE
8
BLACK
6
CONTINUOUS
10
6.6015207480314961
20
-3.9588446062992126
11
6.6999813779527555
21
-3.9588446062992126
0
LINE
8
BLACK
6
CONTINUOUS
10
6.6999813779527555
20
-3.9588446062992126
11
6.6999813779527555
21
-3.7285296456692913
0
LINE
8
BLACK
6
CONTINUOUS
10
6.6999813779527555
20
-3.7285296456692913
11
6.5602175984251971
21
-3.7285296456692913
0
LINE
8
BLACK
6
CONTINUOUS
10
6.1678777165354326
20
-3.7402974803149607
11
6.1684103937007873
21
-3.7408301574803149
0
LINE
8
BLACK
6
CONTINUOUS
10
6.1684103937007873
20
-3.7408301574803149
11
6.1684853149606296
21
-3.7412068110236221
0
LINE
8
BLACK
6
CONTINUOUS
10
6.1684853149606296
20
-3.7412068110236221
11
6.1684853149606296
21
-3.8868761023622045
0
LINE
8
BLACK
6
CONTINUOUS
10
6.1684853149606296
20
-3.8868761023622045
11
6.1684103937007873
21
-3.8872527559055117
0
LINE
8
BLACK
6
CONTINUOUS
10
6.1684103937007873
20
-3.8872527559055117
11
6.1678777165354326
21
-3.8877854330708659
0
LINE
8
BLACK
6
CONTINUOUS
10
6.1678777165354326
20
-3.8877854330708659
11
6.1675010629921259
21
-3.8878603543307086
0
LINE
8
BLACK
6
CONTINUOUS
10
6.1675010629921259
20
-3.8878603543307086
11
6.0926979133858268
21
-3.8878603543307086
0
LINE
8
BLACK
6
CONTINUOUS
10
6.0926979133858268
20
-3.8878603543307086
11
6.0923212598425192
21
-3.8877854330708659
0
LINE
8
BLACK
6
CONTINUOUS
10
6.0923212598425192
20
-3.8877854330708659
11
6.0917885826771654
21
-3.8872527559055117
0
LINE
8
BLACK
6
CONTINUOUS
10
6.0917885826771654
20
-3.8872527559055117
11
6.0917136614173231
21
-3.8868761023622045
0
LINE
8
BLACK
6
CONTINUOUS
10
6.0917136614173231
20
-3.8868761023622045
11
6.0917136614173231
21
-3.7412068110236221
0
LINE
8
BLACK
6
CONTINUOUS
10
6.0917136614173231
20
-3.7412068110236221
11
6.0917885826771654
21
-3.7408301574803149
0
LINE
8
BLACK
6
CONTINUOUS
10
6.0917885826771654
20
-3.7408301574803149
11
6.0923212598425192
21
-3.7402974803149607
0
LINE
8
BLACK
6
CONTINUOUS
10
6.0923212598425192
20
-3.7402974803149607
11
6.0926979133858268
21
-3.7402225590551179
0
LINE
8
BLACK
6
CONTINUOUS
10
6.0926979133858268
20
-3.7402225590551179
11
6.1675010629921259
21
-3.7402225590551179
0
LINE
8
BLACK
6
CONTINUOUS
10
6.1675010629921259
20
-3.7402225590551179
11
6.1678777165354326
21
-3.7402974803149607
0
LINE
8
BLACK
6
CONTINUOUS
10
6.0936821653543305
20
-3.7421910629921258
11
6.0936821653543305
21
-3.8858918503937008
0
LINE
8
BLACK
6
CONTINUOUS
10
6.0936821653543305
20
-3.8858918503937008
11
6.1665168110236221
21
-3.8858918503937008
0
LINE
8
BLACK
6
CONTINUOUS
10
6.1665168110236221
20
-3.8858918503937008
11
6.1665168110236221
21
-3.7421910629921258
0
LINE
8
BLACK
6
CONTINUOUS
10
6.1665168110236221
20
-3.7421910629921258
11
6.0936821653543305
21
-3.7421910629921258
0
LINE
8
BLACK
6
CONTINUOUS
10
6.1744918897637797
20
-3.5963486614173226
11
6.1750245669291335
21
-3.5968813385826772
0
LINE
8
BLACK
6
CONTINUOUS
10
6.1750245669291335
20
-3.5968813385826772
11
6.1750994881889758
21
-3.597257992125984
0
LINE
8
BLACK
6
CONTINUOUS
10
6.1750994881889758
20
-3.597257992125984
11
6.1750994881889758
21
-3.7311162598425196
0
LINE
8
BLACK
6
CONTINUOUS
10
6.1750994881889758
20
-3.7311162598425196
11
6.1750245669291335
21
-3.7314929133858268
0
LINE
8
BLACK
6
CONTINUOUS
10
6.1750245669291335
20
-3.7314929133858268
11
6.1744918897637797
21
-3.732025590551181
0
LINE
8
BLACK
6
CONTINUOUS
10
6.1744918897637797
20
-3.732025590551181
11
6.1741152362204721
21
-3.7321005118110238
0
LINE
8
BLACK
6
CONTINUOUS
10
6.1741152362204721
20
-3.7321005118110238
11
6.0126979133858267
21
-3.7321005118110238
0
LINE
8
BLACK
6
CONTINUOUS
10
6.0126979133858267
20
-3.7321005118110238
11
6.01232125984252
21
-3.732025590551181
0
LINE
8
BLACK
6
CONTINUOUS
10
6.01232125984252
20
-3.732025590551181
11
6.0117885826771653
21
-3.7314929133858268
0
LINE
8
BLACK
6
CONTINUOUS
10
6.0117885826771653
20
-3.7314929133858268
11
6.011713661417323
21
-3.7311162598425196
0
LINE
8
BLACK
6
CONTINUOUS
10
6.011713661417323
20
-3.7311162598425196
11
6.011713661417323
21
-3.597257992125984
0
LINE
8
BLACK
6
CONTINUOUS
10
6.011713661417323
20
-3.597257992125984
11
6.0117885826771653
21
-3.5968813385826772
0
LINE
8
BLACK
6
CONTINUOUS
10
6.0117885826771653
20
-3.5968813385826772
11
6.01232125984252
21
-3.5963486614173226
0
LINE
8
BLACK
6
CONTINUOUS
10
6.01232125984252
20
-3.5963486614173226
11
6.0126979133858267
21
-3.5962737401574802
0
LINE
8
BLACK
6
CONTINUOUS
10
6.0126979133858267
20
-3.5962737401574802
11
6.1741152362204721
21
-3.5962737401574802
0
LINE
8
BLACK
6
CONTINUOUS
10
6.1741152362204721
20
-3.5962737401574802
11
6.1744918897637797
21
-3.5963486614173226
0
LINE
8
BLACK
6
CONTINUOUS
10
6.0136821653543304
20
-3.5982422440944881
11
6.0136821653543304
21
-3.7301320078740154
0
LINE
8
BLACK
6
CONTINUOUS
10
6.0136821653543304
20
-3.7301320078740154
11
6.1731309842519684
21
-3.7301320078740154
0
LINE
8
BLACK
6
CONTINUOUS
10
6.1731309842519684
20
-3.7301320078740154
11
6.1731309842519684
21
-3.5982422440944881
0
LINE
8
BLACK
6
CONTINUOUS
10
6.1731309842519684
20
-3.5982422440944881
11
6.0136821653543304
21
-3.5982422440944881
0
LINE
8
BLACK
6
CONTINUOUS
10
6.8912635433070868
20
-3.5603368897637795
11
6.8917962204724406
21
-3.5608695669291337
0
LINE
8
BLACK
6
CONTINUOUS
10
6.8917962204724406
20
-3.5608695669291337
11
6.8918711417322829
21
-3.5612462204724409
0
LINE
8
BLACK
6
CONTINUOUS
10
6.8918711417322829
20
-3.5612462204724409
11
6.8918711417322829
21
-4.7541596062992122
0
LINE
8
BLACK
6
CONTINUOUS
10
6.8918711417322829
20
-4.7541596062992122
11
6.8917962204724406
21
-4.7545362598425198
0
LINE
8
BLACK
6
CONTINUOUS
10
6.8917962204724406
20
-4.7545362598425198
11
6.8912635433070868
21
-4.7550689370078736
0
LINE
8
BLACK
6
CONTINUOUS
10
6.8912635433070868
20
-4.7550689370078736
11
6.8908868897637792
21
-4.7551438582677168
0
LINE
8
BLACK
6
CONTINUOUS
10
6.8908868897637792
20
-4.7551438582677168
11
5.6979735039370079
21
-4.7551438582677168
0
LINE
8
BLACK
6
CONTINUOUS
10
5.6979735039370079
20
-4.7551438582677168
11
5.6975968503937002
21
-4.7550689370078736
0
LINE
8
BLACK
6
CONTINUOUS
10
5.6975968503937002
20
-4.7550689370078736
11
5.6970641732283465
21
-4.7545362598425198
0
LINE
8
BLACK
6
CONTINUOUS
10
5.6970641732283465
20
-4.7545362598425198
11
5.6969892519685041
21
-4.7541596062992122
0
LINE
8
BLACK
6
CONTINUOUS
10
5.6969892519685041
20
-4.7541596062992122
11
5.6969892519685041
21
-3.5612462204724409
0
LINE
8
BLACK
6
CONTINUOUS
10
5.6969892519685041
20
-3.5612462204724409
11
5.6970641732283465
21
-3.5608695669291337
0
LINE
8
BLACK
6
CONTINUOUS
10
5.6970641732283465
20
-3.5608695669291337
11
5.6975968503937002
21
-3.5603368897637795
0
LINE
8
BLACK
6
CONTINUOUS
10
5.6975968503937002
20
-3.5603368897637795
11
5.6979735039370079
21
-3.5602619685039367
0
LINE
8
BLACK
6
CONTINUOUS
10
5.6979735039370079
20
-3.5602619685039367
11
6.8908868897637792
21
-3.5602619685039367
0
LINE
8
BLACK
6
CONTINUOUS
10
6.8908868897637792
20
-3.5602619685039367
11
6.8912635433070868
21
-3.5603368897637795
0
LINE
8
BLACK
6
CONTINUOUS
10
5.6989577559055116
20
-3.5622304724409446
11
5.6989577559055116
21
-4.7531753543307085
0
LINE
8
BLACK
6
CONTINUOUS
10
5.6989577559055116
20
-4.7531753543307085
11
6.8899026377952755
21
-4.7531753543307085
0
LINE
8
BLACK
6
CONTINUOUS
10
6.8899026377952755
20
-4.7531753543307085
11
6.8899026377952755
21
-3.5622304724409446
0
LINE
8
BLACK
6
CONTINUOUS
10
6.8899026377952755
20
-3.5622304724409446
11
5.6989577559055116
21
-3.5622304724409446
0
LINE
8
BLACK
6
CONTINUOUS
10
6.9503186614173229
20
-3.5012817716535434
11
6.9508513385826767
21
-3.5018144488188976
0
LINE
8
BLACK
6
CONTINUOUS
10
6.9508513385826767
20
-3.5018144488188976
11
6.9509262598425199
21
-3.5021911023622048
0
LINE
8
BLACK
6
CONTINUOUS
10
6.9509262598425199
20
-3.5021911023622048
11
6.9509262598425199
21
-4.8132147244094483
0
LINE
8
BLACK
6
CONTINUOUS
10
6.9509262598425199
20
-4.8132147244094483
11
6.9508513385826767
21
-4.8135913779527559
0
LINE
8
BLACK
6
CONTINUOUS
10
6.9508513385826767
20
-4.8135913779527559
11
6.9503186614173229
21
-4.8141240551181097
0
LINE
8
BLACK
6
CONTINUOUS
10
6.9503186614173229
20
-4.8141240551181097
11
6.9499420078740153
21
-4.8141989763779529
0
LINE
8
BLACK
6
CONTINUOUS
10
6.9499420078740153
20
-4.8141989763779529
11
5.6389183858267717
21
-4.8141989763779529
0
LINE
8
BLACK
6
CONTINUOUS
10
5.6389183858267717
20
-4.8141989763779529
11
5.6385417322834641
21
-4.8141240551181097
0
LINE
8
BLACK
6
CONTINUOUS
10
5.6385417322834641
20
-4.8141240551181097
11
5.6380090551181103
21
-4.8135913779527559
0
LINE
8
BLACK
6
CONTINUOUS
10
5.6380090551181103
20
-4.8135913779527559
11
5.637934133858268
21
-4.8132147244094483
0
LINE
8
BLACK
6
CONTINUOUS
10
5.637934133858268
20
-4.8132147244094483
11
5.637934133858268
21
-3.5021911023622048
0
LINE
8
BLACK
6
CONTINUOUS
10
5.637934133858268
20
-3.5021911023622048
11
5.6380090551181103
21
-3.5018144488188976
0
LINE
8
BLACK
6
CONTINUOUS
10
5.6380090551181103
20
-3.5018144488188976
11
5.6385417322834641
21
-3.5012817716535434
0
LINE
8
BLACK
6
CONTINUOUS
10
5.6385417322834641
20
-3.5012817716535434
11
5.6389183858267717
21
-3.5012068503937006
0
LINE
8
BLACK
6
CONTINUOUS
10
5.6389183858267717
20
-3.5012068503937006
11
6.9499420078740153
21
-3.5012068503937006
0
LINE
8
BLACK
6
CONTINUOUS
10
6.9499420078740153
20
-3.5012068503937006
11
6.9503186614173229
21
-3.5012817716535434
0
LINE
8
BLACK
6
CONTINUOUS
10
5.6399026377952755
20
-3.5031753543307085
11
5.6399026377952755
21
-4.8122304724409446
0
LINE
8
BLACK
6
CONTINUOUS
10
5.6399026377952755
20
-4.8122304724409446
11
6.9489577559055116
21
-4.8122304724409446
0
LINE
8
BLACK
6
CONTINUOUS
10
6.9489577559055116
20
-4.8122304724409446
11
6.9489577559055116
21
-3.5031753543307085
0
LINE
8
BLACK
6
CONTINUOUS
10
6.9489577559055116
20
-3.5031753543307085
11
5.6399026377952755
21
-3.5031753543307085
0
LINE
8
BLACK
6
CONTINUOUS
10
5.4241414960629921
20
-4.3293408267716531
11
5.4246741732283468
21
-4.3298735039370078
0
LINE
8
BLACK
6
CONTINUOUS
10
5.4246741732283468
20
-4.3298735039370078
11
5.4247490944881891
21
-4.3302501574803145
0
LINE
8
BLACK
6
CONTINUOUS
10
5.4247490944881891
20
-4.3302501574803145
11
5.4247490944881891
21
-4.5176517322834648
0
LINE
8
BLACK
6
CONTINUOUS
10
5.4247490944881891
20
-4.5176517322834648
11
5.4246741732283468
21
-4.5180283858267716
0
LINE
8
BLACK
6
CONTINUOUS
10
5.4246741732283468
20
-4.5180283858267716
11
5.4241414960629921
21
-4.5185610629921262
0
LINE
8
BLACK
6
CONTINUOUS
10
5.4241414960629921
20
-4.5185610629921262
11
5.4237648425196845
21
-4.5186359842519686
0
LINE
8
BLACK
6
CONTINUOUS
10
5.4237648425196845
20
-4.5186359842519686
11
5.2820325590551178
21
-4.5186359842519686
0
LINE
8
BLACK
6
CONTINUOUS
10
5.2820325590551178
20
-4.5186359842519686
11
5.2816559055118111
21
-4.5185610629921262
0
LINE
8
BLACK
6
CONTINUOUS
10
5.2816559055118111
20
-4.5185610629921262
11
5.2811232283464564
21
-4.5180283858267716
0
LINE
8
BLACK
6
CONTINUOUS
10
5.2811232283464564
20
-4.5180283858267716
11
5.2810483070866141
21
-4.5176517322834648
0
LINE
8
BLACK
6
CONTINUOUS
10
5.2810483070866141
20
-4.5176517322834648
11
5.2810483070866141
21
-4.3302501574803145
0
LINE
8
BLACK
6
CONTINUOUS
10
5.2810483070866141
20
-4.3302501574803145
11
5.2811232283464564
21
-4.3298735039370078
0
LINE
8
BLACK
6
CONTINUOUS
10
5.2811232283464564
20
-4.3298735039370078
11
5.2816559055118111
21
-4.3293408267716531
0
LINE
8
BLACK
6
CONTINUOUS
10
5.2816559055118111
20
-4.3293408267716531
11
5.2820325590551178
21
-4.3292659055118108
0
LINE
8
BLACK
6
CONTINUOUS
10
5.2820325590551178
20
-4.3292659055118108
11
5.4237648425196845
21
-4.3292659055118108
0
LINE
8
BLACK
6
CONTINUOUS
10
5.4237648425196845
20
-4.3292659055118108
11
5.4241414960629921
21
-4.3293408267716531
0
LINE
8
BLACK
6
CONTINUOUS
10
5.2830168110236215
20
-4.3312344094488191
11
5.2830168110236215
21
-4.5166674803149602
0
LINE
8
BLACK
6
CONTINUOUS
10
5.2830168110236215
20
-4.5166674803149602
11
5.4227805905511808
21
-4.5166674803149602
0
LINE
8
BLACK
6
CONTINUOUS
10
5.4227805905511808
20
-4.5166674803149602
11
5.4227805905511808
21
-4.3312344094488191
0
LINE
8
BLACK
6
CONTINUOUS
10
5.4227805905511808
20
-4.3312344094488191
11
5.2830168110236215
21
-4.3312344094488191
0
LINE
8
BLACK
6
CONTINUOUS
10
4.3809131496062994
20
-4.0847738582677167
11
4.3814458267716532
21
-4.0853065354330704
0
LINE
8
BLACK
6
CONTINUOUS
10
4.3814458267716532
20
-4.0853065354330704
11
4.3815207480314964
21
-4.0856831889763781
0
LINE
8
BLACK
6
CONTINUOUS
10
4.3815207480314964
20
-4.0856831889763781
11
4.3815207480314964
21
-4.3022186220472438
0
LINE
8
BLACK
6
CONTINUOUS
10
4.3815207480314964
20
-4.3022186220472438
11
4.3814458267716532
21
-4.3025952755905514
0
LINE
8
BLACK
6
CONTINUOUS
10
4.3814458267716532
20
-4.3025952755905514
11
4.3809131496062994
21
-4.3031279527559052
0
LINE
8
BLACK
6
CONTINUOUS
10
4.3809131496062994
20
-4.3031279527559052
11
4.3805364960629918
21
-4.3032028740157475
0
LINE
8
BLACK
6
CONTINUOUS
10
4.3805364960629918
20
-4.3032028740157475
11
4.0852609055118112
21
-4.3032028740157475
0
LINE
8
BLACK
6
CONTINUOUS
10
4.0852609055118112
20
-4.3032028740157475
11
4.0848842519685036
21
-4.3031279527559052
0
LINE
8
BLACK
6
CONTINUOUS
10
4.0848842519685036
20
-4.3031279527559052
11
4.0843515748031498
21
-4.3025952755905514
0
LINE
8
BLACK
6
CONTINUOUS
10
4.0843515748031498
20
-4.3025952755905514
11
4.0842766535433066
21
-4.3022186220472438
0
LINE
8
BLACK
6
CONTINUOUS
10
4.0842766535433066
20
-4.3022186220472438
11
4.0842766535433066
21
-4.0856831889763781
0
LINE
8
BLACK
6
CONTINUOUS
10
4.0842766535433066
20
-4.0856831889763781
11
4.0843515748031498
21
-4.0853065354330704
0
LINE
8
BLACK
6
CONTINUOUS
10
4.0843515748031498
20
-4.0853065354330704
11
4.0848842519685036
21
-4.0847738582677167
0
LINE
8
BLACK
6
CONTINUOUS
10
4.0848842519685036
20
-4.0847738582677167
11
4.0852609055118112
21
-4.0846989370078743
0
LINE
8
BLACK
6
CONTINUOUS
10
4.0852609055118112
20
-4.0846989370078743
11
4.3805364960629918
21
-4.0846989370078743
0
LINE
8
BLACK
6
CONTINUOUS
10
4.3805364960629918
20
-4.0846989370078743
11
4.3809131496062994
21
-4.0847738582677167
0
LINE
8
BLACK
6
CONTINUOUS
10
4.0862451574803149
20
-4.0866674409448818
11
4.0862451574803149
21
-4.3012343700787401
0
LINE
8
BLACK
6
CONTINUOUS
10
4.0862451574803149
20
-4.3012343700787401
11
4.3795522440944881
21
-4.3012343700787401
0
LINE
8
BLACK
6
CONTINUOUS
10
4.3795522440944881
20
-4.3012343700787401
11
4.3795522440944881
21
-4.0866674409448818
0
LINE
8
BLACK
6
CONTINUOUS
10
4.3795522440944881
20
-4.0866674409448818
11
4.0862451574803149
21
-4.0866674409448818
0
LINE
8
BLACK
6
CONTINUOUS
10
5.2609131496062993
20
-4.0047738582677166
11
5.2614458267716531
21
-4.0053065354330704
0
LINE
8
BLACK
6
CONTINUOUS
10
5.2614458267716531
20
-4.0053065354330704
11
5.2615207480314963
21
-4.005683188976378
0
LINE
8
BLACK
6
CONTINUOUS
10
5.2615207480314963
20
-4.005683188976378
11
5.2615207480314963
21
-4.2222186220472437
0
LINE
8
BLACK
6
CONTINUOUS
10
5.2615207480314963
20
-4.2222186220472437
11
5.2614458267716531
21
-4.2225952755905514
0
LINE
8
BLACK
6
CONTINUOUS
10
5.2614458267716531
20
-4.2225952755905514
11
5.2609131496062993
21
-4.2231279527559051
0
LINE
8
BLACK
6
CONTINUOUS
10
5.2609131496062993
20
-4.2231279527559051
11
5.2605364960629917
21
-4.2232028740157483
0
LINE
8
BLACK
6
CONTINUOUS
10
5.2605364960629917
20
-4.2232028740157483
11
4.9652609055118111
21
-4.2232028740157483
0
LINE
8
BLACK
6
CONTINUOUS
10
4.9652609055118111
20
-4.2232028740157483
11
4.9648842519685035
21
-4.2231279527559051
0
LINE
8
BLACK
6
CONTINUOUS
10
4.9648842519685035
20
-4.2231279527559051
11
4.9643515748031497
21
-4.2225952755905514
0
LINE
8
BLACK
6
CONTINUOUS
10
4.9643515748031497
20
-4.2225952755905514
11
4.9642766535433074
21
-4.2222186220472437
0
LINE
8
BLACK
6
CONTINUOUS
10
4.9642766535433074
20
-4.2222186220472437
11
4.9642766535433074
21
-4.005683188976378
0
LINE
8
BLACK
6
CONTINUOUS
10
4.9642766535433074
20
-4.005683188976378
11
4.9643515748031497
21
-4.0053065354330704
0
LINE
8
BLACK
6
CONTINUOUS
10
4.9643515748031497
20
-4.0053065354330704
11
4.9648842519685035
21
-4.0047738582677166
0
LINE
8
BLACK
6
CONTINUOUS
10
4.9648842519685035
20
-4.0047738582677166
11
4.9652609055118111
21
-4.0046989370078743
0
LINE
8
BLACK
6
CONTINUOUS
10
4.9652609055118111
20
-4.0046989370078743
11
5.2605364960629917
21
-4.0046989370078743
0
LINE
8
BLACK
6
CONTINUOUS
10
5.2605364960629917
20
-4.0046989370078743
11
5.2609131496062993
21
-4.0047738582677166
0
LINE
8
BLACK
6
CONTINUOUS
10
4.9662451574803148
20
-4.0066674409448817
11
4.9662451574803148
21
-4.22123437007874
0
LINE
8
BLACK
6
CONTINUOUS
10
4.9662451574803148
20
-4.22123437007874
11
5.259552244094488
21
-4.22123437007874
0
LINE
8
BLACK
6
CONTINUOUS
10
5.259552244094488
20
-4.22123437007874
11
5.259552244094488
21
-4.0066674409448817
0
LINE
8
BLACK
6
CONTINUOUS
10
5.259552244094488
20
-4.0066674409448817
11
4.9662451574803148
21
-4.0066674409448817
0
LINE
8
BLACK
6
CONTINUOUS
10
5.5519761417322835
20
-3.8471754330708658
11
5.5525088188976373
21
-3.8477081102362205
0
LINE
8
BLACK
6
CONTINUOUS
10
5.5525088188976373
20
-3.8477081102362205
11
5.5525837401574805
21
-3.8480847637795277
0
LINE
8
BLACK
6
CONTINUOUS
10
5.5525837401574805
20
-3.8480847637795277
11
5.5525837401574805
21
-3.9898170472440944
0
LINE
8
BLACK
6
CONTINUOUS
10
5.5525837401574805
20
-3.9898170472440944
11
5.5525088188976373
21
-3.9901937007874015
0
LINE
8
BLACK
6
CONTINUOUS
10
5.5525088188976373
20
-3.9901937007874015
11
5.5519761417322835
21
-3.9907263779527558
0
LINE
8
BLACK
6
CONTINUOUS
10
5.5519761417322835
20
-3.9907263779527558
11
5.5515994881889759
21
-3.9908012992125985
0
LINE
8
BLACK
6
CONTINUOUS
10
5.5515994881889759
20
-3.9908012992125985
11
5.3641979133858264
21
-3.9908012992125985
0
LINE
8
BLACK
6
CONTINUOUS
10
5.3641979133858264
20
-3.9908012992125985
11
5.3638212598425197
21
-3.9907263779527558
0
LINE
8
BLACK
6
CONTINUOUS
10
5.3638212598425197
20
-3.9907263779527558
11
5.363288582677165
21
-3.9901937007874015
0
LINE
8
BLACK
6
CONTINUOUS
10
5.363288582677165
20
-3.9901937007874015
11
5.3632136614173227
21
-3.9898170472440944
0
LINE
8
BLACK
6
CONTINUOUS
10
5.3632136614173227
20
-3.9898170472440944
11
5.3632136614173227
21
-3.8480847637795277
0
LINE
8
BLACK
6
CONTINUOUS
10
5.3632136614173227
20
-3.8480847637795277
11
5.363288582677165
21
-3.8477081102362205
0
LINE
8
BLACK
6
CONTINUOUS
10
5.363288582677165
20
-3.8477081102362205
11
5.3638212598425197
21
-3.8471754330708658
0
LINE
8
BLACK
6
CONTINUOUS
10
5.3638212598425197
20
-3.8471754330708658
11
5.3641979133858264
21
-3.8471005118110235
0
LINE
8
BLACK
6
CONTINUOUS
10
5.3641979133858264
20
-3.8471005118110235
11
5.5515994881889759
21
-3.8471005118110235
0
LINE
8
BLACK
6
CONTINUOUS
10
5.5515994881889759
20
-3.8471005118110235
11
5.5519761417322835
21
-3.8471754330708658
0
LINE
8
BLACK
6
CONTINUOUS
10
5.365182165354331
20
-3.8490690157480314
11
5.365182165354331
21
-3.9888327952755906
0
LINE
8
BLACK
6
CONTINUOUS
10
5.365182165354331
20
-3.9888327952755906
11
5.5506152362204721
21
-3.9888327952755906
0
LINE
8
BLACK
6
CONTINUOUS
10
5.5506152362204721
20
-3.9888327952755906
11
5.5506152362204721
21
-3.8490690157480314
0
LINE
8
BLACK
6
CONTINUOUS
10
5.5506152362204721
20
-3.8490690157480314
11
5.365182165354331
21
-3.8490690157480314
0
LINE
8
BLACK
6
CONTINUOUS
10
4.5094958267716532
20
-3.8061124409448817
11
4.5100285039370078
21
-3.8066451181102363
0
LINE
8
BLACK
6
CONTINUOUS
10
4.5100285039370078
20
-3.8066451181102363
11
4.5101034251968501
21
-3.8070217716535431
0
LINE
8
BLACK
6
CONTINUOUS
10
4.5101034251968501
20
-3.8070217716535431
11
4.5101034251968501
21
-3.9408800393700787
0
LINE
8
BLACK
6
CONTINUOUS
10
4.5101034251968501
20
-3.9408800393700787
11
4.5100285039370078
21
-3.9412566929133859
0
LINE
8
BLACK
6
CONTINUOUS
10
4.5100285039370078
20
-3.9412566929133859
11
4.5094958267716532
21
-3.9417893700787401
0
LINE
8
BLACK
6
CONTINUOUS
10
4.5094958267716532
20
-3.9417893700787401
11
4.5091191732283464
21
-3.9418642913385824
0
LINE
8
BLACK
6
CONTINUOUS
10
4.5091191732283464
20
-3.9418642913385824
11
4.3579380708661413
21
-3.9418642913385824
0
LINE
8
BLACK
6
CONTINUOUS
10
4.3579380708661413
20
-3.9418642913385824
11
4.3575614173228345
21
-3.9417893700787401
0
LINE
8
BLACK
6
CONTINUOUS
10
4.3575614173228345
20
-3.9417893700787401
11
4.3570287401574799
21
-3.9412566929133859
0
LINE
8
BLACK
6
CONTINUOUS
10
4.3570287401574799
20
-3.9412566929133859
11
4.3569538188976376
21
-3.9408800393700787
0
LINE
8
BLACK
6
CONTINUOUS
10
4.3569538188976376
20
-3.9408800393700787
11
4.3569538188976376
21
-3.8070217716535431
0
LINE
8
BLACK
6
CONTINUOUS
10
4.3569538188976376
20
-3.8070217716535431
11
4.3570287401574799
21
-3.8066451181102363
0
LINE
8
BLACK
6
CONTINUOUS
10
4.3570287401574799
20
-3.8066451181102363
11
4.3575614173228345
21
-3.8061124409448817
0
LINE
8
BLACK
6
CONTINUOUS
10
4.3575614173228345
20
-3.8061124409448817
11
4.3579380708661413
21
-3.8060375196850393
0
LINE
8
BLACK
6
CONTINUOUS
10
4.3579380708661413
20
-3.8060375196850393
11
4.5091191732283464
21
-3.8060375196850393
0
LINE
8
BLACK
6
CONTINUOUS
10
4.5091191732283464
20
-3.8060375196850393
11
4.5094958267716532
21
-3.8061124409448817
0
LINE
8
BLACK
6
CONTINUOUS
10
4.3589223228346459
20
-3.8080060236220472
11
4.3589223228346459
21
-3.9398957874015745
0
LINE
8
BLACK
6
CONTINUOUS
10
4.3589223228346459
20
-3.9398957874015745
11
4.5081349212598427
21
-3.9398957874015745
0
LINE
8
BLACK
6
CONTINUOUS
10
4.5081349212598427
20
-3.9398957874015745
11
4.5081349212598427
21
-3.8080060236220472
0
LINE
8
BLACK
6
CONTINUOUS
10
4.5081349212598427
20
-3.8080060236220472
11
4.3589223228346459
21
-3.8080060236220472
0
CIRCLE
8
BLACK
10
4.485611338582677
20
-3.323687125984252
40
0.0068897637795276
0
CIRCLE
8
BLACK
10
6.6466349212598423
20
-3.323687125984252
40
0.0068897637795276
0
CIRCLE
8
BLACK
10
7.1552963385826773
20
-4.823687125984252
40
0.0068897637795276
0
CIRCLE
8
BLACK
10
3.7800994881889762
20
-4.9236871653543304
40
0.0068897637795276
0
CIRCLE
8
BLACK
10
4.4300994881889766
20
-4.4969154724409446
40
0.0068897637795276
0
CIRCLE
8
BLACK
10
4.2332490944881886
20
-4.4969154724409446
40
0.0068897637795276
0
CIRCLE
8
BLACK
10
6.1000994881889765
20
-4.7036871259842519
40
0.0068897637795276
0
CIRCLE
8
BLACK
10
6.1000994881889765
20
-4.6036871259842522
40
0.0068897637795276
0
CIRCLE
8
BLACK
10
6.000099488188976
20
-4.6036871259842522
40
0.0068897637795276
0
CIRCLE
8
BLACK
10
5.9000994881889763
20
-4.6036871259842522
40
0.0068897637795276
0
CIRCLE
8
BLACK
10
6.000099488188976
20
-4.7036871259842519
40
0.0068897637795276
0
CIRCLE
8
BLACK
10
6.4000994881889763
20
-4.6036871259842522
40
0.0068897637795276
0
CIRCLE
8
BLACK
10
6.4000994881889763
20
-4.7036871259842519
40
0.0068897637795276
0
CIRCLE
8
BLACK
10
6.2000994881889762
20
-4.6036871259842522
40
0.0068897637795276
0
CIRCLE
8
BLACK
10
6.2000994881889762
20
-4.7036871259842519
40
0.0068897637795276
0
CIRCLE
8
BLACK
10
5.9000994881889763
20
-4.7036871259842519
40
0.0068897637795276
0
CIRCLE
8
BLACK
10
6.3000994881889758
20
-4.7036871259842519
40
0.0068897637795276
0
CIRCLE
8
BLACK
10
6.3000994881889758
20
-4.6036871259842522
40
0.0068897637795276
0
CIRCLE
8
BLACK
10
4.485611338582677
20
-3.323687125984252
40
0.0068897637795276
0
CIRCLE
8
BLACK
10
6.6466349212598423
20
-3.323687125984252
40
0.0068897637795276
0
CIRCLE
8
BLACK
10
7.1552963385826773
20
-4.823687125984252
40
0.0068897637795276
0
CIRCLE
8
BLACK
10
3.7800994881889762
20
-4.9236871653543304
40
0.0068897637795276
0
CIRCLE
8
BLACK
10
4.4300994881889766
20
-4.4969154724409446
40
0.0068897637795276
0
CIRCLE
8
BLACK
10
4.2332490944881886
20
-4.4969154724409446
40
0.0068897637795276
0
CIRCLE
8
BLACK
10
6.1000994881889765
20
-4.7036871259842519
40
0.0068897637795276
0
CIRCLE
8
BLACK
10
6.1000994881889765
20
-4.6036871259842522
40
0.0068897637795276
0
CIRCLE
8
BLACK
10
6.000099488188976
20
-4.6036871259842522
40
0.0068897637795276
0
CIRCLE
8
BLACK
10
5.9000994881889763
20
-4.6036871259842522
40
0.0068897637795276
0
CIRCLE
8
BLACK
10
6.000099488188976
20
-4.7036871259842519
40
0.0068897637795276
0
CIRCLE
8
BLACK
10
6.4000994881889763
20
-4.6036871259842522
40
0.0068897637795276
0
CIRCLE
8
BLACK
10
6.4000994881889763
20
-4.7036871259842519
40
0.0068897637795276
0
CIRCLE
8
BLACK
10
6.2000994881889762
20
-4.6036871259842522
40
0.0068897637795276
0
CIRCLE
8
BLACK
10
6.2000994881889762
20
-4.7036871259842519
40
0.0068897637795276
0
CIRCLE
8
BLACK
10
5.9000994881889763
20
-4.7036871259842519
40
0.0068897637795276
0
CIRCLE
8
BLACK
10
6.3000994881889758
20
-4.7036871259842519
40
0.0068897637795276
0
CIRCLE
8
BLACK
10
6.3000994881889758
20
-4.6036871259842522
40
0.0068897637795276
  0
ENDSEC
  0
EOF
