  0
SECTION
  2
HEADER
  9
$ANGBASE
  50
0.0
  9
$ANGDIR
  70
1
  9
$MEASUREMENT
  70
0
  0
ENDSEC
  0
SECTION
  2
TABLES
  0
TABLE
  2
LTYPE
  70
4
  0
LTYPE
  5
40F
  2
CONTINUOUS
  70
0
  3
Solid line
  72
65
  73
0
  40
0.0
  0
LTYPE
  5
410
  2
DASHDOT
 70
0
  3
Dash Dot ____ _ ____ _
 72
65
 73
4
 40
2.0
 49
1.25
 49
-0.25
 49
0.25
 49
-0.25
  0
LTYPE
  5
411
  2
DASHED
 70
0
  3
Dashed __ __ __ __ __
 72
65
 73
2
 40
0.75
 49
0.5
 49
-0.25
  0
LTYPE
  5
43B
  2
DOTTED
 70
0
  3
Dotted .  .  .  .
 72
65
 73
2
 40
0.2
 49
0.0
 49
-0.2
  0
ENDTAB
  0
TABLE
  2
STYLE
  70
4
  0
STYLE
  2
KICAD
  70
0
  40
0
  41
1
  42
1
  50
0
  71
0
  3
isocp.shx
  0
STYLE
  2
KICADB
  70
0
  40
0
  41
1
  42
1
  50
0
  71
0
  3
isocp.shx
  0
STYLE
  2
KICADI
  70
0
  40
0
  41
1
  42
1
  50
15
  71
0
  3
isocp.shx
  0
STYLE
  2
KICADBI
  70
0
  40
0
  41
1
  42
1
  50
15
  71
0
  3
isocp.shx
  0
ENDTAB
  0
TABLE
  2
LAYER
  70
1
  0
LAYER
  2
BLACK
  70
0
  62
7
  6
CONTINUOUS
  0
ENDTAB
  0
ENDSEC
  0
SECTION
  2
ENTITIES
0
LINE
8
BLACK
6
CONTINUOUS
10
1.89919
20
0.295187
11
1.89861
21
0.296579
0
LINE
8
BLACK
6
CONTINUOUS
10
1.89861
20
0.296579
11
1.89861
21
1.55642
0
LINE
8
BLACK
6
CONTINUOUS
10
1.89861
20
1.55642
11
1.89919
21
1.55781
0
LINE
8
BLACK
6
CONTINUOUS
10
1.89919
20
1.55781
11
1.90058
21
1.55839
0
LINE
8
BLACK
6
CONTINUOUS
10
1.90058
20
1.55839
11
3.16042
21
1.55839
0
LINE
8
BLACK
6
CONTINUOUS
10
3.16042
20
1.55839
11
3.16181
21
1.55781
0
LINE
8
BLACK
6
CONTINUOUS
10
3.16181
20
1.55781
11
3.16239
21
1.55642
0
LINE
8
BLACK
6
CONTINUOUS
10
3.16239
20
1.55642
11
3.16239
21
0.296579
0
LINE
8
BLACK
6
CONTINUOUS
10
3.16239
20
0.296579
11
3.16181
21
0.295187
0
LINE
8
BLACK
6
CONTINUOUS
10
3.16181
20
0.295187
11
3.16042
21
0.29461
0
LINE
8
BLACK
6
CONTINUOUS
10
3.16042
20
0.29461
11
1.90058
21
0.29461
0
LINE
8
BLACK
6
CONTINUOUS
10
1.90058
20
0.29461
11
1.89919
21
0.295187
0
LINE
8
BLACK
6
CONTINUOUS
10
1.90255
20
1.55445
11
1.90255
21
0.298547
0
LINE
8
BLACK
6
CONTINUOUS
10
1.90255
20
0.298547
11
3.15845
21
0.298547
0
LINE
8
BLACK
6
CONTINUOUS
10
3.15845
20
0.298547
11
3.15845
21
1.55445
0
LINE
8
BLACK
6
CONTINUOUS
10
3.15845
20
1.55445
11
1.90255
21
1.55445
0
LINE
8
BLACK
6
CONTINUOUS
10
2.48929
20
0.70628
11
2.49084
21
0.704982
0
LINE
8
BLACK
6
CONTINUOUS
10
2.49084
20
0.704982
11
2.49119
21
0.702993
0
LINE
8
BLACK
6
CONTINUOUS
10
2.49119
20
0.702993
11
2.49018
21
0.701244
0
LINE
8
BLACK
6
CONTINUOUS
10
2.49018
20
0.701244
11
2.48828
21
0.700553
0
LINE
8
BLACK
6
CONTINUOUS
10
2.48828
20
0.700553
11
2.47061
21
0.700553
0
LINE
8
BLACK
6
CONTINUOUS
10
2.47061
20
0.700553
11
2.47061
21
0.690382
0
LINE
8
BLACK
6
CONTINUOUS
10
2.47061
20
0.690382
11
2.47043
21
0.689373
0
LINE
8
BLACK
6
CONTINUOUS
10
2.47043
20
0.689373
11
2.46914
21
0.687825
0
LINE
8
BLACK
6
CONTINUOUS
10
2.46914
20
0.687825
11
2.46715
21
0.687475
0
LINE
8
BLACK
6
CONTINUOUS
10
2.46715
20
0.687475
11
2.4654
21
0.688484
0
LINE
8
BLACK
6
CONTINUOUS
10
2.4654
20
0.688484
11
2.46471
21
0.690382
0
LINE
8
BLACK
6
CONTINUOUS
10
2.46471
20
0.690382
11
2.46471
21
0.700553
0
LINE
8
BLACK
6
CONTINUOUS
10
2.46471
20
0.700553
11
2.45187
21
0.700553
0
LINE
8
BLACK
6
CONTINUOUS
10
2.45187
20
0.700553
11
2.45187
21
0.684758
0
LINE
8
BLACK
6
CONTINUOUS
10
2.45187
20
0.684758
11
2.45169
21
0.683748
0
LINE
8
BLACK
6
CONTINUOUS
10
2.45169
20
0.683748
11
2.45039
21
0.682201
0
LINE
8
BLACK
6
CONTINUOUS
10
2.45039
20
0.682201
11
2.4484
21
0.68185
0
LINE
8
BLACK
6
CONTINUOUS
10
2.4484
20
0.68185
11
2.44665
21
0.68286
0
LINE
8
BLACK
6
CONTINUOUS
10
2.44665
20
0.68286
11
2.44596
21
0.684758
0
LINE
8
BLACK
6
CONTINUOUS
10
2.44596
20
0.684758
11
2.44596
21
0.703506
0
LINE
8
BLACK
6
CONTINUOUS
10
2.44596
20
0.703506
11
2.44603
21
0.703889
0
LINE
8
BLACK
6
CONTINUOUS
10
2.44603
20
0.703889
11
2.446
21
0.704019
0
LINE
8
BLACK
6
CONTINUOUS
10
2.446
20
0.704019
11
2.44607
21
0.704132
0
LINE
8
BLACK
6
CONTINUOUS
10
2.44607
20
0.704132
11
2.44614
21
0.704516
0
LINE
8
BLACK
6
CONTINUOUS
10
2.44614
20
0.704516
11
2.44663
21
0.705103
0
LINE
8
BLACK
6
CONTINUOUS
10
2.44663
20
0.705103
11
2.44701
21
0.705768
0
LINE
8
BLACK
6
CONTINUOUS
10
2.44701
20
0.705768
11
2.44726
21
0.705859
0
LINE
8
BLACK
6
CONTINUOUS
10
2.44726
20
0.705859
11
2.44744
21
0.706063
0
LINE
8
BLACK
6
CONTINUOUS
10
2.44744
20
0.706063
11
2.44819
21
0.706196
0
LINE
8
BLACK
6
CONTINUOUS
10
2.44819
20
0.706196
11
2.44891
21
0.706459
0
LINE
8
BLACK
6
CONTINUOUS
10
2.44891
20
0.706459
11
2.48828
21
0.706459
0
LINE
8
BLACK
6
CONTINUOUS
10
2.48828
20
0.706459
11
2.48929
21
0.70628
0
LINE
8
BLACK
6
CONTINUOUS
10
2.47555
20
0.754148
11
2.47624
21
0.75225
0
LINE
8
BLACK
6
CONTINUOUS
10
2.47624
20
0.75225
11
2.47624
21
0.722253
0
LINE
8
BLACK
6
CONTINUOUS
10
2.47624
20
0.722253
11
2.47606
21
0.721244
0
LINE
8
BLACK
6
CONTINUOUS
10
2.47606
20
0.721244
11
2.47476
21
0.719696
0
LINE
8
BLACK
6
CONTINUOUS
10
2.47476
20
0.719696
11
2.47277
21
0.719346
0
LINE
8
BLACK
6
CONTINUOUS
10
2.47277
20
0.719346
11
2.47102
21
0.720355
0
LINE
8
BLACK
6
CONTINUOUS
10
2.47102
20
0.720355
11
2.47033
21
0.722253
0
LINE
8
BLACK
6
CONTINUOUS
10
2.47033
20
0.722253
11
2.47033
21
0.75225
0
LINE
8
BLACK
6
CONTINUOUS
10
2.47033
20
0.75225
11
2.47051
21
0.75326
0
LINE
8
BLACK
6
CONTINUOUS
10
2.47051
20
0.75326
11
2.47181
21
0.754807
0
LINE
8
BLACK
6
CONTINUOUS
10
2.47181
20
0.754807
11
2.4738
21
0.755158
0
LINE
8
BLACK
6
CONTINUOUS
10
2.4738
20
0.755158
11
2.47555
21
0.754148
0
LINE
8
BLACK
6
CONTINUOUS
10
2.47545
20
0.794488
11
2.47567
21
0.794528
0
LINE
8
BLACK
6
CONTINUOUS
10
2.47567
20
0.794528
11
2.47637
21
0.794125
0
LINE
8
BLACK
6
CONTINUOUS
10
2.47637
20
0.794125
11
2.47712
21
0.793829
0
LINE
8
BLACK
6
CONTINUOUS
10
2.47712
20
0.793829
11
2.47723
21
0.793631
0
LINE
8
BLACK
6
CONTINUOUS
10
2.47723
20
0.793631
11
2.47742
21
0.793518
0
LINE
8
BLACK
6
CONTINUOUS
10
2.47742
20
0.793518
11
2.4777
21
0.792761
0
LINE
8
BLACK
6
CONTINUOUS
10
2.4777
20
0.792761
11
2.47808
21
0.792053
0
LINE
8
BLACK
6
CONTINUOUS
10
2.47808
20
0.792053
11
2.47803
21
0.791832
0
LINE
8
BLACK
6
CONTINUOUS
10
2.47803
20
0.791832
11
2.47811
21
0.79162
0
LINE
8
BLACK
6
CONTINUOUS
10
2.47811
20
0.79162
11
2.47811
21
0.775825
0
LINE
8
BLACK
6
CONTINUOUS
10
2.47811
20
0.775825
11
2.48828
21
0.775825
0
LINE
8
BLACK
6
CONTINUOUS
10
2.48828
20
0.775825
11
2.48929
21
0.775647
0
LINE
8
BLACK
6
CONTINUOUS
10
2.48929
20
0.775647
11
2.49084
21
0.774349
0
LINE
8
BLACK
6
CONTINUOUS
10
2.49084
20
0.774349
11
2.49119
21
0.772359
0
LINE
8
BLACK
6
CONTINUOUS
10
2.49119
20
0.772359
11
2.49018
21
0.77061
0
LINE
8
BLACK
6
CONTINUOUS
10
2.49018
20
0.77061
11
2.48828
21
0.769919
0
LINE
8
BLACK
6
CONTINUOUS
10
2.48828
20
0.769919
11
2.47811
21
0.769919
0
LINE
8
BLACK
6
CONTINUOUS
10
2.47811
20
0.769919
11
2.47811
21
0.767248
0
LINE
8
BLACK
6
CONTINUOUS
10
2.47811
20
0.767248
11
2.47793
21
0.766238
0
LINE
8
BLACK
6
CONTINUOUS
10
2.47793
20
0.766238
11
2.47664
21
0.764691
0
LINE
8
BLACK
6
CONTINUOUS
10
2.47664
20
0.764691
11
2.47465
21
0.76434
0
LINE
8
BLACK
6
CONTINUOUS
10
2.47465
20
0.76434
11
2.4729
21
0.76535
0
LINE
8
BLACK
6
CONTINUOUS
10
2.4729
20
0.76535
11
2.47221
21
0.767248
0
LINE
8
BLACK
6
CONTINUOUS
10
2.47221
20
0.767248
11
2.47221
21
0.769919
0
LINE
8
BLACK
6
CONTINUOUS
10
2.47221
20
0.769919
11
2.46204
21
0.769919
0
LINE
8
BLACK
6
CONTINUOUS
10
2.46204
20
0.769919
11
2.46103
21
0.770097
0
LINE
8
BLACK
6
CONTINUOUS
10
2.46103
20
0.770097
11
2.45948
21
0.771396
0
LINE
8
BLACK
6
CONTINUOUS
10
2.45948
20
0.771396
11
2.45913
21
0.773385
0
LINE
8
BLACK
6
CONTINUOUS
10
2.45913
20
0.773385
11
2.46014
21
0.775134
0
LINE
8
BLACK
6
CONTINUOUS
10
2.46014
20
0.775134
11
2.46204
21
0.775825
0
LINE
8
BLACK
6
CONTINUOUS
10
2.46204
20
0.775825
11
2.47221
21
0.775825
0
LINE
8
BLACK
6
CONTINUOUS
10
2.47221
20
0.775825
11
2.47221
21
0.787523
0
LINE
8
BLACK
6
CONTINUOUS
10
2.47221
20
0.787523
11
2.44797
21
0.779445
0
LINE
8
BLACK
6
CONTINUOUS
10
2.44797
20
0.779445
11
2.44696
21
0.779294
0
LINE
8
BLACK
6
CONTINUOUS
10
2.44696
20
0.779294
11
2.44508
21
0.780037
0
LINE
8
BLACK
6
CONTINUOUS
10
2.44508
20
0.780037
11
2.44412
21
0.781813
0
LINE
8
BLACK
6
CONTINUOUS
10
2.44412
20
0.781813
11
2.44452
21
0.783792
0
LINE
8
BLACK
6
CONTINUOUS
10
2.44452
20
0.783792
11
2.4461
21
0.785047
0
LINE
8
BLACK
6
CONTINUOUS
10
2.4461
20
0.785047
11
2.47423
21
0.794421
0
LINE
8
BLACK
6
CONTINUOUS
10
2.47423
20
0.794421
11
2.47524
21
0.794571
0
LINE
8
BLACK
6
CONTINUOUS
10
2.47524
20
0.794571
11
2.47545
21
0.794488
0
LINE
8
BLACK
6
CONTINUOUS
10
2.47386
20
0.831966
11
2.474
21
0.83198
0
LINE
8
BLACK
6
CONTINUOUS
10
2.474
20
0.83198
11
2.4815
21
0.830105
0
LINE
8
BLACK
6
CONTINUOUS
10
2.4815
20
0.830105
11
2.48197
21
0.829897
0
LINE
8
BLACK
6
CONTINUOUS
10
2.48197
20
0.829897
11
2.4821
21
0.829881
0
LINE
8
BLACK
6
CONTINUOUS
10
2.4821
20
0.829881
11
2.48585
21
0.828007
0
LINE
8
BLACK
6
CONTINUOUS
10
2.48585
20
0.828007
11
2.48656
21
0.827481
0
LINE
8
BLACK
6
CONTINUOUS
10
2.48656
20
0.827481
11
2.48662
21
0.827453
0
LINE
8
BLACK
6
CONTINUOUS
10
2.48662
20
0.827453
11
2.4885
21
0.825579
0
LINE
8
BLACK
6
CONTINUOUS
10
2.4885
20
0.825579
11
2.489
21
0.824856
0
LINE
8
BLACK
6
CONTINUOUS
10
2.489
20
0.824856
11
2.48905
21
0.824811
0
LINE
8
BLACK
6
CONTINUOUS
10
2.48905
20
0.824811
11
2.49092
21
0.821062
0
LINE
8
BLACK
6
CONTINUOUS
10
2.49092
20
0.821062
11
2.49122
21
0.820079
0
LINE
8
BLACK
6
CONTINUOUS
10
2.49122
20
0.820079
11
2.49118
21
0.819907
0
LINE
8
BLACK
6
CONTINUOUS
10
2.49118
20
0.819907
11
2.49124
21
0.819741
0
LINE
8
BLACK
6
CONTINUOUS
10
2.49124
20
0.819741
11
2.49124
21
0.815992
0
LINE
8
BLACK
6
CONTINUOUS
10
2.49124
20
0.815992
11
2.49106
21
0.814982
0
LINE
8
BLACK
6
CONTINUOUS
10
2.49106
20
0.814982
11
2.49094
21
0.814847
0
LINE
8
BLACK
6
CONTINUOUS
10
2.49094
20
0.814847
11
2.49092
21
0.814671
0
LINE
8
BLACK
6
CONTINUOUS
10
2.49092
20
0.814671
11
2.48905
21
0.810922
0
LINE
8
BLACK
6
CONTINUOUS
10
2.48905
20
0.810922
11
2.48852
21
0.810213
0
LINE
8
BLACK
6
CONTINUOUS
10
2.48852
20
0.810213
11
2.4885
21
0.810154
0
LINE
8
BLACK
6
CONTINUOUS
10
2.4885
20
0.810154
11
2.48662
21
0.80828
0
LINE
8
BLACK
6
CONTINUOUS
10
2.48662
20
0.80828
11
2.4859
21
0.807773
0
LINE
8
BLACK
6
CONTINUOUS
10
2.4859
20
0.807773
11
2.48585
21
0.807726
0
LINE
8
BLACK
6
CONTINUOUS
10
2.48585
20
0.807726
11
2.4821
21
0.805852
0
LINE
8
BLACK
6
CONTINUOUS
10
2.4821
20
0.805852
11
2.48162
21
0.805706
0
LINE
8
BLACK
6
CONTINUOUS
10
2.48162
20
0.805706
11
2.4815
21
0.805628
0
LINE
8
BLACK
6
CONTINUOUS
10
2.4815
20
0.805628
11
2.474
21
0.803753
0
LINE
8
BLACK
6
CONTINUOUS
10
2.474
20
0.803753
11
2.47341
21
0.803712
0
LINE
8
BLACK
6
CONTINUOUS
10
2.47341
20
0.803712
11
2.47328
21
0.803665
0
LINE
8
BLACK
6
CONTINUOUS
10
2.47328
20
0.803665
11
2.46391
21
0.803665
0
LINE
8
BLACK
6
CONTINUOUS
10
2.46391
20
0.803665
11
2.46333
21
0.803767
0
LINE
8
BLACK
6
CONTINUOUS
10
2.46333
20
0.803767
11
2.46319
21
0.803753
0
LINE
8
BLACK
6
CONTINUOUS
10
2.46319
20
0.803753
11
2.4557
21
0.805628
0
LINE
8
BLACK
6
CONTINUOUS
10
2.4557
20
0.805628
11
2.45523
21
0.805836
0
LINE
8
BLACK
6
CONTINUOUS
10
2.45523
20
0.805836
11
2.45509
21
0.805852
0
LINE
8
BLACK
6
CONTINUOUS
10
2.45509
20
0.805852
11
2.45134
21
0.807726
0
LINE
8
BLACK
6
CONTINUOUS
10
2.45134
20
0.807726
11
2.45063
21
0.808252
0
LINE
8
BLACK
6
CONTINUOUS
10
2.45063
20
0.808252
11
2.45057
21
0.80828
0
LINE
8
BLACK
6
CONTINUOUS
10
2.45057
20
0.80828
11
2.4487
21
0.810154
0
LINE
8
BLACK
6
CONTINUOUS
10
2.4487
20
0.810154
11
2.44819
21
0.810877
0
LINE
8
BLACK
6
CONTINUOUS
10
2.44819
20
0.810877
11
2.44815
21
0.810922
0
LINE
8
BLACK
6
CONTINUOUS
10
2.44815
20
0.810922
11
2.44627
21
0.814671
0
LINE
8
BLACK
6
CONTINUOUS
10
2.44627
20
0.814671
11
2.44598
21
0.815654
0
LINE
8
BLACK
6
CONTINUOUS
10
2.44598
20
0.815654
11
2.44602
21
0.815826
0
LINE
8
BLACK
6
CONTINUOUS
10
2.44602
20
0.815826
11
2.44596
21
0.815992
0
LINE
8
BLACK
6
CONTINUOUS
10
2.44596
20
0.815992
11
2.44596
21
0.819741
0
LINE
8
BLACK
6
CONTINUOUS
10
2.44596
20
0.819741
11
2.44614
21
0.820751
0
LINE
8
BLACK
6
CONTINUOUS
10
2.44614
20
0.820751
11
2.44625
21
0.820886
0
LINE
8
BLACK
6
CONTINUOUS
10
2.44625
20
0.820886
11
2.44627
21
0.821062
0
LINE
8
BLACK
6
CONTINUOUS
10
2.44627
20
0.821062
11
2.44815
21
0.824811
0
LINE
8
BLACK
6
CONTINUOUS
10
2.44815
20
0.824811
11
2.44867
21
0.82552
0
LINE
8
BLACK
6
CONTINUOUS
10
2.44867
20
0.82552
11
2.4487
21
0.825579
0
LINE
8
BLACK
6
CONTINUOUS
10
2.4487
20
0.825579
11
2.45057
21
0.827453
0
LINE
8
BLACK
6
CONTINUOUS
10
2.45057
20
0.827453
11
2.4513
21
0.82796
0
LINE
8
BLACK
6
CONTINUOUS
10
2.4513
20
0.82796
11
2.45134
21
0.828007
0
LINE
8
BLACK
6
CONTINUOUS
10
2.45134
20
0.828007
11
2.45509
21
0.829881
0
LINE
8
BLACK
6
CONTINUOUS
10
2.45509
20
0.829881
11
2.45558
21
0.830027
0
LINE
8
BLACK
6
CONTINUOUS
10
2.45558
20
0.830027
11
2.4557
21
0.830105
0
LINE
8
BLACK
6
CONTINUOUS
10
2.4557
20
0.830105
11
2.46319
21
0.83198
0
LINE
8
BLACK
6
CONTINUOUS
10
2.46319
20
0.83198
11
2.46378
21
0.832021
0
LINE
8
BLACK
6
CONTINUOUS
10
2.46378
20
0.832021
11
2.46391
21
0.832068
0
LINE
8
BLACK
6
CONTINUOUS
10
2.46391
20
0.832068
11
2.47328
21
0.832068
0
LINE
8
BLACK
6
CONTINUOUS
10
2.47328
20
0.832068
11
2.47386
21
0.831966
0
LINE
8
BLACK
6
CONTINUOUS
10
2.46427
20
0.826162
11
2.45744
21
0.824454
0
LINE
8
BLACK
6
CONTINUOUS
10
2.45744
20
0.824454
11
2.45441
21
0.822939
0
LINE
8
BLACK
6
CONTINUOUS
10
2.45441
20
0.822939
11
2.45321
21
0.821742
0
LINE
8
BLACK
6
CONTINUOUS
10
2.45321
20
0.821742
11
2.45187
21
0.819044
0
LINE
8
BLACK
6
CONTINUOUS
10
2.45187
20
0.819044
11
2.45187
21
0.816689
0
LINE
8
BLACK
6
CONTINUOUS
10
2.45187
20
0.816689
11
2.45321
21
0.813991
0
LINE
8
BLACK
6
CONTINUOUS
10
2.45321
20
0.813991
11
2.45441
21
0.812794
0
LINE
8
BLACK
6
CONTINUOUS
10
2.45441
20
0.812794
11
2.45744
21
0.811279
0
LINE
8
BLACK
6
CONTINUOUS
10
2.45744
20
0.811279
11
2.46427
21
0.809571
0
LINE
8
BLACK
6
CONTINUOUS
10
2.46427
20
0.809571
11
2.47292
21
0.809571
0
LINE
8
BLACK
6
CONTINUOUS
10
2.47292
20
0.809571
11
2.47975
21
0.811279
0
LINE
8
BLACK
6
CONTINUOUS
10
2.47975
20
0.811279
11
2.48278
21
0.812794
0
LINE
8
BLACK
6
CONTINUOUS
10
2.48278
20
0.812794
11
2.48398
21
0.813991
0
LINE
8
BLACK
6
CONTINUOUS
10
2.48398
20
0.813991
11
2.48533
21
0.816689
0
LINE
8
BLACK
6
CONTINUOUS
10
2.48533
20
0.816689
11
2.48533
21
0.819044
0
LINE
8
BLACK
6
CONTINUOUS
10
2.48533
20
0.819044
11
2.48398
21
0.821742
0
LINE
8
BLACK
6
CONTINUOUS
10
2.48398
20
0.821742
11
2.48278
21
0.822939
0
LINE
8
BLACK
6
CONTINUOUS
10
2.48278
20
0.822939
11
2.47975
21
0.824454
0
LINE
8
BLACK
6
CONTINUOUS
10
2.47975
20
0.824454
11
2.47292
21
0.826162
0
LINE
8
BLACK
6
CONTINUOUS
10
2.47292
20
0.826162
11
2.46427
21
0.826162
0
LINE
8
BLACK
6
CONTINUOUS
10
2.48891
20
0.871326
11
2.48905
21
0.871337
0
LINE
8
BLACK
6
CONTINUOUS
10
2.48905
20
0.871337
11
2.48977
21
0.870828
0
LINE
8
BLACK
6
CONTINUOUS
10
2.48977
20
0.870828
11
2.49054
21
0.870383
0
LINE
8
BLACK
6
CONTINUOUS
10
2.49054
20
0.870383
11
2.49059
21
0.870256
0
LINE
8
BLACK
6
CONTINUOUS
10
2.49059
20
0.870256
11
2.4907
21
0.870179
0
LINE
8
BLACK
6
CONTINUOUS
10
2.4907
20
0.870179
11
2.49093
21
0.86932
0
LINE
8
BLACK
6
CONTINUOUS
10
2.49093
20
0.86932
11
2.49124
21
0.868485
0
LINE
8
BLACK
6
CONTINUOUS
10
2.49124
20
0.868485
11
2.49124
21
0.844113
0
LINE
8
BLACK
6
CONTINUOUS
10
2.49124
20
0.844113
11
2.49106
21
0.843103
0
LINE
8
BLACK
6
CONTINUOUS
10
2.49106
20
0.843103
11
2.48976
21
0.841556
0
LINE
8
BLACK
6
CONTINUOUS
10
2.48976
20
0.841556
11
2.48777
21
0.841205
0
LINE
8
BLACK
6
CONTINUOUS
10
2.48777
20
0.841205
11
2.48602
21
0.842215
0
LINE
8
BLACK
6
CONTINUOUS
10
2.48602
20
0.842215
11
2.48533
21
0.844113
0
LINE
8
BLACK
6
CONTINUOUS
10
2.48533
20
0.844113
11
2.48533
21
0.861357
0
LINE
8
BLACK
6
CONTINUOUS
10
2.48533
20
0.861357
11
2.46787
21
0.8439
0
LINE
8
BLACK
6
CONTINUOUS
10
2.46787
20
0.8439
11
2.46703
21
0.843312
0
LINE
8
BLACK
6
CONTINUOUS
10
2.46703
20
0.843312
11
2.46686
21
0.843296
0
LINE
8
BLACK
6
CONTINUOUS
10
2.46686
20
0.843296
11
2.46672
21
0.843187
0
LINE
8
BLACK
6
CONTINUOUS
10
2.46672
20
0.843187
11
2.46109
21
0.841312
0
LINE
8
BLACK
6
CONTINUOUS
10
2.46109
20
0.841312
11
2.46022
21
0.841183
0
LINE
8
BLACK
6
CONTINUOUS
10
2.46022
20
0.841183
11
2.46016
21
0.84116
0
LINE
8
BLACK
6
CONTINUOUS
10
2.46016
20
0.84116
11
2.45641
21
0.84116
0
LINE
8
BLACK
6
CONTINUOUS
10
2.45641
20
0.84116
11
2.4554
21
0.841339
0
LINE
8
BLACK
6
CONTINUOUS
10
2.4554
20
0.841339
11
2.45527
21
0.841452
0
LINE
8
BLACK
6
CONTINUOUS
10
2.45527
20
0.841452
11
2.45509
21
0.841472
0
LINE
8
BLACK
6
CONTINUOUS
10
2.45509
20
0.841472
11
2.45134
21
0.843347
0
LINE
8
BLACK
6
CONTINUOUS
10
2.45134
20
0.843347
11
2.45063
21
0.843873
0
LINE
8
BLACK
6
CONTINUOUS
10
2.45063
20
0.843873
11
2.45057
21
0.8439
0
LINE
8
BLACK
6
CONTINUOUS
10
2.45057
20
0.8439
11
2.4487
21
0.845775
0
LINE
8
BLACK
6
CONTINUOUS
10
2.4487
20
0.845775
11
2.44819
21
0.846498
0
LINE
8
BLACK
6
CONTINUOUS
10
2.44819
20
0.846498
11
2.44815
21
0.846542
0
LINE
8
BLACK
6
CONTINUOUS
10
2.44815
20
0.846542
11
2.44627
21
0.850292
0
LINE
8
BLACK
6
CONTINUOUS
10
2.44627
20
0.850292
11
2.44598
21
0.851275
0
LINE
8
BLACK
6
CONTINUOUS
10
2.44598
20
0.851275
11
2.44602
21
0.851446
0
LINE
8
BLACK
6
CONTINUOUS
10
2.44602
20
0.851446
11
2.44596
21
0.851612
0
LINE
8
BLACK
6
CONTINUOUS
10
2.44596
20
0.851612
11
2.44596
21
0.860986
0
LINE
8
BLACK
6
CONTINUOUS
10
2.44596
20
0.860986
11
2.44614
21
0.861996
0
LINE
8
BLACK
6
CONTINUOUS
10
2.44614
20
0.861996
11
2.44625
21
0.862131
0
LINE
8
BLACK
6
CONTINUOUS
10
2.44625
20
0.862131
11
2.44627
21
0.862307
0
LINE
8
BLACK
6
CONTINUOUS
10
2.44627
20
0.862307
11
2.44815
21
0.866056
0
LINE
8
BLACK
6
CONTINUOUS
10
2.44815
20
0.866056
11
2.44867
21
0.866765
0
LINE
8
BLACK
6
CONTINUOUS
10
2.44867
20
0.866765
11
2.4487
21
0.866824
0
LINE
8
BLACK
6
CONTINUOUS
10
2.4487
20
0.866824
11
2.45057
21
0.868698
0
LINE
8
BLACK
6
CONTINUOUS
10
2.45057
20
0.868698
11
2.45141
21
0.869286
0
LINE
8
BLACK
6
CONTINUOUS
10
2.45141
20
0.869286
11
2.45343
21
0.869463
0
LINE
8
BLACK
6
CONTINUOUS
10
2.45343
20
0.869463
11
2.45508
21
0.868304
0
LINE
8
BLACK
6
CONTINUOUS
10
2.45508
20
0.868304
11
2.4556
21
0.866353
0
LINE
8
BLACK
6
CONTINUOUS
10
2.4556
20
0.866353
11
2.45475
21
0.864522
0
LINE
8
BLACK
6
CONTINUOUS
10
2.45475
20
0.864522
11
2.45321
21
0.862987
0
LINE
8
BLACK
6
CONTINUOUS
10
2.45321
20
0.862987
11
2.45187
21
0.860289
0
LINE
8
BLACK
6
CONTINUOUS
10
2.45187
20
0.860289
11
2.45187
21
0.852309
0
LINE
8
BLACK
6
CONTINUOUS
10
2.45187
20
0.852309
11
2.45321
21
0.849612
0
LINE
8
BLACK
6
CONTINUOUS
10
2.45321
20
0.849612
11
2.45441
21
0.848415
0
LINE
8
BLACK
6
CONTINUOUS
10
2.45441
20
0.848415
11
2.45711
21
0.847066
0
LINE
8
BLACK
6
CONTINUOUS
10
2.45711
20
0.847066
11
2.45968
21
0.847066
0
LINE
8
BLACK
6
CONTINUOUS
10
2.45968
20
0.847066
11
2.46419
21
0.848569
0
LINE
8
BLACK
6
CONTINUOUS
10
2.46419
20
0.848569
11
2.48619
21
0.870573
0
LINE
8
BLACK
6
CONTINUOUS
10
2.48619
20
0.870573
11
2.48672
21
0.870943
0
LINE
8
BLACK
6
CONTINUOUS
10
2.48672
20
0.870943
11
2.48681
21
0.871042
0
LINE
8
BLACK
6
CONTINUOUS
10
2.48681
20
0.871042
11
2.48688
21
0.871056
0
LINE
8
BLACK
6
CONTINUOUS
10
2.48688
20
0.871056
11
2.48703
21
0.871161
0
LINE
8
BLACK
6
CONTINUOUS
10
2.48703
20
0.871161
11
2.48792
21
0.871239
0
LINE
8
BLACK
6
CONTINUOUS
10
2.48792
20
0.871239
11
2.4888
21
0.871393
0
LINE
8
BLACK
6
CONTINUOUS
10
2.4888
20
0.871393
11
2.48891
21
0.871326
0
LINE
8
BLACK
6
CONTINUOUS
10
2.47555
20
0.915378
11
2.47624
21
0.91348
0
LINE
8
BLACK
6
CONTINUOUS
10
2.47624
20
0.91348
11
2.47624
21
0.883483
0
LINE
8
BLACK
6
CONTINUOUS
10
2.47624
20
0.883483
11
2.47606
21
0.882473
0
LINE
8
BLACK
6
CONTINUOUS
10
2.47606
20
0.882473
11
2.47476
21
0.880926
0
LINE
8
BLACK
6
CONTINUOUS
10
2.47476
20
0.880926
11
2.47277
21
0.880575
0
LINE
8
BLACK
6
CONTINUOUS
10
2.47277
20
0.880575
11
2.47102
21
0.881585
0
LINE
8
BLACK
6
CONTINUOUS
10
2.47102
20
0.881585
11
2.47033
21
0.883483
0
LINE
8
BLACK
6
CONTINUOUS
10
2.47033
20
0.883483
11
2.47033
21
0.91348
0
LINE
8
BLACK
6
CONTINUOUS
10
2.47033
20
0.91348
11
2.47051
21
0.914489
0
LINE
8
BLACK
6
CONTINUOUS
10
2.47051
20
0.914489
11
2.47181
21
0.916037
0
LINE
8
BLACK
6
CONTINUOUS
10
2.47181
20
0.916037
11
2.4738
21
0.916387
0
LINE
8
BLACK
6
CONTINUOUS
10
2.4738
20
0.916387
11
2.47555
21
0.915378
0
LINE
8
BLACK
6
CONTINUOUS
10
2.51932
20
0.918026
11
2.51946
21
0.917913
0
LINE
8
BLACK
6
CONTINUOUS
10
2.51946
20
0.917913
11
2.51963
21
0.917892
0
LINE
8
BLACK
6
CONTINUOUS
10
2.51963
20
0.917892
11
2.52338
21
0.916018
0
LINE
8
BLACK
6
CONTINUOUS
10
2.52338
20
0.916018
11
2.52409
21
0.915492
0
LINE
8
BLACK
6
CONTINUOUS
10
2.52409
20
0.915492
11
2.52415
21
0.915465
0
LINE
8
BLACK
6
CONTINUOUS
10
2.52415
20
0.915465
11
2.52581
21
0.913803
0
LINE
8
BLACK
6
CONTINUOUS
10
2.52581
20
0.913803
11
2.52747
21
0.915465
0
LINE
8
BLACK
6
CONTINUOUS
10
2.52747
20
0.915465
11
2.5282
21
0.915971
0
LINE
8
BLACK
6
CONTINUOUS
10
2.5282
20
0.915971
11
2.52824
21
0.916018
0
LINE
8
BLACK
6
CONTINUOUS
10
2.52824
20
0.916018
11
2.53199
21
0.917892
0
LINE
8
BLACK
6
CONTINUOUS
10
2.53199
20
0.917892
11
2.53297
21
0.918185
0
LINE
8
BLACK
6
CONTINUOUS
10
2.53297
20
0.918185
11
2.53315
21
0.918144
0
LINE
8
BLACK
6
CONTINUOUS
10
2.53315
20
0.918144
11
2.53331
21
0.918204
0
LINE
8
BLACK
6
CONTINUOUS
10
2.53331
20
0.918204
11
2.54081
21
0.918204
0
LINE
8
BLACK
6
CONTINUOUS
10
2.54081
20
0.918204
11
2.54182
21
0.918026
0
LINE
8
BLACK
6
CONTINUOUS
10
2.54182
20
0.918026
11
2.54196
21
0.917913
0
LINE
8
BLACK
6
CONTINUOUS
10
2.54196
20
0.917913
11
2.54213
21
0.917892
0
LINE
8
BLACK
6
CONTINUOUS
10
2.54213
20
0.917892
11
2.54588
21
0.916018
0
LINE
8
BLACK
6
CONTINUOUS
10
2.54588
20
0.916018
11
2.54659
21
0.915492
0
LINE
8
BLACK
6
CONTINUOUS
10
2.54659
20
0.915492
11
2.54665
21
0.915465
0
LINE
8
BLACK
6
CONTINUOUS
10
2.54665
20
0.915465
11
2.54852
21
0.91359
0
LINE
8
BLACK
6
CONTINUOUS
10
2.54852
20
0.91359
11
2.54903
21
0.912867
0
LINE
8
BLACK
6
CONTINUOUS
10
2.54903
20
0.912867
11
2.54908
21
0.912822
0
LINE
8
BLACK
6
CONTINUOUS
10
2.54908
20
0.912822
11
2.55095
21
0.909073
0
LINE
8
BLACK
6
CONTINUOUS
10
2.55095
20
0.909073
11
2.55124
21
0.90809
0
LINE
8
BLACK
6
CONTINUOUS
10
2.55124
20
0.90809
11
2.5512
21
0.907918
0
LINE
8
BLACK
6
CONTINUOUS
10
2.5512
20
0.907918
11
2.55126
21
0.907752
0
LINE
8
BLACK
6
CONTINUOUS
10
2.55126
20
0.907752
11
2.55126
21
0.900253
0
LINE
8
BLACK
6
CONTINUOUS
10
2.55126
20
0.900253
11
2.55108
21
0.899243
0
LINE
8
BLACK
6
CONTINUOUS
10
2.55108
20
0.899243
11
2.55097
21
0.899108
0
LINE
8
BLACK
6
CONTINUOUS
10
2.55097
20
0.899108
11
2.55095
21
0.898933
0
LINE
8
BLACK
6
CONTINUOUS
10
2.55095
20
0.898933
11
2.54908
21
0.895183
0
LINE
8
BLACK
6
CONTINUOUS
10
2.54908
20
0.895183
11
2.54855
21
0.894474
0
LINE
8
BLACK
6
CONTINUOUS
10
2.54855
20
0.894474
11
2.54852
21
0.894416
0
LINE
8
BLACK
6
CONTINUOUS
10
2.54852
20
0.894416
11
2.54665
21
0.892541
0
LINE
8
BLACK
6
CONTINUOUS
10
2.54665
20
0.892541
11
2.54593
21
0.892035
0
LINE
8
BLACK
6
CONTINUOUS
10
2.54593
20
0.892035
11
2.54588
21
0.891988
0
LINE
8
BLACK
6
CONTINUOUS
10
2.54588
20
0.891988
11
2.54213
21
0.890113
0
LINE
8
BLACK
6
CONTINUOUS
10
2.54213
20
0.890113
11
2.54115
21
0.889821
0
LINE
8
BLACK
6
CONTINUOUS
10
2.54115
20
0.889821
11
2.54098
21
0.889862
0
LINE
8
BLACK
6
CONTINUOUS
10
2.54098
20
0.889862
11
2.54081
21
0.889801
0
LINE
8
BLACK
6
CONTINUOUS
10
2.54081
20
0.889801
11
2.53331
21
0.889801
0
LINE
8
BLACK
6
CONTINUOUS
10
2.53331
20
0.889801
11
2.5323
21
0.88998
0
LINE
8
BLACK
6
CONTINUOUS
10
2.5323
20
0.88998
11
2.53217
21
0.890093
0
LINE
8
BLACK
6
CONTINUOUS
10
2.53217
20
0.890093
11
2.53199
21
0.890113
0
LINE
8
BLACK
6
CONTINUOUS
10
2.53199
20
0.890113
11
2.52824
21
0.891988
0
LINE
8
BLACK
6
CONTINUOUS
10
2.52824
20
0.891988
11
2.52753
21
0.892514
0
LINE
8
BLACK
6
CONTINUOUS
10
2.52753
20
0.892514
11
2.52747
21
0.892541
0
LINE
8
BLACK
6
CONTINUOUS
10
2.52747
20
0.892541
11
2.52581
21
0.894203
0
LINE
8
BLACK
6
CONTINUOUS
10
2.52581
20
0.894203
11
2.52415
21
0.892541
0
LINE
8
BLACK
6
CONTINUOUS
10
2.52415
20
0.892541
11
2.52343
21
0.892035
0
LINE
8
BLACK
6
CONTINUOUS
10
2.52343
20
0.892035
11
2.52338
21
0.891988
0
LINE
8
BLACK
6
CONTINUOUS
10
2.52338
20
0.891988
11
2.51963
21
0.890113
0
LINE
8
BLACK
6
CONTINUOUS
10
2.51963
20
0.890113
11
2.51865
21
0.889821
0
LINE
8
BLACK
6
CONTINUOUS
10
2.51865
20
0.889821
11
2.51848
21
0.889862
0
LINE
8
BLACK
6
CONTINUOUS
10
2.51848
20
0.889862
11
2.51831
21
0.889801
0
LINE
8
BLACK
6
CONTINUOUS
10
2.51831
20
0.889801
11
2.51644
21
0.889801
0
LINE
8
BLACK
6
CONTINUOUS
10
2.51644
20
0.889801
11
2.51543
21
0.88998
0
LINE
8
BLACK
6
CONTINUOUS
10
2.51543
20
0.88998
11
2.51529
21
0.890093
0
LINE
8
BLACK
6
CONTINUOUS
10
2.51529
20
0.890093
11
2.51512
21
0.890113
0
LINE
8
BLACK
6
CONTINUOUS
10
2.51512
20
0.890113
11
2.51137
21
0.891988
0
LINE
8
BLACK
6
CONTINUOUS
10
2.51137
20
0.891988
11
2.51066
21
0.892514
0
LINE
8
BLACK
6
CONTINUOUS
10
2.51066
20
0.892514
11
2.5106
21
0.892541
0
LINE
8
BLACK
6
CONTINUOUS
10
2.5106
20
0.892541
11
2.50873
21
0.894416
0
LINE
8
BLACK
6
CONTINUOUS
10
2.50873
20
0.894416
11
2.50822
21
0.895139
0
LINE
8
BLACK
6
CONTINUOUS
10
2.50822
20
0.895139
11
2.50817
21
0.895183
0
LINE
8
BLACK
6
CONTINUOUS
10
2.50817
20
0.895183
11
2.5063
21
0.898933
0
LINE
8
BLACK
6
CONTINUOUS
10
2.5063
20
0.898933
11
2.50601
21
0.899916
0
LINE
8
BLACK
6
CONTINUOUS
10
2.50601
20
0.899916
11
2.50605
21
0.900087
0
LINE
8
BLACK
6
CONTINUOUS
10
2.50605
20
0.900087
11
2.50599
21
0.900253
0
LINE
8
BLACK
6
CONTINUOUS
10
2.50599
20
0.900253
11
2.50599
21
0.907752
0
LINE
8
BLACK
6
CONTINUOUS
10
2.50599
20
0.907752
11
2.50617
21
0.908762
0
LINE
8
BLACK
6
CONTINUOUS
10
2.50617
20
0.908762
11
2.50628
21
0.908897
0
LINE
8
BLACK
6
CONTINUOUS
10
2.50628
20
0.908897
11
2.5063
21
0.909073
0
LINE
8
BLACK
6
CONTINUOUS
10
2.5063
20
0.909073
11
2.50817
21
0.912822
0
LINE
8
BLACK
6
CONTINUOUS
10
2.50817
20
0.912822
11
2.5087
21
0.913531
0
LINE
8
BLACK
6
CONTINUOUS
10
2.5087
20
0.913531
11
2.50873
21
0.91359
0
LINE
8
BLACK
6
CONTINUOUS
10
2.50873
20
0.91359
11
2.5106
21
0.915465
0
LINE
8
BLACK
6
CONTINUOUS
10
2.5106
20
0.915465
11
2.51132
21
0.915971
0
LINE
8
BLACK
6
CONTINUOUS
10
2.51132
20
0.915971
11
2.51137
21
0.916018
0
LINE
8
BLACK
6
CONTINUOUS
10
2.51137
20
0.916018
11
2.51512
21
0.917892
0
LINE
8
BLACK
6
CONTINUOUS
10
2.51512
20
0.917892
11
2.5161
21
0.918185
0
LINE
8
BLACK
6
CONTINUOUS
10
2.5161
20
0.918185
11
2.51627
21
0.918144
0
LINE
8
BLACK
6
CONTINUOUS
10
2.51627
20
0.918144
11
2.51644
21
0.918204
0
LINE
8
BLACK
6
CONTINUOUS
10
2.51644
20
0.918204
11
2.51831
21
0.918204
0
LINE
8
BLACK
6
CONTINUOUS
10
2.51831
20
0.918204
11
2.51932
21
0.918026
0
LINE
8
BLACK
6
CONTINUOUS
10
2.53401
20
0.912299
11
2.53131
21
0.91095
0
LINE
8
BLACK
6
CONTINUOUS
10
2.53131
20
0.91095
11
2.53011
21
0.909753
0
LINE
8
BLACK
6
CONTINUOUS
10
2.53011
20
0.909753
11
2.52877
21
0.907055
0
LINE
8
BLACK
6
CONTINUOUS
10
2.52877
20
0.907055
11
2.52877
21
0.90095
0
LINE
8
BLACK
6
CONTINUOUS
10
2.52877
20
0.90095
11
2.53011
21
0.898253
0
LINE
8
BLACK
6
CONTINUOUS
10
2.53011
20
0.898253
11
2.53131
21
0.897056
0
LINE
8
BLACK
6
CONTINUOUS
10
2.53131
20
0.897056
11
2.53401
21
0.895707
0
LINE
8
BLACK
6
CONTINUOUS
10
2.53401
20
0.895707
11
2.54011
21
0.895707
0
LINE
8
BLACK
6
CONTINUOUS
10
2.54011
20
0.895707
11
2.54281
21
0.897056
0
LINE
8
BLACK
6
CONTINUOUS
10
2.54281
20
0.897056
11
2.54401
21
0.898253
0
LINE
8
BLACK
6
CONTINUOUS
10
2.54401
20
0.898253
11
2.54536
21
0.90095
0
LINE
8
BLACK
6
CONTINUOUS
10
2.54536
20
0.90095
11
2.54536
21
0.907055
0
LINE
8
BLACK
6
CONTINUOUS
10
2.54536
20
0.907055
11
2.54401
21
0.909753
0
LINE
8
BLACK
6
CONTINUOUS
10
2.54401
20
0.909753
11
2.54281
21
0.91095
0
LINE
8
BLACK
6
CONTINUOUS
10
2.54281
20
0.91095
11
2.54011
21
0.912299
0
LINE
8
BLACK
6
CONTINUOUS
10
2.54011
20
0.912299
11
2.53401
21
0.912299
0
LINE
8
BLACK
6
CONTINUOUS
10
2.51714
20
0.912299
11
2.51444
21
0.91095
0
LINE
8
BLACK
6
CONTINUOUS
10
2.51444
20
0.91095
11
2.51324
21
0.909753
0
LINE
8
BLACK
6
CONTINUOUS
10
2.51324
20
0.909753
11
2.51189
21
0.907055
0
LINE
8
BLACK
6
CONTINUOUS
10
2.51189
20
0.907055
11
2.51189
21
0.90095
0
LINE
8
BLACK
6
CONTINUOUS
10
2.51189
20
0.90095
11
2.51324
21
0.898253
0
LINE
8
BLACK
6
CONTINUOUS
10
2.51324
20
0.898253
11
2.51444
21
0.897056
0
LINE
8
BLACK
6
CONTINUOUS
10
2.51444
20
0.897056
11
2.51714
21
0.895707
0
LINE
8
BLACK
6
CONTINUOUS
10
2.51714
20
0.895707
11
2.51762
21
0.895707
0
LINE
8
BLACK
6
CONTINUOUS
10
2.51762
20
0.895707
11
2.52031
21
0.897056
0
LINE
8
BLACK
6
CONTINUOUS
10
2.52031
20
0.897056
11
2.52151
21
0.898253
0
LINE
8
BLACK
6
CONTINUOUS
10
2.52151
20
0.898253
11
2.52286
21
0.90095
0
LINE
8
BLACK
6
CONTINUOUS
10
2.52286
20
0.90095
11
2.52286
21
0.907055
0
LINE
8
BLACK
6
CONTINUOUS
10
2.52286
20
0.907055
11
2.52151
21
0.909753
0
LINE
8
BLACK
6
CONTINUOUS
10
2.52151
20
0.909753
11
2.52031
21
0.91095
0
LINE
8
BLACK
6
CONTINUOUS
10
2.52031
20
0.91095
11
2.51762
21
0.912299
0
LINE
8
BLACK
6
CONTINUOUS
10
2.51762
20
0.912299
11
2.51714
21
0.912299
0
LINE
8
BLACK
6
CONTINUOUS
10
2.46117
20
0.955624
11
2.46131
21
0.955511
0
LINE
8
BLACK
6
CONTINUOUS
10
2.46131
20
0.955511
11
2.46148
21
0.955491
0
LINE
8
BLACK
6
CONTINUOUS
10
2.46148
20
0.955491
11
2.46523
21
0.953616
0
LINE
8
BLACK
6
CONTINUOUS
10
2.46523
20
0.953616
11
2.46594
21
0.95309
0
LINE
8
BLACK
6
CONTINUOUS
10
2.46594
20
0.95309
11
2.466
21
0.953063
0
LINE
8
BLACK
6
CONTINUOUS
10
2.466
20
0.953063
11
2.46787
21
0.951188
0
LINE
8
BLACK
6
CONTINUOUS
10
2.46787
20
0.951188
11
2.46838
21
0.950465
0
LINE
8
BLACK
6
CONTINUOUS
10
2.46838
20
0.950465
11
2.46843
21
0.950421
0
LINE
8
BLACK
6
CONTINUOUS
10
2.46843
20
0.950421
11
2.4703
21
0.946671
0
LINE
8
BLACK
6
CONTINUOUS
10
2.4703
20
0.946671
11
2.47045
21
0.946183
0
LINE
8
BLACK
6
CONTINUOUS
10
2.47045
20
0.946183
11
2.47052
21
0.946067
0
LINE
8
BLACK
6
CONTINUOUS
10
2.47052
20
0.946067
11
2.47232
21
0.938882
0
LINE
8
BLACK
6
CONTINUOUS
10
2.47232
20
0.938882
11
2.47384
21
0.935851
0
LINE
8
BLACK
6
CONTINUOUS
10
2.47384
20
0.935851
11
2.47503
21
0.934654
0
LINE
8
BLACK
6
CONTINUOUS
10
2.47503
20
0.934654
11
2.47773
21
0.933305
0
LINE
8
BLACK
6
CONTINUOUS
10
2.47773
20
0.933305
11
2.48009
21
0.933305
0
LINE
8
BLACK
6
CONTINUOUS
10
2.48009
20
0.933305
11
2.48278
21
0.934654
0
LINE
8
BLACK
6
CONTINUOUS
10
2.48278
20
0.934654
11
2.48398
21
0.935851
0
LINE
8
BLACK
6
CONTINUOUS
10
2.48398
20
0.935851
11
2.48533
21
0.938549
0
LINE
8
BLACK
6
CONTINUOUS
10
2.48533
20
0.938549
11
2.48533
21
0.946746
0
LINE
8
BLACK
6
CONTINUOUS
10
2.48533
20
0.946746
11
2.48361
21
0.951916
0
LINE
8
BLACK
6
CONTINUOUS
10
2.48361
20
0.951916
11
2.48346
21
0.95293
0
LINE
8
BLACK
6
CONTINUOUS
10
2.48346
20
0.95293
11
2.4842
21
0.954809
0
LINE
8
BLACK
6
CONTINUOUS
10
2.4842
20
0.954809
11
2.48597
21
0.95577
0
LINE
8
BLACK
6
CONTINUOUS
10
2.48597
20
0.95577
11
2.48795
21
0.955365
0
LINE
8
BLACK
6
CONTINUOUS
10
2.48795
20
0.955365
11
2.48921
21
0.953783
0
LINE
8
BLACK
6
CONTINUOUS
10
2.48921
20
0.953783
11
2.49108
21
0.948159
0
LINE
8
BLACK
6
CONTINUOUS
10
2.49108
20
0.948159
11
2.49121
21
0.947286
0
LINE
8
BLACK
6
CONTINUOUS
10
2.49121
20
0.947286
11
2.49124
21
0.947225
0
LINE
8
BLACK
6
CONTINUOUS
10
2.49124
20
0.947225
11
2.49124
21
0.937851
0
LINE
8
BLACK
6
CONTINUOUS
10
2.49124
20
0.937851
11
2.49106
21
0.936842
0
LINE
8
BLACK
6
CONTINUOUS
10
2.49106
20
0.936842
11
2.49094
21
0.936706
0
LINE
8
BLACK
6
CONTINUOUS
10
2.49094
20
0.936706
11
2.49092
21
0.936531
0
LINE
8
BLACK
6
CONTINUOUS
10
2.49092
20
0.936531
11
2.48905
21
0.932781
0
LINE
8
BLACK
6
CONTINUOUS
10
2.48905
20
0.932781
11
2.48852
21
0.932072
0
LINE
8
BLACK
6
CONTINUOUS
10
2.48852
20
0.932072
11
2.4885
21
0.932014
0
LINE
8
BLACK
6
CONTINUOUS
10
2.4885
20
0.932014
11
2.48662
21
0.930139
0
LINE
8
BLACK
6
CONTINUOUS
10
2.48662
20
0.930139
11
2.4859
21
0.929633
0
LINE
8
BLACK
6
CONTINUOUS
10
2.4859
20
0.929633
11
2.48585
21
0.929586
0
LINE
8
BLACK
6
CONTINUOUS
10
2.48585
20
0.929586
11
2.4821
21
0.927711
0
LINE
8
BLACK
6
CONTINUOUS
10
2.4821
20
0.927711
11
2.48112
21
0.927419
0
LINE
8
BLACK
6
CONTINUOUS
10
2.48112
20
0.927419
11
2.48095
21
0.92746
0
LINE
8
BLACK
6
CONTINUOUS
10
2.48095
20
0.92746
11
2.48078
21
0.9274
0
LINE
8
BLACK
6
CONTINUOUS
10
2.48078
20
0.9274
11
2.47703
21
0.9274
0
LINE
8
BLACK
6
CONTINUOUS
10
2.47703
20
0.9274
11
2.47602
21
0.927578
0
LINE
8
BLACK
6
CONTINUOUS
10
2.47602
20
0.927578
11
2.47589
21
0.927691
0
LINE
8
BLACK
6
CONTINUOUS
10
2.47589
20
0.927691
11
2.47571
21
0.927711
0
LINE
8
BLACK
6
CONTINUOUS
10
2.47571
20
0.927711
11
2.47196
21
0.929586
0
LINE
8
BLACK
6
CONTINUOUS
10
2.47196
20
0.929586
11
2.47125
21
0.930112
0
LINE
8
BLACK
6
CONTINUOUS
10
2.47125
20
0.930112
11
2.4712
21
0.930139
0
LINE
8
BLACK
6
CONTINUOUS
10
2.4712
20
0.930139
11
2.46932
21
0.932014
0
LINE
8
BLACK
6
CONTINUOUS
10
2.46932
20
0.932014
11
2.46882
21
0.932737
0
LINE
8
BLACK
6
CONTINUOUS
10
2.46882
20
0.932737
11
2.46877
21
0.932781
0
LINE
8
BLACK
6
CONTINUOUS
10
2.46877
20
0.932781
11
2.46689
21
0.936531
0
LINE
8
BLACK
6
CONTINUOUS
10
2.46689
20
0.936531
11
2.46675
21
0.937019
0
LINE
8
BLACK
6
CONTINUOUS
10
2.46675
20
0.937019
11
2.46667
21
0.937135
0
LINE
8
BLACK
6
CONTINUOUS
10
2.46667
20
0.937135
11
2.46487
21
0.94432
0
LINE
8
BLACK
6
CONTINUOUS
10
2.46487
20
0.94432
11
2.46336
21
0.947351
0
LINE
8
BLACK
6
CONTINUOUS
10
2.46336
20
0.947351
11
2.46216
21
0.948548
0
LINE
8
BLACK
6
CONTINUOUS
10
2.46216
20
0.948548
11
2.45946
21
0.949897
0
LINE
8
BLACK
6
CONTINUOUS
10
2.45946
20
0.949897
11
2.45711
21
0.949897
0
LINE
8
BLACK
6
CONTINUOUS
10
2.45711
20
0.949897
11
2.45441
21
0.948548
0
LINE
8
BLACK
6
CONTINUOUS
10
2.45441
20
0.948548
11
2.45321
21
0.947351
0
LINE
8
BLACK
6
CONTINUOUS
10
2.45321
20
0.947351
11
2.45187
21
0.944653
0
LINE
8
BLACK
6
CONTINUOUS
10
2.45187
20
0.944653
11
2.45187
21
0.936456
0
LINE
8
BLACK
6
CONTINUOUS
10
2.45187
20
0.936456
11
2.45359
21
0.931286
0
LINE
8
BLACK
6
CONTINUOUS
10
2.45359
20
0.931286
11
2.45374
21
0.930272
0
LINE
8
BLACK
6
CONTINUOUS
10
2.45374
20
0.930272
11
2.453
21
0.928393
0
LINE
8
BLACK
6
CONTINUOUS
10
2.453
20
0.928393
11
2.45122
21
0.927432
0
LINE
8
BLACK
6
CONTINUOUS
10
2.45122
20
0.927432
11
2.44924
21
0.927837
0
LINE
8
BLACK
6
CONTINUOUS
10
2.44924
20
0.927837
11
2.44799
21
0.929419
0
LINE
8
BLACK
6
CONTINUOUS
10
2.44799
20
0.929419
11
2.44611
21
0.935043
0
LINE
8
BLACK
6
CONTINUOUS
10
2.44611
20
0.935043
11
2.44598
21
0.935916
0
LINE
8
BLACK
6
CONTINUOUS
10
2.44598
20
0.935916
11
2.44596
21
0.935977
0
LINE
8
BLACK
6
CONTINUOUS
10
2.44596
20
0.935977
11
2.44596
21
0.945351
0
LINE
8
BLACK
6
CONTINUOUS
10
2.44596
20
0.945351
11
2.44614
21
0.94636
0
LINE
8
BLACK
6
CONTINUOUS
10
2.44614
20
0.94636
11
2.44625
21
0.946496
0
LINE
8
BLACK
6
CONTINUOUS
10
2.44625
20
0.946496
11
2.44627
21
0.946671
0
LINE
8
BLACK
6
CONTINUOUS
10
2.44627
20
0.946671
11
2.44815
21
0.950421
0
LINE
8
BLACK
6
CONTINUOUS
10
2.44815
20
0.950421
11
2.44867
21
0.95113
0
LINE
8
BLACK
6
CONTINUOUS
10
2.44867
20
0.95113
11
2.4487
21
0.951188
0
LINE
8
BLACK
6
CONTINUOUS
10
2.4487
20
0.951188
11
2.45057
21
0.953063
0
LINE
8
BLACK
6
CONTINUOUS
10
2.45057
20
0.953063
11
2.4513
21
0.953569
0
LINE
8
BLACK
6
CONTINUOUS
10
2.4513
20
0.953569
11
2.45134
21
0.953616
0
LINE
8
BLACK
6
CONTINUOUS
10
2.45134
20
0.953616
11
2.45509
21
0.955491
0
LINE
8
BLACK
6
CONTINUOUS
10
2.45509
20
0.955491
11
2.45607
21
0.955783
0
LINE
8
BLACK
6
CONTINUOUS
10
2.45607
20
0.955783
11
2.45625
21
0.955742
0
LINE
8
BLACK
6
CONTINUOUS
10
2.45625
20
0.955742
11
2.45641
21
0.955802
0
LINE
8
BLACK
6
CONTINUOUS
10
2.45641
20
0.955802
11
2.46016
21
0.955802
0
LINE
8
BLACK
6
CONTINUOUS
10
2.46016
20
0.955802
11
2.46117
21
0.955624
0
LINE
8
BLACK
6
CONTINUOUS
10
2.54932
20
0.961146
11
2.55087
21
0.959847
0
LINE
8
BLACK
6
CONTINUOUS
10
2.55087
20
0.959847
11
2.55122
21
0.957858
0
LINE
8
BLACK
6
CONTINUOUS
10
2.55122
20
0.957858
11
2.55021
21
0.956109
0
LINE
8
BLACK
6
CONTINUOUS
10
2.55021
20
0.956109
11
2.54831
21
0.955418
0
LINE
8
BLACK
6
CONTINUOUS
10
2.54831
20
0.955418
11
2.52225
21
0.955418
0
LINE
8
BLACK
6
CONTINUOUS
10
2.52225
20
0.955418
11
2.53831
21
0.947923
0
LINE
8
BLACK
6
CONTINUOUS
10
2.53831
20
0.947923
11
2.53863
21
0.947701
0
LINE
8
BLACK
6
CONTINUOUS
10
2.53863
20
0.947701
11
2.53875
21
0.947667
0
LINE
8
BLACK
6
CONTINUOUS
10
2.53875
20
0.947667
11
2.53883
21
0.947559
0
LINE
8
BLACK
6
CONTINUOUS
10
2.53883
20
0.947559
11
2.53915
21
0.947335
0
LINE
8
BLACK
6
CONTINUOUS
10
2.53915
20
0.947335
11
2.53947
21
0.94664
0
LINE
8
BLACK
6
CONTINUOUS
10
2.53947
20
0.94664
11
2.53991
21
0.946013
0
LINE
8
BLACK
6
CONTINUOUS
10
2.53991
20
0.946013
11
2.53989
21
0.945746
0
LINE
8
BLACK
6
CONTINUOUS
10
2.53989
20
0.945746
11
2.54
21
0.945504
0
LINE
8
BLACK
6
CONTINUOUS
10
2.54
20
0.945504
11
2.5398
21
0.944764
0
LINE
8
BLACK
6
CONTINUOUS
10
2.5398
20
0.944764
11
2.53974
21
0.944001
0
LINE
8
BLACK
6
CONTINUOUS
10
2.53974
20
0.944001
11
2.53955
21
0.943811
0
LINE
8
BLACK
6
CONTINUOUS
10
2.53955
20
0.943811
11
2.53948
21
0.943553
0
LINE
8
BLACK
6
CONTINUOUS
10
2.53948
20
0.943553
11
2.53885
21
0.943114
0
LINE
8
BLACK
6
CONTINUOUS
10
2.53885
20
0.943114
11
2.53831
21
0.942572
0
LINE
8
BLACK
6
CONTINUOUS
10
2.53831
20
0.942572
11
2.52225
21
0.935077
0
LINE
8
BLACK
6
CONTINUOUS
10
2.52225
20
0.935077
11
2.54831
21
0.935077
0
LINE
8
BLACK
6
CONTINUOUS
10
2.54831
20
0.935077
11
2.54932
21
0.934899
0
LINE
8
BLACK
6
CONTINUOUS
10
2.54932
20
0.934899
11
2.55087
21
0.933601
0
LINE
8
BLACK
6
CONTINUOUS
10
2.55087
20
0.933601
11
2.55122
21
0.931612
0
LINE
8
BLACK
6
CONTINUOUS
10
2.55122
20
0.931612
11
2.55021
21
0.929862
0
LINE
8
BLACK
6
CONTINUOUS
10
2.55021
20
0.929862
11
2.54831
21
0.929172
0
LINE
8
BLACK
6
CONTINUOUS
10
2.54831
20
0.929172
11
2.50894
21
0.929172
0
LINE
8
BLACK
6
CONTINUOUS
10
2.50894
20
0.929172
11
2.50793
21
0.92935
0
LINE
8
BLACK
6
CONTINUOUS
10
2.50793
20
0.92935
11
2.50763
21
0.929603
0
LINE
8
BLACK
6
CONTINUOUS
10
2.50763
20
0.929603
11
2.50725
21
0.929705
0
LINE
8
BLACK
6
CONTINUOUS
10
2.50725
20
0.929705
11
2.50688
21
0.930233
0
LINE
8
BLACK
6
CONTINUOUS
10
2.50688
20
0.930233
11
2.50638
21
0.930648
0
LINE
8
BLACK
6
CONTINUOUS
10
2.50638
20
0.930648
11
2.50631
21
0.931036
0
LINE
8
BLACK
6
CONTINUOUS
10
2.50631
20
0.931036
11
2.50609
21
0.931359
0
LINE
8
BLACK
6
CONTINUOUS
10
2.50609
20
0.931359
11
2.50614
21
0.932002
0
LINE
8
BLACK
6
CONTINUOUS
10
2.50614
20
0.932002
11
2.50603
21
0.932637
0
LINE
8
BLACK
6
CONTINUOUS
10
2.50603
20
0.932637
11
2.50623
21
0.932979
0
LINE
8
BLACK
6
CONTINUOUS
10
2.50623
20
0.932979
11
2.50626
21
0.933371
0
LINE
8
BLACK
6
CONTINUOUS
10
2.50626
20
0.933371
11
2.50672
21
0.933828
0
LINE
8
BLACK
6
CONTINUOUS
10
2.50672
20
0.933828
11
2.50704
21
0.934386
0
LINE
8
BLACK
6
CONTINUOUS
10
2.50704
20
0.934386
11
2.50741
21
0.934521
0
LINE
8
BLACK
6
CONTINUOUS
10
2.50741
20
0.934521
11
2.50769
21
0.9348
0
LINE
8
BLACK
6
CONTINUOUS
10
2.50769
20
0.9348
11
2.53008
21
0.945248
0
LINE
8
BLACK
6
CONTINUOUS
10
2.53008
20
0.945248
11
2.50769
21
0.955695
0
LINE
8
BLACK
6
CONTINUOUS
10
2.50769
20
0.955695
11
2.50685
21
0.956284
0
LINE
8
BLACK
6
CONTINUOUS
10
2.50685
20
0.956284
11
2.50669
21
0.956641
0
LINE
8
BLACK
6
CONTINUOUS
10
2.50669
20
0.956641
11
2.50638
21
0.956895
0
LINE
8
BLACK
6
CONTINUOUS
10
2.50638
20
0.956895
11
2.50627
21
0.95753
0
LINE
8
BLACK
6
CONTINUOUS
10
2.50627
20
0.95753
11
2.506
21
0.958114
0
LINE
8
BLACK
6
CONTINUOUS
10
2.506
20
0.958114
11
2.5061
21
0.958495
0
LINE
8
BLACK
6
CONTINUOUS
10
2.5061
20
0.958495
11
2.50603
21
0.958884
0
LINE
8
BLACK
6
CONTINUOUS
10
2.50603
20
0.958884
11
2.50635
21
0.959442
0
LINE
8
BLACK
6
CONTINUOUS
10
2.50635
20
0.959442
11
2.50652
21
0.960065
0
LINE
8
BLACK
6
CONTINUOUS
10
2.50652
20
0.960065
11
2.50685
21
0.960291
0
LINE
8
BLACK
6
CONTINUOUS
10
2.50685
20
0.960291
11
2.50704
21
0.960633
0
LINE
8
BLACK
6
CONTINUOUS
10
2.50704
20
0.960633
11
2.50765
21
0.960854
0
LINE
8
BLACK
6
CONTINUOUS
10
2.50765
20
0.960854
11
2.50818
21
0.961223
0
LINE
8
BLACK
6
CONTINUOUS
10
2.50818
20
0.961223
11
2.50857
21
0.961189
0
LINE
8
BLACK
6
CONTINUOUS
10
2.50857
20
0.961189
11
2.50894
21
0.961324
0
LINE
8
BLACK
6
CONTINUOUS
10
2.50894
20
0.961324
11
2.54831
21
0.961324
0
LINE
8
BLACK
6
CONTINUOUS
10
2.54831
20
0.961324
11
2.54932
21
0.961146
0
LINE
8
BLACK
6
CONTINUOUS
10
2.47555
20
1.00162
11
2.47624
21
0.999719
0
LINE
8
BLACK
6
CONTINUOUS
10
2.47624
20
0.999719
11
2.47624
21
0.969723
0
LINE
8
BLACK
6
CONTINUOUS
10
2.47624
20
0.969723
11
2.47606
21
0.968713
0
LINE
8
BLACK
6
CONTINUOUS
10
2.47606
20
0.968713
11
2.47476
21
0.967165
0
LINE
8
BLACK
6
CONTINUOUS
10
2.47476
20
0.967165
11
2.47277
21
0.966815
0
LINE
8
BLACK
6
CONTINUOUS
10
2.47277
20
0.966815
11
2.47102
21
0.967825
0
LINE
8
BLACK
6
CONTINUOUS
10
2.47102
20
0.967825
11
2.47033
21
0.969723
0
LINE
8
BLACK
6
CONTINUOUS
10
2.47033
20
0.969723
11
2.47033
21
0.999719
0
LINE
8
BLACK
6
CONTINUOUS
10
2.47033
20
0.999719
11
2.47051
21
1.00073
0
LINE
8
BLACK
6
CONTINUOUS
10
2.47051
20
1.00073
11
2.47181
21
1.00228
0
LINE
8
BLACK
6
CONTINUOUS
10
2.47181
20
1.00228
11
2.4738
21
1.00263
0
LINE
8
BLACK
6
CONTINUOUS
10
2.4738
20
1.00263
11
2.47555
21
1.00162
0
LINE
8
BLACK
6
CONTINUOUS
10
2.48929
20
1.02124
11
2.49084
21
1.01994
0
LINE
8
BLACK
6
CONTINUOUS
10
2.49084
20
1.01994
11
2.49119
21
1.01795
0
LINE
8
BLACK
6
CONTINUOUS
10
2.49119
20
1.01795
11
2.49018
21
1.0162
0
LINE
8
BLACK
6
CONTINUOUS
10
2.49018
20
1.0162
11
2.48828
21
1.01551
0
LINE
8
BLACK
6
CONTINUOUS
10
2.48828
20
1.01551
11
2.44891
21
1.01551
0
LINE
8
BLACK
6
CONTINUOUS
10
2.44891
20
1.01551
11
2.4479
21
1.01569
0
LINE
8
BLACK
6
CONTINUOUS
10
2.4479
20
1.01569
11
2.44636
21
1.01699
0
LINE
8
BLACK
6
CONTINUOUS
10
2.44636
20
1.01699
11
2.446
21
1.01898
0
LINE
8
BLACK
6
CONTINUOUS
10
2.446
20
1.01898
11
2.44701
21
1.02073
0
LINE
8
BLACK
6
CONTINUOUS
10
2.44701
20
1.02073
11
2.44891
21
1.02142
0
LINE
8
BLACK
6
CONTINUOUS
10
2.44891
20
1.02142
11
2.48828
21
1.02142
0
LINE
8
BLACK
6
CONTINUOUS
10
2.48828
20
1.02142
11
2.48929
21
1.02124
0
LINE
8
BLACK
6
CONTINUOUS
10
2.48929
20
1.06624
11
2.49084
21
1.06494
0
LINE
8
BLACK
6
CONTINUOUS
10
2.49084
20
1.06494
11
2.49119
21
1.06295
0
LINE
8
BLACK
6
CONTINUOUS
10
2.49119
20
1.06295
11
2.49018
21
1.0612
0
LINE
8
BLACK
6
CONTINUOUS
10
2.49018
20
1.0612
11
2.48828
21
1.06051
0
LINE
8
BLACK
6
CONTINUOUS
10
2.48828
20
1.06051
11
2.46222
21
1.06051
0
LINE
8
BLACK
6
CONTINUOUS
10
2.46222
20
1.06051
11
2.47828
21
1.05301
0
LINE
8
BLACK
6
CONTINUOUS
10
2.47828
20
1.05301
11
2.4786
21
1.05279
0
LINE
8
BLACK
6
CONTINUOUS
10
2.4786
20
1.05279
11
2.47873
21
1.05276
0
LINE
8
BLACK
6
CONTINUOUS
10
2.47873
20
1.05276
11
2.4788
21
1.05265
0
LINE
8
BLACK
6
CONTINUOUS
10
2.4788
20
1.05265
11
2.47912
21
1.05242
0
LINE
8
BLACK
6
CONTINUOUS
10
2.47912
20
1.05242
11
2.47945
21
1.05173
0
LINE
8
BLACK
6
CONTINUOUS
10
2.47945
20
1.05173
11
2.47989
21
1.0511
0
LINE
8
BLACK
6
CONTINUOUS
10
2.47989
20
1.0511
11
2.47986
21
1.05084
0
LINE
8
BLACK
6
CONTINUOUS
10
2.47986
20
1.05084
11
2.47998
21
1.05059
0
LINE
8
BLACK
6
CONTINUOUS
10
2.47998
20
1.05059
11
2.47978
21
1.04985
0
LINE
8
BLACK
6
CONTINUOUS
10
2.47978
20
1.04985
11
2.47971
21
1.04909
0
LINE
8
BLACK
6
CONTINUOUS
10
2.47971
20
1.04909
11
2.47952
21
1.0489
0
LINE
8
BLACK
6
CONTINUOUS
10
2.47952
20
1.0489
11
2.47945
21
1.04864
0
LINE
8
BLACK
6
CONTINUOUS
10
2.47945
20
1.04864
11
2.47882
21
1.0482
0
LINE
8
BLACK
6
CONTINUOUS
10
2.47882
20
1.0482
11
2.47828
21
1.04766
0
LINE
8
BLACK
6
CONTINUOUS
10
2.47828
20
1.04766
11
2.46222
21
1.04017
0
LINE
8
BLACK
6
CONTINUOUS
10
2.46222
20
1.04017
11
2.48828
21
1.04017
0
LINE
8
BLACK
6
CONTINUOUS
10
2.48828
20
1.04017
11
2.48929
21
1.03999
0
LINE
8
BLACK
6
CONTINUOUS
10
2.48929
20
1.03999
11
2.49084
21
1.03869
0
LINE
8
BLACK
6
CONTINUOUS
10
2.49084
20
1.03869
11
2.49119
21
1.0367
0
LINE
8
BLACK
6
CONTINUOUS
10
2.49119
20
1.0367
11
2.49018
21
1.03495
0
LINE
8
BLACK
6
CONTINUOUS
10
2.49018
20
1.03495
11
2.48828
21
1.03426
0
LINE
8
BLACK
6
CONTINUOUS
10
2.48828
20
1.03426
11
2.44891
21
1.03426
0
LINE
8
BLACK
6
CONTINUOUS
10
2.44891
20
1.03426
11
2.4479
21
1.03444
0
LINE
8
BLACK
6
CONTINUOUS
10
2.4479
20
1.03444
11
2.4476
21
1.03469
0
LINE
8
BLACK
6
CONTINUOUS
10
2.4476
20
1.03469
11
2.44722
21
1.03479
0
LINE
8
BLACK
6
CONTINUOUS
10
2.44722
20
1.03479
11
2.44685
21
1.03532
0
LINE
8
BLACK
6
CONTINUOUS
10
2.44685
20
1.03532
11
2.44636
21
1.03574
0
LINE
8
BLACK
6
CONTINUOUS
10
2.44636
20
1.03574
11
2.44629
21
1.03613
0
LINE
8
BLACK
6
CONTINUOUS
10
2.44629
20
1.03613
11
2.44606
21
1.03645
0
LINE
8
BLACK
6
CONTINUOUS
10
2.44606
20
1.03645
11
2.44612
21
1.03709
0
LINE
8
BLACK
6
CONTINUOUS
10
2.44612
20
1.03709
11
2.446
21
1.03773
0
LINE
8
BLACK
6
CONTINUOUS
10
2.446
20
1.03773
11
2.4462
21
1.03807
0
LINE
8
BLACK
6
CONTINUOUS
10
2.4462
20
1.03807
11
2.44624
21
1.03846
0
LINE
8
BLACK
6
CONTINUOUS
10
2.44624
20
1.03846
11
2.44669
21
1.03892
0
LINE
8
BLACK
6
CONTINUOUS
10
2.44669
20
1.03892
11
2.44701
21
1.03948
0
LINE
8
BLACK
6
CONTINUOUS
10
2.44701
20
1.03948
11
2.44739
21
1.03961
0
LINE
8
BLACK
6
CONTINUOUS
10
2.44739
20
1.03961
11
2.44766
21
1.03989
0
LINE
8
BLACK
6
CONTINUOUS
10
2.44766
20
1.03989
11
2.47005
21
1.05034
0
LINE
8
BLACK
6
CONTINUOUS
10
2.47005
20
1.05034
11
2.44766
21
1.06079
0
LINE
8
BLACK
6
CONTINUOUS
10
2.44766
20
1.06079
11
2.44682
21
1.06137
0
LINE
8
BLACK
6
CONTINUOUS
10
2.44682
20
1.06137
11
2.44666
21
1.06173
0
LINE
8
BLACK
6
CONTINUOUS
10
2.44666
20
1.06173
11
2.44636
21
1.06198
0
LINE
8
BLACK
6
CONTINUOUS
10
2.44636
20
1.06198
11
2.44624
21
1.06262
0
LINE
8
BLACK
6
CONTINUOUS
10
2.44624
20
1.06262
11
2.44597
21
1.0632
0
LINE
8
BLACK
6
CONTINUOUS
10
2.44597
20
1.0632
11
2.44607
21
1.06359
0
LINE
8
BLACK
6
CONTINUOUS
10
2.44607
20
1.06359
11
2.446
21
1.06397
0
LINE
8
BLACK
6
CONTINUOUS
10
2.446
20
1.06397
11
2.44633
21
1.06453
0
LINE
8
BLACK
6
CONTINUOUS
10
2.44633
20
1.06453
11
2.44649
21
1.06516
0
LINE
8
BLACK
6
CONTINUOUS
10
2.44649
20
1.06516
11
2.44682
21
1.06538
0
LINE
8
BLACK
6
CONTINUOUS
10
2.44682
20
1.06538
11
2.44701
21
1.06572
0
LINE
8
BLACK
6
CONTINUOUS
10
2.44701
20
1.06572
11
2.44762
21
1.06594
0
LINE
8
BLACK
6
CONTINUOUS
10
2.44762
20
1.06594
11
2.44815
21
1.06631
0
LINE
8
BLACK
6
CONTINUOUS
10
2.44815
20
1.06631
11
2.44854
21
1.06628
0
LINE
8
BLACK
6
CONTINUOUS
10
2.44854
20
1.06628
11
2.44891
21
1.06641
0
LINE
8
BLACK
6
CONTINUOUS
10
2.44891
20
1.06641
11
2.48828
21
1.06641
0
LINE
8
BLACK
6
CONTINUOUS
10
2.48828
20
1.06641
11
2.48929
21
1.06624
0
LINE
8
BLACK
6
CONTINUOUS
10
2.48867
20
1.10572
11
2.4888
21
1.10574
0
LINE
8
BLACK
6
CONTINUOUS
10
2.4888
20
1.10574
11
2.48891
21
1.10567
0
LINE
8
BLACK
6
CONTINUOUS
10
2.48891
20
1.10567
11
2.48929
21
1.10561
0
LINE
8
BLACK
6
CONTINUOUS
10
2.48929
20
1.10561
11
2.48988
21
1.10511
0
LINE
8
BLACK
6
CONTINUOUS
10
2.48988
20
1.10511
11
2.49054
21
1.10473
0
LINE
8
BLACK
6
CONTINUOUS
10
2.49054
20
1.10473
11
2.49064
21
1.10448
0
LINE
8
BLACK
6
CONTINUOUS
10
2.49064
20
1.10448
11
2.49084
21
1.10431
0
LINE
8
BLACK
6
CONTINUOUS
10
2.49084
20
1.10431
11
2.49097
21
1.10355
0
LINE
8
BLACK
6
CONTINUOUS
10
2.49097
20
1.10355
11
2.49124
21
1.10283
0
LINE
8
BLACK
6
CONTINUOUS
10
2.49124
20
1.10283
11
2.49124
21
1.08783
0
LINE
8
BLACK
6
CONTINUOUS
10
2.49124
20
1.08783
11
2.49106
21
1.08682
0
LINE
8
BLACK
6
CONTINUOUS
10
2.49106
20
1.08682
11
2.49094
21
1.08669
0
LINE
8
BLACK
6
CONTINUOUS
10
2.49094
20
1.08669
11
2.49092
21
1.08651
0
LINE
8
BLACK
6
CONTINUOUS
10
2.49092
20
1.08651
11
2.48905
21
1.08276
0
LINE
8
BLACK
6
CONTINUOUS
10
2.48905
20
1.08276
11
2.48852
21
1.08205
0
LINE
8
BLACK
6
CONTINUOUS
10
2.48852
20
1.08205
11
2.4885
21
1.082
0
LINE
8
BLACK
6
CONTINUOUS
10
2.4885
20
1.082
11
2.48662
21
1.08012
0
LINE
8
BLACK
6
CONTINUOUS
10
2.48662
20
1.08012
11
2.4859
21
1.07961
0
LINE
8
BLACK
6
CONTINUOUS
10
2.4859
20
1.07961
11
2.48585
21
1.07957
0
LINE
8
BLACK
6
CONTINUOUS
10
2.48585
20
1.07957
11
2.4821
21
1.07769
0
LINE
8
BLACK
6
CONTINUOUS
10
2.4821
20
1.07769
11
2.48112
21
1.0774
0
LINE
8
BLACK
6
CONTINUOUS
10
2.48112
20
1.0774
11
2.48095
21
1.07744
0
LINE
8
BLACK
6
CONTINUOUS
10
2.48095
20
1.07744
11
2.48078
21
1.07738
0
LINE
8
BLACK
6
CONTINUOUS
10
2.48078
20
1.07738
11
2.47516
21
1.07738
0
LINE
8
BLACK
6
CONTINUOUS
10
2.47516
20
1.07738
11
2.47415
21
1.07756
0
LINE
8
BLACK
6
CONTINUOUS
10
2.47415
20
1.07756
11
2.47401
21
1.07767
0
LINE
8
BLACK
6
CONTINUOUS
10
2.47401
20
1.07767
11
2.47384
21
1.07769
0
LINE
8
BLACK
6
CONTINUOUS
10
2.47384
20
1.07769
11
2.47009
21
1.07957
0
LINE
8
BLACK
6
CONTINUOUS
10
2.47009
20
1.07957
11
2.46938
21
1.08009
0
LINE
8
BLACK
6
CONTINUOUS
10
2.46938
20
1.08009
11
2.46932
21
1.08012
0
LINE
8
BLACK
6
CONTINUOUS
10
2.46932
20
1.08012
11
2.46745
21
1.082
0
LINE
8
BLACK
6
CONTINUOUS
10
2.46745
20
1.082
11
2.46686
21
1.08284
0
LINE
8
BLACK
6
CONTINUOUS
10
2.46686
20
1.08284
11
2.46686
21
1.08285
0
LINE
8
BLACK
6
CONTINUOUS
10
2.46686
20
1.08285
11
2.466
21
1.082
0
LINE
8
BLACK
6
CONTINUOUS
10
2.466
20
1.082
11
2.46528
21
1.08149
0
LINE
8
BLACK
6
CONTINUOUS
10
2.46528
20
1.08149
11
2.46523
21
1.08144
0
LINE
8
BLACK
6
CONTINUOUS
10
2.46523
20
1.08144
11
2.46148
21
1.07957
0
LINE
8
BLACK
6
CONTINUOUS
10
2.46148
20
1.07957
11
2.4605
21
1.07928
0
LINE
8
BLACK
6
CONTINUOUS
10
2.4605
20
1.07928
11
2.46033
21
1.07932
0
LINE
8
BLACK
6
CONTINUOUS
10
2.46033
20
1.07932
11
2.46016
21
1.07926
0
LINE
8
BLACK
6
CONTINUOUS
10
2.46016
20
1.07926
11
2.45641
21
1.07926
0
LINE
8
BLACK
6
CONTINUOUS
10
2.45641
20
1.07926
11
2.4554
21
1.07943
0
LINE
8
BLACK
6
CONTINUOUS
10
2.4554
20
1.07943
11
2.45527
21
1.07955
0
LINE
8
BLACK
6
CONTINUOUS
10
2.45527
20
1.07955
11
2.45509
21
1.07957
0
LINE
8
BLACK
6
CONTINUOUS
10
2.45509
20
1.07957
11
2.45134
21
1.08144
0
LINE
8
BLACK
6
CONTINUOUS
10
2.45134
20
1.08144
11
2.45063
21
1.08197
0
LINE
8
BLACK
6
CONTINUOUS
10
2.45063
20
1.08197
11
2.45057
21
1.082
0
LINE
8
BLACK
6
CONTINUOUS
10
2.45057
20
1.082
11
2.4487
21
1.08387
0
LINE
8
BLACK
6
CONTINUOUS
10
2.4487
20
1.08387
11
2.44819
21
1.08459
0
LINE
8
BLACK
6
CONTINUOUS
10
2.44819
20
1.08459
11
2.44815
21
1.08464
0
LINE
8
BLACK
6
CONTINUOUS
10
2.44815
20
1.08464
11
2.44627
21
1.08839
0
LINE
8
BLACK
6
CONTINUOUS
10
2.44627
20
1.08839
11
2.44598
21
1.08937
0
LINE
8
BLACK
6
CONTINUOUS
10
2.44598
20
1.08937
11
2.44602
21
1.08954
0
LINE
8
BLACK
6
CONTINUOUS
10
2.44602
20
1.08954
11
2.44596
21
1.08971
0
LINE
8
BLACK
6
CONTINUOUS
10
2.44596
20
1.08971
11
2.44596
21
1.10283
0
LINE
8
BLACK
6
CONTINUOUS
10
2.44596
20
1.10283
11
2.44603
21
1.10321
0
LINE
8
BLACK
6
CONTINUOUS
10
2.44603
20
1.10321
11
2.446
21
1.10334
0
LINE
8
BLACK
6
CONTINUOUS
10
2.446
20
1.10334
11
2.44607
21
1.10346
0
LINE
8
BLACK
6
CONTINUOUS
10
2.44607
20
1.10346
11
2.44614
21
1.10384
0
LINE
8
BLACK
6
CONTINUOUS
10
2.44614
20
1.10384
11
2.44663
21
1.10443
0
LINE
8
BLACK
6
CONTINUOUS
10
2.44663
20
1.10443
11
2.44701
21
1.10509
0
LINE
8
BLACK
6
CONTINUOUS
10
2.44701
20
1.10509
11
2.44726
21
1.10518
0
LINE
8
BLACK
6
CONTINUOUS
10
2.44726
20
1.10518
11
2.44744
21
1.10539
0
LINE
8
BLACK
6
CONTINUOUS
10
2.44744
20
1.10539
11
2.44819
21
1.10552
0
LINE
8
BLACK
6
CONTINUOUS
10
2.44819
20
1.10552
11
2.44891
21
1.10578
0
LINE
8
BLACK
6
CONTINUOUS
10
2.44891
20
1.10578
11
2.48828
21
1.10578
0
LINE
8
BLACK
6
CONTINUOUS
10
2.48828
20
1.10578
11
2.48867
21
1.10572
0
LINE
8
BLACK
6
CONTINUOUS
10
2.47061
20
1.09988
11
2.47061
21
1.09019
0
LINE
8
BLACK
6
CONTINUOUS
10
2.47061
20
1.09019
11
2.47212
21
1.08568
0
LINE
8
BLACK
6
CONTINUOUS
10
2.47212
20
1.08568
11
2.47316
21
1.08464
0
LINE
8
BLACK
6
CONTINUOUS
10
2.47316
20
1.08464
11
2.47586
21
1.08329
0
LINE
8
BLACK
6
CONTINUOUS
10
2.47586
20
1.08329
11
2.48009
21
1.08329
0
LINE
8
BLACK
6
CONTINUOUS
10
2.48009
20
1.08329
11
2.48278
21
1.08464
0
LINE
8
BLACK
6
CONTINUOUS
10
2.48278
20
1.08464
11
2.48398
21
1.08583
0
LINE
8
BLACK
6
CONTINUOUS
10
2.48398
20
1.08583
11
2.48533
21
1.08853
0
LINE
8
BLACK
6
CONTINUOUS
10
2.48533
20
1.08853
11
2.48533
21
1.09988
0
LINE
8
BLACK
6
CONTINUOUS
10
2.48533
20
1.09988
11
2.47061
21
1.09988
0
LINE
8
BLACK
6
CONTINUOUS
10
2.45187
20
1.09988
11
2.45187
21
1.0904
0
LINE
8
BLACK
6
CONTINUOUS
10
2.45187
20
1.0904
11
2.45321
21
1.08771
0
LINE
8
BLACK
6
CONTINUOUS
10
2.45321
20
1.08771
11
2.45441
21
1.08651
0
LINE
8
BLACK
6
CONTINUOUS
10
2.45441
20
1.08651
11
2.45711
21
1.08516
0
LINE
8
BLACK
6
CONTINUOUS
10
2.45711
20
1.08516
11
2.45946
21
1.08516
0
LINE
8
BLACK
6
CONTINUOUS
10
2.45946
20
1.08516
11
2.46216
21
1.08651
0
LINE
8
BLACK
6
CONTINUOUS
10
2.46216
20
1.08651
11
2.46336
21
1.08771
0
LINE
8
BLACK
6
CONTINUOUS
10
2.46336
20
1.08771
11
2.46471
21
1.0904
0
LINE
8
BLACK
6
CONTINUOUS
10
2.46471
20
1.0904
11
2.46471
21
1.09988
0
LINE
8
BLACK
6
CONTINUOUS
10
2.46471
20
1.09988
11
2.45187
21
1.09988
0
LINE
8
BLACK
6
CONTINUOUS
10
1.65869
20
1.60869
11
1.65811
21
1.61008
0
LINE
8
BLACK
6
CONTINUOUS
10
1.65811
20
1.61008
11
1.65811
21
2.86992
0
LINE
8
BLACK
6
CONTINUOUS
10
1.65811
20
2.86992
11
1.65869
21
2.87131
0
LINE
8
BLACK
6
CONTINUOUS
10
1.65869
20
2.87131
11
1.66008
21
2.87189
0
LINE
8
BLACK
6
CONTINUOUS
10
1.66008
20
2.87189
11
2.91992
21
2.87189
0
LINE
8
BLACK
6
CONTINUOUS
10
2.91992
20
2.87189
11
2.92131
21
2.87131
0
LINE
8
BLACK
6
CONTINUOUS
10
2.92131
20
2.87131
11
2.92189
21
2.86992
0
LINE
8
BLACK
6
CONTINUOUS
10
2.92189
20
2.86992
11
2.92189
21
2.45497
0
LINE
8
BLACK
6
CONTINUOUS
10
2.92189
20
2.45497
11
2.92416
21
2.4542
0
LINE
8
BLACK
6
CONTINUOUS
10
2.92416
20
2.4542
11
2.92618
21
2.45191
0
LINE
8
BLACK
6
CONTINUOUS
10
2.92618
20
2.45191
11
2.92678
21
2.44891
0
LINE
8
BLACK
6
CONTINUOUS
10
2.92678
20
2.44891
11
2.9258
21
2.44601
0
LINE
8
BLACK
6
CONTINUOUS
10
2.9258
20
2.44601
11
2.92189
21
2.44015
0
LINE
8
BLACK
6
CONTINUOUS
10
2.92189
20
2.44015
11
2.92189
21
2.40725
0
LINE
8
BLACK
6
CONTINUOUS
10
2.92189
20
2.40725
11
2.9258
21
2.40138
0
LINE
8
BLACK
6
CONTINUOUS
10
2.9258
20
2.40138
11
2.92678
21
2.39849
0
LINE
8
BLACK
6
CONTINUOUS
10
2.92678
20
2.39849
11
2.92618
21
2.39549
0
LINE
8
BLACK
6
CONTINUOUS
10
2.92618
20
2.39549
11
2.92416
21
2.39319
0
LINE
8
BLACK
6
CONTINUOUS
10
2.92416
20
2.39319
11
2.92189
21
2.39242
0
LINE
8
BLACK
6
CONTINUOUS
10
2.92189
20
2.39242
11
2.92189
21
2.35549
0
LINE
8
BLACK
6
CONTINUOUS
10
2.92189
20
2.35549
11
2.92356
21
2.35382
0
LINE
8
BLACK
6
CONTINUOUS
10
2.92356
20
2.35382
11
2.92435
21
2.35086
0
LINE
8
BLACK
6
CONTINUOUS
10
2.92435
20
2.35086
11
2.92435
21
2.29968
0
LINE
8
BLACK
6
CONTINUOUS
10
2.92435
20
2.29968
11
2.92356
21
2.29673
0
LINE
8
BLACK
6
CONTINUOUS
10
2.92356
20
2.29673
11
2.92189
21
2.29506
0
LINE
8
BLACK
6
CONTINUOUS
10
2.92189
20
2.29506
11
2.92189
21
1.61008
0
LINE
8
BLACK
6
CONTINUOUS
10
2.92189
20
1.61008
11
2.92131
21
1.60869
0
LINE
8
BLACK
6
CONTINUOUS
10
2.92131
20
1.60869
11
2.91992
21
1.60811
0
LINE
8
BLACK
6
CONTINUOUS
10
2.91992
20
1.60811
11
1.66008
21
1.60811
0
LINE
8
BLACK
6
CONTINUOUS
10
1.66008
20
1.60811
11
1.65869
21
1.60869
0
LINE
8
BLACK
6
CONTINUOUS
10
1.66205
20
2.86795
11
1.66205
21
1.61205
0
LINE
8
BLACK
6
CONTINUOUS
10
1.66205
20
1.61205
11
2.91795
21
1.61205
0
LINE
8
BLACK
6
CONTINUOUS
10
2.91795
20
1.61205
11
2.91795
21
2.29378
0
LINE
8
BLACK
6
CONTINUOUS
10
2.91795
20
2.29378
11
2.90626
21
2.29378
0
LINE
8
BLACK
6
CONTINUOUS
10
2.90626
20
2.29378
11
2.90534
21
2.29402
0
LINE
8
BLACK
6
CONTINUOUS
10
2.90534
20
2.29402
11
2.90439
21
2.29408
0
LINE
8
BLACK
6
CONTINUOUS
10
2.90439
20
2.29408
11
2.89708
21
2.29652
0
LINE
8
BLACK
6
CONTINUOUS
10
2.89708
20
2.29652
11
2.89595
21
2.29726
0
LINE
8
BLACK
6
CONTINUOUS
10
2.89595
20
2.29726
11
2.89477
21
2.29794
0
LINE
8
BLACK
6
CONTINUOUS
10
2.89477
20
2.29794
11
2.8899
21
2.30282
0
LINE
8
BLACK
6
CONTINUOUS
10
2.8899
20
2.30282
11
2.88942
21
2.30364
0
LINE
8
BLACK
6
CONTINUOUS
10
2.88942
20
2.30364
11
2.88879
21
2.30435
0
LINE
8
BLACK
6
CONTINUOUS
10
2.88879
20
2.30435
11
2.88636
21
2.30923
0
LINE
8
BLACK
6
CONTINUOUS
10
2.88636
20
2.30923
11
2.88623
21
2.30986
0
LINE
8
BLACK
6
CONTINUOUS
10
2.88623
20
2.30986
11
2.88591
21
2.31043
0
LINE
8
BLACK
6
CONTINUOUS
10
2.88591
20
2.31043
11
2.88347
21
2.32018
0
LINE
8
BLACK
6
CONTINUOUS
10
2.88347
20
2.32018
11
2.88348
21
2.32091
0
LINE
8
BLACK
6
CONTINUOUS
10
2.88348
20
2.32091
11
2.8833
21
2.32162
0
LINE
8
BLACK
6
CONTINUOUS
10
2.8833
20
2.32162
11
2.8833
21
2.32893
0
LINE
8
BLACK
6
CONTINUOUS
10
2.8833
20
2.32893
11
2.88348
21
2.32963
0
LINE
8
BLACK
6
CONTINUOUS
10
2.88348
20
2.32963
11
2.88347
21
2.33036
0
LINE
8
BLACK
6
CONTINUOUS
10
2.88347
20
2.33036
11
2.88591
21
2.34011
0
LINE
8
BLACK
6
CONTINUOUS
10
2.88591
20
2.34011
11
2.88623
21
2.34068
0
LINE
8
BLACK
6
CONTINUOUS
10
2.88623
20
2.34068
11
2.88636
21
2.34132
0
LINE
8
BLACK
6
CONTINUOUS
10
2.88636
20
2.34132
11
2.88879
21
2.34619
0
LINE
8
BLACK
6
CONTINUOUS
10
2.88879
20
2.34619
11
2.88942
21
2.3469
0
LINE
8
BLACK
6
CONTINUOUS
10
2.88942
20
2.3469
11
2.8899
21
2.34773
0
LINE
8
BLACK
6
CONTINUOUS
10
2.8899
20
2.34773
11
2.89477
21
2.3526
0
LINE
8
BLACK
6
CONTINUOUS
10
2.89477
20
2.3526
11
2.89595
21
2.35328
0
LINE
8
BLACK
6
CONTINUOUS
10
2.89595
20
2.35328
11
2.89708
21
2.35403
0
LINE
8
BLACK
6
CONTINUOUS
10
2.89708
20
2.35403
11
2.90439
21
2.35646
0
LINE
8
BLACK
6
CONTINUOUS
10
2.90439
20
2.35646
11
2.90534
21
2.35652
0
LINE
8
BLACK
6
CONTINUOUS
10
2.90534
20
2.35652
11
2.90626
21
2.35677
0
LINE
8
BLACK
6
CONTINUOUS
10
2.90626
20
2.35677
11
2.91795
21
2.35677
0
LINE
8
BLACK
6
CONTINUOUS
10
2.91795
20
2.35677
11
2.91795
21
2.39309
0
LINE
8
BLACK
6
CONTINUOUS
10
2.91795
20
2.39309
11
2.91597
21
2.39483
0
LINE
8
BLACK
6
CONTINUOUS
10
2.91597
20
2.39483
11
2.90382
21
2.41305
0
LINE
8
BLACK
6
CONTINUOUS
10
2.90382
20
2.41305
11
2.89168
21
2.39483
0
LINE
8
BLACK
6
CONTINUOUS
10
2.89168
20
2.39483
11
2.88938
21
2.39281
0
LINE
8
BLACK
6
CONTINUOUS
10
2.88938
20
2.39281
11
2.88638
21
2.39221
0
LINE
8
BLACK
6
CONTINUOUS
10
2.88638
20
2.39221
11
2.88349
21
2.39319
0
LINE
8
BLACK
6
CONTINUOUS
10
2.88349
20
2.39319
11
2.88147
21
2.39549
0
LINE
8
BLACK
6
CONTINUOUS
10
2.88147
20
2.39549
11
2.88087
21
2.39849
0
LINE
8
BLACK
6
CONTINUOUS
10
2.88087
20
2.39849
11
2.88185
21
2.40138
0
LINE
8
BLACK
6
CONTINUOUS
10
2.88185
20
2.40138
11
2.89673
21
2.4237
0
LINE
8
BLACK
6
CONTINUOUS
10
2.89673
20
2.4237
11
2.88185
21
2.44601
0
LINE
8
BLACK
6
CONTINUOUS
10
2.88185
20
2.44601
11
2.88087
21
2.44891
0
LINE
8
BLACK
6
CONTINUOUS
10
2.88087
20
2.44891
11
2.88147
21
2.45191
0
LINE
8
BLACK
6
CONTINUOUS
10
2.88147
20
2.45191
11
2.88349
21
2.4542
0
LINE
8
BLACK
6
CONTINUOUS
10
2.88349
20
2.4542
11
2.88638
21
2.45518
0
LINE
8
BLACK
6
CONTINUOUS
10
2.88638
20
2.45518
11
2.88938
21
2.45458
0
LINE
8
BLACK
6
CONTINUOUS
10
2.88938
20
2.45458
11
2.89168
21
2.45256
0
LINE
8
BLACK
6
CONTINUOUS
10
2.89168
20
2.45256
11
2.90382
21
2.43434
0
LINE
8
BLACK
6
CONTINUOUS
10
2.90382
20
2.43434
11
2.91597
21
2.45256
0
LINE
8
BLACK
6
CONTINUOUS
10
2.91597
20
2.45256
11
2.91795
21
2.4543
0
LINE
8
BLACK
6
CONTINUOUS
10
2.91795
20
2.4543
11
2.91795
21
2.86795
0
LINE
8
BLACK
6
CONTINUOUS
10
2.91795
20
2.86795
11
1.66205
21
2.86795
0
LINE
8
BLACK
6
CONTINUOUS
10
2.90722
20
2.34496
11
2.90214
21
2.34326
0
LINE
8
BLACK
6
CONTINUOUS
10
2.90214
20
2.34326
11
2.89893
21
2.34005
0
LINE
8
BLACK
6
CONTINUOUS
10
2.89893
20
2.34005
11
2.89721
21
2.33662
0
LINE
8
BLACK
6
CONTINUOUS
10
2.89721
20
2.33662
11
2.89511
21
2.3282
0
LINE
8
BLACK
6
CONTINUOUS
10
2.89511
20
2.3282
11
2.89511
21
2.32234
0
LINE
8
BLACK
6
CONTINUOUS
10
2.89511
20
2.32234
11
2.89721
21
2.31393
0
LINE
8
BLACK
6
CONTINUOUS
10
2.89721
20
2.31393
11
2.89893
21
2.31049
0
LINE
8
BLACK
6
CONTINUOUS
10
2.89893
20
2.31049
11
2.90214
21
2.30728
0
LINE
8
BLACK
6
CONTINUOUS
10
2.90214
20
2.30728
11
2.90722
21
2.30559
0
LINE
8
BLACK
6
CONTINUOUS
10
2.90722
20
2.30559
11
2.91254
21
2.30559
0
LINE
8
BLACK
6
CONTINUOUS
10
2.91254
20
2.30559
11
2.91254
21
2.34496
0
LINE
8
BLACK
6
CONTINUOUS
10
2.91254
20
2.34496
11
2.90722
21
2.34496
0
LINE
8
BLACK
6
CONTINUOUS
10
2.91092
20
2.4237
11
2.91795
21
2.41315
0
LINE
8
BLACK
6
CONTINUOUS
10
2.91795
20
2.41315
11
2.91795
21
2.43424
0
LINE
8
BLACK
6
CONTINUOUS
10
2.91795
20
2.43424
11
2.91092
21
2.4237
0
LINE
8
BLACK
6
CONTINUOUS
10
2.49755
20
2.1898
11
2.49767
21
2.18982
0
LINE
8
BLACK
6
CONTINUOUS
10
2.49767
20
2.18982
11
2.49779
21
2.18976
0
LINE
8
BLACK
6
CONTINUOUS
10
2.49779
20
2.18976
11
2.49817
21
2.18969
0
LINE
8
BLACK
6
CONTINUOUS
10
2.49817
20
2.18969
11
2.49876
21
2.1892
0
LINE
8
BLACK
6
CONTINUOUS
10
2.49876
20
2.1892
11
2.49942
21
2.18881
0
LINE
8
BLACK
6
CONTINUOUS
10
2.49942
20
2.18881
11
2.49951
21
2.18856
0
LINE
8
BLACK
6
CONTINUOUS
10
2.49951
20
2.18856
11
2.49972
21
2.18839
0
LINE
8
BLACK
6
CONTINUOUS
10
2.49972
20
2.18839
11
2.49985
21
2.18763
0
LINE
8
BLACK
6
CONTINUOUS
10
2.49985
20
2.18763
11
2.50011
21
2.18691
0
LINE
8
BLACK
6
CONTINUOUS
10
2.50011
20
2.18691
11
2.50011
21
2.14754
0
LINE
8
BLACK
6
CONTINUOUS
10
2.50011
20
2.14754
11
2.50005
21
2.14716
0
LINE
8
BLACK
6
CONTINUOUS
10
2.50005
20
2.14716
11
2.50007
21
2.14703
0
LINE
8
BLACK
6
CONTINUOUS
10
2.50007
20
2.14703
11
2.5
21
2.14692
0
LINE
8
BLACK
6
CONTINUOUS
10
2.5
20
2.14692
11
2.49994
21
2.14653
0
LINE
8
BLACK
6
CONTINUOUS
10
2.49994
20
2.14653
11
2.49944
21
2.14595
0
LINE
8
BLACK
6
CONTINUOUS
10
2.49944
20
2.14595
11
2.49906
21
2.14528
0
LINE
8
BLACK
6
CONTINUOUS
10
2.49906
20
2.14528
11
2.49881
21
2.14519
0
LINE
8
BLACK
6
CONTINUOUS
10
2.49881
20
2.14519
11
2.49864
21
2.14499
0
LINE
8
BLACK
6
CONTINUOUS
10
2.49864
20
2.14499
11
2.49788
21
2.14485
0
LINE
8
BLACK
6
CONTINUOUS
10
2.49788
20
2.14485
11
2.49716
21
2.14459
0
LINE
8
BLACK
6
CONTINUOUS
10
2.49716
20
2.14459
11
2.48216
21
2.14459
0
LINE
8
BLACK
6
CONTINUOUS
10
2.48216
20
2.14459
11
2.48115
21
2.14477
0
LINE
8
BLACK
6
CONTINUOUS
10
2.48115
20
2.14477
11
2.48102
21
2.14488
0
LINE
8
BLACK
6
CONTINUOUS
10
2.48102
20
2.14488
11
2.48084
21
2.1449
0
LINE
8
BLACK
6
CONTINUOUS
10
2.48084
20
2.1449
11
2.47709
21
2.14678
0
LINE
8
BLACK
6
CONTINUOUS
10
2.47709
20
2.14678
11
2.47638
21
2.1473
0
LINE
8
BLACK
6
CONTINUOUS
10
2.47638
20
2.1473
11
2.47633
21
2.14733
0
LINE
8
BLACK
6
CONTINUOUS
10
2.47633
20
2.14733
11
2.47445
21
2.14921
0
LINE
8
BLACK
6
CONTINUOUS
10
2.47445
20
2.14921
11
2.47394
21
2.14993
0
LINE
8
BLACK
6
CONTINUOUS
10
2.47394
20
2.14993
11
2.4739
21
2.14997
0
LINE
8
BLACK
6
CONTINUOUS
10
2.4739
20
2.14997
11
2.47202
21
2.15372
0
LINE
8
BLACK
6
CONTINUOUS
10
2.47202
20
2.15372
11
2.47173
21
2.15471
0
LINE
8
BLACK
6
CONTINUOUS
10
2.47173
20
2.15471
11
2.47177
21
2.15488
0
LINE
8
BLACK
6
CONTINUOUS
10
2.47177
20
2.15488
11
2.47171
21
2.15504
0
LINE
8
BLACK
6
CONTINUOUS
10
2.47171
20
2.15504
11
2.47171
21
2.16067
0
LINE
8
BLACK
6
CONTINUOUS
10
2.47171
20
2.16067
11
2.47189
21
2.16168
0
LINE
8
BLACK
6
CONTINUOUS
10
2.47189
20
2.16168
11
2.472
21
2.16181
0
LINE
8
BLACK
6
CONTINUOUS
10
2.472
20
2.16181
11
2.47202
21
2.16199
0
LINE
8
BLACK
6
CONTINUOUS
10
2.47202
20
2.16199
11
2.4739
21
2.16574
0
LINE
8
BLACK
6
CONTINUOUS
10
2.4739
20
2.16574
11
2.47442
21
2.16645
0
LINE
8
BLACK
6
CONTINUOUS
10
2.47442
20
2.16645
11
2.47445
21
2.1665
0
LINE
8
BLACK
6
CONTINUOUS
10
2.47445
20
2.1665
11
2.47633
21
2.16838
0
LINE
8
BLACK
6
CONTINUOUS
10
2.47633
20
2.16838
11
2.47717
21
2.16897
0
LINE
8
BLACK
6
CONTINUOUS
10
2.47717
20
2.16897
11
2.47718
21
2.16897
0
LINE
8
BLACK
6
CONTINUOUS
10
2.47718
20
2.16897
11
2.47633
21
2.16983
0
LINE
8
BLACK
6
CONTINUOUS
10
2.47633
20
2.16983
11
2.47582
21
2.17055
0
LINE
8
BLACK
6
CONTINUOUS
10
2.47582
20
2.17055
11
2.47577
21
2.1706
0
LINE
8
BLACK
6
CONTINUOUS
10
2.47577
20
2.1706
11
2.4739
21
2.17434
0
LINE
8
BLACK
6
CONTINUOUS
10
2.4739
20
2.17434
11
2.47361
21
2.17533
0
LINE
8
BLACK
6
CONTINUOUS
10
2.47361
20
2.17533
11
2.47365
21
2.1755
0
LINE
8
BLACK
6
CONTINUOUS
10
2.47365
20
2.1755
11
2.47359
21
2.17567
0
LINE
8
BLACK
6
CONTINUOUS
10
2.47359
20
2.17567
11
2.47359
21
2.17942
0
LINE
8
BLACK
6
CONTINUOUS
10
2.47359
20
2.17942
11
2.47376
21
2.18042
0
LINE
8
BLACK
6
CONTINUOUS
10
2.47376
20
2.18042
11
2.47388
21
2.18056
0
LINE
8
BLACK
6
CONTINUOUS
10
2.47388
20
2.18056
11
2.4739
21
2.18074
0
LINE
8
BLACK
6
CONTINUOUS
10
2.4739
20
2.18074
11
2.47577
21
2.18449
0
LINE
8
BLACK
6
CONTINUOUS
10
2.47577
20
2.18449
11
2.4763
21
2.18519
0
LINE
8
BLACK
6
CONTINUOUS
10
2.4763
20
2.18519
11
2.47633
21
2.18525
0
LINE
8
BLACK
6
CONTINUOUS
10
2.47633
20
2.18525
11
2.4782
21
2.18713
0
LINE
8
BLACK
6
CONTINUOUS
10
2.4782
20
2.18713
11
2.47892
21
2.18763
0
LINE
8
BLACK
6
CONTINUOUS
10
2.47892
20
2.18763
11
2.47897
21
2.18768
0
LINE
8
BLACK
6
CONTINUOUS
10
2.47897
20
2.18768
11
2.48272
21
2.18956
0
LINE
8
BLACK
6
CONTINUOUS
10
2.48272
20
2.18956
11
2.4837
21
2.18985
0
LINE
8
BLACK
6
CONTINUOUS
10
2.4837
20
2.18985
11
2.48387
21
2.18981
0
LINE
8
BLACK
6
CONTINUOUS
10
2.48387
20
2.18981
11
2.48404
21
2.18987
0
LINE
8
BLACK
6
CONTINUOUS
10
2.48404
20
2.18987
11
2.49716
21
2.18987
0
LINE
8
BLACK
6
CONTINUOUS
10
2.49716
20
2.18987
11
2.49755
21
2.1898
0
LINE
8
BLACK
6
CONTINUOUS
10
2.48452
20
2.16521
11
2.48001
21
2.16371
0
LINE
8
BLACK
6
CONTINUOUS
10
2.48001
20
2.16371
11
2.47897
21
2.16267
0
LINE
8
BLACK
6
CONTINUOUS
10
2.47897
20
2.16267
11
2.47762
21
2.15997
0
LINE
8
BLACK
6
CONTINUOUS
10
2.47762
20
2.15997
11
2.47762
21
2.15574
0
LINE
8
BLACK
6
CONTINUOUS
10
2.47762
20
2.15574
11
2.47897
21
2.15304
0
LINE
8
BLACK
6
CONTINUOUS
10
2.47897
20
2.15304
11
2.48016
21
2.15185
0
LINE
8
BLACK
6
CONTINUOUS
10
2.48016
20
2.15185
11
2.48286
21
2.1505
0
LINE
8
BLACK
6
CONTINUOUS
10
2.48286
20
2.1505
11
2.49421
21
2.1505
0
LINE
8
BLACK
6
CONTINUOUS
10
2.49421
20
2.1505
11
2.49421
21
2.16521
0
LINE
8
BLACK
6
CONTINUOUS
10
2.49421
20
2.16521
11
2.48452
21
2.16521
0
LINE
8
BLACK
6
CONTINUOUS
10
2.48474
20
2.18396
11
2.48204
21
2.18261
0
LINE
8
BLACK
6
CONTINUOUS
10
2.48204
20
2.18261
11
2.48084
21
2.18142
0
LINE
8
BLACK
6
CONTINUOUS
10
2.48084
20
2.18142
11
2.47949
21
2.17872
0
LINE
8
BLACK
6
CONTINUOUS
10
2.47949
20
2.17872
11
2.47949
21
2.17636
0
LINE
8
BLACK
6
CONTINUOUS
10
2.47949
20
2.17636
11
2.48084
21
2.17367
0
LINE
8
BLACK
6
CONTINUOUS
10
2.48084
20
2.17367
11
2.48204
21
2.17247
0
LINE
8
BLACK
6
CONTINUOUS
10
2.48204
20
2.17247
11
2.48474
21
2.17112
0
LINE
8
BLACK
6
CONTINUOUS
10
2.48474
20
2.17112
11
2.49421
21
2.17112
0
LINE
8
BLACK
6
CONTINUOUS
10
2.49421
20
2.17112
11
2.49421
21
2.18396
0
LINE
8
BLACK
6
CONTINUOUS
10
2.49421
20
2.18396
11
2.48474
21
2.18396
0
LINE
8
BLACK
6
CONTINUOUS
10
2.34069
20
2.18969
11
2.34083
21
2.18958
0
LINE
8
BLACK
6
CONTINUOUS
10
2.34083
20
2.18958
11
2.341
21
2.18956
0
LINE
8
BLACK
6
CONTINUOUS
10
2.341
20
2.18956
11
2.34475
21
2.18768
0
LINE
8
BLACK
6
CONTINUOUS
10
2.34475
20
2.18768
11
2.34546
21
2.18715
0
LINE
8
BLACK
6
CONTINUOUS
10
2.34546
20
2.18715
11
2.34552
21
2.18713
0
LINE
8
BLACK
6
CONTINUOUS
10
2.34552
20
2.18713
11
2.34739
21
2.18525
0
LINE
8
BLACK
6
CONTINUOUS
10
2.34739
20
2.18525
11
2.3479
21
2.18453
0
LINE
8
BLACK
6
CONTINUOUS
10
2.3479
20
2.18453
11
2.34795
21
2.18449
0
LINE
8
BLACK
6
CONTINUOUS
10
2.34795
20
2.18449
11
2.34982
21
2.18074
0
LINE
8
BLACK
6
CONTINUOUS
10
2.34982
20
2.18074
11
2.35011
21
2.17975
0
LINE
8
BLACK
6
CONTINUOUS
10
2.35011
20
2.17975
11
2.35007
21
2.17958
0
LINE
8
BLACK
6
CONTINUOUS
10
2.35007
20
2.17958
11
2.35013
21
2.17942
0
LINE
8
BLACK
6
CONTINUOUS
10
2.35013
20
2.17942
11
2.35013
21
2.17567
0
LINE
8
BLACK
6
CONTINUOUS
10
2.35013
20
2.17567
11
2.34996
21
2.17466
0
LINE
8
BLACK
6
CONTINUOUS
10
2.34996
20
2.17466
11
2.34984
21
2.17452
0
LINE
8
BLACK
6
CONTINUOUS
10
2.34984
20
2.17452
11
2.34982
21
2.17434
0
LINE
8
BLACK
6
CONTINUOUS
10
2.34982
20
2.17434
11
2.34795
21
2.1706
0
LINE
8
BLACK
6
CONTINUOUS
10
2.34795
20
2.1706
11
2.34742
21
2.16989
0
LINE
8
BLACK
6
CONTINUOUS
10
2.34742
20
2.16989
11
2.34739
21
2.16983
0
LINE
8
BLACK
6
CONTINUOUS
10
2.34739
20
2.16983
11
2.34552
21
2.16795
0
LINE
8
BLACK
6
CONTINUOUS
10
2.34552
20
2.16795
11
2.3448
21
2.16745
0
LINE
8
BLACK
6
CONTINUOUS
10
2.3448
20
2.16745
11
2.34475
21
2.1674
0
LINE
8
BLACK
6
CONTINUOUS
10
2.34475
20
2.1674
11
2.341
21
2.16553
0
LINE
8
BLACK
6
CONTINUOUS
10
2.341
20
2.16553
11
2.34051
21
2.16538
0
LINE
8
BLACK
6
CONTINUOUS
10
2.34051
20
2.16538
11
2.3404
21
2.1653
0
LINE
8
BLACK
6
CONTINUOUS
10
2.3404
20
2.1653
11
2.33321
21
2.16351
0
LINE
8
BLACK
6
CONTINUOUS
10
2.33321
20
2.16351
11
2.33018
21
2.16199
0
LINE
8
BLACK
6
CONTINUOUS
10
2.33018
20
2.16199
11
2.32898
21
2.16079
0
LINE
8
BLACK
6
CONTINUOUS
10
2.32898
20
2.16079
11
2.32764
21
2.1581
0
LINE
8
BLACK
6
CONTINUOUS
10
2.32764
20
2.1581
11
2.32764
21
2.15574
0
LINE
8
BLACK
6
CONTINUOUS
10
2.32764
20
2.15574
11
2.32898
21
2.15304
0
LINE
8
BLACK
6
CONTINUOUS
10
2.32898
20
2.15304
11
2.33018
21
2.15185
0
LINE
8
BLACK
6
CONTINUOUS
10
2.33018
20
2.15185
11
2.33288
21
2.1505
0
LINE
8
BLACK
6
CONTINUOUS
10
2.33288
20
2.1505
11
2.34108
21
2.1505
0
LINE
8
BLACK
6
CONTINUOUS
10
2.34108
20
2.1505
11
2.34625
21
2.15222
0
LINE
8
BLACK
6
CONTINUOUS
10
2.34625
20
2.15222
11
2.34726
21
2.15237
0
LINE
8
BLACK
6
CONTINUOUS
10
2.34726
20
2.15237
11
2.34914
21
2.15163
0
LINE
8
BLACK
6
CONTINUOUS
10
2.34914
20
2.15163
11
2.3501
21
2.14985
0
LINE
8
BLACK
6
CONTINUOUS
10
2.3501
20
2.14985
11
2.3497
21
2.14787
0
LINE
8
BLACK
6
CONTINUOUS
10
2.3497
20
2.14787
11
2.34811
21
2.14662
0
LINE
8
BLACK
6
CONTINUOUS
10
2.34811
20
2.14662
11
2.34249
21
2.14474
0
LINE
8
BLACK
6
CONTINUOUS
10
2.34249
20
2.14474
11
2.34162
21
2.14461
0
LINE
8
BLACK
6
CONTINUOUS
10
2.34162
20
2.14461
11
2.34156
21
2.14459
0
LINE
8
BLACK
6
CONTINUOUS
10
2.34156
20
2.14459
11
2.33218
21
2.14459
0
LINE
8
BLACK
6
CONTINUOUS
10
2.33218
20
2.14459
11
2.33117
21
2.14477
0
LINE
8
BLACK
6
CONTINUOUS
10
2.33117
20
2.14477
11
2.33104
21
2.14488
0
LINE
8
BLACK
6
CONTINUOUS
10
2.33104
20
2.14488
11
2.33086
21
2.1449
0
LINE
8
BLACK
6
CONTINUOUS
10
2.33086
20
2.1449
11
2.32711
21
2.14678
0
LINE
8
BLACK
6
CONTINUOUS
10
2.32711
20
2.14678
11
2.3264
21
2.1473
0
LINE
8
BLACK
6
CONTINUOUS
10
2.3264
20
2.1473
11
2.32634
21
2.14733
0
LINE
8
BLACK
6
CONTINUOUS
10
2.32634
20
2.14733
11
2.32447
21
2.14921
0
LINE
8
BLACK
6
CONTINUOUS
10
2.32447
20
2.14921
11
2.32396
21
2.14993
0
LINE
8
BLACK
6
CONTINUOUS
10
2.32396
20
2.14993
11
2.32392
21
2.14997
0
LINE
8
BLACK
6
CONTINUOUS
10
2.32392
20
2.14997
11
2.32204
21
2.15372
0
LINE
8
BLACK
6
CONTINUOUS
10
2.32204
20
2.15372
11
2.32175
21
2.15471
0
LINE
8
BLACK
6
CONTINUOUS
10
2.32175
20
2.15471
11
2.32179
21
2.15488
0
LINE
8
BLACK
6
CONTINUOUS
10
2.32179
20
2.15488
11
2.32173
21
2.15504
0
LINE
8
BLACK
6
CONTINUOUS
10
2.32173
20
2.15504
11
2.32173
21
2.15879
0
LINE
8
BLACK
6
CONTINUOUS
10
2.32173
20
2.15879
11
2.32191
21
2.1598
0
LINE
8
BLACK
6
CONTINUOUS
10
2.32191
20
2.1598
11
2.32202
21
2.15994
0
LINE
8
BLACK
6
CONTINUOUS
10
2.32202
20
2.15994
11
2.32204
21
2.16011
0
LINE
8
BLACK
6
CONTINUOUS
10
2.32204
20
2.16011
11
2.32392
21
2.16386
0
LINE
8
BLACK
6
CONTINUOUS
10
2.32392
20
2.16386
11
2.32444
21
2.16457
0
LINE
8
BLACK
6
CONTINUOUS
10
2.32444
20
2.16457
11
2.32447
21
2.16463
0
LINE
8
BLACK
6
CONTINUOUS
10
2.32447
20
2.16463
11
2.32634
21
2.1665
0
LINE
8
BLACK
6
CONTINUOUS
10
2.32634
20
2.1665
11
2.32707
21
2.16701
0
LINE
8
BLACK
6
CONTINUOUS
10
2.32707
20
2.16701
11
2.32711
21
2.16706
0
LINE
8
BLACK
6
CONTINUOUS
10
2.32711
20
2.16706
11
2.33086
21
2.16893
0
LINE
8
BLACK
6
CONTINUOUS
10
2.33086
20
2.16893
11
2.33135
21
2.16908
0
LINE
8
BLACK
6
CONTINUOUS
10
2.33135
20
2.16908
11
2.33147
21
2.16916
0
LINE
8
BLACK
6
CONTINUOUS
10
2.33147
20
2.16916
11
2.33865
21
2.17095
0
LINE
8
BLACK
6
CONTINUOUS
10
2.33865
20
2.17095
11
2.34168
21
2.17247
0
LINE
8
BLACK
6
CONTINUOUS
10
2.34168
20
2.17247
11
2.34288
21
2.17367
0
LINE
8
BLACK
6
CONTINUOUS
10
2.34288
20
2.17367
11
2.34423
21
2.17636
0
LINE
8
BLACK
6
CONTINUOUS
10
2.34423
20
2.17636
11
2.34423
21
2.17872
0
LINE
8
BLACK
6
CONTINUOUS
10
2.34423
20
2.17872
11
2.34288
21
2.18142
0
LINE
8
BLACK
6
CONTINUOUS
10
2.34288
20
2.18142
11
2.34168
21
2.18261
0
LINE
8
BLACK
6
CONTINUOUS
10
2.34168
20
2.18261
11
2.33898
21
2.18396
0
LINE
8
BLACK
6
CONTINUOUS
10
2.33898
20
2.18396
11
2.33079
21
2.18396
0
LINE
8
BLACK
6
CONTINUOUS
10
2.33079
20
2.18396
11
2.32562
21
2.18224
0
LINE
8
BLACK
6
CONTINUOUS
10
2.32562
20
2.18224
11
2.3246
21
2.18209
0
LINE
8
BLACK
6
CONTINUOUS
10
2.3246
20
2.18209
11
2.32272
21
2.18283
0
LINE
8
BLACK
6
CONTINUOUS
10
2.32272
20
2.18283
11
2.32176
21
2.18461
0
LINE
8
BLACK
6
CONTINUOUS
10
2.32176
20
2.18461
11
2.32217
21
2.18659
0
LINE
8
BLACK
6
CONTINUOUS
10
2.32217
20
2.18659
11
2.32375
21
2.18784
0
LINE
8
BLACK
6
CONTINUOUS
10
2.32375
20
2.18784
11
2.32937
21
2.18972
0
LINE
8
BLACK
6
CONTINUOUS
10
2.32937
20
2.18972
11
2.33025
21
2.18984
0
LINE
8
BLACK
6
CONTINUOUS
10
2.33025
20
2.18984
11
2.33031
21
2.18987
0
LINE
8
BLACK
6
CONTINUOUS
10
2.33031
20
2.18987
11
2.33968
21
2.18987
0
LINE
8
BLACK
6
CONTINUOUS
10
2.33968
20
2.18987
11
2.34069
21
2.18969
0
LINE
8
BLACK
6
CONTINUOUS
10
2.25633
20
2.18969
11
2.25646
21
2.18958
0
LINE
8
BLACK
6
CONTINUOUS
10
2.25646
20
2.18958
11
2.25664
21
2.18956
0
LINE
8
BLACK
6
CONTINUOUS
10
2.25664
20
2.18956
11
2.26039
21
2.18768
0
LINE
8
BLACK
6
CONTINUOUS
10
2.26039
20
2.18768
11
2.2611
21
2.18715
0
LINE
8
BLACK
6
CONTINUOUS
10
2.2611
20
2.18715
11
2.26115
21
2.18713
0
LINE
8
BLACK
6
CONTINUOUS
10
2.26115
20
2.18713
11
2.26303
21
2.18525
0
LINE
8
BLACK
6
CONTINUOUS
10
2.26303
20
2.18525
11
2.26362
21
2.18441
0
LINE
8
BLACK
6
CONTINUOUS
10
2.26362
20
2.18441
11
2.26379
21
2.1824
0
LINE
8
BLACK
6
CONTINUOUS
10
2.26379
20
2.1824
11
2.26263
21
2.18075
0
LINE
8
BLACK
6
CONTINUOUS
10
2.26263
20
2.18075
11
2.26068
21
2.18022
0
LINE
8
BLACK
6
CONTINUOUS
10
2.26068
20
2.18022
11
2.25885
21
2.18108
0
LINE
8
BLACK
6
CONTINUOUS
10
2.25885
20
2.18108
11
2.25732
21
2.18261
0
LINE
8
BLACK
6
CONTINUOUS
10
2.25732
20
2.18261
11
2.25462
21
2.18396
0
LINE
8
BLACK
6
CONTINUOUS
10
2.25462
20
2.18396
11
2.24664
21
2.18396
0
LINE
8
BLACK
6
CONTINUOUS
10
2.24664
20
2.18396
11
2.24394
21
2.18261
0
LINE
8
BLACK
6
CONTINUOUS
10
2.24394
20
2.18261
11
2.24275
21
2.18142
0
LINE
8
BLACK
6
CONTINUOUS
10
2.24275
20
2.18142
11
2.2414
21
2.17872
0
LINE
8
BLACK
6
CONTINUOUS
10
2.2414
20
2.17872
11
2.2414
21
2.17614
0
LINE
8
BLACK
6
CONTINUOUS
10
2.2414
20
2.17614
11
2.2429
21
2.17164
0
LINE
8
BLACK
6
CONTINUOUS
10
2.2429
20
2.17164
11
2.2649
21
2.14963
0
LINE
8
BLACK
6
CONTINUOUS
10
2.2649
20
2.14963
11
2.26527
21
2.1491
0
LINE
8
BLACK
6
CONTINUOUS
10
2.26527
20
2.1491
11
2.26537
21
2.14902
0
LINE
8
BLACK
6
CONTINUOUS
10
2.26537
20
2.14902
11
2.26539
21
2.14894
0
LINE
8
BLACK
6
CONTINUOUS
10
2.26539
20
2.14894
11
2.26549
21
2.14879
0
LINE
8
BLACK
6
CONTINUOUS
10
2.26549
20
2.14879
11
2.26557
21
2.14791
0
LINE
8
BLACK
6
CONTINUOUS
10
2.26557
20
2.14791
11
2.26572
21
2.14703
0
LINE
8
BLACK
6
CONTINUOUS
10
2.26572
20
2.14703
11
2.26566
21
2.14691
0
LINE
8
BLACK
6
CONTINUOUS
10
2.26566
20
2.14691
11
2.26567
21
2.14678
0
LINE
8
BLACK
6
CONTINUOUS
10
2.26567
20
2.14678
11
2.26516
21
2.14605
0
LINE
8
BLACK
6
CONTINUOUS
10
2.26516
20
2.14605
11
2.26471
21
2.14528
0
LINE
8
BLACK
6
CONTINUOUS
10
2.26471
20
2.14528
11
2.26459
21
2.14524
0
LINE
8
BLACK
6
CONTINUOUS
10
2.26459
20
2.14524
11
2.26451
21
2.14513
0
LINE
8
BLACK
6
CONTINUOUS
10
2.26451
20
2.14513
11
2.26365
21
2.1449
0
LINE
8
BLACK
6
CONTINUOUS
10
2.26365
20
2.1449
11
2.26282
21
2.14459
0
LINE
8
BLACK
6
CONTINUOUS
10
2.26282
20
2.14459
11
2.23844
21
2.14459
0
LINE
8
BLACK
6
CONTINUOUS
10
2.23844
20
2.14459
11
2.23743
21
2.14477
0
LINE
8
BLACK
6
CONTINUOUS
10
2.23743
20
2.14477
11
2.23589
21
2.14607
0
LINE
8
BLACK
6
CONTINUOUS
10
2.23589
20
2.14607
11
2.23554
21
2.14806
0
LINE
8
BLACK
6
CONTINUOUS
10
2.23554
20
2.14806
11
2.23655
21
2.14981
0
LINE
8
BLACK
6
CONTINUOUS
10
2.23655
20
2.14981
11
2.23844
21
2.1505
0
LINE
8
BLACK
6
CONTINUOUS
10
2.23844
20
2.1505
11
2.25569
21
2.1505
0
LINE
8
BLACK
6
CONTINUOUS
10
2.25569
20
2.1505
11
2.23823
21
2.16795
0
LINE
8
BLACK
6
CONTINUOUS
10
2.23823
20
2.16795
11
2.23764
21
2.16879
0
LINE
8
BLACK
6
CONTINUOUS
10
2.23764
20
2.16879
11
2.23763
21
2.16897
0
LINE
8
BLACK
6
CONTINUOUS
10
2.23763
20
2.16897
11
2.23752
21
2.16911
0
LINE
8
BLACK
6
CONTINUOUS
10
2.23752
20
2.16911
11
2.23564
21
2.17473
0
LINE
8
BLACK
6
CONTINUOUS
10
2.23564
20
2.17473
11
2.23551
21
2.1756
0
LINE
8
BLACK
6
CONTINUOUS
10
2.23551
20
2.1756
11
2.23549
21
2.17567
0
LINE
8
BLACK
6
CONTINUOUS
10
2.23549
20
2.17567
11
2.23549
21
2.17942
0
LINE
8
BLACK
6
CONTINUOUS
10
2.23549
20
2.17942
11
2.23567
21
2.18042
0
LINE
8
BLACK
6
CONTINUOUS
10
2.23567
20
2.18042
11
2.23578
21
2.18056
0
LINE
8
BLACK
6
CONTINUOUS
10
2.23578
20
2.18056
11
2.2358
21
2.18074
0
LINE
8
BLACK
6
CONTINUOUS
10
2.2358
20
2.18074
11
2.23768
21
2.18449
0
LINE
8
BLACK
6
CONTINUOUS
10
2.23768
20
2.18449
11
2.2382
21
2.18519
0
LINE
8
BLACK
6
CONTINUOUS
10
2.2382
20
2.18519
11
2.23823
21
2.18525
0
LINE
8
BLACK
6
CONTINUOUS
10
2.23823
20
2.18525
11
2.24011
21
2.18713
0
LINE
8
BLACK
6
CONTINUOUS
10
2.24011
20
2.18713
11
2.24083
21
2.18763
0
LINE
8
BLACK
6
CONTINUOUS
10
2.24083
20
2.18763
11
2.24087
21
2.18768
0
LINE
8
BLACK
6
CONTINUOUS
10
2.24087
20
2.18768
11
2.24462
21
2.18956
0
LINE
8
BLACK
6
CONTINUOUS
10
2.24462
20
2.18956
11
2.24561
21
2.18985
0
LINE
8
BLACK
6
CONTINUOUS
10
2.24561
20
2.18985
11
2.24578
21
2.18981
0
LINE
8
BLACK
6
CONTINUOUS
10
2.24578
20
2.18981
11
2.24594
21
2.18987
0
LINE
8
BLACK
6
CONTINUOUS
10
2.24594
20
2.18987
11
2.25532
21
2.18987
0
LINE
8
BLACK
6
CONTINUOUS
10
2.25532
20
2.18987
11
2.25633
21
2.18969
0
LINE
8
BLACK
6
CONTINUOUS
10
2.21508
20
2.18969
11
2.21522
21
2.18958
0
LINE
8
BLACK
6
CONTINUOUS
10
2.21522
20
2.18958
11
2.21539
21
2.18956
0
LINE
8
BLACK
6
CONTINUOUS
10
2.21539
20
2.18956
11
2.21914
21
2.18768
0
LINE
8
BLACK
6
CONTINUOUS
10
2.21914
20
2.18768
11
2.21985
21
2.18715
0
LINE
8
BLACK
6
CONTINUOUS
10
2.21985
20
2.18715
11
2.21991
21
2.18713
0
LINE
8
BLACK
6
CONTINUOUS
10
2.21991
20
2.18713
11
2.22178
21
2.18525
0
LINE
8
BLACK
6
CONTINUOUS
10
2.22178
20
2.18525
11
2.22229
21
2.18453
0
LINE
8
BLACK
6
CONTINUOUS
10
2.22229
20
2.18453
11
2.22234
21
2.18449
0
LINE
8
BLACK
6
CONTINUOUS
10
2.22234
20
2.18449
11
2.22421
21
2.18074
0
LINE
8
BLACK
6
CONTINUOUS
10
2.22421
20
2.18074
11
2.22436
21
2.18025
0
LINE
8
BLACK
6
CONTINUOUS
10
2.22436
20
2.18025
11
2.22444
21
2.18013
0
LINE
8
BLACK
6
CONTINUOUS
10
2.22444
20
2.18013
11
2.22631
21
2.17263
0
LINE
8
BLACK
6
CONTINUOUS
10
2.22631
20
2.17263
11
2.22635
21
2.17204
0
LINE
8
BLACK
6
CONTINUOUS
10
2.22635
20
2.17204
11
2.2264
21
2.17192
0
LINE
8
BLACK
6
CONTINUOUS
10
2.2264
20
2.17192
11
2.2264
21
2.16254
0
LINE
8
BLACK
6
CONTINUOUS
10
2.2264
20
2.16254
11
2.2263
21
2.16196
0
LINE
8
BLACK
6
CONTINUOUS
10
2.2263
20
2.16196
11
2.22631
21
2.16183
0
LINE
8
BLACK
6
CONTINUOUS
10
2.22631
20
2.16183
11
2.22444
21
2.15433
0
LINE
8
BLACK
6
CONTINUOUS
10
2.22444
20
2.15433
11
2.22423
21
2.15386
0
LINE
8
BLACK
6
CONTINUOUS
10
2.22423
20
2.15386
11
2.22421
21
2.15372
0
LINE
8
BLACK
6
CONTINUOUS
10
2.22421
20
2.15372
11
2.22234
21
2.14997
0
LINE
8
BLACK
6
CONTINUOUS
10
2.22234
20
2.14997
11
2.22181
21
2.14926
0
LINE
8
BLACK
6
CONTINUOUS
10
2.22181
20
2.14926
11
2.22178
21
2.14921
0
LINE
8
BLACK
6
CONTINUOUS
10
2.22178
20
2.14921
11
2.21991
21
2.14733
0
LINE
8
BLACK
6
CONTINUOUS
10
2.21991
20
2.14733
11
2.21919
21
2.14682
0
LINE
8
BLACK
6
CONTINUOUS
10
2.21919
20
2.14682
11
2.21914
21
2.14678
0
LINE
8
BLACK
6
CONTINUOUS
10
2.21914
20
2.14678
11
2.21539
21
2.1449
0
LINE
8
BLACK
6
CONTINUOUS
10
2.21539
20
2.1449
11
2.21441
21
2.14461
0
LINE
8
BLACK
6
CONTINUOUS
10
2.21441
20
2.14461
11
2.21424
21
2.14465
0
LINE
8
BLACK
6
CONTINUOUS
10
2.21424
20
2.14465
11
2.21407
21
2.14459
0
LINE
8
BLACK
6
CONTINUOUS
10
2.21407
20
2.14459
11
2.21032
21
2.14459
0
LINE
8
BLACK
6
CONTINUOUS
10
2.21032
20
2.14459
11
2.20931
21
2.14477
0
LINE
8
BLACK
6
CONTINUOUS
10
2.20931
20
2.14477
11
2.20918
21
2.14488
0
LINE
8
BLACK
6
CONTINUOUS
10
2.20918
20
2.14488
11
2.209
21
2.1449
0
LINE
8
BLACK
6
CONTINUOUS
10
2.209
20
2.1449
11
2.20525
21
2.14678
0
LINE
8
BLACK
6
CONTINUOUS
10
2.20525
20
2.14678
11
2.20454
21
2.1473
0
LINE
8
BLACK
6
CONTINUOUS
10
2.20454
20
2.1473
11
2.20449
21
2.14733
0
LINE
8
BLACK
6
CONTINUOUS
10
2.20449
20
2.14733
11
2.20261
21
2.14921
0
LINE
8
BLACK
6
CONTINUOUS
10
2.20261
20
2.14921
11
2.2021
21
2.14993
0
LINE
8
BLACK
6
CONTINUOUS
10
2.2021
20
2.14993
11
2.20206
21
2.14997
0
LINE
8
BLACK
6
CONTINUOUS
10
2.20206
20
2.14997
11
2.20018
21
2.15372
0
LINE
8
BLACK
6
CONTINUOUS
10
2.20018
20
2.15372
11
2.20004
21
2.15421
0
LINE
8
BLACK
6
CONTINUOUS
10
2.20004
20
2.15421
11
2.19996
21
2.15433
0
LINE
8
BLACK
6
CONTINUOUS
10
2.19996
20
2.15433
11
2.19808
21
2.16183
0
LINE
8
BLACK
6
CONTINUOUS
10
2.19808
20
2.16183
11
2.19804
21
2.16241
0
LINE
8
BLACK
6
CONTINUOUS
10
2.19804
20
2.16241
11
2.198
21
2.16254
0
LINE
8
BLACK
6
CONTINUOUS
10
2.198
20
2.16254
11
2.198
21
2.17192
0
LINE
8
BLACK
6
CONTINUOUS
10
2.198
20
2.17192
11
2.1981
21
2.1725
0
LINE
8
BLACK
6
CONTINUOUS
10
2.1981
20
2.1725
11
2.19808
21
2.17263
0
LINE
8
BLACK
6
CONTINUOUS
10
2.19808
20
2.17263
11
2.19996
21
2.18013
0
LINE
8
BLACK
6
CONTINUOUS
10
2.19996
20
2.18013
11
2.20017
21
2.1806
0
LINE
8
BLACK
6
CONTINUOUS
10
2.20017
20
2.1806
11
2.20018
21
2.18074
0
LINE
8
BLACK
6
CONTINUOUS
10
2.20018
20
2.18074
11
2.20206
21
2.18449
0
LINE
8
BLACK
6
CONTINUOUS
10
2.20206
20
2.18449
11
2.20258
21
2.18519
0
LINE
8
BLACK
6
CONTINUOUS
10
2.20258
20
2.18519
11
2.20261
21
2.18525
0
LINE
8
BLACK
6
CONTINUOUS
10
2.20261
20
2.18525
11
2.20448
21
2.18713
0
LINE
8
BLACK
6
CONTINUOUS
10
2.20448
20
2.18713
11
2.20521
21
2.18763
0
LINE
8
BLACK
6
CONTINUOUS
10
2.20521
20
2.18763
11
2.20525
21
2.18768
0
LINE
8
BLACK
6
CONTINUOUS
10
2.20525
20
2.18768
11
2.209
21
2.18956
0
LINE
8
BLACK
6
CONTINUOUS
10
2.209
20
2.18956
11
2.20998
21
2.18985
0
LINE
8
BLACK
6
CONTINUOUS
10
2.20998
20
2.18985
11
2.21016
21
2.18981
0
LINE
8
BLACK
6
CONTINUOUS
10
2.21016
20
2.18981
11
2.21032
21
2.18987
0
LINE
8
BLACK
6
CONTINUOUS
10
2.21032
20
2.18987
11
2.21407
21
2.18987
0
LINE
8
BLACK
6
CONTINUOUS
10
2.21407
20
2.18987
11
2.21508
21
2.18969
0
LINE
8
BLACK
6
CONTINUOUS
10
2.21102
20
2.18396
11
2.20832
21
2.18261
0
LINE
8
BLACK
6
CONTINUOUS
10
2.20832
20
2.18261
11
2.20712
21
2.18142
0
LINE
8
BLACK
6
CONTINUOUS
10
2.20712
20
2.18142
11
2.20561
21
2.17838
0
LINE
8
BLACK
6
CONTINUOUS
10
2.20561
20
2.17838
11
2.2039
21
2.17155
0
LINE
8
BLACK
6
CONTINUOUS
10
2.2039
20
2.17155
11
2.2039
21
2.16291
0
LINE
8
BLACK
6
CONTINUOUS
10
2.2039
20
2.16291
11
2.20561
21
2.15607
0
LINE
8
BLACK
6
CONTINUOUS
10
2.20561
20
2.15607
11
2.20712
21
2.15304
0
LINE
8
BLACK
6
CONTINUOUS
10
2.20712
20
2.15304
11
2.20832
21
2.15185
0
LINE
8
BLACK
6
CONTINUOUS
10
2.20832
20
2.15185
11
2.21102
21
2.1505
0
LINE
8
BLACK
6
CONTINUOUS
10
2.21102
20
2.1505
11
2.21337
21
2.1505
0
LINE
8
BLACK
6
CONTINUOUS
10
2.21337
20
2.1505
11
2.21607
21
2.15185
0
LINE
8
BLACK
6
CONTINUOUS
10
2.21607
20
2.15185
11
2.21727
21
2.15304
0
LINE
8
BLACK
6
CONTINUOUS
10
2.21727
20
2.15304
11
2.21879
21
2.15607
0
LINE
8
BLACK
6
CONTINUOUS
10
2.21879
20
2.15607
11
2.22049
21
2.16291
0
LINE
8
BLACK
6
CONTINUOUS
10
2.22049
20
2.16291
11
2.22049
21
2.17155
0
LINE
8
BLACK
6
CONTINUOUS
10
2.22049
20
2.17155
11
2.21879
21
2.17838
0
LINE
8
BLACK
6
CONTINUOUS
10
2.21879
20
2.17838
11
2.21727
21
2.18142
0
LINE
8
BLACK
6
CONTINUOUS
10
2.21727
20
2.18142
11
2.21607
21
2.18261
0
LINE
8
BLACK
6
CONTINUOUS
10
2.21607
20
2.18261
11
2.21337
21
2.18396
0
LINE
8
BLACK
6
CONTINUOUS
10
2.21337
20
2.18396
11
2.21102
21
2.18396
0
LINE
8
BLACK
6
CONTINUOUS
10
2.09822
20
2.1898
11
2.09835
21
2.18982
0
LINE
8
BLACK
6
CONTINUOUS
10
2.09835
20
2.18982
11
2.09846
21
2.18976
0
LINE
8
BLACK
6
CONTINUOUS
10
2.09846
20
2.18976
11
2.09885
21
2.18969
0
LINE
8
BLACK
6
CONTINUOUS
10
2.09885
20
2.18969
11
2.09943
21
2.1892
0
LINE
8
BLACK
6
CONTINUOUS
10
2.09943
20
2.1892
11
2.1001
21
2.18881
0
LINE
8
BLACK
6
CONTINUOUS
10
2.1001
20
2.18881
11
2.10019
21
2.18856
0
LINE
8
BLACK
6
CONTINUOUS
10
2.10019
20
2.18856
11
2.10039
21
2.18839
0
LINE
8
BLACK
6
CONTINUOUS
10
2.10039
20
2.18839
11
2.10053
21
2.18763
0
LINE
8
BLACK
6
CONTINUOUS
10
2.10053
20
2.18763
11
2.10079
21
2.18691
0
LINE
8
BLACK
6
CONTINUOUS
10
2.10079
20
2.18691
11
2.10079
21
2.14754
0
LINE
8
BLACK
6
CONTINUOUS
10
2.10079
20
2.14754
11
2.10061
21
2.14653
0
LINE
8
BLACK
6
CONTINUOUS
10
2.10061
20
2.14653
11
2.09931
21
2.14499
0
LINE
8
BLACK
6
CONTINUOUS
10
2.09931
20
2.14499
11
2.09732
21
2.14464
0
LINE
8
BLACK
6
CONTINUOUS
10
2.09732
20
2.14464
11
2.09557
21
2.14565
0
LINE
8
BLACK
6
CONTINUOUS
10
2.09557
20
2.14565
11
2.09488
21
2.14754
0
LINE
8
BLACK
6
CONTINUOUS
10
2.09488
20
2.14754
11
2.09488
21
2.16521
0
LINE
8
BLACK
6
CONTINUOUS
10
2.09488
20
2.16521
11
2.08471
21
2.16521
0
LINE
8
BLACK
6
CONTINUOUS
10
2.08471
20
2.16521
11
2.0837
21
2.16539
0
LINE
8
BLACK
6
CONTINUOUS
10
2.0837
20
2.16539
11
2.08216
21
2.16669
0
LINE
8
BLACK
6
CONTINUOUS
10
2.08216
20
2.16669
11
2.08181
21
2.16868
0
LINE
8
BLACK
6
CONTINUOUS
10
2.08181
20
2.16868
11
2.08282
21
2.17043
0
LINE
8
BLACK
6
CONTINUOUS
10
2.08282
20
2.17043
11
2.08471
21
2.17112
0
LINE
8
BLACK
6
CONTINUOUS
10
2.08471
20
2.17112
11
2.09488
21
2.17112
0
LINE
8
BLACK
6
CONTINUOUS
10
2.09488
20
2.17112
11
2.09488
21
2.18396
0
LINE
8
BLACK
6
CONTINUOUS
10
2.09488
20
2.18396
11
2.07909
21
2.18396
0
LINE
8
BLACK
6
CONTINUOUS
10
2.07909
20
2.18396
11
2.07808
21
2.18414
0
LINE
8
BLACK
6
CONTINUOUS
10
2.07808
20
2.18414
11
2.07653
21
2.18544
0
LINE
8
BLACK
6
CONTINUOUS
10
2.07653
20
2.18544
11
2.07618
21
2.18743
0
LINE
8
BLACK
6
CONTINUOUS
10
2.07618
20
2.18743
11
2.07719
21
2.18918
0
LINE
8
BLACK
6
CONTINUOUS
10
2.07719
20
2.18918
11
2.07909
21
2.18987
0
LINE
8
BLACK
6
CONTINUOUS
10
2.07909
20
2.18987
11
2.09784
21
2.18987
0
LINE
8
BLACK
6
CONTINUOUS
10
2.09784
20
2.18987
11
2.09822
21
2.1898
0
LINE
8
BLACK
6
CONTINUOUS
10
2.45792
20
2.18975
11
2.4583
21
2.18982
0
LINE
8
BLACK
6
CONTINUOUS
10
2.4583
20
2.18982
11
2.45886
21
2.1895
0
LINE
8
BLACK
6
CONTINUOUS
10
2.45886
20
2.1895
11
2.45949
21
2.18933
0
LINE
8
BLACK
6
CONTINUOUS
10
2.45949
20
2.18933
11
2.45971
21
2.18901
0
LINE
8
BLACK
6
CONTINUOUS
10
2.45971
20
2.18901
11
2.46005
21
2.18881
0
LINE
8
BLACK
6
CONTINUOUS
10
2.46005
20
2.18881
11
2.46027
21
2.18821
0
LINE
8
BLACK
6
CONTINUOUS
10
2.46027
20
2.18821
11
2.46064
21
2.18768
0
LINE
8
BLACK
6
CONTINUOUS
10
2.46064
20
2.18768
11
2.46061
21
2.18728
0
LINE
8
BLACK
6
CONTINUOUS
10
2.46061
20
2.18728
11
2.46074
21
2.18691
0
LINE
8
BLACK
6
CONTINUOUS
10
2.46074
20
2.18691
11
2.46074
21
2.14754
0
LINE
8
BLACK
6
CONTINUOUS
10
2.46074
20
2.14754
11
2.46057
21
2.14653
0
LINE
8
BLACK
6
CONTINUOUS
10
2.46057
20
2.14653
11
2.45927
21
2.14499
0
LINE
8
BLACK
6
CONTINUOUS
10
2.45927
20
2.14499
11
2.45728
21
2.14464
0
LINE
8
BLACK
6
CONTINUOUS
10
2.45728
20
2.14464
11
2.45553
21
2.14565
0
LINE
8
BLACK
6
CONTINUOUS
10
2.45553
20
2.14565
11
2.45484
21
2.14754
0
LINE
8
BLACK
6
CONTINUOUS
10
2.45484
20
2.14754
11
2.45484
21
2.1736
0
LINE
8
BLACK
6
CONTINUOUS
10
2.45484
20
2.1736
11
2.44734
21
2.15754
0
LINE
8
BLACK
6
CONTINUOUS
10
2.44734
20
2.15754
11
2.44712
21
2.15723
0
LINE
8
BLACK
6
CONTINUOUS
10
2.44712
20
2.15723
11
2.44709
21
2.1571
0
LINE
8
BLACK
6
CONTINUOUS
10
2.44709
20
2.1571
11
2.44698
21
2.15702
0
LINE
8
BLACK
6
CONTINUOUS
10
2.44698
20
2.15702
11
2.44676
21
2.1567
0
LINE
8
BLACK
6
CONTINUOUS
10
2.44676
20
2.1567
11
2.44606
21
2.15638
0
LINE
8
BLACK
6
CONTINUOUS
10
2.44606
20
2.15638
11
2.44543
21
2.15594
0
LINE
8
BLACK
6
CONTINUOUS
10
2.44543
20
2.15594
11
2.44517
21
2.15596
0
LINE
8
BLACK
6
CONTINUOUS
10
2.44517
20
2.15596
11
2.44492
21
2.15585
0
LINE
8
BLACK
6
CONTINUOUS
10
2.44492
20
2.15585
11
2.44418
21
2.15605
0
LINE
8
BLACK
6
CONTINUOUS
10
2.44418
20
2.15605
11
2.44342
21
2.15612
0
LINE
8
BLACK
6
CONTINUOUS
10
2.44342
20
2.15612
11
2.44323
21
2.15631
0
LINE
8
BLACK
6
CONTINUOUS
10
2.44323
20
2.15631
11
2.44297
21
2.15637
0
LINE
8
BLACK
6
CONTINUOUS
10
2.44297
20
2.15637
11
2.44253
21
2.157
0
LINE
8
BLACK
6
CONTINUOUS
10
2.44253
20
2.157
11
2.44199
21
2.15754
0
LINE
8
BLACK
6
CONTINUOUS
10
2.44199
20
2.15754
11
2.4345
21
2.1736
0
LINE
8
BLACK
6
CONTINUOUS
10
2.4345
20
2.1736
11
2.4345
21
2.14754
0
LINE
8
BLACK
6
CONTINUOUS
10
2.4345
20
2.14754
11
2.43432
21
2.14653
0
LINE
8
BLACK
6
CONTINUOUS
10
2.43432
20
2.14653
11
2.43302
21
2.14499
0
LINE
8
BLACK
6
CONTINUOUS
10
2.43302
20
2.14499
11
2.43103
21
2.14464
0
LINE
8
BLACK
6
CONTINUOUS
10
2.43103
20
2.14464
11
2.42928
21
2.14565
0
LINE
8
BLACK
6
CONTINUOUS
10
2.42928
20
2.14565
11
2.42859
21
2.14754
0
LINE
8
BLACK
6
CONTINUOUS
10
2.42859
20
2.14754
11
2.42859
21
2.18691
0
LINE
8
BLACK
6
CONTINUOUS
10
2.42859
20
2.18691
11
2.42877
21
2.18792
0
LINE
8
BLACK
6
CONTINUOUS
10
2.42877
20
2.18792
11
2.42902
21
2.18823
0
LINE
8
BLACK
6
CONTINUOUS
10
2.42902
20
2.18823
11
2.42913
21
2.18861
0
LINE
8
BLACK
6
CONTINUOUS
10
2.42913
20
2.18861
11
2.42965
21
2.18898
0
LINE
8
BLACK
6
CONTINUOUS
10
2.42965
20
2.18898
11
2.43007
21
2.18947
0
LINE
8
BLACK
6
CONTINUOUS
10
2.43007
20
2.18947
11
2.43046
21
2.18954
0
LINE
8
BLACK
6
CONTINUOUS
10
2.43046
20
2.18954
11
2.43078
21
2.18977
0
LINE
8
BLACK
6
CONTINUOUS
10
2.43078
20
2.18977
11
2.43142
21
2.18971
0
LINE
8
BLACK
6
CONTINUOUS
10
2.43142
20
2.18971
11
2.43206
21
2.18982
0
LINE
8
BLACK
6
CONTINUOUS
10
2.43206
20
2.18982
11
2.4324
21
2.18962
0
LINE
8
BLACK
6
CONTINUOUS
10
2.4324
20
2.18962
11
2.43279
21
2.18959
0
LINE
8
BLACK
6
CONTINUOUS
10
2.43279
20
2.18959
11
2.43325
21
2.18913
0
LINE
8
BLACK
6
CONTINUOUS
10
2.43325
20
2.18913
11
2.43381
21
2.18881
0
LINE
8
BLACK
6
CONTINUOUS
10
2.43381
20
2.18881
11
2.43394
21
2.18844
0
LINE
8
BLACK
6
CONTINUOUS
10
2.43394
20
2.18844
11
2.43422
21
2.18816
0
LINE
8
BLACK
6
CONTINUOUS
10
2.43422
20
2.18816
11
2.44467
21
2.16578
0
LINE
8
BLACK
6
CONTINUOUS
10
2.44467
20
2.16578
11
2.45512
21
2.18816
0
LINE
8
BLACK
6
CONTINUOUS
10
2.45512
20
2.18816
11
2.4557
21
2.189
0
LINE
8
BLACK
6
CONTINUOUS
10
2.4557
20
2.189
11
2.45606
21
2.18917
0
LINE
8
BLACK
6
CONTINUOUS
10
2.45606
20
2.18917
11
2.45632
21
2.18947
0
LINE
8
BLACK
6
CONTINUOUS
10
2.45632
20
2.18947
11
2.45695
21
2.18958
0
LINE
8
BLACK
6
CONTINUOUS
10
2.45695
20
2.18958
11
2.45754
21
2.18986
0
LINE
8
BLACK
6
CONTINUOUS
10
2.45754
20
2.18986
11
2.45792
21
2.18975
0
LINE
8
BLACK
6
CONTINUOUS
10
2.41506
20
2.18881
11
2.41575
21
2.18691
0
LINE
8
BLACK
6
CONTINUOUS
10
2.41575
20
2.18691
11
2.41575
21
2.14754
0
LINE
8
BLACK
6
CONTINUOUS
10
2.41575
20
2.14754
11
2.41557
21
2.14653
0
LINE
8
BLACK
6
CONTINUOUS
10
2.41557
20
2.14653
11
2.41427
21
2.14499
0
LINE
8
BLACK
6
CONTINUOUS
10
2.41427
20
2.14499
11
2.41228
21
2.14464
0
LINE
8
BLACK
6
CONTINUOUS
10
2.41228
20
2.14464
11
2.41054
21
2.14565
0
LINE
8
BLACK
6
CONTINUOUS
10
2.41054
20
2.14565
11
2.40984
21
2.14754
0
LINE
8
BLACK
6
CONTINUOUS
10
2.40984
20
2.14754
11
2.40984
21
2.18691
0
LINE
8
BLACK
6
CONTINUOUS
10
2.40984
20
2.18691
11
2.41002
21
2.18792
0
LINE
8
BLACK
6
CONTINUOUS
10
2.41002
20
2.18792
11
2.41132
21
2.18947
0
LINE
8
BLACK
6
CONTINUOUS
10
2.41132
20
2.18947
11
2.41331
21
2.18982
0
LINE
8
BLACK
6
CONTINUOUS
10
2.41331
20
2.18982
11
2.41506
21
2.18881
0
LINE
8
BLACK
6
CONTINUOUS
10
2.17812
20
2.1913
11
2.17938
21
2.18972
0
LINE
8
BLACK
6
CONTINUOUS
10
2.17938
20
2.18972
11
2.18875
21
2.1616
0
LINE
8
BLACK
6
CONTINUOUS
10
2.18875
20
2.1616
11
2.1889
21
2.16059
0
LINE
8
BLACK
6
CONTINUOUS
10
2.1889
20
2.16059
11
2.18882
21
2.16038
0
LINE
8
BLACK
6
CONTINUOUS
10
2.18882
20
2.16038
11
2.18886
21
2.16015
0
LINE
8
BLACK
6
CONTINUOUS
10
2.18886
20
2.16015
11
2.18846
21
2.15946
0
LINE
8
BLACK
6
CONTINUOUS
10
2.18846
20
2.15946
11
2.18816
21
2.15871
0
LINE
8
BLACK
6
CONTINUOUS
10
2.18816
20
2.15871
11
2.18796
21
2.1586
0
LINE
8
BLACK
6
CONTINUOUS
10
2.18796
20
2.1586
11
2.18785
21
2.15841
0
LINE
8
BLACK
6
CONTINUOUS
10
2.18785
20
2.15841
11
2.18709
21
2.15813
0
LINE
8
BLACK
6
CONTINUOUS
10
2.18709
20
2.15813
11
2.18638
21
2.15775
0
LINE
8
BLACK
6
CONTINUOUS
10
2.18638
20
2.15775
11
2.18616
21
2.15779
0
LINE
8
BLACK
6
CONTINUOUS
10
2.18616
20
2.15779
11
2.18595
21
2.15771
0
LINE
8
BLACK
6
CONTINUOUS
10
2.18595
20
2.15771
11
2.17016
21
2.15771
0
LINE
8
BLACK
6
CONTINUOUS
10
2.17016
20
2.15771
11
2.17016
21
2.14754
0
LINE
8
BLACK
6
CONTINUOUS
10
2.17016
20
2.14754
11
2.16998
21
2.14653
0
LINE
8
BLACK
6
CONTINUOUS
10
2.16998
20
2.14653
11
2.16868
21
2.14499
0
LINE
8
BLACK
6
CONTINUOUS
10
2.16868
20
2.14499
11
2.16669
21
2.14464
0
LINE
8
BLACK
6
CONTINUOUS
10
2.16669
20
2.14464
11
2.16494
21
2.14565
0
LINE
8
BLACK
6
CONTINUOUS
10
2.16494
20
2.14565
11
2.16425
21
2.14754
0
LINE
8
BLACK
6
CONTINUOUS
10
2.16425
20
2.14754
11
2.16425
21
2.15771
0
LINE
8
BLACK
6
CONTINUOUS
10
2.16425
20
2.15771
11
2.16158
21
2.15771
0
LINE
8
BLACK
6
CONTINUOUS
10
2.16158
20
2.15771
11
2.16057
21
2.15789
0
LINE
8
BLACK
6
CONTINUOUS
10
2.16057
20
2.15789
11
2.15902
21
2.15919
0
LINE
8
BLACK
6
CONTINUOUS
10
2.15902
20
2.15919
11
2.15867
21
2.16118
0
LINE
8
BLACK
6
CONTINUOUS
10
2.15867
20
2.16118
11
2.15968
21
2.16293
0
LINE
8
BLACK
6
CONTINUOUS
10
2.15968
20
2.16293
11
2.16158
21
2.16362
0
LINE
8
BLACK
6
CONTINUOUS
10
2.16158
20
2.16362
11
2.16425
21
2.16362
0
LINE
8
BLACK
6
CONTINUOUS
10
2.16425
20
2.16362
11
2.16425
21
2.17379
0
LINE
8
BLACK
6
CONTINUOUS
10
2.16425
20
2.17379
11
2.16443
21
2.1748
0
LINE
8
BLACK
6
CONTINUOUS
10
2.16443
20
2.1748
11
2.16573
21
2.17635
0
LINE
8
BLACK
6
CONTINUOUS
10
2.16573
20
2.17635
11
2.16772
21
2.1767
0
LINE
8
BLACK
6
CONTINUOUS
10
2.16772
20
2.1767
11
2.16946
21
2.17569
0
LINE
8
BLACK
6
CONTINUOUS
10
2.16946
20
2.17569
11
2.17016
21
2.17379
0
LINE
8
BLACK
6
CONTINUOUS
10
2.17016
20
2.17379
11
2.17016
21
2.16362
0
LINE
8
BLACK
6
CONTINUOUS
10
2.17016
20
2.16362
11
2.18185
21
2.16362
0
LINE
8
BLACK
6
CONTINUOUS
10
2.18185
20
2.16362
11
2.17378
21
2.18786
0
LINE
8
BLACK
6
CONTINUOUS
10
2.17378
20
2.18786
11
2.17362
21
2.18887
0
LINE
8
BLACK
6
CONTINUOUS
10
2.17362
20
2.18887
11
2.17437
21
2.19075
0
LINE
8
BLACK
6
CONTINUOUS
10
2.17437
20
2.19075
11
2.17614
21
2.19171
0
LINE
8
BLACK
6
CONTINUOUS
10
2.17614
20
2.19171
11
2.17812
21
2.1913
0
LINE
8
BLACK
6
CONTINUOUS
10
2.39506
20
2.16532
11
2.39661
21
2.16402
0
LINE
8
BLACK
6
CONTINUOUS
10
2.39661
20
2.16402
11
2.39696
21
2.16203
0
LINE
8
BLACK
6
CONTINUOUS
10
2.39696
20
2.16203
11
2.39595
21
2.16028
0
LINE
8
BLACK
6
CONTINUOUS
10
2.39595
20
2.16028
11
2.39405
21
2.15959
0
LINE
8
BLACK
6
CONTINUOUS
10
2.39405
20
2.15959
11
2.36405
21
2.15959
0
LINE
8
BLACK
6
CONTINUOUS
10
2.36405
20
2.15959
11
2.36304
21
2.15977
0
LINE
8
BLACK
6
CONTINUOUS
10
2.36304
20
2.15977
11
2.3615
21
2.16107
0
LINE
8
BLACK
6
CONTINUOUS
10
2.3615
20
2.16107
11
2.36115
21
2.16305
0
LINE
8
BLACK
6
CONTINUOUS
10
2.36115
20
2.16305
11
2.36216
21
2.1648
0
LINE
8
BLACK
6
CONTINUOUS
10
2.36216
20
2.1648
11
2.36405
21
2.16549
0
LINE
8
BLACK
6
CONTINUOUS
10
2.36405
20
2.16549
11
2.39405
21
2.16549
0
LINE
8
BLACK
6
CONTINUOUS
10
2.39405
20
2.16549
11
2.39506
21
2.16532
0
LINE
8
BLACK
6
CONTINUOUS
10
2.30882
20
2.16532
11
2.31037
21
2.16402
0
LINE
8
BLACK
6
CONTINUOUS
10
2.31037
20
2.16402
11
2.31072
21
2.16203
0
LINE
8
BLACK
6
CONTINUOUS
10
2.31072
20
2.16203
11
2.30971
21
2.16028
0
LINE
8
BLACK
6
CONTINUOUS
10
2.30971
20
2.16028
11
2.30781
21
2.15959
0
LINE
8
BLACK
6
CONTINUOUS
10
2.30781
20
2.15959
11
2.27781
21
2.15959
0
LINE
8
BLACK
6
CONTINUOUS
10
2.27781
20
2.15959
11
2.2768
21
2.15977
0
LINE
8
BLACK
6
CONTINUOUS
10
2.2768
20
2.15977
11
2.27526
21
2.16107
0
LINE
8
BLACK
6
CONTINUOUS
10
2.27526
20
2.16107
11
2.27491
21
2.16305
0
LINE
8
BLACK
6
CONTINUOUS
10
2.27491
20
2.16305
11
2.27592
21
2.1648
0
LINE
8
BLACK
6
CONTINUOUS
10
2.27592
20
2.1648
11
2.27781
21
2.16549
0
LINE
8
BLACK
6
CONTINUOUS
10
2.27781
20
2.16549
11
2.30781
21
2.16549
0
LINE
8
BLACK
6
CONTINUOUS
10
2.30781
20
2.16549
11
2.30882
21
2.16532
0
LINE
8
BLACK
6
CONTINUOUS
10
2.14759
20
2.16532
11
2.14914
21
2.16402
0
LINE
8
BLACK
6
CONTINUOUS
10
2.14914
20
2.16402
11
2.14949
21
2.16203
0
LINE
8
BLACK
6
CONTINUOUS
10
2.14949
20
2.16203
11
2.14848
21
2.16028
0
LINE
8
BLACK
6
CONTINUOUS
10
2.14848
20
2.16028
11
2.14658
21
2.15959
0
LINE
8
BLACK
6
CONTINUOUS
10
2.14658
20
2.15959
11
2.11658
21
2.15959
0
LINE
8
BLACK
6
CONTINUOUS
10
2.11658
20
2.15959
11
2.11557
21
2.15977
0
LINE
8
BLACK
6
CONTINUOUS
10
2.11557
20
2.15977
11
2.11403
21
2.16107
0
LINE
8
BLACK
6
CONTINUOUS
10
2.11403
20
2.16107
11
2.11368
21
2.16305
0
LINE
8
BLACK
6
CONTINUOUS
10
2.11368
20
2.16305
11
2.11469
21
2.1648
0
LINE
8
BLACK
6
CONTINUOUS
10
2.11469
20
2.1648
11
2.11658
21
2.16549
0
LINE
8
BLACK
6
CONTINUOUS
10
2.11658
20
2.16549
11
2.14658
21
2.16549
0
LINE
8
BLACK
6
CONTINUOUS
10
2.14658
20
2.16549
11
2.14759
21
2.16532
0
LINE
8
BLACK
6
CONTINUOUS
10
2.28691
20
2.26438
11
2.28708
21
2.26439
0
LINE
8
BLACK
6
CONTINUOUS
10
2.28708
20
2.26439
11
2.28777
21
2.26389
0
LINE
8
BLACK
6
CONTINUOUS
10
2.28777
20
2.26389
11
2.28851
21
2.26346
0
LINE
8
BLACK
6
CONTINUOUS
10
2.28851
20
2.26346
11
2.28857
21
2.2633
0
LINE
8
BLACK
6
CONTINUOUS
10
2.28857
20
2.2633
11
2.28871
21
2.2632
0
LINE
8
BLACK
6
CONTINUOUS
10
2.28871
20
2.2632
11
2.29229
21
2.25782
0
LINE
8
BLACK
6
CONTINUOUS
10
2.29229
20
2.25782
11
2.2955
21
2.25461
0
LINE
8
BLACK
6
CONTINUOUS
10
2.2955
20
2.25461
11
2.29882
21
2.25295
0
LINE
8
BLACK
6
CONTINUOUS
10
2.29882
20
2.25295
11
2.29964
21
2.25234
0
LINE
8
BLACK
6
CONTINUOUS
10
2.29964
20
2.25234
11
2.30045
21
2.25049
0
LINE
8
BLACK
6
CONTINUOUS
10
2.30045
20
2.25049
11
2.29987
21
2.24855
0
LINE
8
BLACK
6
CONTINUOUS
10
2.29987
20
2.24855
11
2.29819
21
2.24744
0
LINE
8
BLACK
6
CONTINUOUS
10
2.29819
20
2.24744
11
2.29618
21
2.24767
0
LINE
8
BLACK
6
CONTINUOUS
10
2.29618
20
2.24767
11
2.29243
21
2.24954
0
LINE
8
BLACK
6
CONTINUOUS
10
2.29243
20
2.24954
11
2.29172
21
2.25007
0
LINE
8
BLACK
6
CONTINUOUS
10
2.29172
20
2.25007
11
2.29166
21
2.2501
0
LINE
8
BLACK
6
CONTINUOUS
10
2.29166
20
2.2501
11
2.2892
21
2.25256
0
LINE
8
BLACK
6
CONTINUOUS
10
2.2892
20
2.25256
11
2.2892
21
2.22514
0
LINE
8
BLACK
6
CONTINUOUS
10
2.2892
20
2.22514
11
2.2975
21
2.22514
0
LINE
8
BLACK
6
CONTINUOUS
10
2.2975
20
2.22514
11
2.29851
21
2.22496
0
LINE
8
BLACK
6
CONTINUOUS
10
2.29851
20
2.22496
11
2.30006
21
2.22367
0
LINE
8
BLACK
6
CONTINUOUS
10
2.30006
20
2.22367
11
2.30041
21
2.22168
0
LINE
8
BLACK
6
CONTINUOUS
10
2.30041
20
2.22168
11
2.2994
21
2.21993
0
LINE
8
BLACK
6
CONTINUOUS
10
2.2994
20
2.21993
11
2.2975
21
2.21924
0
LINE
8
BLACK
6
CONTINUOUS
10
2.2975
20
2.21924
11
2.275
21
2.21924
0
LINE
8
BLACK
6
CONTINUOUS
10
2.275
20
2.21924
11
2.27399
21
2.21942
0
LINE
8
BLACK
6
CONTINUOUS
10
2.27399
20
2.21942
11
2.27244
21
2.22071
0
LINE
8
BLACK
6
CONTINUOUS
10
2.27244
20
2.22071
11
2.27209
21
2.2227
0
LINE
8
BLACK
6
CONTINUOUS
10
2.27209
20
2.2227
11
2.2731
21
2.22445
0
LINE
8
BLACK
6
CONTINUOUS
10
2.2731
20
2.22445
11
2.275
21
2.22514
0
LINE
8
BLACK
6
CONTINUOUS
10
2.275
20
2.22514
11
2.2833
21
2.22514
0
LINE
8
BLACK
6
CONTINUOUS
10
2.2833
20
2.22514
11
2.2833
21
2.26156
0
LINE
8
BLACK
6
CONTINUOUS
10
2.2833
20
2.26156
11
2.28348
21
2.26257
0
LINE
8
BLACK
6
CONTINUOUS
10
2.28348
20
2.26257
11
2.28358
21
2.2627
0
LINE
8
BLACK
6
CONTINUOUS
10
2.28358
20
2.2627
11
2.2836
21
2.26287
0
LINE
8
BLACK
6
CONTINUOUS
10
2.2836
20
2.26287
11
2.28422
21
2.26346
0
LINE
8
BLACK
6
CONTINUOUS
10
2.28422
20
2.26346
11
2.28477
21
2.26412
0
LINE
8
BLACK
6
CONTINUOUS
10
2.28477
20
2.26412
11
2.28494
21
2.26415
0
LINE
8
BLACK
6
CONTINUOUS
10
2.28494
20
2.26415
11
2.28506
21
2.26426
0
LINE
8
BLACK
6
CONTINUOUS
10
2.28506
20
2.26426
11
2.28592
21
2.26432
0
LINE
8
BLACK
6
CONTINUOUS
10
2.28592
20
2.26432
11
2.28676
21
2.26447
0
LINE
8
BLACK
6
CONTINUOUS
10
2.28676
20
2.26447
11
2.28691
21
2.26438
0
LINE
8
BLACK
6
CONTINUOUS
10
2.25164
20
2.26433
11
2.25178
21
2.26422
0
LINE
8
BLACK
6
CONTINUOUS
10
2.25178
20
2.26422
11
2.25195
21
2.2642
0
LINE
8
BLACK
6
CONTINUOUS
10
2.25195
20
2.2642
11
2.2557
21
2.26233
0
LINE
8
BLACK
6
CONTINUOUS
10
2.2557
20
2.26233
11
2.25641
21
2.2618
0
LINE
8
BLACK
6
CONTINUOUS
10
2.25641
20
2.2618
11
2.25647
21
2.26177
0
LINE
8
BLACK
6
CONTINUOUS
10
2.25647
20
2.26177
11
2.25834
21
2.2599
0
LINE
8
BLACK
6
CONTINUOUS
10
2.25834
20
2.2599
11
2.25885
21
2.25918
0
LINE
8
BLACK
6
CONTINUOUS
10
2.25885
20
2.25918
11
2.2589
21
2.25913
0
LINE
8
BLACK
6
CONTINUOUS
10
2.2589
20
2.25913
11
2.26077
21
2.25538
0
LINE
8
BLACK
6
CONTINUOUS
10
2.26077
20
2.25538
11
2.26092
21
2.25489
0
LINE
8
BLACK
6
CONTINUOUS
10
2.26092
20
2.25489
11
2.26099
21
2.25478
0
LINE
8
BLACK
6
CONTINUOUS
10
2.26099
20
2.25478
11
2.26287
21
2.24728
0
LINE
8
BLACK
6
CONTINUOUS
10
2.26287
20
2.24728
11
2.26291
21
2.24669
0
LINE
8
BLACK
6
CONTINUOUS
10
2.26291
20
2.24669
11
2.26296
21
2.24656
0
LINE
8
BLACK
6
CONTINUOUS
10
2.26296
20
2.24656
11
2.26296
21
2.23719
0
LINE
8
BLACK
6
CONTINUOUS
10
2.26296
20
2.23719
11
2.26285
21
2.23661
0
LINE
8
BLACK
6
CONTINUOUS
10
2.26285
20
2.23661
11
2.26287
21
2.23647
0
LINE
8
BLACK
6
CONTINUOUS
10
2.26287
20
2.23647
11
2.26099
21
2.22897
0
LINE
8
BLACK
6
CONTINUOUS
10
2.26099
20
2.22897
11
2.26079
21
2.22851
0
LINE
8
BLACK
6
CONTINUOUS
10
2.26079
20
2.22851
11
2.26077
21
2.22837
0
LINE
8
BLACK
6
CONTINUOUS
10
2.26077
20
2.22837
11
2.2589
21
2.22462
0
LINE
8
BLACK
6
CONTINUOUS
10
2.2589
20
2.22462
11
2.25837
21
2.22391
0
LINE
8
BLACK
6
CONTINUOUS
10
2.25837
20
2.22391
11
2.25834
21
2.22385
0
LINE
8
BLACK
6
CONTINUOUS
10
2.25834
20
2.22385
11
2.25647
21
2.22198
0
LINE
8
BLACK
6
CONTINUOUS
10
2.25647
20
2.22198
11
2.25574
21
2.22147
0
LINE
8
BLACK
6
CONTINUOUS
10
2.25574
20
2.22147
11
2.2557
21
2.22142
0
LINE
8
BLACK
6
CONTINUOUS
10
2.2557
20
2.22142
11
2.25195
21
2.21955
0
LINE
8
BLACK
6
CONTINUOUS
10
2.25195
20
2.21955
11
2.25097
21
2.21926
0
LINE
8
BLACK
6
CONTINUOUS
10
2.25097
20
2.21926
11
2.2508
21
2.2193
0
LINE
8
BLACK
6
CONTINUOUS
10
2.2508
20
2.2193
11
2.25063
21
2.21924
0
LINE
8
BLACK
6
CONTINUOUS
10
2.25063
20
2.21924
11
2.24688
21
2.21924
0
LINE
8
BLACK
6
CONTINUOUS
10
2.24688
20
2.21924
11
2.24587
21
2.21942
0
LINE
8
BLACK
6
CONTINUOUS
10
2.24587
20
2.21942
11
2.24574
21
2.21953
0
LINE
8
BLACK
6
CONTINUOUS
10
2.24574
20
2.21953
11
2.24556
21
2.21955
0
LINE
8
BLACK
6
CONTINUOUS
10
2.24556
20
2.21955
11
2.24181
21
2.22142
0
LINE
8
BLACK
6
CONTINUOUS
10
2.24181
20
2.22142
11
2.2411
21
2.22195
0
LINE
8
BLACK
6
CONTINUOUS
10
2.2411
20
2.22195
11
2.24104
21
2.22198
0
LINE
8
BLACK
6
CONTINUOUS
10
2.24104
20
2.22198
11
2.23917
21
2.22385
0
LINE
8
BLACK
6
CONTINUOUS
10
2.23917
20
2.22385
11
2.23866
21
2.22457
0
LINE
8
BLACK
6
CONTINUOUS
10
2.23866
20
2.22457
11
2.23862
21
2.22462
0
LINE
8
BLACK
6
CONTINUOUS
10
2.23862
20
2.22462
11
2.23674
21
2.22837
0
LINE
8
BLACK
6
CONTINUOUS
10
2.23674
20
2.22837
11
2.23659
21
2.22886
0
LINE
8
BLACK
6
CONTINUOUS
10
2.23659
20
2.22886
11
2.23652
21
2.22897
0
LINE
8
BLACK
6
CONTINUOUS
10
2.23652
20
2.22897
11
2.23464
21
2.23647
0
LINE
8
BLACK
6
CONTINUOUS
10
2.23464
20
2.23647
11
2.2346
21
2.23706
0
LINE
8
BLACK
6
CONTINUOUS
10
2.2346
20
2.23706
11
2.23455
21
2.23719
0
LINE
8
BLACK
6
CONTINUOUS
10
2.23455
20
2.23719
11
2.23455
21
2.24656
0
LINE
8
BLACK
6
CONTINUOUS
10
2.23455
20
2.24656
11
2.23466
21
2.24714
0
LINE
8
BLACK
6
CONTINUOUS
10
2.23466
20
2.24714
11
2.23464
21
2.24728
0
LINE
8
BLACK
6
CONTINUOUS
10
2.23464
20
2.24728
11
2.23652
21
2.25478
0
LINE
8
BLACK
6
CONTINUOUS
10
2.23652
20
2.25478
11
2.23672
21
2.25524
0
LINE
8
BLACK
6
CONTINUOUS
10
2.23672
20
2.25524
11
2.23674
21
2.25538
0
LINE
8
BLACK
6
CONTINUOUS
10
2.23674
20
2.25538
11
2.23862
21
2.25913
0
LINE
8
BLACK
6
CONTINUOUS
10
2.23862
20
2.25913
11
2.23914
21
2.25984
0
LINE
8
BLACK
6
CONTINUOUS
10
2.23914
20
2.25984
11
2.23917
21
2.2599
0
LINE
8
BLACK
6
CONTINUOUS
10
2.23917
20
2.2599
11
2.24104
21
2.26177
0
LINE
8
BLACK
6
CONTINUOUS
10
2.24104
20
2.26177
11
2.24177
21
2.26228
0
LINE
8
BLACK
6
CONTINUOUS
10
2.24177
20
2.26228
11
2.24181
21
2.26233
0
LINE
8
BLACK
6
CONTINUOUS
10
2.24181
20
2.26233
11
2.24556
21
2.2642
0
LINE
8
BLACK
6
CONTINUOUS
10
2.24556
20
2.2642
11
2.24654
21
2.26449
0
LINE
8
BLACK
6
CONTINUOUS
10
2.24654
20
2.26449
11
2.24671
21
2.26445
0
LINE
8
BLACK
6
CONTINUOUS
10
2.24671
20
2.26445
11
2.24688
21
2.26451
0
LINE
8
BLACK
6
CONTINUOUS
10
2.24688
20
2.26451
11
2.25063
21
2.26451
0
LINE
8
BLACK
6
CONTINUOUS
10
2.25063
20
2.26451
11
2.25164
21
2.26433
0
LINE
8
BLACK
6
CONTINUOUS
10
2.24758
20
2.25861
11
2.24488
21
2.25726
0
LINE
8
BLACK
6
CONTINUOUS
10
2.24488
20
2.25726
11
2.24368
21
2.25606
0
LINE
8
BLACK
6
CONTINUOUS
10
2.24368
20
2.25606
11
2.24217
21
2.25303
0
LINE
8
BLACK
6
CONTINUOUS
10
2.24217
20
2.25303
11
2.24046
21
2.2462
0
LINE
8
BLACK
6
CONTINUOUS
10
2.24046
20
2.2462
11
2.24046
21
2.23755
0
LINE
8
BLACK
6
CONTINUOUS
10
2.24046
20
2.23755
11
2.24217
21
2.23072
0
LINE
8
BLACK
6
CONTINUOUS
10
2.24217
20
2.23072
11
2.24368
21
2.22769
0
LINE
8
BLACK
6
CONTINUOUS
10
2.24368
20
2.22769
11
2.24488
21
2.22649
0
LINE
8
BLACK
6
CONTINUOUS
10
2.24488
20
2.22649
11
2.24758
21
2.22514
0
LINE
8
BLACK
6
CONTINUOUS
10
2.24758
20
2.22514
11
2.24993
21
2.22514
0
LINE
8
BLACK
6
CONTINUOUS
10
2.24993
20
2.22514
11
2.25263
21
2.22649
0
LINE
8
BLACK
6
CONTINUOUS
10
2.25263
20
2.22649
11
2.25383
21
2.22769
0
LINE
8
BLACK
6
CONTINUOUS
10
2.25383
20
2.22769
11
2.25534
21
2.23072
0
LINE
8
BLACK
6
CONTINUOUS
10
2.25534
20
2.23072
11
2.25705
21
2.23755
0
LINE
8
BLACK
6
CONTINUOUS
10
2.25705
20
2.23755
11
2.25705
21
2.2462
0
LINE
8
BLACK
6
CONTINUOUS
10
2.25705
20
2.2462
11
2.25534
21
2.25303
0
LINE
8
BLACK
6
CONTINUOUS
10
2.25534
20
2.25303
11
2.25383
21
2.25606
0
LINE
8
BLACK
6
CONTINUOUS
10
2.25383
20
2.25606
11
2.25263
21
2.25726
0
LINE
8
BLACK
6
CONTINUOUS
10
2.25263
20
2.25726
11
2.24993
21
2.25861
0
LINE
8
BLACK
6
CONTINUOUS
10
2.24993
20
2.25861
11
2.24758
21
2.25861
0
LINE
8
BLACK
6
CONTINUOUS
10
2.34074
20
2.2644
11
2.34113
21
2.26447
0
LINE
8
BLACK
6
CONTINUOUS
10
2.34113
20
2.26447
11
2.34169
21
2.26415
0
LINE
8
BLACK
6
CONTINUOUS
10
2.34169
20
2.26415
11
2.34231
21
2.26398
0
LINE
8
BLACK
6
CONTINUOUS
10
2.34231
20
2.26398
11
2.34254
21
2.26365
0
LINE
8
BLACK
6
CONTINUOUS
10
2.34254
20
2.26365
11
2.34288
21
2.26346
0
LINE
8
BLACK
6
CONTINUOUS
10
2.34288
20
2.26346
11
2.3431
21
2.26285
0
LINE
8
BLACK
6
CONTINUOUS
10
2.3431
20
2.26285
11
2.34347
21
2.26232
0
LINE
8
BLACK
6
CONTINUOUS
10
2.34347
20
2.26232
11
2.34344
21
2.26193
0
LINE
8
BLACK
6
CONTINUOUS
10
2.34344
20
2.26193
11
2.34357
21
2.26156
0
LINE
8
BLACK
6
CONTINUOUS
10
2.34357
20
2.26156
11
2.34357
21
2.22219
0
LINE
8
BLACK
6
CONTINUOUS
10
2.34357
20
2.22219
11
2.34339
21
2.22118
0
LINE
8
BLACK
6
CONTINUOUS
10
2.34339
20
2.22118
11
2.3421
21
2.21963
0
LINE
8
BLACK
6
CONTINUOUS
10
2.3421
20
2.21963
11
2.34011
21
2.21928
0
LINE
8
BLACK
6
CONTINUOUS
10
2.34011
20
2.21928
11
2.33836
21
2.22029
0
LINE
8
BLACK
6
CONTINUOUS
10
2.33836
20
2.22029
11
2.33767
21
2.22219
0
LINE
8
BLACK
6
CONTINUOUS
10
2.33767
20
2.22219
11
2.33767
21
2.24825
0
LINE
8
BLACK
6
CONTINUOUS
10
2.33767
20
2.24825
11
2.33017
21
2.23219
0
LINE
8
BLACK
6
CONTINUOUS
10
2.33017
20
2.23219
11
2.32995
21
2.23187
0
LINE
8
BLACK
6
CONTINUOUS
10
2.32995
20
2.23187
11
2.32991
21
2.23175
0
LINE
8
BLACK
6
CONTINUOUS
10
2.32991
20
2.23175
11
2.32981
21
2.23167
0
LINE
8
BLACK
6
CONTINUOUS
10
2.32981
20
2.23167
11
2.32958
21
2.23135
0
LINE
8
BLACK
6
CONTINUOUS
10
2.32958
20
2.23135
11
2.32889
21
2.23103
0
LINE
8
BLACK
6
CONTINUOUS
10
2.32889
20
2.23103
11
2.32826
21
2.23059
0
LINE
8
BLACK
6
CONTINUOUS
10
2.32826
20
2.23059
11
2.32799
21
2.23061
0
LINE
8
BLACK
6
CONTINUOUS
10
2.32799
20
2.23061
11
2.32775
21
2.2305
0
LINE
8
BLACK
6
CONTINUOUS
10
2.32775
20
2.2305
11
2.32701
21
2.2307
0
LINE
8
BLACK
6
CONTINUOUS
10
2.32701
20
2.2307
11
2.32625
21
2.23076
0
LINE
8
BLACK
6
CONTINUOUS
10
2.32625
20
2.23076
11
2.32606
21
2.23095
0
LINE
8
BLACK
6
CONTINUOUS
10
2.32606
20
2.23095
11
2.3258
21
2.23102
0
LINE
8
BLACK
6
CONTINUOUS
10
2.3258
20
2.23102
11
2.32536
21
2.23165
0
LINE
8
BLACK
6
CONTINUOUS
10
2.32536
20
2.23165
11
2.32482
21
2.23219
0
LINE
8
BLACK
6
CONTINUOUS
10
2.32482
20
2.23219
11
2.31732
21
2.24825
0
LINE
8
BLACK
6
CONTINUOUS
10
2.31732
20
2.24825
11
2.31732
21
2.22219
0
LINE
8
BLACK
6
CONTINUOUS
10
2.31732
20
2.22219
11
2.31715
21
2.22118
0
LINE
8
BLACK
6
CONTINUOUS
10
2.31715
20
2.22118
11
2.31585
21
2.21963
0
LINE
8
BLACK
6
CONTINUOUS
10
2.31585
20
2.21963
11
2.31386
21
2.21928
0
LINE
8
BLACK
6
CONTINUOUS
10
2.31386
20
2.21928
11
2.31211
21
2.22029
0
LINE
8
BLACK
6
CONTINUOUS
10
2.31211
20
2.22029
11
2.31142
21
2.22219
0
LINE
8
BLACK
6
CONTINUOUS
10
2.31142
20
2.22219
11
2.31142
21
2.26156
0
LINE
8
BLACK
6
CONTINUOUS
10
2.31142
20
2.26156
11
2.3116
21
2.26257
0
LINE
8
BLACK
6
CONTINUOUS
10
2.3116
20
2.26257
11
2.31185
21
2.26287
0
LINE
8
BLACK
6
CONTINUOUS
10
2.31185
20
2.26287
11
2.31195
21
2.26325
0
LINE
8
BLACK
6
CONTINUOUS
10
2.31195
20
2.26325
11
2.31248
21
2.26362
0
LINE
8
BLACK
6
CONTINUOUS
10
2.31248
20
2.26362
11
2.3129
21
2.26412
0
LINE
8
BLACK
6
CONTINUOUS
10
2.3129
20
2.26412
11
2.31328
21
2.26419
0
LINE
8
BLACK
6
CONTINUOUS
10
2.31328
20
2.26419
11
2.31361
21
2.26441
0
LINE
8
BLACK
6
CONTINUOUS
10
2.31361
20
2.26441
11
2.31425
21
2.26436
0
LINE
8
BLACK
6
CONTINUOUS
10
2.31425
20
2.26436
11
2.31488
21
2.26447
0
LINE
8
BLACK
6
CONTINUOUS
10
2.31488
20
2.26447
11
2.31523
21
2.26427
0
LINE
8
BLACK
6
CONTINUOUS
10
2.31523
20
2.26427
11
2.31562
21
2.26424
0
LINE
8
BLACK
6
CONTINUOUS
10
2.31562
20
2.26424
11
2.31608
21
2.26378
0
LINE
8
BLACK
6
CONTINUOUS
10
2.31608
20
2.26378
11
2.31663
21
2.26346
0
LINE
8
BLACK
6
CONTINUOUS
10
2.31663
20
2.26346
11
2.31677
21
2.26309
0
LINE
8
BLACK
6
CONTINUOUS
10
2.31677
20
2.26309
11
2.31705
21
2.26281
0
LINE
8
BLACK
6
CONTINUOUS
10
2.31705
20
2.26281
11
2.3275
21
2.24042
0
LINE
8
BLACK
6
CONTINUOUS
10
2.3275
20
2.24042
11
2.33794
21
2.26281
0
LINE
8
BLACK
6
CONTINUOUS
10
2.33794
20
2.26281
11
2.33853
21
2.26365
0
LINE
8
BLACK
6
CONTINUOUS
10
2.33853
20
2.26365
11
2.33889
21
2.26381
0
LINE
8
BLACK
6
CONTINUOUS
10
2.33889
20
2.26381
11
2.33914
21
2.26412
0
LINE
8
BLACK
6
CONTINUOUS
10
2.33914
20
2.26412
11
2.33978
21
2.26423
0
LINE
8
BLACK
6
CONTINUOUS
10
2.33978
20
2.26423
11
2.34036
21
2.2645
0
LINE
8
BLACK
6
CONTINUOUS
10
2.34036
20
2.2645
11
2.34074
21
2.2644
0
LINE
8
BLACK
6
CONTINUOUS
10
2.87509
20
2.35598
11
2.87726
21
2.35382
0
LINE
8
BLACK
6
CONTINUOUS
10
2.87726
20
2.35382
11
2.87805
21
2.35086
0
LINE
8
BLACK
6
CONTINUOUS
10
2.87805
20
2.35086
11
2.87726
21
2.34791
0
LINE
8
BLACK
6
CONTINUOUS
10
2.87726
20
2.34791
11
2.87509
21
2.34575
0
LINE
8
BLACK
6
CONTINUOUS
10
2.87509
20
2.34575
11
2.87214
21
2.34496
0
LINE
8
BLACK
6
CONTINUOUS
10
2.87214
20
2.34496
11
2.85347
21
2.34496
0
LINE
8
BLACK
6
CONTINUOUS
10
2.85347
20
2.34496
11
2.86196
21
2.33525
0
LINE
8
BLACK
6
CONTINUOUS
10
2.86196
20
2.33525
11
2.86222
21
2.33473
0
LINE
8
BLACK
6
CONTINUOUS
10
2.86222
20
2.33473
11
2.86263
21
2.33432
0
LINE
8
BLACK
6
CONTINUOUS
10
2.86263
20
2.33432
11
2.86288
21
2.33338
0
LINE
8
BLACK
6
CONTINUOUS
10
2.86288
20
2.33338
11
2.86331
21
2.33251
0
LINE
8
BLACK
6
CONTINUOUS
10
2.86331
20
2.33251
11
2.86327
21
2.33193
0
LINE
8
BLACK
6
CONTINUOUS
10
2.86327
20
2.33193
11
2.86342
21
2.33136
0
LINE
8
BLACK
6
CONTINUOUS
10
2.86342
20
2.33136
11
2.86317
21
2.33043
0
LINE
8
BLACK
6
CONTINUOUS
10
2.86317
20
2.33043
11
2.86311
21
2.32946
0
LINE
8
BLACK
6
CONTINUOUS
10
2.86311
20
2.32946
11
2.86278
21
2.32898
0
LINE
8
BLACK
6
CONTINUOUS
10
2.86278
20
2.32898
11
2.86263
21
2.32841
0
LINE
8
BLACK
6
CONTINUOUS
10
2.86263
20
2.32841
11
2.86195
21
2.32773
0
LINE
8
BLACK
6
CONTINUOUS
10
2.86195
20
2.32773
11
2.86141
21
2.32692
0
LINE
8
BLACK
6
CONTINUOUS
10
2.86141
20
2.32692
11
2.86088
21
2.32666
0
LINE
8
BLACK
6
CONTINUOUS
10
2.86088
20
2.32666
11
2.86047
21
2.32625
0
LINE
8
BLACK
6
CONTINUOUS
10
2.86047
20
2.32625
11
2.85953
21
2.326
0
LINE
8
BLACK
6
CONTINUOUS
10
2.85953
20
2.326
11
2.85866
21
2.32557
0
LINE
8
BLACK
6
CONTINUOUS
10
2.85866
20
2.32557
11
2.85808
21
2.32561
0
LINE
8
BLACK
6
CONTINUOUS
10
2.85808
20
2.32561
11
2.85752
21
2.32546
0
LINE
8
BLACK
6
CONTINUOUS
10
2.85752
20
2.32546
11
2.8516
21
2.32546
0
LINE
8
BLACK
6
CONTINUOUS
10
2.8516
20
2.32546
11
2.84883
21
2.32407
0
LINE
8
BLACK
6
CONTINUOUS
10
2.84883
20
2.32407
11
2.84775
21
2.32299
0
LINE
8
BLACK
6
CONTINUOUS
10
2.84775
20
2.32299
11
2.84636
21
2.32022
0
LINE
8
BLACK
6
CONTINUOUS
10
2.84636
20
2.32022
11
2.84636
21
2.31082
0
LINE
8
BLACK
6
CONTINUOUS
10
2.84636
20
2.31082
11
2.84775
21
2.30805
0
LINE
8
BLACK
6
CONTINUOUS
10
2.84775
20
2.30805
11
2.84883
21
2.30697
0
LINE
8
BLACK
6
CONTINUOUS
10
2.84883
20
2.30697
11
2.8516
21
2.30559
0
LINE
8
BLACK
6
CONTINUOUS
10
2.8516
20
2.30559
11
2.86344
21
2.30559
0
LINE
8
BLACK
6
CONTINUOUS
10
2.86344
20
2.30559
11
2.86621
21
2.30697
0
LINE
8
BLACK
6
CONTINUOUS
10
2.86621
20
2.30697
11
2.86797
21
2.30873
0
LINE
8
BLACK
6
CONTINUOUS
10
2.86797
20
2.30873
11
2.87061
21
2.31026
0
LINE
8
BLACK
6
CONTINUOUS
10
2.87061
20
2.31026
11
2.87367
21
2.31026
0
LINE
8
BLACK
6
CONTINUOUS
10
2.87367
20
2.31026
11
2.87632
21
2.30873
0
LINE
8
BLACK
6
CONTINUOUS
10
2.87632
20
2.30873
11
2.87785
21
2.30608
0
LINE
8
BLACK
6
CONTINUOUS
10
2.87785
20
2.30608
11
2.87785
21
2.30303
0
LINE
8
BLACK
6
CONTINUOUS
10
2.87785
20
2.30303
11
2.87632
21
2.30038
0
LINE
8
BLACK
6
CONTINUOUS
10
2.87632
20
2.30038
11
2.87388
21
2.29794
0
LINE
8
BLACK
6
CONTINUOUS
10
2.87388
20
2.29794
11
2.87306
21
2.29747
0
LINE
8
BLACK
6
CONTINUOUS
10
2.87306
20
2.29747
11
2.87234
21
2.29684
0
LINE
8
BLACK
6
CONTINUOUS
10
2.87234
20
2.29684
11
2.86747
21
2.2944
0
LINE
8
BLACK
6
CONTINUOUS
10
2.86747
20
2.2944
11
2.86614
21
2.29413
0
LINE
8
BLACK
6
CONTINUOUS
10
2.86614
20
2.29413
11
2.86483
21
2.29378
0
LINE
8
BLACK
6
CONTINUOUS
10
2.86483
20
2.29378
11
2.85021
21
2.29378
0
LINE
8
BLACK
6
CONTINUOUS
10
2.85021
20
2.29378
11
2.8489
21
2.29413
0
LINE
8
BLACK
6
CONTINUOUS
10
2.8489
20
2.29413
11
2.84757
21
2.2944
0
LINE
8
BLACK
6
CONTINUOUS
10
2.84757
20
2.2944
11
2.84269
21
2.29684
0
LINE
8
BLACK
6
CONTINUOUS
10
2.84269
20
2.29684
11
2.84198
21
2.29747
0
LINE
8
BLACK
6
CONTINUOUS
10
2.84198
20
2.29747
11
2.84116
21
2.29794
0
LINE
8
BLACK
6
CONTINUOUS
10
2.84116
20
2.29794
11
2.83872
21
2.30038
0
LINE
8
BLACK
6
CONTINUOUS
10
2.83872
20
2.30038
11
2.83824
21
2.3012
0
LINE
8
BLACK
6
CONTINUOUS
10
2.83824
20
2.3012
11
2.83761
21
2.30191
0
LINE
8
BLACK
6
CONTINUOUS
10
2.83761
20
2.30191
11
2.83518
21
2.30679
0
LINE
8
BLACK
6
CONTINUOUS
10
2.83518
20
2.30679
11
2.8349
21
2.30812
0
LINE
8
BLACK
6
CONTINUOUS
10
2.8349
20
2.30812
11
2.83455
21
2.30943
0
LINE
8
BLACK
6
CONTINUOUS
10
2.83455
20
2.30943
11
2.83455
21
2.32162
0
LINE
8
BLACK
6
CONTINUOUS
10
2.83455
20
2.32162
11
2.8349
21
2.32293
0
LINE
8
BLACK
6
CONTINUOUS
10
2.8349
20
2.32293
11
2.83518
21
2.32426
0
LINE
8
BLACK
6
CONTINUOUS
10
2.83518
20
2.32426
11
2.83761
21
2.32913
0
LINE
8
BLACK
6
CONTINUOUS
10
2.83761
20
2.32913
11
2.83824
21
2.32984
0
LINE
8
BLACK
6
CONTINUOUS
10
2.83824
20
2.32984
11
2.83872
21
2.33067
0
LINE
8
BLACK
6
CONTINUOUS
10
2.83872
20
2.33067
11
2.84116
21
2.3331
0
LINE
8
BLACK
6
CONTINUOUS
10
2.84116
20
2.3331
11
2.84198
21
2.33358
0
LINE
8
BLACK
6
CONTINUOUS
10
2.84198
20
2.33358
11
2.84269
21
2.33421
0
LINE
8
BLACK
6
CONTINUOUS
10
2.84269
20
2.33421
11
2.84581
21
2.33577
0
LINE
8
BLACK
6
CONTINUOUS
10
2.84581
20
2.33577
11
2.83601
21
2.34697
0
LINE
8
BLACK
6
CONTINUOUS
10
2.83601
20
2.34697
11
2.83576
21
2.3475
0
LINE
8
BLACK
6
CONTINUOUS
10
2.83576
20
2.3475
11
2.83534
21
2.34791
0
LINE
8
BLACK
6
CONTINUOUS
10
2.83534
20
2.34791
11
2.83509
21
2.34885
0
LINE
8
BLACK
6
CONTINUOUS
10
2.83509
20
2.34885
11
2.83466
21
2.34972
0
LINE
8
BLACK
6
CONTINUOUS
10
2.83466
20
2.34972
11
2.8347
21
2.3503
0
LINE
8
BLACK
6
CONTINUOUS
10
2.8347
20
2.3503
11
2.83455
21
2.35086
0
LINE
8
BLACK
6
CONTINUOUS
10
2.83455
20
2.35086
11
2.8348
21
2.3518
0
LINE
8
BLACK
6
CONTINUOUS
10
2.8348
20
2.3518
11
2.83487
21
2.35277
0
LINE
8
BLACK
6
CONTINUOUS
10
2.83487
20
2.35277
11
2.83519
21
2.35325
0
LINE
8
BLACK
6
CONTINUOUS
10
2.83519
20
2.35325
11
2.83534
21
2.35382
0
LINE
8
BLACK
6
CONTINUOUS
10
2.83534
20
2.35382
11
2.83603
21
2.3545
0
LINE
8
BLACK
6
CONTINUOUS
10
2.83603
20
2.3545
11
2.83657
21
2.35531
0
LINE
8
BLACK
6
CONTINUOUS
10
2.83657
20
2.35531
11
2.83709
21
2.35556
0
LINE
8
BLACK
6
CONTINUOUS
10
2.83709
20
2.35556
11
2.8375
21
2.35598
0
LINE
8
BLACK
6
CONTINUOUS
10
2.8375
20
2.35598
11
2.83844
21
2.35623
0
LINE
8
BLACK
6
CONTINUOUS
10
2.83844
20
2.35623
11
2.83931
21
2.35666
0
LINE
8
BLACK
6
CONTINUOUS
10
2.83931
20
2.35666
11
2.83989
21
2.35662
0
LINE
8
BLACK
6
CONTINUOUS
10
2.83989
20
2.35662
11
2.84046
21
2.35677
0
LINE
8
BLACK
6
CONTINUOUS
10
2.84046
20
2.35677
11
2.87214
21
2.35677
0
LINE
8
BLACK
6
CONTINUOUS
10
2.87214
20
2.35677
11
2.87509
21
2.35598
0
LINE
8
BLACK
6
CONTINUOUS
10
2.85883
20
2.45484
11
2.86016
21
2.45457
0
LINE
8
BLACK
6
CONTINUOUS
10
2.86016
20
2.45457
11
2.86503
21
2.45213
0
LINE
8
BLACK
6
CONTINUOUS
10
2.86503
20
2.45213
11
2.86574
21
2.4515
0
LINE
8
BLACK
6
CONTINUOUS
10
2.86574
20
2.4515
11
2.86657
21
2.45103
0
LINE
8
BLACK
6
CONTINUOUS
10
2.86657
20
2.45103
11
2.86901
21
2.44859
0
LINE
8
BLACK
6
CONTINUOUS
10
2.86901
20
2.44859
11
2.86948
21
2.44777
0
LINE
8
BLACK
6
CONTINUOUS
10
2.86948
20
2.44777
11
2.87011
21
2.44705
0
LINE
8
BLACK
6
CONTINUOUS
10
2.87011
20
2.44705
11
2.87255
21
2.44218
0
LINE
8
BLACK
6
CONTINUOUS
10
2.87255
20
2.44218
11
2.87268
21
2.44154
0
LINE
8
BLACK
6
CONTINUOUS
10
2.87268
20
2.44154
11
2.873
21
2.44097
0
LINE
8
BLACK
6
CONTINUOUS
10
2.873
20
2.44097
11
2.87543
21
2.43122
0
LINE
8
BLACK
6
CONTINUOUS
10
2.87543
20
2.43122
11
2.87542
21
2.43049
0
LINE
8
BLACK
6
CONTINUOUS
10
2.87542
20
2.43049
11
2.87561
21
2.42979
0
LINE
8
BLACK
6
CONTINUOUS
10
2.87561
20
2.42979
11
2.87561
21
2.4176
0
LINE
8
BLACK
6
CONTINUOUS
10
2.87561
20
2.4176
11
2.87542
21
2.4169
0
LINE
8
BLACK
6
CONTINUOUS
10
2.87542
20
2.4169
11
2.87543
21
2.41617
0
LINE
8
BLACK
6
CONTINUOUS
10
2.87543
20
2.41617
11
2.873
21
2.40642
0
LINE
8
BLACK
6
CONTINUOUS
10
2.873
20
2.40642
11
2.87268
21
2.40585
0
LINE
8
BLACK
6
CONTINUOUS
10
2.87268
20
2.40585
11
2.87255
21
2.40521
0
LINE
8
BLACK
6
CONTINUOUS
10
2.87255
20
2.40521
11
2.87011
21
2.40034
0
LINE
8
BLACK
6
CONTINUOUS
10
2.87011
20
2.40034
11
2.86948
21
2.39963
0
LINE
8
BLACK
6
CONTINUOUS
10
2.86948
20
2.39963
11
2.86901
21
2.39881
0
LINE
8
BLACK
6
CONTINUOUS
10
2.86901
20
2.39881
11
2.86657
21
2.39637
0
LINE
8
BLACK
6
CONTINUOUS
10
2.86657
20
2.39637
11
2.86574
21
2.39589
0
LINE
8
BLACK
6
CONTINUOUS
10
2.86574
20
2.39589
11
2.86503
21
2.39526
0
LINE
8
BLACK
6
CONTINUOUS
10
2.86503
20
2.39526
11
2.86016
21
2.39282
0
LINE
8
BLACK
6
CONTINUOUS
10
2.86016
20
2.39282
11
2.85883
21
2.39255
0
LINE
8
BLACK
6
CONTINUOUS
10
2.85883
20
2.39255
11
2.85752
21
2.3922
0
LINE
8
BLACK
6
CONTINUOUS
10
2.85752
20
2.3922
11
2.85264
21
2.3922
0
LINE
8
BLACK
6
CONTINUOUS
10
2.85264
20
2.3922
11
2.85133
21
2.39255
0
LINE
8
BLACK
6
CONTINUOUS
10
2.85133
20
2.39255
11
2.85
21
2.39282
0
LINE
8
BLACK
6
CONTINUOUS
10
2.85
20
2.39282
11
2.84513
21
2.39526
0
LINE
8
BLACK
6
CONTINUOUS
10
2.84513
20
2.39526
11
2.84442
21
2.39589
0
LINE
8
BLACK
6
CONTINUOUS
10
2.84442
20
2.39589
11
2.84359
21
2.39637
0
LINE
8
BLACK
6
CONTINUOUS
10
2.84359
20
2.39637
11
2.84116
21
2.39881
0
LINE
8
BLACK
6
CONTINUOUS
10
2.84116
20
2.39881
11
2.84068
21
2.39963
0
LINE
8
BLACK
6
CONTINUOUS
10
2.84068
20
2.39963
11
2.84005
21
2.40034
0
LINE
8
BLACK
6
CONTINUOUS
10
2.84005
20
2.40034
11
2.83761
21
2.40521
0
LINE
8
BLACK
6
CONTINUOUS
10
2.83761
20
2.40521
11
2.83748
21
2.40585
0
LINE
8
BLACK
6
CONTINUOUS
10
2.83748
20
2.40585
11
2.83717
21
2.40642
0
LINE
8
BLACK
6
CONTINUOUS
10
2.83717
20
2.40642
11
2.83473
21
2.41617
0
LINE
8
BLACK
6
CONTINUOUS
10
2.83473
20
2.41617
11
2.83474
21
2.4169
0
LINE
8
BLACK
6
CONTINUOUS
10
2.83474
20
2.4169
11
2.83455
21
2.4176
0
LINE
8
BLACK
6
CONTINUOUS
10
2.83455
20
2.4176
11
2.83455
21
2.42979
0
LINE
8
BLACK
6
CONTINUOUS
10
2.83455
20
2.42979
11
2.83474
21
2.43049
0
LINE
8
BLACK
6
CONTINUOUS
10
2.83474
20
2.43049
11
2.83473
21
2.43122
0
LINE
8
BLACK
6
CONTINUOUS
10
2.83473
20
2.43122
11
2.83717
21
2.44097
0
LINE
8
BLACK
6
CONTINUOUS
10
2.83717
20
2.44097
11
2.83748
21
2.44154
0
LINE
8
BLACK
6
CONTINUOUS
10
2.83748
20
2.44154
11
2.83761
21
2.44218
0
LINE
8
BLACK
6
CONTINUOUS
10
2.83761
20
2.44218
11
2.84005
21
2.44705
0
LINE
8
BLACK
6
CONTINUOUS
10
2.84005
20
2.44705
11
2.84068
21
2.44777
0
LINE
8
BLACK
6
CONTINUOUS
10
2.84068
20
2.44777
11
2.84116
21
2.44859
0
LINE
8
BLACK
6
CONTINUOUS
10
2.84116
20
2.44859
11
2.84359
21
2.45103
0
LINE
8
BLACK
6
CONTINUOUS
10
2.84359
20
2.45103
11
2.84442
21
2.4515
0
LINE
8
BLACK
6
CONTINUOUS
10
2.84442
20
2.4515
11
2.84513
21
2.45213
0
LINE
8
BLACK
6
CONTINUOUS
10
2.84513
20
2.45213
11
2.85
21
2.45457
0
LINE
8
BLACK
6
CONTINUOUS
10
2.85
20
2.45457
11
2.85133
21
2.45484
0
LINE
8
BLACK
6
CONTINUOUS
10
2.85133
20
2.45484
11
2.85264
21
2.45519
0
LINE
8
BLACK
6
CONTINUOUS
10
2.85264
20
2.45519
11
2.85752
21
2.45519
0
LINE
8
BLACK
6
CONTINUOUS
10
2.85752
20
2.45519
11
2.85883
21
2.45484
0
LINE
8
BLACK
6
CONTINUOUS
10
2.85404
20
2.44338
11
2.85127
21
2.442
0
LINE
8
BLACK
6
CONTINUOUS
10
2.85127
20
2.442
11
2.85019
21
2.44091
0
LINE
8
BLACK
6
CONTINUOUS
10
2.85019
20
2.44091
11
2.84847
21
2.43748
0
LINE
8
BLACK
6
CONTINUOUS
10
2.84847
20
2.43748
11
2.84636
21
2.42906
0
LINE
8
BLACK
6
CONTINUOUS
10
2.84636
20
2.42906
11
2.84636
21
2.41833
0
LINE
8
BLACK
6
CONTINUOUS
10
2.84636
20
2.41833
11
2.84847
21
2.40992
0
LINE
8
BLACK
6
CONTINUOUS
10
2.84847
20
2.40992
11
2.85019
21
2.40648
0
LINE
8
BLACK
6
CONTINUOUS
10
2.85019
20
2.40648
11
2.85127
21
2.4054
0
LINE
8
BLACK
6
CONTINUOUS
10
2.85127
20
2.4054
11
2.85404
21
2.40401
0
LINE
8
BLACK
6
CONTINUOUS
10
2.85404
20
2.40401
11
2.85612
21
2.40401
0
LINE
8
BLACK
6
CONTINUOUS
10
2.85612
20
2.40401
11
2.85889
21
2.4054
0
LINE
8
BLACK
6
CONTINUOUS
10
2.85889
20
2.4054
11
2.85998
21
2.40648
0
LINE
8
BLACK
6
CONTINUOUS
10
2.85998
20
2.40648
11
2.86169
21
2.40992
0
LINE
8
BLACK
6
CONTINUOUS
10
2.86169
20
2.40992
11
2.8638
21
2.41833
0
LINE
8
BLACK
6
CONTINUOUS
10
2.8638
20
2.41833
11
2.8638
21
2.42906
0
LINE
8
BLACK
6
CONTINUOUS
10
2.8638
20
2.42906
11
2.86169
21
2.43748
0
LINE
8
BLACK
6
CONTINUOUS
10
2.86169
20
2.43748
11
2.85998
21
2.44091
0
LINE
8
BLACK
6
CONTINUOUS
10
2.85998
20
2.44091
11
2.85889
21
2.442
0
LINE
8
BLACK
6
CONTINUOUS
10
2.85889
20
2.442
11
2.85612
21
2.44338
0
LINE
8
BLACK
6
CONTINUOUS
10
2.85612
20
2.44338
11
2.85404
21
2.44338
0
LINE
8
BLACK
6
CONTINUOUS
10
3.27936
20
2.29402
11
3.27841
21
2.29408
0
LINE
8
BLACK
6
CONTINUOUS
10
3.27841
20
2.29408
11
3.2711
21
2.29652
0
LINE
8
BLACK
6
CONTINUOUS
10
3.2711
20
2.29652
11
3.26997
21
2.29726
0
LINE
8
BLACK
6
CONTINUOUS
10
3.26997
20
2.29726
11
3.26879
21
2.29794
0
LINE
8
BLACK
6
CONTINUOUS
10
3.26879
20
2.29794
11
3.26392
21
2.30282
0
LINE
8
BLACK
6
CONTINUOUS
10
3.26392
20
2.30282
11
3.26344
21
2.30364
0
LINE
8
BLACK
6
CONTINUOUS
10
3.26344
20
2.30364
11
3.26281
21
2.30435
0
LINE
8
BLACK
6
CONTINUOUS
10
3.26281
20
2.30435
11
3.26037
21
2.30923
0
LINE
8
BLACK
6
CONTINUOUS
10
3.26037
20
2.30923
11
3.26024
21
2.30986
0
LINE
8
BLACK
6
CONTINUOUS
10
3.26024
20
2.30986
11
3.25993
21
2.31043
0
LINE
8
BLACK
6
CONTINUOUS
10
3.25993
20
2.31043
11
3.25749
21
2.32018
0
LINE
8
BLACK
6
CONTINUOUS
10
3.25749
20
2.32018
11
3.2575
21
2.32091
0
LINE
8
BLACK
6
CONTINUOUS
10
3.2575
20
2.32091
11
3.25731
21
2.32162
0
LINE
8
BLACK
6
CONTINUOUS
10
3.25731
20
2.32162
11
3.25731
21
2.32893
0
LINE
8
BLACK
6
CONTINUOUS
10
3.25731
20
2.32893
11
3.2575
21
2.32963
0
LINE
8
BLACK
6
CONTINUOUS
10
3.2575
20
2.32963
11
3.25749
21
2.33036
0
LINE
8
BLACK
6
CONTINUOUS
10
3.25749
20
2.33036
11
3.25993
21
2.34011
0
LINE
8
BLACK
6
CONTINUOUS
10
3.25993
20
2.34011
11
3.26024
21
2.34068
0
LINE
8
BLACK
6
CONTINUOUS
10
3.26024
20
2.34068
11
3.26037
21
2.34132
0
LINE
8
BLACK
6
CONTINUOUS
10
3.26037
20
2.34132
11
3.26281
21
2.34619
0
LINE
8
BLACK
6
CONTINUOUS
10
3.26281
20
2.34619
11
3.26344
21
2.3469
0
LINE
8
BLACK
6
CONTINUOUS
10
3.26344
20
2.3469
11
3.26392
21
2.34773
0
LINE
8
BLACK
6
CONTINUOUS
10
3.26392
20
2.34773
11
3.26879
21
2.3526
0
LINE
8
BLACK
6
CONTINUOUS
10
3.26879
20
2.3526
11
3.26997
21
2.35328
0
LINE
8
BLACK
6
CONTINUOUS
10
3.26997
20
2.35328
11
3.2711
21
2.35403
0
LINE
8
BLACK
6
CONTINUOUS
10
3.2711
20
2.35403
11
3.27841
21
2.35646
0
LINE
8
BLACK
6
CONTINUOUS
10
3.27841
20
2.35646
11
3.27936
21
2.35652
0
LINE
8
BLACK
6
CONTINUOUS
10
3.27936
20
2.35652
11
3.28028
21
2.35677
0
LINE
8
BLACK
6
CONTINUOUS
10
3.28028
20
2.35677
11
3.29246
21
2.35677
0
LINE
8
BLACK
6
CONTINUOUS
10
3.29246
20
2.35677
11
3.29542
21
2.35598
0
LINE
8
BLACK
6
CONTINUOUS
10
3.29542
20
2.35598
11
3.29758
21
2.35382
0
LINE
8
BLACK
6
CONTINUOUS
10
3.29758
20
2.35382
11
3.29837
21
2.35086
0
LINE
8
BLACK
6
CONTINUOUS
10
3.29837
20
2.35086
11
3.29837
21
2.29968
0
LINE
8
BLACK
6
CONTINUOUS
10
3.29837
20
2.29968
11
3.29758
21
2.29673
0
LINE
8
BLACK
6
CONTINUOUS
10
3.29758
20
2.29673
11
3.29542
21
2.29457
0
LINE
8
BLACK
6
CONTINUOUS
10
3.29542
20
2.29457
11
3.29246
21
2.29378
0
LINE
8
BLACK
6
CONTINUOUS
10
3.29246
20
2.29378
11
3.28028
21
2.29378
0
LINE
8
BLACK
6
CONTINUOUS
10
3.28028
20
2.29378
11
3.27936
21
2.29402
0
LINE
8
BLACK
6
CONTINUOUS
10
3.28124
20
2.34496
11
3.27616
21
2.34326
0
LINE
8
BLACK
6
CONTINUOUS
10
3.27616
20
2.34326
11
3.27294
21
2.34005
0
LINE
8
BLACK
6
CONTINUOUS
10
3.27294
20
2.34005
11
3.27123
21
2.33662
0
LINE
8
BLACK
6
CONTINUOUS
10
3.27123
20
2.33662
11
3.26912
21
2.3282
0
LINE
8
BLACK
6
CONTINUOUS
10
3.26912
20
2.3282
11
3.26912
21
2.32234
0
LINE
8
BLACK
6
CONTINUOUS
10
3.26912
20
2.32234
11
3.27123
21
2.31393
0
LINE
8
BLACK
6
CONTINUOUS
10
3.27123
20
2.31393
11
3.27294
21
2.31049
0
LINE
8
BLACK
6
CONTINUOUS
10
3.27294
20
2.31049
11
3.27616
21
2.30728
0
LINE
8
BLACK
6
CONTINUOUS
10
3.27616
20
2.30728
11
3.28124
21
2.30559
0
LINE
8
BLACK
6
CONTINUOUS
10
3.28124
20
2.30559
11
3.28656
21
2.30559
0
LINE
8
BLACK
6
CONTINUOUS
10
3.28656
20
2.30559
11
3.28656
21
2.34496
0
LINE
8
BLACK
6
CONTINUOUS
10
3.28656
20
2.34496
11
3.28124
21
2.34496
0
LINE
8
BLACK
6
CONTINUOUS
10
3.3466
20
2.35598
11
3.34876
21
2.35382
0
LINE
8
BLACK
6
CONTINUOUS
10
3.34876
20
2.35382
11
3.34955
21
2.35086
0
LINE
8
BLACK
6
CONTINUOUS
10
3.34955
20
2.35086
11
3.34955
21
2.29968
0
LINE
8
BLACK
6
CONTINUOUS
10
3.34955
20
2.29968
11
3.34876
21
2.29673
0
LINE
8
BLACK
6
CONTINUOUS
10
3.34876
20
2.29673
11
3.3466
21
2.29457
0
LINE
8
BLACK
6
CONTINUOUS
10
3.3466
20
2.29457
11
3.34364
21
2.29378
0
LINE
8
BLACK
6
CONTINUOUS
10
3.34364
20
2.29378
11
3.34069
21
2.29457
0
LINE
8
BLACK
6
CONTINUOUS
10
3.34069
20
2.29457
11
3.33853
21
2.29673
0
LINE
8
BLACK
6
CONTINUOUS
10
3.33853
20
2.29673
11
3.33774
21
2.29968
0
LINE
8
BLACK
6
CONTINUOUS
10
3.33774
20
2.29968
11
3.33774
21
2.31815
0
LINE
8
BLACK
6
CONTINUOUS
10
3.33774
20
2.31815
11
3.32415
21
2.31815
0
LINE
8
BLACK
6
CONTINUOUS
10
3.32415
20
2.31815
11
3.32284
21
2.3185
0
LINE
8
BLACK
6
CONTINUOUS
10
3.32284
20
2.3185
11
3.32151
21
2.31877
0
LINE
8
BLACK
6
CONTINUOUS
10
3.32151
20
2.31877
11
3.31663
21
2.32121
0
LINE
8
BLACK
6
CONTINUOUS
10
3.31663
20
2.32121
11
3.31592
21
2.32184
0
LINE
8
BLACK
6
CONTINUOUS
10
3.31592
20
2.32184
11
3.3151
21
2.32231
0
LINE
8
BLACK
6
CONTINUOUS
10
3.3151
20
2.32231
11
3.31266
21
2.32475
0
LINE
8
BLACK
6
CONTINUOUS
10
3.31266
20
2.32475
11
3.31218
21
2.32558
0
LINE
8
BLACK
6
CONTINUOUS
10
3.31218
20
2.32558
11
3.31155
21
2.32629
0
LINE
8
BLACK
6
CONTINUOUS
10
3.31155
20
2.32629
11
3.30912
21
2.33116
0
LINE
8
BLACK
6
CONTINUOUS
10
3.30912
20
2.33116
11
3.30884
21
2.33249
0
LINE
8
BLACK
6
CONTINUOUS
10
3.30884
20
2.33249
11
3.30849
21
2.3338
0
LINE
8
BLACK
6
CONTINUOUS
10
3.30849
20
2.3338
11
3.30849
21
2.34111
0
LINE
8
BLACK
6
CONTINUOUS
10
3.30849
20
2.34111
11
3.30884
21
2.34242
0
LINE
8
BLACK
6
CONTINUOUS
10
3.30884
20
2.34242
11
3.30912
21
2.34375
0
LINE
8
BLACK
6
CONTINUOUS
10
3.30912
20
2.34375
11
3.31155
21
2.34863
0
LINE
8
BLACK
6
CONTINUOUS
10
3.31155
20
2.34863
11
3.31218
21
2.34934
0
LINE
8
BLACK
6
CONTINUOUS
10
3.31218
20
2.34934
11
3.31266
21
2.35016
0
LINE
8
BLACK
6
CONTINUOUS
10
3.31266
20
2.35016
11
3.3151
21
2.3526
0
LINE
8
BLACK
6
CONTINUOUS
10
3.3151
20
2.3526
11
3.31592
21
2.35308
0
LINE
8
BLACK
6
CONTINUOUS
10
3.31592
20
2.35308
11
3.31663
21
2.35371
0
LINE
8
BLACK
6
CONTINUOUS
10
3.31663
20
2.35371
11
3.32151
21
2.35614
0
LINE
8
BLACK
6
CONTINUOUS
10
3.32151
20
2.35614
11
3.32284
21
2.35642
0
LINE
8
BLACK
6
CONTINUOUS
10
3.32284
20
2.35642
11
3.32415
21
2.35677
0
LINE
8
BLACK
6
CONTINUOUS
10
3.32415
20
2.35677
11
3.34364
21
2.35677
0
LINE
8
BLACK
6
CONTINUOUS
10
3.34364
20
2.35677
11
3.3466
21
2.35598
0
LINE
8
BLACK
6
CONTINUOUS
10
3.32554
20
2.34496
11
3.32277
21
2.34357
0
LINE
8
BLACK
6
CONTINUOUS
10
3.32277
20
2.34357
11
3.32169
21
2.34249
0
LINE
8
BLACK
6
CONTINUOUS
10
3.32169
20
2.34249
11
3.3203
21
2.33972
0
LINE
8
BLACK
6
CONTINUOUS
10
3.3203
20
2.33972
11
3.3203
21
2.3352
0
LINE
8
BLACK
6
CONTINUOUS
10
3.3203
20
2.3352
11
3.32169
21
2.33243
0
LINE
8
BLACK
6
CONTINUOUS
10
3.32169
20
2.33243
11
3.32277
21
2.33134
0
LINE
8
BLACK
6
CONTINUOUS
10
3.32277
20
2.33134
11
3.32554
21
2.32996
0
LINE
8
BLACK
6
CONTINUOUS
10
3.32554
20
2.32996
11
3.33774
21
2.32996
0
LINE
8
BLACK
6
CONTINUOUS
10
3.33774
20
2.32996
11
3.33774
21
2.34496
0
LINE
8
BLACK
6
CONTINUOUS
10
3.33774
20
2.34496
11
3.32554
21
2.34496
0
LINE
8
BLACK
6
CONTINUOUS
10
2.97258
20
2.35598
11
2.97474
21
2.35382
0
LINE
8
BLACK
6
CONTINUOUS
10
2.97474
20
2.35382
11
2.97553
21
2.35086
0
LINE
8
BLACK
6
CONTINUOUS
10
2.97553
20
2.35086
11
2.97553
21
2.29968
0
LINE
8
BLACK
6
CONTINUOUS
10
2.97553
20
2.29968
11
2.97474
21
2.29673
0
LINE
8
BLACK
6
CONTINUOUS
10
2.97474
20
2.29673
11
2.97258
21
2.29457
0
LINE
8
BLACK
6
CONTINUOUS
10
2.97258
20
2.29457
11
2.96963
21
2.29378
0
LINE
8
BLACK
6
CONTINUOUS
10
2.96963
20
2.29378
11
2.96668
21
2.29457
0
LINE
8
BLACK
6
CONTINUOUS
10
2.96668
20
2.29457
11
2.96451
21
2.29673
0
LINE
8
BLACK
6
CONTINUOUS
10
2.96451
20
2.29673
11
2.96372
21
2.29968
0
LINE
8
BLACK
6
CONTINUOUS
10
2.96372
20
2.29968
11
2.96372
21
2.31815
0
LINE
8
BLACK
6
CONTINUOUS
10
2.96372
20
2.31815
11
2.95013
21
2.31815
0
LINE
8
BLACK
6
CONTINUOUS
10
2.95013
20
2.31815
11
2.94882
21
2.3185
0
LINE
8
BLACK
6
CONTINUOUS
10
2.94882
20
2.3185
11
2.94749
21
2.31877
0
LINE
8
BLACK
6
CONTINUOUS
10
2.94749
20
2.31877
11
2.94262
21
2.32121
0
LINE
8
BLACK
6
CONTINUOUS
10
2.94262
20
2.32121
11
2.9419
21
2.32184
0
LINE
8
BLACK
6
CONTINUOUS
10
2.9419
20
2.32184
11
2.94108
21
2.32231
0
LINE
8
BLACK
6
CONTINUOUS
10
2.94108
20
2.32231
11
2.93864
21
2.32475
0
LINE
8
BLACK
6
CONTINUOUS
10
2.93864
20
2.32475
11
2.93817
21
2.32558
0
LINE
8
BLACK
6
CONTINUOUS
10
2.93817
20
2.32558
11
2.93754
21
2.32629
0
LINE
8
BLACK
6
CONTINUOUS
10
2.93754
20
2.32629
11
2.9351
21
2.33116
0
LINE
8
BLACK
6
CONTINUOUS
10
2.9351
20
2.33116
11
2.93483
21
2.33249
0
LINE
8
BLACK
6
CONTINUOUS
10
2.93483
20
2.33249
11
2.93448
21
2.3338
0
LINE
8
BLACK
6
CONTINUOUS
10
2.93448
20
2.3338
11
2.93448
21
2.34111
0
LINE
8
BLACK
6
CONTINUOUS
10
2.93448
20
2.34111
11
2.93483
21
2.34242
0
LINE
8
BLACK
6
CONTINUOUS
10
2.93483
20
2.34242
11
2.9351
21
2.34375
0
LINE
8
BLACK
6
CONTINUOUS
10
2.9351
20
2.34375
11
2.93754
21
2.34863
0
LINE
8
BLACK
6
CONTINUOUS
10
2.93754
20
2.34863
11
2.93817
21
2.34934
0
LINE
8
BLACK
6
CONTINUOUS
10
2.93817
20
2.34934
11
2.93864
21
2.35016
0
LINE
8
BLACK
6
CONTINUOUS
10
2.93864
20
2.35016
11
2.94108
21
2.3526
0
LINE
8
BLACK
6
CONTINUOUS
10
2.94108
20
2.3526
11
2.9419
21
2.35308
0
LINE
8
BLACK
6
CONTINUOUS
10
2.9419
20
2.35308
11
2.94262
21
2.35371
0
LINE
8
BLACK
6
CONTINUOUS
10
2.94262
20
2.35371
11
2.94749
21
2.35614
0
LINE
8
BLACK
6
CONTINUOUS
10
2.94749
20
2.35614
11
2.94882
21
2.35642
0
LINE
8
BLACK
6
CONTINUOUS
10
2.94882
20
2.35642
11
2.95013
21
2.35677
0
LINE
8
BLACK
6
CONTINUOUS
10
2.95013
20
2.35677
11
2.96963
21
2.35677
0
LINE
8
BLACK
6
CONTINUOUS
10
2.96963
20
2.35677
11
2.97258
21
2.35598
0
LINE
8
BLACK
6
CONTINUOUS
10
2.95153
20
2.34496
11
2.94875
21
2.34357
0
LINE
8
BLACK
6
CONTINUOUS
10
2.94875
20
2.34357
11
2.94767
21
2.34249
0
LINE
8
BLACK
6
CONTINUOUS
10
2.94767
20
2.34249
11
2.94629
21
2.33972
0
LINE
8
BLACK
6
CONTINUOUS
10
2.94629
20
2.33972
11
2.94629
21
2.3352
0
LINE
8
BLACK
6
CONTINUOUS
10
2.94629
20
2.3352
11
2.94767
21
2.33243
0
LINE
8
BLACK
6
CONTINUOUS
10
2.94767
20
2.33243
11
2.94875
21
2.33134
0
LINE
8
BLACK
6
CONTINUOUS
10
2.94875
20
2.33134
11
2.95153
21
2.32996
0
LINE
8
BLACK
6
CONTINUOUS
10
2.95153
20
2.32996
11
2.96372
21
2.32996
0
LINE
8
BLACK
6
CONTINUOUS
10
2.96372
20
2.32996
11
2.96372
21
2.34496
0
LINE
8
BLACK
6
CONTINUOUS
10
2.96372
20
2.34496
11
2.95153
21
2.34496
0
LINE
8
BLACK
6
CONTINUOUS
10
3.23772
20
2.35642
11
3.23905
21
2.35614
0
LINE
8
BLACK
6
CONTINUOUS
10
3.23905
20
2.35614
11
3.24392
21
2.35371
0
LINE
8
BLACK
6
CONTINUOUS
10
3.24392
20
2.35371
11
3.24463
21
2.35308
0
LINE
8
BLACK
6
CONTINUOUS
10
3.24463
20
2.35308
11
3.24546
21
2.3526
0
LINE
8
BLACK
6
CONTINUOUS
10
3.24546
20
2.3526
11
3.2479
21
2.35016
0
LINE
8
BLACK
6
CONTINUOUS
10
3.2479
20
2.35016
11
3.24942
21
2.34752
0
LINE
8
BLACK
6
CONTINUOUS
10
3.24942
20
2.34752
11
3.24942
21
2.34446
0
LINE
8
BLACK
6
CONTINUOUS
10
3.24942
20
2.34446
11
3.2479
21
2.34181
0
LINE
8
BLACK
6
CONTINUOUS
10
3.2479
20
2.34181
11
3.24525
21
2.34028
0
LINE
8
BLACK
6
CONTINUOUS
10
3.24525
20
2.34028
11
3.24219
21
2.34028
0
LINE
8
BLACK
6
CONTINUOUS
10
3.24219
20
2.34028
11
3.23954
21
2.34181
0
LINE
8
BLACK
6
CONTINUOUS
10
3.23954
20
2.34181
11
3.23778
21
2.34357
0
LINE
8
BLACK
6
CONTINUOUS
10
3.23778
20
2.34357
11
3.23501
21
2.34496
0
LINE
8
BLACK
6
CONTINUOUS
10
3.23501
20
2.34496
11
3.22562
21
2.34496
0
LINE
8
BLACK
6
CONTINUOUS
10
3.22562
20
2.34496
11
3.22285
21
2.34357
0
LINE
8
BLACK
6
CONTINUOUS
10
3.22285
20
2.34357
11
3.22176
21
2.34249
0
LINE
8
BLACK
6
CONTINUOUS
10
3.22176
20
2.34249
11
3.22038
21
2.33972
0
LINE
8
BLACK
6
CONTINUOUS
10
3.22038
20
2.33972
11
3.22038
21
2.3372
0
LINE
8
BLACK
6
CONTINUOUS
10
3.22038
20
2.3372
11
3.22207
21
2.33212
0
LINE
8
BLACK
6
CONTINUOUS
10
3.22207
20
2.33212
11
3.25033
21
2.30386
0
LINE
8
BLACK
6
CONTINUOUS
10
3.25033
20
2.30386
11
3.25072
21
2.30318
0
LINE
8
BLACK
6
CONTINUOUS
10
3.25072
20
2.30318
11
3.25127
21
2.30263
0
LINE
8
BLACK
6
CONTINUOUS
10
3.25127
20
2.30263
11
3.25147
21
2.30188
0
LINE
8
BLACK
6
CONTINUOUS
10
3.25147
20
2.30188
11
3.25186
21
2.30121
0
LINE
8
BLACK
6
CONTINUOUS
10
3.25186
20
2.30121
11
3.25186
21
2.30043
0
LINE
8
BLACK
6
CONTINUOUS
10
3.25186
20
2.30043
11
3.25206
21
2.29968
0
LINE
8
BLACK
6
CONTINUOUS
10
3.25206
20
2.29968
11
3.25186
21
2.29893
0
LINE
8
BLACK
6
CONTINUOUS
10
3.25186
20
2.29893
11
3.25186
21
2.29815
0
LINE
8
BLACK
6
CONTINUOUS
10
3.25186
20
2.29815
11
3.25147
21
2.29748
0
LINE
8
BLACK
6
CONTINUOUS
10
3.25147
20
2.29748
11
3.25127
21
2.29673
0
LINE
8
BLACK
6
CONTINUOUS
10
3.25127
20
2.29673
11
3.25072
21
2.29618
0
LINE
8
BLACK
6
CONTINUOUS
10
3.25072
20
2.29618
11
3.25033
21
2.29551
0
LINE
8
BLACK
6
CONTINUOUS
10
3.25033
20
2.29551
11
3.24966
21
2.29512
0
LINE
8
BLACK
6
CONTINUOUS
10
3.24966
20
2.29512
11
3.24911
21
2.29457
0
LINE
8
BLACK
6
CONTINUOUS
10
3.24911
20
2.29457
11
3.24836
21
2.29437
0
LINE
8
BLACK
6
CONTINUOUS
10
3.24836
20
2.29437
11
3.24769
21
2.29398
0
LINE
8
BLACK
6
CONTINUOUS
10
3.24769
20
2.29398
11
3.24691
21
2.29398
0
LINE
8
BLACK
6
CONTINUOUS
10
3.24691
20
2.29398
11
3.24616
21
2.29378
0
LINE
8
BLACK
6
CONTINUOUS
10
3.24616
20
2.29378
11
3.21447
21
2.29378
0
LINE
8
BLACK
6
CONTINUOUS
10
3.21447
20
2.29378
11
3.21152
21
2.29457
0
LINE
8
BLACK
6
CONTINUOUS
10
3.21152
20
2.29457
11
3.20936
21
2.29673
0
LINE
8
BLACK
6
CONTINUOUS
10
3.20936
20
2.29673
11
3.20857
21
2.29968
0
LINE
8
BLACK
6
CONTINUOUS
10
3.20857
20
2.29968
11
3.20936
21
2.30263
0
LINE
8
BLACK
6
CONTINUOUS
10
3.20936
20
2.30263
11
3.21152
21
2.3048
0
LINE
8
BLACK
6
CONTINUOUS
10
3.21152
20
2.3048
11
3.21447
21
2.30559
0
LINE
8
BLACK
6
CONTINUOUS
10
3.21447
20
2.30559
11
3.2319
21
2.30559
0
LINE
8
BLACK
6
CONTINUOUS
10
3.2319
20
2.30559
11
3.21273
21
2.32475
0
LINE
8
BLACK
6
CONTINUOUS
10
3.21273
20
2.32475
11
3.21206
21
2.32593
0
LINE
8
BLACK
6
CONTINUOUS
10
3.21206
20
2.32593
11
3.21131
21
2.32706
0
LINE
8
BLACK
6
CONTINUOUS
10
3.21131
20
2.32706
11
3.20887
21
2.33437
0
LINE
8
BLACK
6
CONTINUOUS
10
3.20887
20
2.33437
11
3.20881
21
2.33532
0
LINE
8
BLACK
6
CONTINUOUS
10
3.20881
20
2.33532
11
3.20857
21
2.33624
0
LINE
8
BLACK
6
CONTINUOUS
10
3.20857
20
2.33624
11
3.20857
21
2.34111
0
LINE
8
BLACK
6
CONTINUOUS
10
3.20857
20
2.34111
11
3.20892
21
2.34242
0
LINE
8
BLACK
6
CONTINUOUS
10
3.20892
20
2.34242
11
3.20919
21
2.34375
0
LINE
8
BLACK
6
CONTINUOUS
10
3.20919
20
2.34375
11
3.21163
21
2.34863
0
LINE
8
BLACK
6
CONTINUOUS
10
3.21163
20
2.34863
11
3.21226
21
2.34934
0
LINE
8
BLACK
6
CONTINUOUS
10
3.21226
20
2.34934
11
3.21273
21
2.35016
0
LINE
8
BLACK
6
CONTINUOUS
10
3.21273
20
2.35016
11
3.21517
21
2.3526
0
LINE
8
BLACK
6
CONTINUOUS
10
3.21517
20
2.3526
11
3.216
21
2.35308
0
LINE
8
BLACK
6
CONTINUOUS
10
3.216
20
2.35308
11
3.21671
21
2.35371
0
LINE
8
BLACK
6
CONTINUOUS
10
3.21671
20
2.35371
11
3.22158
21
2.35614
0
LINE
8
BLACK
6
CONTINUOUS
10
3.22158
20
2.35614
11
3.22291
21
2.35642
0
LINE
8
BLACK
6
CONTINUOUS
10
3.22291
20
2.35642
11
3.22422
21
2.35677
0
LINE
8
BLACK
6
CONTINUOUS
10
3.22422
20
2.35677
11
3.23641
21
2.35677
0
LINE
8
BLACK
6
CONTINUOUS
10
3.23641
20
2.35677
11
3.23772
21
2.35642
0
LINE
8
BLACK
6
CONTINUOUS
10
2.97014
20
2.4544
11
2.97231
21
2.45224
0
LINE
8
BLACK
6
CONTINUOUS
10
2.97231
20
2.45224
11
2.9731
21
2.44929
0
LINE
8
BLACK
6
CONTINUOUS
10
2.9731
20
2.44929
11
2.9731
21
2.39811
0
LINE
8
BLACK
6
CONTINUOUS
10
2.9731
20
2.39811
11
2.97231
21
2.39515
0
LINE
8
BLACK
6
CONTINUOUS
10
2.97231
20
2.39515
11
2.97014
21
2.39299
0
LINE
8
BLACK
6
CONTINUOUS
10
2.97014
20
2.39299
11
2.96719
21
2.3922
0
LINE
8
BLACK
6
CONTINUOUS
10
2.96719
20
2.3922
11
2.96424
21
2.39299
0
LINE
8
BLACK
6
CONTINUOUS
10
2.96424
20
2.39299
11
2.96208
21
2.39515
0
LINE
8
BLACK
6
CONTINUOUS
10
2.96208
20
2.39515
11
2.96129
21
2.39811
0
LINE
8
BLACK
6
CONTINUOUS
10
2.96129
20
2.39811
11
2.96129
21
2.41657
0
LINE
8
BLACK
6
CONTINUOUS
10
2.96129
20
2.41657
11
2.95808
21
2.41657
0
LINE
8
BLACK
6
CONTINUOUS
10
2.95808
20
2.41657
11
2.94278
21
2.39472
0
LINE
8
BLACK
6
CONTINUOUS
10
2.94278
20
2.39472
11
2.94044
21
2.39275
0
LINE
8
BLACK
6
CONTINUOUS
10
2.94044
20
2.39275
11
2.93743
21
2.39222
0
LINE
8
BLACK
6
CONTINUOUS
10
2.93743
20
2.39222
11
2.93456
21
2.39327
0
LINE
8
BLACK
6
CONTINUOUS
10
2.93456
20
2.39327
11
2.93259
21
2.39561
0
LINE
8
BLACK
6
CONTINUOUS
10
2.93259
20
2.39561
11
2.93206
21
2.39862
0
LINE
8
BLACK
6
CONTINUOUS
10
2.93206
20
2.39862
11
2.93311
21
2.40149
0
LINE
8
BLACK
6
CONTINUOUS
10
2.93311
20
2.40149
11
2.94435
21
2.41755
0
LINE
8
BLACK
6
CONTINUOUS
10
2.94435
20
2.41755
11
2.94018
21
2.41963
0
LINE
8
BLACK
6
CONTINUOUS
10
2.94018
20
2.41963
11
2.93947
21
2.42026
0
LINE
8
BLACK
6
CONTINUOUS
10
2.93947
20
2.42026
11
2.93864
21
2.42074
0
LINE
8
BLACK
6
CONTINUOUS
10
2.93864
20
2.42074
11
2.93621
21
2.42318
0
LINE
8
BLACK
6
CONTINUOUS
10
2.93621
20
2.42318
11
2.93573
21
2.424
0
LINE
8
BLACK
6
CONTINUOUS
10
2.93573
20
2.424
11
2.9351
21
2.42471
0
LINE
8
BLACK
6
CONTINUOUS
10
2.9351
20
2.42471
11
2.93266
21
2.42959
0
LINE
8
BLACK
6
CONTINUOUS
10
2.93266
20
2.42959
11
2.93239
21
2.43092
0
LINE
8
BLACK
6
CONTINUOUS
10
2.93239
20
2.43092
11
2.93204
21
2.43223
0
LINE
8
BLACK
6
CONTINUOUS
10
2.93204
20
2.43223
11
2.93204
21
2.43954
0
LINE
8
BLACK
6
CONTINUOUS
10
2.93204
20
2.43954
11
2.93239
21
2.44085
0
LINE
8
BLACK
6
CONTINUOUS
10
2.93239
20
2.44085
11
2.93266
21
2.44218
0
LINE
8
BLACK
6
CONTINUOUS
10
2.93266
20
2.44218
11
2.9351
21
2.44705
0
LINE
8
BLACK
6
CONTINUOUS
10
2.9351
20
2.44705
11
2.93573
21
2.44777
0
LINE
8
BLACK
6
CONTINUOUS
10
2.93573
20
2.44777
11
2.93621
21
2.44859
0
LINE
8
BLACK
6
CONTINUOUS
10
2.93621
20
2.44859
11
2.93864
21
2.45103
0
LINE
8
BLACK
6
CONTINUOUS
10
2.93864
20
2.45103
11
2.93947
21
2.4515
0
LINE
8
BLACK
6
CONTINUOUS
10
2.93947
20
2.4515
11
2.94018
21
2.45213
0
LINE
8
BLACK
6
CONTINUOUS
10
2.94018
20
2.45213
11
2.94505
21
2.45457
0
LINE
8
BLACK
6
CONTINUOUS
10
2.94505
20
2.45457
11
2.94638
21
2.45484
0
LINE
8
BLACK
6
CONTINUOUS
10
2.94638
20
2.45484
11
2.94769
21
2.45519
0
LINE
8
BLACK
6
CONTINUOUS
10
2.94769
20
2.45519
11
2.96719
21
2.45519
0
LINE
8
BLACK
6
CONTINUOUS
10
2.96719
20
2.45519
11
2.97014
21
2.4544
0
LINE
8
BLACK
6
CONTINUOUS
10
2.94909
20
2.44338
11
2.94632
21
2.442
0
LINE
8
BLACK
6
CONTINUOUS
10
2.94632
20
2.442
11
2.94524
21
2.44091
0
LINE
8
BLACK
6
CONTINUOUS
10
2.94524
20
2.44091
11
2.94385
21
2.43814
0
LINE
8
BLACK
6
CONTINUOUS
10
2.94385
20
2.43814
11
2.94385
21
2.43362
0
LINE
8
BLACK
6
CONTINUOUS
10
2.94385
20
2.43362
11
2.94524
21
2.43085
0
LINE
8
BLACK
6
CONTINUOUS
10
2.94524
20
2.43085
11
2.94632
21
2.42977
0
LINE
8
BLACK
6
CONTINUOUS
10
2.94632
20
2.42977
11
2.94909
21
2.42838
0
LINE
8
BLACK
6
CONTINUOUS
10
2.94909
20
2.42838
11
2.96129
21
2.42838
0
LINE
8
BLACK
6
CONTINUOUS
10
2.96129
20
2.42838
11
2.96129
21
2.44338
0
LINE
8
BLACK
6
CONTINUOUS
10
2.96129
20
2.44338
11
2.94909
21
2.44338
0
LINE
8
BLACK
6
CONTINUOUS
10
3.33929
20
2.4544
11
3.34145
21
2.45224
0
LINE
8
BLACK
6
CONTINUOUS
10
3.34145
20
2.45224
11
3.34224
21
2.44929
0
LINE
8
BLACK
6
CONTINUOUS
10
3.34224
20
2.44929
11
3.34145
21
2.44633
0
LINE
8
BLACK
6
CONTINUOUS
10
3.34145
20
2.44633
11
3.33929
21
2.44417
0
LINE
8
BLACK
6
CONTINUOUS
10
3.33929
20
2.44417
11
3.33633
21
2.44338
0
LINE
8
BLACK
6
CONTINUOUS
10
3.33633
20
2.44338
11
3.32762
21
2.44338
0
LINE
8
BLACK
6
CONTINUOUS
10
3.32762
20
2.44338
11
3.32762
21
2.39811
0
LINE
8
BLACK
6
CONTINUOUS
10
3.32762
20
2.39811
11
3.32682
21
2.39515
0
LINE
8
BLACK
6
CONTINUOUS
10
3.32682
20
2.39515
11
3.32466
21
2.39299
0
LINE
8
BLACK
6
CONTINUOUS
10
3.32466
20
2.39299
11
3.32171
21
2.3922
0
LINE
8
BLACK
6
CONTINUOUS
10
3.32171
20
2.3922
11
3.31876
21
2.39299
0
LINE
8
BLACK
6
CONTINUOUS
10
3.31876
20
2.39299
11
3.3166
21
2.39515
0
LINE
8
BLACK
6
CONTINUOUS
10
3.3166
20
2.39515
11
3.3158
21
2.39811
0
LINE
8
BLACK
6
CONTINUOUS
10
3.3158
20
2.39811
11
3.3158
21
2.44338
0
LINE
8
BLACK
6
CONTINUOUS
10
3.3158
20
2.44338
11
3.30709
21
2.44338
0
LINE
8
BLACK
6
CONTINUOUS
10
3.30709
20
2.44338
11
3.30413
21
2.44417
0
LINE
8
BLACK
6
CONTINUOUS
10
3.30413
20
2.44417
11
3.30197
21
2.44633
0
LINE
8
BLACK
6
CONTINUOUS
10
3.30197
20
2.44633
11
3.30118
21
2.44929
0
LINE
8
BLACK
6
CONTINUOUS
10
3.30118
20
2.44929
11
3.30197
21
2.45224
0
LINE
8
BLACK
6
CONTINUOUS
10
3.30197
20
2.45224
11
3.30413
21
2.4544
0
LINE
8
BLACK
6
CONTINUOUS
10
3.30413
20
2.4544
11
3.30709
21
2.45519
0
LINE
8
BLACK
6
CONTINUOUS
10
3.30709
20
2.45519
11
3.33633
21
2.45519
0
LINE
8
BLACK
6
CONTINUOUS
10
3.33633
20
2.45519
11
3.33929
21
2.4544
0
LINE
8
BLACK
6
CONTINUOUS
10
3.23284
20
2.45484
11
3.23417
21
2.45457
0
LINE
8
BLACK
6
CONTINUOUS
10
3.23417
20
2.45457
11
3.23905
21
2.45213
0
LINE
8
BLACK
6
CONTINUOUS
10
3.23905
20
2.45213
11
3.23976
21
2.4515
0
LINE
8
BLACK
6
CONTINUOUS
10
3.23976
20
2.4515
11
3.24058
21
2.45103
0
LINE
8
BLACK
6
CONTINUOUS
10
3.24058
20
2.45103
11
3.24302
21
2.44859
0
LINE
8
BLACK
6
CONTINUOUS
10
3.24302
20
2.44859
11
3.2435
21
2.44777
0
LINE
8
BLACK
6
CONTINUOUS
10
3.2435
20
2.44777
11
3.24413
21
2.44705
0
LINE
8
BLACK
6
CONTINUOUS
10
3.24413
20
2.44705
11
3.24656
21
2.44218
0
LINE
8
BLACK
6
CONTINUOUS
10
3.24656
20
2.44218
11
3.2467
21
2.44154
0
LINE
8
BLACK
6
CONTINUOUS
10
3.2467
20
2.44154
11
3.24701
21
2.44097
0
LINE
8
BLACK
6
CONTINUOUS
10
3.24701
20
2.44097
11
3.24945
21
2.43122
0
LINE
8
BLACK
6
CONTINUOUS
10
3.24945
20
2.43122
11
3.24944
21
2.43049
0
LINE
8
BLACK
6
CONTINUOUS
10
3.24944
20
2.43049
11
3.24963
21
2.42979
0
LINE
8
BLACK
6
CONTINUOUS
10
3.24963
20
2.42979
11
3.24963
21
2.4176
0
LINE
8
BLACK
6
CONTINUOUS
10
3.24963
20
2.4176
11
3.24944
21
2.4169
0
LINE
8
BLACK
6
CONTINUOUS
10
3.24944
20
2.4169
11
3.24945
21
2.41617
0
LINE
8
BLACK
6
CONTINUOUS
10
3.24945
20
2.41617
11
3.24701
21
2.40642
0
LINE
8
BLACK
6
CONTINUOUS
10
3.24701
20
2.40642
11
3.2467
21
2.40585
0
LINE
8
BLACK
6
CONTINUOUS
10
3.2467
20
2.40585
11
3.24656
21
2.40521
0
LINE
8
BLACK
6
CONTINUOUS
10
3.24656
20
2.40521
11
3.24413
21
2.40034
0
LINE
8
BLACK
6
CONTINUOUS
10
3.24413
20
2.40034
11
3.2435
21
2.39963
0
LINE
8
BLACK
6
CONTINUOUS
10
3.2435
20
2.39963
11
3.24302
21
2.39881
0
LINE
8
BLACK
6
CONTINUOUS
10
3.24302
20
2.39881
11
3.24058
21
2.39637
0
LINE
8
BLACK
6
CONTINUOUS
10
3.24058
20
2.39637
11
3.23976
21
2.39589
0
LINE
8
BLACK
6
CONTINUOUS
10
3.23976
20
2.39589
11
3.23905
21
2.39526
0
LINE
8
BLACK
6
CONTINUOUS
10
3.23905
20
2.39526
11
3.23417
21
2.39282
0
LINE
8
BLACK
6
CONTINUOUS
10
3.23417
20
2.39282
11
3.23284
21
2.39255
0
LINE
8
BLACK
6
CONTINUOUS
10
3.23284
20
2.39255
11
3.23153
21
2.3922
0
LINE
8
BLACK
6
CONTINUOUS
10
3.23153
20
2.3922
11
3.22666
21
2.3922
0
LINE
8
BLACK
6
CONTINUOUS
10
3.22666
20
2.3922
11
3.22535
21
2.39255
0
LINE
8
BLACK
6
CONTINUOUS
10
3.22535
20
2.39255
11
3.22402
21
2.39282
0
LINE
8
BLACK
6
CONTINUOUS
10
3.22402
20
2.39282
11
3.21914
21
2.39526
0
LINE
8
BLACK
6
CONTINUOUS
10
3.21914
20
2.39526
11
3.21843
21
2.39589
0
LINE
8
BLACK
6
CONTINUOUS
10
3.21843
20
2.39589
11
3.21761
21
2.39637
0
LINE
8
BLACK
6
CONTINUOUS
10
3.21761
20
2.39637
11
3.21517
21
2.39881
0
LINE
8
BLACK
6
CONTINUOUS
10
3.21517
20
2.39881
11
3.2147
21
2.39963
0
LINE
8
BLACK
6
CONTINUOUS
10
3.2147
20
2.39963
11
3.21407
21
2.40034
0
LINE
8
BLACK
6
CONTINUOUS
10
3.21407
20
2.40034
11
3.21163
21
2.40521
0
LINE
8
BLACK
6
CONTINUOUS
10
3.21163
20
2.40521
11
3.2115
21
2.40585
0
LINE
8
BLACK
6
CONTINUOUS
10
3.2115
20
2.40585
11
3.21118
21
2.40642
0
LINE
8
BLACK
6
CONTINUOUS
10
3.21118
20
2.40642
11
3.20874
21
2.41617
0
LINE
8
BLACK
6
CONTINUOUS
10
3.20874
20
2.41617
11
3.20876
21
2.4169
0
LINE
8
BLACK
6
CONTINUOUS
10
3.20876
20
2.4169
11
3.20857
21
2.4176
0
LINE
8
BLACK
6
CONTINUOUS
10
3.20857
20
2.4176
11
3.20857
21
2.42979
0
LINE
8
BLACK
6
CONTINUOUS
10
3.20857
20
2.42979
11
3.20876
21
2.43049
0
LINE
8
BLACK
6
CONTINUOUS
10
3.20876
20
2.43049
11
3.20874
21
2.43122
0
LINE
8
BLACK
6
CONTINUOUS
10
3.20874
20
2.43122
11
3.21118
21
2.44097
0
LINE
8
BLACK
6
CONTINUOUS
10
3.21118
20
2.44097
11
3.2115
21
2.44154
0
LINE
8
BLACK
6
CONTINUOUS
10
3.2115
20
2.44154
11
3.21163
21
2.44218
0
LINE
8
BLACK
6
CONTINUOUS
10
3.21163
20
2.44218
11
3.21407
21
2.44705
0
LINE
8
BLACK
6
CONTINUOUS
10
3.21407
20
2.44705
11
3.2147
21
2.44777
0
LINE
8
BLACK
6
CONTINUOUS
10
3.2147
20
2.44777
11
3.21517
21
2.44859
0
LINE
8
BLACK
6
CONTINUOUS
10
3.21517
20
2.44859
11
3.21761
21
2.45103
0
LINE
8
BLACK
6
CONTINUOUS
10
3.21761
20
2.45103
11
3.21843
21
2.4515
0
LINE
8
BLACK
6
CONTINUOUS
10
3.21843
20
2.4515
11
3.21914
21
2.45213
0
LINE
8
BLACK
6
CONTINUOUS
10
3.21914
20
2.45213
11
3.22402
21
2.45457
0
LINE
8
BLACK
6
CONTINUOUS
10
3.22402
20
2.45457
11
3.22535
21
2.45484
0
LINE
8
BLACK
6
CONTINUOUS
10
3.22535
20
2.45484
11
3.22666
21
2.45519
0
LINE
8
BLACK
6
CONTINUOUS
10
3.22666
20
2.45519
11
3.23153
21
2.45519
0
LINE
8
BLACK
6
CONTINUOUS
10
3.23153
20
2.45519
11
3.23284
21
2.45484
0
LINE
8
BLACK
6
CONTINUOUS
10
3.22805
20
2.44338
11
3.22528
21
2.442
0
LINE
8
BLACK
6
CONTINUOUS
10
3.22528
20
2.442
11
3.2242
21
2.44091
0
LINE
8
BLACK
6
CONTINUOUS
10
3.2242
20
2.44091
11
3.22248
21
2.43748
0
LINE
8
BLACK
6
CONTINUOUS
10
3.22248
20
2.43748
11
3.22038
21
2.42906
0
LINE
8
BLACK
6
CONTINUOUS
10
3.22038
20
2.42906
11
3.22038
21
2.41833
0
LINE
8
BLACK
6
CONTINUOUS
10
3.22038
20
2.41833
11
3.22248
21
2.40992
0
LINE
8
BLACK
6
CONTINUOUS
10
3.22248
20
2.40992
11
3.2242
21
2.40648
0
LINE
8
BLACK
6
CONTINUOUS
10
3.2242
20
2.40648
11
3.22528
21
2.4054
0
LINE
8
BLACK
6
CONTINUOUS
10
3.22528
20
2.4054
11
3.22805
21
2.40401
0
LINE
8
BLACK
6
CONTINUOUS
10
3.22805
20
2.40401
11
3.23014
21
2.40401
0
LINE
8
BLACK
6
CONTINUOUS
10
3.23014
20
2.40401
11
3.23291
21
2.4054
0
LINE
8
BLACK
6
CONTINUOUS
10
3.23291
20
2.4054
11
3.23399
21
2.40648
0
LINE
8
BLACK
6
CONTINUOUS
10
3.23399
20
2.40648
11
3.23571
21
2.40992
0
LINE
8
BLACK
6
CONTINUOUS
10
3.23571
20
2.40992
11
3.23781
21
2.41833
0
LINE
8
BLACK
6
CONTINUOUS
10
3.23781
20
2.41833
11
3.23781
21
2.42906
0
LINE
8
BLACK
6
CONTINUOUS
10
3.23781
20
2.42906
11
3.23571
21
2.43748
0
LINE
8
BLACK
6
CONTINUOUS
10
3.23571
20
2.43748
11
3.23399
21
2.44091
0
LINE
8
BLACK
6
CONTINUOUS
10
3.23399
20
2.44091
11
3.23291
21
2.442
0
LINE
8
BLACK
6
CONTINUOUS
10
3.23291
20
2.442
11
3.23014
21
2.44338
0
LINE
8
BLACK
6
CONTINUOUS
10
3.23014
20
2.44338
11
3.22805
21
2.44338
0
LINE
8
BLACK
6
CONTINUOUS
10
3.29818
20
2.4542
11
3.30019
21
2.45191
0
LINE
8
BLACK
6
CONTINUOUS
10
3.30019
20
2.45191
11
3.30079
21
2.44891
0
LINE
8
BLACK
6
CONTINUOUS
10
3.30079
20
2.44891
11
3.29981
21
2.44601
0
LINE
8
BLACK
6
CONTINUOUS
10
3.29981
20
2.44601
11
3.28494
21
2.4237
0
LINE
8
BLACK
6
CONTINUOUS
10
3.28494
20
2.4237
11
3.29981
21
2.40138
0
LINE
8
BLACK
6
CONTINUOUS
10
3.29981
20
2.40138
11
3.30079
21
2.39849
0
LINE
8
BLACK
6
CONTINUOUS
10
3.30079
20
2.39849
11
3.30019
21
2.39549
0
LINE
8
BLACK
6
CONTINUOUS
10
3.30019
20
2.39549
11
3.29818
21
2.39319
0
LINE
8
BLACK
6
CONTINUOUS
10
3.29818
20
2.39319
11
3.29528
21
2.39221
0
LINE
8
BLACK
6
CONTINUOUS
10
3.29528
20
2.39221
11
3.29228
21
2.39281
0
LINE
8
BLACK
6
CONTINUOUS
10
3.29228
20
2.39281
11
3.28999
21
2.39483
0
LINE
8
BLACK
6
CONTINUOUS
10
3.28999
20
2.39483
11
3.27784
21
2.41305
0
LINE
8
BLACK
6
CONTINUOUS
10
3.27784
20
2.41305
11
3.26569
21
2.39483
0
LINE
8
BLACK
6
CONTINUOUS
10
3.26569
20
2.39483
11
3.2634
21
2.39281
0
LINE
8
BLACK
6
CONTINUOUS
10
3.2634
20
2.39281
11
3.2604
21
2.39221
0
LINE
8
BLACK
6
CONTINUOUS
10
3.2604
20
2.39221
11
3.2575
21
2.39319
0
LINE
8
BLACK
6
CONTINUOUS
10
3.2575
20
2.39319
11
3.25549
21
2.39549
0
LINE
8
BLACK
6
CONTINUOUS
10
3.25549
20
2.39549
11
3.25489
21
2.39849
0
LINE
8
BLACK
6
CONTINUOUS
10
3.25489
20
2.39849
11
3.25587
21
2.40138
0
LINE
8
BLACK
6
CONTINUOUS
10
3.25587
20
2.40138
11
3.27074
21
2.4237
0
LINE
8
BLACK
6
CONTINUOUS
10
3.27074
20
2.4237
11
3.25587
21
2.44601
0
LINE
8
BLACK
6
CONTINUOUS
10
3.25587
20
2.44601
11
3.25489
21
2.44891
0
LINE
8
BLACK
6
CONTINUOUS
10
3.25489
20
2.44891
11
3.25549
21
2.45191
0
LINE
8
BLACK
6
CONTINUOUS
10
3.25549
20
2.45191
11
3.2575
21
2.4542
0
LINE
8
BLACK
6
CONTINUOUS
10
3.2575
20
2.4542
11
3.2604
21
2.45518
0
LINE
8
BLACK
6
CONTINUOUS
10
3.2604
20
2.45518
11
3.2634
21
2.45458
0
LINE
8
BLACK
6
CONTINUOUS
10
3.2634
20
2.45458
11
3.26569
21
2.45256
0
LINE
8
BLACK
6
CONTINUOUS
10
3.26569
20
2.45256
11
3.27784
21
2.43434
0
LINE
8
BLACK
6
CONTINUOUS
10
3.27784
20
2.43434
11
3.28999
21
2.45256
0
LINE
8
BLACK
6
CONTINUOUS
10
3.28999
20
2.45256
11
3.29228
21
2.45458
0
LINE
8
BLACK
6
CONTINUOUS
10
3.29228
20
2.45458
11
3.29528
21
2.45518
0
LINE
8
BLACK
6
CONTINUOUS
10
3.29528
20
2.45518
11
3.29818
21
2.4542
0
LINE
8
BLACK
6
CONTINUOUS
10
3.22346
20
2.55822
11
3.22604
21
2.55658
0
LINE
8
BLACK
6
CONTINUOUS
10
3.22604
20
2.55658
11
3.22746
21
2.55387
0
LINE
8
BLACK
6
CONTINUOUS
10
3.22746
20
2.55387
11
3.2313
21
2.53656
0
LINE
8
BLACK
6
CONTINUOUS
10
3.2313
20
2.53656
11
3.23631
21
2.53656
0
LINE
8
BLACK
6
CONTINUOUS
10
3.23631
20
2.53656
11
3.23927
21
2.53577
0
LINE
8
BLACK
6
CONTINUOUS
10
3.23927
20
2.53577
11
3.24143
21
2.53361
0
LINE
8
BLACK
6
CONTINUOUS
10
3.24143
20
2.53361
11
3.24222
21
2.53065
0
LINE
8
BLACK
6
CONTINUOUS
10
3.24222
20
2.53065
11
3.24143
21
2.5277
0
LINE
8
BLACK
6
CONTINUOUS
10
3.24143
20
2.5277
11
3.23927
21
2.52554
0
LINE
8
BLACK
6
CONTINUOUS
10
3.23927
20
2.52554
11
3.23631
21
2.52475
0
LINE
8
BLACK
6
CONTINUOUS
10
3.23631
20
2.52475
11
3.23393
21
2.52475
0
LINE
8
BLACK
6
CONTINUOUS
10
3.23393
20
2.52475
11
3.23618
21
2.51462
0
LINE
8
BLACK
6
CONTINUOUS
10
3.23618
20
2.51462
11
3.24119
21
2.51462
0
LINE
8
BLACK
6
CONTINUOUS
10
3.24119
20
2.51462
11
3.24414
21
2.51383
0
LINE
8
BLACK
6
CONTINUOUS
10
3.24414
20
2.51383
11
3.2463
21
2.51167
0
LINE
8
BLACK
6
CONTINUOUS
10
3.2463
20
2.51167
11
3.24709
21
2.50872
0
LINE
8
BLACK
6
CONTINUOUS
10
3.24709
20
2.50872
11
3.2463
21
2.50576
0
LINE
8
BLACK
6
CONTINUOUS
10
3.2463
20
2.50576
11
3.24414
21
2.5036
0
LINE
8
BLACK
6
CONTINUOUS
10
3.24414
20
2.5036
11
3.24119
21
2.50281
0
LINE
8
BLACK
6
CONTINUOUS
10
3.24119
20
2.50281
11
3.2388
21
2.50281
0
LINE
8
BLACK
6
CONTINUOUS
10
3.2388
20
2.50281
11
3.24208
21
2.48806
0
LINE
8
BLACK
6
CONTINUOUS
10
3.24208
20
2.48806
11
3.24195
21
2.48501
0
LINE
8
BLACK
6
CONTINUOUS
10
3.24195
20
2.48501
11
3.24031
21
2.48243
0
LINE
8
BLACK
6
CONTINUOUS
10
3.24031
20
2.48243
11
3.2376
21
2.48102
0
LINE
8
BLACK
6
CONTINUOUS
10
3.2376
20
2.48102
11
3.23454
21
2.48115
0
LINE
8
BLACK
6
CONTINUOUS
10
3.23454
20
2.48115
11
3.23196
21
2.48279
0
LINE
8
BLACK
6
CONTINUOUS
10
3.23196
20
2.48279
11
3.23055
21
2.4855
0
LINE
8
BLACK
6
CONTINUOUS
10
3.23055
20
2.4855
11
3.2267
21
2.50281
0
LINE
8
BLACK
6
CONTINUOUS
10
3.2267
20
2.50281
11
3.22174
21
2.50281
0
LINE
8
BLACK
6
CONTINUOUS
10
3.22174
20
2.50281
11
3.22502
21
2.48806
0
LINE
8
BLACK
6
CONTINUOUS
10
3.22502
20
2.48806
11
3.22489
21
2.48501
0
LINE
8
BLACK
6
CONTINUOUS
10
3.22489
20
2.48501
11
3.22325
21
2.48243
0
LINE
8
BLACK
6
CONTINUOUS
10
3.22325
20
2.48243
11
3.22053
21
2.48102
0
LINE
8
BLACK
6
CONTINUOUS
10
3.22053
20
2.48102
11
3.21748
21
2.48115
0
LINE
8
BLACK
6
CONTINUOUS
10
3.21748
20
2.48115
11
3.2149
21
2.48279
0
LINE
8
BLACK
6
CONTINUOUS
10
3.2149
20
2.48279
11
3.21349
21
2.4855
0
LINE
8
BLACK
6
CONTINUOUS
10
3.21349
20
2.4855
11
3.20964
21
2.50281
0
LINE
8
BLACK
6
CONTINUOUS
10
3.20964
20
2.50281
11
3.20463
21
2.50281
0
LINE
8
BLACK
6
CONTINUOUS
10
3.20463
20
2.50281
11
3.20168
21
2.5036
0
LINE
8
BLACK
6
CONTINUOUS
10
3.20168
20
2.5036
11
3.19952
21
2.50576
0
LINE
8
BLACK
6
CONTINUOUS
10
3.19952
20
2.50576
11
3.19873
21
2.50872
0
LINE
8
BLACK
6
CONTINUOUS
10
3.19873
20
2.50872
11
3.19952
21
2.51167
0
LINE
8
BLACK
6
CONTINUOUS
10
3.19952
20
2.51167
11
3.20168
21
2.51383
0
LINE
8
BLACK
6
CONTINUOUS
10
3.20168
20
2.51383
11
3.20463
21
2.51462
0
LINE
8
BLACK
6
CONTINUOUS
10
3.20463
20
2.51462
11
3.20702
21
2.51462
0
LINE
8
BLACK
6
CONTINUOUS
10
3.20702
20
2.51462
11
3.20477
21
2.52475
0
LINE
8
BLACK
6
CONTINUOUS
10
3.20477
20
2.52475
11
3.19976
21
2.52475
0
LINE
8
BLACK
6
CONTINUOUS
10
3.19976
20
2.52475
11
3.1968
21
2.52554
0
LINE
8
BLACK
6
CONTINUOUS
10
3.1968
20
2.52554
11
3.19464
21
2.5277
0
LINE
8
BLACK
6
CONTINUOUS
10
3.19464
20
2.5277
11
3.19385
21
2.53065
0
LINE
8
BLACK
6
CONTINUOUS
10
3.19385
20
2.53065
11
3.19464
21
2.53361
0
LINE
8
BLACK
6
CONTINUOUS
10
3.19464
20
2.53361
11
3.1968
21
2.53577
0
LINE
8
BLACK
6
CONTINUOUS
10
3.1968
20
2.53577
11
3.19976
21
2.53656
0
LINE
8
BLACK
6
CONTINUOUS
10
3.19976
20
2.53656
11
3.20214
21
2.53656
0
LINE
8
BLACK
6
CONTINUOUS
10
3.20214
20
2.53656
11
3.19887
21
2.55131
0
LINE
8
BLACK
6
CONTINUOUS
10
3.19887
20
2.55131
11
3.199
21
2.55436
0
LINE
8
BLACK
6
CONTINUOUS
10
3.199
20
2.55436
11
3.20064
21
2.55694
0
LINE
8
BLACK
6
CONTINUOUS
10
3.20064
20
2.55694
11
3.20335
21
2.55835
0
LINE
8
BLACK
6
CONTINUOUS
10
3.20335
20
2.55835
11
3.2064
21
2.55822
0
LINE
8
BLACK
6
CONTINUOUS
10
3.2064
20
2.55822
11
3.20898
21
2.55658
0
LINE
8
BLACK
6
CONTINUOUS
10
3.20898
20
2.55658
11
3.2104
21
2.55387
0
LINE
8
BLACK
6
CONTINUOUS
10
3.2104
20
2.55387
11
3.21424
21
2.53656
0
LINE
8
BLACK
6
CONTINUOUS
10
3.21424
20
2.53656
11
3.2192
21
2.53656
0
LINE
8
BLACK
6
CONTINUOUS
10
3.2192
20
2.53656
11
3.21593
21
2.55131
0
LINE
8
BLACK
6
CONTINUOUS
10
3.21593
20
2.55131
11
3.21606
21
2.55436
0
LINE
8
BLACK
6
CONTINUOUS
10
3.21606
20
2.55436
11
3.2177
21
2.55694
0
LINE
8
BLACK
6
CONTINUOUS
10
3.2177
20
2.55694
11
3.22041
21
2.55835
0
LINE
8
BLACK
6
CONTINUOUS
10
3.22041
20
2.55835
11
3.22346
21
2.55822
0
LINE
8
BLACK
6
CONTINUOUS
10
3.21687
20
2.52475
11
3.21912
21
2.51462
0
LINE
8
BLACK
6
CONTINUOUS
10
3.21912
20
2.51462
11
3.22408
21
2.51462
0
LINE
8
BLACK
6
CONTINUOUS
10
3.22408
20
2.51462
11
3.22183
21
2.52475
0
LINE
8
BLACK
6
CONTINUOUS
10
3.22183
20
2.52475
11
3.21687
21
2.52475
0
LINE
8
BLACK
6
CONTINUOUS
10
3.31562
20
2.55327
11
3.31695
21
2.55299
0
LINE
8
BLACK
6
CONTINUOUS
10
3.31695
20
2.55299
11
3.32182
21
2.55056
0
LINE
8
BLACK
6
CONTINUOUS
10
3.32182
20
2.55056
11
3.32253
21
2.54993
0
LINE
8
BLACK
6
CONTINUOUS
10
3.32253
20
2.54993
11
3.32335
21
2.54945
0
LINE
8
BLACK
6
CONTINUOUS
10
3.32335
20
2.54945
11
3.32579
21
2.54701
0
LINE
8
BLACK
6
CONTINUOUS
10
3.32579
20
2.54701
11
3.32627
21
2.54619
0
LINE
8
BLACK
6
CONTINUOUS
10
3.32627
20
2.54619
11
3.3269
21
2.54548
0
LINE
8
BLACK
6
CONTINUOUS
10
3.3269
20
2.54548
11
3.32934
21
2.5406
0
LINE
8
BLACK
6
CONTINUOUS
10
3.32934
20
2.5406
11
3.32961
21
2.53928
0
LINE
8
BLACK
6
CONTINUOUS
10
3.32961
20
2.53928
11
3.32996
21
2.53796
0
LINE
8
BLACK
6
CONTINUOUS
10
3.32996
20
2.53796
11
3.32996
21
2.53309
0
LINE
8
BLACK
6
CONTINUOUS
10
3.32996
20
2.53309
11
3.32961
21
2.53178
0
LINE
8
BLACK
6
CONTINUOUS
10
3.32961
20
2.53178
11
3.32934
21
2.53045
0
LINE
8
BLACK
6
CONTINUOUS
10
3.32934
20
2.53045
11
3.3269
21
2.52557
0
LINE
8
BLACK
6
CONTINUOUS
10
3.3269
20
2.52557
11
3.32627
21
2.52486
0
LINE
8
BLACK
6
CONTINUOUS
10
3.32627
20
2.52486
11
3.32579
21
2.52404
0
LINE
8
BLACK
6
CONTINUOUS
10
3.32579
20
2.52404
11
3.32335
21
2.5216
0
LINE
8
BLACK
6
CONTINUOUS
10
3.32335
20
2.5216
11
3.32253
21
2.52113
0
LINE
8
BLACK
6
CONTINUOUS
10
3.32253
20
2.52113
11
3.32182
21
2.5205
0
LINE
8
BLACK
6
CONTINUOUS
10
3.32182
20
2.5205
11
3.31695
21
2.51806
0
LINE
8
BLACK
6
CONTINUOUS
10
3.31695
20
2.51806
11
3.31631
21
2.51793
0
LINE
8
BLACK
6
CONTINUOUS
10
3.31631
20
2.51793
11
3.31574
21
2.51761
0
LINE
8
BLACK
6
CONTINUOUS
10
3.31574
20
2.51761
11
3.30662
21
2.51533
0
LINE
8
BLACK
6
CONTINUOUS
10
3.30662
20
2.51533
11
3.30318
21
2.51361
0
LINE
8
BLACK
6
CONTINUOUS
10
3.30318
20
2.51361
11
3.3021
21
2.51253
0
LINE
8
BLACK
6
CONTINUOUS
10
3.3021
20
2.51253
11
3.30071
21
2.50976
0
LINE
8
BLACK
6
CONTINUOUS
10
3.30071
20
2.50976
11
3.30071
21
2.50767
0
LINE
8
BLACK
6
CONTINUOUS
10
3.30071
20
2.50767
11
3.3021
21
2.5049
0
LINE
8
BLACK
6
CONTINUOUS
10
3.3021
20
2.5049
11
3.30318
21
2.50382
0
LINE
8
BLACK
6
CONTINUOUS
10
3.30318
20
2.50382
11
3.30595
21
2.50244
0
LINE
8
BLACK
6
CONTINUOUS
10
3.30595
20
2.50244
11
3.31578
21
2.50244
0
LINE
8
BLACK
6
CONTINUOUS
10
3.31578
20
2.50244
11
3.32219
21
2.50457
0
LINE
8
BLACK
6
CONTINUOUS
10
3.32219
20
2.50457
11
3.32524
21
2.50475
0
LINE
8
BLACK
6
CONTINUOUS
10
3.32524
20
2.50475
11
3.32797
21
2.50339
0
LINE
8
BLACK
6
CONTINUOUS
10
3.32797
20
2.50339
11
3.32966
21
2.50084
0
LINE
8
BLACK
6
CONTINUOUS
10
3.32966
20
2.50084
11
3.32984
21
2.49778
0
LINE
8
BLACK
6
CONTINUOUS
10
3.32984
20
2.49778
11
3.32847
21
2.49505
0
LINE
8
BLACK
6
CONTINUOUS
10
3.32847
20
2.49505
11
3.32592
21
2.49337
0
LINE
8
BLACK
6
CONTINUOUS
10
3.32592
20
2.49337
11
3.31861
21
2.49093
0
LINE
8
BLACK
6
CONTINUOUS
10
3.31861
20
2.49093
11
3.31766
21
2.49087
0
LINE
8
BLACK
6
CONTINUOUS
10
3.31766
20
2.49087
11
3.31674
21
2.49063
0
LINE
8
BLACK
6
CONTINUOUS
10
3.31674
20
2.49063
11
3.30456
21
2.49063
0
LINE
8
BLACK
6
CONTINUOUS
10
3.30456
20
2.49063
11
3.30324
21
2.49098
0
LINE
8
BLACK
6
CONTINUOUS
10
3.30324
20
2.49098
11
3.30191
21
2.49125
0
LINE
8
BLACK
6
CONTINUOUS
10
3.30191
20
2.49125
11
3.29704
21
2.49369
0
LINE
8
BLACK
6
CONTINUOUS
10
3.29704
20
2.49369
11
3.29633
21
2.49432
0
LINE
8
BLACK
6
CONTINUOUS
10
3.29633
20
2.49432
11
3.29551
21
2.49479
0
LINE
8
BLACK
6
CONTINUOUS
10
3.29551
20
2.49479
11
3.29307
21
2.49723
0
LINE
8
BLACK
6
CONTINUOUS
10
3.29307
20
2.49723
11
3.29259
21
2.49805
0
LINE
8
BLACK
6
CONTINUOUS
10
3.29259
20
2.49805
11
3.29196
21
2.49877
0
LINE
8
BLACK
6
CONTINUOUS
10
3.29196
20
2.49877
11
3.28952
21
2.50364
0
LINE
8
BLACK
6
CONTINUOUS
10
3.28952
20
2.50364
11
3.28925
21
2.50497
0
LINE
8
BLACK
6
CONTINUOUS
10
3.28925
20
2.50497
11
3.2889
21
2.50628
0
LINE
8
BLACK
6
CONTINUOUS
10
3.2889
20
2.50628
11
3.2889
21
2.51115
0
LINE
8
BLACK
6
CONTINUOUS
10
3.2889
20
2.51115
11
3.28925
21
2.51247
0
LINE
8
BLACK
6
CONTINUOUS
10
3.28925
20
2.51247
11
3.28952
21
2.5138
0
LINE
8
BLACK
6
CONTINUOUS
10
3.28952
20
2.5138
11
3.29196
21
2.51867
0
LINE
8
BLACK
6
CONTINUOUS
10
3.29196
20
2.51867
11
3.29259
21
2.51938
0
LINE
8
BLACK
6
CONTINUOUS
10
3.29259
20
2.51938
11
3.29307
21
2.5202
0
LINE
8
BLACK
6
CONTINUOUS
10
3.29307
20
2.5202
11
3.29551
21
2.52264
0
LINE
8
BLACK
6
CONTINUOUS
10
3.29551
20
2.52264
11
3.29633
21
2.52312
0
LINE
8
BLACK
6
CONTINUOUS
10
3.29633
20
2.52312
11
3.29704
21
2.52375
0
LINE
8
BLACK
6
CONTINUOUS
10
3.29704
20
2.52375
11
3.30191
21
2.52619
0
LINE
8
BLACK
6
CONTINUOUS
10
3.30191
20
2.52619
11
3.30255
21
2.52632
0
LINE
8
BLACK
6
CONTINUOUS
10
3.30255
20
2.52632
11
3.30312
21
2.52663
0
LINE
8
BLACK
6
CONTINUOUS
10
3.30312
20
2.52663
11
3.31224
21
2.52891
0
LINE
8
BLACK
6
CONTINUOUS
10
3.31224
20
2.52891
11
3.31568
21
2.53063
0
LINE
8
BLACK
6
CONTINUOUS
10
3.31568
20
2.53063
11
3.31676
21
2.53171
0
LINE
8
BLACK
6
CONTINUOUS
10
3.31676
20
2.53171
11
3.31815
21
2.53448
0
LINE
8
BLACK
6
CONTINUOUS
10
3.31815
20
2.53448
11
3.31815
21
2.53657
0
LINE
8
BLACK
6
CONTINUOUS
10
3.31815
20
2.53657
11
3.31676
21
2.53934
0
LINE
8
BLACK
6
CONTINUOUS
10
3.31676
20
2.53934
11
3.31568
21
2.54042
0
LINE
8
BLACK
6
CONTINUOUS
10
3.31568
20
2.54042
11
3.31291
21
2.54181
0
LINE
8
BLACK
6
CONTINUOUS
10
3.31291
20
2.54181
11
3.30308
21
2.54181
0
LINE
8
BLACK
6
CONTINUOUS
10
3.30308
20
2.54181
11
3.29667
21
2.53967
0
LINE
8
BLACK
6
CONTINUOUS
10
3.29667
20
2.53967
11
3.29362
21
2.53949
0
LINE
8
BLACK
6
CONTINUOUS
10
3.29362
20
2.53949
11
3.29089
21
2.54086
0
LINE
8
BLACK
6
CONTINUOUS
10
3.29089
20
2.54086
11
3.2892
21
2.54341
0
LINE
8
BLACK
6
CONTINUOUS
10
3.2892
20
2.54341
11
3.28902
21
2.54646
0
LINE
8
BLACK
6
CONTINUOUS
10
3.28902
20
2.54646
11
3.29039
21
2.54919
0
LINE
8
BLACK
6
CONTINUOUS
10
3.29039
20
2.54919
11
3.29294
21
2.55088
0
LINE
8
BLACK
6
CONTINUOUS
10
3.29294
20
2.55088
11
3.30025
21
2.55332
0
LINE
8
BLACK
6
CONTINUOUS
10
3.30025
20
2.55332
11
3.3012
21
2.55337
0
LINE
8
BLACK
6
CONTINUOUS
10
3.3012
20
2.55337
11
3.30212
21
2.55362
0
LINE
8
BLACK
6
CONTINUOUS
10
3.30212
20
2.55362
11
3.3143
21
2.55362
0
LINE
8
BLACK
6
CONTINUOUS
10
3.3143
20
2.55362
11
3.31562
21
2.55327
0
LINE
8
BLACK
6
CONTINUOUS
10
3.37575
20
2.55283
11
3.37791
21
2.55067
0
LINE
8
BLACK
6
CONTINUOUS
10
3.37791
20
2.55067
11
3.3787
21
2.54771
0
LINE
8
BLACK
6
CONTINUOUS
10
3.3787
20
2.54771
11
3.3787
21
2.49653
0
LINE
8
BLACK
6
CONTINUOUS
10
3.3787
20
2.49653
11
3.37791
21
2.49358
0
LINE
8
BLACK
6
CONTINUOUS
10
3.37791
20
2.49358
11
3.37575
21
2.49142
0
LINE
8
BLACK
6
CONTINUOUS
10
3.37575
20
2.49142
11
3.3728
21
2.49063
0
LINE
8
BLACK
6
CONTINUOUS
10
3.3728
20
2.49063
11
3.36984
21
2.49142
0
LINE
8
BLACK
6
CONTINUOUS
10
3.36984
20
2.49142
11
3.36768
21
2.49358
0
LINE
8
BLACK
6
CONTINUOUS
10
3.36768
20
2.49358
11
3.36689
21
2.49653
0
LINE
8
BLACK
6
CONTINUOUS
10
3.36689
20
2.49653
11
3.36689
21
2.515
0
LINE
8
BLACK
6
CONTINUOUS
10
3.36689
20
2.515
11
3.36369
21
2.515
0
LINE
8
BLACK
6
CONTINUOUS
10
3.36369
20
2.515
11
3.34839
21
2.49315
0
LINE
8
BLACK
6
CONTINUOUS
10
3.34839
20
2.49315
11
3.34605
21
2.49118
0
LINE
8
BLACK
6
CONTINUOUS
10
3.34605
20
2.49118
11
3.34304
21
2.49065
0
LINE
8
BLACK
6
CONTINUOUS
10
3.34304
20
2.49065
11
3.34016
21
2.49169
0
LINE
8
BLACK
6
CONTINUOUS
10
3.34016
20
2.49169
11
3.3382
21
2.49404
0
LINE
8
BLACK
6
CONTINUOUS
10
3.3382
20
2.49404
11
3.33767
21
2.49705
0
LINE
8
BLACK
6
CONTINUOUS
10
3.33767
20
2.49705
11
3.33871
21
2.49992
0
LINE
8
BLACK
6
CONTINUOUS
10
3.33871
20
2.49992
11
3.34995
21
2.51597
0
LINE
8
BLACK
6
CONTINUOUS
10
3.34995
20
2.51597
11
3.34578
21
2.51806
0
LINE
8
BLACK
6
CONTINUOUS
10
3.34578
20
2.51806
11
3.34507
21
2.51869
0
LINE
8
BLACK
6
CONTINUOUS
10
3.34507
20
2.51869
11
3.34425
21
2.51916
0
LINE
8
BLACK
6
CONTINUOUS
10
3.34425
20
2.51916
11
3.34181
21
2.5216
0
LINE
8
BLACK
6
CONTINUOUS
10
3.34181
20
2.5216
11
3.34134
21
2.52243
0
LINE
8
BLACK
6
CONTINUOUS
10
3.34134
20
2.52243
11
3.34071
21
2.52314
0
LINE
8
BLACK
6
CONTINUOUS
10
3.34071
20
2.52314
11
3.33827
21
2.52801
0
LINE
8
BLACK
6
CONTINUOUS
10
3.33827
20
2.52801
11
3.338
21
2.52934
0
LINE
8
BLACK
6
CONTINUOUS
10
3.338
20
2.52934
11
3.33765
21
2.53065
0
LINE
8
BLACK
6
CONTINUOUS
10
3.33765
20
2.53065
11
3.33765
21
2.53796
0
LINE
8
BLACK
6
CONTINUOUS
10
3.33765
20
2.53796
11
3.338
21
2.53928
0
LINE
8
BLACK
6
CONTINUOUS
10
3.338
20
2.53928
11
3.33827
21
2.5406
0
LINE
8
BLACK
6
CONTINUOUS
10
3.33827
20
2.5406
11
3.34071
21
2.54548
0
LINE
8
BLACK
6
CONTINUOUS
10
3.34071
20
2.54548
11
3.34134
21
2.54619
0
LINE
8
BLACK
6
CONTINUOUS
10
3.34134
20
2.54619
11
3.34181
21
2.54701
0
LINE
8
BLACK
6
CONTINUOUS
10
3.34181
20
2.54701
11
3.34425
21
2.54945
0
LINE
8
BLACK
6
CONTINUOUS
10
3.34425
20
2.54945
11
3.34507
21
2.54993
0
LINE
8
BLACK
6
CONTINUOUS
10
3.34507
20
2.54993
11
3.34578
21
2.55056
0
LINE
8
BLACK
6
CONTINUOUS
10
3.34578
20
2.55056
11
3.35066
21
2.55299
0
LINE
8
BLACK
6
CONTINUOUS
10
3.35066
20
2.55299
11
3.35199
21
2.55327
0
LINE
8
BLACK
6
CONTINUOUS
10
3.35199
20
2.55327
11
3.3533
21
2.55362
0
LINE
8
BLACK
6
CONTINUOUS
10
3.3533
20
2.55362
11
3.3728
21
2.55362
0
LINE
8
BLACK
6
CONTINUOUS
10
3.3728
20
2.55362
11
3.37575
21
2.55283
0
LINE
8
BLACK
6
CONTINUOUS
10
3.35469
20
2.54181
11
3.35192
21
2.54042
0
LINE
8
BLACK
6
CONTINUOUS
10
3.35192
20
2.54042
11
3.35084
21
2.53934
0
LINE
8
BLACK
6
CONTINUOUS
10
3.35084
20
2.53934
11
3.34946
21
2.53657
0
LINE
8
BLACK
6
CONTINUOUS
10
3.34946
20
2.53657
11
3.34946
21
2.53205
0
LINE
8
BLACK
6
CONTINUOUS
10
3.34946
20
2.53205
11
3.35084
21
2.52928
0
LINE
8
BLACK
6
CONTINUOUS
10
3.35084
20
2.52928
11
3.35192
21
2.52819
0
LINE
8
BLACK
6
CONTINUOUS
10
3.35192
20
2.52819
11
3.35469
21
2.52681
0
LINE
8
BLACK
6
CONTINUOUS
10
3.35469
20
2.52681
11
3.36689
21
2.52681
0
LINE
8
BLACK
6
CONTINUOUS
10
3.36689
20
2.52681
11
3.36689
21
2.54181
0
LINE
8
BLACK
6
CONTINUOUS
10
3.36689
20
2.54181
11
3.35469
21
2.54181
0
LINE
8
BLACK
6
CONTINUOUS
10
3.28314
20
2.55283
11
3.2853
21
2.55067
0
LINE
8
BLACK
6
CONTINUOUS
10
3.2853
20
2.55067
11
3.28609
21
2.54771
0
LINE
8
BLACK
6
CONTINUOUS
10
3.28609
20
2.54771
11
3.2853
21
2.54476
0
LINE
8
BLACK
6
CONTINUOUS
10
3.2853
20
2.54476
11
3.28314
21
2.5426
0
LINE
8
BLACK
6
CONTINUOUS
10
3.28314
20
2.5426
11
3.28018
21
2.54181
0
LINE
8
BLACK
6
CONTINUOUS
10
3.28018
20
2.54181
11
3.27147
21
2.54181
0
LINE
8
BLACK
6
CONTINUOUS
10
3.27147
20
2.54181
11
3.27147
21
2.49653
0
LINE
8
BLACK
6
CONTINUOUS
10
3.27147
20
2.49653
11
3.27067
21
2.49358
0
LINE
8
BLACK
6
CONTINUOUS
10
3.27067
20
2.49358
11
3.26851
21
2.49142
0
LINE
8
BLACK
6
CONTINUOUS
10
3.26851
20
2.49142
11
3.26556
21
2.49063
0
LINE
8
BLACK
6
CONTINUOUS
10
3.26556
20
2.49063
11
3.26261
21
2.49142
0
LINE
8
BLACK
6
CONTINUOUS
10
3.26261
20
2.49142
11
3.26045
21
2.49358
0
LINE
8
BLACK
6
CONTINUOUS
10
3.26045
20
2.49358
11
3.25966
21
2.49653
0
LINE
8
BLACK
6
CONTINUOUS
10
3.25966
20
2.49653
11
3.25966
21
2.54181
0
LINE
8
BLACK
6
CONTINUOUS
10
3.25966
20
2.54181
11
3.25094
21
2.54181
0
LINE
8
BLACK
6
CONTINUOUS
10
3.25094
20
2.54181
11
3.24798
21
2.5426
0
LINE
8
BLACK
6
CONTINUOUS
10
3.24798
20
2.5426
11
3.24582
21
2.54476
0
LINE
8
BLACK
6
CONTINUOUS
10
3.24582
20
2.54476
11
3.24503
21
2.54771
0
LINE
8
BLACK
6
CONTINUOUS
10
3.24503
20
2.54771
11
3.24582
21
2.55067
0
LINE
8
BLACK
6
CONTINUOUS
10
3.24582
20
2.55067
11
3.24798
21
2.55283
0
LINE
8
BLACK
6
CONTINUOUS
10
3.24798
20
2.55283
11
3.25094
21
2.55362
0
LINE
8
BLACK
6
CONTINUOUS
10
3.25094
20
2.55362
11
3.28018
21
2.55362
0
LINE
8
BLACK
6
CONTINUOUS
10
3.28018
20
2.55362
11
3.28314
21
2.55283
0
LINE
8
BLACK
6
CONTINUOUS
10
3.22077
20
2.57945
11
3.21982
21
2.57951
0
LINE
8
BLACK
6
CONTINUOUS
10
3.21982
20
2.57951
11
3.21251
21
2.58195
0
LINE
8
BLACK
6
CONTINUOUS
10
3.21251
20
2.58195
11
3.21138
21
2.5827
0
LINE
8
BLACK
6
CONTINUOUS
10
3.21138
20
2.5827
11
3.2102
21
2.58338
0
LINE
8
BLACK
6
CONTINUOUS
10
3.2102
20
2.58338
11
3.20533
21
2.58825
0
LINE
8
BLACK
6
CONTINUOUS
10
3.20533
20
2.58825
11
3.20485
21
2.58907
0
LINE
8
BLACK
6
CONTINUOUS
10
3.20485
20
2.58907
11
3.20422
21
2.58978
0
LINE
8
BLACK
6
CONTINUOUS
10
3.20422
20
2.58978
11
3.20179
21
2.59466
0
LINE
8
BLACK
6
CONTINUOUS
10
3.20179
20
2.59466
11
3.20166
21
2.5953
0
LINE
8
BLACK
6
CONTINUOUS
10
3.20166
20
2.5953
11
3.20134
21
2.59587
0
LINE
8
BLACK
6
CONTINUOUS
10
3.20134
20
2.59587
11
3.1989
21
2.60562
0
LINE
8
BLACK
6
CONTINUOUS
10
3.1989
20
2.60562
11
3.19891
21
2.60635
0
LINE
8
BLACK
6
CONTINUOUS
10
3.19891
20
2.60635
11
3.19873
21
2.60705
0
LINE
8
BLACK
6
CONTINUOUS
10
3.19873
20
2.60705
11
3.19873
21
2.61436
0
LINE
8
BLACK
6
CONTINUOUS
10
3.19873
20
2.61436
11
3.19891
21
2.61506
0
LINE
8
BLACK
6
CONTINUOUS
10
3.19891
20
2.61506
11
3.1989
21
2.61579
0
LINE
8
BLACK
6
CONTINUOUS
10
3.1989
20
2.61579
11
3.20134
21
2.62554
0
LINE
8
BLACK
6
CONTINUOUS
10
3.20134
20
2.62554
11
3.20166
21
2.62611
0
LINE
8
BLACK
6
CONTINUOUS
10
3.20166
20
2.62611
11
3.20179
21
2.62675
0
LINE
8
BLACK
6
CONTINUOUS
10
3.20179
20
2.62675
11
3.20422
21
2.63162
0
LINE
8
BLACK
6
CONTINUOUS
10
3.20422
20
2.63162
11
3.20485
21
2.63234
0
LINE
8
BLACK
6
CONTINUOUS
10
3.20485
20
2.63234
11
3.20533
21
2.63316
0
LINE
8
BLACK
6
CONTINUOUS
10
3.20533
20
2.63316
11
3.2102
21
2.63803
0
LINE
8
BLACK
6
CONTINUOUS
10
3.2102
20
2.63803
11
3.21138
21
2.63871
0
LINE
8
BLACK
6
CONTINUOUS
10
3.21138
20
2.63871
11
3.21251
21
2.63946
0
LINE
8
BLACK
6
CONTINUOUS
10
3.21251
20
2.63946
11
3.21982
21
2.6419
0
LINE
8
BLACK
6
CONTINUOUS
10
3.21982
20
2.6419
11
3.22077
21
2.64195
0
LINE
8
BLACK
6
CONTINUOUS
10
3.22077
20
2.64195
11
3.22169
21
2.6422
0
LINE
8
BLACK
6
CONTINUOUS
10
3.22169
20
2.6422
11
3.23388
21
2.6422
0
LINE
8
BLACK
6
CONTINUOUS
10
3.23388
20
2.6422
11
3.23683
21
2.64141
0
LINE
8
BLACK
6
CONTINUOUS
10
3.23683
20
2.64141
11
3.23899
21
2.63925
0
LINE
8
BLACK
6
CONTINUOUS
10
3.23899
20
2.63925
11
3.23978
21
2.6363
0
LINE
8
BLACK
6
CONTINUOUS
10
3.23978
20
2.6363
11
3.23978
21
2.58511
0
LINE
8
BLACK
6
CONTINUOUS
10
3.23978
20
2.58511
11
3.23899
21
2.58216
0
LINE
8
BLACK
6
CONTINUOUS
10
3.23899
20
2.58216
11
3.23683
21
2.58
0
LINE
8
BLACK
6
CONTINUOUS
10
3.23683
20
2.58
11
3.23388
21
2.57921
0
LINE
8
BLACK
6
CONTINUOUS
10
3.23388
20
2.57921
11
3.22169
21
2.57921
0
LINE
8
BLACK
6
CONTINUOUS
10
3.22169
20
2.57921
11
3.22077
21
2.57945
0
LINE
8
BLACK
6
CONTINUOUS
10
3.22265
20
2.63039
11
3.21757
21
2.6287
0
LINE
8
BLACK
6
CONTINUOUS
10
3.21757
20
2.6287
11
3.21436
21
2.62549
0
LINE
8
BLACK
6
CONTINUOUS
10
3.21436
20
2.62549
11
3.21264
21
2.62205
0
LINE
8
BLACK
6
CONTINUOUS
10
3.21264
20
2.62205
11
3.21054
21
2.61363
0
LINE
8
BLACK
6
CONTINUOUS
10
3.21054
20
2.61363
11
3.21054
21
2.60778
0
LINE
8
BLACK
6
CONTINUOUS
10
3.21054
20
2.60778
11
3.21264
21
2.59936
0
LINE
8
BLACK
6
CONTINUOUS
10
3.21264
20
2.59936
11
3.21436
21
2.59592
0
LINE
8
BLACK
6
CONTINUOUS
10
3.21436
20
2.59592
11
3.21757
21
2.59271
0
LINE
8
BLACK
6
CONTINUOUS
10
3.21757
20
2.59271
11
3.22265
21
2.59102
0
LINE
8
BLACK
6
CONTINUOUS
10
3.22265
20
2.59102
11
3.22797
21
2.59102
0
LINE
8
BLACK
6
CONTINUOUS
10
3.22797
20
2.59102
11
3.22797
21
2.63039
0
LINE
8
BLACK
6
CONTINUOUS
10
3.22797
20
2.63039
11
3.22265
21
2.63039
0
LINE
8
BLACK
6
CONTINUOUS
10
3.28896
20
2.64181
11
3.29043
21
2.64142
0
LINE
8
BLACK
6
CONTINUOUS
10
3.29043
20
2.64142
11
3.29043
21
2.64141
0
LINE
8
BLACK
6
CONTINUOUS
10
3.29043
20
2.64141
11
3.29045
21
2.64141
0
LINE
8
BLACK
6
CONTINUOUS
10
3.29045
20
2.64141
11
3.29152
21
2.64034
0
LINE
8
BLACK
6
CONTINUOUS
10
3.29152
20
2.64034
11
3.2926
21
2.63927
0
LINE
8
BLACK
6
CONTINUOUS
10
3.2926
20
2.63927
11
3.2926
21
2.63926
0
LINE
8
BLACK
6
CONTINUOUS
10
3.2926
20
2.63926
11
3.29261
21
2.63925
0
LINE
8
BLACK
6
CONTINUOUS
10
3.29261
20
2.63925
11
3.293
21
2.63778
0
LINE
8
BLACK
6
CONTINUOUS
10
3.293
20
2.63778
11
3.2934
21
2.63632
0
LINE
8
BLACK
6
CONTINUOUS
10
3.2934
20
2.63632
11
3.2934
21
2.63631
0
LINE
8
BLACK
6
CONTINUOUS
10
3.2934
20
2.63631
11
3.2934
21
2.6363
0
LINE
8
BLACK
6
CONTINUOUS
10
3.2934
20
2.6363
11
3.2934
21
2.58511
0
LINE
8
BLACK
6
CONTINUOUS
10
3.2934
20
2.58511
11
3.29261
21
2.58216
0
LINE
8
BLACK
6
CONTINUOUS
10
3.29261
20
2.58216
11
3.29045
21
2.58
0
LINE
8
BLACK
6
CONTINUOUS
10
3.29045
20
2.58
11
3.2875
21
2.57921
0
LINE
8
BLACK
6
CONTINUOUS
10
3.2875
20
2.57921
11
3.28454
21
2.58
0
LINE
8
BLACK
6
CONTINUOUS
10
3.28454
20
2.58
11
3.28238
21
2.58216
0
LINE
8
BLACK
6
CONTINUOUS
10
3.28238
20
2.58216
11
3.28159
21
2.58511
0
LINE
8
BLACK
6
CONTINUOUS
10
3.28159
20
2.58511
11
3.28159
21
2.61406
0
LINE
8
BLACK
6
CONTINUOUS
10
3.28159
20
2.61406
11
3.26338
21
2.58218
0
LINE
8
BLACK
6
CONTINUOUS
10
3.26338
20
2.58218
11
3.26337
21
2.58217
0
LINE
8
BLACK
6
CONTINUOUS
10
3.26337
20
2.58217
11
3.26336
21
2.58216
0
LINE
8
BLACK
6
CONTINUOUS
10
3.26336
20
2.58216
11
3.26229
21
2.58109
0
LINE
8
BLACK
6
CONTINUOUS
10
3.26229
20
2.58109
11
3.26122
21
2.58001
0
LINE
8
BLACK
6
CONTINUOUS
10
3.26122
20
2.58001
11
3.26121
21
2.58001
0
LINE
8
BLACK
6
CONTINUOUS
10
3.26121
20
2.58001
11
3.2612
21
2.58
0
LINE
8
BLACK
6
CONTINUOUS
10
3.2612
20
2.58
11
3.25974
21
2.57961
0
LINE
8
BLACK
6
CONTINUOUS
10
3.25974
20
2.57961
11
3.25828
21
2.57921
0
LINE
8
BLACK
6
CONTINUOUS
10
3.25828
20
2.57921
11
3.25826
21
2.57921
0
LINE
8
BLACK
6
CONTINUOUS
10
3.25826
20
2.57921
11
3.25825
21
2.57921
0
LINE
8
BLACK
6
CONTINUOUS
10
3.25825
20
2.57921
11
3.25678
21
2.5796
0
LINE
8
BLACK
6
CONTINUOUS
10
3.25678
20
2.5796
11
3.25532
21
2.57999
0
LINE
8
BLACK
6
CONTINUOUS
10
3.25532
20
2.57999
11
3.25531
21
2.58
0
LINE
8
BLACK
6
CONTINUOUS
10
3.25531
20
2.58
11
3.2553
21
2.58
0
LINE
8
BLACK
6
CONTINUOUS
10
3.2553
20
2.58
11
3.25422
21
2.58107
0
LINE
8
BLACK
6
CONTINUOUS
10
3.25422
20
2.58107
11
3.25315
21
2.58214
0
LINE
8
BLACK
6
CONTINUOUS
10
3.25315
20
2.58214
11
3.25314
21
2.58215
0
LINE
8
BLACK
6
CONTINUOUS
10
3.25314
20
2.58215
11
3.25313
21
2.58216
0
LINE
8
BLACK
6
CONTINUOUS
10
3.25313
20
2.58216
11
3.25274
21
2.58362
0
LINE
8
BLACK
6
CONTINUOUS
10
3.25274
20
2.58362
11
3.25234
21
2.58509
0
LINE
8
BLACK
6
CONTINUOUS
10
3.25234
20
2.58509
11
3.25235
21
2.5851
0
LINE
8
BLACK
6
CONTINUOUS
10
3.25235
20
2.5851
11
3.25234
21
2.58511
0
LINE
8
BLACK
6
CONTINUOUS
10
3.25234
20
2.58511
11
3.25234
21
2.6363
0
LINE
8
BLACK
6
CONTINUOUS
10
3.25234
20
2.6363
11
3.25313
21
2.63925
0
LINE
8
BLACK
6
CONTINUOUS
10
3.25313
20
2.63925
11
3.2553
21
2.64141
0
LINE
8
BLACK
6
CONTINUOUS
10
3.2553
20
2.64141
11
3.25825
21
2.6422
0
LINE
8
BLACK
6
CONTINUOUS
10
3.25825
20
2.6422
11
3.2612
21
2.64141
0
LINE
8
BLACK
6
CONTINUOUS
10
3.2612
20
2.64141
11
3.26336
21
2.63925
0
LINE
8
BLACK
6
CONTINUOUS
10
3.26336
20
2.63925
11
3.26415
21
2.6363
0
LINE
8
BLACK
6
CONTINUOUS
10
3.26415
20
2.6363
11
3.26415
21
2.60735
0
LINE
8
BLACK
6
CONTINUOUS
10
3.26415
20
2.60735
11
3.28237
21
2.63923
0
LINE
8
BLACK
6
CONTINUOUS
10
3.28237
20
2.63923
11
3.28238
21
2.63924
0
LINE
8
BLACK
6
CONTINUOUS
10
3.28238
20
2.63924
11
3.28238
21
2.63925
0
LINE
8
BLACK
6
CONTINUOUS
10
3.28238
20
2.63925
11
3.28345
21
2.64032
0
LINE
8
BLACK
6
CONTINUOUS
10
3.28345
20
2.64032
11
3.28452
21
2.6414
0
LINE
8
BLACK
6
CONTINUOUS
10
3.28452
20
2.6414
11
3.28453
21
2.6414
0
LINE
8
BLACK
6
CONTINUOUS
10
3.28453
20
2.6414
11
3.28454
21
2.64141
0
LINE
8
BLACK
6
CONTINUOUS
10
3.28454
20
2.64141
11
3.28601
21
2.6418
0
LINE
8
BLACK
6
CONTINUOUS
10
3.28601
20
2.6418
11
3.28747
21
2.6422
0
LINE
8
BLACK
6
CONTINUOUS
10
3.28747
20
2.6422
11
3.28748
21
2.6422
0
LINE
8
BLACK
6
CONTINUOUS
10
3.28748
20
2.6422
11
3.2875
21
2.6422
0
LINE
8
BLACK
6
CONTINUOUS
10
3.2875
20
2.6422
11
3.28896
21
2.64181
0
LINE
8
BLACK
6
CONTINUOUS
10
3.32497
20
2.64195
11
3.32592
21
2.6419
0
LINE
8
BLACK
6
CONTINUOUS
10
3.32592
20
2.6419
11
3.33323
21
2.63946
0
LINE
8
BLACK
6
CONTINUOUS
10
3.33323
20
2.63946
11
3.33437
21
2.63871
0
LINE
8
BLACK
6
CONTINUOUS
10
3.33437
20
2.63871
11
3.33554
21
2.63803
0
LINE
8
BLACK
6
CONTINUOUS
10
3.33554
20
2.63803
11
3.34042
21
2.63316
0
LINE
8
BLACK
6
CONTINUOUS
10
3.34042
20
2.63316
11
3.34089
21
2.63234
0
LINE
8
BLACK
6
CONTINUOUS
10
3.34089
20
2.63234
11
3.34152
21
2.63162
0
LINE
8
BLACK
6
CONTINUOUS
10
3.34152
20
2.63162
11
3.34396
21
2.62675
0
LINE
8
BLACK
6
CONTINUOUS
10
3.34396
20
2.62675
11
3.34409
21
2.62611
0
LINE
8
BLACK
6
CONTINUOUS
10
3.34409
20
2.62611
11
3.34441
21
2.62554
0
LINE
8
BLACK
6
CONTINUOUS
10
3.34441
20
2.62554
11
3.34684
21
2.61579
0
LINE
8
BLACK
6
CONTINUOUS
10
3.34684
20
2.61579
11
3.34683
21
2.61506
0
LINE
8
BLACK
6
CONTINUOUS
10
3.34683
20
2.61506
11
3.34702
21
2.61436
0
LINE
8
BLACK
6
CONTINUOUS
10
3.34702
20
2.61436
11
3.34702
21
2.60705
0
LINE
8
BLACK
6
CONTINUOUS
10
3.34702
20
2.60705
11
3.34683
21
2.60635
0
LINE
8
BLACK
6
CONTINUOUS
10
3.34683
20
2.60635
11
3.34684
21
2.60562
0
LINE
8
BLACK
6
CONTINUOUS
10
3.34684
20
2.60562
11
3.34441
21
2.59587
0
LINE
8
BLACK
6
CONTINUOUS
10
3.34441
20
2.59587
11
3.34409
21
2.5953
0
LINE
8
BLACK
6
CONTINUOUS
10
3.34409
20
2.5953
11
3.34396
21
2.59466
0
LINE
8
BLACK
6
CONTINUOUS
10
3.34396
20
2.59466
11
3.34152
21
2.58978
0
LINE
8
BLACK
6
CONTINUOUS
10
3.34152
20
2.58978
11
3.34089
21
2.58907
0
LINE
8
BLACK
6
CONTINUOUS
10
3.34089
20
2.58907
11
3.34042
21
2.58825
0
LINE
8
BLACK
6
CONTINUOUS
10
3.34042
20
2.58825
11
3.33554
21
2.58338
0
LINE
8
BLACK
6
CONTINUOUS
10
3.33554
20
2.58338
11
3.33437
21
2.5827
0
LINE
8
BLACK
6
CONTINUOUS
10
3.33437
20
2.5827
11
3.33323
21
2.58195
0
LINE
8
BLACK
6
CONTINUOUS
10
3.33323
20
2.58195
11
3.32592
21
2.57951
0
LINE
8
BLACK
6
CONTINUOUS
10
3.32592
20
2.57951
11
3.32497
21
2.57945
0
LINE
8
BLACK
6
CONTINUOUS
10
3.32497
20
2.57945
11
3.32405
21
2.57921
0
LINE
8
BLACK
6
CONTINUOUS
10
3.32405
20
2.57921
11
3.31918
21
2.57921
0
LINE
8
BLACK
6
CONTINUOUS
10
3.31918
20
2.57921
11
3.31826
21
2.57945
0
LINE
8
BLACK
6
CONTINUOUS
10
3.31826
20
2.57945
11
3.31731
21
2.57951
0
LINE
8
BLACK
6
CONTINUOUS
10
3.31731
20
2.57951
11
3.31
21
2.58195
0
LINE
8
BLACK
6
CONTINUOUS
10
3.31
20
2.58195
11
3.30887
21
2.5827
0
LINE
8
BLACK
6
CONTINUOUS
10
3.30887
20
2.5827
11
3.30769
21
2.58338
0
LINE
8
BLACK
6
CONTINUOUS
10
3.30769
20
2.58338
11
3.30525
21
2.58581
0
LINE
8
BLACK
6
CONTINUOUS
10
3.30525
20
2.58581
11
3.30487
21
2.58649
0
LINE
8
BLACK
6
CONTINUOUS
10
3.30487
20
2.58649
11
3.30432
21
2.58704
0
LINE
8
BLACK
6
CONTINUOUS
10
3.30432
20
2.58704
11
3.30411
21
2.58779
0
LINE
8
BLACK
6
CONTINUOUS
10
3.30411
20
2.58779
11
3.30373
21
2.58846
0
LINE
8
BLACK
6
CONTINUOUS
10
3.30373
20
2.58846
11
3.30373
21
2.58924
0
LINE
8
BLACK
6
CONTINUOUS
10
3.30373
20
2.58924
11
3.30352
21
2.58999
0
LINE
8
BLACK
6
CONTINUOUS
10
3.30352
20
2.58999
11
3.30352
21
2.60705
0
LINE
8
BLACK
6
CONTINUOUS
10
3.30352
20
2.60705
11
3.30432
21
2.61
0
LINE
8
BLACK
6
CONTINUOUS
10
3.30432
20
2.61
11
3.30648
21
2.61216
0
LINE
8
BLACK
6
CONTINUOUS
10
3.30648
20
2.61216
11
3.30943
21
2.61295
0
LINE
8
BLACK
6
CONTINUOUS
10
3.30943
20
2.61295
11
3.31918
21
2.61295
0
LINE
8
BLACK
6
CONTINUOUS
10
3.31918
20
2.61295
11
3.32213
21
2.61216
0
LINE
8
BLACK
6
CONTINUOUS
10
3.32213
20
2.61216
11
3.32429
21
2.61
0
LINE
8
BLACK
6
CONTINUOUS
10
3.32429
20
2.61
11
3.32508
21
2.60705
0
LINE
8
BLACK
6
CONTINUOUS
10
3.32508
20
2.60705
11
3.32429
21
2.6041
0
LINE
8
BLACK
6
CONTINUOUS
10
3.32429
20
2.6041
11
3.32213
21
2.60193
0
LINE
8
BLACK
6
CONTINUOUS
10
3.32213
20
2.60193
11
3.31918
21
2.60114
0
LINE
8
BLACK
6
CONTINUOUS
10
3.31918
20
2.60114
11
3.31534
21
2.60114
0
LINE
8
BLACK
6
CONTINUOUS
10
3.31534
20
2.60114
11
3.31534
21
2.59262
0
LINE
8
BLACK
6
CONTINUOUS
10
3.31534
20
2.59262
11
3.32014
21
2.59102
0
LINE
8
BLACK
6
CONTINUOUS
10
3.32014
20
2.59102
11
3.32309
21
2.59102
0
LINE
8
BLACK
6
CONTINUOUS
10
3.32309
20
2.59102
11
3.32817
21
2.59271
0
LINE
8
BLACK
6
CONTINUOUS
10
3.32817
20
2.59271
11
3.33139
21
2.59592
0
LINE
8
BLACK
6
CONTINUOUS
10
3.33139
20
2.59592
11
3.3331
21
2.59936
0
LINE
8
BLACK
6
CONTINUOUS
10
3.3331
20
2.59936
11
3.33521
21
2.60778
0
LINE
8
BLACK
6
CONTINUOUS
10
3.33521
20
2.60778
11
3.33521
21
2.61363
0
LINE
8
BLACK
6
CONTINUOUS
10
3.33521
20
2.61363
11
3.3331
21
2.62205
0
LINE
8
BLACK
6
CONTINUOUS
10
3.3331
20
2.62205
11
3.33139
21
2.62549
0
LINE
8
BLACK
6
CONTINUOUS
10
3.33139
20
2.62549
11
3.32817
21
2.6287
0
LINE
8
BLACK
6
CONTINUOUS
10
3.32817
20
2.6287
11
3.32309
21
2.63039
0
LINE
8
BLACK
6
CONTINUOUS
10
3.32309
20
2.63039
11
3.31814
21
2.63039
0
LINE
8
BLACK
6
CONTINUOUS
10
3.31814
20
2.63039
11
3.31451
21
2.62858
0
LINE
8
BLACK
6
CONTINUOUS
10
3.31451
20
2.62858
11
3.31151
21
2.62796
0
LINE
8
BLACK
6
CONTINUOUS
10
3.31151
20
2.62796
11
3.30861
21
2.62893
0
LINE
8
BLACK
6
CONTINUOUS
10
3.30861
20
2.62893
11
3.30659
21
2.63122
0
LINE
8
BLACK
6
CONTINUOUS
10
3.30659
20
2.63122
11
3.30597
21
2.63421
0
LINE
8
BLACK
6
CONTINUOUS
10
3.30597
20
2.63421
11
3.30694
21
2.63711
0
LINE
8
BLACK
6
CONTINUOUS
10
3.30694
20
2.63711
11
3.30923
21
2.63914
0
LINE
8
BLACK
6
CONTINUOUS
10
3.30923
20
2.63914
11
3.3141
21
2.64158
0
LINE
8
BLACK
6
CONTINUOUS
10
3.3141
20
2.64158
11
3.31543
21
2.64185
0
LINE
8
BLACK
6
CONTINUOUS
10
3.31543
20
2.64185
11
3.31674
21
2.6422
0
LINE
8
BLACK
6
CONTINUOUS
10
3.31674
20
2.6422
11
3.32405
21
2.6422
0
LINE
8
BLACK
6
CONTINUOUS
10
3.32405
20
2.6422
11
3.32497
21
2.64195
0
LINE
8
BLACK
6
CONTINUOUS
10
3.23927
20
2.8481
11
3.24143
21
2.84594
0
LINE
8
BLACK
6
CONTINUOUS
10
3.24143
20
2.84594
11
3.24222
21
2.84299
0
LINE
8
BLACK
6
CONTINUOUS
10
3.24222
20
2.84299
11
3.24143
21
2.84004
0
LINE
8
BLACK
6
CONTINUOUS
10
3.24143
20
2.84004
11
3.23927
21
2.83787
0
LINE
8
BLACK
6
CONTINUOUS
10
3.23927
20
2.83787
11
3.23631
21
2.83708
0
LINE
8
BLACK
6
CONTINUOUS
10
3.23631
20
2.83708
11
3.21765
21
2.83708
0
LINE
8
BLACK
6
CONTINUOUS
10
3.21765
20
2.83708
11
3.22614
21
2.82738
0
LINE
8
BLACK
6
CONTINUOUS
10
3.22614
20
2.82738
11
3.22639
21
2.82686
0
LINE
8
BLACK
6
CONTINUOUS
10
3.22639
20
2.82686
11
3.22681
21
2.82644
0
LINE
8
BLACK
6
CONTINUOUS
10
3.22681
20
2.82644
11
3.22706
21
2.82551
0
LINE
8
BLACK
6
CONTINUOUS
10
3.22706
20
2.82551
11
3.22748
21
2.82464
0
LINE
8
BLACK
6
CONTINUOUS
10
3.22748
20
2.82464
11
3.22745
21
2.82405
0
LINE
8
BLACK
6
CONTINUOUS
10
3.22745
20
2.82405
11
3.2276
21
2.82349
0
LINE
8
BLACK
6
CONTINUOUS
10
3.2276
20
2.82349
11
3.22735
21
2.82255
0
LINE
8
BLACK
6
CONTINUOUS
10
3.22735
20
2.82255
11
3.22728
21
2.82159
0
LINE
8
BLACK
6
CONTINUOUS
10
3.22728
20
2.82159
11
3.22696
21
2.8211
0
LINE
8
BLACK
6
CONTINUOUS
10
3.22696
20
2.8211
11
3.22681
21
2.82054
0
LINE
8
BLACK
6
CONTINUOUS
10
3.22681
20
2.82054
11
3.22612
21
2.81985
0
LINE
8
BLACK
6
CONTINUOUS
10
3.22612
20
2.81985
11
3.22558
21
2.81905
0
LINE
8
BLACK
6
CONTINUOUS
10
3.22558
20
2.81905
11
3.22506
21
2.81879
0
LINE
8
BLACK
6
CONTINUOUS
10
3.22506
20
2.81879
11
3.22464
21
2.81838
0
LINE
8
BLACK
6
CONTINUOUS
10
3.22464
20
2.81838
11
3.22371
21
2.81813
0
LINE
8
BLACK
6
CONTINUOUS
10
3.22371
20
2.81813
11
3.22284
21
2.8177
0
LINE
8
BLACK
6
CONTINUOUS
10
3.22284
20
2.8177
11
3.22225
21
2.81774
0
LINE
8
BLACK
6
CONTINUOUS
10
3.22225
20
2.81774
11
3.22169
21
2.81759
0
LINE
8
BLACK
6
CONTINUOUS
10
3.22169
20
2.81759
11
3.21577
21
2.81759
0
LINE
8
BLACK
6
CONTINUOUS
10
3.21577
20
2.81759
11
3.213
21
2.8162
0
LINE
8
BLACK
6
CONTINUOUS
10
3.213
20
2.8162
11
3.21192
21
2.81512
0
LINE
8
BLACK
6
CONTINUOUS
10
3.21192
20
2.81512
11
3.21054
21
2.81235
0
LINE
8
BLACK
6
CONTINUOUS
10
3.21054
20
2.81235
11
3.21054
21
2.80295
0
LINE
8
BLACK
6
CONTINUOUS
10
3.21054
20
2.80295
11
3.21192
21
2.80018
0
LINE
8
BLACK
6
CONTINUOUS
10
3.21192
20
2.80018
11
3.213
21
2.7991
0
LINE
8
BLACK
6
CONTINUOUS
10
3.213
20
2.7991
11
3.21577
21
2.79771
0
LINE
8
BLACK
6
CONTINUOUS
10
3.21577
20
2.79771
11
3.22761
21
2.79771
0
LINE
8
BLACK
6
CONTINUOUS
10
3.22761
20
2.79771
11
3.23038
21
2.7991
0
LINE
8
BLACK
6
CONTINUOUS
10
3.23038
20
2.7991
11
3.23214
21
2.80086
0
LINE
8
BLACK
6
CONTINUOUS
10
3.23214
20
2.80086
11
3.23479
21
2.80239
0
LINE
8
BLACK
6
CONTINUOUS
10
3.23479
20
2.80239
11
3.23784
21
2.80239
0
LINE
8
BLACK
6
CONTINUOUS
10
3.23784
20
2.80239
11
3.24049
21
2.80086
0
LINE
8
BLACK
6
CONTINUOUS
10
3.24049
20
2.80086
11
3.24202
21
2.79821
0
LINE
8
BLACK
6
CONTINUOUS
10
3.24202
20
2.79821
11
3.24202
21
2.79515
0
LINE
8
BLACK
6
CONTINUOUS
10
3.24202
20
2.79515
11
3.24049
21
2.79251
0
LINE
8
BLACK
6
CONTINUOUS
10
3.24049
20
2.79251
11
3.23805
21
2.79007
0
LINE
8
BLACK
6
CONTINUOUS
10
3.23805
20
2.79007
11
3.23723
21
2.78959
0
LINE
8
BLACK
6
CONTINUOUS
10
3.23723
20
2.78959
11
3.23652
21
2.78896
0
LINE
8
BLACK
6
CONTINUOUS
10
3.23652
20
2.78896
11
3.23164
21
2.78653
0
LINE
8
BLACK
6
CONTINUOUS
10
3.23164
20
2.78653
11
3.23031
21
2.78625
0
LINE
8
BLACK
6
CONTINUOUS
10
3.23031
20
2.78625
11
3.229
21
2.7859
0
LINE
8
BLACK
6
CONTINUOUS
10
3.229
20
2.7859
11
3.21438
21
2.7859
0
LINE
8
BLACK
6
CONTINUOUS
10
3.21438
20
2.7859
11
3.21307
21
2.78625
0
LINE
8
BLACK
6
CONTINUOUS
10
3.21307
20
2.78625
11
3.21174
21
2.78653
0
LINE
8
BLACK
6
CONTINUOUS
10
3.21174
20
2.78653
11
3.20686
21
2.78896
0
LINE
8
BLACK
6
CONTINUOUS
10
3.20686
20
2.78896
11
3.20615
21
2.78959
0
LINE
8
BLACK
6
CONTINUOUS
10
3.20615
20
2.78959
11
3.20533
21
2.79007
0
LINE
8
BLACK
6
CONTINUOUS
10
3.20533
20
2.79007
11
3.20289
21
2.79251
0
LINE
8
BLACK
6
CONTINUOUS
10
3.20289
20
2.79251
11
3.20242
21
2.79333
0
LINE
8
BLACK
6
CONTINUOUS
10
3.20242
20
2.79333
11
3.20179
21
2.79404
0
LINE
8
BLACK
6
CONTINUOUS
10
3.20179
20
2.79404
11
3.19935
21
2.79892
0
LINE
8
BLACK
6
CONTINUOUS
10
3.19935
20
2.79892
11
3.19908
21
2.80024
0
LINE
8
BLACK
6
CONTINUOUS
10
3.19908
20
2.80024
11
3.19873
21
2.80156
0
LINE
8
BLACK
6
CONTINUOUS
10
3.19873
20
2.80156
11
3.19873
21
2.81374
0
LINE
8
BLACK
6
CONTINUOUS
10
3.19873
20
2.81374
11
3.19908
21
2.81505
0
LINE
8
BLACK
6
CONTINUOUS
10
3.19908
20
2.81505
11
3.19935
21
2.81638
0
LINE
8
BLACK
6
CONTINUOUS
10
3.19935
20
2.81638
11
3.20179
21
2.82126
0
LINE
8
BLACK
6
CONTINUOUS
10
3.20179
20
2.82126
11
3.20242
21
2.82197
0
LINE
8
BLACK
6
CONTINUOUS
10
3.20242
20
2.82197
11
3.20289
21
2.82279
0
LINE
8
BLACK
6
CONTINUOUS
10
3.20289
20
2.82279
11
3.20533
21
2.82523
0
LINE
8
BLACK
6
CONTINUOUS
10
3.20533
20
2.82523
11
3.20615
21
2.8257
0
LINE
8
BLACK
6
CONTINUOUS
10
3.20615
20
2.8257
11
3.20686
21
2.82634
0
LINE
8
BLACK
6
CONTINUOUS
10
3.20686
20
2.82634
11
3.20999
21
2.8279
0
LINE
8
BLACK
6
CONTINUOUS
10
3.20999
20
2.8279
11
3.20019
21
2.8391
0
LINE
8
BLACK
6
CONTINUOUS
10
3.20019
20
2.8391
11
3.19993
21
2.83962
0
LINE
8
BLACK
6
CONTINUOUS
10
3.19993
20
2.83962
11
3.19952
21
2.84004
0
LINE
8
BLACK
6
CONTINUOUS
10
3.19952
20
2.84004
11
3.19927
21
2.84097
0
LINE
8
BLACK
6
CONTINUOUS
10
3.19927
20
2.84097
11
3.19884
21
2.84184
0
LINE
8
BLACK
6
CONTINUOUS
10
3.19884
20
2.84184
11
3.19888
21
2.84242
0
LINE
8
BLACK
6
CONTINUOUS
10
3.19888
20
2.84242
11
3.19873
21
2.84299
0
LINE
8
BLACK
6
CONTINUOUS
10
3.19873
20
2.84299
11
3.19898
21
2.84393
0
LINE
8
BLACK
6
CONTINUOUS
10
3.19898
20
2.84393
11
3.19904
21
2.84489
0
LINE
8
BLACK
6
CONTINUOUS
10
3.19904
20
2.84489
11
3.19937
21
2.84538
0
LINE
8
BLACK
6
CONTINUOUS
10
3.19937
20
2.84538
11
3.19952
21
2.84594
0
LINE
8
BLACK
6
CONTINUOUS
10
3.19952
20
2.84594
11
3.2002
21
2.84663
0
LINE
8
BLACK
6
CONTINUOUS
10
3.2002
20
2.84663
11
3.20074
21
2.84743
0
LINE
8
BLACK
6
CONTINUOUS
10
3.20074
20
2.84743
11
3.20127
21
2.84769
0
LINE
8
BLACK
6
CONTINUOUS
10
3.20127
20
2.84769
11
3.20168
21
2.8481
0
LINE
8
BLACK
6
CONTINUOUS
10
3.20168
20
2.8481
11
3.20261
21
2.84835
0
LINE
8
BLACK
6
CONTINUOUS
10
3.20261
20
2.84835
11
3.20349
21
2.84878
0
LINE
8
BLACK
6
CONTINUOUS
10
3.20349
20
2.84878
11
3.20407
21
2.84874
0
LINE
8
BLACK
6
CONTINUOUS
10
3.20407
20
2.84874
11
3.20463
21
2.84889
0
LINE
8
BLACK
6
CONTINUOUS
10
3.20463
20
2.84889
11
3.23631
21
2.84889
0
LINE
8
BLACK
6
CONTINUOUS
10
3.23631
20
2.84889
11
3.23927
21
2.8481
0
LINE
8
BLACK
6
CONTINUOUS
10
3.33188
20
2.8481
11
3.33404
21
2.84594
0
LINE
8
BLACK
6
CONTINUOUS
10
3.33404
20
2.84594
11
3.33483
21
2.84299
0
LINE
8
BLACK
6
CONTINUOUS
10
3.33483
20
2.84299
11
3.33404
21
2.84004
0
LINE
8
BLACK
6
CONTINUOUS
10
3.33404
20
2.84004
11
3.33188
21
2.83787
0
LINE
8
BLACK
6
CONTINUOUS
10
3.33188
20
2.83787
11
3.32893
21
2.83708
0
LINE
8
BLACK
6
CONTINUOUS
10
3.32893
20
2.83708
11
3.31026
21
2.83708
0
LINE
8
BLACK
6
CONTINUOUS
10
3.31026
20
2.83708
11
3.31875
21
2.82738
0
LINE
8
BLACK
6
CONTINUOUS
10
3.31875
20
2.82738
11
3.31901
21
2.82686
0
LINE
8
BLACK
6
CONTINUOUS
10
3.31901
20
2.82686
11
3.31942
21
2.82644
0
LINE
8
BLACK
6
CONTINUOUS
10
3.31942
20
2.82644
11
3.31967
21
2.82551
0
LINE
8
BLACK
6
CONTINUOUS
10
3.31967
20
2.82551
11
3.3201
21
2.82464
0
LINE
8
BLACK
6
CONTINUOUS
10
3.3201
20
2.82464
11
3.32006
21
2.82405
0
LINE
8
BLACK
6
CONTINUOUS
10
3.32006
20
2.82405
11
3.32021
21
2.82349
0
LINE
8
BLACK
6
CONTINUOUS
10
3.32021
20
2.82349
11
3.31996
21
2.82255
0
LINE
8
BLACK
6
CONTINUOUS
10
3.31996
20
2.82255
11
3.31989
21
2.82159
0
LINE
8
BLACK
6
CONTINUOUS
10
3.31989
20
2.82159
11
3.31957
21
2.8211
0
LINE
8
BLACK
6
CONTINUOUS
10
3.31957
20
2.8211
11
3.31942
21
2.82054
0
LINE
8
BLACK
6
CONTINUOUS
10
3.31942
20
2.82054
11
3.31873
21
2.81985
0
LINE
8
BLACK
6
CONTINUOUS
10
3.31873
20
2.81985
11
3.31819
21
2.81905
0
LINE
8
BLACK
6
CONTINUOUS
10
3.31819
20
2.81905
11
3.31767
21
2.81879
0
LINE
8
BLACK
6
CONTINUOUS
10
3.31767
20
2.81879
11
3.31726
21
2.81838
0
LINE
8
BLACK
6
CONTINUOUS
10
3.31726
20
2.81838
11
3.31632
21
2.81813
0
LINE
8
BLACK
6
CONTINUOUS
10
3.31632
20
2.81813
11
3.31545
21
2.8177
0
LINE
8
BLACK
6
CONTINUOUS
10
3.31545
20
2.8177
11
3.31487
21
2.81774
0
LINE
8
BLACK
6
CONTINUOUS
10
3.31487
20
2.81774
11
3.3143
21
2.81759
0
LINE
8
BLACK
6
CONTINUOUS
10
3.3143
20
2.81759
11
3.30839
21
2.81759
0
LINE
8
BLACK
6
CONTINUOUS
10
3.30839
20
2.81759
11
3.30562
21
2.8162
0
LINE
8
BLACK
6
CONTINUOUS
10
3.30562
20
2.8162
11
3.30453
21
2.81512
0
LINE
8
BLACK
6
CONTINUOUS
10
3.30453
20
2.81512
11
3.30315
21
2.81235
0
LINE
8
BLACK
6
CONTINUOUS
10
3.30315
20
2.81235
11
3.30315
21
2.80295
0
LINE
8
BLACK
6
CONTINUOUS
10
3.30315
20
2.80295
11
3.30453
21
2.80018
0
LINE
8
BLACK
6
CONTINUOUS
10
3.30453
20
2.80018
11
3.30562
21
2.7991
0
LINE
8
BLACK
6
CONTINUOUS
10
3.30562
20
2.7991
11
3.30839
21
2.79771
0
LINE
8
BLACK
6
CONTINUOUS
10
3.30839
20
2.79771
11
3.32022
21
2.79771
0
LINE
8
BLACK
6
CONTINUOUS
10
3.32022
20
2.79771
11
3.32299
21
2.7991
0
LINE
8
BLACK
6
CONTINUOUS
10
3.32299
20
2.7991
11
3.32475
21
2.80086
0
LINE
8
BLACK
6
CONTINUOUS
10
3.32475
20
2.80086
11
3.3274
21
2.80239
0
LINE
8
BLACK
6
CONTINUOUS
10
3.3274
20
2.80239
11
3.33046
21
2.80239
0
LINE
8
BLACK
6
CONTINUOUS
10
3.33046
20
2.80239
11
3.3331
21
2.80086
0
LINE
8
BLACK
6
CONTINUOUS
10
3.3331
20
2.80086
11
3.33463
21
2.79821
0
LINE
8
BLACK
6
CONTINUOUS
10
3.33463
20
2.79821
11
3.33463
21
2.79515
0
LINE
8
BLACK
6
CONTINUOUS
10
3.33463
20
2.79515
11
3.3331
21
2.79251
0
LINE
8
BLACK
6
CONTINUOUS
10
3.3331
20
2.79251
11
3.33067
21
2.79007
0
LINE
8
BLACK
6
CONTINUOUS
10
3.33067
20
2.79007
11
3.32984
21
2.78959
0
LINE
8
BLACK
6
CONTINUOUS
10
3.32984
20
2.78959
11
3.32913
21
2.78896
0
LINE
8
BLACK
6
CONTINUOUS
10
3.32913
20
2.78896
11
3.32426
21
2.78653
0
LINE
8
BLACK
6
CONTINUOUS
10
3.32426
20
2.78653
11
3.32293
21
2.78625
0
LINE
8
BLACK
6
CONTINUOUS
10
3.32293
20
2.78625
11
3.32162
21
2.7859
0
LINE
8
BLACK
6
CONTINUOUS
10
3.32162
20
2.7859
11
3.30699
21
2.7859
0
LINE
8
BLACK
6
CONTINUOUS
10
3.30699
20
2.7859
11
3.30568
21
2.78625
0
LINE
8
BLACK
6
CONTINUOUS
10
3.30568
20
2.78625
11
3.30435
21
2.78653
0
LINE
8
BLACK
6
CONTINUOUS
10
3.30435
20
2.78653
11
3.29948
21
2.78896
0
LINE
8
BLACK
6
CONTINUOUS
10
3.29948
20
2.78896
11
3.29877
21
2.78959
0
LINE
8
BLACK
6
CONTINUOUS
10
3.29877
20
2.78959
11
3.29794
21
2.79007
0
LINE
8
BLACK
6
CONTINUOUS
10
3.29794
20
2.79007
11
3.29551
21
2.79251
0
LINE
8
BLACK
6
CONTINUOUS
10
3.29551
20
2.79251
11
3.29503
21
2.79333
0
LINE
8
BLACK
6
CONTINUOUS
10
3.29503
20
2.79333
11
3.2944
21
2.79404
0
LINE
8
BLACK
6
CONTINUOUS
10
3.2944
20
2.79404
11
3.29196
21
2.79892
0
LINE
8
BLACK
6
CONTINUOUS
10
3.29196
20
2.79892
11
3.29169
21
2.80024
0
LINE
8
BLACK
6
CONTINUOUS
10
3.29169
20
2.80024
11
3.29134
21
2.80156
0
LINE
8
BLACK
6
CONTINUOUS
10
3.29134
20
2.80156
11
3.29134
21
2.81374
0
LINE
8
BLACK
6
CONTINUOUS
10
3.29134
20
2.81374
11
3.29169
21
2.81505
0
LINE
8
BLACK
6
CONTINUOUS
10
3.29169
20
2.81505
11
3.29196
21
2.81638
0
LINE
8
BLACK
6
CONTINUOUS
10
3.29196
20
2.81638
11
3.2944
21
2.82126
0
LINE
8
BLACK
6
CONTINUOUS
10
3.2944
20
2.82126
11
3.29503
21
2.82197
0
LINE
8
BLACK
6
CONTINUOUS
10
3.29503
20
2.82197
11
3.29551
21
2.82279
0
LINE
8
BLACK
6
CONTINUOUS
10
3.29551
20
2.82279
11
3.29794
21
2.82523
0
LINE
8
BLACK
6
CONTINUOUS
10
3.29794
20
2.82523
11
3.29877
21
2.8257
0
LINE
8
BLACK
6
CONTINUOUS
10
3.29877
20
2.8257
11
3.29948
21
2.82634
0
LINE
8
BLACK
6
CONTINUOUS
10
3.29948
20
2.82634
11
3.3026
21
2.8279
0
LINE
8
BLACK
6
CONTINUOUS
10
3.3026
20
2.8279
11
3.2928
21
2.8391
0
LINE
8
BLACK
6
CONTINUOUS
10
3.2928
20
2.8391
11
3.29254
21
2.83962
0
LINE
8
BLACK
6
CONTINUOUS
10
3.29254
20
2.83962
11
3.29213
21
2.84004
0
LINE
8
BLACK
6
CONTINUOUS
10
3.29213
20
2.84004
11
3.29188
21
2.84097
0
LINE
8
BLACK
6
CONTINUOUS
10
3.29188
20
2.84097
11
3.29145
21
2.84184
0
LINE
8
BLACK
6
CONTINUOUS
10
3.29145
20
2.84184
11
3.29149
21
2.84242
0
LINE
8
BLACK
6
CONTINUOUS
10
3.29149
20
2.84242
11
3.29134
21
2.84299
0
LINE
8
BLACK
6
CONTINUOUS
10
3.29134
20
2.84299
11
3.29159
21
2.84393
0
LINE
8
BLACK
6
CONTINUOUS
10
3.29159
20
2.84393
11
3.29165
21
2.84489
0
LINE
8
BLACK
6
CONTINUOUS
10
3.29165
20
2.84489
11
3.29198
21
2.84538
0
LINE
8
BLACK
6
CONTINUOUS
10
3.29198
20
2.84538
11
3.29213
21
2.84594
0
LINE
8
BLACK
6
CONTINUOUS
10
3.29213
20
2.84594
11
3.29282
21
2.84663
0
LINE
8
BLACK
6
CONTINUOUS
10
3.29282
20
2.84663
11
3.29336
21
2.84743
0
LINE
8
BLACK
6
CONTINUOUS
10
3.29336
20
2.84743
11
3.29388
21
2.84769
0
LINE
8
BLACK
6
CONTINUOUS
10
3.29388
20
2.84769
11
3.29429
21
2.8481
0
LINE
8
BLACK
6
CONTINUOUS
10
3.29429
20
2.8481
11
3.29523
21
2.84835
0
LINE
8
BLACK
6
CONTINUOUS
10
3.29523
20
2.84835
11
3.2961
21
2.84878
0
LINE
8
BLACK
6
CONTINUOUS
10
3.2961
20
2.84878
11
3.29668
21
2.84874
0
LINE
8
BLACK
6
CONTINUOUS
10
3.29668
20
2.84874
11
3.29724
21
2.84889
0
LINE
8
BLACK
6
CONTINUOUS
10
3.29724
20
2.84889
11
3.32893
21
2.84889
0
LINE
8
BLACK
6
CONTINUOUS
10
3.32893
20
2.84889
11
3.33188
21
2.8481
0
LINE
8
BLACK
6
CONTINUOUS
10
3.28449
20
2.84859
11
3.28704
21
2.84691
0
LINE
8
BLACK
6
CONTINUOUS
10
3.28704
20
2.84691
11
3.28841
21
2.84417
0
LINE
8
BLACK
6
CONTINUOUS
10
3.28841
20
2.84417
11
3.28822
21
2.84112
0
LINE
8
BLACK
6
CONTINUOUS
10
3.28822
20
2.84112
11
3.27116
21
2.78994
0
LINE
8
BLACK
6
CONTINUOUS
10
3.27116
20
2.78994
11
3.27051
21
2.78895
0
LINE
8
BLACK
6
CONTINUOUS
10
3.27051
20
2.78895
11
3.26998
21
2.78789
0
LINE
8
BLACK
6
CONTINUOUS
10
3.26998
20
2.78789
11
3.26968
21
2.78769
0
LINE
8
BLACK
6
CONTINUOUS
10
3.26968
20
2.78769
11
3.26948
21
2.78739
0
LINE
8
BLACK
6
CONTINUOUS
10
3.26948
20
2.78739
11
3.26842
21
2.78686
0
LINE
8
BLACK
6
CONTINUOUS
10
3.26842
20
2.78686
11
3.26743
21
2.7862
0
LINE
8
BLACK
6
CONTINUOUS
10
3.26743
20
2.7862
11
3.26707
21
2.78618
0
LINE
8
BLACK
6
CONTINUOUS
10
3.26707
20
2.78618
11
3.26674
21
2.78602
0
LINE
8
BLACK
6
CONTINUOUS
10
3.26674
20
2.78602
11
3.26556
21
2.78609
0
LINE
8
BLACK
6
CONTINUOUS
10
3.26556
20
2.78609
11
3.26438
21
2.78602
0
LINE
8
BLACK
6
CONTINUOUS
10
3.26438
20
2.78602
11
3.26405
21
2.78618
0
LINE
8
BLACK
6
CONTINUOUS
10
3.26405
20
2.78618
11
3.26369
21
2.7862
0
LINE
8
BLACK
6
CONTINUOUS
10
3.26369
20
2.7862
11
3.2627
21
2.78686
0
LINE
8
BLACK
6
CONTINUOUS
10
3.2627
20
2.78686
11
3.26164
21
2.78739
0
LINE
8
BLACK
6
CONTINUOUS
10
3.26164
20
2.78739
11
3.26144
21
2.78769
0
LINE
8
BLACK
6
CONTINUOUS
10
3.26144
20
2.78769
11
3.26114
21
2.78789
0
LINE
8
BLACK
6
CONTINUOUS
10
3.26114
20
2.78789
11
3.26061
21
2.78895
0
LINE
8
BLACK
6
CONTINUOUS
10
3.26061
20
2.78895
11
3.25996
21
2.78994
0
LINE
8
BLACK
6
CONTINUOUS
10
3.25996
20
2.78994
11
3.2429
21
2.84112
0
LINE
8
BLACK
6
CONTINUOUS
10
3.2429
20
2.84112
11
3.24271
21
2.84417
0
LINE
8
BLACK
6
CONTINUOUS
10
3.24271
20
2.84417
11
3.24408
21
2.84691
0
LINE
8
BLACK
6
CONTINUOUS
10
3.24408
20
2.84691
11
3.24663
21
2.84859
0
LINE
8
BLACK
6
CONTINUOUS
10
3.24663
20
2.84859
11
3.24968
21
2.84877
0
LINE
8
BLACK
6
CONTINUOUS
10
3.24968
20
2.84877
11
3.25242
21
2.84741
0
LINE
8
BLACK
6
CONTINUOUS
10
3.25242
20
2.84741
11
3.2541
21
2.84486
0
LINE
8
BLACK
6
CONTINUOUS
10
3.2541
20
2.84486
11
3.26556
21
2.81048
0
LINE
8
BLACK
6
CONTINUOUS
10
3.26556
20
2.81048
11
3.27702
21
2.84486
0
LINE
8
BLACK
6
CONTINUOUS
10
3.27702
20
2.84486
11
3.2787
21
2.84741
0
LINE
8
BLACK
6
CONTINUOUS
10
3.2787
20
2.84741
11
3.28144
21
2.84877
0
LINE
8
BLACK
6
CONTINUOUS
10
3.28144
20
2.84877
11
3.28449
21
2.84859
  0
ENDSEC
  0
EOF
