  0
SECTION
  2
HEADER
  9
$ANGBASE
  50
0.0
  9
$ANGDIR
  70
1
  9
$MEASUREMENT
  70
0
  0
ENDSEC
  0
SECTION
  2
TABLES
  0
TABLE
  2
LTYPE
  70
4
  0
LTYPE
  5
40F
  2
CONTINUOUS
  70
0
  3
Solid line
  72
65
  73
0
  40
0.0
  0
LTYPE
  5
410
  2
DASHDOT
 70
0
  3
Dash Dot ____ _ ____ _
 72
65
 73
4
 40
2.0
 49
1.25
 49
-0.25
 49
0.25
 49
-0.25
  0
LTYPE
  5
411
  2
DASHED
 70
0
  3
Dashed __ __ __ __ __
 72
65
 73
2
 40
0.75
 49
0.5
 49
-0.25
  0
LTYPE
  5
43B
  2
DOTTED
 70
0
  3
Dotted .  .  .  .
 72
65
 73
2
 40
0.2
 49
0.0
 49
-0.2
  0
ENDTAB
  0
TABLE
  2
STYLE
  70
4
  0
STYLE
  2
KICAD
  70
0
  40
0
  41
1
  42
1
  50
0
  71
0
  3
isocp.shx
  0
STYLE
  2
KICADB
  70
0
  40
0
  41
1
  42
1
  50
0
  71
0
  3
isocp.shx
  0
STYLE
  2
KICADI
  70
0
  40
0
  41
1
  42
1
  50
15
  71
0
  3
isocp.shx
  0
STYLE
  2
KICADBI
  70
0
  40
0
  41
1
  42
1
  50
15
  71
0
  3
isocp.shx
  0
ENDTAB
  0
TABLE
  2
LAYER
  70
1
  0
LAYER
  2
BLACK
  70
0
  62
7
  6
CONTINUOUS
  0
ENDTAB
  0
ENDSEC
  0
SECTION
  2
ENTITIES
0
LINE
8
BLACK
6
CONTINUOUS
10
7.0486034645669289
20
-3.1786083858267715
11
7.0486035039370076
21
-3.1786083858267715
0
LINE
8
BLACK
6
CONTINUOUS
10
7.0486035039370076
20
-3.1786083858267715
11
7.0592665354330704
21
-3.1793074015748033
0
LINE
8
BLACK
6
CONTINUOUS
10
7.0592665354330704
20
-3.1793074015748033
11
7.0697471259842519
21
-3.181392244094488
0
LINE
8
BLACK
6
CONTINUOUS
10
7.0697471259842519
20
-3.181392244094488
11
7.0798659448818899
21
-3.1848271653543305
0
LINE
8
BLACK
6
CONTINUOUS
10
7.0798659448818899
20
-3.1848271653543305
11
7.0894498425196852
21
-3.189553464566929
0
LINE
8
BLACK
6
CONTINUOUS
10
7.0894498425196852
20
-3.189553464566929
11
7.0983348818897634
21
-3.1954902362204725
0
LINE
8
BLACK
6
CONTINUOUS
10
7.0983348818897634
20
-3.1954902362204725
11
7.1063690157480313
21
-3.2025359448818898
0
LINE
8
BLACK
6
CONTINUOUS
10
7.1063690157480313
20
-3.2025359448818898
11
7.1134148031496061
21
-3.2105700000000001
0
LINE
8
BLACK
6
CONTINUOUS
10
7.1134148031496061
20
-3.2105700000000001
11
7.1193516535433066
21
-3.219455
0
LINE
8
BLACK
6
CONTINUOUS
10
7.1193516535433066
20
-3.219455
11
7.1240780314960626
21
-3.2290388582677165
0
LINE
8
BLACK
6
CONTINUOUS
10
7.1240780314960626
20
-3.2290388582677165
11
7.1275130708661418
21
-3.2391576377952753
0
LINE
8
BLACK
6
CONTINUOUS
10
7.1275130708661418
20
-3.2391576377952753
11
7.1295979921259844
21
-3.2496381889763777
0
LINE
8
BLACK
6
CONTINUOUS
10
7.1295979921259844
20
-3.2496381889763777
11
7.130297125984252
21
-3.2603012204724409
0
LINE
8
BLACK
6
CONTINUOUS
10
7.130297125984252
20
-3.2603012204724409
11
7.1302963779527557
21
-3.2603012204724409
0
LINE
8
BLACK
6
CONTINUOUS
10
7.1302963779527557
20
-3.2603012204724409
11
7.130296338582677
21
-3.2603012598425196
0
LINE
8
BLACK
6
CONTINUOUS
10
7.130296338582677
20
-3.2603012598425196
11
7.1302963779527557
21
-3.2603012992125984
0
LINE
8
BLACK
6
CONTINUOUS
10
7.1302963779527557
20
-3.2603012992125984
11
7.130296338582677
21
-4.4083327952755909
0
LINE
8
BLACK
6
CONTINUOUS
10
7.130296338582677
20
-4.4083327952755909
11
7.130296338582677
21
-4.4083328740157484
0
LINE
8
BLACK
6
CONTINUOUS
10
7.130296338582677
20
-4.4083328740157484
11
7.130297125984252
21
-4.4083328740157484
0
LINE
8
BLACK
6
CONTINUOUS
10
7.130297125984252
20
-4.4083328740157484
11
7.1302970472440945
21
-4.4133002362204721
0
LINE
8
BLACK
6
CONTINUOUS
10
7.1302970472440945
20
-4.4133002362204721
11
7.1315935826771648
21
-4.4231499999999997
0
LINE
8
BLACK
6
CONTINUOUS
10
7.1315935826771648
20
-4.4231499999999997
11
7.1341646850393703
21
-4.4327462598425198
0
LINE
8
BLACK
6
CONTINUOUS
10
7.1341646850393703
20
-4.4327462598425198
11
7.1379664173228345
21
-4.4419248031496066
0
LINE
8
BLACK
6
CONTINUOUS
10
7.1379664173228345
20
-4.4419248031496066
11
7.1429337007874016
21
-4.4505285826771654
0
LINE
8
BLACK
6
CONTINUOUS
10
7.1429337007874016
20
-4.4505285826771654
11
7.1489815354330704
21
-4.4584103937007873
0
LINE
8
BLACK
6
CONTINUOUS
10
7.1489815354330704
20
-4.4584103937007873
11
7.1560064173228346
21
-4.4654353149606294
0
LINE
8
BLACK
6
CONTINUOUS
10
7.1560064173228346
20
-4.4654353149606294
11
7.1638881496062989
21
-4.4714832283464565
0
LINE
8
BLACK
6
CONTINUOUS
10
7.1638881496062989
20
-4.4714832283464565
11
7.172491889763779
21
-4.4764505905511811
0
LINE
8
BLACK
6
CONTINUOUS
10
7.172491889763779
20
-4.4764505905511811
11
7.1816703937007871
21
-4.4802524015748029
0
LINE
8
BLACK
6
CONTINUOUS
10
7.1816703937007871
20
-4.4802524015748029
11
7.1912666141732284
21
-4.4828236220472437
0
LINE
8
BLACK
6
CONTINUOUS
10
7.1912666141732284
20
-4.4828236220472437
11
7.2011163779527561
21
-4.4841202362204724
0
LINE
8
BLACK
6
CONTINUOUS
10
7.2011163779527561
20
-4.4841202362204724
11
7.2060837401574798
21
-4.4841201968503936
0
LINE
8
BLACK
6
CONTINUOUS
10
7.2060837401574798
20
-4.4841201968503936
11
7.2060837795275585
21
-4.4841201968503936
0
LINE
8
BLACK
6
CONTINUOUS
10
7.2060837795275585
20
-4.4841201968503936
11
7.2415168110236223
21
-4.4841201968503936
0
LINE
8
BLACK
6
CONTINUOUS
10
7.2415168110236223
20
-4.4841201968503936
11
7.2415168503937002
21
-4.4841201968503936
0
LINE
8
BLACK
6
CONTINUOUS
10
7.2415168503937002
20
-4.4841201968503936
11
7.2521798818897638
21
-4.484819212598425
0
LINE
8
BLACK
6
CONTINUOUS
10
7.2521798818897638
20
-4.484819212598425
11
7.2626604724409445
21
-4.4869040157480313
0
LINE
8
BLACK
6
CONTINUOUS
10
7.2626604724409445
20
-4.4869040157480313
11
7.2727792913385825
21
-4.4903389763779531
0
LINE
8
BLACK
6
CONTINUOUS
10
7.2727792913385825
20
-4.4903389763779531
11
7.2823632283464566
21
-4.4950652755905507
0
LINE
8
BLACK
6
CONTINUOUS
10
7.2823632283464566
20
-4.4950652755905507
11
7.2912482283464568
21
-4.5010020472440946
0
LINE
8
BLACK
6
CONTINUOUS
10
7.2912482283464568
20
-4.5010020472440946
11
7.2992823622047238
21
-4.5080477559055119
0
LINE
8
BLACK
6
CONTINUOUS
10
7.2992823622047238
20
-4.5080477559055119
11
7.3063281496062986
21
-4.5160818110236223
0
LINE
8
BLACK
6
CONTINUOUS
10
7.3063281496062986
20
-4.5160818110236223
11
7.3122650393700788
21
-4.5249667716535429
0
LINE
8
BLACK
6
CONTINUOUS
10
7.3122650393700788
20
-4.5249667716535429
11
7.3169914173228348
21
-4.5345506692913382
0
LINE
8
BLACK
6
CONTINUOUS
10
7.3169914173228348
20
-4.5345506692913382
11
7.3204264566929131
21
-4.5446694488188975
0
LINE
8
BLACK
6
CONTINUOUS
10
7.3204264566929131
20
-4.5446694488188975
11
7.3225113779527558
21
-4.5551500000000003
0
LINE
8
BLACK
6
CONTINUOUS
10
7.3225113779527558
20
-4.5551500000000003
11
7.3232105118110233
21
-4.565813031496063
0
LINE
8
BLACK
6
CONTINUOUS
10
7.3232105118110233
20
-4.565813031496063
11
7.3232097244094483
21
-4.565813031496063
0
LINE
8
BLACK
6
CONTINUOUS
10
7.3232097244094483
20
-4.565813031496063
11
7.3232096850393695
21
-4.5658130708661417
0
LINE
8
BLACK
6
CONTINUOUS
10
7.3232096850393695
20
-4.5658130708661417
11
7.3232097244094483
21
-4.5658131102362205
0
LINE
8
BLACK
6
CONTINUOUS
10
7.3232097244094483
20
-4.5658131102362205
11
7.3232097244094483
21
-4.8571516141732278
0
LINE
8
BLACK
6
CONTINUOUS
10
7.3232097244094483
20
-4.8571516141732278
11
7.3225110629921257
21
-4.8678149212598427
0
LINE
8
BLACK
6
CONTINUOUS
10
7.3225110629921257
20
-4.8678149212598427
11
7.3204265354330706
21
-4.8782957874015747
0
LINE
8
BLACK
6
CONTINUOUS
10
7.3204265354330706
20
-4.8782957874015747
11
7.3169918110236223
21
-4.8884148818897639
0
LINE
8
BLACK
6
CONTINUOUS
10
7.3169918110236223
20
-4.8884148818897639
11
7.3122656299212601
21
-4.8979990944881893
0
LINE
8
BLACK
6
CONTINUOUS
10
7.3122656299212601
20
-4.8979990944881893
11
7.3063288976377949
21
-4.9068844488188974
0
LINE
8
BLACK
6
CONTINUOUS
10
7.3063288976377949
20
-4.9068844488188974
11
7.2992831889763776
21
-4.9149188582677166
0
LINE
8
BLACK
6
CONTINUOUS
10
7.2992831889763776
20
-4.9149188582677166
11
7.291249015748031
21
-4.9219648425196851
0
LINE
8
BLACK
6
CONTINUOUS
10
7.291249015748031
20
-4.9219648425196851
11
7.2823639370078741
21
-4.9279019291338582
0
LINE
8
BLACK
6
CONTINUOUS
10
7.2823639370078741
20
-4.9279019291338582
11
7.2727798818897638
21
-4.9326284251968504
0
LINE
8
BLACK
6
CONTINUOUS
10
7.2727798818897638
20
-4.9326284251968504
11
7.2626609055118108
21
-4.9360635433070863
0
LINE
8
BLACK
6
CONTINUOUS
10
7.2626609055118108
20
-4.9360635433070863
11
7.2521801181102363
21
-4.9381484645669289
0
LINE
8
BLACK
6
CONTINUOUS
10
7.2521801181102363
20
-4.9381484645669289
11
7.2415168503937002
21
-4.938847519685039
0
LINE
8
BLACK
6
CONTINUOUS
10
7.2415168503937002
20
-4.938847519685039
11
7.2415168503937002
21
-4.9388446062992122
0
LINE
8
BLACK
6
CONTINUOUS
10
7.2415168503937002
20
-4.9388446062992122
11
7.2415168110236223
21
-4.9388445669291334
0
LINE
8
BLACK
6
CONTINUOUS
10
7.2415168110236223
20
-4.9388445669291334
11
7.2415168110236223
21
-4.9388446062992122
0
LINE
8
BLACK
6
CONTINUOUS
10
7.2415168110236223
20
-4.9388446062992122
11
6.3360050000000001
21
-4.9388446062992122
0
LINE
8
BLACK
6
CONTINUOUS
10
6.3360050000000001
20
-4.9388446062992122
11
6.3360049606299214
21
-4.9388445669291334
0
LINE
8
BLACK
6
CONTINUOUS
10
6.3360049606299214
20
-4.9388445669291334
11
6.3360049606299214
21
-4.9388446062992122
0
LINE
8
BLACK
6
CONTINUOUS
10
6.3360049606299214
20
-4.9388446062992122
11
6.3360049606299214
21
-4.938847519685039
0
LINE
8
BLACK
6
CONTINUOUS
10
6.3360049606299214
20
-4.938847519685039
11
6.331589724409449
21
-4.9388474409448815
0
LINE
8
BLACK
6
CONTINUOUS
10
6.331589724409449
20
-4.9388474409448815
11
6.3228679527559057
21
-4.940228661417323
0
LINE
8
BLACK
6
CONTINUOUS
10
6.3228679527559057
20
-4.940228661417323
11
6.3144696456692913
21
-4.9429572440944884
0
LINE
8
BLACK
6
CONTINUOUS
10
6.3144696456692913
20
-4.9429572440944884
11
6.3066015354330709
21
-4.9469660236220472
0
LINE
8
BLACK
6
CONTINUOUS
10
6.3066015354330709
20
-4.9469660236220472
11
6.2994574409448818
21
-4.9521562598425195
0
LINE
8
BLACK
6
CONTINUOUS
10
6.2994574409448818
20
-4.9521562598425195
11
6.2932131889763774
21
-4.9584001968503939
0
LINE
8
BLACK
6
CONTINUOUS
10
6.2932131889763774
20
-4.9584001968503939
11
6.2880225984251963
21
-4.9655440551181105
0
LINE
8
BLACK
6
CONTINUOUS
10
6.2880225984251963
20
-4.9655440551181105
11
6.28401342519685
21
-4.9734119291338583
0
LINE
8
BLACK
6
CONTINUOUS
10
6.28401342519685
20
-4.9734119291338583
11
6.2812844488188979
21
-4.9818101181102357
0
LINE
8
BLACK
6
CONTINUOUS
10
6.2812844488188979
20
-4.9818101181102357
11
6.2799027952755901
21
-4.9905318503937011
0
LINE
8
BLACK
6
CONTINUOUS
10
6.2799027952755901
20
-4.9905318503937011
11
6.2799026377952751
21
-4.9949469685039372
0
LINE
8
BLACK
6
CONTINUOUS
10
6.2799026377952751
20
-4.9949469685039372
11
6.2799026377952751
21
-5.0185689370078741
0
LINE
8
BLACK
6
CONTINUOUS
10
6.2799026377952751
20
-5.0185689370078741
11
6.2792717322834646
21
-5.0273938188976377
0
LINE
8
BLACK
6
CONTINUOUS
10
6.2792717322834646
20
-5.0273938188976377
11
6.2773913385826772
21
-5.0360390944881885
0
LINE
8
BLACK
6
CONTINUOUS
10
6.2773913385826772
20
-5.0360390944881885
11
6.2742997244094489
21
-5.0443287401574803
0
LINE
8
BLACK
6
CONTINUOUS
10
6.2742997244094489
20
-5.0443287401574803
11
6.270059842519685
21
-5.0520940551181104
0
LINE
8
BLACK
6
CONTINUOUS
10
6.270059842519685
20
-5.0520940551181104
11
6.2647579527559056
21
-5.059176889763779
0
LINE
8
BLACK
6
CONTINUOUS
10
6.2647579527559056
20
-5.059176889763779
11
6.258502047244094
21
-5.0654331102362207
0
LINE
8
BLACK
6
CONTINUOUS
10
6.258502047244094
20
-5.0654331102362207
11
6.2514194488188979
21
-5.0707353543307088
0
LINE
8
BLACK
6
CONTINUOUS
10
6.2514194488188979
20
-5.0707353543307088
11
6.2436543700787404
21
-5.0749756299212594
0
LINE
8
BLACK
6
CONTINUOUS
10
6.2436543700787404
20
-5.0749756299212594
11
6.2353648425196848
21
-5.0780676377952751
0
LINE
8
BLACK
6
CONTINUOUS
10
6.2353648425196848
20
-5.0780676377952751
11
6.2267196850393702
21
-5.0799484645669288
0
LINE
8
BLACK
6
CONTINUOUS
10
6.2267196850393702
20
-5.0799484645669288
11
6.2178948031496057
21
-5.0805798031496066
0
LINE
8
BLACK
6
CONTINUOUS
10
6.2178948031496057
20
-5.0805798031496066
11
6.2178948031496057
21
-5.0805768897637797
0
LINE
8
BLACK
6
CONTINUOUS
10
6.2178948031496057
20
-5.0805768897637797
11
6.217894763779527
21
-5.080576850393701
0
LINE
8
BLACK
6
CONTINUOUS
10
6.217894763779527
20
-5.080576850393701
11
6.217894763779527
21
-5.0805768897637797
0
LINE
8
BLACK
6
CONTINUOUS
10
6.217894763779527
20
-5.0805768897637797
11
3.7178948031496062
21
-5.0805768897637797
0
LINE
8
BLACK
6
CONTINUOUS
10
3.7178948031496062
20
-5.0805768897637797
11
3.7178947637795274
21
-5.0805768897637797
0
LINE
8
BLACK
6
CONTINUOUS
10
3.7178947637795274
20
-5.0805768897637797
11
3.7178947244094487
21
-5.080576850393701
0
LINE
8
BLACK
6
CONTINUOUS
10
3.7178947244094487
20
-5.080576850393701
11
3.7072317322834647
21
-5.07987811023622
0
LINE
8
BLACK
6
CONTINUOUS
10
3.7072317322834647
20
-5.07987811023622
11
3.6967510629921261
21
-5.0777935039370075
0
LINE
8
BLACK
6
CONTINUOUS
10
3.6967510629921261
20
-5.0777935039370075
11
3.6866322047244093
21
-5.0743586614173228
0
LINE
8
BLACK
6
CONTINUOUS
10
3.6866322047244093
20
-5.0743586614173228
11
3.6770482677165353
21
-5.0696324015748031
0
LINE
8
BLACK
6
CONTINUOUS
10
3.6770482677165353
20
-5.0696324015748031
11
3.6681631889763779
21
-5.0636955905511813
0
LINE
8
BLACK
6
CONTINUOUS
10
3.6681631889763779
20
-5.0636955905511813
11
3.6601290944881888
21
-5.0566498425196853
0
LINE
8
BLACK
6
CONTINUOUS
10
3.6601290944881888
20
-5.0566498425196853
11
3.6530834251968503
21
-5.0486156692913386
0
LINE
8
BLACK
6
CONTINUOUS
10
3.6530834251968503
20
-5.0486156692913386
11
3.6471466929133856
21
-5.0397305511811021
0
LINE
8
BLACK
6
CONTINUOUS
10
3.6471466929133856
20
-5.0397305511811021
11
3.6424205511811021
21
-5.0301465748031493
0
LINE
8
BLACK
6
CONTINUOUS
10
3.6424205511811021
20
-5.0301465748031493
11
3.6389858267716533
21
-5.0200276771653538
0
LINE
8
BLACK
6
CONTINUOUS
10
3.6389858267716533
20
-5.0200276771653538
11
3.6369012992125982
21
-5.0095470078740156
0
LINE
8
BLACK
6
CONTINUOUS
10
3.6369012992125982
20
-5.0095470078740156
11
3.6362027952755906
21
-4.9988866141732284
0
LINE
8
BLACK
6
CONTINUOUS
10
3.6362027952755906
20
-4.9988866141732284
11
3.6362018503937006
21
-4.9988839763779529
0
LINE
8
BLACK
6
CONTINUOUS
10
3.6362018503937006
20
-4.9988839763779529
11
3.6362018503937006
21
-4.7232934251968501
0
LINE
8
BLACK
6
CONTINUOUS
10
3.6362018503937006
20
-4.7232934251968501
11
3.6362018503937006
21
-4.7232933464566926
0
LINE
8
BLACK
6
CONTINUOUS
10
3.6362018503937006
20
-4.7232933464566926
11
3.6369009842519686
21
-4.7126305118110237
0
LINE
8
BLACK
6
CONTINUOUS
10
3.6369009842519686
20
-4.7126305118110237
11
3.6389859055118108
21
-4.7021501574803146
0
LINE
8
BLACK
6
CONTINUOUS
10
3.6389859055118108
20
-4.7021501574803146
11
3.6424209448818896
21
-4.6920315748031491
0
LINE
8
BLACK
6
CONTINUOUS
10
3.6424209448818896
20
-4.6920315748031491
11
3.6471473228346456
21
-4.6824479133858263
0
LINE
8
BLACK
6
CONTINUOUS
10
3.6471473228346456
20
-4.6824479133858263
11
3.6530841732283466
21
-4.6735631889763782
0
LINE
8
BLACK
6
CONTINUOUS
10
3.6530841732283466
20
-4.6735631889763782
11
3.6601299212598426
21
-4.6655293307086616
0
LINE
8
BLACK
6
CONTINUOUS
10
3.6601299212598426
20
-4.6655293307086616
11
3.6681640157480313
21
-4.6584838976377956
0
LINE
8
BLACK
6
CONTINUOUS
10
3.6681640157480313
20
-4.6584838976377956
11
3.6770489763779528
21
-4.6525473622047242
0
LINE
8
BLACK
6
CONTINUOUS
10
3.6770489763779528
20
-4.6525473622047242
11
3.6866327952755906
21
-4.647821338582677
0
LINE
8
BLACK
6
CONTINUOUS
10
3.6866327952755906
20
-4.647821338582677
11
3.6967514960629919
21
-4.6443866929133861
0
LINE
8
BLACK
6
CONTINUOUS
10
3.6967514960629919
20
-4.6443866929133861
11
3.707231929133858
21
-4.642302165354331
0
LINE
8
BLACK
6
CONTINUOUS
10
3.707231929133858
20
-4.642302165354331
11
3.717883464566929
21
-4.6416041338582676
0
LINE
8
BLACK
6
CONTINUOUS
10
3.717883464566929
20
-4.6416041338582676
11
3.7178947244094487
21
-4.6416005118110233
0
LINE
8
BLACK
6
CONTINUOUS
10
3.7178947244094487
20
-4.6416005118110233
11
3.7178947244094487
21
-4.6416034251968501
0
LINE
8
BLACK
6
CONTINUOUS
10
3.7178947244094487
20
-4.6416034251968501
11
3.7178948031496062
21
-4.6416033858267713
0
LINE
8
BLACK
6
CONTINUOUS
10
3.7178948031496062
20
-4.6416033858267713
11
3.7178948031496062
21
-4.6416005118110233
0
LINE
8
BLACK
6
CONTINUOUS
10
3.7178948031496062
20
-4.6416005118110233
11
3.7179037401574804
21
-4.6416033858267713
0
LINE
8
BLACK
6
CONTINUOUS
10
3.7179037401574804
20
-4.6416033858267713
11
3.7228622047244095
21
-4.6416033464566926
0
LINE
8
BLACK
6
CONTINUOUS
10
3.7228622047244095
20
-4.6416033464566926
11
3.7327121259842517
21
-4.6403064173228348
0
LINE
8
BLACK
6
CONTINUOUS
10
3.7327121259842517
20
-4.6403064173228348
11
3.7423085039370076
21
-4.6377349212598427
0
LINE
8
BLACK
6
CONTINUOUS
10
3.7423085039370076
20
-4.6377349212598427
11
3.7514871259842519
21
-4.6339328346456696
0
LINE
8
BLACK
6
CONTINUOUS
10
3.7514871259842519
20
-4.6339328346456696
11
3.7600909448818896
21
-4.6289652362204725
0
LINE
8
BLACK
6
CONTINUOUS
10
3.7600909448818896
20
-4.6289652362204725
11
3.7679727559055118
21
-4.6229170866141729
0
LINE
8
BLACK
6
CONTINUOUS
10
3.7679727559055118
20
-4.6229170866141729
11
3.7749976771653544
21
-4.6158918897637795
0
LINE
8
BLACK
6
CONTINUOUS
10
3.7749976771653544
20
-4.6158918897637795
11
3.7810455511811023
21
-4.6080098818897639
0
LINE
8
BLACK
6
CONTINUOUS
10
3.7810455511811023
20
-4.6080098818897639
11
3.7860128346456694
21
-4.5994058661417325
0
LINE
8
BLACK
6
CONTINUOUS
10
3.7860128346456694
20
-4.5994058661417325
11
3.7898145669291337
21
-4.5902270866141732
0
LINE
8
BLACK
6
CONTINUOUS
10
3.7898145669291337
20
-4.5902270866141732
11
3.7923857086614174
21
-4.5806306299212594
0
LINE
8
BLACK
6
CONTINUOUS
10
3.7923857086614174
20
-4.5806306299212594
11
3.7936822440944882
21
-4.5707806299212601
0
LINE
8
BLACK
6
CONTINUOUS
10
3.7936822440944882
20
-4.5707806299212601
11
3.7936821653543307
21
-4.565813188976378
0
LINE
8
BLACK
6
CONTINUOUS
10
3.7936821653543307
20
-4.565813188976378
11
3.7936821653543307
21
-4.5658131102362205
0
LINE
8
BLACK
6
CONTINUOUS
10
3.7936821653543307
20
-4.5658131102362205
11
3.7936821653543307
21
-3.2603012992125984
0
LINE
8
BLACK
6
CONTINUOUS
10
3.7936821653543307
20
-3.2603012992125984
11
3.7936821653543307
21
-3.2603012204724409
0
LINE
8
BLACK
6
CONTINUOUS
10
3.7936821653543307
20
-3.2603012204724409
11
3.7943812992125983
21
-3.2496383858267714
0
LINE
8
BLACK
6
CONTINUOUS
10
3.7943812992125983
20
-3.2496383858267714
11
3.7964662204724409
21
-3.2391580314960629
0
LINE
8
BLACK
6
CONTINUOUS
10
3.7964662204724409
20
-3.2391580314960629
11
3.7999012598425197
21
-3.2290394488188974
0
LINE
8
BLACK
6
CONTINUOUS
10
3.7999012598425197
20
-3.2290394488188974
11
3.8046276377952757
21
-3.2194557874015746
0
LINE
8
BLACK
6
CONTINUOUS
10
3.8046276377952757
20
-3.2194557874015746
11
3.8105644881889762
21
-3.210571062992126
0
LINE
8
BLACK
6
CONTINUOUS
10
3.8105644881889762
20
-3.210571062992126
11
3.8176102362204722
21
-3.2025372047244094
0
LINE
8
BLACK
6
CONTINUOUS
10
3.8176102362204722
20
-3.2025372047244094
11
3.8256443307086614
21
-3.1954917716535434
0
LINE
8
BLACK
6
CONTINUOUS
10
3.8256443307086614
20
-3.1954917716535434
11
3.8345292913385824
21
-3.1895552362204724
0
LINE
8
BLACK
6
CONTINUOUS
10
3.8345292913385824
20
-3.1895552362204724
11
3.8441131102362203
21
-3.1848292125984252
0
LINE
8
BLACK
6
CONTINUOUS
10
3.8441131102362203
20
-3.1848292125984252
11
3.854231811023622
21
-3.1813945669291339
0
LINE
8
BLACK
6
CONTINUOUS
10
3.854231811023622
20
-3.1813945669291339
11
3.8647122440944881
21
-3.1793100393700788
0
LINE
8
BLACK
6
CONTINUOUS
10
3.8647122440944881
20
-3.1793100393700788
11
3.8753652755905512
21
-3.1786119291338584
0
LINE
8
BLACK
6
CONTINUOUS
10
3.8753652755905512
20
-3.1786119291338584
11
3.8753750787401575
21
-3.1786083858267715
0
LINE
8
BLACK
6
CONTINUOUS
10
3.8753750787401575
20
-3.1786083858267715
11
7.0486034645669289
21
-3.1786083858267715
0
LINE
8
BLACK
6
CONTINUOUS
10
3.8753750393700788
20
-3.1845138976377951
11
3.8753750393700788
21
-3.1845168110236219
0
LINE
8
BLACK
6
CONTINUOUS
10
3.8753750393700788
20
-3.1845168110236219
11
3.8704077559055117
21
-3.1845167716535432
0
LINE
8
BLACK
6
CONTINUOUS
10
3.8704077559055117
20
-3.1845167716535432
11
3.8605582283464566
21
-3.1858133464566927
0
LINE
8
BLACK
6
CONTINUOUS
10
3.8605582283464566
20
-3.1858133464566927
11
3.8509621653543307
21
-3.1883844488188977
0
LINE
8
BLACK
6
CONTINUOUS
10
3.8509621653543307
20
-3.1883844488188977
11
3.8417837795275589
21
-3.1921860629921257
0
LINE
8
BLACK
6
CONTINUOUS
10
3.8417837795275589
20
-3.1921860629921257
11
3.8331801181102363
21
-3.1971531889763778
0
LINE
8
BLACK
6
CONTINUOUS
10
3.8331801181102363
20
-3.1971531889763778
11
3.8252984251968503
21
-3.2032008267716536
0
LINE
8
BLACK
6
CONTINUOUS
10
3.8252984251968503
20
-3.2032008267716536
11
3.8182735433070865
21
-3.2102254724409449
0
LINE
8
BLACK
6
CONTINUOUS
10
3.8182735433070865
20
-3.2102254724409449
11
3.8122256299212598
21
-3.218106929133858
0
LINE
8
BLACK
6
CONTINUOUS
10
3.8122256299212598
20
-3.218106929133858
11
3.8072581889763777
21
-3.2267103937007873
0
LINE
8
BLACK
6
CONTINUOUS
10
3.8072581889763777
20
-3.2267103937007873
11
3.8034562204724409
21
-3.235888622047244
0
LINE
8
BLACK
6
CONTINUOUS
10
3.8034562204724409
20
-3.235888622047244
11
3.8008847637795276
21
-3.2454846062992124
0
LINE
8
BLACK
6
CONTINUOUS
10
3.8008847637795276
20
-3.2454846062992124
11
3.7995877952755905
21
-3.2553340944881888
0
LINE
8
BLACK
6
CONTINUOUS
10
3.7995877952755905
20
-3.2553340944881888
11
3.7995876771653543
21
-3.2603012992125984
0
LINE
8
BLACK
6
CONTINUOUS
10
3.7995876771653543
20
-3.2603012992125984
11
3.7995876771653543
21
-4.565813031496063
0
LINE
8
BLACK
6
CONTINUOUS
10
3.7995876771653543
20
-4.565813031496063
11
3.7988890157480313
21
-4.576476338582677
0
LINE
8
BLACK
6
CONTINUOUS
10
3.7988890157480313
20
-4.576476338582677
11
3.7968044881889762
21
-4.5869572047244089
0
LINE
8
BLACK
6
CONTINUOUS
10
3.7968044881889762
20
-4.5869572047244089
11
3.7933697637795274
21
-4.5970762992125982
0
LINE
8
BLACK
6
CONTINUOUS
10
3.7933697637795274
20
-4.5970762992125982
11
3.7886435826771652
21
-4.6066605118110235
0
LINE
8
BLACK
6
CONTINUOUS
10
3.7886435826771652
20
-4.6066605118110235
11
3.7827068503937009
21
-4.6155458661417326
0
LINE
8
BLACK
6
CONTINUOUS
10
3.7827068503937009
20
-4.6155458661417326
11
3.7756611417322832
21
-4.6235802755905508
0
LINE
8
BLACK
6
CONTINUOUS
10
3.7756611417322832
20
-4.6235802755905508
11
3.767626968503937
21
-4.6306262598425194
0
LINE
8
BLACK
6
CONTINUOUS
10
3.767626968503937
20
-4.6306262598425194
11
3.7587418897637797
21
-4.6365633464566924
0
LINE
8
BLACK
6
CONTINUOUS
10
3.7587418897637797
20
-4.6365633464566924
11
3.7491578346456693
21
-4.6412898425196847
0
LINE
8
BLACK
6
CONTINUOUS
10
3.7491578346456693
20
-4.6412898425196847
11
3.7390388582677163
21
-4.6447249606299215
0
LINE
8
BLACK
6
CONTINUOUS
10
3.7390388582677163
20
-4.6447249606299215
11
3.7285580708661414
21
-4.6468098818897641
0
LINE
8
BLACK
6
CONTINUOUS
10
3.7285580708661414
20
-4.6468098818897641
11
3.7178948031496062
21
-4.6475089370078742
0
LINE
8
BLACK
6
CONTINUOUS
10
3.7178948031496062
20
-4.6475089370078742
11
3.7178948031496062
21
-4.6475060236220473
0
LINE
8
BLACK
6
CONTINUOUS
10
3.7178948031496062
20
-4.6475060236220473
11
3.7178947637795274
21
-4.6475059842519686
0
LINE
8
BLACK
6
CONTINUOUS
10
3.7178947637795274
20
-4.6475059842519686
11
3.7178947244094487
21
-4.6475060236220473
0
LINE
8
BLACK
6
CONTINUOUS
10
3.7178947244094487
20
-4.6475060236220473
11
3.7178947244094487
21
-4.6475089370078742
0
LINE
8
BLACK
6
CONTINUOUS
10
3.7178947244094487
20
-4.6475089370078742
11
3.7129274409448816
21
-4.6475088976377954
0
LINE
8
BLACK
6
CONTINUOUS
10
3.7129274409448816
20
-4.6475088976377954
11
3.7030779133858265
21
-4.6488054724409444
0
LINE
8
BLACK
6
CONTINUOUS
10
3.7030779133858265
20
-4.6488054724409444
11
3.6934818503937006
21
-4.6513765748031499
0
LINE
8
BLACK
6
CONTINUOUS
10
3.6934818503937006
20
-4.6513765748031499
11
3.6843034645669293
21
-4.6551781889763779
0
LINE
8
BLACK
6
CONTINUOUS
10
3.6843034645669293
20
-4.6551781889763779
11
3.6756998031496062
21
-4.66014531496063
0
LINE
8
BLACK
6
CONTINUOUS
10
3.6756998031496062
20
-4.66014531496063
11
3.6678181102362202
21
-4.6661929527559058
0
LINE
8
BLACK
6
CONTINUOUS
10
3.6678181102362202
20
-4.6661929527559058
11
3.6607932283464568
21
-4.6732175984251967
0
LINE
8
BLACK
6
CONTINUOUS
10
3.6607932283464568
20
-4.6732175984251967
11
3.6547453149606297
21
-4.6810990551181098
0
LINE
8
BLACK
6
CONTINUOUS
10
3.6547453149606297
20
-4.6810990551181098
11
3.649777874015748
21
-4.6897025196850395
0
LINE
8
BLACK
6
CONTINUOUS
10
3.649777874015748
20
-4.6897025196850395
11
3.6459759055118108
21
-4.6988807480314962
0
LINE
8
BLACK
6
CONTINUOUS
10
3.6459759055118108
20
-4.6988807480314962
11
3.6434044488188975
21
-4.7084767322834642
0
LINE
8
BLACK
6
CONTINUOUS
10
3.6434044488188975
20
-4.7084767322834642
11
3.6421074803149605
21
-4.7183262204724405
0
LINE
8
BLACK
6
CONTINUOUS
10
3.6421074803149605
20
-4.7183262204724405
11
3.6421073622047242
21
-4.7232934251968501
0
LINE
8
BLACK
6
CONTINUOUS
10
3.6421073622047242
20
-4.7232934251968501
11
3.6421073622047242
21
-4.9988839763779529
0
LINE
8
BLACK
6
CONTINUOUS
10
3.6421073622047242
20
-4.9988839763779529
11
3.6421073622047242
21
-4.9988840551181104
0
LINE
8
BLACK
6
CONTINUOUS
10
3.6421073622047242
20
-4.9988840551181104
11
3.6421081496062992
21
-4.9988840551181104
0
LINE
8
BLACK
6
CONTINUOUS
10
3.6421081496062992
20
-4.9988840551181104
11
3.6421080708661417
21
-5.0038514173228341
0
LINE
8
BLACK
6
CONTINUOUS
10
3.6421080708661417
20
-5.0038514173228341
11
3.6434046062992125
21
-5.0137011811023617
0
LINE
8
BLACK
6
CONTINUOUS
10
3.6434046062992125
20
-5.0137011811023617
11
3.6459757086614171
21
-5.0232974409448818
0
LINE
8
BLACK
6
CONTINUOUS
10
3.6459757086614171
20
-5.0232974409448818
11
3.6497774409448818
21
-5.0324759842519686
0
LINE
8
BLACK
6
CONTINUOUS
10
3.6497774409448818
20
-5.0324759842519686
11
3.6547447244094489
21
-5.0410797637795275
0
LINE
8
BLACK
6
CONTINUOUS
10
3.6547447244094489
20
-5.0410797637795275
11
3.6607925196850393
21
-5.0489615354330706
0
LINE
8
BLACK
6
CONTINUOUS
10
3.6607925196850393
20
-5.0489615354330706
11
3.6678174015748031
21
-5.0559864960629923
0
LINE
8
BLACK
6
CONTINUOUS
10
3.6678174015748031
20
-5.0559864960629923
11
3.6756991338582679
21
-5.0620343700787398
0
LINE
8
BLACK
6
CONTINUOUS
10
3.6756991338582679
20
-5.0620343700787398
11
3.684302874015748
21
-5.0670017322834644
0
LINE
8
BLACK
6
CONTINUOUS
10
3.684302874015748
20
-5.0670017322834644
11
3.693481377952756
21
-5.0708035433070862
0
LINE
8
BLACK
6
CONTINUOUS
10
3.693481377952756
20
-5.0708035433070862
11
3.7030775984251969
21
-5.0733748031496058
0
LINE
8
BLACK
6
CONTINUOUS
10
3.7030775984251969
20
-5.0733748031496058
11
3.7129273622047245
21
-5.0746714173228344
0
LINE
8
BLACK
6
CONTINUOUS
10
3.7129273622047245
20
-5.0746714173228344
11
3.7178947244094487
21
-5.0746713779527557
0
LINE
8
BLACK
6
CONTINUOUS
10
3.7178947244094487
20
-5.0746713779527557
11
3.7178947637795274
21
-5.0746713779527557
0
LINE
8
BLACK
6
CONTINUOUS
10
3.7178947637795274
20
-5.0746713779527557
11
6.217894763779527
21
-5.0746713779527557
0
LINE
8
BLACK
6
CONTINUOUS
10
6.217894763779527
20
-5.0746713779527557
11
6.2179112598425199
21
-5.0746742519685037
0
LINE
8
BLACK
6
CONTINUOUS
10
6.2179112598425199
20
-5.0746742519685037
11
6.222310196850394
21
-5.0746741732283462
0
LINE
8
BLACK
6
CONTINUOUS
10
6.222310196850394
20
-5.0746741732283462
11
6.2310323622047239
21
-5.0732925590551181
0
LINE
8
BLACK
6
CONTINUOUS
10
6.2310323622047239
20
-5.0732925590551181
11
6.2394310629921259
21
-5.0705634645669289
0
LINE
8
BLACK
6
CONTINUOUS
10
6.2394310629921259
20
-5.0705634645669289
11
6.24729937007874
21
-5.0665541338582676
0
LINE
8
BLACK
6
CONTINUOUS
10
6.24729937007874
20
-5.0665541338582676
11
6.2544436614173229
21
-5.0613632677165352
0
LINE
8
BLACK
6
CONTINUOUS
10
6.2544436614173229
20
-5.0613632677165352
11
6.2606879133858264
21
-5.0551187007874017
0
LINE
8
BLACK
6
CONTINUOUS
10
6.2606879133858264
20
-5.0551187007874017
11
6.26587842519685
21
-5.0479741732283463
0
LINE
8
BLACK
6
CONTINUOUS
10
6.26587842519685
20
-5.0479741732283463
11
6.2698873622047246
21
-5.0401056299212597
0
LINE
8
BLACK
6
CONTINUOUS
10
6.2698873622047246
20
-5.0401056299212597
11
6.2726160236220467
21
-5.031706850393701
0
LINE
8
BLACK
6
CONTINUOUS
10
6.2726160236220467
20
-5.031706850393701
11
6.2739972440944882
21
-5.022984566929134
0
LINE
8
BLACK
6
CONTINUOUS
10
6.2739972440944882
20
-5.022984566929134
11
6.273997125984252
21
-5.0185690944881891
0
LINE
8
BLACK
6
CONTINUOUS
10
6.273997125984252
20
-5.0185690944881891
11
6.273997125984252
21
-5.0185690157480316
0
LINE
8
BLACK
6
CONTINUOUS
10
6.273997125984252
20
-5.0185690157480316
11
6.273997125984252
21
-4.9949469685039372
0
LINE
8
BLACK
6
CONTINUOUS
10
6.273997125984252
20
-4.9949469685039372
11
6.273997125984252
21
-4.9949468897637797
0
LINE
8
BLACK
6
CONTINUOUS
10
6.273997125984252
20
-4.9949468897637797
11
6.2746285433070863
21
-4.9861224803149602
0
LINE
8
BLACK
6
CONTINUOUS
10
6.2746285433070863
20
-4.9861224803149602
11
6.2765093307086612
21
-4.9774777559055119
0
LINE
8
BLACK
6
CONTINUOUS
10
6.2765093307086612
20
-4.9774777559055119
11
6.2796012598425195
21
-4.9691887007874014
0
LINE
8
BLACK
6
CONTINUOUS
10
6.2796012598425195
20
-4.9691887007874014
11
6.283841377952756
21
-4.9614240157480314
0
LINE
8
BLACK
6
CONTINUOUS
10
6.283841377952756
20
-4.9614240157480314
11
6.2891433464566928
21
-4.9543418110236219
0
LINE
8
BLACK
6
CONTINUOUS
10
6.2891433464566928
20
-4.9543418110236219
11
6.2953992519685036
21
-4.9480862204724412
0
LINE
8
BLACK
6
CONTINUOUS
10
6.2953992519685036
20
-4.9480862204724412
11
6.3024817322834643
21
-4.9427846062992122
0
LINE
8
BLACK
6
CONTINUOUS
10
6.3024817322834643
20
-4.9427846062992122
11
6.3102466141732281
21
-4.9385448818897633
0
LINE
8
BLACK
6
CONTINUOUS
10
6.3102466141732281
20
-4.9385448818897633
11
6.3185358267716536
21
-4.9354533464566925
0
LINE
8
BLACK
6
CONTINUOUS
10
6.3185358267716536
20
-4.9354533464566925
11
6.3271806299212594
21
-4.9335729921259839
0
LINE
8
BLACK
6
CONTINUOUS
10
6.3271806299212594
20
-4.9335729921259839
11
6.3359949999999996
21
-4.9329427165354334
0
LINE
8
BLACK
6
CONTINUOUS
10
6.3359949999999996
20
-4.9329427165354334
11
6.3360050000000001
21
-4.932939094488189
0
LINE
8
BLACK
6
CONTINUOUS
10
6.3360050000000001
20
-4.932939094488189
11
7.2415168110236223
21
-4.932939094488189
0
LINE
8
BLACK
6
CONTINUOUS
10
7.2415168110236223
20
-4.932939094488189
11
7.2415333070866144
21
-4.9329419685039371
0
LINE
8
BLACK
6
CONTINUOUS
10
7.2415333070866144
20
-4.9329419685039371
11
7.2464842519685035
21
-4.9329419291338583
0
LINE
8
BLACK
6
CONTINUOUS
10
7.2464842519685035
20
-4.9329419291338583
11
7.2563341732283462
21
-4.9316449999999996
0
LINE
8
BLACK
6
CONTINUOUS
10
7.2563341732283462
20
-4.9316449999999996
11
7.2659305511811025
21
-4.9290735039370075
0
LINE
8
BLACK
6
CONTINUOUS
10
7.2659305511811025
20
-4.9290735039370075
11
7.2751091732283459
21
-4.9252714173228345
0
LINE
8
BLACK
6
CONTINUOUS
10
7.2751091732283459
20
-4.9252714173228345
11
7.2837129921259844
21
-4.9203038188976373
0
LINE
8
BLACK
6
CONTINUOUS
10
7.2837129921259844
20
-4.9203038188976373
11
7.2915948031496063
21
-4.9142556692913386
0
LINE
8
BLACK
6
CONTINUOUS
10
7.2915948031496063
20
-4.9142556692913386
11
7.2986197244094484
21
-4.9072304724409443
0
LINE
8
BLACK
6
CONTINUOUS
10
7.2986197244094484
20
-4.9072304724409443
11
7.3046675984251968
21
-4.8993484645669287
0
LINE
8
BLACK
6
CONTINUOUS
10
7.3046675984251968
20
-4.8993484645669287
11
7.3096348818897638
21
-4.8907444488188974
0
LINE
8
BLACK
6
CONTINUOUS
10
7.3096348818897638
20
-4.8907444488188974
11
7.3134366141732281
21
-4.8815656692913381
0
LINE
8
BLACK
6
CONTINUOUS
10
7.3134366141732281
20
-4.8815656692913381
11
7.3160077559055114
21
-4.8719692125984251
0
LINE
8
BLACK
6
CONTINUOUS
10
7.3160077559055114
20
-4.8719692125984251
11
7.3173042913385826
21
-4.8621192125984249
0
LINE
8
BLACK
6
CONTINUOUS
10
7.3173042913385826
20
-4.8621192125984249
11
7.3173042125984251
21
-4.8571517716535428
0
LINE
8
BLACK
6
CONTINUOUS
10
7.3173042125984251
20
-4.8571517716535428
11
7.3173042125984251
21
-4.8571516929133853
0
LINE
8
BLACK
6
CONTINUOUS
10
7.3173042125984251
20
-4.8571516929133853
11
7.3173042125984251
21
-4.5658131102362205
0
LINE
8
BLACK
6
CONTINUOUS
10
7.3173042125984251
20
-4.5658131102362205
11
7.3173049606299214
21
-4.5658086220472436
0
LINE
8
BLACK
6
CONTINUOUS
10
7.3173049606299214
20
-4.5658086220472436
11
7.3173049212598427
21
-4.5608457874015746
0
LINE
8
BLACK
6
CONTINUOUS
10
7.3173049212598427
20
-4.5608457874015746
11
7.3160079527559052
21
-4.5509960629921258
0
LINE
8
BLACK
6
CONTINUOUS
10
7.3160079527559052
20
-4.5509960629921258
11
7.3134364960629918
21
-4.5413998818897641
0
LINE
8
BLACK
6
CONTINUOUS
10
7.3134364960629918
20
-4.5413998818897641
11
7.3096344881889763
21
-4.5322214173228348
0
LINE
8
BLACK
6
CONTINUOUS
10
7.3096344881889763
20
-4.5322214173228348
11
7.3046670472440942
21
-4.5236177559055113
0
LINE
8
BLACK
6
CONTINUOUS
10
7.3046670472440942
20
-4.5236177559055113
11
7.2986190551181105
21
-4.515736023622047
0
LINE
8
BLACK
6
CONTINUOUS
10
7.2986190551181105
20
-4.515736023622047
11
7.2915940944881887
21
-4.5087111417322836
0
LINE
8
BLACK
6
CONTINUOUS
10
7.2915940944881887
20
-4.5087111417322836
11
7.2837123228346456
21
-4.5026632677165352
0
LINE
8
BLACK
6
CONTINUOUS
10
7.2837123228346456
20
-4.5026632677165352
11
7.2751085826771655
21
-4.4976958661417319
0
LINE
8
BLACK
6
CONTINUOUS
10
7.2751085826771655
20
-4.4976958661417319
11
7.2659301181102363
21
-4.4938939763779526
0
LINE
8
BLACK
6
CONTINUOUS
10
7.2659301181102363
20
-4.4938939763779526
11
7.2563338976377949
21
-4.4913225984251968
0
LINE
8
BLACK
6
CONTINUOUS
10
7.2563338976377949
20
-4.4913225984251968
11
7.2464841338582673
21
-4.4900257480314956
0
LINE
8
BLACK
6
CONTINUOUS
10
7.2464841338582673
20
-4.4900257480314956
11
7.2415167716535436
21
-4.4900257086614168
0
LINE
8
BLACK
6
CONTINUOUS
10
7.2415167716535436
20
-4.4900257086614168
11
7.2060838188976373
21
-4.4900257086614168
0
LINE
8
BLACK
6
CONTINUOUS
10
7.2060838188976373
20
-4.4900257086614168
11
7.2060837795275585
21
-4.4900257086614168
0
LINE
8
BLACK
6
CONTINUOUS
10
7.2060837795275585
20
-4.4900257086614168
11
7.2060837401574798
21
-4.4900256692913381
0
LINE
8
BLACK
6
CONTINUOUS
10
7.2060837401574798
20
-4.4900256692913381
11
7.1954207480314958
21
-4.489326929133858
0
LINE
8
BLACK
6
CONTINUOUS
10
7.1954207480314958
20
-4.489326929133858
11
7.1849400787401576
21
-4.4872423228346454
0
LINE
8
BLACK
6
CONTINUOUS
10
7.1849400787401576
20
-4.4872423228346454
11
7.1748212204724409
21
-4.4838074803149608
0
LINE
8
BLACK
6
CONTINUOUS
10
7.1748212204724409
20
-4.4838074803149608
11
7.165237244094488
21
-4.4790812598425198
0
LINE
8
BLACK
6
CONTINUOUS
10
7.165237244094488
20
-4.4790812598425198
11
7.156352204724409
21
-4.4731444488188972
0
LINE
8
BLACK
6
CONTINUOUS
10
7.156352204724409
20
-4.4731444488188972
11
7.1483181102362199
21
-4.4660986614173224
0
LINE
8
BLACK
6
CONTINUOUS
10
7.1483181102362199
20
-4.4660986614173224
11
7.1412724015748026
21
-4.4580644881889766
0
LINE
8
BLACK
6
CONTINUOUS
10
7.1412724015748026
20
-4.4580644881889766
11
7.1353357086614171
21
-4.4491794094488188
0
LINE
8
BLACK
6
CONTINUOUS
10
7.1353357086614171
20
-4.4491794094488188
11
7.1306095275590549
21
-4.4395953937007873
0
LINE
8
BLACK
6
CONTINUOUS
10
7.1306095275590549
20
-4.4395953937007873
11
7.1271748031496065
21
-4.4294764960629918
0
LINE
8
BLACK
6
CONTINUOUS
10
7.1271748031496065
20
-4.4294764960629918
11
7.1250902755905514
21
-4.4189958267716536
0
LINE
8
BLACK
6
CONTINUOUS
10
7.1250902755905514
20
-4.4189958267716536
11
7.124391771653543
21
-4.4083354330708664
0
LINE
8
BLACK
6
CONTINUOUS
10
7.124391771653543
20
-4.4083354330708664
11
7.1243908267716538
21
-4.4083327952755909
0
LINE
8
BLACK
6
CONTINUOUS
10
7.1243908267716538
20
-4.4083327952755909
11
7.1243908661417326
21
-3.2603012992125984
0
LINE
8
BLACK
6
CONTINUOUS
10
7.1243908661417326
20
-3.2603012992125984
11
7.1243915748031492
21
-3.2602970472440944
0
LINE
8
BLACK
6
CONTINUOUS
10
7.1243915748031492
20
-3.2602970472440944
11
7.1243915354330705
21
-3.2553339763779525
0
LINE
8
BLACK
6
CONTINUOUS
10
7.1243915354330705
20
-3.2553339763779525
11
7.1230945669291339
21
-3.2454842519685037
0
LINE
8
BLACK
6
CONTINUOUS
10
7.1230945669291339
20
-3.2454842519685037
11
7.1205231102362205
21
-3.2358880708661415
0
LINE
8
BLACK
6
CONTINUOUS
10
7.1205231102362205
20
-3.2358880708661415
11
7.1167211023622041
21
-3.2267096456692914
0
LINE
8
BLACK
6
CONTINUOUS
10
7.1167211023622041
20
-3.2267096456692914
11
7.1117536614173229
21
-3.2181059448818896
0
LINE
8
BLACK
6
CONTINUOUS
10
7.1117536614173229
20
-3.2181059448818896
11
7.105705708661417
21
-3.2102242125984253
0
LINE
8
BLACK
6
CONTINUOUS
10
7.105705708661417
20
-3.2102242125984253
11
7.0986807480314962
21
-3.2031993307086615
0
LINE
8
BLACK
6
CONTINUOUS
10
7.0986807480314962
20
-3.2031993307086615
11
7.0907989763779522
21
-3.1971514566929131
0
LINE
8
BLACK
6
CONTINUOUS
10
7.0907989763779522
20
-3.1971514566929131
11
7.0821952362204721
21
-3.1921840551181102
0
LINE
8
BLACK
6
CONTINUOUS
10
7.0821952362204721
20
-3.1921840551181102
11
7.0730167322834641
21
-3.1883821653543305
0
LINE
8
BLACK
6
CONTINUOUS
10
7.0730167322834641
20
-3.1883821653543305
11
7.0634205511811023
21
-3.1858107874015746
0
LINE
8
BLACK
6
CONTINUOUS
10
7.0634205511811023
20
-3.1858107874015746
11
7.0535707874015747
21
-3.1845139370078739
0
LINE
8
BLACK
6
CONTINUOUS
10
7.0535707874015747
20
-3.1845139370078739
11
7.0486034251968501
21
-3.1845138976377951
0
LINE
8
BLACK
6
CONTINUOUS
10
7.0486034251968501
20
-3.1845138976377951
11
3.8753750787401575
21
-3.1845138976377951
0
LINE
8
BLACK
6
CONTINUOUS
10
3.8753750787401575
20
-3.1845138976377951
11
3.8753750393700788
21
-3.1845138582677164
0
LINE
8
BLACK
6
CONTINUOUS
10
3.8753750393700788
20
-3.1845138582677164
11
3.8753750393700788
21
-3.1845138976377951
  0
ENDSEC
  0
EOF
