  0
SECTION
  2
HEADER
  9
$ANGBASE
  50
0.0
  9
$ANGDIR
  70
1
  9
$MEASUREMENT
  70
0
  0
ENDSEC
  0
SECTION
  2
TABLES
  0
TABLE
  2
LTYPE
  70
4
  0
LTYPE
  5
40F
  2
CONTINUOUS
  70
0
  3
Solid line
  72
65
  73
0
  40
0.0
  0
LTYPE
  5
410
  2
DASHDOT
 70
0
  3
Dash Dot ____ _ ____ _
 72
65
 73
4
 40
2.0
 49
1.25
 49
-0.25
 49
0.25
 49
-0.25
  0
LTYPE
  5
411
  2
DASHED
 70
0
  3
Dashed __ __ __ __ __
 72
65
 73
2
 40
0.75
 49
0.5
 49
-0.25
  0
LTYPE
  5
43B
  2
DOTTED
 70
0
  3
Dotted .  .  .  .
 72
65
 73
2
 40
0.2
 49
0.0
 49
-0.2
  0
ENDTAB
  0
TABLE
  2
STYLE
  70
4
  0
STYLE
  2
KICAD
  70
0
  40
0
  41
1
  42
1
  50
0
  71
0
  3
isocp.shx
  0
STYLE
  2
KICADB
  70
0
  40
0
  41
1
  42
1
  50
0
  71
0
  3
isocp.shx
  0
STYLE
  2
KICADI
  70
0
  40
0
  41
1
  42
1
  50
15
  71
0
  3
isocp.shx
  0
STYLE
  2
KICADBI
  70
0
  40
0
  41
1
  42
1
  50
15
  71
0
  3
isocp.shx
  0
ENDTAB
  0
TABLE
  2
LAYER
  70
1
  0
LAYER
  2
BLACK
  70
0
  62
7
  6
CONTINUOUS
  0
ENDTAB
  0
ENDSEC
  0
SECTION
  2
ENTITIES
0
LINE
8
BLACK
6
CONTINUOUS
10
3.50392
20
0.137619
11
3.50316
21
0.126943
0
LINE
8
BLACK
6
CONTINUOUS
10
3.50316
20
0.126943
11
3.50306
21
0.126243
0
LINE
8
BLACK
6
CONTINUOUS
10
3.50306
20
0.126243
11
3.50082
21
0.115959
0
LINE
8
BLACK
6
CONTINUOUS
10
3.50082
20
0.115959
11
3.50062
21
0.115279
0
LINE
8
BLACK
6
CONTINUOUS
10
3.50062
20
0.115279
11
3.49695
21
0.105418
0
LINE
8
BLACK
6
CONTINUOUS
10
3.49695
20
0.105418
11
3.49665
21
0.104774
0
LINE
8
BLACK
6
CONTINUOUS
10
3.49665
20
0.104774
11
3.49161
21
0.0955364
0
LINE
8
BLACK
6
CONTINUOUS
10
3.49161
20
0.0955364
11
3.49122
21
0.094941
0
LINE
8
BLACK
6
CONTINUOUS
10
3.49122
20
0.094941
11
3.48492
21
0.0865154
0
LINE
8
BLACK
6
CONTINUOUS
10
3.48492
20
0.0865154
11
3.48445
21
0.0859805
0
LINE
8
BLACK
6
CONTINUOUS
10
3.48445
20
0.0859805
11
3.47701
21
0.0785384
0
LINE
8
BLACK
6
CONTINUOUS
10
3.47701
20
0.0785384
11
3.47648
21
0.0780749
0
LINE
8
BLACK
6
CONTINUOUS
10
3.47648
20
0.0780749
11
3.46805
21
0.0717675
0
LINE
8
BLACK
6
CONTINUOUS
10
3.46805
20
0.0717675
11
3.46746
21
0.0713849
0
LINE
8
BLACK
6
CONTINUOUS
10
3.46746
20
0.0713849
11
3.45822
21
0.0663407
0
LINE
8
BLACK
6
CONTINUOUS
10
3.45822
20
0.0663407
11
3.45757
21
0.0660467
0
LINE
8
BLACK
6
CONTINUOUS
10
3.45757
20
0.0660467
11
3.44771
21
0.0623685
0
LINE
8
BLACK
6
CONTINUOUS
10
3.44771
20
0.0623685
11
3.44703
21
0.0621691
0
LINE
8
BLACK
6
CONTINUOUS
10
3.44703
20
0.0621691
11
3.43758
21
0.0601133
0
LINE
8
BLACK
6
CONTINUOUS
10
3.43758
20
0.0601133
11
3.43653
21
0.06
0
LINE
8
BLACK
6
CONTINUOUS
10
3.43653
20
0.06
11
3.13827
21
0.06
0
LINE
8
BLACK
6
CONTINUOUS
10
3.13827
20
0.06
11
3.13722
21
0.0601133
0
LINE
8
BLACK
6
CONTINUOUS
10
3.13722
20
0.0601133
11
3.12777
21
0.0621691
0
LINE
8
BLACK
6
CONTINUOUS
10
3.12777
20
0.0621691
11
3.12709
21
0.0623685
0
LINE
8
BLACK
6
CONTINUOUS
10
3.12709
20
0.0623685
11
3.11723
21
0.0660467
0
LINE
8
BLACK
6
CONTINUOUS
10
3.11723
20
0.0660467
11
3.11659
21
0.0663407
0
LINE
8
BLACK
6
CONTINUOUS
10
3.11659
20
0.0663407
11
3.10735
21
0.0713849
0
LINE
8
BLACK
6
CONTINUOUS
10
3.10735
20
0.0713849
11
3.10675
21
0.0717675
0
LINE
8
BLACK
6
CONTINUOUS
10
3.10675
20
0.0717675
11
3.09833
21
0.0780749
0
LINE
8
BLACK
6
CONTINUOUS
10
3.09833
20
0.0780749
11
3.09779
21
0.0785384
0
LINE
8
BLACK
6
CONTINUOUS
10
3.09779
20
0.0785384
11
3.09035
21
0.0859805
0
LINE
8
BLACK
6
CONTINUOUS
10
3.09035
20
0.0859805
11
3.08989
21
0.0865154
0
LINE
8
BLACK
6
CONTINUOUS
10
3.08989
20
0.0865154
11
3.08358
21
0.094941
0
LINE
8
BLACK
6
CONTINUOUS
10
3.08358
20
0.094941
11
3.0832
21
0.0955364
0
LINE
8
BLACK
6
CONTINUOUS
10
3.0832
20
0.0955364
11
3.07815
21
0.104774
0
LINE
8
BLACK
6
CONTINUOUS
10
3.07815
20
0.104774
11
3.07786
21
0.105418
0
LINE
8
BLACK
6
CONTINUOUS
10
3.07786
20
0.105418
11
3.07418
21
0.115279
0
LINE
8
BLACK
6
CONTINUOUS
10
3.07418
20
0.115279
11
3.07398
21
0.115959
0
LINE
8
BLACK
6
CONTINUOUS
10
3.07398
20
0.115959
11
3.07174
21
0.126243
0
LINE
8
BLACK
6
CONTINUOUS
10
3.07174
20
0.126243
11
3.07164
21
0.126943
0
LINE
8
BLACK
6
CONTINUOUS
10
3.07164
20
0.126943
11
3.07008
21
0.148824
0
LINE
8
BLACK
6
CONTINUOUS
10
3.07008
20
0.148824
11
3.07003
21
0.149175
0
LINE
8
BLACK
6
CONTINUOUS
10
3.07003
20
0.149175
11
3.06771
21
0.159805
0
LINE
8
BLACK
6
CONTINUOUS
10
3.06771
20
0.159805
11
3.06761
21
0.160145
0
LINE
8
BLACK
6
CONTINUOUS
10
3.06761
20
0.160145
11
3.06381
21
0.170339
0
LINE
8
BLACK
6
CONTINUOUS
10
3.06381
20
0.170339
11
3.06367
21
0.17066
0
LINE
8
BLACK
6
CONTINUOUS
10
3.06367
20
0.17066
11
3.05845
21
0.18021
0
LINE
8
BLACK
6
CONTINUOUS
10
3.05845
20
0.18021
11
3.05826
21
0.180507
0
LINE
8
BLACK
6
CONTINUOUS
10
3.05826
20
0.180507
11
3.05174
21
0.189217
0
LINE
8
BLACK
6
CONTINUOUS
10
3.05174
20
0.189217
11
3.05151
21
0.189484
0
LINE
8
BLACK
6
CONTINUOUS
10
3.05151
20
0.189484
11
3.04382
21
0.197178
0
LINE
8
BLACK
6
CONTINUOUS
10
3.04382
20
0.197178
11
3.04355
21
0.197409
0
LINE
8
BLACK
6
CONTINUOUS
10
3.04355
20
0.197409
11
3.03484
21
0.203929
0
LINE
8
BLACK
6
CONTINUOUS
10
3.03484
20
0.203929
11
3.03469
21
0.204026
0
LINE
8
BLACK
6
CONTINUOUS
10
3.03469
20
0.204026
11
3.03454
21
0.204121
0
LINE
8
BLACK
6
CONTINUOUS
10
3.03454
20
0.204121
11
3.03343
21
0.204728
0
LINE
8
BLACK
6
CONTINUOUS
10
3.03343
20
0.204728
11
3.03258
21
0.205189
0
LINE
8
BLACK
6
CONTINUOUS
10
3.03258
20
0.205189
11
3.03258
21
0.205189
0
LINE
8
BLACK
6
CONTINUOUS
10
3.03258
20
0.205189
11
3.03
21
0.2066
0
LINE
8
BLACK
6
CONTINUOUS
10
3.03
20
0.2066
11
3.03004
21
0.20668
0
LINE
8
BLACK
6
CONTINUOUS
10
3.03004
20
0.20668
11
3.02944
21
0.206903
0
LINE
8
BLACK
6
CONTINUOUS
10
3.02944
20
0.206903
11
3.02499
21
0.209335
0
LINE
8
BLACK
6
CONTINUOUS
10
3.02499
20
0.209335
11
3.02467
21
0.209482
0
LINE
8
BLACK
6
CONTINUOUS
10
3.02467
20
0.209482
11
3.01448
21
0.213284
0
LINE
8
BLACK
6
CONTINUOUS
10
3.01448
20
0.213284
11
3.01414
21
0.213384
0
LINE
8
BLACK
6
CONTINUOUS
10
3.01414
20
0.213384
11
3.00351
21
0.215696
0
LINE
8
BLACK
6
CONTINUOUS
10
3.00351
20
0.215696
11
3.00316
21
0.215747
0
LINE
8
BLACK
6
CONTINUOUS
10
3.00316
20
0.215747
11
2.99221
21
0.216529
0
LINE
8
BLACK
6
CONTINUOUS
10
2.99221
20
0.216529
11
2.99204
21
0.216535
0
LINE
8
BLACK
6
CONTINUOUS
10
2.99204
20
0.216535
11
1.68679
21
0.216535
0
LINE
8
BLACK
6
CONTINUOUS
10
1.68679
20
0.216535
11
1.68644
21
0.216548
0
LINE
8
BLACK
6
CONTINUOUS
10
1.68644
20
0.216548
11
1.67576
21
0.217312
0
LINE
8
BLACK
6
CONTINUOUS
10
1.67576
20
0.217312
11
1.67506
21
0.217412
0
LINE
8
BLACK
6
CONTINUOUS
10
1.67506
20
0.217412
11
1.66478
21
0.219649
0
LINE
8
BLACK
6
CONTINUOUS
10
1.66478
20
0.219649
11
1.6641
21
0.219849
0
LINE
8
BLACK
6
CONTINUOUS
10
1.6641
20
0.219849
11
1.65424
21
0.223527
0
LINE
8
BLACK
6
CONTINUOUS
10
1.65424
20
0.223527
11
1.65359
21
0.223821
0
LINE
8
BLACK
6
CONTINUOUS
10
1.65359
20
0.223821
11
1.64436
21
0.228865
0
LINE
8
BLACK
6
CONTINUOUS
10
1.64436
20
0.228865
11
1.64376
21
0.229248
0
LINE
8
BLACK
6
CONTINUOUS
10
1.64376
20
0.229248
11
1.63533
21
0.235555
0
LINE
8
BLACK
6
CONTINUOUS
10
1.63533
20
0.235555
11
1.6348
21
0.236019
0
LINE
8
BLACK
6
CONTINUOUS
10
1.6348
20
0.236019
11
1.62736
21
0.243461
0
LINE
8
BLACK
6
CONTINUOUS
10
1.62736
20
0.243461
11
1.62689
21
0.243996
0
LINE
8
BLACK
6
CONTINUOUS
10
1.62689
20
0.243996
11
1.62059
21
0.252421
0
LINE
8
BLACK
6
CONTINUOUS
10
1.62059
20
0.252421
11
1.6202
21
0.253017
0
LINE
8
BLACK
6
CONTINUOUS
10
1.6202
20
0.253017
11
1.61516
21
0.262254
0
LINE
8
BLACK
6
CONTINUOUS
10
1.61516
20
0.262254
11
1.61487
21
0.262898
0
LINE
8
BLACK
6
CONTINUOUS
10
1.61487
20
0.262898
11
1.61119
21
0.27276
0
LINE
8
BLACK
6
CONTINUOUS
10
1.61119
20
0.27276
11
1.61099
21
0.273439
0
LINE
8
BLACK
6
CONTINUOUS
10
1.61099
20
0.273439
11
1.60875
21
0.283723
0
LINE
8
BLACK
6
CONTINUOUS
10
1.60875
20
0.283723
11
1.60865
21
0.284423
0
LINE
8
BLACK
6
CONTINUOUS
10
1.60865
20
0.284423
11
1.60789
21
0.295099
0
LINE
8
BLACK
6
CONTINUOUS
10
1.60789
20
0.295099
11
1.60787
21
0.295453
0
LINE
8
BLACK
6
CONTINUOUS
10
1.60787
20
0.295453
11
1.60787
21
3.46833
0
LINE
8
BLACK
6
CONTINUOUS
10
1.60787
20
3.46833
11
1.60789
21
3.46868
0
LINE
8
BLACK
6
CONTINUOUS
10
1.60789
20
3.46868
11
1.60865
21
3.47936
0
LINE
8
BLACK
6
CONTINUOUS
10
1.60865
20
3.47936
11
1.60875
21
3.48006
0
LINE
8
BLACK
6
CONTINUOUS
10
1.60875
20
3.48006
11
1.61099
21
3.49034
0
LINE
8
BLACK
6
CONTINUOUS
10
1.61099
20
3.49034
11
1.61119
21
3.49102
0
LINE
8
BLACK
6
CONTINUOUS
10
1.61119
20
3.49102
11
1.61487
21
3.50088
0
LINE
8
BLACK
6
CONTINUOUS
10
1.61487
20
3.50088
11
1.61516
21
3.50153
0
LINE
8
BLACK
6
CONTINUOUS
10
1.61516
20
3.50153
11
1.6202
21
3.51076
0
LINE
8
BLACK
6
CONTINUOUS
10
1.6202
20
3.51076
11
1.62059
21
3.51136
0
LINE
8
BLACK
6
CONTINUOUS
10
1.62059
20
3.51136
11
1.62689
21
3.51978
0
LINE
8
BLACK
6
CONTINUOUS
10
1.62689
20
3.51978
11
1.62736
21
3.52032
0
LINE
8
BLACK
6
CONTINUOUS
10
1.62736
20
3.52032
11
1.6348
21
3.52776
0
LINE
8
BLACK
6
CONTINUOUS
10
1.6348
20
3.52776
11
1.63533
21
3.52822
0
LINE
8
BLACK
6
CONTINUOUS
10
1.63533
20
3.52822
11
1.64376
21
3.53453
0
LINE
8
BLACK
6
CONTINUOUS
10
1.64376
20
3.53453
11
1.64436
21
3.53491
0
LINE
8
BLACK
6
CONTINUOUS
10
1.64436
20
3.53491
11
1.65359
21
3.53996
0
LINE
8
BLACK
6
CONTINUOUS
10
1.65359
20
3.53996
11
1.65424
21
3.54025
0
LINE
8
BLACK
6
CONTINUOUS
10
1.65424
20
3.54025
11
1.6641
21
3.54393
0
LINE
8
BLACK
6
CONTINUOUS
10
1.6641
20
3.54393
11
1.66478
21
3.54413
0
LINE
8
BLACK
6
CONTINUOUS
10
1.66478
20
3.54413
11
1.67506
21
3.54637
0
LINE
8
BLACK
6
CONTINUOUS
10
1.67506
20
3.54637
11
1.67576
21
3.54647
0
LINE
8
BLACK
6
CONTINUOUS
10
1.67576
20
3.54647
11
1.68644
21
3.54723
0
LINE
8
BLACK
6
CONTINUOUS
10
1.68644
20
3.54723
11
1.68679
21
3.54724
0
LINE
8
BLACK
6
CONTINUOUS
10
1.68679
20
3.54724
11
2.83456
21
3.54724
0
LINE
8
BLACK
6
CONTINUOUS
10
2.83456
20
3.54724
11
2.83473
21
3.54725
0
LINE
8
BLACK
6
CONTINUOUS
10
2.83473
20
3.54725
11
2.84567
21
3.54803
0
LINE
8
BLACK
6
CONTINUOUS
10
2.84567
20
3.54803
11
2.84602
21
3.54808
0
LINE
8
BLACK
6
CONTINUOUS
10
2.84602
20
3.54808
11
2.85666
21
3.5504
0
LINE
8
BLACK
6
CONTINUOUS
10
2.85666
20
3.5504
11
2.857
21
3.5505
0
LINE
8
BLACK
6
CONTINUOUS
10
2.857
20
3.5505
11
2.86719
21
3.5543
0
LINE
8
BLACK
6
CONTINUOUS
10
2.86719
20
3.5543
11
2.86751
21
3.55444
0
LINE
8
BLACK
6
CONTINUOUS
10
2.86751
20
3.55444
11
2.87706
21
3.55966
0
LINE
8
BLACK
6
CONTINUOUS
10
2.87706
20
3.55966
11
2.87736
21
3.55985
0
LINE
8
BLACK
6
CONTINUOUS
10
2.87736
20
3.55985
11
2.88607
21
3.56637
0
LINE
8
BLACK
6
CONTINUOUS
10
2.88607
20
3.56637
11
2.88633
21
3.5666
0
LINE
8
BLACK
6
CONTINUOUS
10
2.88633
20
3.5666
11
2.89403
21
3.5743
0
LINE
8
BLACK
6
CONTINUOUS
10
2.89403
20
3.5743
11
2.89426
21
3.57456
0
LINE
8
BLACK
6
CONTINUOUS
10
2.89426
20
3.57456
11
2.90078
21
3.58327
0
LINE
8
BLACK
6
CONTINUOUS
10
2.90078
20
3.58327
11
2.90097
21
3.58357
0
LINE
8
BLACK
6
CONTINUOUS
10
2.90097
20
3.58357
11
2.90619
21
3.59312
0
LINE
8
BLACK
6
CONTINUOUS
10
2.90619
20
3.59312
11
2.90633
21
3.59344
0
LINE
8
BLACK
6
CONTINUOUS
10
2.90633
20
3.59344
11
2.90785
21
3.59751
0
LINE
8
BLACK
6
CONTINUOUS
10
2.90785
20
3.59751
11
2.90899
21
3.59903
0
LINE
8
BLACK
6
CONTINUOUS
10
2.90899
20
3.59903
11
2.90893
21
3.59908
0
LINE
8
BLACK
6
CONTINUOUS
10
2.90893
20
3.59908
11
2.90993
21
3.60023
0
LINE
8
BLACK
6
CONTINUOUS
10
2.90993
20
3.60023
11
2.91
21
3.60053
0
LINE
8
BLACK
6
CONTINUOUS
10
2.91
20
3.60053
11
2.91
21
3.60246
0
LINE
8
BLACK
6
CONTINUOUS
10
2.91
20
3.60246
11
2.9102
21
3.60386
0
LINE
8
BLACK
6
CONTINUOUS
10
2.9102
20
3.60386
11
2.91023
21
3.60397
0
LINE
8
BLACK
6
CONTINUOUS
10
2.91023
20
3.60397
11
2.9107
21
3.60609
0
LINE
8
BLACK
6
CONTINUOUS
10
2.9107
20
3.60609
11
2.91255
21
3.6146
0
LINE
8
BLACK
6
CONTINUOUS
10
2.91255
20
3.6146
11
2.9126
21
3.61496
0
LINE
8
BLACK
6
CONTINUOUS
10
2.9126
20
3.61496
11
2.91338
21
3.6259
0
LINE
8
BLACK
6
CONTINUOUS
10
2.91338
20
3.6259
11
2.91339
21
3.62607
0
LINE
8
BLACK
6
CONTINUOUS
10
2.91339
20
3.62607
11
2.91339
21
3.66124
0
LINE
8
BLACK
6
CONTINUOUS
10
2.91339
20
3.66124
11
2.9134
21
3.66159
0
LINE
8
BLACK
6
CONTINUOUS
10
2.9134
20
3.66159
11
2.91416
21
3.67227
0
LINE
8
BLACK
6
CONTINUOUS
10
2.91416
20
3.67227
11
2.91426
21
3.67297
0
LINE
8
BLACK
6
CONTINUOUS
10
2.91426
20
3.67297
11
2.9165
21
3.68325
0
LINE
8
BLACK
6
CONTINUOUS
10
2.9165
20
3.68325
11
2.9167
21
3.68393
0
LINE
8
BLACK
6
CONTINUOUS
10
2.9167
20
3.68393
11
2.92038
21
3.69379
0
LINE
8
BLACK
6
CONTINUOUS
10
2.92038
20
3.69379
11
2.92067
21
3.69444
0
LINE
8
BLACK
6
CONTINUOUS
10
2.92067
20
3.69444
11
2.92572
21
3.70368
0
LINE
8
BLACK
6
CONTINUOUS
10
2.92572
20
3.70368
11
2.9261
21
3.70427
0
LINE
8
BLACK
6
CONTINUOUS
10
2.9261
20
3.70427
11
2.93241
21
3.7127
0
LINE
8
BLACK
6
CONTINUOUS
10
2.93241
20
3.7127
11
2.93287
21
3.71323
0
LINE
8
BLACK
6
CONTINUOUS
10
2.93287
20
3.71323
11
2.94031
21
3.72067
0
LINE
8
BLACK
6
CONTINUOUS
10
2.94031
20
3.72067
11
2.94085
21
3.72114
0
LINE
8
BLACK
6
CONTINUOUS
10
2.94085
20
3.72114
11
2.94927
21
3.72745
0
LINE
8
BLACK
6
CONTINUOUS
10
2.94927
20
3.72745
11
2.94987
21
3.72783
0
LINE
8
BLACK
6
CONTINUOUS
10
2.94987
20
3.72783
11
2.9591
21
3.73287
0
LINE
8
BLACK
6
CONTINUOUS
10
2.9591
20
3.73287
11
2.95975
21
3.73317
0
LINE
8
BLACK
6
CONTINUOUS
10
2.95975
20
3.73317
11
2.96961
21
3.73684
0
LINE
8
BLACK
6
CONTINUOUS
10
2.96961
20
3.73684
11
2.97029
21
3.73704
0
LINE
8
BLACK
6
CONTINUOUS
10
2.97029
20
3.73704
11
2.98057
21
3.73928
0
LINE
8
BLACK
6
CONTINUOUS
10
2.98057
20
3.73928
11
2.98127
21
3.73938
0
LINE
8
BLACK
6
CONTINUOUS
10
2.98127
20
3.73938
11
2.99195
21
3.74014
0
LINE
8
BLACK
6
CONTINUOUS
10
2.99195
20
3.74014
11
2.9923
21
3.74016
0
LINE
8
BLACK
6
CONTINUOUS
10
2.9923
20
3.74016
11
3.28329
21
3.74016
0
LINE
8
BLACK
6
CONTINUOUS
10
3.28329
20
3.74016
11
3.28364
21
3.74014
0
LINE
8
BLACK
6
CONTINUOUS
10
3.28364
20
3.74014
11
3.29432
21
3.73938
0
LINE
8
BLACK
6
CONTINUOUS
10
3.29432
20
3.73938
11
3.29502
21
3.73928
0
LINE
8
BLACK
6
CONTINUOUS
10
3.29502
20
3.73928
11
3.3053
21
3.73704
0
LINE
8
BLACK
6
CONTINUOUS
10
3.3053
20
3.73704
11
3.30598
21
3.73684
0
LINE
8
BLACK
6
CONTINUOUS
10
3.30598
20
3.73684
11
3.31584
21
3.73317
0
LINE
8
BLACK
6
CONTINUOUS
10
3.31584
20
3.73317
11
3.31649
21
3.73287
0
LINE
8
BLACK
6
CONTINUOUS
10
3.31649
20
3.73287
11
3.32572
21
3.72783
0
LINE
8
BLACK
6
CONTINUOUS
10
3.32572
20
3.72783
11
3.32632
21
3.72745
0
LINE
8
BLACK
6
CONTINUOUS
10
3.32632
20
3.72745
11
3.33474
21
3.72114
0
LINE
8
BLACK
6
CONTINUOUS
10
3.33474
20
3.72114
11
3.33528
21
3.72067
0
LINE
8
BLACK
6
CONTINUOUS
10
3.33528
20
3.72067
11
3.34272
21
3.71323
0
LINE
8
BLACK
6
CONTINUOUS
10
3.34272
20
3.71323
11
3.34318
21
3.7127
0
LINE
8
BLACK
6
CONTINUOUS
10
3.34318
20
3.7127
11
3.34949
21
3.70427
0
LINE
8
BLACK
6
CONTINUOUS
10
3.34949
20
3.70427
11
3.34987
21
3.70368
0
LINE
8
BLACK
6
CONTINUOUS
10
3.34987
20
3.70368
11
3.35492
21
3.69444
0
LINE
8
BLACK
6
CONTINUOUS
10
3.35492
20
3.69444
11
3.35521
21
3.69379
0
LINE
8
BLACK
6
CONTINUOUS
10
3.35521
20
3.69379
11
3.35889
21
3.68393
0
LINE
8
BLACK
6
CONTINUOUS
10
3.35889
20
3.68393
11
3.35909
21
3.68325
0
LINE
8
BLACK
6
CONTINUOUS
10
3.35909
20
3.68325
11
3.36133
21
3.67297
0
LINE
8
BLACK
6
CONTINUOUS
10
3.36133
20
3.67297
11
3.36143
21
3.67227
0
LINE
8
BLACK
6
CONTINUOUS
10
3.36143
20
3.67227
11
3.36219
21
3.66159
0
LINE
8
BLACK
6
CONTINUOUS
10
3.36219
20
3.66159
11
3.3622
21
3.66124
0
LINE
8
BLACK
6
CONTINUOUS
10
3.3622
20
3.66124
11
3.3622
21
3.6322
0
LINE
8
BLACK
6
CONTINUOUS
10
3.3622
20
3.6322
11
3.36362
21
3.62963
0
LINE
8
BLACK
6
CONTINUOUS
10
3.36362
20
3.62963
11
3.36898
21
3.61663
0
LINE
8
BLACK
6
CONTINUOUS
10
3.36898
20
3.61663
11
3.37285
21
3.60311
0
LINE
8
BLACK
6
CONTINUOUS
10
3.37285
20
3.60311
11
3.3752
21
3.58924
0
LINE
8
BLACK
6
CONTINUOUS
10
3.3752
20
3.58924
11
3.37598
21
3.5752
0
LINE
8
BLACK
6
CONTINUOUS
10
3.37598
20
3.5752
11
3.37594
21
3.57168
0
LINE
8
BLACK
6
CONTINUOUS
10
3.37594
20
3.57168
11
3.37476
21
3.55766
0
LINE
8
BLACK
6
CONTINUOUS
10
3.37476
20
3.55766
11
3.37203
21
3.54387
0
LINE
8
BLACK
6
CONTINUOUS
10
3.37203
20
3.54387
11
3.36777
21
3.53046
0
LINE
8
BLACK
6
CONTINUOUS
10
3.36777
20
3.53046
11
3.3622
21
3.51795
0
LINE
8
BLACK
6
CONTINUOUS
10
3.3622
20
3.51795
11
3.3622
21
2.756
0
LINE
8
BLACK
6
CONTINUOUS
10
3.3622
20
2.756
11
3.36221
21
2.75581
0
LINE
8
BLACK
6
CONTINUOUS
10
3.36221
20
2.75581
11
3.36292
21
2.74686
0
LINE
8
BLACK
6
CONTINUOUS
10
3.36292
20
2.74686
11
3.36298
21
2.74648
0
LINE
8
BLACK
6
CONTINUOUS
10
3.36298
20
2.74648
11
3.36505
21
2.73785
0
LINE
8
BLACK
6
CONTINUOUS
10
3.36505
20
2.73785
11
3.36517
21
2.73748
0
LINE
8
BLACK
6
CONTINUOUS
10
3.36517
20
2.73748
11
3.36857
21
2.72928
0
LINE
8
BLACK
6
CONTINUOUS
10
3.36857
20
2.72928
11
3.36874
21
2.72893
0
LINE
8
BLACK
6
CONTINUOUS
10
3.36874
20
2.72893
11
3.37338
21
2.72136
0
LINE
8
BLACK
6
CONTINUOUS
10
3.37338
20
2.72136
11
3.37361
21
2.72105
0
LINE
8
BLACK
6
CONTINUOUS
10
3.37361
20
2.72105
11
3.37938
21
2.7143
0
LINE
8
BLACK
6
CONTINUOUS
10
3.37938
20
2.7143
11
3.37965
21
2.71402
0
LINE
8
BLACK
6
CONTINUOUS
10
3.37965
20
2.71402
11
3.3864
21
2.70826
0
LINE
8
BLACK
6
CONTINUOUS
10
3.3864
20
2.70826
11
3.38671
21
2.70803
0
LINE
8
BLACK
6
CONTINUOUS
10
3.38671
20
2.70803
11
3.39428
21
2.70339
0
LINE
8
BLACK
6
CONTINUOUS
10
3.39428
20
2.70339
11
3.39463
21
2.70321
0
LINE
8
BLACK
6
CONTINUOUS
10
3.39463
20
2.70321
11
3.40283
21
2.69982
0
LINE
8
BLACK
6
CONTINUOUS
10
3.40283
20
2.69982
11
3.4032
21
2.6997
0
LINE
8
BLACK
6
CONTINUOUS
10
3.4032
20
2.6997
11
3.41183
21
2.69762
0
LINE
8
BLACK
6
CONTINUOUS
10
3.41183
20
2.69762
11
3.41222
21
2.69756
0
LINE
8
BLACK
6
CONTINUOUS
10
3.41222
20
2.69756
11
3.42116
21
2.69686
0
LINE
8
BLACK
6
CONTINUOUS
10
3.42116
20
2.69686
11
3.42136
21
2.69685
0
LINE
8
BLACK
6
CONTINUOUS
10
3.42136
20
2.69685
11
3.44469
21
2.69685
0
LINE
8
BLACK
6
CONTINUOUS
10
3.44469
20
2.69685
11
3.44508
21
2.69684
0
LINE
8
BLACK
6
CONTINUOUS
10
3.44508
20
2.69684
11
3.45373
21
2.69615
0
LINE
8
BLACK
6
CONTINUOUS
10
3.45373
20
2.69615
11
3.4545
21
2.69603
0
LINE
8
BLACK
6
CONTINUOUS
10
3.4545
20
2.69603
11
3.46275
21
2.69405
0
LINE
8
BLACK
6
CONTINUOUS
10
3.46275
20
2.69405
11
3.46349
21
2.69381
0
LINE
8
BLACK
6
CONTINUOUS
10
3.46349
20
2.69381
11
3.47133
21
2.69056
0
LINE
8
BLACK
6
CONTINUOUS
10
3.47133
20
2.69056
11
3.47203
21
2.69021
0
LINE
8
BLACK
6
CONTINUOUS
10
3.47203
20
2.69021
11
3.47926
21
2.68578
0
LINE
8
BLACK
6
CONTINUOUS
10
3.47926
20
2.68578
11
3.47989
21
2.68532
0
LINE
8
BLACK
6
CONTINUOUS
10
3.47989
20
2.68532
11
3.48634
21
2.67981
0
LINE
8
BLACK
6
CONTINUOUS
10
3.48634
20
2.67981
11
3.48689
21
2.67926
0
LINE
8
BLACK
6
CONTINUOUS
10
3.48689
20
2.67926
11
3.4924
21
2.6728
0
LINE
8
BLACK
6
CONTINUOUS
10
3.4924
20
2.6728
11
3.49286
21
2.67217
0
LINE
8
BLACK
6
CONTINUOUS
10
3.49286
20
2.67217
11
3.4973
21
2.66494
0
LINE
8
BLACK
6
CONTINUOUS
10
3.4973
20
2.66494
11
3.49765
21
2.66425
0
LINE
8
BLACK
6
CONTINUOUS
10
3.49765
20
2.66425
11
3.5009
21
2.65641
0
LINE
8
BLACK
6
CONTINUOUS
10
3.5009
20
2.65641
11
3.50114
21
2.65566
0
LINE
8
BLACK
6
CONTINUOUS
10
3.50114
20
2.65566
11
3.50312
21
2.64741
0
LINE
8
BLACK
6
CONTINUOUS
10
3.50312
20
2.64741
11
3.50324
21
2.64664
0
LINE
8
BLACK
6
CONTINUOUS
10
3.50324
20
2.64664
11
3.50392
21
2.63799
0
LINE
8
BLACK
6
CONTINUOUS
10
3.50392
20
2.63799
11
3.50394
21
2.6376
0
LINE
8
BLACK
6
CONTINUOUS
10
3.50394
20
2.6376
11
3.50394
21
0.137972
0
LINE
8
BLACK
6
CONTINUOUS
10
3.50394
20
0.137972
11
3.50392
21
0.137619
0
LINE
8
BLACK
6
CONTINUOUS
10
2.01777
20
1.57944
11
2.02032
21
1.57774
0
LINE
8
BLACK
6
CONTINUOUS
10
2.02032
20
1.57774
11
2.02203
21
1.57518
0
LINE
8
BLACK
6
CONTINUOUS
10
2.02203
20
1.57518
11
2.02263
21
1.57217
0
LINE
8
BLACK
6
CONTINUOUS
10
2.02263
20
1.57217
11
2.02263
21
1.5328
0
LINE
8
BLACK
6
CONTINUOUS
10
2.02263
20
1.5328
11
2.02203
21
1.52979
0
LINE
8
BLACK
6
CONTINUOUS
10
2.02203
20
1.52979
11
2.02032
21
1.52723
0
LINE
8
BLACK
6
CONTINUOUS
10
2.02032
20
1.52723
11
2.01777
21
1.52552
0
LINE
8
BLACK
6
CONTINUOUS
10
2.01777
20
1.52552
11
2.01475
21
1.52493
0
LINE
8
BLACK
6
CONTINUOUS
10
2.01475
20
1.52493
11
1.93207
21
1.52493
0
LINE
8
BLACK
6
CONTINUOUS
10
1.93207
20
1.52493
11
1.93207
21
1.44225
0
LINE
8
BLACK
6
CONTINUOUS
10
1.93207
20
1.44225
11
1.93148
21
1.43923
0
LINE
8
BLACK
6
CONTINUOUS
10
1.93148
20
1.43923
11
1.92977
21
1.43668
0
LINE
8
BLACK
6
CONTINUOUS
10
1.92977
20
1.43668
11
1.92721
21
1.43497
0
LINE
8
BLACK
6
CONTINUOUS
10
1.92721
20
1.43497
11
1.9242
21
1.43437
0
LINE
8
BLACK
6
CONTINUOUS
10
1.9242
20
1.43437
11
1.89961
21
1.43437
0
LINE
8
BLACK
6
CONTINUOUS
10
1.89961
20
1.43437
11
1.89961
21
1.36351
0
LINE
8
BLACK
6
CONTINUOUS
10
1.89961
20
1.36351
11
1.9242
21
1.36351
0
LINE
8
BLACK
6
CONTINUOUS
10
1.9242
20
1.36351
11
1.92721
21
1.36291
0
LINE
8
BLACK
6
CONTINUOUS
10
1.92721
20
1.36291
11
1.92977
21
1.3612
0
LINE
8
BLACK
6
CONTINUOUS
10
1.92977
20
1.3612
11
1.93148
21
1.35865
0
LINE
8
BLACK
6
CONTINUOUS
10
1.93148
20
1.35865
11
1.93207
21
1.35563
0
LINE
8
BLACK
6
CONTINUOUS
10
1.93207
20
1.35563
11
1.93207
21
1.20603
0
LINE
8
BLACK
6
CONTINUOUS
10
1.93207
20
1.20603
11
1.93148
21
1.20301
0
LINE
8
BLACK
6
CONTINUOUS
10
1.93148
20
1.20301
11
1.92977
21
1.20046
0
LINE
8
BLACK
6
CONTINUOUS
10
1.92977
20
1.20046
11
1.92721
21
1.19875
0
LINE
8
BLACK
6
CONTINUOUS
10
1.92721
20
1.19875
11
1.9242
21
1.19815
0
LINE
8
BLACK
6
CONTINUOUS
10
1.9242
20
1.19815
11
1.89961
21
1.19815
0
LINE
8
BLACK
6
CONTINUOUS
10
1.89961
20
1.19815
11
1.89961
21
1.12729
0
LINE
8
BLACK
6
CONTINUOUS
10
1.89961
20
1.12729
11
1.9242
21
1.12729
0
LINE
8
BLACK
6
CONTINUOUS
10
1.9242
20
1.12729
11
1.92721
21
1.12669
0
LINE
8
BLACK
6
CONTINUOUS
10
1.92721
20
1.12669
11
1.92977
21
1.12498
0
LINE
8
BLACK
6
CONTINUOUS
10
1.92977
20
1.12498
11
1.93148
21
1.12243
0
LINE
8
BLACK
6
CONTINUOUS
10
1.93148
20
1.12243
11
1.93207
21
1.11941
0
LINE
8
BLACK
6
CONTINUOUS
10
1.93207
20
1.11941
11
1.93207
21
0.969807
0
LINE
8
BLACK
6
CONTINUOUS
10
1.93207
20
0.969807
11
1.93148
21
0.966794
0
LINE
8
BLACK
6
CONTINUOUS
10
1.93148
20
0.966794
11
1.92977
21
0.964239
0
LINE
8
BLACK
6
CONTINUOUS
10
1.92977
20
0.964239
11
1.92721
21
0.962532
0
LINE
8
BLACK
6
CONTINUOUS
10
1.92721
20
0.962532
11
1.9242
21
0.961933
0
LINE
8
BLACK
6
CONTINUOUS
10
1.9242
20
0.961933
11
1.89961
21
0.961933
0
LINE
8
BLACK
6
CONTINUOUS
10
1.89961
20
0.961933
11
1.89961
21
0.891067
0
LINE
8
BLACK
6
CONTINUOUS
10
1.89961
20
0.891067
11
1.9242
21
0.891067
0
LINE
8
BLACK
6
CONTINUOUS
10
1.9242
20
0.891067
11
1.92721
21
0.890468
0
LINE
8
BLACK
6
CONTINUOUS
10
1.92721
20
0.890468
11
1.92977
21
0.888761
0
LINE
8
BLACK
6
CONTINUOUS
10
1.92977
20
0.888761
11
1.93148
21
0.886206
0
LINE
8
BLACK
6
CONTINUOUS
10
1.93148
20
0.886206
11
1.93207
21
0.883193
0
LINE
8
BLACK
6
CONTINUOUS
10
1.93207
20
0.883193
11
1.93207
21
0.733587
0
LINE
8
BLACK
6
CONTINUOUS
10
1.93207
20
0.733587
11
1.93148
21
0.730573
0
LINE
8
BLACK
6
CONTINUOUS
10
1.93148
20
0.730573
11
1.92977
21
0.728019
0
LINE
8
BLACK
6
CONTINUOUS
10
1.92977
20
0.728019
11
1.92721
21
0.726312
0
LINE
8
BLACK
6
CONTINUOUS
10
1.92721
20
0.726312
11
1.9242
21
0.725713
0
LINE
8
BLACK
6
CONTINUOUS
10
1.9242
20
0.725713
11
1.89961
21
0.725713
0
LINE
8
BLACK
6
CONTINUOUS
10
1.89961
20
0.725713
11
1.89961
21
0.654846
0
LINE
8
BLACK
6
CONTINUOUS
10
1.89961
20
0.654846
11
1.9242
21
0.654846
0
LINE
8
BLACK
6
CONTINUOUS
10
1.9242
20
0.654846
11
1.92721
21
0.654247
0
LINE
8
BLACK
6
CONTINUOUS
10
1.92721
20
0.654247
11
1.92977
21
0.65254
0
LINE
8
BLACK
6
CONTINUOUS
10
1.92977
20
0.65254
11
1.93148
21
0.649986
0
LINE
8
BLACK
6
CONTINUOUS
10
1.93148
20
0.649986
11
1.93207
21
0.646972
0
LINE
8
BLACK
6
CONTINUOUS
10
1.93207
20
0.646972
11
1.93207
21
0.497366
0
LINE
8
BLACK
6
CONTINUOUS
10
1.93207
20
0.497366
11
1.93148
21
0.494353
0
LINE
8
BLACK
6
CONTINUOUS
10
1.93148
20
0.494353
11
1.92977
21
0.491798
0
LINE
8
BLACK
6
CONTINUOUS
10
1.92977
20
0.491798
11
1.92721
21
0.490091
0
LINE
8
BLACK
6
CONTINUOUS
10
1.92721
20
0.490091
11
1.9242
21
0.489492
0
LINE
8
BLACK
6
CONTINUOUS
10
1.9242
20
0.489492
11
1.89961
21
0.489492
0
LINE
8
BLACK
6
CONTINUOUS
10
1.89961
20
0.489492
11
1.89961
21
0.418626
0
LINE
8
BLACK
6
CONTINUOUS
10
1.89961
20
0.418626
11
1.9242
21
0.418626
0
LINE
8
BLACK
6
CONTINUOUS
10
1.9242
20
0.418626
11
1.92721
21
0.418027
0
LINE
8
BLACK
6
CONTINUOUS
10
1.92721
20
0.418027
11
1.92977
21
0.41632
0
LINE
8
BLACK
6
CONTINUOUS
10
1.92977
20
0.41632
11
1.93148
21
0.413765
0
LINE
8
BLACK
6
CONTINUOUS
10
1.93148
20
0.413765
11
1.93207
21
0.410752
0
LINE
8
BLACK
6
CONTINUOUS
10
1.93207
20
0.410752
11
1.93207
21
0.328075
0
LINE
8
BLACK
6
CONTINUOUS
10
1.93207
20
0.328075
11
2.01475
21
0.328075
0
LINE
8
BLACK
6
CONTINUOUS
10
2.01475
20
0.328075
11
2.01777
21
0.327475
0
LINE
8
BLACK
6
CONTINUOUS
10
2.01777
20
0.327475
11
2.02032
21
0.325769
0
LINE
8
BLACK
6
CONTINUOUS
10
2.02032
20
0.325769
11
2.02203
21
0.323214
0
LINE
8
BLACK
6
CONTINUOUS
10
2.02203
20
0.323214
11
2.02263
21
0.320201
0
LINE
8
BLACK
6
CONTINUOUS
10
2.02263
20
0.320201
11
2.02263
21
0.285433
0
LINE
8
BLACK
6
CONTINUOUS
10
2.02263
20
0.285433
11
2.09349
21
0.285433
0
LINE
8
BLACK
6
CONTINUOUS
10
2.09349
20
0.285433
11
2.09349
21
0.320201
0
LINE
8
BLACK
6
CONTINUOUS
10
2.09349
20
0.320201
11
2.09409
21
0.323214
0
LINE
8
BLACK
6
CONTINUOUS
10
2.09409
20
0.323214
11
2.0958
21
0.325769
0
LINE
8
BLACK
6
CONTINUOUS
10
2.0958
20
0.325769
11
2.09835
21
0.327475
0
LINE
8
BLACK
6
CONTINUOUS
10
2.09835
20
0.327475
11
2.10137
21
0.328075
0
LINE
8
BLACK
6
CONTINUOUS
10
2.10137
20
0.328075
11
2.25097
21
0.328075
0
LINE
8
BLACK
6
CONTINUOUS
10
2.25097
20
0.328075
11
2.25399
21
0.327475
0
LINE
8
BLACK
6
CONTINUOUS
10
2.25399
20
0.327475
11
2.25654
21
0.325769
0
LINE
8
BLACK
6
CONTINUOUS
10
2.25654
20
0.325769
11
2.25825
21
0.323214
0
LINE
8
BLACK
6
CONTINUOUS
10
2.25825
20
0.323214
11
2.25885
21
0.320201
0
LINE
8
BLACK
6
CONTINUOUS
10
2.25885
20
0.320201
11
2.25885
21
0.285433
0
LINE
8
BLACK
6
CONTINUOUS
10
2.25885
20
0.285433
11
2.32971
21
0.285433
0
LINE
8
BLACK
6
CONTINUOUS
10
2.32971
20
0.285433
11
2.32971
21
0.320201
0
LINE
8
BLACK
6
CONTINUOUS
10
2.32971
20
0.320201
11
2.33031
21
0.323214
0
LINE
8
BLACK
6
CONTINUOUS
10
2.33031
20
0.323214
11
2.33202
21
0.325769
0
LINE
8
BLACK
6
CONTINUOUS
10
2.33202
20
0.325769
11
2.33457
21
0.327475
0
LINE
8
BLACK
6
CONTINUOUS
10
2.33457
20
0.327475
11
2.33759
21
0.328075
0
LINE
8
BLACK
6
CONTINUOUS
10
2.33759
20
0.328075
11
2.48719
21
0.328075
0
LINE
8
BLACK
6
CONTINUOUS
10
2.48719
20
0.328075
11
2.49021
21
0.327475
0
LINE
8
BLACK
6
CONTINUOUS
10
2.49021
20
0.327475
11
2.49276
21
0.325769
0
LINE
8
BLACK
6
CONTINUOUS
10
2.49276
20
0.325769
11
2.49447
21
0.323214
0
LINE
8
BLACK
6
CONTINUOUS
10
2.49447
20
0.323214
11
2.49507
21
0.320201
0
LINE
8
BLACK
6
CONTINUOUS
10
2.49507
20
0.320201
11
2.49507
21
0.285433
0
LINE
8
BLACK
6
CONTINUOUS
10
2.49507
20
0.285433
11
2.56593
21
0.285433
0
LINE
8
BLACK
6
CONTINUOUS
10
2.56593
20
0.285433
11
2.56593
21
0.320201
0
LINE
8
BLACK
6
CONTINUOUS
10
2.56593
20
0.320201
11
2.56653
21
0.323214
0
LINE
8
BLACK
6
CONTINUOUS
10
2.56653
20
0.323214
11
2.56824
21
0.325769
0
LINE
8
BLACK
6
CONTINUOUS
10
2.56824
20
0.325769
11
2.57079
21
0.327475
0
LINE
8
BLACK
6
CONTINUOUS
10
2.57079
20
0.327475
11
2.57381
21
0.328075
0
LINE
8
BLACK
6
CONTINUOUS
10
2.57381
20
0.328075
11
2.72341
21
0.328075
0
LINE
8
BLACK
6
CONTINUOUS
10
2.72341
20
0.328075
11
2.72643
21
0.327475
0
LINE
8
BLACK
6
CONTINUOUS
10
2.72643
20
0.327475
11
2.72898
21
0.325769
0
LINE
8
BLACK
6
CONTINUOUS
10
2.72898
20
0.325769
11
2.73069
21
0.323214
0
LINE
8
BLACK
6
CONTINUOUS
10
2.73069
20
0.323214
11
2.73129
21
0.320201
0
LINE
8
BLACK
6
CONTINUOUS
10
2.73129
20
0.320201
11
2.73129
21
0.285433
0
LINE
8
BLACK
6
CONTINUOUS
10
2.73129
20
0.285433
11
2.80215
21
0.285433
0
LINE
8
BLACK
6
CONTINUOUS
10
2.80215
20
0.285433
11
2.80215
21
0.320201
0
LINE
8
BLACK
6
CONTINUOUS
10
2.80215
20
0.320201
11
2.80275
21
0.323214
0
LINE
8
BLACK
6
CONTINUOUS
10
2.80275
20
0.323214
11
2.80446
21
0.325769
0
LINE
8
BLACK
6
CONTINUOUS
10
2.80446
20
0.325769
11
2.80701
21
0.327475
0
LINE
8
BLACK
6
CONTINUOUS
10
2.80701
20
0.327475
11
2.81003
21
0.328075
0
LINE
8
BLACK
6
CONTINUOUS
10
2.81003
20
0.328075
11
2.95963
21
0.328075
0
LINE
8
BLACK
6
CONTINUOUS
10
2.95963
20
0.328075
11
2.96265
21
0.327475
0
LINE
8
BLACK
6
CONTINUOUS
10
2.96265
20
0.327475
11
2.9652
21
0.325769
0
LINE
8
BLACK
6
CONTINUOUS
10
2.9652
20
0.325769
11
2.96691
21
0.323214
0
LINE
8
BLACK
6
CONTINUOUS
10
2.96691
20
0.323214
11
2.96751
21
0.320201
0
LINE
8
BLACK
6
CONTINUOUS
10
2.96751
20
0.320201
11
2.96751
21
0.285433
0
LINE
8
BLACK
6
CONTINUOUS
10
2.96751
20
0.285433
11
3.02929
21
0.285433
0
LINE
8
BLACK
6
CONTINUOUS
10
3.02929
20
0.285433
11
3.02989
21
0.285609
0
LINE
8
BLACK
6
CONTINUOUS
10
3.02989
20
0.285609
11
3.02993
21
0.285664
0
LINE
8
BLACK
6
CONTINUOUS
10
3.02993
20
0.285664
11
3.03003
21
0.286094
0
LINE
8
BLACK
6
CONTINUOUS
10
3.03003
20
0.286094
11
3.03064
21
0.28721
0
LINE
8
BLACK
6
CONTINUOUS
10
3.03064
20
0.28721
11
3.03079
21
0.287721
0
LINE
8
BLACK
6
CONTINUOUS
10
3.03079
20
0.287721
11
3.03103
21
0.287933
0
LINE
8
BLACK
6
CONTINUOUS
10
3.03103
20
0.287933
11
3.03137
21
0.288547
0
LINE
8
BLACK
6
CONTINUOUS
10
3.03137
20
0.288547
11
3.03238
21
0.289098
0
LINE
8
BLACK
6
CONTINUOUS
10
3.03238
20
0.289098
11
3.0329
21
0.289552
0
LINE
8
BLACK
6
CONTINUOUS
10
3.0329
20
0.289552
11
3.03341
21
0.289663
0
LINE
8
BLACK
6
CONTINUOUS
10
3.03341
20
0.289663
11
3.03382
21
0.289887
0
LINE
8
BLACK
6
CONTINUOUS
10
3.03382
20
0.289887
11
3.03487
21
0.29
0
LINE
8
BLACK
6
CONTINUOUS
10
3.03487
20
0.29
11
3.03837
21
0.29
0
LINE
8
BLACK
6
CONTINUOUS
10
3.03837
20
0.29
11
3.03837
21
0.320201
0
LINE
8
BLACK
6
CONTINUOUS
10
3.03837
20
0.320201
11
3.03897
21
0.323214
0
LINE
8
BLACK
6
CONTINUOUS
10
3.03897
20
0.323214
11
3.04068
21
0.325769
0
LINE
8
BLACK
6
CONTINUOUS
10
3.04068
20
0.325769
11
3.04323
21
0.327475
0
LINE
8
BLACK
6
CONTINUOUS
10
3.04323
20
0.327475
11
3.04625
21
0.328075
0
LINE
8
BLACK
6
CONTINUOUS
10
3.04625
20
0.328075
11
3.12893
21
0.328075
0
LINE
8
BLACK
6
CONTINUOUS
10
3.12893
20
0.328075
11
3.12893
21
0.410752
0
LINE
8
BLACK
6
CONTINUOUS
10
3.12893
20
0.410752
11
3.12952
21
0.413765
0
LINE
8
BLACK
6
CONTINUOUS
10
3.12952
20
0.413765
11
3.13123
21
0.41632
0
LINE
8
BLACK
6
CONTINUOUS
10
3.13123
20
0.41632
11
3.13379
21
0.418027
0
LINE
8
BLACK
6
CONTINUOUS
10
3.13379
20
0.418027
11
3.1368
21
0.418626
0
LINE
8
BLACK
6
CONTINUOUS
10
3.1368
20
0.418626
11
3.16929
21
0.418626
0
LINE
8
BLACK
6
CONTINUOUS
10
3.16929
20
0.418626
11
3.16929
21
0.489492
0
LINE
8
BLACK
6
CONTINUOUS
10
3.16929
20
0.489492
11
3.1368
21
0.489492
0
LINE
8
BLACK
6
CONTINUOUS
10
3.1368
20
0.489492
11
3.13379
21
0.490091
0
LINE
8
BLACK
6
CONTINUOUS
10
3.13379
20
0.490091
11
3.13123
21
0.491798
0
LINE
8
BLACK
6
CONTINUOUS
10
3.13123
20
0.491798
11
3.12952
21
0.494353
0
LINE
8
BLACK
6
CONTINUOUS
10
3.12952
20
0.494353
11
3.12893
21
0.497366
0
LINE
8
BLACK
6
CONTINUOUS
10
3.12893
20
0.497366
11
3.12893
21
0.646972
0
LINE
8
BLACK
6
CONTINUOUS
10
3.12893
20
0.646972
11
3.12952
21
0.649986
0
LINE
8
BLACK
6
CONTINUOUS
10
3.12952
20
0.649986
11
3.13123
21
0.65254
0
LINE
8
BLACK
6
CONTINUOUS
10
3.13123
20
0.65254
11
3.13379
21
0.654247
0
LINE
8
BLACK
6
CONTINUOUS
10
3.13379
20
0.654247
11
3.1368
21
0.654846
0
LINE
8
BLACK
6
CONTINUOUS
10
3.1368
20
0.654846
11
3.16929
21
0.654846
0
LINE
8
BLACK
6
CONTINUOUS
10
3.16929
20
0.654846
11
3.16929
21
0.725713
0
LINE
8
BLACK
6
CONTINUOUS
10
3.16929
20
0.725713
11
3.1368
21
0.725713
0
LINE
8
BLACK
6
CONTINUOUS
10
3.1368
20
0.725713
11
3.13379
21
0.726312
0
LINE
8
BLACK
6
CONTINUOUS
10
3.13379
20
0.726312
11
3.13123
21
0.728019
0
LINE
8
BLACK
6
CONTINUOUS
10
3.13123
20
0.728019
11
3.12952
21
0.730573
0
LINE
8
BLACK
6
CONTINUOUS
10
3.12952
20
0.730573
11
3.12893
21
0.733587
0
LINE
8
BLACK
6
CONTINUOUS
10
3.12893
20
0.733587
11
3.12893
21
0.883193
0
LINE
8
BLACK
6
CONTINUOUS
10
3.12893
20
0.883193
11
3.12952
21
0.886206
0
LINE
8
BLACK
6
CONTINUOUS
10
3.12952
20
0.886206
11
3.13123
21
0.888761
0
LINE
8
BLACK
6
CONTINUOUS
10
3.13123
20
0.888761
11
3.13379
21
0.890468
0
LINE
8
BLACK
6
CONTINUOUS
10
3.13379
20
0.890468
11
3.1368
21
0.891067
0
LINE
8
BLACK
6
CONTINUOUS
10
3.1368
20
0.891067
11
3.16929
21
0.891067
0
LINE
8
BLACK
6
CONTINUOUS
10
3.16929
20
0.891067
11
3.16929
21
0.961933
0
LINE
8
BLACK
6
CONTINUOUS
10
3.16929
20
0.961933
11
3.1368
21
0.961933
0
LINE
8
BLACK
6
CONTINUOUS
10
3.1368
20
0.961933
11
3.13379
21
0.962532
0
LINE
8
BLACK
6
CONTINUOUS
10
3.13379
20
0.962532
11
3.13123
21
0.964239
0
LINE
8
BLACK
6
CONTINUOUS
10
3.13123
20
0.964239
11
3.12952
21
0.966794
0
LINE
8
BLACK
6
CONTINUOUS
10
3.12952
20
0.966794
11
3.12893
21
0.969807
0
LINE
8
BLACK
6
CONTINUOUS
10
3.12893
20
0.969807
11
3.12893
21
1.11941
0
LINE
8
BLACK
6
CONTINUOUS
10
3.12893
20
1.11941
11
3.12952
21
1.12243
0
LINE
8
BLACK
6
CONTINUOUS
10
3.12952
20
1.12243
11
3.13123
21
1.12498
0
LINE
8
BLACK
6
CONTINUOUS
10
3.13123
20
1.12498
11
3.13379
21
1.12669
0
LINE
8
BLACK
6
CONTINUOUS
10
3.13379
20
1.12669
11
3.1368
21
1.12729
0
LINE
8
BLACK
6
CONTINUOUS
10
3.1368
20
1.12729
11
3.16929
21
1.12729
0
LINE
8
BLACK
6
CONTINUOUS
10
3.16929
20
1.12729
11
3.16929
21
1.19815
0
LINE
8
BLACK
6
CONTINUOUS
10
3.16929
20
1.19815
11
3.1368
21
1.19815
0
LINE
8
BLACK
6
CONTINUOUS
10
3.1368
20
1.19815
11
3.13379
21
1.19875
0
LINE
8
BLACK
6
CONTINUOUS
10
3.13379
20
1.19875
11
3.13123
21
1.20046
0
LINE
8
BLACK
6
CONTINUOUS
10
3.13123
20
1.20046
11
3.12952
21
1.20301
0
LINE
8
BLACK
6
CONTINUOUS
10
3.12952
20
1.20301
11
3.12893
21
1.20603
0
LINE
8
BLACK
6
CONTINUOUS
10
3.12893
20
1.20603
11
3.12893
21
1.35563
0
LINE
8
BLACK
6
CONTINUOUS
10
3.12893
20
1.35563
11
3.12952
21
1.35865
0
LINE
8
BLACK
6
CONTINUOUS
10
3.12952
20
1.35865
11
3.13123
21
1.3612
0
LINE
8
BLACK
6
CONTINUOUS
10
3.13123
20
1.3612
11
3.13379
21
1.36291
0
LINE
8
BLACK
6
CONTINUOUS
10
3.13379
20
1.36291
11
3.1368
21
1.36351
0
LINE
8
BLACK
6
CONTINUOUS
10
3.1368
20
1.36351
11
3.16929
21
1.36351
0
LINE
8
BLACK
6
CONTINUOUS
10
3.16929
20
1.36351
11
3.16929
21
1.43437
0
LINE
8
BLACK
6
CONTINUOUS
10
3.16929
20
1.43437
11
3.1368
21
1.43437
0
LINE
8
BLACK
6
CONTINUOUS
10
3.1368
20
1.43437
11
3.13379
21
1.43497
0
LINE
8
BLACK
6
CONTINUOUS
10
3.13379
20
1.43497
11
3.13123
21
1.43668
0
LINE
8
BLACK
6
CONTINUOUS
10
3.13123
20
1.43668
11
3.12952
21
1.43923
0
LINE
8
BLACK
6
CONTINUOUS
10
3.12952
20
1.43923
11
3.12893
21
1.44225
0
LINE
8
BLACK
6
CONTINUOUS
10
3.12893
20
1.44225
11
3.12893
21
1.52493
0
LINE
8
BLACK
6
CONTINUOUS
10
3.12893
20
1.52493
11
3.04625
21
1.52493
0
LINE
8
BLACK
6
CONTINUOUS
10
3.04625
20
1.52493
11
3.04323
21
1.52552
0
LINE
8
BLACK
6
CONTINUOUS
10
3.04323
20
1.52552
11
3.04068
21
1.52723
0
LINE
8
BLACK
6
CONTINUOUS
10
3.04068
20
1.52723
11
3.03897
21
1.52979
0
LINE
8
BLACK
6
CONTINUOUS
10
3.03897
20
1.52979
11
3.03837
21
1.5328
0
LINE
8
BLACK
6
CONTINUOUS
10
3.03837
20
1.5328
11
3.03837
21
1.56
0
LINE
8
BLACK
6
CONTINUOUS
10
3.03837
20
1.56
11
2.96751
21
1.56
0
LINE
8
BLACK
6
CONTINUOUS
10
2.96751
20
1.56
11
2.96751
21
1.5328
0
LINE
8
BLACK
6
CONTINUOUS
10
2.96751
20
1.5328
11
2.96691
21
1.52979
0
LINE
8
BLACK
6
CONTINUOUS
10
2.96691
20
1.52979
11
2.9652
21
1.52723
0
LINE
8
BLACK
6
CONTINUOUS
10
2.9652
20
1.52723
11
2.96265
21
1.52552
0
LINE
8
BLACK
6
CONTINUOUS
10
2.96265
20
1.52552
11
2.95963
21
1.52493
0
LINE
8
BLACK
6
CONTINUOUS
10
2.95963
20
1.52493
11
2.81003
21
1.52493
0
LINE
8
BLACK
6
CONTINUOUS
10
2.81003
20
1.52493
11
2.80701
21
1.52552
0
LINE
8
BLACK
6
CONTINUOUS
10
2.80701
20
1.52552
11
2.80446
21
1.52723
0
LINE
8
BLACK
6
CONTINUOUS
10
2.80446
20
1.52723
11
2.80275
21
1.52979
0
LINE
8
BLACK
6
CONTINUOUS
10
2.80275
20
1.52979
11
2.80215
21
1.5328
0
LINE
8
BLACK
6
CONTINUOUS
10
2.80215
20
1.5328
11
2.80215
21
1.57217
0
LINE
8
BLACK
6
CONTINUOUS
10
2.80215
20
1.57217
11
2.80275
21
1.57518
0
LINE
8
BLACK
6
CONTINUOUS
10
2.80275
20
1.57518
11
2.80446
21
1.57774
0
LINE
8
BLACK
6
CONTINUOUS
10
2.80446
20
1.57774
11
2.80701
21
1.57944
0
LINE
8
BLACK
6
CONTINUOUS
10
2.80701
20
1.57944
11
2.81003
21
1.58004
0
LINE
8
BLACK
6
CONTINUOUS
10
2.81003
20
1.58004
11
2.91
21
1.58004
0
LINE
8
BLACK
6
CONTINUOUS
10
2.91
20
1.58004
11
2.91
21
1.58646
0
LINE
8
BLACK
6
CONTINUOUS
10
2.91
20
1.58646
11
2.80575
21
1.58646
0
LINE
8
BLACK
6
CONTINUOUS
10
2.80575
20
1.58646
11
2.80273
21
1.58706
0
LINE
8
BLACK
6
CONTINUOUS
10
2.80273
20
1.58706
11
2.80018
21
1.58876
0
LINE
8
BLACK
6
CONTINUOUS
10
2.80018
20
1.58876
11
2.79847
21
1.59132
0
LINE
8
BLACK
6
CONTINUOUS
10
2.79847
20
1.59132
11
2.79787
21
1.59433
0
LINE
8
BLACK
6
CONTINUOUS
10
2.79787
20
1.59433
11
2.79787
21
1.6337
0
LINE
8
BLACK
6
CONTINUOUS
10
2.79787
20
1.6337
11
2.79847
21
1.63671
0
LINE
8
BLACK
6
CONTINUOUS
10
2.79847
20
1.63671
11
2.80018
21
1.63927
0
LINE
8
BLACK
6
CONTINUOUS
10
2.80018
20
1.63927
11
2.80273
21
1.64098
0
LINE
8
BLACK
6
CONTINUOUS
10
2.80273
20
1.64098
11
2.80575
21
1.64157
0
LINE
8
BLACK
6
CONTINUOUS
10
2.80575
20
1.64157
11
2.88843
21
1.64157
0
LINE
8
BLACK
6
CONTINUOUS
10
2.88843
20
1.64157
11
2.88843
21
1.72425
0
LINE
8
BLACK
6
CONTINUOUS
10
2.88843
20
1.72425
11
2.88902
21
1.72727
0
LINE
8
BLACK
6
CONTINUOUS
10
2.88902
20
1.72727
11
2.89073
21
1.72982
0
LINE
8
BLACK
6
CONTINUOUS
10
2.89073
20
1.72982
11
2.89329
21
1.73153
0
LINE
8
BLACK
6
CONTINUOUS
10
2.89329
20
1.73153
11
2.8963
21
1.73213
0
LINE
8
BLACK
6
CONTINUOUS
10
2.8963
20
1.73213
11
2.91
21
1.73213
0
LINE
8
BLACK
6
CONTINUOUS
10
2.91
20
1.73213
11
2.91
21
1.80299
0
LINE
8
BLACK
6
CONTINUOUS
10
2.91
20
1.80299
11
2.8963
21
1.80299
0
LINE
8
BLACK
6
CONTINUOUS
10
2.8963
20
1.80299
11
2.89329
21
1.80359
0
LINE
8
BLACK
6
CONTINUOUS
10
2.89329
20
1.80359
11
2.89073
21
1.8053
0
LINE
8
BLACK
6
CONTINUOUS
10
2.89073
20
1.8053
11
2.88902
21
1.80785
0
LINE
8
BLACK
6
CONTINUOUS
10
2.88902
20
1.80785
11
2.88843
21
1.81087
0
LINE
8
BLACK
6
CONTINUOUS
10
2.88843
20
1.81087
11
2.88843
21
1.96047
0
LINE
8
BLACK
6
CONTINUOUS
10
2.88843
20
1.96047
11
2.88902
21
1.96349
0
LINE
8
BLACK
6
CONTINUOUS
10
2.88902
20
1.96349
11
2.89073
21
1.96604
0
LINE
8
BLACK
6
CONTINUOUS
10
2.89073
20
1.96604
11
2.89329
21
1.96775
0
LINE
8
BLACK
6
CONTINUOUS
10
2.89329
20
1.96775
11
2.8963
21
1.96835
0
LINE
8
BLACK
6
CONTINUOUS
10
2.8963
20
1.96835
11
2.91
21
1.96835
0
LINE
8
BLACK
6
CONTINUOUS
10
2.91
20
1.96835
11
2.91
21
2.03921
0
LINE
8
BLACK
6
CONTINUOUS
10
2.91
20
2.03921
11
2.8963
21
2.03921
0
LINE
8
BLACK
6
CONTINUOUS
10
2.8963
20
2.03921
11
2.89329
21
2.03981
0
LINE
8
BLACK
6
CONTINUOUS
10
2.89329
20
2.03981
11
2.89073
21
2.04152
0
LINE
8
BLACK
6
CONTINUOUS
10
2.89073
20
2.04152
11
2.88902
21
2.04407
0
LINE
8
BLACK
6
CONTINUOUS
10
2.88902
20
2.04407
11
2.88843
21
2.04709
0
LINE
8
BLACK
6
CONTINUOUS
10
2.88843
20
2.04709
11
2.88843
21
2.19669
0
LINE
8
BLACK
6
CONTINUOUS
10
2.88843
20
2.19669
11
2.88902
21
2.19971
0
LINE
8
BLACK
6
CONTINUOUS
10
2.88902
20
2.19971
11
2.89073
21
2.20226
0
LINE
8
BLACK
6
CONTINUOUS
10
2.89073
20
2.20226
11
2.89329
21
2.20397
0
LINE
8
BLACK
6
CONTINUOUS
10
2.89329
20
2.20397
11
2.8963
21
2.20457
0
LINE
8
BLACK
6
CONTINUOUS
10
2.8963
20
2.20457
11
2.91
21
2.20457
0
LINE
8
BLACK
6
CONTINUOUS
10
2.91
20
2.20457
11
2.91
21
2.27543
0
LINE
8
BLACK
6
CONTINUOUS
10
2.91
20
2.27543
11
2.8963
21
2.27543
0
LINE
8
BLACK
6
CONTINUOUS
10
2.8963
20
2.27543
11
2.89329
21
2.27603
0
LINE
8
BLACK
6
CONTINUOUS
10
2.89329
20
2.27603
11
2.89073
21
2.27774
0
LINE
8
BLACK
6
CONTINUOUS
10
2.89073
20
2.27774
11
2.88902
21
2.28029
0
LINE
8
BLACK
6
CONTINUOUS
10
2.88902
20
2.28029
11
2.88843
21
2.28331
0
LINE
8
BLACK
6
CONTINUOUS
10
2.88843
20
2.28331
11
2.88843
21
2.43291
0
LINE
8
BLACK
6
CONTINUOUS
10
2.88843
20
2.43291
11
2.88902
21
2.43593
0
LINE
8
BLACK
6
CONTINUOUS
10
2.88902
20
2.43593
11
2.89073
21
2.43848
0
LINE
8
BLACK
6
CONTINUOUS
10
2.89073
20
2.43848
11
2.89329
21
2.44019
0
LINE
8
BLACK
6
CONTINUOUS
10
2.89329
20
2.44019
11
2.8963
21
2.44079
0
LINE
8
BLACK
6
CONTINUOUS
10
2.8963
20
2.44079
11
2.91
21
2.44079
0
LINE
8
BLACK
6
CONTINUOUS
10
2.91
20
2.44079
11
2.91
21
2.51165
0
LINE
8
BLACK
6
CONTINUOUS
10
2.91
20
2.51165
11
2.8963
21
2.51165
0
LINE
8
BLACK
6
CONTINUOUS
10
2.8963
20
2.51165
11
2.89329
21
2.51225
0
LINE
8
BLACK
6
CONTINUOUS
10
2.89329
20
2.51225
11
2.89073
21
2.51396
0
LINE
8
BLACK
6
CONTINUOUS
10
2.89073
20
2.51396
11
2.88902
21
2.51651
0
LINE
8
BLACK
6
CONTINUOUS
10
2.88902
20
2.51651
11
2.88843
21
2.51953
0
LINE
8
BLACK
6
CONTINUOUS
10
2.88843
20
2.51953
11
2.88843
21
2.66913
0
LINE
8
BLACK
6
CONTINUOUS
10
2.88843
20
2.66913
11
2.88902
21
2.67215
0
LINE
8
BLACK
6
CONTINUOUS
10
2.88902
20
2.67215
11
2.89073
21
2.6747
0
LINE
8
BLACK
6
CONTINUOUS
10
2.89073
20
2.6747
11
2.89329
21
2.67641
0
LINE
8
BLACK
6
CONTINUOUS
10
2.89329
20
2.67641
11
2.8963
21
2.67701
0
LINE
8
BLACK
6
CONTINUOUS
10
2.8963
20
2.67701
11
2.91
21
2.67701
0
LINE
8
BLACK
6
CONTINUOUS
10
2.91
20
2.67701
11
2.91
21
2.74787
0
LINE
8
BLACK
6
CONTINUOUS
10
2.91
20
2.74787
11
2.8963
21
2.74787
0
LINE
8
BLACK
6
CONTINUOUS
10
2.8963
20
2.74787
11
2.89329
21
2.74847
0
LINE
8
BLACK
6
CONTINUOUS
10
2.89329
20
2.74847
11
2.89073
21
2.75018
0
LINE
8
BLACK
6
CONTINUOUS
10
2.89073
20
2.75018
11
2.88902
21
2.75273
0
LINE
8
BLACK
6
CONTINUOUS
10
2.88902
20
2.75273
11
2.88843
21
2.75575
0
LINE
8
BLACK
6
CONTINUOUS
10
2.88843
20
2.75575
11
2.88843
21
2.83843
0
LINE
8
BLACK
6
CONTINUOUS
10
2.88843
20
2.83843
11
2.80575
21
2.83843
0
LINE
8
BLACK
6
CONTINUOUS
10
2.80575
20
2.83843
11
2.80273
21
2.83902
0
LINE
8
BLACK
6
CONTINUOUS
10
2.80273
20
2.83902
11
2.80018
21
2.84073
0
LINE
8
BLACK
6
CONTINUOUS
10
2.80018
20
2.84073
11
2.79847
21
2.84329
0
LINE
8
BLACK
6
CONTINUOUS
10
2.79847
20
2.84329
11
2.79787
21
2.8463
0
LINE
8
BLACK
6
CONTINUOUS
10
2.79787
20
2.8463
11
2.79787
21
2.87496
0
LINE
8
BLACK
6
CONTINUOUS
10
2.79787
20
2.87496
11
2.72701
21
2.87526
0
LINE
8
BLACK
6
CONTINUOUS
10
2.72701
20
2.87526
11
2.72701
21
2.8463
0
LINE
8
BLACK
6
CONTINUOUS
10
2.72701
20
2.8463
11
2.72641
21
2.84329
0
LINE
8
BLACK
6
CONTINUOUS
10
2.72641
20
2.84329
11
2.7247
21
2.84073
0
LINE
8
BLACK
6
CONTINUOUS
10
2.7247
20
2.84073
11
2.72215
21
2.83902
0
LINE
8
BLACK
6
CONTINUOUS
10
2.72215
20
2.83902
11
2.71913
21
2.83843
0
LINE
8
BLACK
6
CONTINUOUS
10
2.71913
20
2.83843
11
2.56953
21
2.83843
0
LINE
8
BLACK
6
CONTINUOUS
10
2.56953
20
2.83843
11
2.56651
21
2.83902
0
LINE
8
BLACK
6
CONTINUOUS
10
2.56651
20
2.83902
11
2.56396
21
2.84073
0
LINE
8
BLACK
6
CONTINUOUS
10
2.56396
20
2.84073
11
2.56225
21
2.84329
0
LINE
8
BLACK
6
CONTINUOUS
10
2.56225
20
2.84329
11
2.56165
21
2.8463
0
LINE
8
BLACK
6
CONTINUOUS
10
2.56165
20
2.8463
11
2.56165
21
2.87595
0
LINE
8
BLACK
6
CONTINUOUS
10
2.56165
20
2.87595
11
2.49079
21
2.87625
0
LINE
8
BLACK
6
CONTINUOUS
10
2.49079
20
2.87625
11
2.49079
21
2.8463
0
LINE
8
BLACK
6
CONTINUOUS
10
2.49079
20
2.8463
11
2.49019
21
2.84329
0
LINE
8
BLACK
6
CONTINUOUS
10
2.49019
20
2.84329
11
2.48848
21
2.84073
0
LINE
8
BLACK
6
CONTINUOUS
10
2.48848
20
2.84073
11
2.48593
21
2.83902
0
LINE
8
BLACK
6
CONTINUOUS
10
2.48593
20
2.83902
11
2.48291
21
2.83843
0
LINE
8
BLACK
6
CONTINUOUS
10
2.48291
20
2.83843
11
2.33331
21
2.83843
0
LINE
8
BLACK
6
CONTINUOUS
10
2.33331
20
2.83843
11
2.33029
21
2.83902
0
LINE
8
BLACK
6
CONTINUOUS
10
2.33029
20
2.83902
11
2.32774
21
2.84073
0
LINE
8
BLACK
6
CONTINUOUS
10
2.32774
20
2.84073
11
2.32603
21
2.84329
0
LINE
8
BLACK
6
CONTINUOUS
10
2.32603
20
2.84329
11
2.32543
21
2.8463
0
LINE
8
BLACK
6
CONTINUOUS
10
2.32543
20
2.8463
11
2.32543
21
2.87695
0
LINE
8
BLACK
6
CONTINUOUS
10
2.32543
20
2.87695
11
2.25457
21
2.87724
0
LINE
8
BLACK
6
CONTINUOUS
10
2.25457
20
2.87724
11
2.25457
21
2.8463
0
LINE
8
BLACK
6
CONTINUOUS
10
2.25457
20
2.8463
11
2.25397
21
2.84329
0
LINE
8
BLACK
6
CONTINUOUS
10
2.25397
20
2.84329
11
2.25226
21
2.84073
0
LINE
8
BLACK
6
CONTINUOUS
10
2.25226
20
2.84073
11
2.24971
21
2.83902
0
LINE
8
BLACK
6
CONTINUOUS
10
2.24971
20
2.83902
11
2.24669
21
2.83843
0
LINE
8
BLACK
6
CONTINUOUS
10
2.24669
20
2.83843
11
2.09709
21
2.83843
0
LINE
8
BLACK
6
CONTINUOUS
10
2.09709
20
2.83843
11
2.09407
21
2.83902
0
LINE
8
BLACK
6
CONTINUOUS
10
2.09407
20
2.83902
11
2.09152
21
2.84073
0
LINE
8
BLACK
6
CONTINUOUS
10
2.09152
20
2.84073
11
2.08981
21
2.84329
0
LINE
8
BLACK
6
CONTINUOUS
10
2.08981
20
2.84329
11
2.08921
21
2.8463
0
LINE
8
BLACK
6
CONTINUOUS
10
2.08921
20
2.8463
11
2.08921
21
2.87794
0
LINE
8
BLACK
6
CONTINUOUS
10
2.08921
20
2.87794
11
2.01835
21
2.87824
0
LINE
8
BLACK
6
CONTINUOUS
10
2.01835
20
2.87824
11
2.01835
21
2.8463
0
LINE
8
BLACK
6
CONTINUOUS
10
2.01835
20
2.8463
11
2.01775
21
2.84329
0
LINE
8
BLACK
6
CONTINUOUS
10
2.01775
20
2.84329
11
2.01604
21
2.84073
0
LINE
8
BLACK
6
CONTINUOUS
10
2.01604
20
2.84073
11
2.01349
21
2.83902
0
LINE
8
BLACK
6
CONTINUOUS
10
2.01349
20
2.83902
11
2.01047
21
2.83843
0
LINE
8
BLACK
6
CONTINUOUS
10
2.01047
20
2.83843
11
1.86087
21
2.83843
0
LINE
8
BLACK
6
CONTINUOUS
10
1.86087
20
2.83843
11
1.85785
21
2.83902
0
LINE
8
BLACK
6
CONTINUOUS
10
1.85785
20
2.83902
11
1.8553
21
2.84073
0
LINE
8
BLACK
6
CONTINUOUS
10
1.8553
20
2.84073
11
1.85359
21
2.84329
0
LINE
8
BLACK
6
CONTINUOUS
10
1.85359
20
2.84329
11
1.85299
21
2.8463
0
LINE
8
BLACK
6
CONTINUOUS
10
1.85299
20
2.8463
11
1.85299
21
2.87894
0
LINE
8
BLACK
6
CONTINUOUS
10
1.85299
20
2.87894
11
1.78213
21
2.87923
0
LINE
8
BLACK
6
CONTINUOUS
10
1.78213
20
2.87923
11
1.78213
21
2.8463
0
LINE
8
BLACK
6
CONTINUOUS
10
1.78213
20
2.8463
11
1.78153
21
2.84329
0
LINE
8
BLACK
6
CONTINUOUS
10
1.78153
20
2.84329
11
1.77982
21
2.84073
0
LINE
8
BLACK
6
CONTINUOUS
10
1.77982
20
2.84073
11
1.77727
21
2.83902
0
LINE
8
BLACK
6
CONTINUOUS
10
1.77727
20
2.83902
11
1.77425
21
2.83843
0
LINE
8
BLACK
6
CONTINUOUS
10
1.77425
20
2.83843
11
1.69157
21
2.83843
0
LINE
8
BLACK
6
CONTINUOUS
10
1.69157
20
2.83843
11
1.69157
21
2.75575
0
LINE
8
BLACK
6
CONTINUOUS
10
1.69157
20
2.75575
11
1.69098
21
2.75273
0
LINE
8
BLACK
6
CONTINUOUS
10
1.69098
20
2.75273
11
1.68927
21
2.75018
0
LINE
8
BLACK
6
CONTINUOUS
10
1.68927
20
2.75018
11
1.68671
21
2.74847
0
LINE
8
BLACK
6
CONTINUOUS
10
1.68671
20
2.74847
11
1.6837
21
2.74787
0
LINE
8
BLACK
6
CONTINUOUS
10
1.6837
20
2.74787
11
1.66339
21
2.74787
0
LINE
8
BLACK
6
CONTINUOUS
10
1.66339
20
2.74787
11
1.66339
21
2.67701
0
LINE
8
BLACK
6
CONTINUOUS
10
1.66339
20
2.67701
11
1.6837
21
2.67701
0
LINE
8
BLACK
6
CONTINUOUS
10
1.6837
20
2.67701
11
1.68671
21
2.67641
0
LINE
8
BLACK
6
CONTINUOUS
10
1.68671
20
2.67641
11
1.68927
21
2.6747
0
LINE
8
BLACK
6
CONTINUOUS
10
1.68927
20
2.6747
11
1.69098
21
2.67215
0
LINE
8
BLACK
6
CONTINUOUS
10
1.69098
20
2.67215
11
1.69157
21
2.66913
0
LINE
8
BLACK
6
CONTINUOUS
10
1.69157
20
2.66913
11
1.69157
21
2.51953
0
LINE
8
BLACK
6
CONTINUOUS
10
1.69157
20
2.51953
11
1.69098
21
2.51651
0
LINE
8
BLACK
6
CONTINUOUS
10
1.69098
20
2.51651
11
1.68927
21
2.51396
0
LINE
8
BLACK
6
CONTINUOUS
10
1.68927
20
2.51396
11
1.68671
21
2.51225
0
LINE
8
BLACK
6
CONTINUOUS
10
1.68671
20
2.51225
11
1.6837
21
2.51165
0
LINE
8
BLACK
6
CONTINUOUS
10
1.6837
20
2.51165
11
1.66339
21
2.51165
0
LINE
8
BLACK
6
CONTINUOUS
10
1.66339
20
2.51165
11
1.66339
21
2.44079
0
LINE
8
BLACK
6
CONTINUOUS
10
1.66339
20
2.44079
11
1.6837
21
2.44079
0
LINE
8
BLACK
6
CONTINUOUS
10
1.6837
20
2.44079
11
1.68671
21
2.44019
0
LINE
8
BLACK
6
CONTINUOUS
10
1.68671
20
2.44019
11
1.68927
21
2.43848
0
LINE
8
BLACK
6
CONTINUOUS
10
1.68927
20
2.43848
11
1.69098
21
2.43593
0
LINE
8
BLACK
6
CONTINUOUS
10
1.69098
20
2.43593
11
1.69157
21
2.43291
0
LINE
8
BLACK
6
CONTINUOUS
10
1.69157
20
2.43291
11
1.69157
21
2.28331
0
LINE
8
BLACK
6
CONTINUOUS
10
1.69157
20
2.28331
11
1.69098
21
2.28029
0
LINE
8
BLACK
6
CONTINUOUS
10
1.69098
20
2.28029
11
1.68927
21
2.27774
0
LINE
8
BLACK
6
CONTINUOUS
10
1.68927
20
2.27774
11
1.68671
21
2.27603
0
LINE
8
BLACK
6
CONTINUOUS
10
1.68671
20
2.27603
11
1.6837
21
2.27543
0
LINE
8
BLACK
6
CONTINUOUS
10
1.6837
20
2.27543
11
1.66339
21
2.27543
0
LINE
8
BLACK
6
CONTINUOUS
10
1.66339
20
2.27543
11
1.66339
21
2.20457
0
LINE
8
BLACK
6
CONTINUOUS
10
1.66339
20
2.20457
11
1.6837
21
2.20457
0
LINE
8
BLACK
6
CONTINUOUS
10
1.6837
20
2.20457
11
1.68671
21
2.20397
0
LINE
8
BLACK
6
CONTINUOUS
10
1.68671
20
2.20397
11
1.68927
21
2.20226
0
LINE
8
BLACK
6
CONTINUOUS
10
1.68927
20
2.20226
11
1.69098
21
2.19971
0
LINE
8
BLACK
6
CONTINUOUS
10
1.69098
20
2.19971
11
1.69157
21
2.19669
0
LINE
8
BLACK
6
CONTINUOUS
10
1.69157
20
2.19669
11
1.69157
21
2.04709
0
LINE
8
BLACK
6
CONTINUOUS
10
1.69157
20
2.04709
11
1.69098
21
2.04407
0
LINE
8
BLACK
6
CONTINUOUS
10
1.69098
20
2.04407
11
1.68927
21
2.04152
0
LINE
8
BLACK
6
CONTINUOUS
10
1.68927
20
2.04152
11
1.68671
21
2.03981
0
LINE
8
BLACK
6
CONTINUOUS
10
1.68671
20
2.03981
11
1.6837
21
2.03921
0
LINE
8
BLACK
6
CONTINUOUS
10
1.6837
20
2.03921
11
1.66339
21
2.03921
0
LINE
8
BLACK
6
CONTINUOUS
10
1.66339
20
2.03921
11
1.66339
21
1.96835
0
LINE
8
BLACK
6
CONTINUOUS
10
1.66339
20
1.96835
11
1.6837
21
1.96835
0
LINE
8
BLACK
6
CONTINUOUS
10
1.6837
20
1.96835
11
1.68671
21
1.96775
0
LINE
8
BLACK
6
CONTINUOUS
10
1.68671
20
1.96775
11
1.68927
21
1.96604
0
LINE
8
BLACK
6
CONTINUOUS
10
1.68927
20
1.96604
11
1.69098
21
1.96349
0
LINE
8
BLACK
6
CONTINUOUS
10
1.69098
20
1.96349
11
1.69157
21
1.96047
0
LINE
8
BLACK
6
CONTINUOUS
10
1.69157
20
1.96047
11
1.69157
21
1.81087
0
LINE
8
BLACK
6
CONTINUOUS
10
1.69157
20
1.81087
11
1.69098
21
1.80785
0
LINE
8
BLACK
6
CONTINUOUS
10
1.69098
20
1.80785
11
1.68927
21
1.8053
0
LINE
8
BLACK
6
CONTINUOUS
10
1.68927
20
1.8053
11
1.68671
21
1.80359
0
LINE
8
BLACK
6
CONTINUOUS
10
1.68671
20
1.80359
11
1.6837
21
1.80299
0
LINE
8
BLACK
6
CONTINUOUS
10
1.6837
20
1.80299
11
1.66339
21
1.80299
0
LINE
8
BLACK
6
CONTINUOUS
10
1.66339
20
1.80299
11
1.66339
21
1.73213
0
LINE
8
BLACK
6
CONTINUOUS
10
1.66339
20
1.73213
11
1.6837
21
1.73213
0
LINE
8
BLACK
6
CONTINUOUS
10
1.6837
20
1.73213
11
1.68671
21
1.73153
0
LINE
8
BLACK
6
CONTINUOUS
10
1.68671
20
1.73153
11
1.68927
21
1.72982
0
LINE
8
BLACK
6
CONTINUOUS
10
1.68927
20
1.72982
11
1.69098
21
1.72727
0
LINE
8
BLACK
6
CONTINUOUS
10
1.69098
20
1.72727
11
1.69157
21
1.72425
0
LINE
8
BLACK
6
CONTINUOUS
10
1.69157
20
1.72425
11
1.69157
21
1.64157
0
LINE
8
BLACK
6
CONTINUOUS
10
1.69157
20
1.64157
11
1.77425
21
1.64157
0
LINE
8
BLACK
6
CONTINUOUS
10
1.77425
20
1.64157
11
1.77727
21
1.64098
0
LINE
8
BLACK
6
CONTINUOUS
10
1.77727
20
1.64098
11
1.77982
21
1.63927
0
LINE
8
BLACK
6
CONTINUOUS
10
1.77982
20
1.63927
11
1.78153
21
1.63671
0
LINE
8
BLACK
6
CONTINUOUS
10
1.78153
20
1.63671
11
1.78213
21
1.6337
0
LINE
8
BLACK
6
CONTINUOUS
10
1.78213
20
1.6337
11
1.78213
21
1.60433
0
LINE
8
BLACK
6
CONTINUOUS
10
1.78213
20
1.60433
11
1.85299
21
1.60433
0
LINE
8
BLACK
6
CONTINUOUS
10
1.85299
20
1.60433
11
1.85299
21
1.6337
0
LINE
8
BLACK
6
CONTINUOUS
10
1.85299
20
1.6337
11
1.85359
21
1.63671
0
LINE
8
BLACK
6
CONTINUOUS
10
1.85359
20
1.63671
11
1.8553
21
1.63927
0
LINE
8
BLACK
6
CONTINUOUS
10
1.8553
20
1.63927
11
1.85785
21
1.64098
0
LINE
8
BLACK
6
CONTINUOUS
10
1.85785
20
1.64098
11
1.86087
21
1.64157
0
LINE
8
BLACK
6
CONTINUOUS
10
1.86087
20
1.64157
11
2.01047
21
1.64157
0
LINE
8
BLACK
6
CONTINUOUS
10
2.01047
20
1.64157
11
2.01349
21
1.64098
0
LINE
8
BLACK
6
CONTINUOUS
10
2.01349
20
1.64098
11
2.01604
21
1.63927
0
LINE
8
BLACK
6
CONTINUOUS
10
2.01604
20
1.63927
11
2.01775
21
1.63671
0
LINE
8
BLACK
6
CONTINUOUS
10
2.01775
20
1.63671
11
2.01835
21
1.6337
0
LINE
8
BLACK
6
CONTINUOUS
10
2.01835
20
1.6337
11
2.01835
21
1.59433
0
LINE
8
BLACK
6
CONTINUOUS
10
2.01835
20
1.59433
11
2.01775
21
1.59132
0
LINE
8
BLACK
6
CONTINUOUS
10
2.01775
20
1.59132
11
2.01604
21
1.58876
0
LINE
8
BLACK
6
CONTINUOUS
10
2.01604
20
1.58876
11
2.01349
21
1.58706
0
LINE
8
BLACK
6
CONTINUOUS
10
2.01349
20
1.58706
11
2.01047
21
1.58646
0
LINE
8
BLACK
6
CONTINUOUS
10
2.01047
20
1.58646
11
1.89961
21
1.58646
0
LINE
8
BLACK
6
CONTINUOUS
10
1.89961
20
1.58646
11
1.89961
21
1.58004
0
LINE
8
BLACK
6
CONTINUOUS
10
1.89961
20
1.58004
11
2.01475
21
1.58004
0
LINE
8
BLACK
6
CONTINUOUS
10
2.01475
20
1.58004
11
2.01777
21
1.57944
0
LINE
8
BLACK
6
CONTINUOUS
10
2.93084
20
0.69025
11
2.93791
21
0.688064
0
LINE
8
BLACK
6
CONTINUOUS
10
2.93791
20
0.688064
11
2.94441
21
0.684549
0
LINE
8
BLACK
6
CONTINUOUS
10
2.94441
20
0.684549
11
2.9501
21
0.679837
0
LINE
8
BLACK
6
CONTINUOUS
10
2.9501
20
0.679837
11
2.95477
21
0.674109
0
LINE
8
BLACK
6
CONTINUOUS
10
2.95477
20
0.674109
11
2.95824
21
0.667582
0
LINE
8
BLACK
6
CONTINUOUS
10
2.95824
20
0.667582
11
2.96038
21
0.660506
0
LINE
8
BLACK
6
CONTINUOUS
10
2.96038
20
0.660506
11
2.9611
21
0.65315
0
LINE
8
BLACK
6
CONTINUOUS
10
2.9611
20
0.65315
11
2.96109
21
0.652092
0
LINE
8
BLACK
6
CONTINUOUS
10
2.96109
20
0.652092
11
2.96016
21
0.644759
0
LINE
8
BLACK
6
CONTINUOUS
10
2.96016
20
0.644759
11
2.95783
21
0.637745
0
LINE
8
BLACK
6
CONTINUOUS
10
2.95783
20
0.637745
11
2.95418
21
0.631318
0
LINE
8
BLACK
6
CONTINUOUS
10
2.95418
20
0.631318
11
2.94935
21
0.625722
0
LINE
8
BLACK
6
CONTINUOUS
10
2.94935
20
0.625722
11
2.94352
21
0.621172
0
LINE
8
BLACK
6
CONTINUOUS
10
2.94352
20
0.621172
11
2.93692
21
0.617839
0
LINE
8
BLACK
6
CONTINUOUS
10
2.93692
20
0.617839
11
2.92981
21
0.615851
0
LINE
8
BLACK
6
CONTINUOUS
10
2.92981
20
0.615851
11
2.92244
21
0.615284
0
LINE
8
BLACK
6
CONTINUOUS
10
2.92244
20
0.615284
11
2.9151
21
0.616159
0
LINE
8
BLACK
6
CONTINUOUS
10
2.9151
20
0.616159
11
2.90807
21
0.618443
0
LINE
8
BLACK
6
CONTINUOUS
10
2.90807
20
0.618443
11
2.90161
21
0.622049
0
LINE
8
BLACK
6
CONTINUOUS
10
2.90161
20
0.622049
11
2.89598
21
0.62684
0
LINE
8
BLACK
6
CONTINUOUS
10
2.89598
20
0.62684
11
2.89139
21
0.632633
0
LINE
8
BLACK
6
CONTINUOUS
10
2.89139
20
0.632633
11
2.88801
21
0.639207
0
LINE
8
BLACK
6
CONTINUOUS
10
2.88801
20
0.639207
11
2.88598
21
0.646313
0
LINE
8
BLACK
6
CONTINUOUS
10
2.88598
20
0.646313
11
2.88536
21
0.653678
0
LINE
8
BLACK
6
CONTINUOUS
10
2.88536
20
0.653678
11
2.88618
21
0.661024
0
LINE
8
BLACK
6
CONTINUOUS
10
2.88618
20
0.661024
11
2.88842
21
0.66807
0
LINE
8
BLACK
6
CONTINUOUS
10
2.88842
20
0.66807
11
2.89198
21
0.674547
0
LINE
8
BLACK
6
CONTINUOUS
10
2.89198
20
0.674547
11
2.89673
21
0.68021
0
LINE
8
BLACK
6
CONTINUOUS
10
2.89673
20
0.68021
11
2.90249
21
0.684841
0
LINE
8
BLACK
6
CONTINUOUS
10
2.90249
20
0.684841
11
2.90904
21
0.688266
0
LINE
8
BLACK
6
CONTINUOUS
10
2.90904
20
0.688266
11
2.91613
21
0.690353
0
LINE
8
BLACK
6
CONTINUOUS
10
2.91613
20
0.690353
11
2.92349
21
0.691023
0
LINE
8
BLACK
6
CONTINUOUS
10
2.92349
20
0.691023
11
2.93084
21
0.69025
0
LINE
8
BLACK
6
CONTINUOUS
10
2.93084
20
0.8871
11
2.93791
21
0.884915
0
LINE
8
BLACK
6
CONTINUOUS
10
2.93791
20
0.884915
11
2.94441
21
0.881399
0
LINE
8
BLACK
6
CONTINUOUS
10
2.94441
20
0.881399
11
2.9501
21
0.876687
0
LINE
8
BLACK
6
CONTINUOUS
10
2.9501
20
0.876687
11
2.95477
21
0.870959
0
LINE
8
BLACK
6
CONTINUOUS
10
2.95477
20
0.870959
11
2.95824
21
0.864433
0
LINE
8
BLACK
6
CONTINUOUS
10
2.95824
20
0.864433
11
2.96038
21
0.857356
0
LINE
8
BLACK
6
CONTINUOUS
10
2.96038
20
0.857356
11
2.9611
21
0.85
0
LINE
8
BLACK
6
CONTINUOUS
10
2.9611
20
0.85
11
2.96109
21
0.848942
0
LINE
8
BLACK
6
CONTINUOUS
10
2.96109
20
0.848942
11
2.96016
21
0.841609
0
LINE
8
BLACK
6
CONTINUOUS
10
2.96016
20
0.841609
11
2.95783
21
0.834595
0
LINE
8
BLACK
6
CONTINUOUS
10
2.95783
20
0.834595
11
2.95418
21
0.828168
0
LINE
8
BLACK
6
CONTINUOUS
10
2.95418
20
0.828168
11
2.94935
21
0.822573
0
LINE
8
BLACK
6
CONTINUOUS
10
2.94935
20
0.822573
11
2.94352
21
0.818022
0
LINE
8
BLACK
6
CONTINUOUS
10
2.94352
20
0.818022
11
2.93692
21
0.814689
0
LINE
8
BLACK
6
CONTINUOUS
10
2.93692
20
0.814689
11
2.92981
21
0.812701
0
LINE
8
BLACK
6
CONTINUOUS
10
2.92981
20
0.812701
11
2.92244
21
0.812134
0
LINE
8
BLACK
6
CONTINUOUS
10
2.92244
20
0.812134
11
2.9151
21
0.813009
0
LINE
8
BLACK
6
CONTINUOUS
10
2.9151
20
0.813009
11
2.90807
21
0.815294
0
LINE
8
BLACK
6
CONTINUOUS
10
2.90807
20
0.815294
11
2.90161
21
0.8189
0
LINE
8
BLACK
6
CONTINUOUS
10
2.90161
20
0.8189
11
2.89598
21
0.823691
0
LINE
8
BLACK
6
CONTINUOUS
10
2.89598
20
0.823691
11
2.89139
21
0.829483
0
LINE
8
BLACK
6
CONTINUOUS
10
2.89139
20
0.829483
11
2.88801
21
0.836058
0
LINE
8
BLACK
6
CONTINUOUS
10
2.88801
20
0.836058
11
2.88598
21
0.843163
0
LINE
8
BLACK
6
CONTINUOUS
10
2.88598
20
0.843163
11
2.88536
21
0.850529
0
LINE
8
BLACK
6
CONTINUOUS
10
2.88536
20
0.850529
11
2.88618
21
0.857874
0
LINE
8
BLACK
6
CONTINUOUS
10
2.88618
20
0.857874
11
2.88842
21
0.86492
0
LINE
8
BLACK
6
CONTINUOUS
10
2.88842
20
0.86492
11
2.89198
21
0.871398
0
LINE
8
BLACK
6
CONTINUOUS
10
2.89198
20
0.871398
11
2.89673
21
0.87706
0
LINE
8
BLACK
6
CONTINUOUS
10
2.89673
20
0.87706
11
2.90249
21
0.881692
0
LINE
8
BLACK
6
CONTINUOUS
10
2.90249
20
0.881692
11
2.90904
21
0.885116
0
LINE
8
BLACK
6
CONTINUOUS
10
2.90904
20
0.885116
11
2.91613
21
0.887203
0
LINE
8
BLACK
6
CONTINUOUS
10
2.91613
20
0.887203
11
2.92349
21
0.887873
0
LINE
8
BLACK
6
CONTINUOUS
10
2.92349
20
0.887873
11
2.93084
21
0.8871
0
LINE
8
BLACK
6
CONTINUOUS
10
2.49021
20
1.57944
11
2.49276
21
1.57774
0
LINE
8
BLACK
6
CONTINUOUS
10
2.49276
20
1.57774
11
2.49447
21
1.57518
0
LINE
8
BLACK
6
CONTINUOUS
10
2.49447
20
1.57518
11
2.49507
21
1.57217
0
LINE
8
BLACK
6
CONTINUOUS
10
2.49507
20
1.57217
11
2.49507
21
1.5328
0
LINE
8
BLACK
6
CONTINUOUS
10
2.49507
20
1.5328
11
2.49447
21
1.52979
0
LINE
8
BLACK
6
CONTINUOUS
10
2.49447
20
1.52979
11
2.49276
21
1.52723
0
LINE
8
BLACK
6
CONTINUOUS
10
2.49276
20
1.52723
11
2.49021
21
1.52552
0
LINE
8
BLACK
6
CONTINUOUS
10
2.49021
20
1.52552
11
2.48719
21
1.52493
0
LINE
8
BLACK
6
CONTINUOUS
10
2.48719
20
1.52493
11
2.33759
21
1.52493
0
LINE
8
BLACK
6
CONTINUOUS
10
2.33759
20
1.52493
11
2.33457
21
1.52552
0
LINE
8
BLACK
6
CONTINUOUS
10
2.33457
20
1.52552
11
2.33202
21
1.52723
0
LINE
8
BLACK
6
CONTINUOUS
10
2.33202
20
1.52723
11
2.33031
21
1.52979
0
LINE
8
BLACK
6
CONTINUOUS
10
2.33031
20
1.52979
11
2.32971
21
1.5328
0
LINE
8
BLACK
6
CONTINUOUS
10
2.32971
20
1.5328
11
2.32971
21
1.57217
0
LINE
8
BLACK
6
CONTINUOUS
10
2.32971
20
1.57217
11
2.33031
21
1.57518
0
LINE
8
BLACK
6
CONTINUOUS
10
2.33031
20
1.57518
11
2.33202
21
1.57774
0
LINE
8
BLACK
6
CONTINUOUS
10
2.33202
20
1.57774
11
2.33457
21
1.57944
0
LINE
8
BLACK
6
CONTINUOUS
10
2.33457
20
1.57944
11
2.33759
21
1.58004
0
LINE
8
BLACK
6
CONTINUOUS
10
2.33759
20
1.58004
11
2.48719
21
1.58004
0
LINE
8
BLACK
6
CONTINUOUS
10
2.48719
20
1.58004
11
2.49021
21
1.57944
0
LINE
8
BLACK
6
CONTINUOUS
10
2.72643
20
1.57944
11
2.72898
21
1.57774
0
LINE
8
BLACK
6
CONTINUOUS
10
2.72898
20
1.57774
11
2.73069
21
1.57518
0
LINE
8
BLACK
6
CONTINUOUS
10
2.73069
20
1.57518
11
2.73129
21
1.57217
0
LINE
8
BLACK
6
CONTINUOUS
10
2.73129
20
1.57217
11
2.73129
21
1.5328
0
LINE
8
BLACK
6
CONTINUOUS
10
2.73129
20
1.5328
11
2.73069
21
1.52979
0
LINE
8
BLACK
6
CONTINUOUS
10
2.73069
20
1.52979
11
2.72898
21
1.52723
0
LINE
8
BLACK
6
CONTINUOUS
10
2.72898
20
1.52723
11
2.72643
21
1.52552
0
LINE
8
BLACK
6
CONTINUOUS
10
2.72643
20
1.52552
11
2.72341
21
1.52493
0
LINE
8
BLACK
6
CONTINUOUS
10
2.72341
20
1.52493
11
2.57381
21
1.52493
0
LINE
8
BLACK
6
CONTINUOUS
10
2.57381
20
1.52493
11
2.57079
21
1.52552
0
LINE
8
BLACK
6
CONTINUOUS
10
2.57079
20
1.52552
11
2.56824
21
1.52723
0
LINE
8
BLACK
6
CONTINUOUS
10
2.56824
20
1.52723
11
2.56653
21
1.52979
0
LINE
8
BLACK
6
CONTINUOUS
10
2.56653
20
1.52979
11
2.56593
21
1.5328
0
LINE
8
BLACK
6
CONTINUOUS
10
2.56593
20
1.5328
11
2.56593
21
1.57217
0
LINE
8
BLACK
6
CONTINUOUS
10
2.56593
20
1.57217
11
2.56653
21
1.57518
0
LINE
8
BLACK
6
CONTINUOUS
10
2.56653
20
1.57518
11
2.56824
21
1.57774
0
LINE
8
BLACK
6
CONTINUOUS
10
2.56824
20
1.57774
11
2.57079
21
1.57944
0
LINE
8
BLACK
6
CONTINUOUS
10
2.57079
20
1.57944
11
2.57381
21
1.58004
0
LINE
8
BLACK
6
CONTINUOUS
10
2.57381
20
1.58004
11
2.72341
21
1.58004
0
LINE
8
BLACK
6
CONTINUOUS
10
2.72341
20
1.58004
11
2.72643
21
1.57944
0
LINE
8
BLACK
6
CONTINUOUS
10
2.25399
20
1.57944
11
2.25654
21
1.57774
0
LINE
8
BLACK
6
CONTINUOUS
10
2.25654
20
1.57774
11
2.25825
21
1.57518
0
LINE
8
BLACK
6
CONTINUOUS
10
2.25825
20
1.57518
11
2.25885
21
1.57217
0
LINE
8
BLACK
6
CONTINUOUS
10
2.25885
20
1.57217
11
2.25885
21
1.5328
0
LINE
8
BLACK
6
CONTINUOUS
10
2.25885
20
1.5328
11
2.25825
21
1.52979
0
LINE
8
BLACK
6
CONTINUOUS
10
2.25825
20
1.52979
11
2.25654
21
1.52723
0
LINE
8
BLACK
6
CONTINUOUS
10
2.25654
20
1.52723
11
2.25399
21
1.52552
0
LINE
8
BLACK
6
CONTINUOUS
10
2.25399
20
1.52552
11
2.25097
21
1.52493
0
LINE
8
BLACK
6
CONTINUOUS
10
2.25097
20
1.52493
11
2.10137
21
1.52493
0
LINE
8
BLACK
6
CONTINUOUS
10
2.10137
20
1.52493
11
2.09835
21
1.52552
0
LINE
8
BLACK
6
CONTINUOUS
10
2.09835
20
1.52552
11
2.0958
21
1.52723
0
LINE
8
BLACK
6
CONTINUOUS
10
2.0958
20
1.52723
11
2.09409
21
1.52979
0
LINE
8
BLACK
6
CONTINUOUS
10
2.09409
20
1.52979
11
2.09349
21
1.5328
0
LINE
8
BLACK
6
CONTINUOUS
10
2.09349
20
1.5328
11
2.09349
21
1.57217
0
LINE
8
BLACK
6
CONTINUOUS
10
2.09349
20
1.57217
11
2.09409
21
1.57518
0
LINE
8
BLACK
6
CONTINUOUS
10
2.09409
20
1.57518
11
2.0958
21
1.57774
0
LINE
8
BLACK
6
CONTINUOUS
10
2.0958
20
1.57774
11
2.09835
21
1.57944
0
LINE
8
BLACK
6
CONTINUOUS
10
2.09835
20
1.57944
11
2.10137
21
1.58004
0
LINE
8
BLACK
6
CONTINUOUS
10
2.10137
20
1.58004
11
2.25097
21
1.58004
0
LINE
8
BLACK
6
CONTINUOUS
10
2.25097
20
1.58004
11
2.25399
21
1.57944
0
LINE
8
BLACK
6
CONTINUOUS
10
2.24971
20
1.64098
11
2.25226
21
1.63927
0
LINE
8
BLACK
6
CONTINUOUS
10
2.25226
20
1.63927
11
2.25397
21
1.63671
0
LINE
8
BLACK
6
CONTINUOUS
10
2.25397
20
1.63671
11
2.25457
21
1.6337
0
LINE
8
BLACK
6
CONTINUOUS
10
2.25457
20
1.6337
11
2.25457
21
1.59433
0
LINE
8
BLACK
6
CONTINUOUS
10
2.25457
20
1.59433
11
2.25397
21
1.59132
0
LINE
8
BLACK
6
CONTINUOUS
10
2.25397
20
1.59132
11
2.25226
21
1.58876
0
LINE
8
BLACK
6
CONTINUOUS
10
2.25226
20
1.58876
11
2.24971
21
1.58706
0
LINE
8
BLACK
6
CONTINUOUS
10
2.24971
20
1.58706
11
2.24669
21
1.58646
0
LINE
8
BLACK
6
CONTINUOUS
10
2.24669
20
1.58646
11
2.09709
21
1.58646
0
LINE
8
BLACK
6
CONTINUOUS
10
2.09709
20
1.58646
11
2.09407
21
1.58706
0
LINE
8
BLACK
6
CONTINUOUS
10
2.09407
20
1.58706
11
2.09152
21
1.58876
0
LINE
8
BLACK
6
CONTINUOUS
10
2.09152
20
1.58876
11
2.08981
21
1.59132
0
LINE
8
BLACK
6
CONTINUOUS
10
2.08981
20
1.59132
11
2.08921
21
1.59433
0
LINE
8
BLACK
6
CONTINUOUS
10
2.08921
20
1.59433
11
2.08921
21
1.6337
0
LINE
8
BLACK
6
CONTINUOUS
10
2.08921
20
1.6337
11
2.08981
21
1.63671
0
LINE
8
BLACK
6
CONTINUOUS
10
2.08981
20
1.63671
11
2.09152
21
1.63927
0
LINE
8
BLACK
6
CONTINUOUS
10
2.09152
20
1.63927
11
2.09407
21
1.64098
0
LINE
8
BLACK
6
CONTINUOUS
10
2.09407
20
1.64098
11
2.09709
21
1.64157
0
LINE
8
BLACK
6
CONTINUOUS
10
2.09709
20
1.64157
11
2.24669
21
1.64157
0
LINE
8
BLACK
6
CONTINUOUS
10
2.24669
20
1.64157
11
2.24971
21
1.64098
0
LINE
8
BLACK
6
CONTINUOUS
10
2.72215
20
1.64098
11
2.7247
21
1.63927
0
LINE
8
BLACK
6
CONTINUOUS
10
2.7247
20
1.63927
11
2.72641
21
1.63671
0
LINE
8
BLACK
6
CONTINUOUS
10
2.72641
20
1.63671
11
2.72701
21
1.6337
0
LINE
8
BLACK
6
CONTINUOUS
10
2.72701
20
1.6337
11
2.72701
21
1.59433
0
LINE
8
BLACK
6
CONTINUOUS
10
2.72701
20
1.59433
11
2.72641
21
1.59132
0
LINE
8
BLACK
6
CONTINUOUS
10
2.72641
20
1.59132
11
2.7247
21
1.58876
0
LINE
8
BLACK
6
CONTINUOUS
10
2.7247
20
1.58876
11
2.72215
21
1.58706
0
LINE
8
BLACK
6
CONTINUOUS
10
2.72215
20
1.58706
11
2.71913
21
1.58646
0
LINE
8
BLACK
6
CONTINUOUS
10
2.71913
20
1.58646
11
2.56953
21
1.58646
0
LINE
8
BLACK
6
CONTINUOUS
10
2.56953
20
1.58646
11
2.56651
21
1.58706
0
LINE
8
BLACK
6
CONTINUOUS
10
2.56651
20
1.58706
11
2.56396
21
1.58876
0
LINE
8
BLACK
6
CONTINUOUS
10
2.56396
20
1.58876
11
2.56225
21
1.59132
0
LINE
8
BLACK
6
CONTINUOUS
10
2.56225
20
1.59132
11
2.56165
21
1.59433
0
LINE
8
BLACK
6
CONTINUOUS
10
2.56165
20
1.59433
11
2.56165
21
1.6337
0
LINE
8
BLACK
6
CONTINUOUS
10
2.56165
20
1.6337
11
2.56225
21
1.63671
0
LINE
8
BLACK
6
CONTINUOUS
10
2.56225
20
1.63671
11
2.56396
21
1.63927
0
LINE
8
BLACK
6
CONTINUOUS
10
2.56396
20
1.63927
11
2.56651
21
1.64098
0
LINE
8
BLACK
6
CONTINUOUS
10
2.56651
20
1.64098
11
2.56953
21
1.64157
0
LINE
8
BLACK
6
CONTINUOUS
10
2.56953
20
1.64157
11
2.71913
21
1.64157
0
LINE
8
BLACK
6
CONTINUOUS
10
2.71913
20
1.64157
11
2.72215
21
1.64098
0
LINE
8
BLACK
6
CONTINUOUS
10
2.48593
20
1.64098
11
2.48848
21
1.63927
0
LINE
8
BLACK
6
CONTINUOUS
10
2.48848
20
1.63927
11
2.49019
21
1.63671
0
LINE
8
BLACK
6
CONTINUOUS
10
2.49019
20
1.63671
11
2.49079
21
1.6337
0
LINE
8
BLACK
6
CONTINUOUS
10
2.49079
20
1.6337
11
2.49079
21
1.59433
0
LINE
8
BLACK
6
CONTINUOUS
10
2.49079
20
1.59433
11
2.49019
21
1.59132
0
LINE
8
BLACK
6
CONTINUOUS
10
2.49019
20
1.59132
11
2.48848
21
1.58876
0
LINE
8
BLACK
6
CONTINUOUS
10
2.48848
20
1.58876
11
2.48593
21
1.58706
0
LINE
8
BLACK
6
CONTINUOUS
10
2.48593
20
1.58706
11
2.48291
21
1.58646
0
LINE
8
BLACK
6
CONTINUOUS
10
2.48291
20
1.58646
11
2.33331
21
1.58646
0
LINE
8
BLACK
6
CONTINUOUS
10
2.33331
20
1.58646
11
2.33029
21
1.58706
0
LINE
8
BLACK
6
CONTINUOUS
10
2.33029
20
1.58706
11
2.32774
21
1.58876
0
LINE
8
BLACK
6
CONTINUOUS
10
2.32774
20
1.58876
11
2.32603
21
1.59132
0
LINE
8
BLACK
6
CONTINUOUS
10
2.32603
20
1.59132
11
2.32543
21
1.59433
0
LINE
8
BLACK
6
CONTINUOUS
10
2.32543
20
1.59433
11
2.32543
21
1.6337
0
LINE
8
BLACK
6
CONTINUOUS
10
2.32543
20
1.6337
11
2.32603
21
1.63671
0
LINE
8
BLACK
6
CONTINUOUS
10
2.32603
20
1.63671
11
2.32774
21
1.63927
0
LINE
8
BLACK
6
CONTINUOUS
10
2.32774
20
1.63927
11
2.33029
21
1.64098
0
LINE
8
BLACK
6
CONTINUOUS
10
2.33029
20
1.64098
11
2.33331
21
1.64157
0
LINE
8
BLACK
6
CONTINUOUS
10
2.33331
20
1.64157
11
2.48291
21
1.64157
0
LINE
8
BLACK
6
CONTINUOUS
10
2.48291
20
1.64157
11
2.48593
21
1.64098
  0
ENDSEC
  0
EOF
