  0
SECTION
  2
HEADER
  9
$ANGBASE
  50
0.0
  9
$ANGDIR
  70
1
  9
$MEASUREMENT
  70
0
  0
ENDSEC
  0
SECTION
  2
TABLES
  0
TABLE
  2
LTYPE
  70
4
  0
LTYPE
  5
40F
  2
CONTINUOUS
  70
0
  3
Solid line
  72
65
  73
0
  40
0.0
  0
LTYPE
  5
410
  2
DASHDOT
 70
0
  3
Dash Dot ____ _ ____ _
 72
65
 73
4
 40
2.0
 49
1.25
 49
-0.25
 49
0.25
 49
-0.25
  0
LTYPE
  5
411
  2
DASHED
 70
0
  3
Dashed __ __ __ __ __
 72
65
 73
2
 40
0.75
 49
0.5
 49
-0.25
  0
LTYPE
  5
43B
  2
DOTTED
 70
0
  3
Dotted .  .  .  .
 72
65
 73
2
 40
0.2
 49
0.0
 49
-0.2
  0
ENDTAB
  0
TABLE
  2
STYLE
  70
4
  0
STYLE
  2
KICAD
  70
0
  40
0
  41
1
  42
1
  50
0
  71
0
  3
isocp.shx
  0
STYLE
  2
KICADB
  70
0
  40
0
  41
1
  42
1
  50
0
  71
0
  3
isocp.shx
  0
STYLE
  2
KICADI
  70
0
  40
0
  41
1
  42
1
  50
15
  71
0
  3
isocp.shx
  0
STYLE
  2
KICADBI
  70
0
  40
0
  41
1
  42
1
  50
15
  71
0
  3
isocp.shx
  0
ENDTAB
  0
TABLE
  2
LAYER
  70
1
  0
LAYER
  2
BLACK
  70
0
  62
7
  6
CONTINUOUS
  0
ENDTAB
  0
ENDSEC
  0
SECTION
  2
ENTITIES
0
LINE
8
BLACK
6
CONTINUOUS
10
1.87429
20
0.270292
11
1.874
21
0.270988
0
LINE
8
BLACK
6
CONTINUOUS
10
1.874
20
0.270988
11
1.874
21
1.58201
0
LINE
8
BLACK
6
CONTINUOUS
10
1.874
20
1.58201
11
1.87429
21
1.58271
0
LINE
8
BLACK
6
CONTINUOUS
10
1.87429
20
1.58271
11
1.87499
21
1.583
0
LINE
8
BLACK
6
CONTINUOUS
10
1.87499
20
1.583
11
3.18601
21
1.583
0
LINE
8
BLACK
6
CONTINUOUS
10
3.18601
20
1.583
11
3.18671
21
1.58271
0
LINE
8
BLACK
6
CONTINUOUS
10
3.18671
20
1.58271
11
3.187
21
1.58201
0
LINE
8
BLACK
6
CONTINUOUS
10
3.187
20
1.58201
11
3.187
21
0.270988
0
LINE
8
BLACK
6
CONTINUOUS
10
3.187
20
0.270988
11
3.18671
21
0.270292
0
LINE
8
BLACK
6
CONTINUOUS
10
3.18671
20
0.270292
11
3.18601
21
0.270004
0
LINE
8
BLACK
6
CONTINUOUS
10
3.18601
20
0.270004
11
1.87499
21
0.270004
0
LINE
8
BLACK
6
CONTINUOUS
10
1.87499
20
0.270004
11
1.87429
21
0.270292
0
LINE
8
BLACK
6
CONTINUOUS
10
1.87597
20
1.58103
11
1.87597
21
0.271972
0
LINE
8
BLACK
6
CONTINUOUS
10
1.87597
20
0.271972
11
3.18503
21
0.271972
0
LINE
8
BLACK
6
CONTINUOUS
10
3.18503
20
0.271972
11
3.18503
21
1.58103
0
LINE
8
BLACK
6
CONTINUOUS
10
3.18503
20
1.58103
11
1.87597
21
1.58103
0
LINE
8
BLACK
6
CONTINUOUS
10
1.93335
20
0.329347
11
1.93306
21
0.330043
0
LINE
8
BLACK
6
CONTINUOUS
10
1.93306
20
0.330043
11
1.93306
21
1.52296
0
LINE
8
BLACK
6
CONTINUOUS
10
1.93306
20
1.52296
11
1.93335
21
1.52365
0
LINE
8
BLACK
6
CONTINUOUS
10
1.93335
20
1.52365
11
1.93404
21
1.52394
0
LINE
8
BLACK
6
CONTINUOUS
10
1.93404
20
1.52394
11
3.12696
21
1.52394
0
LINE
8
BLACK
6
CONTINUOUS
10
3.12696
20
1.52394
11
3.12765
21
1.52365
0
LINE
8
BLACK
6
CONTINUOUS
10
3.12765
20
1.52365
11
3.12794
21
1.52296
0
LINE
8
BLACK
6
CONTINUOUS
10
3.12794
20
1.52296
11
3.12794
21
0.330043
0
LINE
8
BLACK
6
CONTINUOUS
10
3.12794
20
0.330043
11
3.12765
21
0.329347
0
LINE
8
BLACK
6
CONTINUOUS
10
3.12765
20
0.329347
11
3.12696
21
0.329059
0
LINE
8
BLACK
6
CONTINUOUS
10
3.12696
20
0.329059
11
1.93404
21
0.329059
0
LINE
8
BLACK
6
CONTINUOUS
10
1.93404
20
0.329059
11
1.93335
21
0.329347
0
LINE
8
BLACK
6
CONTINUOUS
10
1.93503
20
1.52197
11
1.93503
21
0.331028
0
LINE
8
BLACK
6
CONTINUOUS
10
1.93503
20
0.331028
11
3.12597
21
0.331028
0
LINE
8
BLACK
6
CONTINUOUS
10
3.12597
20
0.331028
11
3.12597
21
1.52197
0
LINE
8
BLACK
6
CONTINUOUS
10
3.12597
20
1.52197
11
1.93503
21
1.52197
0
LINE
8
BLACK
6
CONTINUOUS
10
1.63379
20
1.58379
11
1.6335
21
1.58449
0
LINE
8
BLACK
6
CONTINUOUS
10
1.6335
20
1.58449
11
1.6335
21
2.89551
0
LINE
8
BLACK
6
CONTINUOUS
10
1.6335
20
2.89551
11
1.63379
21
2.89621
0
LINE
8
BLACK
6
CONTINUOUS
10
1.63379
20
2.89621
11
1.63449
21
2.8965
0
LINE
8
BLACK
6
CONTINUOUS
10
1.63449
20
2.8965
11
2.94551
21
2.8965
0
LINE
8
BLACK
6
CONTINUOUS
10
2.94551
20
2.8965
11
2.94621
21
2.89621
0
LINE
8
BLACK
6
CONTINUOUS
10
2.94621
20
2.89621
11
2.9465
21
2.89551
0
LINE
8
BLACK
6
CONTINUOUS
10
2.9465
20
2.89551
11
2.9465
21
1.58449
0
LINE
8
BLACK
6
CONTINUOUS
10
2.9465
20
1.58449
11
2.94621
21
1.58379
0
LINE
8
BLACK
6
CONTINUOUS
10
2.94621
20
1.58379
11
2.94551
21
1.5835
0
LINE
8
BLACK
6
CONTINUOUS
10
2.94551
20
1.5835
11
1.63449
21
1.5835
0
LINE
8
BLACK
6
CONTINUOUS
10
1.63449
20
1.5835
11
1.63379
21
1.58379
0
LINE
8
BLACK
6
CONTINUOUS
10
1.63547
20
2.89453
11
1.63547
21
1.58547
0
LINE
8
BLACK
6
CONTINUOUS
10
1.63547
20
1.58547
11
2.94453
21
1.58547
0
LINE
8
BLACK
6
CONTINUOUS
10
2.94453
20
1.58547
11
2.94453
21
2.89453
0
LINE
8
BLACK
6
CONTINUOUS
10
2.94453
20
2.89453
11
1.63547
21
2.89453
0
LINE
8
BLACK
6
CONTINUOUS
10
1.69285
20
1.64285
11
1.69256
21
1.64354
0
LINE
8
BLACK
6
CONTINUOUS
10
1.69256
20
1.64354
11
1.69256
21
2.83646
0
LINE
8
BLACK
6
CONTINUOUS
10
1.69256
20
2.83646
11
1.69285
21
2.83715
0
LINE
8
BLACK
6
CONTINUOUS
10
1.69285
20
2.83715
11
1.69354
21
2.83744
0
LINE
8
BLACK
6
CONTINUOUS
10
1.69354
20
2.83744
11
2.88646
21
2.83744
0
LINE
8
BLACK
6
CONTINUOUS
10
2.88646
20
2.83744
11
2.88715
21
2.83715
0
LINE
8
BLACK
6
CONTINUOUS
10
2.88715
20
2.83715
11
2.88744
21
2.83646
0
LINE
8
BLACK
6
CONTINUOUS
10
2.88744
20
2.83646
11
2.88744
21
1.64354
0
LINE
8
BLACK
6
CONTINUOUS
10
2.88744
20
1.64354
11
2.88715
21
1.64285
0
LINE
8
BLACK
6
CONTINUOUS
10
2.88715
20
1.64285
11
2.88646
21
1.64256
0
LINE
8
BLACK
6
CONTINUOUS
10
2.88646
20
1.64256
11
1.69354
21
1.64256
0
LINE
8
BLACK
6
CONTINUOUS
10
1.69354
20
1.64256
11
1.69285
21
1.64285
0
LINE
8
BLACK
6
CONTINUOUS
10
1.69453
20
2.83547
11
1.69453
21
1.64453
0
LINE
8
BLACK
6
CONTINUOUS
10
1.69453
20
1.64453
11
2.88547
21
1.64453
0
LINE
8
BLACK
6
CONTINUOUS
10
2.88547
20
1.64453
11
2.88547
21
2.83547
0
LINE
8
BLACK
6
CONTINUOUS
10
2.88547
20
2.83547
11
1.69453
21
2.83547
  0
ENDSEC
  0
EOF
