  0
SECTION
  2
HEADER
  9
$ANGBASE
  50
0.0
  9
$ANGDIR
  70
1
  9
$MEASUREMENT
  70
0
  0
ENDSEC
  0
SECTION
  2
TABLES
  0
TABLE
  2
LTYPE
  70
4
  0
LTYPE
  5
40F
  2
CONTINUOUS
  70
0
  3
Solid line
  72
65
  73
0
  40
0.0
  0
LTYPE
  5
410
  2
DASHDOT
 70
0
  3
Dash Dot ____ _ ____ _
 72
65
 73
4
 40
2.0
 49
1.25
 49
-0.25
 49
0.25
 49
-0.25
  0
LTYPE
  5
411
  2
DASHED
 70
0
  3
Dashed __ __ __ __ __
 72
65
 73
2
 40
0.75
 49
0.5
 49
-0.25
  0
LTYPE
  5
43B
  2
DOTTED
 70
0
  3
Dotted .  .  .  .
 72
65
 73
2
 40
0.2
 49
0.0
 49
-0.2
  0
ENDTAB
  0
TABLE
  2
STYLE
  70
4
  0
STYLE
  2
KICAD
  70
0
  40
0
  41
1
  42
1
  50
0
  71
0
  3
isocp.shx
  0
STYLE
  2
KICADB
  70
0
  40
0
  41
1
  42
1
  50
0
  71
0
  3
isocp.shx
  0
STYLE
  2
KICADI
  70
0
  40
0
  41
1
  42
1
  50
15
  71
0
  3
isocp.shx
  0
STYLE
  2
KICADBI
  70
0
  40
0
  41
1
  42
1
  50
15
  71
0
  3
isocp.shx
  0
ENDTAB
  0
TABLE
  2
LAYER
  70
1
  0
LAYER
  2
BLACK
  70
0
  62
7
  6
CONTINUOUS
  0
ENDTAB
  0
ENDSEC
  0
SECTION
  2
ENTITIES
0
LINE
8
BLACK
6
CONTINUOUS
10
3.9908514566929134
20
-4.710486338582677
11
3.9908514566929134
21
-4.7498564173228344
0
LINE
8
BLACK
6
CONTINUOUS
10
3.9908514566929134
20
-4.7498564173228344
11
3.9003002755905509
21
-4.7498564173228344
0
LINE
8
BLACK
6
CONTINUOUS
10
3.9003002755905509
20
-4.7498564173228344
11
3.8609301968503935
21
-4.7498564173228344
0
LINE
8
BLACK
6
CONTINUOUS
10
3.8609301968503935
20
-4.7498564173228344
11
3.8609301968503935
21
-4.710486338582677
0
LINE
8
BLACK
6
CONTINUOUS
10
3.8609301968503935
20
-4.710486338582677
11
3.8609301968503935
21
-4.6199351574803149
0
LINE
8
BLACK
6
CONTINUOUS
10
3.8609301968503935
20
-4.6199351574803149
11
3.9003002755905509
21
-4.6199351574803149
0
LINE
8
BLACK
6
CONTINUOUS
10
3.9003002755905509
20
-4.6199351574803149
11
3.9003002755905509
21
-4.710486338582677
0
LINE
8
BLACK
6
CONTINUOUS
10
3.9003002755905509
20
-4.710486338582677
11
3.9908514566929134
21
-4.710486338582677
0
LINE
8
BLACK
6
CONTINUOUS
10
4.2270719291338583
20
-4.7498564173228344
11
4.0774656299212602
21
-4.7498564173228344
0
LINE
8
BLACK
6
CONTINUOUS
10
4.0774656299212602
20
-4.7498564173228344
11
4.0774656299212602
21
-4.710486338582677
0
LINE
8
BLACK
6
CONTINUOUS
10
4.0774656299212602
20
-4.710486338582677
11
4.2270719291338583
21
-4.710486338582677
0
LINE
8
BLACK
6
CONTINUOUS
10
4.2270719291338583
20
-4.710486338582677
11
4.2270719291338583
21
-4.7498564173228344
0
LINE
8
BLACK
6
CONTINUOUS
10
4.4632924015748028
20
-4.7498564173228344
11
4.3136861023622046
21
-4.7498564173228344
0
LINE
8
BLACK
6
CONTINUOUS
10
4.3136861023622046
20
-4.7498564173228344
11
4.3136861023622046
21
-4.710486338582677
0
LINE
8
BLACK
6
CONTINUOUS
10
4.3136861023622046
20
-4.710486338582677
11
4.4632924015748028
21
-4.710486338582677
0
LINE
8
BLACK
6
CONTINUOUS
10
4.4632924015748028
20
-4.710486338582677
11
4.4632924015748028
21
-4.7498564173228344
0
LINE
8
BLACK
6
CONTINUOUS
10
4.6995128740157481
20
-4.7498564173228344
11
4.5499065748031491
21
-4.7498564173228344
0
LINE
8
BLACK
6
CONTINUOUS
10
4.5499065748031491
20
-4.7498564173228344
11
4.5499065748031491
21
-4.710486338582677
0
LINE
8
BLACK
6
CONTINUOUS
10
4.5499065748031491
20
-4.710486338582677
11
4.6995128740157481
21
-4.710486338582677
0
LINE
8
BLACK
6
CONTINUOUS
10
4.6995128740157481
20
-4.710486338582677
11
4.6995128740157481
21
-4.7498564173228344
0
LINE
8
BLACK
6
CONTINUOUS
10
4.9357333464566926
20
-4.7498564173228344
11
4.7861270472440944
21
-4.7498564173228344
0
LINE
8
BLACK
6
CONTINUOUS
10
4.7861270472440944
20
-4.7498564173228344
11
4.7861270472440944
21
-4.710486338582677
0
LINE
8
BLACK
6
CONTINUOUS
10
4.7861270472440944
20
-4.710486338582677
11
4.9357333464566926
21
-4.710486338582677
0
LINE
8
BLACK
6
CONTINUOUS
10
4.9357333464566926
20
-4.710486338582677
11
4.9357333464566926
21
-4.7498564173228344
0
LINE
8
BLACK
6
CONTINUOUS
10
5.1128987007874018
20
-4.710486338582677
11
5.1128987007874018
21
-4.6199351574803149
0
LINE
8
BLACK
6
CONTINUOUS
10
5.1128987007874018
20
-4.6199351574803149
11
5.1522687795275592
21
-4.6199351574803149
0
LINE
8
BLACK
6
CONTINUOUS
10
5.1522687795275592
20
-4.6199351574803149
11
5.1522687795275592
21
-4.710486338582677
0
LINE
8
BLACK
6
CONTINUOUS
10
5.1522687795275592
20
-4.710486338582677
11
5.1522687795275592
21
-4.7498564173228344
0
LINE
8
BLACK
6
CONTINUOUS
10
5.1522687795275592
20
-4.7498564173228344
11
5.1128987007874018
21
-4.7498564173228344
0
LINE
8
BLACK
6
CONTINUOUS
10
5.1128987007874018
20
-4.7498564173228344
11
5.0223475196850389
21
-4.7498564173228344
0
LINE
8
BLACK
6
CONTINUOUS
10
5.0223475196850389
20
-4.7498564173228344
11
5.0223475196850389
21
-4.710486338582677
0
LINE
8
BLACK
6
CONTINUOUS
10
5.0223475196850389
20
-4.710486338582677
11
5.1128987007874018
21
-4.710486338582677
0
LINE
8
BLACK
6
CONTINUOUS
10
3.9003002755905509
20
-4.5333209842519686
11
3.8609301968503935
21
-4.5333209842519686
0
LINE
8
BLACK
6
CONTINUOUS
10
3.8609301968503935
20
-4.5333209842519686
11
3.8609301968503935
21
-4.3837146850393696
0
LINE
8
BLACK
6
CONTINUOUS
10
3.8609301968503935
20
-4.3837146850393696
11
3.9003002755905509
21
-4.3837146850393696
0
LINE
8
BLACK
6
CONTINUOUS
10
3.9003002755905509
20
-4.3837146850393696
11
3.9003002755905509
21
-4.5333209842519686
0
LINE
8
BLACK
6
CONTINUOUS
10
5.1522687795275592
20
-4.5333209842519686
11
5.1128987007874018
21
-4.5333209842519686
0
LINE
8
BLACK
6
CONTINUOUS
10
5.1128987007874018
20
-4.5333209842519686
11
5.1128987007874018
21
-4.3837146850393696
0
LINE
8
BLACK
6
CONTINUOUS
10
5.1128987007874018
20
-4.3837146850393696
11
5.1522687795275592
21
-4.3837146850393696
0
LINE
8
BLACK
6
CONTINUOUS
10
5.1522687795275592
20
-4.3837146850393696
11
5.1522687795275592
21
-4.5333209842519686
0
LINE
8
BLACK
6
CONTINUOUS
10
5.3043514566929133
20
-4.4699863779527558
11
5.3043514566929133
21
-4.5093564566929132
0
LINE
8
BLACK
6
CONTINUOUS
10
5.3043514566929133
20
-4.5093564566929132
11
5.2138002755905513
21
-4.5093564566929132
0
LINE
8
BLACK
6
CONTINUOUS
10
5.2138002755905513
20
-4.5093564566929132
11
5.1744301968503938
21
-4.5093564566929132
0
LINE
8
BLACK
6
CONTINUOUS
10
5.1744301968503938
20
-4.5093564566929132
11
5.1744301968503938
21
-4.4699863779527558
0
LINE
8
BLACK
6
CONTINUOUS
10
5.1744301968503938
20
-4.4699863779527558
11
5.1744301968503938
21
-4.3794351968503937
0
LINE
8
BLACK
6
CONTINUOUS
10
5.1744301968503938
20
-4.3794351968503937
11
5.2138002755905513
21
-4.3794351968503937
0
LINE
8
BLACK
6
CONTINUOUS
10
5.2138002755905513
20
-4.3794351968503937
11
5.2138002755905513
21
-4.4699863779527558
0
LINE
8
BLACK
6
CONTINUOUS
10
5.2138002755905513
20
-4.4699863779527558
11
5.3043514566929133
21
-4.4699863779527558
0
LINE
8
BLACK
6
CONTINUOUS
10
5.5405719291338578
20
-4.5093564566929132
11
5.3909656299212596
21
-4.5093564566929132
0
LINE
8
BLACK
6
CONTINUOUS
10
5.3909656299212596
20
-4.5093564566929132
11
5.3909656299212596
21
-4.4699863779527558
0
LINE
8
BLACK
6
CONTINUOUS
10
5.3909656299212596
20
-4.4699863779527558
11
5.5405719291338578
21
-4.4699863779527558
0
LINE
8
BLACK
6
CONTINUOUS
10
5.5405719291338578
20
-4.4699863779527558
11
5.5405719291338578
21
-4.5093564566929132
0
LINE
8
BLACK
6
CONTINUOUS
10
5.7767924015748031
20
-4.5093564566929132
11
5.627186102362205
21
-4.5093564566929132
0
LINE
8
BLACK
6
CONTINUOUS
10
5.627186102362205
20
-4.5093564566929132
11
5.627186102362205
21
-4.4699863779527558
0
LINE
8
BLACK
6
CONTINUOUS
10
5.627186102362205
20
-4.4699863779527558
11
5.7767924015748031
21
-4.4699863779527558
0
LINE
8
BLACK
6
CONTINUOUS
10
5.7767924015748031
20
-4.4699863779527558
11
5.7767924015748031
21
-4.5093564566929132
0
LINE
8
BLACK
6
CONTINUOUS
10
6.0130128740157476
20
-4.5093564566929132
11
5.8634065748031494
21
-4.5093564566929132
0
LINE
8
BLACK
6
CONTINUOUS
10
5.8634065748031494
20
-4.5093564566929132
11
5.8634065748031494
21
-4.4699863779527558
0
LINE
8
BLACK
6
CONTINUOUS
10
5.8634065748031494
20
-4.4699863779527558
11
6.0130128740157476
21
-4.4699863779527558
0
LINE
8
BLACK
6
CONTINUOUS
10
6.0130128740157476
20
-4.4699863779527558
11
6.0130128740157476
21
-4.5093564566929132
0
LINE
8
BLACK
6
CONTINUOUS
10
6.2492333464566929
20
-4.5093564566929132
11
6.0996270472440948
21
-4.5093564566929132
0
LINE
8
BLACK
6
CONTINUOUS
10
6.0996270472440948
20
-4.5093564566929132
11
6.0996270472440948
21
-4.4699863779527558
0
LINE
8
BLACK
6
CONTINUOUS
10
6.0996270472440948
20
-4.4699863779527558
11
6.2492333464566929
21
-4.4699863779527558
0
LINE
8
BLACK
6
CONTINUOUS
10
6.2492333464566929
20
-4.4699863779527558
11
6.2492333464566929
21
-4.5093564566929132
0
LINE
8
BLACK
6
CONTINUOUS
10
6.4263987007874013
20
-4.4699863779527558
11
6.4263987007874013
21
-4.3794351968503937
0
LINE
8
BLACK
6
CONTINUOUS
10
6.4263987007874013
20
-4.3794351968503937
11
6.4657687795275587
21
-4.3794351968503937
0
LINE
8
BLACK
6
CONTINUOUS
10
6.4657687795275587
20
-4.3794351968503937
11
6.4657687795275587
21
-4.4699863779527558
0
LINE
8
BLACK
6
CONTINUOUS
10
6.4657687795275587
20
-4.4699863779527558
11
6.4657687795275587
21
-4.5093564566929132
0
LINE
8
BLACK
6
CONTINUOUS
10
6.4657687795275587
20
-4.5093564566929132
11
6.4263987007874013
21
-4.5093564566929132
0
LINE
8
BLACK
6
CONTINUOUS
10
6.4263987007874013
20
-4.5093564566929132
11
6.3358475196850392
21
-4.5093564566929132
0
LINE
8
BLACK
6
CONTINUOUS
10
6.3358475196850392
20
-4.5093564566929132
11
6.3358475196850392
21
-4.4699863779527558
0
LINE
8
BLACK
6
CONTINUOUS
10
6.3358475196850392
20
-4.4699863779527558
11
6.4263987007874013
21
-4.4699863779527558
0
LINE
8
BLACK
6
CONTINUOUS
10
3.9003002755905509
20
-4.2971005118110233
11
3.8609301968503935
21
-4.2971005118110233
0
LINE
8
BLACK
6
CONTINUOUS
10
3.8609301968503935
20
-4.2971005118110233
11
3.8609301968503935
21
-4.1474942125984251
0
LINE
8
BLACK
6
CONTINUOUS
10
3.8609301968503935
20
-4.1474942125984251
11
3.9003002755905509
21
-4.1474942125984251
0
LINE
8
BLACK
6
CONTINUOUS
10
3.9003002755905509
20
-4.1474942125984251
11
3.9003002755905509
21
-4.2971005118110233
0
LINE
8
BLACK
6
CONTINUOUS
10
5.1522687795275592
20
-4.2971005118110233
11
5.1128987007874018
21
-4.2971005118110233
0
LINE
8
BLACK
6
CONTINUOUS
10
5.1128987007874018
20
-4.2971005118110233
11
5.1128987007874018
21
-4.1474942125984251
0
LINE
8
BLACK
6
CONTINUOUS
10
5.1128987007874018
20
-4.1474942125984251
11
5.1522687795275592
21
-4.1474942125984251
0
LINE
8
BLACK
6
CONTINUOUS
10
5.1522687795275592
20
-4.1474942125984251
11
5.1522687795275592
21
-4.2971005118110233
0
LINE
8
BLACK
6
CONTINUOUS
10
5.2138002755905513
20
-4.2928210236220474
11
5.1744301968503938
21
-4.2928210236220474
0
LINE
8
BLACK
6
CONTINUOUS
10
5.1744301968503938
20
-4.2928210236220474
11
5.1744301968503938
21
-4.1432147244094484
0
LINE
8
BLACK
6
CONTINUOUS
10
5.1744301968503938
20
-4.1432147244094484
11
5.2138002755905513
21
-4.1432147244094484
0
LINE
8
BLACK
6
CONTINUOUS
10
5.2138002755905513
20
-4.1432147244094484
11
5.2138002755905513
21
-4.2928210236220474
0
LINE
8
BLACK
6
CONTINUOUS
10
6.4657687795275587
20
-4.2928210236220474
11
6.4263987007874013
21
-4.2928210236220474
0
LINE
8
BLACK
6
CONTINUOUS
10
6.4263987007874013
20
-4.2928210236220474
11
6.4263987007874013
21
-4.1432147244094484
0
LINE
8
BLACK
6
CONTINUOUS
10
6.4263987007874013
20
-4.1432147244094484
11
6.4657687795275587
21
-4.1432147244094484
0
LINE
8
BLACK
6
CONTINUOUS
10
6.4657687795275587
20
-4.1432147244094484
11
6.4657687795275587
21
-4.2928210236220474
0
LINE
8
BLACK
6
CONTINUOUS
10
3.9003002755905509
20
-4.0608800393700788
11
3.8609301968503935
21
-4.0608800393700788
0
LINE
8
BLACK
6
CONTINUOUS
10
3.8609301968503935
20
-4.0608800393700788
11
3.8609301968503935
21
-3.9112737401574802
0
LINE
8
BLACK
6
CONTINUOUS
10
3.8609301968503935
20
-3.9112737401574802
11
3.9003002755905509
21
-3.9112737401574802
0
LINE
8
BLACK
6
CONTINUOUS
10
3.9003002755905509
20
-3.9112737401574802
11
3.9003002755905509
21
-4.0608800393700788
0
LINE
8
BLACK
6
CONTINUOUS
10
5.1522687795275592
20
-4.0608800393700788
11
5.1128987007874018
21
-4.0608800393700788
0
LINE
8
BLACK
6
CONTINUOUS
10
5.1128987007874018
20
-4.0608800393700788
11
5.1128987007874018
21
-3.9112737401574802
0
LINE
8
BLACK
6
CONTINUOUS
10
5.1128987007874018
20
-3.9112737401574802
11
5.1522687795275592
21
-3.9112737401574802
0
LINE
8
BLACK
6
CONTINUOUS
10
5.1522687795275592
20
-3.9112737401574802
11
5.1522687795275592
21
-4.0608800393700788
0
LINE
8
BLACK
6
CONTINUOUS
10
5.2138002755905513
20
-4.0566005511811021
11
5.1744301968503938
21
-4.0566005511811021
0
LINE
8
BLACK
6
CONTINUOUS
10
5.1744301968503938
20
-4.0566005511811021
11
5.1744301968503938
21
-3.9069942519685039
0
LINE
8
BLACK
6
CONTINUOUS
10
5.1744301968503938
20
-3.9069942519685039
11
5.2138002755905513
21
-3.9069942519685039
0
LINE
8
BLACK
6
CONTINUOUS
10
5.2138002755905513
20
-3.9069942519685039
11
5.2138002755905513
21
-4.0566005511811021
0
LINE
8
BLACK
6
CONTINUOUS
10
6.4657687795275587
20
-4.0566005511811021
11
6.4263987007874013
21
-4.0566005511811021
0
LINE
8
BLACK
6
CONTINUOUS
10
6.4263987007874013
20
-4.0566005511811021
11
6.4263987007874013
21
-3.9069942519685039
0
LINE
8
BLACK
6
CONTINUOUS
10
6.4263987007874013
20
-3.9069942519685039
11
6.4657687795275587
21
-3.9069942519685039
0
LINE
8
BLACK
6
CONTINUOUS
10
6.4657687795275587
20
-3.9069942519685039
11
6.4657687795275587
21
-4.0566005511811021
0
LINE
8
BLACK
6
CONTINUOUS
10
3.9003002755905509
20
-3.8246595669291339
11
3.8609301968503935
21
-3.8246595669291339
0
LINE
8
BLACK
6
CONTINUOUS
10
3.8609301968503935
20
-3.8246595669291339
11
3.8609301968503935
21
-3.6750532677165353
0
LINE
8
BLACK
6
CONTINUOUS
10
3.8609301968503935
20
-3.6750532677165353
11
3.9003002755905509
21
-3.6750532677165353
0
LINE
8
BLACK
6
CONTINUOUS
10
3.9003002755905509
20
-3.6750532677165353
11
3.9003002755905509
21
-3.8246595669291339
0
LINE
8
BLACK
6
CONTINUOUS
10
5.1522687795275592
20
-3.8246595669291339
11
5.1128987007874018
21
-3.8246595669291339
0
LINE
8
BLACK
6
CONTINUOUS
10
5.1128987007874018
20
-3.8246595669291339
11
5.1128987007874018
21
-3.6750532677165353
0
LINE
8
BLACK
6
CONTINUOUS
10
5.1128987007874018
20
-3.6750532677165353
11
5.1522687795275592
21
-3.6750532677165353
0
LINE
8
BLACK
6
CONTINUOUS
10
5.1522687795275592
20
-3.6750532677165353
11
5.1522687795275592
21
-3.8246595669291339
0
LINE
8
BLACK
6
CONTINUOUS
10
5.2138002755905513
20
-3.8203800787401576
11
5.1744301968503938
21
-3.8203800787401576
0
LINE
8
BLACK
6
CONTINUOUS
10
5.1744301968503938
20
-3.8203800787401576
11
5.1744301968503938
21
-3.670773779527559
0
LINE
8
BLACK
6
CONTINUOUS
10
5.1744301968503938
20
-3.670773779527559
11
5.2138002755905513
21
-3.670773779527559
0
LINE
8
BLACK
6
CONTINUOUS
10
5.2138002755905513
20
-3.670773779527559
11
5.2138002755905513
21
-3.8203800787401576
0
LINE
8
BLACK
6
CONTINUOUS
10
6.4657687795275587
20
-3.8203800787401576
11
6.4263987007874013
21
-3.8203800787401576
0
LINE
8
BLACK
6
CONTINUOUS
10
6.4263987007874013
20
-3.8203800787401576
11
6.4263987007874013
21
-3.670773779527559
0
LINE
8
BLACK
6
CONTINUOUS
10
6.4263987007874013
20
-3.670773779527559
11
6.4657687795275587
21
-3.670773779527559
0
LINE
8
BLACK
6
CONTINUOUS
10
6.4657687795275587
20
-3.670773779527559
11
6.4657687795275587
21
-3.8203800787401576
0
LINE
8
BLACK
6
CONTINUOUS
10
3.9003002755905509
20
-3.588439094488189
11
3.8609301968503935
21
-3.588439094488189
0
LINE
8
BLACK
6
CONTINUOUS
10
3.8609301968503935
20
-3.588439094488189
11
3.8609301968503935
21
-3.4978879133858265
0
LINE
8
BLACK
6
CONTINUOUS
10
3.8609301968503935
20
-3.4978879133858265
11
3.8609301968503935
21
-3.4585178346456691
0
LINE
8
BLACK
6
CONTINUOUS
10
3.8609301968503935
20
-3.4585178346456691
11
3.9003002755905509
21
-3.4585178346456691
0
LINE
8
BLACK
6
CONTINUOUS
10
3.9003002755905509
20
-3.4585178346456691
11
3.9908514566929134
21
-3.4585178346456691
0
LINE
8
BLACK
6
CONTINUOUS
10
3.9908514566929134
20
-3.4585178346456691
11
3.9908514566929134
21
-3.4978879133858265
0
LINE
8
BLACK
6
CONTINUOUS
10
3.9908514566929134
20
-3.4978879133858265
11
3.9003002755905509
21
-3.4978879133858265
0
LINE
8
BLACK
6
CONTINUOUS
10
3.9003002755905509
20
-3.4978879133858265
11
3.9003002755905509
21
-3.588439094488189
0
LINE
8
BLACK
6
CONTINUOUS
10
5.1522687795275592
20
-3.588439094488189
11
5.1128987007874018
21
-3.588439094488189
0
LINE
8
BLACK
6
CONTINUOUS
10
5.1128987007874018
20
-3.588439094488189
11
5.1128987007874018
21
-3.4978879133858265
0
LINE
8
BLACK
6
CONTINUOUS
10
5.1128987007874018
20
-3.4978879133858265
11
5.0223475196850389
21
-3.4978879133858265
0
LINE
8
BLACK
6
CONTINUOUS
10
5.0223475196850389
20
-3.4978879133858265
11
5.0223475196850389
21
-3.4585178346456691
0
LINE
8
BLACK
6
CONTINUOUS
10
5.0223475196850389
20
-3.4585178346456691
11
5.1128987007874018
21
-3.4585178346456691
0
LINE
8
BLACK
6
CONTINUOUS
10
5.1128987007874018
20
-3.4585178346456691
11
5.1522687795275592
21
-3.4585178346456691
0
LINE
8
BLACK
6
CONTINUOUS
10
5.1522687795275592
20
-3.4585178346456691
11
5.1522687795275592
21
-3.4978879133858265
0
LINE
8
BLACK
6
CONTINUOUS
10
5.1522687795275592
20
-3.4978879133858265
11
5.1522687795275592
21
-3.588439094488189
0
LINE
8
BLACK
6
CONTINUOUS
10
5.2138002755905513
20
-3.5841596062992127
11
5.1744301968503938
21
-3.5841596062992127
0
LINE
8
BLACK
6
CONTINUOUS
10
5.1744301968503938
20
-3.5841596062992127
11
5.1744301968503938
21
-3.4345533070866141
0
LINE
8
BLACK
6
CONTINUOUS
10
5.1744301968503938
20
-3.4345533070866141
11
5.2138002755905513
21
-3.4345533070866141
0
LINE
8
BLACK
6
CONTINUOUS
10
5.2138002755905513
20
-3.4345533070866141
11
5.2138002755905513
21
-3.5841596062992127
0
LINE
8
BLACK
6
CONTINUOUS
10
6.4657687795275587
20
-3.5841596062992127
11
6.4263987007874013
21
-3.5841596062992127
0
LINE
8
BLACK
6
CONTINUOUS
10
6.4263987007874013
20
-3.5841596062992127
11
6.4263987007874013
21
-3.4345533070866141
0
LINE
8
BLACK
6
CONTINUOUS
10
6.4263987007874013
20
-3.4345533070866141
11
6.4657687795275587
21
-3.4345533070866141
0
LINE
8
BLACK
6
CONTINUOUS
10
6.4657687795275587
20
-3.4345533070866141
11
6.4657687795275587
21
-3.5841596062992127
0
LINE
8
BLACK
6
CONTINUOUS
10
4.2270719291338583
20
-3.4978879133858265
11
4.0774656299212602
21
-3.4978879133858265
0
LINE
8
BLACK
6
CONTINUOUS
10
4.0774656299212602
20
-3.4978879133858265
11
4.0774656299212602
21
-3.4585178346456691
0
LINE
8
BLACK
6
CONTINUOUS
10
4.0774656299212602
20
-3.4585178346456691
11
4.2270719291338583
21
-3.4585178346456691
0
LINE
8
BLACK
6
CONTINUOUS
10
4.2270719291338583
20
-3.4585178346456691
11
4.2270719291338583
21
-3.4978879133858265
0
LINE
8
BLACK
6
CONTINUOUS
10
4.4632924015748028
20
-3.4978879133858265
11
4.3136861023622046
21
-3.4978879133858265
0
LINE
8
BLACK
6
CONTINUOUS
10
4.3136861023622046
20
-3.4978879133858265
11
4.3136861023622046
21
-3.4585178346456691
0
LINE
8
BLACK
6
CONTINUOUS
10
4.3136861023622046
20
-3.4585178346456691
11
4.4632924015748028
21
-3.4585178346456691
0
LINE
8
BLACK
6
CONTINUOUS
10
4.4632924015748028
20
-3.4585178346456691
11
4.4632924015748028
21
-3.4978879133858265
0
LINE
8
BLACK
6
CONTINUOUS
10
4.6995128740157481
20
-3.4978879133858265
11
4.5499065748031491
21
-3.4978879133858265
0
LINE
8
BLACK
6
CONTINUOUS
10
4.5499065748031491
20
-3.4978879133858265
11
4.5499065748031491
21
-3.4585178346456691
0
LINE
8
BLACK
6
CONTINUOUS
10
4.5499065748031491
20
-3.4585178346456691
11
4.6995128740157481
21
-3.4585178346456691
0
LINE
8
BLACK
6
CONTINUOUS
10
4.6995128740157481
20
-3.4585178346456691
11
4.6995128740157481
21
-3.4978879133858265
0
LINE
8
BLACK
6
CONTINUOUS
10
4.9357333464566926
20
-3.4978879133858265
11
4.7861270472440944
21
-3.4978879133858265
0
LINE
8
BLACK
6
CONTINUOUS
10
4.7861270472440944
20
-3.4978879133858265
11
4.7861270472440944
21
-3.4585178346456691
0
LINE
8
BLACK
6
CONTINUOUS
10
4.7861270472440944
20
-3.4585178346456691
11
4.9357333464566926
21
-3.4585178346456691
0
LINE
8
BLACK
6
CONTINUOUS
10
4.9357333464566926
20
-3.4585178346456691
11
4.9357333464566926
21
-3.4978879133858265
0
LINE
8
BLACK
6
CONTINUOUS
10
5.2138002755905513
20
-3.3479391338582678
11
5.1744301968503938
21
-3.3479391338582678
0
LINE
8
BLACK
6
CONTINUOUS
10
5.1744301968503938
20
-3.3479391338582678
11
5.1744301968503938
21
-3.2573879527559053
0
LINE
8
BLACK
6
CONTINUOUS
10
5.1744301968503938
20
-3.2573879527559053
11
5.1744301968503938
21
-3.2180178740157479
0
LINE
8
BLACK
6
CONTINUOUS
10
5.1744301968503938
20
-3.2180178740157479
11
5.2138002755905513
21
-3.2180178740157479
0
LINE
8
BLACK
6
CONTINUOUS
10
5.2138002755905513
20
-3.2180178740157479
11
5.3043514566929133
21
-3.2180178740157479
0
LINE
8
BLACK
6
CONTINUOUS
10
5.3043514566929133
20
-3.2180178740157479
11
5.3043514566929133
21
-3.2573879527559053
0
LINE
8
BLACK
6
CONTINUOUS
10
5.3043514566929133
20
-3.2573879527559053
11
5.2138002755905513
21
-3.2573879527559053
0
LINE
8
BLACK
6
CONTINUOUS
10
5.2138002755905513
20
-3.2573879527559053
11
5.2138002755905513
21
-3.3479391338582678
0
LINE
8
BLACK
6
CONTINUOUS
10
6.4657687795275587
20
-3.3479391338582678
11
6.4263987007874013
21
-3.3479391338582678
0
LINE
8
BLACK
6
CONTINUOUS
10
6.4263987007874013
20
-3.3479391338582678
11
6.4263987007874013
21
-3.2573879527559053
0
LINE
8
BLACK
6
CONTINUOUS
10
6.4263987007874013
20
-3.2573879527559053
11
6.3358475196850392
21
-3.2573879527559053
0
LINE
8
BLACK
6
CONTINUOUS
10
6.3358475196850392
20
-3.2573879527559053
11
6.3358475196850392
21
-3.2180178740157479
0
LINE
8
BLACK
6
CONTINUOUS
10
6.3358475196850392
20
-3.2180178740157479
11
6.4263987007874013
21
-3.2180178740157479
0
LINE
8
BLACK
6
CONTINUOUS
10
6.4263987007874013
20
-3.2180178740157479
11
6.4657687795275587
21
-3.2180178740157479
0
LINE
8
BLACK
6
CONTINUOUS
10
6.4657687795275587
20
-3.2180178740157479
11
6.4657687795275587
21
-3.2573879527559053
0
LINE
8
BLACK
6
CONTINUOUS
10
6.4657687795275587
20
-3.2573879527559053
11
6.4657687795275587
21
-3.3479391338582678
0
LINE
8
BLACK
6
CONTINUOUS
10
5.5405719291338578
20
-3.2573879527559053
11
5.3909656299212596
21
-3.2573879527559053
0
LINE
8
BLACK
6
CONTINUOUS
10
5.3909656299212596
20
-3.2573879527559053
11
5.3909656299212596
21
-3.2180178740157479
0
LINE
8
BLACK
6
CONTINUOUS
10
5.3909656299212596
20
-3.2180178740157479
11
5.5405719291338578
21
-3.2180178740157479
0
LINE
8
BLACK
6
CONTINUOUS
10
5.5405719291338578
20
-3.2180178740157479
11
5.5405719291338578
21
-3.2573879527559053
0
LINE
8
BLACK
6
CONTINUOUS
10
5.7767924015748031
20
-3.2573879527559053
11
5.627186102362205
21
-3.2573879527559053
0
LINE
8
BLACK
6
CONTINUOUS
10
5.627186102362205
20
-3.2573879527559053
11
5.627186102362205
21
-3.2180178740157479
0
LINE
8
BLACK
6
CONTINUOUS
10
5.627186102362205
20
-3.2180178740157479
11
5.7767924015748031
21
-3.2180178740157479
0
LINE
8
BLACK
6
CONTINUOUS
10
5.7767924015748031
20
-3.2180178740157479
11
5.7767924015748031
21
-3.2573879527559053
0
LINE
8
BLACK
6
CONTINUOUS
10
6.0130128740157476
20
-3.2573879527559053
11
5.8634065748031494
21
-3.2573879527559053
0
LINE
8
BLACK
6
CONTINUOUS
10
5.8634065748031494
20
-3.2573879527559053
11
5.8634065748031494
21
-3.2180178740157479
0
LINE
8
BLACK
6
CONTINUOUS
10
5.8634065748031494
20
-3.2180178740157479
11
6.0130128740157476
21
-3.2180178740157479
0
LINE
8
BLACK
6
CONTINUOUS
10
6.0130128740157476
20
-3.2180178740157479
11
6.0130128740157476
21
-3.2573879527559053
0
LINE
8
BLACK
6
CONTINUOUS
10
6.2492333464566929
20
-3.2573879527559053
11
6.0996270472440948
21
-3.2573879527559053
0
LINE
8
BLACK
6
CONTINUOUS
10
6.0996270472440948
20
-3.2573879527559053
11
6.0996270472440948
21
-3.2180178740157479
0
LINE
8
BLACK
6
CONTINUOUS
10
6.0996270472440948
20
-3.2180178740157479
11
6.2492333464566929
21
-3.2180178740157479
0
LINE
8
BLACK
6
CONTINUOUS
10
6.2492333464566929
20
-3.2180178740157479
11
6.2492333464566929
21
-3.2573879527559053
  0
ENDSEC
  0
EOF
