  0
SECTION
  2
HEADER
  9
$ANGBASE
  50
0.0
  9
$ANGDIR
  70
1
  9
$MEASUREMENT
  70
0
  0
ENDSEC
  0
SECTION
  2
TABLES
  0
TABLE
  2
LTYPE
  70
4
  0
LTYPE
  5
40F
  2
CONTINUOUS
  70
0
  3
Solid line
  72
65
  73
0
  40
0.0
  0
LTYPE
  5
410
  2
DASHDOT
 70
0
  3
Dash Dot ____ _ ____ _
 72
65
 73
4
 40
2.0
 49
1.25
 49
-0.25
 49
0.25
 49
-0.25
  0
LTYPE
  5
411
  2
DASHED
 70
0
  3
Dashed __ __ __ __ __
 72
65
 73
2
 40
0.75
 49
0.5
 49
-0.25
  0
LTYPE
  5
43B
  2
DOTTED
 70
0
  3
Dotted .  .  .  .
 72
65
 73
2
 40
0.2
 49
0.0
 49
-0.2
  0
ENDTAB
  0
TABLE
  2
STYLE
  70
4
  0
STYLE
  2
KICAD
  70
0
  40
0
  41
1
  42
1
  50
0
  71
0
  3
isocp.shx
  0
STYLE
  2
KICADB
  70
0
  40
0
  41
1
  42
1
  50
0
  71
0
  3
isocp.shx
  0
STYLE
  2
KICADI
  70
0
  40
0
  41
1
  42
1
  50
15
  71
0
  3
isocp.shx
  0
STYLE
  2
KICADBI
  70
0
  40
0
  41
1
  42
1
  50
15
  71
0
  3
isocp.shx
  0
ENDTAB
  0
TABLE
  2
LAYER
  70
1
  0
LAYER
  2
BLACK
  70
0
  62
7
  6
CONTINUOUS
  0
ENDTAB
  0
ENDSEC
  0
SECTION
  2
ENTITIES
0
LINE
8
BLACK
6
CONTINUOUS
10
5.103056181102362
20
-3.5067461811023621
11
5.1037521653543303
21
-3.5070344488188976
0
LINE
8
BLACK
6
CONTINUOUS
10
5.1037521653543303
20
-3.5070344488188976
11
5.1040404330708657
21
-3.5077304330708658
0
LINE
8
BLACK
6
CONTINUOUS
10
5.1040404330708657
20
-3.5077304330708658
11
5.1040404330708657
21
-4.700643818897638
0
LINE
8
BLACK
6
CONTINUOUS
10
5.1040404330708657
20
-4.700643818897638
11
5.1037521653543303
21
-4.7013398031496063
0
LINE
8
BLACK
6
CONTINUOUS
10
5.1037521653543303
20
-4.7013398031496063
11
5.103056181102362
21
-4.7016280708661418
0
LINE
8
BLACK
6
CONTINUOUS
10
5.103056181102362
20
-4.7016280708661418
11
3.9101427952755903
21
-4.7016280708661418
0
LINE
8
BLACK
6
CONTINUOUS
10
3.9101427952755903
20
-4.7016280708661418
11
3.909446811023622
21
-4.7013398031496063
0
LINE
8
BLACK
6
CONTINUOUS
10
3.909446811023622
20
-4.7013398031496063
11
3.9091585433070866
21
-4.700643818897638
0
LINE
8
BLACK
6
CONTINUOUS
10
3.9091585433070866
20
-4.700643818897638
11
3.9091585433070866
21
-3.5077304330708658
0
LINE
8
BLACK
6
CONTINUOUS
10
3.9091585433070866
20
-3.5077304330708658
11
3.909446811023622
21
-3.5070344488188976
0
LINE
8
BLACK
6
CONTINUOUS
10
3.909446811023622
20
-3.5070344488188976
11
3.9101427952755903
21
-3.5067461811023621
0
LINE
8
BLACK
6
CONTINUOUS
10
3.9101427952755903
20
-3.5067461811023621
11
5.103056181102362
21
-3.5067461811023621
0
LINE
8
BLACK
6
CONTINUOUS
10
3.9111270472440944
20
-3.50871468503937
11
3.9111270472440944
21
-4.6996595669291334
0
LINE
8
BLACK
6
CONTINUOUS
10
3.9111270472440944
20
-4.6996595669291334
11
5.1020719291338583
21
-4.6996595669291334
0
LINE
8
BLACK
6
CONTINUOUS
10
5.1020719291338583
20
-4.6996595669291334
11
5.1020719291338583
21
-3.50871468503937
0
LINE
8
BLACK
6
CONTINUOUS
10
5.1020719291338583
20
-3.50871468503937
11
3.9111270472440944
21
-3.50871468503937
0
LINE
8
BLACK
6
CONTINUOUS
10
5.1621112992125981
20
-3.447691062992126
11
5.1628072834645664
21
-3.4479793307086615
0
LINE
8
BLACK
6
CONTINUOUS
10
5.1628072834645664
20
-3.4479793307086615
11
5.1630955511811019
21
-3.4486753149606297
0
LINE
8
BLACK
6
CONTINUOUS
10
5.1630955511811019
20
-3.4486753149606297
11
5.1630955511811019
21
-4.7596989370078742
0
LINE
8
BLACK
6
CONTINUOUS
10
5.1630955511811019
20
-4.7596989370078742
11
5.1628072834645664
21
-4.7603949212598424
0
LINE
8
BLACK
6
CONTINUOUS
10
5.1628072834645664
20
-4.7603949212598424
11
5.1621112992125981
21
-4.7606831889763779
0
LINE
8
BLACK
6
CONTINUOUS
10
5.1621112992125981
20
-4.7606831889763779
11
3.8510876771653542
21
-4.7606831889763779
0
LINE
8
BLACK
6
CONTINUOUS
10
3.8510876771653542
20
-4.7606831889763779
11
3.8503916929133859
21
-4.7603949212598424
0
LINE
8
BLACK
6
CONTINUOUS
10
3.8503916929133859
20
-4.7603949212598424
11
3.8501034251968504
21
-4.7596989370078742
0
LINE
8
BLACK
6
CONTINUOUS
10
3.8501034251968504
20
-4.7596989370078742
11
3.8501034251968504
21
-3.4486753149606297
0
LINE
8
BLACK
6
CONTINUOUS
10
3.8501034251968504
20
-3.4486753149606297
11
3.8503916929133859
21
-3.4479793307086615
0
LINE
8
BLACK
6
CONTINUOUS
10
3.8503916929133859
20
-3.4479793307086615
11
3.8510876771653542
21
-3.447691062992126
0
LINE
8
BLACK
6
CONTINUOUS
10
3.8510876771653542
20
-3.447691062992126
11
5.1621112992125981
21
-3.447691062992126
0
LINE
8
BLACK
6
CONTINUOUS
10
3.8520719291338583
20
-3.4496595669291339
11
3.8520719291338583
21
-4.7587146850393696
0
LINE
8
BLACK
6
CONTINUOUS
10
3.8520719291338583
20
-4.7587146850393696
11
5.1611270472440944
21
-4.7587146850393696
0
LINE
8
BLACK
6
CONTINUOUS
10
5.1611270472440944
20
-4.7587146850393696
11
5.1611270472440944
21
-3.4496595669291339
0
LINE
8
BLACK
6
CONTINUOUS
10
5.1611270472440944
20
-3.4496595669291339
11
3.8520719291338583
21
-3.4496595669291339
0
LINE
8
BLACK
6
CONTINUOUS
10
6.4165561811023624
20
-3.266246220472441
11
6.4172521653543306
21
-3.2665344881889764
0
LINE
8
BLACK
6
CONTINUOUS
10
6.4172521653543306
20
-3.2665344881889764
11
6.4175404330708661
21
-3.2672304724409447
0
LINE
8
BLACK
6
CONTINUOUS
10
6.4175404330708661
20
-3.2672304724409447
11
6.4175404330708661
21
-4.4601438582677169
0
LINE
8
BLACK
6
CONTINUOUS
10
6.4175404330708661
20
-4.4601438582677169
11
6.4172521653543306
21
-4.4608398425196851
0
LINE
8
BLACK
6
CONTINUOUS
10
6.4172521653543306
20
-4.4608398425196851
11
6.4165561811023624
21
-4.4611281102362206
0
LINE
8
BLACK
6
CONTINUOUS
10
6.4165561811023624
20
-4.4611281102362206
11
5.2236427952755902
21
-4.4611281102362206
0
LINE
8
BLACK
6
CONTINUOUS
10
5.2236427952755902
20
-4.4611281102362206
11
5.2229468110236219
21
-4.4608398425196851
0
LINE
8
BLACK
6
CONTINUOUS
10
5.2229468110236219
20
-4.4608398425196851
11
5.2226585433070865
21
-4.4601438582677169
0
LINE
8
BLACK
6
CONTINUOUS
10
5.2226585433070865
20
-4.4601438582677169
11
5.2226585433070865
21
-3.2672304724409447
0
LINE
8
BLACK
6
CONTINUOUS
10
5.2226585433070865
20
-3.2672304724409447
11
5.2229468110236219
21
-3.2665344881889764
0
LINE
8
BLACK
6
CONTINUOUS
10
5.2229468110236219
20
-3.2665344881889764
11
5.2236427952755902
21
-3.266246220472441
0
LINE
8
BLACK
6
CONTINUOUS
10
5.2236427952755902
20
-3.266246220472441
11
6.4165561811023624
21
-3.266246220472441
0
LINE
8
BLACK
6
CONTINUOUS
10
5.2246270472440948
20
-3.2682147244094488
11
5.2246270472440948
21
-4.4591596062992123
0
LINE
8
BLACK
6
CONTINUOUS
10
5.2246270472440948
20
-4.4591596062992123
11
6.4155719291338578
21
-4.4591596062992123
0
LINE
8
BLACK
6
CONTINUOUS
10
6.4155719291338578
20
-4.4591596062992123
11
6.4155719291338578
21
-3.2682147244094488
0
LINE
8
BLACK
6
CONTINUOUS
10
6.4155719291338578
20
-3.2682147244094488
11
5.2246270472440948
21
-3.2682147244094488
0
LINE
8
BLACK
6
CONTINUOUS
10
6.4756112992125985
20
-3.2071911023622048
11
6.4763072834645667
21
-3.2074793700787403
0
LINE
8
BLACK
6
CONTINUOUS
10
6.4763072834645667
20
-3.2074793700787403
11
6.4765955511811022
21
-3.2081753543307086
0
LINE
8
BLACK
6
CONTINUOUS
10
6.4765955511811022
20
-3.2081753543307086
11
6.4765955511811022
21
-4.519198976377953
0
LINE
8
BLACK
6
CONTINUOUS
10
6.4765955511811022
20
-4.519198976377953
11
6.4763072834645667
21
-4.5198949606299212
0
LINE
8
BLACK
6
CONTINUOUS
10
6.4763072834645667
20
-4.5198949606299212
11
6.4756112992125985
21
-4.5201832283464567
0
LINE
8
BLACK
6
CONTINUOUS
10
6.4756112992125985
20
-4.5201832283464567
11
5.1645876771653541
21
-4.5201832283464567
0
LINE
8
BLACK
6
CONTINUOUS
10
5.1645876771653541
20
-4.5201832283464567
11
5.1638916929133858
21
-4.5198949606299212
0
LINE
8
BLACK
6
CONTINUOUS
10
5.1638916929133858
20
-4.5198949606299212
11
5.1636034251968503
21
-4.519198976377953
0
LINE
8
BLACK
6
CONTINUOUS
10
5.1636034251968503
20
-4.519198976377953
11
5.1636034251968503
21
-3.2081753543307086
0
LINE
8
BLACK
6
CONTINUOUS
10
5.1636034251968503
20
-3.2081753543307086
11
5.1638916929133858
21
-3.2074793700787403
0
LINE
8
BLACK
6
CONTINUOUS
10
5.1638916929133858
20
-3.2074793700787403
11
5.1645876771653541
21
-3.2071911023622048
0
LINE
8
BLACK
6
CONTINUOUS
10
5.1645876771653541
20
-3.2071911023622048
11
6.4756112992125985
21
-3.2071911023622048
0
LINE
8
BLACK
6
CONTINUOUS
10
5.1655719291338578
20
-3.2091596062992127
11
5.1655719291338578
21
-4.5182147244094484
0
LINE
8
BLACK
6
CONTINUOUS
10
5.1655719291338578
20
-4.5182147244094484
11
6.4746270472440948
21
-4.5182147244094484
0
LINE
8
BLACK
6
CONTINUOUS
10
6.4746270472440948
20
-4.5182147244094484
11
6.4746270472440948
21
-3.2091596062992127
0
LINE
8
BLACK
6
CONTINUOUS
10
6.4746270472440948
20
-3.2091596062992127
11
5.1655719291338578
21
-3.2091596062992127
  0
ENDSEC
  0
EOF
