  0
SECTION
  2
HEADER
  9
$ANGBASE
  50
0.0
  9
$ANGDIR
  70
1
  9
$MEASUREMENT
  70
0
  0
ENDSEC
  0
SECTION
  2
TABLES
  0
TABLE
  2
LTYPE
  70
4
  0
LTYPE
  5
40F
  2
CONTINUOUS
  70
0
  3
Solid line
  72
65
  73
0
  40
0.0
  0
LTYPE
  5
410
  2
DASHDOT
 70
0
  3
Dash Dot ____ _ ____ _
 72
65
 73
4
 40
2.0
 49
1.25
 49
-0.25
 49
0.25
 49
-0.25
  0
LTYPE
  5
411
  2
DASHED
 70
0
  3
Dashed __ __ __ __ __
 72
65
 73
2
 40
0.75
 49
0.5
 49
-0.25
  0
LTYPE
  5
43B
  2
DOTTED
 70
0
  3
Dotted .  .  .  .
 72
65
 73
2
 40
0.2
 49
0.0
 49
-0.2
  0
ENDTAB
  0
TABLE
  2
STYLE
  70
4
  0
STYLE
  2
KICAD
  70
0
  40
0
  41
1
  42
1
  50
0
  71
0
  3
isocp.shx
  0
STYLE
  2
KICADB
  70
0
  40
0
  41
1
  42
1
  50
0
  71
0
  3
isocp.shx
  0
STYLE
  2
KICADI
  70
0
  40
0
  41
1
  42
1
  50
15
  71
0
  3
isocp.shx
  0
STYLE
  2
KICADBI
  70
0
  40
0
  41
1
  42
1
  50
15
  71
0
  3
isocp.shx
  0
ENDTAB
  0
TABLE
  2
LAYER
  70
1
  0
LAYER
  2
BLACK
  70
0
  62
7
  6
CONTINUOUS
  0
ENDTAB
  0
ENDSEC
  0
SECTION
  2
ENTITIES
0
LINE
8
BLACK
6
CONTINUOUS
10
2.5113
20
0.504465
11
2.51101
21
0.505161
0
LINE
8
BLACK
6
CONTINUOUS
10
2.51101
20
0.505161
11
2.51101
21
0.800437
0
LINE
8
BLACK
6
CONTINUOUS
10
2.51101
20
0.800437
11
2.5113
21
0.801133
0
LINE
8
BLACK
6
CONTINUOUS
10
2.5113
20
0.801133
11
2.512
21
0.801421
0
LINE
8
BLACK
6
CONTINUOUS
10
2.512
20
0.801421
11
2.72853
21
0.801421
0
LINE
8
BLACK
6
CONTINUOUS
10
2.72853
20
0.801421
11
2.72923
21
0.801133
0
LINE
8
BLACK
6
CONTINUOUS
10
2.72923
20
0.801133
11
2.72952
21
0.800437
0
LINE
8
BLACK
6
CONTINUOUS
10
2.72952
20
0.800437
11
2.72952
21
0.505161
0
LINE
8
BLACK
6
CONTINUOUS
10
2.72952
20
0.505161
11
2.72923
21
0.504465
0
LINE
8
BLACK
6
CONTINUOUS
10
2.72923
20
0.504465
11
2.72853
21
0.504177
0
LINE
8
BLACK
6
CONTINUOUS
10
2.72853
20
0.504177
11
2.512
21
0.504177
0
LINE
8
BLACK
6
CONTINUOUS
10
2.512
20
0.504177
11
2.5113
21
0.504465
0
LINE
8
BLACK
6
CONTINUOUS
10
2.51298
20
0.799453
11
2.51298
21
0.506146
0
LINE
8
BLACK
6
CONTINUOUS
10
2.51298
20
0.506146
11
2.72755
21
0.506146
0
LINE
8
BLACK
6
CONTINUOUS
10
2.72755
20
0.506146
11
2.72755
21
0.799453
0
LINE
8
BLACK
6
CONTINUOUS
10
2.72755
20
0.799453
11
2.51298
21
0.799453
0
LINE
8
BLACK
6
CONTINUOUS
10
2.23067
20
0.785804
11
2.23038
21
0.7865
0
LINE
8
BLACK
6
CONTINUOUS
10
2.23038
20
0.7865
11
2.23038
21
0.920358
0
LINE
8
BLACK
6
CONTINUOUS
10
2.23038
20
0.920358
11
2.23067
21
0.921054
0
LINE
8
BLACK
6
CONTINUOUS
10
2.23067
20
0.921054
11
2.23137
21
0.921343
0
LINE
8
BLACK
6
CONTINUOUS
10
2.23137
20
0.921343
11
2.36916
21
0.921343
0
LINE
8
BLACK
6
CONTINUOUS
10
2.36916
20
0.921343
11
2.36986
21
0.921054
0
LINE
8
BLACK
6
CONTINUOUS
10
2.36986
20
0.921054
11
2.37015
21
0.920358
0
LINE
8
BLACK
6
CONTINUOUS
10
2.37015
20
0.920358
11
2.37015
21
0.7865
0
LINE
8
BLACK
6
CONTINUOUS
10
2.37015
20
0.7865
11
2.36986
21
0.785804
0
LINE
8
BLACK
6
CONTINUOUS
10
2.36986
20
0.785804
11
2.36916
21
0.785516
0
LINE
8
BLACK
6
CONTINUOUS
10
2.36916
20
0.785516
11
2.23137
21
0.785516
0
LINE
8
BLACK
6
CONTINUOUS
10
2.23137
20
0.785516
11
2.23067
21
0.785804
0
LINE
8
BLACK
6
CONTINUOUS
10
2.23235
20
0.919374
11
2.23235
21
0.787484
0
LINE
8
BLACK
6
CONTINUOUS
10
2.23235
20
0.787484
11
2.36818
21
0.787484
0
LINE
8
BLACK
6
CONTINUOUS
10
2.36818
20
0.787484
11
2.36818
21
0.919374
0
LINE
8
BLACK
6
CONTINUOUS
10
2.36818
20
0.919374
11
2.23235
21
0.919374
0
LINE
8
BLACK
6
CONTINUOUS
10
2.4313
20
1.38447
11
2.43101
21
1.38516
0
LINE
8
BLACK
6
CONTINUOUS
10
2.43101
20
1.38516
11
2.43101
21
1.68044
0
LINE
8
BLACK
6
CONTINUOUS
10
2.43101
20
1.68044
11
2.4313
21
1.68113
0
LINE
8
BLACK
6
CONTINUOUS
10
2.4313
20
1.68113
11
2.432
21
1.68142
0
LINE
8
BLACK
6
CONTINUOUS
10
2.432
20
1.68142
11
2.64853
21
1.68142
0
LINE
8
BLACK
6
CONTINUOUS
10
2.64853
20
1.68142
11
2.64923
21
1.68113
0
LINE
8
BLACK
6
CONTINUOUS
10
2.64923
20
1.68113
11
2.64952
21
1.68044
0
LINE
8
BLACK
6
CONTINUOUS
10
2.64952
20
1.68044
11
2.64952
21
1.38516
0
LINE
8
BLACK
6
CONTINUOUS
10
2.64952
20
1.38516
11
2.64923
21
1.38447
0
LINE
8
BLACK
6
CONTINUOUS
10
2.64923
20
1.38447
11
2.64853
21
1.38418
0
LINE
8
BLACK
6
CONTINUOUS
10
2.64853
20
1.38418
11
2.432
21
1.38418
0
LINE
8
BLACK
6
CONTINUOUS
10
2.432
20
1.38418
11
2.4313
21
1.38447
0
LINE
8
BLACK
6
CONTINUOUS
10
2.43298
20
1.67945
11
2.43298
21
1.38615
0
LINE
8
BLACK
6
CONTINUOUS
10
2.43298
20
1.38615
11
2.64755
21
1.38615
0
LINE
8
BLACK
6
CONTINUOUS
10
2.64755
20
1.38615
11
2.64755
21
1.67945
0
LINE
8
BLACK
6
CONTINUOUS
10
2.64755
20
1.67945
11
2.43298
21
1.67945
0
LINE
8
BLACK
6
CONTINUOUS
10
2.75587
20
1.70124
11
2.75558
21
1.70193
0
LINE
8
BLACK
6
CONTINUOUS
10
2.75558
20
1.70193
11
2.75558
21
1.84367
0
LINE
8
BLACK
6
CONTINUOUS
10
2.75558
20
1.84367
11
2.75587
21
1.84436
0
LINE
8
BLACK
6
CONTINUOUS
10
2.75587
20
1.84436
11
2.75656
21
1.84465
0
LINE
8
BLACK
6
CONTINUOUS
10
2.75656
20
1.84465
11
2.94396
21
1.84465
0
LINE
8
BLACK
6
CONTINUOUS
10
2.94396
20
1.84465
11
2.94466
21
1.84436
0
LINE
8
BLACK
6
CONTINUOUS
10
2.94466
20
1.84436
11
2.94495
21
1.84367
0
LINE
8
BLACK
6
CONTINUOUS
10
2.94495
20
1.84367
11
2.94495
21
1.70193
0
LINE
8
BLACK
6
CONTINUOUS
10
2.94495
20
1.70193
11
2.94466
21
1.70124
0
LINE
8
BLACK
6
CONTINUOUS
10
2.94466
20
1.70124
11
2.94396
21
1.70095
0
LINE
8
BLACK
6
CONTINUOUS
10
2.94396
20
1.70095
11
2.75656
21
1.70095
0
LINE
8
BLACK
6
CONTINUOUS
10
2.75656
20
1.70095
11
2.75587
21
1.70124
0
LINE
8
BLACK
6
CONTINUOUS
10
2.75755
20
1.84268
11
2.75755
21
1.70292
0
LINE
8
BLACK
6
CONTINUOUS
10
2.75755
20
1.70292
11
2.94298
21
1.70292
0
LINE
8
BLACK
6
CONTINUOUS
10
2.94298
20
1.70292
11
2.94298
21
1.84268
0
LINE
8
BLACK
6
CONTINUOUS
10
2.94298
20
1.84268
11
2.75755
21
1.84268
0
LINE
8
BLACK
6
CONTINUOUS
10
2.2737
20
1.7834
11
2.27341
21
1.7841
0
LINE
8
BLACK
6
CONTINUOUS
10
2.27341
20
1.7841
11
2.27341
21
1.9715
0
LINE
8
BLACK
6
CONTINUOUS
10
2.27341
20
1.9715
11
2.2737
21
1.9722
0
LINE
8
BLACK
6
CONTINUOUS
10
2.2737
20
1.9722
11
2.2744
21
1.97248
0
LINE
8
BLACK
6
CONTINUOUS
10
2.2744
20
1.97248
11
2.41613
21
1.97248
0
LINE
8
BLACK
6
CONTINUOUS
10
2.41613
20
1.97248
11
2.41683
21
1.9722
0
LINE
8
BLACK
6
CONTINUOUS
10
2.41683
20
1.9722
11
2.41711
21
1.9715
0
LINE
8
BLACK
6
CONTINUOUS
10
2.41711
20
1.9715
11
2.41711
21
1.7841
0
LINE
8
BLACK
6
CONTINUOUS
10
2.41711
20
1.7841
11
2.41683
21
1.7834
0
LINE
8
BLACK
6
CONTINUOUS
10
2.41683
20
1.7834
11
2.41613
21
1.78311
0
LINE
8
BLACK
6
CONTINUOUS
10
2.41613
20
1.78311
11
2.2744
21
1.78311
0
LINE
8
BLACK
6
CONTINUOUS
10
2.2744
20
1.78311
11
2.2737
21
1.7834
0
LINE
8
BLACK
6
CONTINUOUS
10
2.27538
20
1.97052
11
2.27538
21
1.78508
0
LINE
8
BLACK
6
CONTINUOUS
10
2.27538
20
1.78508
11
2.41515
21
1.78508
0
LINE
8
BLACK
6
CONTINUOUS
10
2.41515
20
1.78508
11
2.41515
21
1.97052
0
LINE
8
BLACK
6
CONTINUOUS
10
2.41515
20
1.97052
11
2.27538
21
1.97052
0
LINE
8
BLACK
6
CONTINUOUS
10
1.92781
20
2.05812
11
1.92752
21
2.05882
0
LINE
8
BLACK
6
CONTINUOUS
10
1.92752
20
2.05882
11
1.92752
21
3.36984
0
LINE
8
BLACK
6
CONTINUOUS
10
1.92752
20
3.36984
11
1.92781
21
3.37054
0
LINE
8
BLACK
6
CONTINUOUS
10
1.92781
20
3.37054
11
1.9285
21
3.37083
0
LINE
8
BLACK
6
CONTINUOUS
10
1.9285
20
3.37083
11
3.23953
21
3.37083
0
LINE
8
BLACK
6
CONTINUOUS
10
3.23953
20
3.37083
11
3.24022
21
3.37054
0
LINE
8
BLACK
6
CONTINUOUS
10
3.24022
20
3.37054
11
3.24051
21
3.36984
0
LINE
8
BLACK
6
CONTINUOUS
10
3.24051
20
3.36984
11
3.24051
21
2.05882
0
LINE
8
BLACK
6
CONTINUOUS
10
3.24051
20
2.05882
11
3.24022
21
2.05812
0
LINE
8
BLACK
6
CONTINUOUS
10
3.24022
20
2.05812
11
3.23953
21
2.05783
0
LINE
8
BLACK
6
CONTINUOUS
10
3.23953
20
2.05783
11
1.9285
21
2.05783
0
LINE
8
BLACK
6
CONTINUOUS
10
1.9285
20
2.05783
11
1.92781
21
2.05812
0
LINE
8
BLACK
6
CONTINUOUS
10
1.92949
20
3.36886
11
1.92949
21
2.0598
0
LINE
8
BLACK
6
CONTINUOUS
10
1.92949
20
2.0598
11
3.23854
21
2.0598
0
LINE
8
BLACK
6
CONTINUOUS
10
3.23854
20
2.0598
11
3.23854
21
3.36886
0
LINE
8
BLACK
6
CONTINUOUS
10
3.23854
20
3.36886
11
1.92949
21
3.36886
0
LINE
8
BLACK
6
CONTINUOUS
10
1.98686
20
2.11718
11
1.98657
21
2.11787
0
LINE
8
BLACK
6
CONTINUOUS
10
1.98657
20
2.11787
11
1.98657
21
3.31079
0
LINE
8
BLACK
6
CONTINUOUS
10
1.98657
20
3.31079
11
1.98686
21
3.31148
0
LINE
8
BLACK
6
CONTINUOUS
10
1.98686
20
3.31148
11
1.98756
21
3.31177
0
LINE
8
BLACK
6
CONTINUOUS
10
1.98756
20
3.31177
11
3.18047
21
3.31177
0
LINE
8
BLACK
6
CONTINUOUS
10
3.18047
20
3.31177
11
3.18117
21
3.31148
0
LINE
8
BLACK
6
CONTINUOUS
10
3.18117
20
3.31148
11
3.18146
21
3.31079
0
LINE
8
BLACK
6
CONTINUOUS
10
3.18146
20
3.31079
11
3.18146
21
2.11787
0
LINE
8
BLACK
6
CONTINUOUS
10
3.18146
20
2.11787
11
3.18117
21
2.11718
0
LINE
8
BLACK
6
CONTINUOUS
10
3.18117
20
2.11718
11
3.18047
21
2.11689
0
LINE
8
BLACK
6
CONTINUOUS
10
3.18047
20
2.11689
11
1.98756
21
2.11689
0
LINE
8
BLACK
6
CONTINUOUS
10
1.98756
20
2.11689
11
1.98686
21
2.11718
0
LINE
8
BLACK
6
CONTINUOUS
10
1.98854
20
3.3098
11
1.98854
21
2.11886
0
LINE
8
BLACK
6
CONTINUOUS
10
1.98854
20
2.11886
11
3.17949
21
2.11886
0
LINE
8
BLACK
6
CONTINUOUS
10
3.17949
20
2.11886
11
3.17949
21
3.3098
0
LINE
8
BLACK
6
CONTINUOUS
10
3.17949
20
3.3098
11
1.98854
21
3.3098
0
LINE
8
BLACK
6
CONTINUOUS
10
2.01894
20
2.43781
11
2.01865
21
2.4385
0
LINE
8
BLACK
6
CONTINUOUS
10
2.01865
20
2.4385
11
2.01865
21
2.58811
0
LINE
8
BLACK
6
CONTINUOUS
10
2.01865
20
2.58811
11
2.01894
21
2.58881
0
LINE
8
BLACK
6
CONTINUOUS
10
2.01894
20
2.58881
11
2.01963
21
2.58909
0
LINE
8
BLACK
6
CONTINUOUS
10
2.01963
20
2.58909
11
2.16137
21
2.58909
0
LINE
8
BLACK
6
CONTINUOUS
10
2.16137
20
2.58909
11
2.16206
21
2.58881
0
LINE
8
BLACK
6
CONTINUOUS
10
2.16206
20
2.58881
11
2.16235
21
2.58811
0
LINE
8
BLACK
6
CONTINUOUS
10
2.16235
20
2.58811
11
2.16235
21
2.4385
0
LINE
8
BLACK
6
CONTINUOUS
10
2.16235
20
2.4385
11
2.16206
21
2.43781
0
LINE
8
BLACK
6
CONTINUOUS
10
2.16206
20
2.43781
11
2.16137
21
2.43752
0
LINE
8
BLACK
6
CONTINUOUS
10
2.16137
20
2.43752
11
2.01963
21
2.43752
0
LINE
8
BLACK
6
CONTINUOUS
10
2.01963
20
2.43752
11
2.01894
21
2.43781
0
LINE
8
BLACK
6
CONTINUOUS
10
2.02062
20
2.58713
11
2.02062
21
2.43949
0
LINE
8
BLACK
6
CONTINUOUS
10
2.02062
20
2.43949
11
2.16038
21
2.43949
0
LINE
8
BLACK
6
CONTINUOUS
10
2.16038
20
2.43949
11
2.16038
21
2.58713
0
LINE
8
BLACK
6
CONTINUOUS
10
2.16038
20
2.58713
11
2.02062
21
2.58713
0
LINE
8
BLACK
6
CONTINUOUS
10
2.88156
20
3.02044
11
2.88156
21
2.49288
0
LINE
8
BLACK
6
CONTINUOUS
10
2.88156
20
2.49288
11
2.88127
21
2.49218
0
LINE
8
BLACK
6
CONTINUOUS
10
2.88127
20
2.49218
11
2.88058
21
2.49189
0
LINE
8
BLACK
6
CONTINUOUS
10
2.88058
20
2.49189
11
2.35302
21
2.49189
0
LINE
8
BLACK
6
CONTINUOUS
10
2.35302
20
2.49189
11
2.35232
21
2.49218
0
LINE
8
BLACK
6
CONTINUOUS
10
2.35232
20
2.49218
11
2.35204
21
2.49288
0
LINE
8
BLACK
6
CONTINUOUS
10
2.35204
20
2.49288
11
2.35204
21
2.97815
0
LINE
8
BLACK
6
CONTINUOUS
10
2.35204
20
2.97815
11
2.15386
21
2.97815
0
LINE
8
BLACK
6
CONTINUOUS
10
2.15386
20
2.97815
11
2.15316
21
2.97844
0
LINE
8
BLACK
6
CONTINUOUS
10
2.15316
20
2.97844
11
2.15287
21
2.97913
0
LINE
8
BLACK
6
CONTINUOUS
10
2.15287
20
2.97913
11
2.15287
21
3.12087
0
LINE
8
BLACK
6
CONTINUOUS
10
2.15287
20
3.12087
11
2.15316
21
3.12156
0
LINE
8
BLACK
6
CONTINUOUS
10
2.15316
20
3.12156
11
2.15386
21
3.12185
0
LINE
8
BLACK
6
CONTINUOUS
10
2.15386
20
3.12185
11
2.38614
21
3.12185
0
LINE
8
BLACK
6
CONTINUOUS
10
2.38614
20
3.12185
11
2.38684
21
3.12156
0
LINE
8
BLACK
6
CONTINUOUS
10
2.38684
20
3.12156
11
2.38713
21
3.12087
0
LINE
8
BLACK
6
CONTINUOUS
10
2.38713
20
3.12087
11
2.38713
21
3.02142
0
LINE
8
BLACK
6
CONTINUOUS
10
2.38713
20
3.02142
11
2.88058
21
3.02142
0
LINE
8
BLACK
6
CONTINUOUS
10
2.88058
20
3.02142
11
2.88127
21
3.02113
0
LINE
8
BLACK
6
CONTINUOUS
10
2.88127
20
3.02113
11
2.88156
21
3.02044
0
LINE
8
BLACK
6
CONTINUOUS
10
2.354
20
2.49386
11
2.87959
21
2.49386
0
LINE
8
BLACK
6
CONTINUOUS
10
2.87959
20
2.49386
11
2.87959
21
3.01945
0
LINE
8
BLACK
6
CONTINUOUS
10
2.87959
20
3.01945
11
2.38713
21
3.01945
0
LINE
8
BLACK
6
CONTINUOUS
10
2.38713
20
3.01945
11
2.38713
21
2.97913
0
LINE
8
BLACK
6
CONTINUOUS
10
2.38713
20
2.97913
11
2.38684
21
2.97844
0
LINE
8
BLACK
6
CONTINUOUS
10
2.38684
20
2.97844
11
2.38614
21
2.97815
0
LINE
8
BLACK
6
CONTINUOUS
10
2.38614
20
2.97815
11
2.354
21
2.97815
0
LINE
8
BLACK
6
CONTINUOUS
10
2.354
20
2.97815
11
2.354
21
2.49386
0
LINE
8
BLACK
6
CONTINUOUS
10
2.15484
20
3.11988
11
2.15484
21
2.98012
0
LINE
8
BLACK
6
CONTINUOUS
10
2.15484
20
2.98012
11
2.35204
21
2.98012
0
LINE
8
BLACK
6
CONTINUOUS
10
2.35204
20
2.98012
11
2.35204
21
3.02044
0
LINE
8
BLACK
6
CONTINUOUS
10
2.35204
20
3.02044
11
2.35232
21
3.02113
0
LINE
8
BLACK
6
CONTINUOUS
10
2.35232
20
3.02113
11
2.35302
21
3.02142
0
LINE
8
BLACK
6
CONTINUOUS
10
2.35302
20
3.02142
11
2.38516
21
3.02142
0
LINE
8
BLACK
6
CONTINUOUS
10
2.38516
20
3.02142
11
2.38516
21
3.11988
0
LINE
8
BLACK
6
CONTINUOUS
10
2.38516
20
3.11988
11
2.15484
21
3.11988
0
LINE
8
BLACK
6
CONTINUOUS
10
2.354
20
3.01945
11
2.354
21
2.98012
0
LINE
8
BLACK
6
CONTINUOUS
10
2.354
20
2.98012
11
2.38516
21
2.98012
0
LINE
8
BLACK
6
CONTINUOUS
10
2.38516
20
2.98012
11
2.38516
21
3.01945
0
LINE
8
BLACK
6
CONTINUOUS
10
2.38516
20
3.01945
11
2.354
21
3.01945
0
LINE
8
BLACK
6
CONTINUOUS
10
2.16682
20
2.5119
11
2.16654
21
2.5126
0
LINE
8
BLACK
6
CONTINUOUS
10
2.16654
20
2.5126
11
2.16654
21
2.5874
0
LINE
8
BLACK
6
CONTINUOUS
10
2.16654
20
2.5874
11
2.16682
21
2.5881
0
LINE
8
BLACK
6
CONTINUOUS
10
2.16682
20
2.5881
11
2.16752
21
2.58839
0
LINE
8
BLACK
6
CONTINUOUS
10
2.16752
20
2.58839
11
2.31319
21
2.58839
0
LINE
8
BLACK
6
CONTINUOUS
10
2.31319
20
2.58839
11
2.31388
21
2.5881
0
LINE
8
BLACK
6
CONTINUOUS
10
2.31388
20
2.5881
11
2.31417
21
2.5874
0
LINE
8
BLACK
6
CONTINUOUS
10
2.31417
20
2.5874
11
2.31417
21
2.5126
0
LINE
8
BLACK
6
CONTINUOUS
10
2.31417
20
2.5126
11
2.31388
21
2.5119
0
LINE
8
BLACK
6
CONTINUOUS
10
2.31388
20
2.5119
11
2.31319
21
2.51161
0
LINE
8
BLACK
6
CONTINUOUS
10
2.31319
20
2.51161
11
2.16752
21
2.51161
0
LINE
8
BLACK
6
CONTINUOUS
10
2.16752
20
2.51161
11
2.16682
21
2.5119
0
LINE
8
BLACK
6
CONTINUOUS
10
2.1685
20
2.58642
11
2.1685
21
2.51358
0
LINE
8
BLACK
6
CONTINUOUS
10
2.1685
20
2.51358
11
2.3122
21
2.51358
0
LINE
8
BLACK
6
CONTINUOUS
10
2.3122
20
2.51358
11
2.3122
21
2.58642
0
LINE
8
BLACK
6
CONTINUOUS
10
2.3122
20
2.58642
11
2.1685
21
2.58642
0
LINE
8
BLACK
6
CONTINUOUS
10
2.78497
20
3.036
11
2.78469
21
3.03669
0
LINE
8
BLACK
6
CONTINUOUS
10
2.78469
20
3.03669
11
2.78469
21
3.12331
0
LINE
8
BLACK
6
CONTINUOUS
10
2.78469
20
3.12331
11
2.78497
21
3.124
0
LINE
8
BLACK
6
CONTINUOUS
10
2.78497
20
3.124
11
2.78567
21
3.12429
0
LINE
8
BLACK
6
CONTINUOUS
10
2.78567
20
3.12429
11
2.99433
21
3.12429
0
LINE
8
BLACK
6
CONTINUOUS
10
2.99433
20
3.12429
11
2.99503
21
3.124
0
LINE
8
BLACK
6
CONTINUOUS
10
2.99503
20
3.124
11
2.99531
21
3.12331
0
LINE
8
BLACK
6
CONTINUOUS
10
2.99531
20
3.12331
11
2.99531
21
3.03669
0
LINE
8
BLACK
6
CONTINUOUS
10
2.99531
20
3.03669
11
2.99503
21
3.036
0
LINE
8
BLACK
6
CONTINUOUS
10
2.99503
20
3.036
11
2.99433
21
3.03571
0
LINE
8
BLACK
6
CONTINUOUS
10
2.99433
20
3.03571
11
2.78567
21
3.03571
0
LINE
8
BLACK
6
CONTINUOUS
10
2.78567
20
3.03571
11
2.78497
21
3.036
0
LINE
8
BLACK
6
CONTINUOUS
10
2.78665
20
3.12232
11
2.78665
21
3.03768
0
LINE
8
BLACK
6
CONTINUOUS
10
2.78665
20
3.03768
11
2.99335
21
3.03768
0
LINE
8
BLACK
6
CONTINUOUS
10
2.99335
20
3.03768
11
2.99335
21
3.12232
0
LINE
8
BLACK
6
CONTINUOUS
10
2.99335
20
3.12232
11
2.78665
21
3.12232
  0
ENDSEC
  0
EOF
