  0
SECTION
  2
HEADER
  9
$ANGBASE
  50
0.0
  9
$ANGDIR
  70
1
  9
$MEASUREMENT
  70
0
  0
ENDSEC
  0
SECTION
  2
TABLES
  0
TABLE
  2
LTYPE
  70
4
  0
LTYPE
  5
40F
  2
CONTINUOUS
  70
0
  3
Solid line
  72
65
  73
0
  40
0.0
  0
LTYPE
  5
410
  2
DASHDOT
 70
0
  3
Dash Dot ____ _ ____ _
 72
65
 73
4
 40
2.0
 49
1.25
 49
-0.25
 49
0.25
 49
-0.25
  0
LTYPE
  5
411
  2
DASHED
 70
0
  3
Dashed __ __ __ __ __
 72
65
 73
2
 40
0.75
 49
0.5
 49
-0.25
  0
LTYPE
  5
43B
  2
DOTTED
 70
0
  3
Dotted .  .  .  .
 72
65
 73
2
 40
0.2
 49
0.0
 49
-0.2
  0
ENDTAB
  0
TABLE
  2
STYLE
  70
4
  0
STYLE
  2
KICAD
  70
0
  40
0
  41
1
  42
1
  50
0
  71
0
  3
isocp.shx
  0
STYLE
  2
KICADB
  70
0
  40
0
  41
1
  42
1
  50
0
  71
0
  3
isocp.shx
  0
STYLE
  2
KICADI
  70
0
  40
0
  41
1
  42
1
  50
15
  71
0
  3
isocp.shx
  0
STYLE
  2
KICADBI
  70
0
  40
0
  41
1
  42
1
  50
15
  71
0
  3
isocp.shx
  0
ENDTAB
  0
TABLE
  2
LAYER
  70
1
  0
LAYER
  2
BLACK
  70
0
  62
7
  6
CONTINUOUS
  0
ENDTAB
  0
ENDSEC
  0
SECTION
  2
ENTITIES
0
LINE
8
BLACK
6
CONTINUOUS
10
4.2406379527559057
20
-4.4597692125984247
11
4.2477428346456696
21
-4.4619244488188974
0
LINE
8
BLACK
6
CONTINUOUS
10
4.2477428346456696
20
-4.4619244488188974
11
4.2542907874015743
21
-4.4654243700787397
0
LINE
8
BLACK
6
CONTINUOUS
10
4.2542907874015743
20
-4.4654243700787397
11
4.260030078740157
21
-4.4701344881889762
0
LINE
8
BLACK
6
CONTINUOUS
10
4.260030078740157
20
-4.4701344881889762
11
4.2647401968503935
21
-4.4758737795275589
0
LINE
8
BLACK
6
CONTINUOUS
10
4.2647401968503935
20
-4.4758737795275589
11
4.2682401181102358
21
-4.4824217322834645
0
LINE
8
BLACK
6
CONTINUOUS
10
4.2682401181102358
20
-4.4824217322834645
11
4.2703953543307085
21
-4.4895266141732284
0
LINE
8
BLACK
6
CONTINUOUS
10
4.2703953543307085
20
-4.4895266141732284
11
4.2711231102362204
21
-4.4969154724409446
0
LINE
8
BLACK
6
CONTINUOUS
10
4.2711231102362204
20
-4.4969154724409446
11
4.2703953543307085
21
-4.5043043307086617
0
LINE
8
BLACK
6
CONTINUOUS
10
4.2703953543307085
20
-4.5043043307086617
11
4.2682401181102358
21
-4.5114092125984255
0
LINE
8
BLACK
6
CONTINUOUS
10
4.2682401181102358
20
-4.5114092125984255
11
4.2647401968503935
21
-4.5179571653543302
0
LINE
8
BLACK
6
CONTINUOUS
10
4.2647401968503935
20
-4.5179571653543302
11
4.260030078740157
21
-4.523696456692913
0
LINE
8
BLACK
6
CONTINUOUS
10
4.260030078740157
20
-4.523696456692913
11
4.2542907874015743
21
-4.5284065748031495
0
LINE
8
BLACK
6
CONTINUOUS
10
4.2542907874015743
20
-4.5284065748031495
11
4.2477428346456696
21
-4.5319064960629918
0
LINE
8
BLACK
6
CONTINUOUS
10
4.2477428346456696
20
-4.5319064960629918
11
4.2406379527559057
21
-4.5340617322834644
0
LINE
8
BLACK
6
CONTINUOUS
10
4.2406379527559057
20
-4.5340617322834644
11
4.2332490944881886
21
-4.5347894881889763
0
LINE
8
BLACK
6
CONTINUOUS
10
4.2332490944881886
20
-4.5347894881889763
11
4.2258602362204725
21
-4.5340617322834644
0
LINE
8
BLACK
6
CONTINUOUS
10
4.2258602362204725
20
-4.5340617322834644
11
4.2187553543307086
21
-4.5319064960629918
0
LINE
8
BLACK
6
CONTINUOUS
10
4.2187553543307086
20
-4.5319064960629918
11
4.212207401574803
21
-4.5284065748031495
0
LINE
8
BLACK
6
CONTINUOUS
10
4.212207401574803
20
-4.5284065748031495
11
4.2064681102362202
21
-4.523696456692913
0
LINE
8
BLACK
6
CONTINUOUS
10
4.2064681102362202
20
-4.523696456692913
11
4.2017579921259838
21
-4.5179571653543302
0
LINE
8
BLACK
6
CONTINUOUS
10
4.2017579921259838
20
-4.5179571653543302
11
4.1982580708661414
21
-4.5114092125984255
0
LINE
8
BLACK
6
CONTINUOUS
10
4.1982580708661414
20
-4.5114092125984255
11
4.1961028346456688
21
-4.5043043307086617
0
LINE
8
BLACK
6
CONTINUOUS
10
4.1961028346456688
20
-4.5043043307086617
11
4.1953750787401578
21
-4.4969154724409446
0
LINE
8
BLACK
6
CONTINUOUS
10
4.1953750787401578
20
-4.4969154724409446
11
4.1961028346456688
21
-4.4895266141732284
0
LINE
8
BLACK
6
CONTINUOUS
10
4.1961028346456688
20
-4.4895266141732284
11
4.1982580708661414
21
-4.4824217322834645
0
LINE
8
BLACK
6
CONTINUOUS
10
4.1982580708661414
20
-4.4824217322834645
11
4.2017579921259838
21
-4.4758737795275589
0
LINE
8
BLACK
6
CONTINUOUS
10
4.2017579921259838
20
-4.4758737795275589
11
4.2064681102362202
21
-4.4701344881889762
0
LINE
8
BLACK
6
CONTINUOUS
10
4.2064681102362202
20
-4.4701344881889762
11
4.212207401574803
21
-4.4654243700787397
0
LINE
8
BLACK
6
CONTINUOUS
10
4.212207401574803
20
-4.4654243700787397
11
4.2187553543307086
21
-4.4619244488188974
0
LINE
8
BLACK
6
CONTINUOUS
10
4.2187553543307086
20
-4.4619244488188974
11
4.2258602362204725
21
-4.4597692125984247
0
LINE
8
BLACK
6
CONTINUOUS
10
4.2258602362204725
20
-4.4597692125984247
11
4.2332490944881886
21
-4.4590414566929129
0
LINE
8
BLACK
6
CONTINUOUS
10
4.2332490944881886
20
-4.4590414566929129
11
4.2406379527559057
21
-4.4597692125984247
0
LINE
8
BLACK
6
CONTINUOUS
10
4.4374883464566928
20
-4.4597692125984247
11
4.4445932283464566
21
-4.4619244488188974
0
LINE
8
BLACK
6
CONTINUOUS
10
4.4445932283464566
20
-4.4619244488188974
11
4.4511411811023622
21
-4.4654243700787397
0
LINE
8
BLACK
6
CONTINUOUS
10
4.4511411811023622
20
-4.4654243700787397
11
4.456880472440945
21
-4.4701344881889762
0
LINE
8
BLACK
6
CONTINUOUS
10
4.456880472440945
20
-4.4701344881889762
11
4.4615905905511806
21
-4.4758737795275589
0
LINE
8
BLACK
6
CONTINUOUS
10
4.4615905905511806
20
-4.4758737795275589
11
4.4650905118110238
21
-4.4824217322834645
0
LINE
8
BLACK
6
CONTINUOUS
10
4.4650905118110238
20
-4.4824217322834645
11
4.4672457480314955
21
-4.4895266141732284
0
LINE
8
BLACK
6
CONTINUOUS
10
4.4672457480314955
20
-4.4895266141732284
11
4.4679735039370074
21
-4.4969154724409446
0
LINE
8
BLACK
6
CONTINUOUS
10
4.4679735039370074
20
-4.4969154724409446
11
4.4672457480314955
21
-4.5043043307086617
0
LINE
8
BLACK
6
CONTINUOUS
10
4.4672457480314955
20
-4.5043043307086617
11
4.4650905118110238
21
-4.5114092125984255
0
LINE
8
BLACK
6
CONTINUOUS
10
4.4650905118110238
20
-4.5114092125984255
11
4.4615905905511806
21
-4.5179571653543302
0
LINE
8
BLACK
6
CONTINUOUS
10
4.4615905905511806
20
-4.5179571653543302
11
4.456880472440945
21
-4.523696456692913
0
LINE
8
BLACK
6
CONTINUOUS
10
4.456880472440945
20
-4.523696456692913
11
4.4511411811023622
21
-4.5284065748031495
0
LINE
8
BLACK
6
CONTINUOUS
10
4.4511411811023622
20
-4.5284065748031495
11
4.4445932283464566
21
-4.5319064960629918
0
LINE
8
BLACK
6
CONTINUOUS
10
4.4445932283464566
20
-4.5319064960629918
11
4.4374883464566928
21
-4.5340617322834644
0
LINE
8
BLACK
6
CONTINUOUS
10
4.4374883464566928
20
-4.5340617322834644
11
4.4300994881889766
21
-4.5347894881889763
0
LINE
8
BLACK
6
CONTINUOUS
10
4.4300994881889766
20
-4.5347894881889763
11
4.4227106299212595
21
-4.5340617322834644
0
LINE
8
BLACK
6
CONTINUOUS
10
4.4227106299212595
20
-4.5340617322834644
11
4.4156057480314956
21
-4.5319064960629918
0
LINE
8
BLACK
6
CONTINUOUS
10
4.4156057480314956
20
-4.5319064960629918
11
4.4090577952755901
21
-4.5284065748031495
0
LINE
8
BLACK
6
CONTINUOUS
10
4.4090577952755901
20
-4.5284065748031495
11
4.4033185039370082
21
-4.523696456692913
0
LINE
8
BLACK
6
CONTINUOUS
10
4.4033185039370082
20
-4.523696456692913
11
4.3986083858267717
21
-4.5179571653543302
0
LINE
8
BLACK
6
CONTINUOUS
10
4.3986083858267717
20
-4.5179571653543302
11
4.3951084645669294
21
-4.5114092125984255
0
LINE
8
BLACK
6
CONTINUOUS
10
4.3951084645669294
20
-4.5114092125984255
11
4.3929532283464567
21
-4.5043043307086617
0
LINE
8
BLACK
6
CONTINUOUS
10
4.3929532283464567
20
-4.5043043307086617
11
4.3922254724409449
21
-4.4969154724409446
0
LINE
8
BLACK
6
CONTINUOUS
10
4.3922254724409449
20
-4.4969154724409446
11
4.3929532283464567
21
-4.4895266141732284
0
LINE
8
BLACK
6
CONTINUOUS
10
4.3929532283464567
20
-4.4895266141732284
11
4.3951084645669294
21
-4.4824217322834645
0
LINE
8
BLACK
6
CONTINUOUS
10
4.3951084645669294
20
-4.4824217322834645
11
4.3986083858267717
21
-4.4758737795275589
0
LINE
8
BLACK
6
CONTINUOUS
10
4.3986083858267717
20
-4.4758737795275589
11
4.4033185039370082
21
-4.4701344881889762
0
LINE
8
BLACK
6
CONTINUOUS
10
4.4033185039370082
20
-4.4701344881889762
11
4.4090577952755901
21
-4.4654243700787397
0
LINE
8
BLACK
6
CONTINUOUS
10
4.4090577952755901
20
-4.4654243700787397
11
4.4156057480314956
21
-4.4619244488188974
0
LINE
8
BLACK
6
CONTINUOUS
10
4.4156057480314956
20
-4.4619244488188974
11
4.4227106299212595
21
-4.4597692125984247
0
LINE
8
BLACK
6
CONTINUOUS
10
4.4227106299212595
20
-4.4597692125984247
11
4.4300994881889766
21
-4.4590414566929129
0
LINE
8
BLACK
6
CONTINUOUS
10
4.4300994881889766
20
-4.4590414566929129
11
4.4374883464566928
21
-4.4597692125984247
0
LINE
8
BLACK
6
CONTINUOUS
10
5.1552820472440946
20
-4.140219566929134
11
5.1578365354330709
21
-4.1419264566929135
0
LINE
8
BLACK
6
CONTINUOUS
10
5.1578365354330709
20
-4.1419264566929135
11
5.1595434251968504
21
-4.1444809448818898
0
LINE
8
BLACK
6
CONTINUOUS
10
5.1595434251968504
20
-4.1444809448818898
11
5.1601427952755907
21
-4.1474942125984251
0
LINE
8
BLACK
6
CONTINUOUS
10
5.1601427952755907
20
-4.1474942125984251
11
5.1601427952755907
21
-4.2971005118110233
0
LINE
8
BLACK
6
CONTINUOUS
10
5.1601427952755907
20
-4.2971005118110233
11
5.1595434251968504
21
-4.3001137795275586
0
LINE
8
BLACK
6
CONTINUOUS
10
5.1595434251968504
20
-4.3001137795275586
11
5.1578365354330709
21
-4.3026682677165358
0
LINE
8
BLACK
6
CONTINUOUS
10
5.1578365354330709
20
-4.3026682677165358
11
5.1552820472440946
21
-4.3043751574803153
0
LINE
8
BLACK
6
CONTINUOUS
10
5.1552820472440946
20
-4.3043751574803153
11
5.1522687795275592
21
-4.3049745275590547
0
LINE
8
BLACK
6
CONTINUOUS
10
5.1522687795275592
20
-4.3049745275590547
11
5.1128987007874018
21
-4.3049745275590547
0
LINE
8
BLACK
6
CONTINUOUS
10
5.1128987007874018
20
-4.3049745275590547
11
5.1098854330708656
21
-4.3043751574803153
0
LINE
8
BLACK
6
CONTINUOUS
10
5.1098854330708656
20
-4.3043751574803153
11
5.1073309448818893
21
-4.3026682677165358
0
LINE
8
BLACK
6
CONTINUOUS
10
5.1073309448818893
20
-4.3026682677165358
11
5.1056240551181098
21
-4.3001137795275586
0
LINE
8
BLACK
6
CONTINUOUS
10
5.1056240551181098
20
-4.3001137795275586
11
5.1050246850393703
21
-4.2971005118110233
0
LINE
8
BLACK
6
CONTINUOUS
10
5.1050246850393703
20
-4.2971005118110233
11
5.1050246850393703
21
-4.1474942125984251
0
LINE
8
BLACK
6
CONTINUOUS
10
5.1050246850393703
20
-4.1474942125984251
11
5.1056240551181098
21
-4.1444809448818898
0
LINE
8
BLACK
6
CONTINUOUS
10
5.1056240551181098
20
-4.1444809448818898
11
5.1073309448818893
21
-4.1419264566929135
0
LINE
8
BLACK
6
CONTINUOUS
10
5.1073309448818893
20
-4.1419264566929135
11
5.1098854330708656
21
-4.140219566929134
0
LINE
8
BLACK
6
CONTINUOUS
10
5.1098854330708656
20
-4.140219566929134
11
5.1128987007874018
21
-4.1396201968503936
0
LINE
8
BLACK
6
CONTINUOUS
10
5.1128987007874018
20
-4.1396201968503936
11
5.1522687795275592
21
-4.1396201968503936
0
LINE
8
BLACK
6
CONTINUOUS
10
5.1522687795275592
20
-4.1396201968503936
11
5.1552820472440946
21
-4.140219566929134
0
LINE
8
BLACK
6
CONTINUOUS
10
5.2168135433070866
20
-4.1359400787401572
11
5.2193680314960629
21
-4.1376469685039368
0
LINE
8
BLACK
6
CONTINUOUS
10
5.2193680314960629
20
-4.1376469685039368
11
5.2210749212598424
21
-4.1402014566929131
0
LINE
8
BLACK
6
CONTINUOUS
10
5.2210749212598424
20
-4.1402014566929131
11
5.2216742913385827
21
-4.1432147244094484
0
LINE
8
BLACK
6
CONTINUOUS
10
5.2216742913385827
20
-4.1432147244094484
11
5.2216742913385827
21
-4.2928210236220474
0
LINE
8
BLACK
6
CONTINUOUS
10
5.2216742913385827
20
-4.2928210236220474
11
5.2210749212598424
21
-4.2958342913385827
0
LINE
8
BLACK
6
CONTINUOUS
10
5.2210749212598424
20
-4.2958342913385827
11
5.2193680314960629
21
-4.298388779527559
0
LINE
8
BLACK
6
CONTINUOUS
10
5.2193680314960629
20
-4.298388779527559
11
5.2168135433070866
21
-4.3000956692913386
0
LINE
8
BLACK
6
CONTINUOUS
10
5.2168135433070866
20
-4.3000956692913386
11
5.2138002755905513
21
-4.3006950393700789
0
LINE
8
BLACK
6
CONTINUOUS
10
5.2138002755905513
20
-4.3006950393700789
11
5.1744301968503938
21
-4.3006950393700789
0
LINE
8
BLACK
6
CONTINUOUS
10
5.1744301968503938
20
-4.3006950393700789
11
5.1714169291338585
21
-4.3000956692913386
0
LINE
8
BLACK
6
CONTINUOUS
10
5.1714169291338585
20
-4.3000956692913386
11
5.1688624409448813
21
-4.298388779527559
0
LINE
8
BLACK
6
CONTINUOUS
10
5.1688624409448813
20
-4.298388779527559
11
5.1671555511811018
21
-4.2958342913385827
0
LINE
8
BLACK
6
CONTINUOUS
10
5.1671555511811018
20
-4.2958342913385827
11
5.1665561811023624
21
-4.2928210236220474
0
LINE
8
BLACK
6
CONTINUOUS
10
5.1665561811023624
20
-4.2928210236220474
11
5.1665561811023624
21
-4.1432147244094484
0
LINE
8
BLACK
6
CONTINUOUS
10
5.1665561811023624
20
-4.1432147244094484
11
5.1671555511811018
21
-4.1402014566929131
0
LINE
8
BLACK
6
CONTINUOUS
10
5.1671555511811018
20
-4.1402014566929131
11
5.1688624409448813
21
-4.1376469685039368
0
LINE
8
BLACK
6
CONTINUOUS
10
5.1688624409448813
20
-4.1376469685039368
11
5.1714169291338585
21
-4.1359400787401572
0
LINE
8
BLACK
6
CONTINUOUS
10
5.1714169291338585
20
-4.1359400787401572
11
5.1744301968503938
21
-4.1353407086614169
0
LINE
8
BLACK
6
CONTINUOUS
10
5.1744301968503938
20
-4.1353407086614169
11
5.2138002755905513
21
-4.1353407086614169
0
LINE
8
BLACK
6
CONTINUOUS
10
5.2138002755905513
20
-4.1353407086614169
11
5.2168135433070866
21
-4.1359400787401572
0
LINE
8
BLACK
6
CONTINUOUS
10
5.1552820472440946
20
-3.903999094488189
11
5.1578365354330709
21
-3.9057059842519686
0
LINE
8
BLACK
6
CONTINUOUS
10
5.1578365354330709
20
-3.9057059842519686
11
5.1595434251968504
21
-3.9082604724409449
0
LINE
8
BLACK
6
CONTINUOUS
10
5.1595434251968504
20
-3.9082604724409449
11
5.1601427952755907
21
-3.9112737401574802
0
LINE
8
BLACK
6
CONTINUOUS
10
5.1601427952755907
20
-3.9112737401574802
11
5.1601427952755907
21
-4.0608800393700788
0
LINE
8
BLACK
6
CONTINUOUS
10
5.1601427952755907
20
-4.0608800393700788
11
5.1595434251968504
21
-4.0638933070866141
0
LINE
8
BLACK
6
CONTINUOUS
10
5.1595434251968504
20
-4.0638933070866141
11
5.1578365354330709
21
-4.0664477952755904
0
LINE
8
BLACK
6
CONTINUOUS
10
5.1578365354330709
20
-4.0664477952755904
11
5.1552820472440946
21
-4.0681546850393699
0
LINE
8
BLACK
6
CONTINUOUS
10
5.1552820472440946
20
-4.0681546850393699
11
5.1522687795275592
21
-4.0687540551181103
0
LINE
8
BLACK
6
CONTINUOUS
10
5.1522687795275592
20
-4.0687540551181103
11
5.1128987007874018
21
-4.0687540551181103
0
LINE
8
BLACK
6
CONTINUOUS
10
5.1128987007874018
20
-4.0687540551181103
11
5.1098854330708656
21
-4.0681546850393699
0
LINE
8
BLACK
6
CONTINUOUS
10
5.1098854330708656
20
-4.0681546850393699
11
5.1073309448818893
21
-4.0664477952755904
0
LINE
8
BLACK
6
CONTINUOUS
10
5.1073309448818893
20
-4.0664477952755904
11
5.1056240551181098
21
-4.0638933070866141
0
LINE
8
BLACK
6
CONTINUOUS
10
5.1056240551181098
20
-4.0638933070866141
11
5.1050246850393703
21
-4.0608800393700788
0
LINE
8
BLACK
6
CONTINUOUS
10
5.1050246850393703
20
-4.0608800393700788
11
5.1050246850393703
21
-3.9112737401574802
0
LINE
8
BLACK
6
CONTINUOUS
10
5.1050246850393703
20
-3.9112737401574802
11
5.1056240551181098
21
-3.9082604724409449
0
LINE
8
BLACK
6
CONTINUOUS
10
5.1056240551181098
20
-3.9082604724409449
11
5.1073309448818893
21
-3.9057059842519686
0
LINE
8
BLACK
6
CONTINUOUS
10
5.1073309448818893
20
-3.9057059842519686
11
5.1098854330708656
21
-3.903999094488189
0
LINE
8
BLACK
6
CONTINUOUS
10
5.1098854330708656
20
-3.903999094488189
11
5.1128987007874018
21
-3.9033997244094487
0
LINE
8
BLACK
6
CONTINUOUS
10
5.1128987007874018
20
-3.9033997244094487
11
5.1522687795275592
21
-3.9033997244094487
0
LINE
8
BLACK
6
CONTINUOUS
10
5.1522687795275592
20
-3.9033997244094487
11
5.1552820472440946
21
-3.903999094488189
0
LINE
8
BLACK
6
CONTINUOUS
10
5.2168135433070866
20
-3.8997196062992123
11
5.2193680314960629
21
-3.9014264960629919
0
LINE
8
BLACK
6
CONTINUOUS
10
5.2193680314960629
20
-3.9014264960629919
11
5.2210749212598424
21
-3.9039809842519686
0
LINE
8
BLACK
6
CONTINUOUS
10
5.2210749212598424
20
-3.9039809842519686
11
5.2216742913385827
21
-3.9069942519685039
0
LINE
8
BLACK
6
CONTINUOUS
10
5.2216742913385827
20
-3.9069942519685039
11
5.2216742913385827
21
-4.0566005511811021
0
LINE
8
BLACK
6
CONTINUOUS
10
5.2216742913385827
20
-4.0566005511811021
11
5.2210749212598424
21
-4.0596138188976374
0
LINE
8
BLACK
6
CONTINUOUS
10
5.2210749212598424
20
-4.0596138188976374
11
5.2193680314960629
21
-4.0621683070866137
0
LINE
8
BLACK
6
CONTINUOUS
10
5.2193680314960629
20
-4.0621683070866137
11
5.2168135433070866
21
-4.0638751968503932
0
LINE
8
BLACK
6
CONTINUOUS
10
5.2168135433070866
20
-4.0638751968503932
11
5.2138002755905513
21
-4.0644745669291336
0
LINE
8
BLACK
6
CONTINUOUS
10
5.2138002755905513
20
-4.0644745669291336
11
5.1744301968503938
21
-4.0644745669291336
0
LINE
8
BLACK
6
CONTINUOUS
10
5.1744301968503938
20
-4.0644745669291336
11
5.1714169291338585
21
-4.0638751968503932
0
LINE
8
BLACK
6
CONTINUOUS
10
5.1714169291338585
20
-4.0638751968503932
11
5.1688624409448813
21
-4.0621683070866137
0
LINE
8
BLACK
6
CONTINUOUS
10
5.1688624409448813
20
-4.0621683070866137
11
5.1671555511811018
21
-4.0596138188976374
0
LINE
8
BLACK
6
CONTINUOUS
10
5.1671555511811018
20
-4.0596138188976374
11
5.1665561811023624
21
-4.0566005511811021
0
LINE
8
BLACK
6
CONTINUOUS
10
5.1665561811023624
20
-4.0566005511811021
11
5.1665561811023624
21
-3.9069942519685039
0
LINE
8
BLACK
6
CONTINUOUS
10
5.1665561811023624
20
-3.9069942519685039
11
5.1671555511811018
21
-3.9039809842519686
0
LINE
8
BLACK
6
CONTINUOUS
10
5.1671555511811018
20
-3.9039809842519686
11
5.1688624409448813
21
-3.9014264960629919
0
LINE
8
BLACK
6
CONTINUOUS
10
5.1688624409448813
20
-3.9014264960629919
11
5.1714169291338585
21
-3.8997196062992123
0
LINE
8
BLACK
6
CONTINUOUS
10
5.1714169291338585
20
-3.8997196062992123
11
5.1744301968503938
21
-3.8991202362204724
0
LINE
8
BLACK
6
CONTINUOUS
10
5.1744301968503938
20
-3.8991202362204724
11
5.2138002755905513
21
-3.8991202362204724
0
LINE
8
BLACK
6
CONTINUOUS
10
5.2138002755905513
20
-3.8991202362204724
11
5.2168135433070866
21
-3.8997196062992123
0
LINE
8
BLACK
6
CONTINUOUS
10
5.1552820472440946
20
-3.6677786220472441
11
5.1578365354330709
21
-3.6694855118110237
0
LINE
8
BLACK
6
CONTINUOUS
10
5.1578365354330709
20
-3.6694855118110237
11
5.1595434251968504
21
-3.67204
0
LINE
8
BLACK
6
CONTINUOUS
10
5.1595434251968504
20
-3.67204
11
5.1601427952755907
21
-3.6750532677165353
0
LINE
8
BLACK
6
CONTINUOUS
10
5.1601427952755907
20
-3.6750532677165353
11
5.1601427952755907
21
-3.8246595669291339
0
LINE
8
BLACK
6
CONTINUOUS
10
5.1601427952755907
20
-3.8246595669291339
11
5.1595434251968504
21
-3.8276728346456692
0
LINE
8
BLACK
6
CONTINUOUS
10
5.1595434251968504
20
-3.8276728346456692
11
5.1578365354330709
21
-3.8302273228346455
0
LINE
8
BLACK
6
CONTINUOUS
10
5.1578365354330709
20
-3.8302273228346455
11
5.1552820472440946
21
-3.831934212598425
0
LINE
8
BLACK
6
CONTINUOUS
10
5.1552820472440946
20
-3.831934212598425
11
5.1522687795275592
21
-3.8325335826771654
0
LINE
8
BLACK
6
CONTINUOUS
10
5.1522687795275592
20
-3.8325335826771654
11
5.1128987007874018
21
-3.8325335826771654
0
LINE
8
BLACK
6
CONTINUOUS
10
5.1128987007874018
20
-3.8325335826771654
11
5.1098854330708656
21
-3.831934212598425
0
LINE
8
BLACK
6
CONTINUOUS
10
5.1098854330708656
20
-3.831934212598425
11
5.1073309448818893
21
-3.8302273228346455
0
LINE
8
BLACK
6
CONTINUOUS
10
5.1073309448818893
20
-3.8302273228346455
11
5.1056240551181098
21
-3.8276728346456692
0
LINE
8
BLACK
6
CONTINUOUS
10
5.1056240551181098
20
-3.8276728346456692
11
5.1050246850393703
21
-3.8246595669291339
0
LINE
8
BLACK
6
CONTINUOUS
10
5.1050246850393703
20
-3.8246595669291339
11
5.1050246850393703
21
-3.6750532677165353
0
LINE
8
BLACK
6
CONTINUOUS
10
5.1050246850393703
20
-3.6750532677165353
11
5.1056240551181098
21
-3.67204
0
LINE
8
BLACK
6
CONTINUOUS
10
5.1056240551181098
20
-3.67204
11
5.1073309448818893
21
-3.6694855118110237
0
LINE
8
BLACK
6
CONTINUOUS
10
5.1073309448818893
20
-3.6694855118110237
11
5.1098854330708656
21
-3.6677786220472441
0
LINE
8
BLACK
6
CONTINUOUS
10
5.1098854330708656
20
-3.6677786220472441
11
5.1128987007874018
21
-3.6671792519685038
0
LINE
8
BLACK
6
CONTINUOUS
10
5.1128987007874018
20
-3.6671792519685038
11
5.1522687795275592
21
-3.6671792519685038
0
LINE
8
BLACK
6
CONTINUOUS
10
5.1522687795275592
20
-3.6671792519685038
11
5.1552820472440946
21
-3.6677786220472441
0
LINE
8
BLACK
6
CONTINUOUS
10
5.2168135433070866
20
-3.6634991338582674
11
5.2193680314960629
21
-3.6652060236220469
0
LINE
8
BLACK
6
CONTINUOUS
10
5.2193680314960629
20
-3.6652060236220469
11
5.2210749212598424
21
-3.6677605118110237
0
LINE
8
BLACK
6
CONTINUOUS
10
5.2210749212598424
20
-3.6677605118110237
11
5.2216742913385827
21
-3.670773779527559
0
LINE
8
BLACK
6
CONTINUOUS
10
5.2216742913385827
20
-3.670773779527559
11
5.2216742913385827
21
-3.8203800787401576
0
LINE
8
BLACK
6
CONTINUOUS
10
5.2216742913385827
20
-3.8203800787401576
11
5.2210749212598424
21
-3.8233933464566929
0
LINE
8
BLACK
6
CONTINUOUS
10
5.2210749212598424
20
-3.8233933464566929
11
5.2193680314960629
21
-3.8259478346456692
0
LINE
8
BLACK
6
CONTINUOUS
10
5.2193680314960629
20
-3.8259478346456692
11
5.2168135433070866
21
-3.8276547244094488
0
LINE
8
BLACK
6
CONTINUOUS
10
5.2168135433070866
20
-3.8276547244094488
11
5.2138002755905513
21
-3.8282540944881891
0
LINE
8
BLACK
6
CONTINUOUS
10
5.2138002755905513
20
-3.8282540944881891
11
5.1744301968503938
21
-3.8282540944881891
0
LINE
8
BLACK
6
CONTINUOUS
10
5.1744301968503938
20
-3.8282540944881891
11
5.1714169291338585
21
-3.8276547244094488
0
LINE
8
BLACK
6
CONTINUOUS
10
5.1714169291338585
20
-3.8276547244094488
11
5.1688624409448813
21
-3.8259478346456692
0
LINE
8
BLACK
6
CONTINUOUS
10
5.1688624409448813
20
-3.8259478346456692
11
5.1671555511811018
21
-3.8233933464566929
0
LINE
8
BLACK
6
CONTINUOUS
10
5.1671555511811018
20
-3.8233933464566929
11
5.1665561811023624
21
-3.8203800787401576
0
LINE
8
BLACK
6
CONTINUOUS
10
5.1665561811023624
20
-3.8203800787401576
11
5.1665561811023624
21
-3.670773779527559
0
LINE
8
BLACK
6
CONTINUOUS
10
5.1665561811023624
20
-3.670773779527559
11
5.1671555511811018
21
-3.6677605118110237
0
LINE
8
BLACK
6
CONTINUOUS
10
5.1671555511811018
20
-3.6677605118110237
11
5.1688624409448813
21
-3.6652060236220469
0
LINE
8
BLACK
6
CONTINUOUS
10
5.1688624409448813
20
-3.6652060236220469
11
5.1714169291338585
21
-3.6634991338582674
0
LINE
8
BLACK
6
CONTINUOUS
10
5.1714169291338585
20
-3.6634991338582674
11
5.1744301968503938
21
-3.6628997637795275
0
LINE
8
BLACK
6
CONTINUOUS
10
5.1744301968503938
20
-3.6628997637795275
11
5.2138002755905513
21
-3.6628997637795275
0
LINE
8
BLACK
6
CONTINUOUS
10
5.2138002755905513
20
-3.6628997637795275
11
5.2168135433070866
21
-3.6634991338582674
0
LINE
8
BLACK
6
CONTINUOUS
10
5.1894695669291337
20
-3.1815611417322835
11
6.488682165354331
21
-3.1815611417322835
0
LINE
8
BLACK
6
CONTINUOUS
10
6.488682165354331
20
-3.1815611417322835
11
7.0484262204724404
21
-3.1815611417322835
0
LINE
8
BLACK
6
CONTINUOUS
10
7.0484262204724404
20
-3.1815611417322835
11
7.0487800787401573
21
-3.1815737795275592
0
LINE
8
BLACK
6
CONTINUOUS
10
7.0487800787401573
20
-3.1815737795275592
11
7.0594555905511811
21
-3.1823372834645669
0
LINE
8
BLACK
6
CONTINUOUS
10
7.0594555905511811
20
-3.1823372834645669
11
7.0601561811023616
21
-3.1824379921259842
0
LINE
8
BLACK
6
CONTINUOUS
10
7.0601561811023616
20
-3.1824379921259842
11
7.0704401968503934
21
-3.1846751968503937
0
LINE
8
BLACK
6
CONTINUOUS
10
7.0704401968503934
20
-3.1846751968503937
11
7.0711192913385821
21
-3.1848745669291336
0
LINE
8
BLACK
6
CONTINUOUS
10
7.0711192913385821
20
-3.1848745669291336
11
7.0809808267716532
21
-3.1885527165354328
0
LINE
8
BLACK
6
CONTINUOUS
10
7.0809808267716532
20
-3.1885527165354328
11
7.0816246850393698
21
-3.1888467716535431
0
LINE
8
BLACK
6
CONTINUOUS
10
7.0816246850393698
20
-3.1888467716535431
11
7.0908622834645669
21
-3.193890905511811
0
LINE
8
BLACK
6
CONTINUOUS
10
7.0908622834645669
20
-3.193890905511811
11
7.0914576771653541
21
-3.1942735433070863
0
LINE
8
BLACK
6
CONTINUOUS
10
7.0914576771653541
20
-3.1942735433070863
11
7.0998833464566928
21
-3.2005809448818896
0
LINE
8
BLACK
6
CONTINUOUS
10
7.0998833464566928
20
-3.2005809448818896
11
7.1004182283464568
21
-3.2010444488188976
0
LINE
8
BLACK
6
CONTINUOUS
10
7.1004182283464568
20
-3.2010444488188976
11
7.1078602755905509
21
-3.2084864960629922
0
LINE
8
BLACK
6
CONTINUOUS
10
7.1078602755905509
20
-3.2084864960629922
11
7.1083237795275585
21
-3.2090213779527557
0
LINE
8
BLACK
6
CONTINUOUS
10
7.1083237795275585
20
-3.2090213779527557
11
7.1146311811023617
21
-3.2174470472440944
0
LINE
8
BLACK
6
CONTINUOUS
10
7.1146311811023617
20
-3.2174470472440944
11
7.115013818897638
21
-3.218042440944882
0
LINE
8
BLACK
6
CONTINUOUS
10
7.115013818897638
20
-3.218042440944882
11
7.1200579527559054
21
-3.2272800393700787
0
LINE
8
BLACK
6
CONTINUOUS
10
7.1200579527559054
20
-3.2272800393700787
11
7.1203520078740157
21
-3.2279238976377953
0
LINE
8
BLACK
6
CONTINUOUS
10
7.1203520078740157
20
-3.2279238976377953
11
7.1240301574803144
21
-3.237785433070866
0
LINE
8
BLACK
6
CONTINUOUS
10
7.1240301574803144
20
-3.237785433070866
11
7.1242295275590548
21
-3.2384645275590551
0
LINE
8
BLACK
6
CONTINUOUS
10
7.1242295275590548
20
-3.2384645275590551
11
7.126466692913386
21
-3.2487485433070864
0
LINE
8
BLACK
6
CONTINUOUS
10
7.126466692913386
20
-3.2487485433070864
11
7.126567440944882
21
-3.2494491338582678
0
LINE
8
BLACK
6
CONTINUOUS
10
7.126567440944882
20
-3.2494491338582678
11
7.1273309448818898
21
-3.2601246456692912
0
LINE
8
BLACK
6
CONTINUOUS
10
7.1273309448818898
20
-3.2601246456692912
11
7.1273435826771649
21
-3.2604785039370077
0
LINE
8
BLACK
6
CONTINUOUS
10
7.1273435826771649
20
-3.2604785039370077
11
7.1273435826771649
21
-4.4082438976377949
0
LINE
8
BLACK
6
CONTINUOUS
10
7.1273435826771649
20
-4.4082438976377949
11
7.1273499212598423
21
-4.4084213779527559
0
LINE
8
BLACK
6
CONTINUOUS
10
7.1273499212598423
20
-4.4084213779527559
11
7.1281324015748027
21
-4.4193618897637794
0
LINE
8
BLACK
6
CONTINUOUS
10
7.1281324015748027
20
-4.4193618897637794
11
7.1281827559055113
21
-4.4197120866141733
0
LINE
8
BLACK
6
CONTINUOUS
10
7.1281827559055113
20
-4.4197120866141733
11
7.1304953937007873
21
-4.4303429527559057
0
LINE
8
BLACK
6
CONTINUOUS
10
7.1304953937007873
20
-4.4303429527559057
11
7.1305950787401571
21
-4.4306825984251965
0
LINE
8
BLACK
6
CONTINUOUS
10
7.1305950787401571
20
-4.4306825984251965
11
7.1343972834645664
21
-4.4408768110236219
0
LINE
8
BLACK
6
CONTINUOUS
10
7.1343972834645664
20
-4.4408768110236219
11
7.1345439763779526
21
-4.4411979527559051
0
LINE
8
BLACK
6
CONTINUOUS
10
7.1345439763779526
20
-4.4411979527559051
11
7.1397583070866144
21
-4.4507472834645672
0
LINE
8
BLACK
6
CONTINUOUS
10
7.1397583070866144
20
-4.4507472834645672
11
7.139949645669291
21
-4.4510449999999997
0
LINE
8
BLACK
6
CONTINUOUS
10
7.139949645669291
20
-4.4510449999999997
11
7.1464696850393699
21
-4.4597547244094491
0
LINE
8
BLACK
6
CONTINUOUS
10
7.1464696850393699
20
-4.4597547244094491
11
7.1467013385826768
21
-4.4600220078740156
0
LINE
8
BLACK
6
CONTINUOUS
10
7.1467013385826768
20
-4.4600220078740156
11
7.154394527559055
21
-4.4677151968503939
0
LINE
8
BLACK
6
CONTINUOUS
10
7.154394527559055
20
-4.4677151968503939
11
7.1546618110236215
21
-4.4679468503937008
0
LINE
8
BLACK
6
CONTINUOUS
10
7.1546618110236215
20
-4.4679468503937008
11
7.1633715354330709
21
-4.4744668897637796
0
LINE
8
BLACK
6
CONTINUOUS
10
7.1633715354330709
20
-4.4744668897637796
11
7.1636692519685035
21
-4.4746582283464562
0
LINE
8
BLACK
6
CONTINUOUS
10
7.1636692519685035
20
-4.4746582283464562
11
7.1732185826771655
21
-4.4798725984251968
0
LINE
8
BLACK
6
CONTINUOUS
10
7.1732185826771655
20
-4.4798725984251968
11
7.173539527559055
21
-4.480019133858268
0
LINE
8
BLACK
6
CONTINUOUS
10
7.173539527559055
20
-4.480019133858268
11
7.1776054330708661
21
-4.4815356299212601
0
LINE
8
BLACK
6
CONTINUOUS
10
7.1776054330708661
20
-4.4815356299212601
11
7.1791272834645667
21
-4.482674921259842
0
LINE
8
BLACK
6
CONTINUOUS
10
7.1791272834645667
20
-4.482674921259842
11
7.1791748425196849
21
-4.4826200393700786
0
LINE
8
BLACK
6
CONTINUOUS
10
7.1791748425196849
20
-4.4826200393700786
11
7.1803303937007872
21
-4.4836213385826769
0
LINE
8
BLACK
6
CONTINUOUS
10
7.1803303937007872
20
-4.4836213385826769
11
7.1806328740157479
21
-4.4836871259842521
0
LINE
8
BLACK
6
CONTINUOUS
10
7.1806328740157479
20
-4.4836871259842521
11
7.1825632283464564
21
-4.4836871259842521
0
LINE
8
BLACK
6
CONTINUOUS
10
7.1825632283464564
20
-4.4836871259842521
11
7.1839606692913387
21
-4.483888031496063
0
LINE
8
BLACK
6
CONTINUOUS
10
7.1839606692913387
20
-4.483888031496063
11
7.1840228346456687
21
-4.4839062598425192
0
LINE
8
BLACK
6
CONTINUOUS
10
7.1840228346456687
20
-4.4839062598425192
11
7.1840731496062986
21
-4.4839210629921258
0
LINE
8
BLACK
6
CONTINUOUS
10
7.1840731496062986
20
-4.4839210629921258
11
7.1858653543307085
21
-4.4843109448818899
0
LINE
8
BLACK
6
CONTINUOUS
10
7.1858653543307085
20
-4.4843109448818899
11
7.1947044488188974
21
-4.4862337795275593
0
LINE
8
BLACK
6
CONTINUOUS
10
7.1947044488188974
20
-4.4862337795275593
11
7.1950546456692912
21
-4.486284133858268
0
LINE
8
BLACK
6
CONTINUOUS
10
7.1950546456692912
20
-4.486284133858268
11
7.2059951574803147
21
-4.4870666141732283
0
LINE
8
BLACK
6
CONTINUOUS
10
7.2059951574803147
20
-4.4870666141732283
11
7.206172598425197
21
-4.4870729133858269
0
LINE
8
BLACK
6
CONTINUOUS
10
7.206172598425197
20
-4.4870729133858269
11
7.2413396062992126
21
-4.4870729527559057
0
LINE
8
BLACK
6
CONTINUOUS
10
7.2413396062992126
20
-4.4870729527559057
11
7.2416934645669286
21
-4.4870855905511808
0
LINE
8
BLACK
6
CONTINUOUS
10
7.2416934645669286
20
-4.4870855905511808
11
7.2523689763779524
21
-4.4878490944881886
0
LINE
8
BLACK
6
CONTINUOUS
10
7.2523689763779524
20
-4.4878490944881886
11
7.2530695669291338
21
-4.4879498425196847
0
LINE
8
BLACK
6
CONTINUOUS
10
7.2530695669291338
20
-4.4879498425196847
11
7.2633535826771656
21
-4.4901870078740158
0
LINE
8
BLACK
6
CONTINUOUS
10
7.2633535826771656
20
-4.4901870078740158
11
7.2640326771653543
21
-4.4903863779527562
0
LINE
8
BLACK
6
CONTINUOUS
10
7.2640326771653543
20
-4.4903863779527562
11
7.2738942125984254
21
-4.4940645669291337
0
LINE
8
BLACK
6
CONTINUOUS
10
7.2738942125984254
20
-4.4940645669291337
11
7.2745380708661411
21
-4.4943585826771653
0
LINE
8
BLACK
6
CONTINUOUS
10
7.2745380708661411
20
-4.4943585826771653
11
7.2837756692913382
21
-4.4994027165354327
0
LINE
8
BLACK
6
CONTINUOUS
10
7.2837756692913382
20
-4.4994027165354327
11
7.2843710629921254
21
-4.4997853543307089
0
LINE
8
BLACK
6
CONTINUOUS
10
7.2843710629921254
20
-4.4997853543307089
11
7.2927967322834641
21
-4.5060927559055113
0
LINE
8
BLACK
6
CONTINUOUS
10
7.2927967322834641
20
-4.5060927559055113
11
7.2933316141732281
21
-4.5065562598425197
0
LINE
8
BLACK
6
CONTINUOUS
10
7.2933316141732281
20
-4.5065562598425197
11
7.3007736614173231
21
-4.5139983070866139
0
LINE
8
BLACK
6
CONTINUOUS
10
7.3007736614173231
20
-4.5139983070866139
11
7.3012371653543306
21
-4.5145331889763778
0
LINE
8
BLACK
6
CONTINUOUS
10
7.3012371653543306
20
-4.5145331889763778
11
7.3075445669291339
21
-4.5229588582677165
0
LINE
8
BLACK
6
CONTINUOUS
10
7.3075445669291339
20
-4.5229588582677165
11
7.3079272047244093
21
-4.5235542519685037
0
LINE
8
BLACK
6
CONTINUOUS
10
7.3079272047244093
20
-4.5235542519685037
11
7.3129713385826767
21
-4.5327918503937008
0
LINE
8
BLACK
6
CONTINUOUS
10
7.3129713385826767
20
-4.5327918503937008
11
7.313265393700787
21
-4.5334357086614174
0
LINE
8
BLACK
6
CONTINUOUS
10
7.313265393700787
20
-4.5334357086614174
11
7.3169435433070866
21
-4.5432972047244098
0
LINE
8
BLACK
6
CONTINUOUS
10
7.3169435433070866
20
-4.5432972047244098
11
7.317142913385827
21
-4.5439763385826772
0
LINE
8
BLACK
6
CONTINUOUS
10
7.317142913385827
20
-4.5439763385826772
11
7.3193800787401573
21
-4.554260354330709
0
LINE
8
BLACK
6
CONTINUOUS
10
7.3193800787401573
20
-4.554260354330709
11
7.3194807874015746
21
-4.5549609448818895
0
LINE
8
BLACK
6
CONTINUOUS
10
7.3194807874015746
20
-4.5549609448818895
11
7.3202443307086611
21
-4.5656364566929133
0
LINE
8
BLACK
6
CONTINUOUS
10
7.3202443307086611
20
-4.5656364566929133
11
7.3202569685039371
21
-4.5659903149606302
0
LINE
8
BLACK
6
CONTINUOUS
10
7.3202569685039371
20
-4.5659903149606302
11
7.3202569685039371
21
-4.8569744881889765
0
LINE
8
BLACK
6
CONTINUOUS
10
7.3202569685039371
20
-4.8569744881889765
11
7.3202443307086611
21
-4.8573283464566925
0
LINE
8
BLACK
6
CONTINUOUS
10
7.3202443307086611
20
-4.8573283464566925
11
7.3194807874015746
21
-4.8680038582677163
0
LINE
8
BLACK
6
CONTINUOUS
10
7.3194807874015746
20
-4.8680038582677163
11
7.3193800787401573
21
-4.8687044488188977
0
LINE
8
BLACK
6
CONTINUOUS
10
7.3193800787401573
20
-4.8687044488188977
11
7.317142913385827
21
-4.8789884645669286
0
LINE
8
BLACK
6
CONTINUOUS
10
7.317142913385827
20
-4.8789884645669286
11
7.3169435433070866
21
-4.8796675984251969
0
LINE
8
BLACK
6
CONTINUOUS
10
7.3169435433070866
20
-4.8796675984251969
11
7.313265393700787
21
-4.8895290944881893
0
LINE
8
BLACK
6
CONTINUOUS
10
7.313265393700787
20
-4.8895290944881893
11
7.3129713385826767
21
-4.890172952755905
0
LINE
8
BLACK
6
CONTINUOUS
10
7.3129713385826767
20
-4.890172952755905
11
7.3079272047244093
21
-4.8994105511811021
0
LINE
8
BLACK
6
CONTINUOUS
10
7.3079272047244093
20
-4.8994105511811021
11
7.3075445669291339
21
-4.9000059448818893
0
LINE
8
BLACK
6
CONTINUOUS
10
7.3075445669291339
20
-4.9000059448818893
11
7.3012371653543306
21
-4.908431614173228
0
LINE
8
BLACK
6
CONTINUOUS
10
7.3012371653543306
20
-4.908431614173228
11
7.3007736614173231
21
-4.908966496062992
0
LINE
8
BLACK
6
CONTINUOUS
10
7.3007736614173231
20
-4.908966496062992
11
7.2933316141732281
21
-4.9164085433070861
0
LINE
8
BLACK
6
CONTINUOUS
10
7.2933316141732281
20
-4.9164085433070861
11
7.2927967322834641
21
-4.9168720472440945
0
LINE
8
BLACK
6
CONTINUOUS
10
7.2927967322834641
20
-4.9168720472440945
11
7.2843710629921254
21
-4.9231794488188978
0
LINE
8
BLACK
6
CONTINUOUS
10
7.2843710629921254
20
-4.9231794488188978
11
7.2837756692913382
21
-4.9235620866141732
0
LINE
8
BLACK
6
CONTINUOUS
10
7.2837756692913382
20
-4.9235620866141732
11
7.2745380708661411
21
-4.9286062204724406
0
LINE
8
BLACK
6
CONTINUOUS
10
7.2745380708661411
20
-4.9286062204724406
11
7.2738942125984254
21
-4.9289002362204721
0
LINE
8
BLACK
6
CONTINUOUS
10
7.2738942125984254
20
-4.9289002362204721
11
7.2640326771653543
21
-4.9325784251968505
0
LINE
8
BLACK
6
CONTINUOUS
10
7.2640326771653543
20
-4.9325784251968505
11
7.2633535826771656
21
-4.93277779527559
0
LINE
8
BLACK
6
CONTINUOUS
10
7.2633535826771656
20
-4.93277779527559
11
7.2530695669291338
21
-4.9350149606299212
0
LINE
8
BLACK
6
CONTINUOUS
10
7.2530695669291338
20
-4.9350149606299212
11
7.2523689763779524
21
-4.9351157086614172
0
LINE
8
BLACK
6
CONTINUOUS
10
7.2523689763779524
20
-4.9351157086614172
11
7.2416934645669286
21
-4.935879212598425
0
LINE
8
BLACK
6
CONTINUOUS
10
7.2416934645669286
20
-4.935879212598425
11
7.2413396062992126
21
-4.935891850393701
0
LINE
8
BLACK
6
CONTINUOUS
10
7.2413396062992126
20
-4.935891850393701
11
7.2123167322834645
21
-4.935891850393701
0
LINE
8
BLACK
6
CONTINUOUS
10
7.2123167322834645
20
-4.935891850393701
11
7.2099588582677168
21
-4.937195
0
LINE
8
BLACK
6
CONTINUOUS
10
7.2099588582677168
20
-4.937195
11
7.1969062992125981
21
-4.9426015748031498
0
LINE
8
BLACK
6
CONTINUOUS
10
7.1969062992125981
20
-4.9426015748031498
11
7.1833304724409448
21
-4.9465126771653543
0
LINE
8
BLACK
6
CONTINUOUS
10
7.1833304724409448
20
-4.9465126771653543
11
7.1694020866141734
21
-4.9488792125984249
0
LINE
8
BLACK
6
CONTINUOUS
10
7.1694020866141734
20
-4.9488792125984249
11
7.1552963385826773
21
-4.9496713779527557
0
LINE
8
BLACK
6
CONTINUOUS
10
7.1552963385826773
20
-4.9496713779527557
11
7.1411905905511812
21
-4.9488792125984249
0
LINE
8
BLACK
6
CONTINUOUS
10
7.1411905905511812
20
-4.9488792125984249
11
7.127262204724409
21
-4.9465126771653543
0
LINE
8
BLACK
6
CONTINUOUS
10
7.127262204724409
20
-4.9465126771653543
11
7.1136863779527557
21
-4.9426015748031498
0
LINE
8
BLACK
6
CONTINUOUS
10
7.1136863779527557
20
-4.9426015748031498
11
7.1006338188976379
21
-4.937195
0
LINE
8
BLACK
6
CONTINUOUS
10
7.1006338188976379
20
-4.937195
11
7.0982759448818893
21
-4.935891850393701
0
LINE
8
BLACK
6
CONTINUOUS
10
7.0982759448818893
20
-4.935891850393701
11
6.3361022440944881
21
-4.935891850393701
0
LINE
8
BLACK
6
CONTINUOUS
10
6.3361022440944881
20
-4.935891850393701
11
6.335908267716535
21
-4.9358994488188976
0
LINE
8
BLACK
6
CONTINUOUS
10
6.335908267716535
20
-4.9358994488188976
11
6.3269610236220473
21
-4.9366036220472438
0
LINE
8
BLACK
6
CONTINUOUS
10
6.3269610236220473
20
-4.9366036220472438
11
6.3265772047244093
21
-4.9366643700787405
0
LINE
8
BLACK
6
CONTINUOUS
10
6.3265772047244093
20
-4.9366643700787405
11
6.3179454330708662
21
-4.9387367322834645
0
LINE
8
BLACK
6
CONTINUOUS
10
6.3179454330708662
20
-4.9387367322834645
11
6.3175759448818898
21
-4.9388567716535432
0
LINE
8
BLACK
6
CONTINUOUS
10
6.3175759448818898
20
-4.9388567716535432
11
6.3093745275590551
21
-4.9422538976377952
0
LINE
8
BLACK
6
CONTINUOUS
10
6.3093745275590551
20
-4.9422538976377952
11
6.3090282677165357
21
-4.9424303543307087
0
LINE
8
BLACK
6
CONTINUOUS
10
6.3090282677165357
20
-4.9424303543307087
11
6.3014596062992121
21
-4.9470684645669287
0
LINE
8
BLACK
6
CONTINUOUS
10
6.3014596062992121
20
-4.9470684645669287
11
6.3011449212598425
21
-4.9472970866141734
0
LINE
8
BLACK
6
CONTINUOUS
10
6.3011449212598425
20
-4.9472970866141734
11
6.2943948818897635
21
-4.9530622047244091
0
LINE
8
BLACK
6
CONTINUOUS
10
6.2943948818897635
20
-4.9530622047244091
11
6.294120236220472
21
-4.9533368503937005
0
LINE
8
BLACK
6
CONTINUOUS
10
6.294120236220472
20
-4.9533368503937005
11
6.2883551181102364
21
-4.9600868897637795
0
LINE
8
BLACK
6
CONTINUOUS
10
6.2883551181102364
20
-4.9600868897637795
11
6.2881264960629917
21
-4.9604015748031491
0
LINE
8
BLACK
6
CONTINUOUS
10
6.2881264960629917
20
-4.9604015748031491
11
6.2834883858267716
21
-4.9679702362204727
0
LINE
8
BLACK
6
CONTINUOUS
10
6.2834883858267716
20
-4.9679702362204727
11
6.2833119291338582
21
-4.9683164960629922
0
LINE
8
BLACK
6
CONTINUOUS
10
6.2833119291338582
20
-4.9683164960629922
11
6.2799148031496062
21
-4.9765179133858268
0
LINE
8
BLACK
6
CONTINUOUS
10
6.2799148031496062
20
-4.9765179133858268
11
6.2797947637795275
21
-4.9768874015748032
0
LINE
8
BLACK
6
CONTINUOUS
10
6.2797947637795275
20
-4.9768874015748032
11
6.2777223622047247
21
-4.9855192125984251
0
LINE
8
BLACK
6
CONTINUOUS
10
6.2777223622047247
20
-4.9855192125984251
11
6.2776616535433067
21
-4.9859029527559056
0
LINE
8
BLACK
6
CONTINUOUS
10
6.2776616535433067
20
-4.9859029527559056
11
6.2769574803149606
21
-4.9948502362204721
0
LINE
8
BLACK
6
CONTINUOUS
10
6.2769574803149606
20
-4.9948502362204721
11
6.276949881889764
21
-4.9950441732283464
0
LINE
8
BLACK
6
CONTINUOUS
10
6.276949881889764
20
-4.9950441732283464
11
6.2769499212598427
21
-5.0183738976377947
0
LINE
8
BLACK
6
CONTINUOUS
10
6.2769499212598427
20
-5.0183738976377947
11
6.2769346062992124
21
-5.01876311023622
0
LINE
8
BLACK
6
CONTINUOUS
10
6.2769346062992124
20
-5.01876311023622
11
6.2762534645669286
21
-5.0274181102362201
0
LINE
8
BLACK
6
CONTINUOUS
10
6.2762534645669286
20
-5.0274181102362201
11
6.2761316929133857
21
-5.0281869685039373
0
LINE
8
BLACK
6
CONTINUOUS
10
6.2761316929133857
20
-5.0281869685039373
11
6.2741506692913385
21
-5.0364384645669293
0
LINE
8
BLACK
6
CONTINUOUS
10
6.2741506692913385
20
-5.0364384645669293
11
6.2739101181102361
21
-5.0371787795275589
0
LINE
8
BLACK
6
CONTINUOUS
10
6.2739101181102361
20
-5.0371787795275589
11
6.2706626377952759
21
-5.0450189370078737
0
LINE
8
BLACK
6
CONTINUOUS
10
6.2706626377952759
20
-5.0450189370078737
11
6.2703092125984252
21
-5.0457125590551177
0
LINE
8
BLACK
6
CONTINUOUS
10
6.2703092125984252
20
-5.0457125590551177
11
6.2658753149606294
21
-5.0529479133858271
0
LINE
8
BLACK
6
CONTINUOUS
10
6.2658753149606294
20
-5.0529479133858271
11
6.2654177952755905
21
-5.0535776377952759
0
LINE
8
BLACK
6
CONTINUOUS
10
6.2654177952755905
20
-5.0535776377952759
11
6.259906574803149
21
-5.0600304330708656
0
LINE
8
BLACK
6
CONTINUOUS
10
6.259906574803149
20
-5.0600304330708656
11
6.2593561811023619
21
-5.0605808267716537
0
LINE
8
BLACK
6
CONTINUOUS
10
6.2593561811023619
20
-5.0605808267716537
11
6.2529033858267713
21
-5.0660920472440942
0
LINE
8
BLACK
6
CONTINUOUS
10
6.2529033858267713
20
-5.0660920472440942
11
6.2522736614173224
21
-5.0665495669291341
0
LINE
8
BLACK
6
CONTINUOUS
10
6.2522736614173224
20
-5.0665495669291341
11
6.245038307086614
21
-5.0709834645669289
0
LINE
8
BLACK
6
CONTINUOUS
10
6.245038307086614
20
-5.0709834645669289
11
6.24434468503937
21
-5.0713368897637796
0
LINE
8
BLACK
6
CONTINUOUS
10
6.24434468503937
20
-5.0713368897637796
11
6.2365045275590552
21
-5.0745843700787399
0
LINE
8
BLACK
6
CONTINUOUS
10
6.2365045275590552
20
-5.0745843700787399
11
6.2357642125984247
21
-5.0748249212598422
0
LINE
8
BLACK
6
CONTINUOUS
10
6.2357642125984247
20
-5.0748249212598422
11
6.2275127165354327
21
-5.0768059448818894
0
LINE
8
BLACK
6
CONTINUOUS
10
6.2275127165354327
20
-5.0768059448818894
11
6.2267438582677164
21
-5.0769277165354332
0
LINE
8
BLACK
6
CONTINUOUS
10
6.2267438582677164
20
-5.0769277165354332
11
6.2180888582677163
21
-5.0776088582677161
0
LINE
8
BLACK
6
CONTINUOUS
10
6.2180888582677163
20
-5.0776088582677161
11
6.217699645669291
21
-5.0776241732283465
0
LINE
8
BLACK
6
CONTINUOUS
10
6.217699645669291
20
-5.0776241732283465
11
5.1350601181102364
21
-5.0776241338582677
0
LINE
8
BLACK
6
CONTINUOUS
10
5.1350601181102364
20
-5.0776241338582677
11
3.8349272834645669
21
-5.0776241338582677
0
LINE
8
BLACK
6
CONTINUOUS
10
3.8349272834645669
20
-5.0776241338582677
11
3.7180719685039367
21
-5.0776241338582677
0
LINE
8
BLACK
6
CONTINUOUS
10
3.7180719685039367
20
-5.0776241338582677
11
3.7177181102362202
21
-5.0776115354330704
0
LINE
8
BLACK
6
CONTINUOUS
10
3.7177181102362202
20
-5.0776115354330704
11
3.7070425984251969
21
-5.0768479921259839
0
LINE
8
BLACK
6
CONTINUOUS
10
3.7070425984251969
20
-5.0768479921259839
11
3.7063420078740155
21
-5.0767472440944879
0
LINE
8
BLACK
6
CONTINUOUS
10
3.7063420078740155
20
-5.0767472440944879
11
3.6960579921259842
21
-5.0745100787401576
0
LINE
8
BLACK
6
CONTINUOUS
10
3.6960579921259842
20
-5.0745100787401576
11
3.695378897637795
21
-5.0743107086614172
0
LINE
8
BLACK
6
CONTINUOUS
10
3.695378897637795
20
-5.0743107086614172
11
3.6855173622047244
21
-5.0706325590551176
0
LINE
8
BLACK
6
CONTINUOUS
10
3.6855173622047244
20
-5.0706325590551176
11
3.6848735039370077
21
-5.0703385039370081
0
LINE
8
BLACK
6
CONTINUOUS
10
3.6848735039370077
20
-5.0703385039370081
11
3.6756359055118111
21
-5.0652943700787398
0
LINE
8
BLACK
6
CONTINUOUS
10
3.6756359055118111
20
-5.0652943700787398
11
3.6750405118110234
21
-5.0649117322834645
0
LINE
8
BLACK
6
CONTINUOUS
10
3.6750405118110234
20
-5.0649117322834645
11
3.6666148425196852
21
-5.0586043307086612
0
LINE
8
BLACK
6
CONTINUOUS
10
3.6666148425196852
20
-5.0586043307086612
11
3.6660799606299213
21
-5.0581408267716537
0
LINE
8
BLACK
6
CONTINUOUS
10
3.6660799606299213
20
-5.0581408267716537
11
3.6586379133858267
21
-5.0506987795275586
0
LINE
8
BLACK
6
CONTINUOUS
10
3.6586379133858267
20
-5.0506987795275586
11
3.6581744094488187
21
-5.0501638976377947
0
LINE
8
BLACK
6
CONTINUOUS
10
3.6581744094488187
20
-5.0501638976377947
11
3.6518670078740159
21
-5.0417382283464569
0
LINE
8
BLACK
6
CONTINUOUS
10
3.6518670078740159
20
-5.0417382283464569
11
3.65148437007874
21
-5.0411428346456688
0
LINE
8
BLACK
6
CONTINUOUS
10
3.65148437007874
20
-5.0411428346456688
11
3.6464402362204722
21
-5.0319052362204726
0
LINE
8
BLACK
6
CONTINUOUS
10
3.6464402362204722
20
-5.0319052362204726
11
3.6461461811023623
21
-5.031261377952756
0
LINE
8
BLACK
6
CONTINUOUS
10
3.6461461811023623
20
-5.031261377952756
11
3.6424680708661414
21
-5.0213998425196849
0
LINE
8
BLACK
6
CONTINUOUS
10
3.6424680708661414
20
-5.0213998425196849
11
3.642268622047244
21
-5.0207207480314962
0
LINE
8
BLACK
6
CONTINUOUS
10
3.642268622047244
20
-5.0207207480314962
11
3.640212834645669
21
-5.0112704724409447
0
LINE
8
BLACK
6
CONTINUOUS
10
3.640212834645669
20
-5.0112704724409447
11
3.6400994881889761
21
-5.0102159842519685
0
LINE
8
BLACK
6
CONTINUOUS
10
3.6400994881889761
20
-5.0102159842519685
11
3.6400994881889761
21
-4.7119614173228346
0
LINE
8
BLACK
6
CONTINUOUS
10
3.6400994881889761
20
-4.7119614173228346
11
3.640212834645669
21
-4.7109069685039371
0
LINE
8
BLACK
6
CONTINUOUS
10
3.640212834645669
20
-4.7109069685039371
11
3.6422686614173228
21
-4.7014566535433069
0
LINE
8
BLACK
6
CONTINUOUS
10
3.6422686614173228
20
-4.7014566535433069
11
3.6424680314960631
21
-4.7007775590551182
0
LINE
8
BLACK
6
CONTINUOUS
10
3.6424680314960631
20
-4.7007775590551182
11
3.6461461811023623
21
-4.6909160236220471
0
LINE
8
BLACK
6
CONTINUOUS
10
3.6461461811023623
20
-4.6909160236220471
11
3.6464402362204722
21
-4.6902721653543304
0
LINE
8
BLACK
6
CONTINUOUS
10
3.6464402362204722
20
-4.6902721653543304
11
3.65148437007874
21
-4.6810345669291333
0
LINE
8
BLACK
6
CONTINUOUS
10
3.65148437007874
20
-4.6810345669291333
11
3.6518670078740159
21
-4.6804391732283461
0
LINE
8
BLACK
6
CONTINUOUS
10
3.6518670078740159
20
-4.6804391732283461
11
3.6581744094488187
21
-4.6720135039370074
0
LINE
8
BLACK
6
CONTINUOUS
10
3.6581744094488187
20
-4.6720135039370074
11
3.6586379133858267
21
-4.6714786220472444
0
LINE
8
BLACK
6
CONTINUOUS
10
3.6586379133858267
20
-4.6714786220472444
11
3.6660799606299213
21
-4.6640365748031494
0
LINE
8
BLACK
6
CONTINUOUS
10
3.6660799606299213
20
-4.6640365748031494
11
3.6666148425196852
21
-4.6635730708661418
0
LINE
8
BLACK
6
CONTINUOUS
10
3.6666148425196852
20
-4.6635730708661418
11
3.6750405118110234
21
-4.6572656692913386
0
LINE
8
BLACK
6
CONTINUOUS
10
3.6750405118110234
20
-4.6572656692913386
11
3.6756359055118111
21
-4.6568830314960632
0
LINE
8
BLACK
6
CONTINUOUS
10
3.6756359055118111
20
-4.6568830314960632
11
3.6848735039370077
21
-4.6518389370078737
0
LINE
8
BLACK
6
CONTINUOUS
10
3.6848735039370077
20
-4.6518389370078737
11
3.6855173622047244
21
-4.6515448425196846
0
LINE
8
BLACK
6
CONTINUOUS
10
3.6855173622047244
20
-4.6515448425196846
11
3.695378897637795
21
-4.6478666929133858
0
LINE
8
BLACK
6
CONTINUOUS
10
3.695378897637795
20
-4.6478666929133858
11
3.6960579921259842
21
-4.6476673228346455
0
LINE
8
BLACK
6
CONTINUOUS
10
3.6960579921259842
20
-4.6476673228346455
11
3.7063420078740155
21
-4.6454301574803152
0
LINE
8
BLACK
6
CONTINUOUS
10
3.7063420078740155
20
-4.6454301574803152
11
3.7070425590551181
21
-4.6453294094488191
0
LINE
8
BLACK
6
CONTINUOUS
10
3.7070425590551181
20
-4.6453294094488191
11
3.7289238582677164
21
-4.6437644094488189
0
LINE
8
BLACK
6
CONTINUOUS
10
3.7289238582677164
20
-4.6437644094488189
11
3.7292740551181103
21
-4.6437140944881889
0
LINE
8
BLACK
6
CONTINUOUS
10
3.7292740551181103
20
-4.6437140944881889
11
3.7399049212598423
21
-4.6414014960629917
0
LINE
8
BLACK
6
CONTINUOUS
10
3.7399049212598423
20
-4.6414014960629917
11
3.740244566929134
21
-4.6413017716535432
0
LINE
8
BLACK
6
CONTINUOUS
10
3.740244566929134
20
-4.6413017716535432
11
3.7504387795275589
21
-4.6374995275590551
0
LINE
8
BLACK
6
CONTINUOUS
10
3.7504387795275589
20
-4.6374995275590551
11
3.7507599212598426
21
-4.6373528740157477
0
LINE
8
BLACK
6
CONTINUOUS
10
3.7507599212598426
20
-4.6373528740157477
11
3.7603092519685037
21
-4.6321385433070867
0
LINE
8
BLACK
6
CONTINUOUS
10
3.7603092519685037
20
-4.6321385433070867
11
3.7606069685039367
21
-4.631947244094488
0
LINE
8
BLACK
6
CONTINUOUS
10
3.7606069685039367
20
-4.631947244094488
11
3.7693166929133857
21
-4.6254271259842517
0
LINE
8
BLACK
6
CONTINUOUS
10
3.7693166929133857
20
-4.6254271259842517
11
3.7695839763779526
21
-4.6251955511811023
0
LINE
8
BLACK
6
CONTINUOUS
10
3.7695839763779526
20
-4.6251955511811023
11
3.7772772047244092
21
-4.6175023228346452
0
LINE
8
BLACK
6
CONTINUOUS
10
3.7772772047244092
20
-4.6175023228346452
11
3.7775088188976378
21
-4.6172350393700787
0
LINE
8
BLACK
6
CONTINUOUS
10
3.7775088188976378
20
-4.6172350393700787
11
3.7840288976377954
21
-4.6085253149606302
0
LINE
8
BLACK
6
CONTINUOUS
10
3.7840288976377954
20
-4.6085253149606302
11
3.7842201968503937
21
-4.6082275984251968
0
LINE
8
BLACK
6
CONTINUOUS
10
3.7842201968503937
20
-4.6082275984251968
11
3.7850625590551181
21
-4.6066848425196847
0
LINE
8
BLACK
6
CONTINUOUS
10
3.7850625590551181
20
-4.6066848425196847
11
3.7852888976377952
21
-4.6062703937007869
0
LINE
8
BLACK
6
CONTINUOUS
10
3.7852888976377952
20
-4.6062703937007869
11
3.7852888976377952
21
-4.6062703543307082
0
LINE
8
BLACK
6
CONTINUOUS
10
3.7852888976377952
20
-4.6062703543307082
11
3.7866994881889764
21
-4.6036871259842522
0
LINE
8
BLACK
6
CONTINUOUS
10
3.7866994881889764
20
-4.6036871259842522
11
3.7867793700787402
21
-4.603730748031496
0
LINE
8
BLACK
6
CONTINUOUS
10
3.7867793700787402
20
-4.603730748031496
11
3.7870029133858267
21
-4.6031314960629919
0
LINE
8
BLACK
6
CONTINUOUS
10
3.7870029133858267
20
-4.6031314960629919
11
3.7894345275590551
21
-4.5986782677165357
0
LINE
8
BLACK
6
CONTINUOUS
10
3.7894345275590551
20
-4.5986782677165357
11
3.7895811811023621
21
-4.5983571259842515
0
LINE
8
BLACK
6
CONTINUOUS
10
3.7895811811023621
20
-4.5983571259842515
11
3.7933834251968501
21
-4.588162913385827
0
LINE
8
BLACK
6
CONTINUOUS
10
3.7933834251968501
20
-4.588162913385827
11
3.7934831496062991
21
-4.5878232677165354
0
LINE
8
BLACK
6
CONTINUOUS
10
3.7934831496062991
20
-4.5878232677165354
11
3.7957957480314959
21
-4.5771924015748029
0
LINE
8
BLACK
6
CONTINUOUS
10
3.7957957480314959
20
-4.5771924015748029
11
3.7958461023622045
21
-4.5768422047244091
0
LINE
8
BLACK
6
CONTINUOUS
10
3.7958461023622045
20
-4.5768422047244091
11
3.7966285826771653
21
-4.5659016929133855
0
LINE
8
BLACK
6
CONTINUOUS
10
3.7966285826771653
20
-4.5659016929133855
11
3.7966349212598423
21
-4.5657242519685042
0
LINE
8
BLACK
6
CONTINUOUS
10
3.7966349212598423
20
-4.5657242519685042
11
3.7966349212598423
21
-3.4783329527559053
0
LINE
8
BLACK
6
CONTINUOUS
10
3.7966349212598423
20
-3.4783329527559053
11
3.7966348818897635
21
-3.4783327952755903
0
LINE
8
BLACK
6
CONTINUOUS
10
3.7966348818897635
20
-3.4783327952755903
11
3.7966349212598423
21
-3.2604785039370077
0
LINE
8
BLACK
6
CONTINUOUS
10
3.7966349212598423
20
-3.2604785039370077
11
3.7966475590551179
21
-3.2601246456692912
0
LINE
8
BLACK
6
CONTINUOUS
10
3.7966475590551179
20
-3.2601246456692912
11
3.7974110629921261
21
-3.2494491338582678
0
LINE
8
BLACK
6
CONTINUOUS
10
3.7974110629921261
20
-3.2494491338582678
11
3.7975118110236221
21
-3.2487485433070864
0
LINE
8
BLACK
6
CONTINUOUS
10
3.7975118110236221
20
-3.2487485433070864
11
3.7997489370078741
21
-3.2384645275590551
0
LINE
8
BLACK
6
CONTINUOUS
10
3.7997489370078741
20
-3.2384645275590551
11
3.7999483464566928
21
-3.237785433070866
0
LINE
8
BLACK
6
CONTINUOUS
10
3.7999483464566928
20
-3.237785433070866
11
3.803626496062992
21
-3.2279238976377953
0
LINE
8
BLACK
6
CONTINUOUS
10
3.803626496062992
20
-3.2279238976377953
11
3.8039205511811023
21
-3.2272800393700787
0
LINE
8
BLACK
6
CONTINUOUS
10
3.8039205511811023
20
-3.2272800393700787
11
3.8089646850393701
21
-3.218042440944882
0
LINE
8
BLACK
6
CONTINUOUS
10
3.8089646850393701
20
-3.218042440944882
11
3.8093473228346455
21
-3.2174470472440944
0
LINE
8
BLACK
6
CONTINUOUS
10
3.8093473228346455
20
-3.2174470472440944
11
3.8156547244094488
21
-3.2090213779527557
0
LINE
8
BLACK
6
CONTINUOUS
10
3.8156547244094488
20
-3.2090213779527557
11
3.8161182283464568
21
-3.2084864960629922
0
LINE
8
BLACK
6
CONTINUOUS
10
3.8161182283464568
20
-3.2084864960629922
11
3.8235602755905509
21
-3.2010444488188976
0
LINE
8
BLACK
6
CONTINUOUS
10
3.8235602755905509
20
-3.2010444488188976
11
3.8240951574803148
21
-3.2005809448818896
0
LINE
8
BLACK
6
CONTINUOUS
10
3.8240951574803148
20
-3.2005809448818896
11
3.8325208267716535
21
-3.1942735433070863
0
LINE
8
BLACK
6
CONTINUOUS
10
3.8325208267716535
20
-3.1942735433070863
11
3.8331162204724407
21
-3.193890905511811
0
LINE
8
BLACK
6
CONTINUOUS
10
3.8331162204724407
20
-3.193890905511811
11
3.8423538188976378
21
-3.1888467716535431
0
LINE
8
BLACK
6
CONTINUOUS
10
3.8423538188976378
20
-3.1888467716535431
11
3.8429976771653545
21
-3.1885527165354328
0
LINE
8
BLACK
6
CONTINUOUS
10
3.8429976771653545
20
-3.1885527165354328
11
3.8528592125984251
21
-3.1848745669291336
0
LINE
8
BLACK
6
CONTINUOUS
10
3.8528592125984251
20
-3.1848745669291336
11
3.8535383070866143
21
-3.1846751968503937
0
LINE
8
BLACK
6
CONTINUOUS
10
3.8535383070866143
20
-3.1846751968503937
11
3.8638223228346456
21
-3.182438031496063
0
LINE
8
BLACK
6
CONTINUOUS
10
3.8638223228346456
20
-3.182438031496063
11
3.8645229133858265
21
-3.1823372440944881
0
LINE
8
BLACK
6
CONTINUOUS
10
3.8645229133858265
20
-3.1823372440944881
11
3.8751984251968503
21
-3.1815737795275592
0
LINE
8
BLACK
6
CONTINUOUS
10
3.8751984251968503
20
-3.1815737795275592
11
3.8755523228346456
21
-3.1815611417322835
0
LINE
8
BLACK
6
CONTINUOUS
10
3.8755523228346456
20
-3.1815611417322835
11
5.1894695669291337
21
-3.1815611417322835
0
LINE
8
BLACK
6
CONTINUOUS
10
5.3122254724409448
20
-3.2573879527559053
11
5.3116261023622044
21
-3.2604012204724411
0
LINE
8
BLACK
6
CONTINUOUS
10
5.3116261023622044
20
-3.2604012204724411
11
5.3099192125984249
21
-3.2629557086614174
0
LINE
8
BLACK
6
CONTINUOUS
10
5.3099192125984249
20
-3.2629557086614174
11
5.3073647244094486
21
-3.2646625984251969
0
LINE
8
BLACK
6
CONTINUOUS
10
5.3073647244094486
20
-3.2646625984251969
11
5.3043514566929133
21
-3.2652619685039368
0
LINE
8
BLACK
6
CONTINUOUS
10
5.3043514566929133
20
-3.2652619685039368
11
5.2216742913385827
21
-3.2652619685039368
0
LINE
8
BLACK
6
CONTINUOUS
10
5.2216742913385827
20
-3.2652619685039368
11
5.2216742913385827
21
-3.3479391338582678
0
LINE
8
BLACK
6
CONTINUOUS
10
5.2216742913385827
20
-3.3479391338582678
11
5.2210749212598424
21
-3.3509524015748031
0
LINE
8
BLACK
6
CONTINUOUS
10
5.2210749212598424
20
-3.3509524015748031
11
5.2193680314960629
21
-3.3535068897637794
0
LINE
8
BLACK
6
CONTINUOUS
10
5.2193680314960629
20
-3.3535068897637794
11
5.2168135433070866
21
-3.3552137795275589
0
LINE
8
BLACK
6
CONTINUOUS
10
5.2168135433070866
20
-3.3552137795275589
11
5.2138002755905513
21
-3.3558131496062993
0
LINE
8
BLACK
6
CONTINUOUS
10
5.2138002755905513
20
-3.3558131496062993
11
5.1844301968503936
21
-3.3558131496062993
0
LINE
8
BLACK
6
CONTINUOUS
10
5.1844301968503936
20
-3.3558131496062993
11
5.1844301968503936
21
-3.4266792913385826
0
LINE
8
BLACK
6
CONTINUOUS
10
5.1844301968503936
20
-3.4266792913385826
11
5.2138002755905513
21
-3.4266792913385826
0
LINE
8
BLACK
6
CONTINUOUS
10
5.2138002755905513
20
-3.4266792913385826
11
5.2168135433070866
21
-3.427278661417323
0
LINE
8
BLACK
6
CONTINUOUS
10
5.2168135433070866
20
-3.427278661417323
11
5.2193680314960629
21
-3.4289855511811025
0
LINE
8
BLACK
6
CONTINUOUS
10
5.2193680314960629
20
-3.4289855511811025
11
5.2210749212598424
21
-3.4315400393700788
0
LINE
8
BLACK
6
CONTINUOUS
10
5.2210749212598424
20
-3.4315400393700788
11
5.2216742913385827
21
-3.4345533070866141
0
LINE
8
BLACK
6
CONTINUOUS
10
5.2216742913385827
20
-3.4345533070866141
11
5.2216742913385827
21
-3.5841596062992127
0
LINE
8
BLACK
6
CONTINUOUS
10
5.2216742913385827
20
-3.5841596062992127
11
5.2210749212598424
21
-3.587172874015748
0
LINE
8
BLACK
6
CONTINUOUS
10
5.2210749212598424
20
-3.587172874015748
11
5.2193680314960629
21
-3.5897273622047243
0
LINE
8
BLACK
6
CONTINUOUS
10
5.2193680314960629
20
-3.5897273622047243
11
5.2168135433070866
21
-3.5914342519685039
0
LINE
8
BLACK
6
CONTINUOUS
10
5.2168135433070866
20
-3.5914342519685039
11
5.2138002755905513
21
-3.5920336220472442
0
LINE
8
BLACK
6
CONTINUOUS
10
5.2138002755905513
20
-3.5920336220472442
11
5.1744301968503938
21
-3.5920336220472442
0
LINE
8
BLACK
6
CONTINUOUS
10
5.1744301968503938
20
-3.5920336220472442
11
5.1714169291338585
21
-3.5914342519685039
0
LINE
8
BLACK
6
CONTINUOUS
10
5.1714169291338585
20
-3.5914342519685039
11
5.1688624409448813
21
-3.5897273622047243
0
LINE
8
BLACK
6
CONTINUOUS
10
5.1688624409448813
20
-3.5897273622047243
11
5.1671555511811018
21
-3.587172874015748
0
LINE
8
BLACK
6
CONTINUOUS
10
5.1671555511811018
20
-3.587172874015748
11
5.1665561811023624
21
-3.5841596062992127
0
LINE
8
BLACK
6
CONTINUOUS
10
5.1665561811023624
20
-3.5841596062992127
11
5.1665561811023624
21
-3.4732934251968501
0
LINE
8
BLACK
6
CONTINUOUS
10
5.1665561811023624
20
-3.4732934251968501
11
5.1601427952755907
21
-3.4732934251968501
0
LINE
8
BLACK
6
CONTINUOUS
10
5.1601427952755907
20
-3.4732934251968501
11
5.1601427952755907
21
-3.4978879133858265
0
LINE
8
BLACK
6
CONTINUOUS
10
5.1601427952755907
20
-3.4978879133858265
11
5.1601427952755907
21
-3.588439094488189
0
LINE
8
BLACK
6
CONTINUOUS
10
5.1601427952755907
20
-3.588439094488189
11
5.1595434251968504
21
-3.5914523622047243
0
LINE
8
BLACK
6
CONTINUOUS
10
5.1595434251968504
20
-3.5914523622047243
11
5.1578365354330709
21
-3.5940068503937006
0
LINE
8
BLACK
6
CONTINUOUS
10
5.1578365354330709
20
-3.5940068503937006
11
5.1552820472440946
21
-3.5957137401574801
0
LINE
8
BLACK
6
CONTINUOUS
10
5.1552820472440946
20
-3.5957137401574801
11
5.1522687795275592
21
-3.5963131102362205
0
LINE
8
BLACK
6
CONTINUOUS
10
5.1522687795275592
20
-3.5963131102362205
11
5.1128987007874018
21
-3.5963131102362205
0
LINE
8
BLACK
6
CONTINUOUS
10
5.1128987007874018
20
-3.5963131102362205
11
5.1098854330708656
21
-3.5957137401574801
0
LINE
8
BLACK
6
CONTINUOUS
10
5.1098854330708656
20
-3.5957137401574801
11
5.1073309448818893
21
-3.5940068503937006
0
LINE
8
BLACK
6
CONTINUOUS
10
5.1073309448818893
20
-3.5940068503937006
11
5.1056240551181098
21
-3.5914523622047243
0
LINE
8
BLACK
6
CONTINUOUS
10
5.1056240551181098
20
-3.5914523622047243
11
5.1050246850393703
21
-3.588439094488189
0
LINE
8
BLACK
6
CONTINUOUS
10
5.1050246850393703
20
-3.588439094488189
11
5.1050246850393703
21
-3.505761929133858
0
LINE
8
BLACK
6
CONTINUOUS
10
5.1050246850393703
20
-3.505761929133858
11
5.0223475196850389
21
-3.505761929133858
0
LINE
8
BLACK
6
CONTINUOUS
10
5.0223475196850389
20
-3.505761929133858
11
5.0193342519685036
21
-3.5051625590551181
0
LINE
8
BLACK
6
CONTINUOUS
10
5.0193342519685036
20
-3.5051625590551181
11
5.0167797637795273
21
-3.5034556692913386
0
LINE
8
BLACK
6
CONTINUOUS
10
5.0167797637795273
20
-3.5034556692913386
11
5.0150728740157478
21
-3.5009011811023623
0
LINE
8
BLACK
6
CONTINUOUS
10
5.0150728740157478
20
-3.5009011811023623
11
5.0144735039370074
21
-3.4978879133858265
0
LINE
8
BLACK
6
CONTINUOUS
10
5.0144735039370074
20
-3.4978879133858265
11
5.0144735039370074
21
-3.4732934251968501
0
LINE
8
BLACK
6
CONTINUOUS
10
5.0144735039370074
20
-3.4732934251968501
11
4.9436073622047241
21
-3.4732934251968501
0
LINE
8
BLACK
6
CONTINUOUS
10
4.9436073622047241
20
-3.4732934251968501
11
4.9436073622047241
21
-3.4978879133858265
0
LINE
8
BLACK
6
CONTINUOUS
10
4.9436073622047241
20
-3.4978879133858265
11
4.9430079921259837
21
-3.5009011811023623
0
LINE
8
BLACK
6
CONTINUOUS
10
4.9430079921259837
20
-3.5009011811023623
11
4.9413011023622042
21
-3.5034556692913386
0
LINE
8
BLACK
6
CONTINUOUS
10
4.9413011023622042
20
-3.5034556692913386
11
4.9387466141732279
21
-3.5051625590551181
0
LINE
8
BLACK
6
CONTINUOUS
10
4.9387466141732279
20
-3.5051625590551181
11
4.9357333464566926
21
-3.505761929133858
0
LINE
8
BLACK
6
CONTINUOUS
10
4.9357333464566926
20
-3.505761929133858
11
4.7861270472440944
21
-3.505761929133858
0
LINE
8
BLACK
6
CONTINUOUS
10
4.7861270472440944
20
-3.505761929133858
11
4.7831137795275591
21
-3.5051625590551181
0
LINE
8
BLACK
6
CONTINUOUS
10
4.7831137795275591
20
-3.5051625590551181
11
4.7805592913385828
21
-3.5034556692913386
0
LINE
8
BLACK
6
CONTINUOUS
10
4.7805592913385828
20
-3.5034556692913386
11
4.7788524015748033
21
-3.5009011811023623
0
LINE
8
BLACK
6
CONTINUOUS
10
4.7788524015748033
20
-3.5009011811023623
11
4.778253031496063
21
-3.4978879133858265
0
LINE
8
BLACK
6
CONTINUOUS
10
4.778253031496063
20
-3.4978879133858265
11
4.778253031496063
21
-3.4732934251968501
0
LINE
8
BLACK
6
CONTINUOUS
10
4.778253031496063
20
-3.4732934251968501
11
4.7073868897637796
21
-3.4732934251968501
0
LINE
8
BLACK
6
CONTINUOUS
10
4.7073868897637796
20
-3.4732934251968501
11
4.7073868897637796
21
-3.4978879133858265
0
LINE
8
BLACK
6
CONTINUOUS
10
4.7073868897637796
20
-3.4978879133858265
11
4.7067875196850393
21
-3.5009011811023623
0
LINE
8
BLACK
6
CONTINUOUS
10
4.7067875196850393
20
-3.5009011811023623
11
4.7050806299212597
21
-3.5034556692913386
0
LINE
8
BLACK
6
CONTINUOUS
10
4.7050806299212597
20
-3.5034556692913386
11
4.7025261417322834
21
-3.5051625590551181
0
LINE
8
BLACK
6
CONTINUOUS
10
4.7025261417322834
20
-3.5051625590551181
11
4.6995128740157481
21
-3.505761929133858
0
LINE
8
BLACK
6
CONTINUOUS
10
4.6995128740157481
20
-3.505761929133858
11
4.5499065748031491
21
-3.505761929133858
0
LINE
8
BLACK
6
CONTINUOUS
10
4.5499065748031491
20
-3.505761929133858
11
4.5468933070866138
21
-3.5051625590551181
0
LINE
8
BLACK
6
CONTINUOUS
10
4.5468933070866138
20
-3.5051625590551181
11
4.5443388188976375
21
-3.5034556692913386
0
LINE
8
BLACK
6
CONTINUOUS
10
4.5443388188976375
20
-3.5034556692913386
11
4.5426319291338579
21
-3.5009011811023623
0
LINE
8
BLACK
6
CONTINUOUS
10
4.5426319291338579
20
-3.5009011811023623
11
4.5420325590551176
21
-3.4978879133858265
0
LINE
8
BLACK
6
CONTINUOUS
10
4.5420325590551176
20
-3.4978879133858265
11
4.5420325590551176
21
-3.4732934251968501
0
LINE
8
BLACK
6
CONTINUOUS
10
4.5420325590551176
20
-3.4732934251968501
11
4.4711664173228343
21
-3.4732934251968501
0
LINE
8
BLACK
6
CONTINUOUS
10
4.4711664173228343
20
-3.4732934251968501
11
4.4711664173228343
21
-3.4978879133858265
0
LINE
8
BLACK
6
CONTINUOUS
10
4.4711664173228343
20
-3.4978879133858265
11
4.4705670472440948
21
-3.5009011811023623
0
LINE
8
BLACK
6
CONTINUOUS
10
4.4705670472440948
20
-3.5009011811023623
11
4.4688601574803153
21
-3.5034556692913386
0
LINE
8
BLACK
6
CONTINUOUS
10
4.4688601574803153
20
-3.5034556692913386
11
4.4663056692913381
21
-3.5051625590551181
0
LINE
8
BLACK
6
CONTINUOUS
10
4.4663056692913381
20
-3.5051625590551181
11
4.4632924015748028
21
-3.505761929133858
0
LINE
8
BLACK
6
CONTINUOUS
10
4.4632924015748028
20
-3.505761929133858
11
4.3136861023622046
21
-3.505761929133858
0
LINE
8
BLACK
6
CONTINUOUS
10
4.3136861023622046
20
-3.505761929133858
11
4.3106728346456693
21
-3.5051625590551181
0
LINE
8
BLACK
6
CONTINUOUS
10
4.3106728346456693
20
-3.5051625590551181
11
4.308118346456693
21
-3.5034556692913386
0
LINE
8
BLACK
6
CONTINUOUS
10
4.308118346456693
20
-3.5034556692913386
11
4.3064114566929135
21
-3.5009011811023623
0
LINE
8
BLACK
6
CONTINUOUS
10
4.3064114566929135
20
-3.5009011811023623
11
4.3058120866141731
21
-3.4978879133858265
0
LINE
8
BLACK
6
CONTINUOUS
10
4.3058120866141731
20
-3.4978879133858265
11
4.3058120866141731
21
-3.4732934251968501
0
LINE
8
BLACK
6
CONTINUOUS
10
4.3058120866141731
20
-3.4732934251968501
11
4.2349459448818898
21
-3.4732934251968501
0
LINE
8
BLACK
6
CONTINUOUS
10
4.2349459448818898
20
-3.4732934251968501
11
4.2349459448818898
21
-3.4978879133858265
0
LINE
8
BLACK
6
CONTINUOUS
10
4.2349459448818898
20
-3.4978879133858265
11
4.2343465748031495
21
-3.5009011811023623
0
LINE
8
BLACK
6
CONTINUOUS
10
4.2343465748031495
20
-3.5009011811023623
11
4.2326396850393699
21
-3.5034556692913386
0
LINE
8
BLACK
6
CONTINUOUS
10
4.2326396850393699
20
-3.5034556692913386
11
4.2300851968503936
21
-3.5051625590551181
0
LINE
8
BLACK
6
CONTINUOUS
10
4.2300851968503936
20
-3.5051625590551181
11
4.2270719291338583
21
-3.505761929133858
0
LINE
8
BLACK
6
CONTINUOUS
10
4.2270719291338583
20
-3.505761929133858
11
4.0774656299212602
21
-3.505761929133858
0
LINE
8
BLACK
6
CONTINUOUS
10
4.0774656299212602
20
-3.505761929133858
11
4.074452362204724
21
-3.5051625590551181
0
LINE
8
BLACK
6
CONTINUOUS
10
4.074452362204724
20
-3.5051625590551181
11
4.0718978740157477
21
-3.5034556692913386
0
LINE
8
BLACK
6
CONTINUOUS
10
4.0718978740157477
20
-3.5034556692913386
11
4.0701909842519681
21
-3.5009011811023623
0
LINE
8
BLACK
6
CONTINUOUS
10
4.0701909842519681
20
-3.5009011811023623
11
4.0695916141732287
21
-3.4978879133858265
0
LINE
8
BLACK
6
CONTINUOUS
10
4.0695916141732287
20
-3.4978879133858265
11
4.0695916141732287
21
-3.4732934251968501
0
LINE
8
BLACK
6
CONTINUOUS
10
4.0695916141732287
20
-3.4732934251968501
11
3.9987254724409449
21
-3.4732934251968501
0
LINE
8
BLACK
6
CONTINUOUS
10
3.9987254724409449
20
-3.4732934251968501
11
3.9987254724409449
21
-3.4978879133858265
0
LINE
8
BLACK
6
CONTINUOUS
10
3.9987254724409449
20
-3.4978879133858265
11
3.9981261023622046
21
-3.5009011811023623
0
LINE
8
BLACK
6
CONTINUOUS
10
3.9981261023622046
20
-3.5009011811023623
11
3.996419212598425
21
-3.5034556692913386
0
LINE
8
BLACK
6
CONTINUOUS
10
3.996419212598425
20
-3.5034556692913386
11
3.9938647244094487
21
-3.5051625590551181
0
LINE
8
BLACK
6
CONTINUOUS
10
3.9938647244094487
20
-3.5051625590551181
11
3.9908514566929134
21
-3.505761929133858
0
LINE
8
BLACK
6
CONTINUOUS
10
3.9908514566929134
20
-3.505761929133858
11
3.9081742913385824
21
-3.505761929133858
0
LINE
8
BLACK
6
CONTINUOUS
10
3.9081742913385824
20
-3.505761929133858
11
3.9081742913385824
21
-3.588439094488189
0
LINE
8
BLACK
6
CONTINUOUS
10
3.9081742913385824
20
-3.588439094488189
11
3.9075749212598425
21
-3.5914523622047243
0
LINE
8
BLACK
6
CONTINUOUS
10
3.9075749212598425
20
-3.5914523622047243
11
3.905868031496063
21
-3.5940068503937006
0
LINE
8
BLACK
6
CONTINUOUS
10
3.905868031496063
20
-3.5940068503937006
11
3.9033135433070867
21
-3.5957137401574801
0
LINE
8
BLACK
6
CONTINUOUS
10
3.9033135433070867
20
-3.5957137401574801
11
3.9003002755905509
21
-3.5963131102362205
0
LINE
8
BLACK
6
CONTINUOUS
10
3.9003002755905509
20
-3.5963131102362205
11
3.8655325590551182
21
-3.5963131102362205
0
LINE
8
BLACK
6
CONTINUOUS
10
3.8655325590551182
20
-3.5963131102362205
11
3.8655325590551182
21
-3.6671792519685038
0
LINE
8
BLACK
6
CONTINUOUS
10
3.8655325590551182
20
-3.6671792519685038
11
3.9003002755905509
21
-3.6671792519685038
0
LINE
8
BLACK
6
CONTINUOUS
10
3.9003002755905509
20
-3.6671792519685038
11
3.9033135433070867
21
-3.6677786220472441
0
LINE
8
BLACK
6
CONTINUOUS
10
3.9033135433070867
20
-3.6677786220472441
11
3.905868031496063
21
-3.6694855118110237
0
LINE
8
BLACK
6
CONTINUOUS
10
3.905868031496063
20
-3.6694855118110237
11
3.9075749212598425
21
-3.67204
0
LINE
8
BLACK
6
CONTINUOUS
10
3.9075749212598425
20
-3.67204
11
3.9081742913385824
21
-3.6750532677165353
0
LINE
8
BLACK
6
CONTINUOUS
10
3.9081742913385824
20
-3.6750532677165353
11
3.9081742913385824
21
-3.8246595669291339
0
LINE
8
BLACK
6
CONTINUOUS
10
3.9081742913385824
20
-3.8246595669291339
11
3.9075749212598425
21
-3.8276728346456692
0
LINE
8
BLACK
6
CONTINUOUS
10
3.9075749212598425
20
-3.8276728346456692
11
3.905868031496063
21
-3.8302273228346455
0
LINE
8
BLACK
6
CONTINUOUS
10
3.905868031496063
20
-3.8302273228346455
11
3.9033135433070867
21
-3.831934212598425
0
LINE
8
BLACK
6
CONTINUOUS
10
3.9033135433070867
20
-3.831934212598425
11
3.9003002755905509
21
-3.8325335826771654
0
LINE
8
BLACK
6
CONTINUOUS
10
3.9003002755905509
20
-3.8325335826771654
11
3.8655325590551182
21
-3.8325335826771654
0
LINE
8
BLACK
6
CONTINUOUS
10
3.8655325590551182
20
-3.8325335826771654
11
3.8655325590551182
21
-3.9033997244094487
0
LINE
8
BLACK
6
CONTINUOUS
10
3.8655325590551182
20
-3.9033997244094487
11
3.9003002755905509
21
-3.9033997244094487
0
LINE
8
BLACK
6
CONTINUOUS
10
3.9003002755905509
20
-3.9033997244094487
11
3.9033135433070867
21
-3.903999094488189
0
LINE
8
BLACK
6
CONTINUOUS
10
3.9033135433070867
20
-3.903999094488189
11
3.905868031496063
21
-3.9057059842519686
0
LINE
8
BLACK
6
CONTINUOUS
10
3.905868031496063
20
-3.9057059842519686
11
3.9075749212598425
21
-3.9082604724409449
0
LINE
8
BLACK
6
CONTINUOUS
10
3.9075749212598425
20
-3.9082604724409449
11
3.9081742913385824
21
-3.9112737401574802
0
LINE
8
BLACK
6
CONTINUOUS
10
3.9081742913385824
20
-3.9112737401574802
11
3.9081742913385824
21
-4.0608800393700788
0
LINE
8
BLACK
6
CONTINUOUS
10
3.9081742913385824
20
-4.0608800393700788
11
3.9075749212598425
21
-4.0638933070866141
0
LINE
8
BLACK
6
CONTINUOUS
10
3.9075749212598425
20
-4.0638933070866141
11
3.905868031496063
21
-4.0664477952755904
0
LINE
8
BLACK
6
CONTINUOUS
10
3.905868031496063
20
-4.0664477952755904
11
3.9033135433070867
21
-4.0681546850393699
0
LINE
8
BLACK
6
CONTINUOUS
10
3.9033135433070867
20
-4.0681546850393699
11
3.9003002755905509
21
-4.0687540551181103
0
LINE
8
BLACK
6
CONTINUOUS
10
3.9003002755905509
20
-4.0687540551181103
11
3.8655325590551182
21
-4.0687540551181103
0
LINE
8
BLACK
6
CONTINUOUS
10
3.8655325590551182
20
-4.0687540551181103
11
3.8655325590551182
21
-4.1396201968503936
0
LINE
8
BLACK
6
CONTINUOUS
10
3.8655325590551182
20
-4.1396201968503936
11
3.9003002755905509
21
-4.1396201968503936
0
LINE
8
BLACK
6
CONTINUOUS
10
3.9003002755905509
20
-4.1396201968503936
11
3.9033135433070867
21
-4.140219566929134
0
LINE
8
BLACK
6
CONTINUOUS
10
3.9033135433070867
20
-4.140219566929134
11
3.905868031496063
21
-4.1419264566929135
0
LINE
8
BLACK
6
CONTINUOUS
10
3.905868031496063
20
-4.1419264566929135
11
3.9075749212598425
21
-4.1444809448818898
0
LINE
8
BLACK
6
CONTINUOUS
10
3.9075749212598425
20
-4.1444809448818898
11
3.9081742913385824
21
-4.1474942125984251
0
LINE
8
BLACK
6
CONTINUOUS
10
3.9081742913385824
20
-4.1474942125984251
11
3.9081742913385824
21
-4.2971005118110233
0
LINE
8
BLACK
6
CONTINUOUS
10
3.9081742913385824
20
-4.2971005118110233
11
3.9075749212598425
21
-4.3001137795275586
0
LINE
8
BLACK
6
CONTINUOUS
10
3.9075749212598425
20
-4.3001137795275586
11
3.905868031496063
21
-4.3026682677165358
0
LINE
8
BLACK
6
CONTINUOUS
10
3.905868031496063
20
-4.3026682677165358
11
3.9033135433070867
21
-4.3043751574803153
0
LINE
8
BLACK
6
CONTINUOUS
10
3.9033135433070867
20
-4.3043751574803153
11
3.9003002755905509
21
-4.3049745275590547
0
LINE
8
BLACK
6
CONTINUOUS
10
3.9003002755905509
20
-4.3049745275590547
11
3.8655325590551182
21
-4.3049745275590547
0
LINE
8
BLACK
6
CONTINUOUS
10
3.8655325590551182
20
-4.3049745275590547
11
3.8655325590551182
21
-4.3758406692913381
0
LINE
8
BLACK
6
CONTINUOUS
10
3.8655325590551182
20
-4.3758406692913381
11
3.9003002755905509
21
-4.3758406692913381
0
LINE
8
BLACK
6
CONTINUOUS
10
3.9003002755905509
20
-4.3758406692913381
11
3.9033135433070867
21
-4.3764400393700784
0
LINE
8
BLACK
6
CONTINUOUS
10
3.9033135433070867
20
-4.3764400393700784
11
3.905868031496063
21
-4.3781469291338579
0
LINE
8
BLACK
6
CONTINUOUS
10
3.905868031496063
20
-4.3781469291338579
11
3.9075749212598425
21
-4.3807014173228342
0
LINE
8
BLACK
6
CONTINUOUS
10
3.9075749212598425
20
-4.3807014173228342
11
3.9081742913385824
21
-4.3837146850393696
0
LINE
8
BLACK
6
CONTINUOUS
10
3.9081742913385824
20
-4.3837146850393696
11
3.9081742913385824
21
-4.5333209842519686
0
LINE
8
BLACK
6
CONTINUOUS
10
3.9081742913385824
20
-4.5333209842519686
11
3.9075749212598425
21
-4.5363342519685039
0
LINE
8
BLACK
6
CONTINUOUS
10
3.9075749212598425
20
-4.5363342519685039
11
3.905868031496063
21
-4.5388887401574802
0
LINE
8
BLACK
6
CONTINUOUS
10
3.905868031496063
20
-4.5388887401574802
11
3.9033135433070867
21
-4.5405956299212598
0
LINE
8
BLACK
6
CONTINUOUS
10
3.9033135433070867
20
-4.5405956299212598
11
3.9003002755905509
21
-4.5411950000000001
0
LINE
8
BLACK
6
CONTINUOUS
10
3.9003002755905509
20
-4.5411950000000001
11
3.8655325590551182
21
-4.5411950000000001
0
LINE
8
BLACK
6
CONTINUOUS
10
3.8655325590551182
20
-4.5411950000000001
11
3.8655325590551182
21
-4.6029739370078735
0
LINE
8
BLACK
6
CONTINUOUS
10
3.8655325590551182
20
-4.6029739370078735
11
3.8657087401574803
21
-4.6035738976377951
0
LINE
8
BLACK
6
CONTINUOUS
10
3.8657087401574803
20
-4.6035738976377951
11
3.8657635433070867
21
-4.6036213779527557
0
LINE
8
BLACK
6
CONTINUOUS
10
3.8657635433070867
20
-4.6036213779527557
11
3.8661933070866139
21
-4.603714881889764
0
LINE
8
BLACK
6
CONTINUOUS
10
3.8661933070866139
20
-4.603714881889764
11
3.8673099999999998
21
-4.6043246062992127
0
LINE
8
BLACK
6
CONTINUOUS
10
3.8673099999999998
20
-4.6043246062992127
11
3.8678207874015746
21
-4.6044746062992123
0
LINE
8
BLACK
6
CONTINUOUS
10
3.8678207874015746
20
-4.6044746062992123
11
3.8680327952755906
21
-4.6047192913385828
0
LINE
8
BLACK
6
CONTINUOUS
10
3.8680327952755906
20
-4.6047192913385828
11
3.8686466141732283
21
-4.6050544488188976
0
LINE
8
BLACK
6
CONTINUOUS
10
3.8686466141732283
20
-4.6050544488188976
11
3.8691975984251967
21
-4.6060635433070862
0
LINE
8
BLACK
6
CONTINUOUS
10
3.8691975984251967
20
-4.6060635433070862
11
3.8696512204724409
21
-4.6065870472440942
0
LINE
8
BLACK
6
CONTINUOUS
10
3.8696512204724409
20
-4.6065870472440942
11
3.8697622834645666
21
-4.607097755905512
0
LINE
8
BLACK
6
CONTINUOUS
10
3.8697622834645666
20
-4.607097755905512
11
3.8699861417322832
21
-4.607507677165354
0
LINE
8
BLACK
6
CONTINUOUS
10
3.8699861417322832
20
-4.607507677165354
11
3.8700994881889761
21
-4.6085621259842515
0
LINE
8
BLACK
6
CONTINUOUS
10
3.8700994881889761
20
-4.6085621259842515
11
3.8700994881889761
21
-4.6086477559055119
0
LINE
8
BLACK
6
CONTINUOUS
10
3.8700994881889761
20
-4.6086477559055119
11
3.8700994881889761
21
-4.6120611417322834
0
LINE
8
BLACK
6
CONTINUOUS
10
3.8700994881889761
20
-4.6120611417322834
11
3.9003002755905509
21
-4.6120611417322834
0
LINE
8
BLACK
6
CONTINUOUS
10
3.9003002755905509
20
-4.6120611417322834
11
3.9033135433070867
21
-4.6126605118110238
0
LINE
8
BLACK
6
CONTINUOUS
10
3.9033135433070867
20
-4.6126605118110238
11
3.905868031496063
21
-4.6143674015748033
0
LINE
8
BLACK
6
CONTINUOUS
10
3.905868031496063
20
-4.6143674015748033
11
3.9075749212598425
21
-4.6169218897637796
0
LINE
8
BLACK
6
CONTINUOUS
10
3.9075749212598425
20
-4.6169218897637796
11
3.9081742913385824
21
-4.6199351574803149
0
LINE
8
BLACK
6
CONTINUOUS
10
3.9081742913385824
20
-4.6199351574803149
11
3.9081742913385824
21
-4.7026123228346455
0
LINE
8
BLACK
6
CONTINUOUS
10
3.9081742913385824
20
-4.7026123228346455
11
3.9908514566929134
21
-4.7026123228346455
0
LINE
8
BLACK
6
CONTINUOUS
10
3.9908514566929134
20
-4.7026123228346455
11
3.9938647244094487
21
-4.7032116929133858
0
LINE
8
BLACK
6
CONTINUOUS
10
3.9938647244094487
20
-4.7032116929133858
11
3.996419212598425
21
-4.7049185826771653
0
LINE
8
BLACK
6
CONTINUOUS
10
3.996419212598425
20
-4.7049185826771653
11
3.9981261023622046
21
-4.7074730708661416
0
LINE
8
BLACK
6
CONTINUOUS
10
3.9981261023622046
20
-4.7074730708661416
11
3.9987254724409449
21
-4.710486338582677
0
LINE
8
BLACK
6
CONTINUOUS
10
3.9987254724409449
20
-4.710486338582677
11
3.9987254724409449
21
-4.7429784251968501
0
LINE
8
BLACK
6
CONTINUOUS
10
3.9987254724409449
20
-4.7429784251968501
11
4.0695916141732287
21
-4.7429784251968501
0
LINE
8
BLACK
6
CONTINUOUS
10
4.0695916141732287
20
-4.7429784251968501
11
4.0695916141732287
21
-4.710486338582677
0
LINE
8
BLACK
6
CONTINUOUS
10
4.0695916141732287
20
-4.710486338582677
11
4.0701909842519681
21
-4.7074730708661416
0
LINE
8
BLACK
6
CONTINUOUS
10
4.0701909842519681
20
-4.7074730708661416
11
4.0718978740157477
21
-4.7049185826771653
0
LINE
8
BLACK
6
CONTINUOUS
10
4.0718978740157477
20
-4.7049185826771653
11
4.074452362204724
21
-4.7032116929133858
0
LINE
8
BLACK
6
CONTINUOUS
10
4.074452362204724
20
-4.7032116929133858
11
4.0774656299212602
21
-4.7026123228346455
0
LINE
8
BLACK
6
CONTINUOUS
10
4.0774656299212602
20
-4.7026123228346455
11
4.2270719291338583
21
-4.7026123228346455
0
LINE
8
BLACK
6
CONTINUOUS
10
4.2270719291338583
20
-4.7026123228346455
11
4.2300851968503936
21
-4.7032116929133858
0
LINE
8
BLACK
6
CONTINUOUS
10
4.2300851968503936
20
-4.7032116929133858
11
4.2326396850393699
21
-4.7049185826771653
0
LINE
8
BLACK
6
CONTINUOUS
10
4.2326396850393699
20
-4.7049185826771653
11
4.2343465748031495
21
-4.7074730708661416
0
LINE
8
BLACK
6
CONTINUOUS
10
4.2343465748031495
20
-4.7074730708661416
11
4.2349459448818898
21
-4.710486338582677
0
LINE
8
BLACK
6
CONTINUOUS
10
4.2349459448818898
20
-4.710486338582677
11
4.2349459448818898
21
-4.7429784251968501
0
LINE
8
BLACK
6
CONTINUOUS
10
4.2349459448818898
20
-4.7429784251968501
11
4.3058120866141731
21
-4.7429784251968501
0
LINE
8
BLACK
6
CONTINUOUS
10
4.3058120866141731
20
-4.7429784251968501
11
4.3058120866141731
21
-4.710486338582677
0
LINE
8
BLACK
6
CONTINUOUS
10
4.3058120866141731
20
-4.710486338582677
11
4.3064114566929135
21
-4.7074730708661416
0
LINE
8
BLACK
6
CONTINUOUS
10
4.3064114566929135
20
-4.7074730708661416
11
4.308118346456693
21
-4.7049185826771653
0
LINE
8
BLACK
6
CONTINUOUS
10
4.308118346456693
20
-4.7049185826771653
11
4.3106728346456693
21
-4.7032116929133858
0
LINE
8
BLACK
6
CONTINUOUS
10
4.3106728346456693
20
-4.7032116929133858
11
4.3136861023622046
21
-4.7026123228346455
0
LINE
8
BLACK
6
CONTINUOUS
10
4.3136861023622046
20
-4.7026123228346455
11
4.4632924015748028
21
-4.7026123228346455
0
LINE
8
BLACK
6
CONTINUOUS
10
4.4632924015748028
20
-4.7026123228346455
11
4.4663056692913381
21
-4.7032116929133858
0
LINE
8
BLACK
6
CONTINUOUS
10
4.4663056692913381
20
-4.7032116929133858
11
4.4688601574803153
21
-4.7049185826771653
0
LINE
8
BLACK
6
CONTINUOUS
10
4.4688601574803153
20
-4.7049185826771653
11
4.4705670472440948
21
-4.7074730708661416
0
LINE
8
BLACK
6
CONTINUOUS
10
4.4705670472440948
20
-4.7074730708661416
11
4.4711664173228343
21
-4.710486338582677
0
LINE
8
BLACK
6
CONTINUOUS
10
4.4711664173228343
20
-4.710486338582677
11
4.4711664173228343
21
-4.7429784251968501
0
LINE
8
BLACK
6
CONTINUOUS
10
4.4711664173228343
20
-4.7429784251968501
11
4.5420325590551176
21
-4.7429784251968501
0
LINE
8
BLACK
6
CONTINUOUS
10
4.5420325590551176
20
-4.7429784251968501
11
4.5420325590551176
21
-4.710486338582677
0
LINE
8
BLACK
6
CONTINUOUS
10
4.5420325590551176
20
-4.710486338582677
11
4.5426319291338579
21
-4.7074730708661416
0
LINE
8
BLACK
6
CONTINUOUS
10
4.5426319291338579
20
-4.7074730708661416
11
4.5443388188976375
21
-4.7049185826771653
0
LINE
8
BLACK
6
CONTINUOUS
10
4.5443388188976375
20
-4.7049185826771653
11
4.5468933070866138
21
-4.7032116929133858
0
LINE
8
BLACK
6
CONTINUOUS
10
4.5468933070866138
20
-4.7032116929133858
11
4.5499065748031491
21
-4.7026123228346455
0
LINE
8
BLACK
6
CONTINUOUS
10
4.5499065748031491
20
-4.7026123228346455
11
4.6995128740157481
21
-4.7026123228346455
0
LINE
8
BLACK
6
CONTINUOUS
10
4.6995128740157481
20
-4.7026123228346455
11
4.7025261417322834
21
-4.7032116929133858
0
LINE
8
BLACK
6
CONTINUOUS
10
4.7025261417322834
20
-4.7032116929133858
11
4.7050806299212597
21
-4.7049185826771653
0
LINE
8
BLACK
6
CONTINUOUS
10
4.7050806299212597
20
-4.7049185826771653
11
4.7067875196850393
21
-4.7074730708661416
0
LINE
8
BLACK
6
CONTINUOUS
10
4.7067875196850393
20
-4.7074730708661416
11
4.7073868897637796
21
-4.710486338582677
0
LINE
8
BLACK
6
CONTINUOUS
10
4.7073868897637796
20
-4.710486338582677
11
4.7073868897637796
21
-4.7429784251968501
0
LINE
8
BLACK
6
CONTINUOUS
10
4.7073868897637796
20
-4.7429784251968501
11
4.778253031496063
21
-4.7429784251968501
0
LINE
8
BLACK
6
CONTINUOUS
10
4.778253031496063
20
-4.7429784251968501
11
4.778253031496063
21
-4.710486338582677
0
LINE
8
BLACK
6
CONTINUOUS
10
4.778253031496063
20
-4.710486338582677
11
4.7788524015748033
21
-4.7074730708661416
0
LINE
8
BLACK
6
CONTINUOUS
10
4.7788524015748033
20
-4.7074730708661416
11
4.7805592913385828
21
-4.7049185826771653
0
LINE
8
BLACK
6
CONTINUOUS
10
4.7805592913385828
20
-4.7049185826771653
11
4.7831137795275591
21
-4.7032116929133858
0
LINE
8
BLACK
6
CONTINUOUS
10
4.7831137795275591
20
-4.7032116929133858
11
4.7861270472440944
21
-4.7026123228346455
0
LINE
8
BLACK
6
CONTINUOUS
10
4.7861270472440944
20
-4.7026123228346455
11
4.9357333464566926
21
-4.7026123228346455
0
LINE
8
BLACK
6
CONTINUOUS
10
4.9357333464566926
20
-4.7026123228346455
11
4.9387466141732279
21
-4.7032116929133858
0
LINE
8
BLACK
6
CONTINUOUS
10
4.9387466141732279
20
-4.7032116929133858
11
4.9413011023622042
21
-4.7049185826771653
0
LINE
8
BLACK
6
CONTINUOUS
10
4.9413011023622042
20
-4.7049185826771653
11
4.9430079921259837
21
-4.7074730708661416
0
LINE
8
BLACK
6
CONTINUOUS
10
4.9430079921259837
20
-4.7074730708661416
11
4.9436073622047241
21
-4.710486338582677
0
LINE
8
BLACK
6
CONTINUOUS
10
4.9436073622047241
20
-4.710486338582677
11
4.9436073622047241
21
-4.7429784251968501
0
LINE
8
BLACK
6
CONTINUOUS
10
4.9436073622047241
20
-4.7429784251968501
11
5.0144735039370074
21
-4.7429784251968501
0
LINE
8
BLACK
6
CONTINUOUS
10
5.0144735039370074
20
-4.7429784251968501
11
5.0144735039370074
21
-4.710486338582677
0
LINE
8
BLACK
6
CONTINUOUS
10
5.0144735039370074
20
-4.710486338582677
11
5.0150728740157478
21
-4.7074730708661416
0
LINE
8
BLACK
6
CONTINUOUS
10
5.0150728740157478
20
-4.7074730708661416
11
5.0167797637795273
21
-4.7049185826771653
0
LINE
8
BLACK
6
CONTINUOUS
10
5.0167797637795273
20
-4.7049185826771653
11
5.0193342519685036
21
-4.7032116929133858
0
LINE
8
BLACK
6
CONTINUOUS
10
5.0193342519685036
20
-4.7032116929133858
11
5.0223475196850389
21
-4.7026123228346455
0
LINE
8
BLACK
6
CONTINUOUS
10
5.0223475196850389
20
-4.7026123228346455
11
5.1050246850393703
21
-4.7026123228346455
0
LINE
8
BLACK
6
CONTINUOUS
10
5.1050246850393703
20
-4.7026123228346455
11
5.1050246850393703
21
-4.6199351574803149
0
LINE
8
BLACK
6
CONTINUOUS
10
5.1050246850393703
20
-4.6199351574803149
11
5.1056240551181098
21
-4.6169218897637796
0
LINE
8
BLACK
6
CONTINUOUS
10
5.1056240551181098
20
-4.6169218897637796
11
5.1073309448818893
21
-4.6143674015748033
0
LINE
8
BLACK
6
CONTINUOUS
10
5.1073309448818893
20
-4.6143674015748033
11
5.1098854330708656
21
-4.6126605118110238
0
LINE
8
BLACK
6
CONTINUOUS
10
5.1098854330708656
20
-4.6126605118110238
11
5.1128987007874018
21
-4.6120611417322834
0
LINE
8
BLACK
6
CONTINUOUS
10
5.1128987007874018
20
-4.6120611417322834
11
5.1400994881889766
21
-4.6120611417322834
0
LINE
8
BLACK
6
CONTINUOUS
10
5.1400994881889766
20
-4.6120611417322834
11
5.1400994881889766
21
-4.5411950000000001
0
LINE
8
BLACK
6
CONTINUOUS
10
5.1400994881889766
20
-4.5411950000000001
11
5.1128987007874018
21
-4.5411950000000001
0
LINE
8
BLACK
6
CONTINUOUS
10
5.1128987007874018
20
-4.5411950000000001
11
5.1098854330708656
21
-4.5405956299212598
0
LINE
8
BLACK
6
CONTINUOUS
10
5.1098854330708656
20
-4.5405956299212598
11
5.1073309448818893
21
-4.5388887401574802
0
LINE
8
BLACK
6
CONTINUOUS
10
5.1073309448818893
20
-4.5388887401574802
11
5.1056240551181098
21
-4.5363342519685039
0
LINE
8
BLACK
6
CONTINUOUS
10
5.1056240551181098
20
-4.5363342519685039
11
5.1050246850393703
21
-4.5333209842519686
0
LINE
8
BLACK
6
CONTINUOUS
10
5.1050246850393703
20
-4.5333209842519686
11
5.1050246850393703
21
-4.3837146850393696
0
LINE
8
BLACK
6
CONTINUOUS
10
5.1050246850393703
20
-4.3837146850393696
11
5.1056240551181098
21
-4.3807014173228342
0
LINE
8
BLACK
6
CONTINUOUS
10
5.1056240551181098
20
-4.3807014173228342
11
5.1073309448818893
21
-4.3781469291338579
0
LINE
8
BLACK
6
CONTINUOUS
10
5.1073309448818893
20
-4.3781469291338579
11
5.1098854330708656
21
-4.3764400393700784
0
LINE
8
BLACK
6
CONTINUOUS
10
5.1098854330708656
20
-4.3764400393700784
11
5.1128987007874018
21
-4.3758406692913381
0
LINE
8
BLACK
6
CONTINUOUS
10
5.1128987007874018
20
-4.3758406692913381
11
5.1522687795275592
21
-4.3758406692913381
0
LINE
8
BLACK
6
CONTINUOUS
10
5.1522687795275592
20
-4.3758406692913381
11
5.1552820472440946
21
-4.3764400393700784
0
LINE
8
BLACK
6
CONTINUOUS
10
5.1552820472440946
20
-4.3764400393700784
11
5.1578365354330709
21
-4.3781469291338579
0
LINE
8
BLACK
6
CONTINUOUS
10
5.1578365354330709
20
-4.3781469291338579
11
5.1595434251968504
21
-4.3807014173228342
0
LINE
8
BLACK
6
CONTINUOUS
10
5.1595434251968504
20
-4.3807014173228342
11
5.1601427952755907
21
-4.3837146850393696
0
LINE
8
BLACK
6
CONTINUOUS
10
5.1601427952755907
20
-4.3837146850393696
11
5.1601427952755907
21
-4.4836871259842521
0
LINE
8
BLACK
6
CONTINUOUS
10
5.1601427952755907
20
-4.4836871259842521
11
5.1665561811023624
21
-4.4836871259842521
0
LINE
8
BLACK
6
CONTINUOUS
10
5.1665561811023624
20
-4.4836871259842521
11
5.1665561811023624
21
-4.4699863779527558
0
LINE
8
BLACK
6
CONTINUOUS
10
5.1665561811023624
20
-4.4699863779527558
11
5.1665561811023624
21
-4.3794351968503937
0
LINE
8
BLACK
6
CONTINUOUS
10
5.1665561811023624
20
-4.3794351968503937
11
5.1671555511811018
21
-4.3764219291338584
0
LINE
8
BLACK
6
CONTINUOUS
10
5.1671555511811018
20
-4.3764219291338584
11
5.1688624409448813
21
-4.3738674409448821
0
LINE
8
BLACK
6
CONTINUOUS
10
5.1688624409448813
20
-4.3738674409448821
11
5.1714169291338585
21
-4.3721605511811026
0
LINE
8
BLACK
6
CONTINUOUS
10
5.1714169291338585
20
-4.3721605511811026
11
5.1744301968503938
21
-4.3715611811023622
0
LINE
8
BLACK
6
CONTINUOUS
10
5.1744301968503938
20
-4.3715611811023622
11
5.2138002755905513
21
-4.3715611811023622
0
LINE
8
BLACK
6
CONTINUOUS
10
5.2138002755905513
20
-4.3715611811023622
11
5.2168135433070866
21
-4.3721605511811026
0
LINE
8
BLACK
6
CONTINUOUS
10
5.2168135433070866
20
-4.3721605511811026
11
5.2193680314960629
21
-4.3738674409448821
0
LINE
8
BLACK
6
CONTINUOUS
10
5.2193680314960629
20
-4.3738674409448821
11
5.2210749212598424
21
-4.3764219291338584
0
LINE
8
BLACK
6
CONTINUOUS
10
5.2210749212598424
20
-4.3764219291338584
11
5.2216742913385827
21
-4.3794351968503937
0
LINE
8
BLACK
6
CONTINUOUS
10
5.2216742913385827
20
-4.3794351968503937
11
5.2216742913385827
21
-4.4621123622047243
0
LINE
8
BLACK
6
CONTINUOUS
10
5.2216742913385827
20
-4.4621123622047243
11
5.3043514566929133
21
-4.4621123622047243
0
LINE
8
BLACK
6
CONTINUOUS
10
5.3043514566929133
20
-4.4621123622047243
11
5.3073647244094486
21
-4.4627117322834646
0
LINE
8
BLACK
6
CONTINUOUS
10
5.3073647244094486
20
-4.4627117322834646
11
5.3099192125984249
21
-4.4644186220472442
0
LINE
8
BLACK
6
CONTINUOUS
10
5.3099192125984249
20
-4.4644186220472442
11
5.3116261023622044
21
-4.4669731102362205
0
LINE
8
BLACK
6
CONTINUOUS
10
5.3116261023622044
20
-4.4669731102362205
11
5.3122254724409448
21
-4.4699863779527558
0
LINE
8
BLACK
6
CONTINUOUS
10
5.3122254724409448
20
-4.4699863779527558
11
5.3122254724409448
21
-4.4836871259842521
0
LINE
8
BLACK
6
CONTINUOUS
10
5.3122254724409448
20
-4.4836871259842521
11
5.3830916141732281
21
-4.4836871259842521
0
LINE
8
BLACK
6
CONTINUOUS
10
5.3830916141732281
20
-4.4836871259842521
11
5.3830916141732281
21
-4.4699863779527558
0
LINE
8
BLACK
6
CONTINUOUS
10
5.3830916141732281
20
-4.4699863779527558
11
5.3836909842519685
21
-4.4669731102362205
0
LINE
8
BLACK
6
CONTINUOUS
10
5.3836909842519685
20
-4.4669731102362205
11
5.385397874015748
21
-4.4644186220472442
0
LINE
8
BLACK
6
CONTINUOUS
10
5.385397874015748
20
-4.4644186220472442
11
5.3879523622047243
21
-4.4627117322834646
0
LINE
8
BLACK
6
CONTINUOUS
10
5.3879523622047243
20
-4.4627117322834646
11
5.3909656299212596
21
-4.4621123622047243
0
LINE
8
BLACK
6
CONTINUOUS
10
5.3909656299212596
20
-4.4621123622047243
11
5.5405719291338578
21
-4.4621123622047243
0
LINE
8
BLACK
6
CONTINUOUS
10
5.5405719291338578
20
-4.4621123622047243
11
5.543585196850394
21
-4.4627117322834646
0
LINE
8
BLACK
6
CONTINUOUS
10
5.543585196850394
20
-4.4627117322834646
11
5.5461396850393703
21
-4.4644186220472442
0
LINE
8
BLACK
6
CONTINUOUS
10
5.5461396850393703
20
-4.4644186220472442
11
5.5478465748031498
21
-4.4669731102362205
0
LINE
8
BLACK
6
CONTINUOUS
10
5.5478465748031498
20
-4.4669731102362205
11
5.5484459448818892
21
-4.4699863779527558
0
LINE
8
BLACK
6
CONTINUOUS
10
5.5484459448818892
20
-4.4699863779527558
11
5.5484459448818892
21
-4.4836871259842521
0
LINE
8
BLACK
6
CONTINUOUS
10
5.5484459448818892
20
-4.4836871259842521
11
5.6193120866141735
21
-4.4836871259842521
0
LINE
8
BLACK
6
CONTINUOUS
10
5.6193120866141735
20
-4.4836871259842521
11
5.6193120866141735
21
-4.4699863779527558
0
LINE
8
BLACK
6
CONTINUOUS
10
5.6193120866141735
20
-4.4699863779527558
11
5.6199114566929129
21
-4.4669731102362205
0
LINE
8
BLACK
6
CONTINUOUS
10
5.6199114566929129
20
-4.4669731102362205
11
5.6216183464566924
21
-4.4644186220472442
0
LINE
8
BLACK
6
CONTINUOUS
10
5.6216183464566924
20
-4.4644186220472442
11
5.6241728346456688
21
-4.4627117322834646
0
LINE
8
BLACK
6
CONTINUOUS
10
5.6241728346456688
20
-4.4627117322834646
11
5.627186102362205
21
-4.4621123622047243
0
LINE
8
BLACK
6
CONTINUOUS
10
5.627186102362205
20
-4.4621123622047243
11
5.7767924015748031
21
-4.4621123622047243
0
LINE
8
BLACK
6
CONTINUOUS
10
5.7767924015748031
20
-4.4621123622047243
11
5.7798056692913384
21
-4.4627117322834646
0
LINE
8
BLACK
6
CONTINUOUS
10
5.7798056692913384
20
-4.4627117322834646
11
5.7823601574803147
21
-4.4644186220472442
0
LINE
8
BLACK
6
CONTINUOUS
10
5.7823601574803147
20
-4.4644186220472442
11
5.7840670472440943
21
-4.4669731102362205
0
LINE
8
BLACK
6
CONTINUOUS
10
5.7840670472440943
20
-4.4669731102362205
11
5.7846664173228346
21
-4.4699863779527558
0
LINE
8
BLACK
6
CONTINUOUS
10
5.7846664173228346
20
-4.4699863779527558
11
5.7846664173228346
21
-4.4836871259842521
0
LINE
8
BLACK
6
CONTINUOUS
10
5.7846664173228346
20
-4.4836871259842521
11
5.8555325590551179
21
-4.4836871259842521
0
LINE
8
BLACK
6
CONTINUOUS
10
5.8555325590551179
20
-4.4836871259842521
11
5.8555325590551179
21
-4.4699863779527558
0
LINE
8
BLACK
6
CONTINUOUS
10
5.8555325590551179
20
-4.4699863779527558
11
5.8561319291338583
21
-4.4669731102362205
0
LINE
8
BLACK
6
CONTINUOUS
10
5.8561319291338583
20
-4.4669731102362205
11
5.8578388188976378
21
-4.4644186220472442
0
LINE
8
BLACK
6
CONTINUOUS
10
5.8578388188976378
20
-4.4644186220472442
11
5.8603933070866141
21
-4.4627117322834646
0
LINE
8
BLACK
6
CONTINUOUS
10
5.8603933070866141
20
-4.4627117322834646
11
5.8634065748031494
21
-4.4621123622047243
0
LINE
8
BLACK
6
CONTINUOUS
10
5.8634065748031494
20
-4.4621123622047243
11
6.0130128740157476
21
-4.4621123622047243
0
LINE
8
BLACK
6
CONTINUOUS
10
6.0130128740157476
20
-4.4621123622047243
11
6.0160261417322829
21
-4.4627117322834646
0
LINE
8
BLACK
6
CONTINUOUS
10
6.0160261417322829
20
-4.4627117322834646
11
6.0185806299212601
21
-4.4644186220472442
0
LINE
8
BLACK
6
CONTINUOUS
10
6.0185806299212601
20
-4.4644186220472442
11
6.0202875196850396
21
-4.4669731102362205
0
LINE
8
BLACK
6
CONTINUOUS
10
6.0202875196850396
20
-4.4669731102362205
11
6.0208868897637791
21
-4.4699863779527558
0
LINE
8
BLACK
6
CONTINUOUS
10
6.0208868897637791
20
-4.4699863779527558
11
6.0208868897637791
21
-4.4836871259842521
0
LINE
8
BLACK
6
CONTINUOUS
10
6.0208868897637791
20
-4.4836871259842521
11
6.0917530314960633
21
-4.4836871259842521
0
LINE
8
BLACK
6
CONTINUOUS
10
6.0917530314960633
20
-4.4836871259842521
11
6.0917530314960633
21
-4.4699863779527558
0
LINE
8
BLACK
6
CONTINUOUS
10
6.0917530314960633
20
-4.4699863779527558
11
6.0923524015748027
21
-4.4669731102362205
0
LINE
8
BLACK
6
CONTINUOUS
10
6.0923524015748027
20
-4.4669731102362205
11
6.0940592913385823
21
-4.4644186220472442
0
LINE
8
BLACK
6
CONTINUOUS
10
6.0940592913385823
20
-4.4644186220472442
11
6.0966137795275586
21
-4.4627117322834646
0
LINE
8
BLACK
6
CONTINUOUS
10
6.0966137795275586
20
-4.4627117322834646
11
6.0996270472440948
21
-4.4621123622047243
0
LINE
8
BLACK
6
CONTINUOUS
10
6.0996270472440948
20
-4.4621123622047243
11
6.2492333464566929
21
-4.4621123622047243
0
LINE
8
BLACK
6
CONTINUOUS
10
6.2492333464566929
20
-4.4621123622047243
11
6.2522466141732282
21
-4.4627117322834646
0
LINE
8
BLACK
6
CONTINUOUS
10
6.2522466141732282
20
-4.4627117322834646
11
6.2548011023622045
21
-4.4644186220472442
0
LINE
8
BLACK
6
CONTINUOUS
10
6.2548011023622045
20
-4.4644186220472442
11
6.2565079921259841
21
-4.4669731102362205
0
LINE
8
BLACK
6
CONTINUOUS
10
6.2565079921259841
20
-4.4669731102362205
11
6.2571073622047244
21
-4.4699863779527558
0
LINE
8
BLACK
6
CONTINUOUS
10
6.2571073622047244
20
-4.4699863779527558
11
6.2571073622047244
21
-4.4836871259842521
0
LINE
8
BLACK
6
CONTINUOUS
10
6.2571073622047244
20
-4.4836871259842521
11
6.3279735039370077
21
-4.4836871259842521
0
LINE
8
BLACK
6
CONTINUOUS
10
6.3279735039370077
20
-4.4836871259842521
11
6.3279735039370077
21
-4.4699863779527558
0
LINE
8
BLACK
6
CONTINUOUS
10
6.3279735039370077
20
-4.4699863779527558
11
6.3285728740157481
21
-4.4669731102362205
0
LINE
8
BLACK
6
CONTINUOUS
10
6.3285728740157481
20
-4.4669731102362205
11
6.3302797637795276
21
-4.4644186220472442
0
LINE
8
BLACK
6
CONTINUOUS
10
6.3302797637795276
20
-4.4644186220472442
11
6.3328342519685039
21
-4.4627117322834646
0
LINE
8
BLACK
6
CONTINUOUS
10
6.3328342519685039
20
-4.4627117322834646
11
6.3358475196850392
21
-4.4621123622047243
0
LINE
8
BLACK
6
CONTINUOUS
10
6.3358475196850392
20
-4.4621123622047243
11
6.4185246850393698
21
-4.4621123622047243
0
LINE
8
BLACK
6
CONTINUOUS
10
6.4185246850393698
20
-4.4621123622047243
11
6.4185246850393698
21
-4.3794351968503937
0
LINE
8
BLACK
6
CONTINUOUS
10
6.4185246850393698
20
-4.3794351968503937
11
6.4191240551181101
21
-4.3764219291338584
0
LINE
8
BLACK
6
CONTINUOUS
10
6.4191240551181101
20
-4.3764219291338584
11
6.4208309448818897
21
-4.3738674409448821
0
LINE
8
BLACK
6
CONTINUOUS
10
6.4208309448818897
20
-4.3738674409448821
11
6.423385433070866
21
-4.3721605511811026
0
LINE
8
BLACK
6
CONTINUOUS
10
6.423385433070866
20
-4.3721605511811026
11
6.4263987007874013
21
-4.3715611811023622
0
LINE
8
BLACK
6
CONTINUOUS
10
6.4263987007874013
20
-4.3715611811023622
11
6.455057204724409
21
-4.3715611811023622
0
LINE
8
BLACK
6
CONTINUOUS
10
6.455057204724409
20
-4.3715611811023622
11
6.4553555118110237
21
-4.3006950393700789
0
LINE
8
BLACK
6
CONTINUOUS
10
6.4553555118110237
20
-4.3006950393700789
11
6.4263987007874013
21
-4.3006950393700789
0
LINE
8
BLACK
6
CONTINUOUS
10
6.4263987007874013
20
-4.3006950393700789
11
6.423385433070866
21
-4.3000956692913386
0
LINE
8
BLACK
6
CONTINUOUS
10
6.423385433070866
20
-4.3000956692913386
11
6.4208309448818897
21
-4.298388779527559
0
LINE
8
BLACK
6
CONTINUOUS
10
6.4208309448818897
20
-4.298388779527559
11
6.4191240551181101
21
-4.2958342913385827
0
LINE
8
BLACK
6
CONTINUOUS
10
6.4191240551181101
20
-4.2958342913385827
11
6.4185246850393698
21
-4.2928210236220474
0
LINE
8
BLACK
6
CONTINUOUS
10
6.4185246850393698
20
-4.2928210236220474
11
6.4185246850393698
21
-4.1432147244094484
0
LINE
8
BLACK
6
CONTINUOUS
10
6.4185246850393698
20
-4.1432147244094484
11
6.4191240551181101
21
-4.1402014566929131
0
LINE
8
BLACK
6
CONTINUOUS
10
6.4191240551181101
20
-4.1402014566929131
11
6.4208309448818897
21
-4.1376469685039368
0
LINE
8
BLACK
6
CONTINUOUS
10
6.4208309448818897
20
-4.1376469685039368
11
6.423385433070866
21
-4.1359400787401572
0
LINE
8
BLACK
6
CONTINUOUS
10
6.423385433070866
20
-4.1359400787401572
11
6.4263987007874013
21
-4.1353407086614169
0
LINE
8
BLACK
6
CONTINUOUS
10
6.4263987007874013
20
-4.1353407086614169
11
6.4560515354330708
21
-4.1353407086614169
0
LINE
8
BLACK
6
CONTINUOUS
10
6.4560515354330708
20
-4.1353407086614169
11
6.4563498425196846
21
-4.0644745669291336
0
LINE
8
BLACK
6
CONTINUOUS
10
6.4563498425196846
20
-4.0644745669291336
11
6.4263987007874013
21
-4.0644745669291336
0
LINE
8
BLACK
6
CONTINUOUS
10
6.4263987007874013
20
-4.0644745669291336
11
6.423385433070866
21
-4.0638751968503932
0
LINE
8
BLACK
6
CONTINUOUS
10
6.423385433070866
20
-4.0638751968503932
11
6.4208309448818897
21
-4.0621683070866137
0
LINE
8
BLACK
6
CONTINUOUS
10
6.4208309448818897
20
-4.0621683070866137
11
6.4191240551181101
21
-4.0596138188976374
0
LINE
8
BLACK
6
CONTINUOUS
10
6.4191240551181101
20
-4.0596138188976374
11
6.4185246850393698
21
-4.0566005511811021
0
LINE
8
BLACK
6
CONTINUOUS
10
6.4185246850393698
20
-4.0566005511811021
11
6.4185246850393698
21
-3.9069942519685039
0
LINE
8
BLACK
6
CONTINUOUS
10
6.4185246850393698
20
-3.9069942519685039
11
6.4191240551181101
21
-3.9039809842519686
0
LINE
8
BLACK
6
CONTINUOUS
10
6.4191240551181101
20
-3.9039809842519686
11
6.4208309448818897
21
-3.9014264960629919
0
LINE
8
BLACK
6
CONTINUOUS
10
6.4208309448818897
20
-3.9014264960629919
11
6.423385433070866
21
-3.8997196062992123
0
LINE
8
BLACK
6
CONTINUOUS
10
6.423385433070866
20
-3.8997196062992123
11
6.4263987007874013
21
-3.8991202362204724
0
LINE
8
BLACK
6
CONTINUOUS
10
6.4263987007874013
20
-3.8991202362204724
11
6.4570458661417325
21
-3.8991202362204724
0
LINE
8
BLACK
6
CONTINUOUS
10
6.4570458661417325
20
-3.8991202362204724
11
6.4573441732283463
21
-3.8282540944881891
0
LINE
8
BLACK
6
CONTINUOUS
10
6.4573441732283463
20
-3.8282540944881891
11
6.4263987007874013
21
-3.8282540944881891
0
LINE
8
BLACK
6
CONTINUOUS
10
6.4263987007874013
20
-3.8282540944881891
11
6.423385433070866
21
-3.8276547244094488
0
LINE
8
BLACK
6
CONTINUOUS
10
6.423385433070866
20
-3.8276547244094488
11
6.4208309448818897
21
-3.8259478346456692
0
LINE
8
BLACK
6
CONTINUOUS
10
6.4208309448818897
20
-3.8259478346456692
11
6.4191240551181101
21
-3.8233933464566929
0
LINE
8
BLACK
6
CONTINUOUS
10
6.4191240551181101
20
-3.8233933464566929
11
6.4185246850393698
21
-3.8203800787401576
0
LINE
8
BLACK
6
CONTINUOUS
10
6.4185246850393698
20
-3.8203800787401576
11
6.4185246850393698
21
-3.670773779527559
0
LINE
8
BLACK
6
CONTINUOUS
10
6.4185246850393698
20
-3.670773779527559
11
6.4191240551181101
21
-3.6677605118110237
0
LINE
8
BLACK
6
CONTINUOUS
10
6.4191240551181101
20
-3.6677605118110237
11
6.4208309448818897
21
-3.6652060236220469
0
LINE
8
BLACK
6
CONTINUOUS
10
6.4208309448818897
20
-3.6652060236220469
11
6.423385433070866
21
-3.6634991338582674
0
LINE
8
BLACK
6
CONTINUOUS
10
6.423385433070866
20
-3.6634991338582674
11
6.4263987007874013
21
-3.6628997637795275
0
LINE
8
BLACK
6
CONTINUOUS
10
6.4263987007874013
20
-3.6628997637795275
11
6.4580401968503933
21
-3.6628997637795275
0
LINE
8
BLACK
6
CONTINUOUS
10
6.4580401968503933
20
-3.6628997637795275
11
6.458338503937008
21
-3.5920336220472442
0
LINE
8
BLACK
6
CONTINUOUS
10
6.458338503937008
20
-3.5920336220472442
11
6.4263987007874013
21
-3.5920336220472442
0
LINE
8
BLACK
6
CONTINUOUS
10
6.4263987007874013
20
-3.5920336220472442
11
6.423385433070866
21
-3.5914342519685039
0
LINE
8
BLACK
6
CONTINUOUS
10
6.423385433070866
20
-3.5914342519685039
11
6.4208309448818897
21
-3.5897273622047243
0
LINE
8
BLACK
6
CONTINUOUS
10
6.4208309448818897
20
-3.5897273622047243
11
6.4191240551181101
21
-3.587172874015748
0
LINE
8
BLACK
6
CONTINUOUS
10
6.4191240551181101
20
-3.587172874015748
11
6.4185246850393698
21
-3.5841596062992127
0
LINE
8
BLACK
6
CONTINUOUS
10
6.4185246850393698
20
-3.5841596062992127
11
6.4185246850393698
21
-3.4345533070866141
0
LINE
8
BLACK
6
CONTINUOUS
10
6.4185246850393698
20
-3.4345533070866141
11
6.4191240551181101
21
-3.4315400393700788
0
LINE
8
BLACK
6
CONTINUOUS
10
6.4191240551181101
20
-3.4315400393700788
11
6.4208309448818897
21
-3.4289855511811025
0
LINE
8
BLACK
6
CONTINUOUS
10
6.4208309448818897
20
-3.4289855511811025
11
6.423385433070866
21
-3.427278661417323
0
LINE
8
BLACK
6
CONTINUOUS
10
6.423385433070866
20
-3.427278661417323
11
6.4263987007874013
21
-3.4266792913385826
0
LINE
8
BLACK
6
CONTINUOUS
10
6.4263987007874013
20
-3.4266792913385826
11
6.4590345669291338
21
-3.4266792913385826
0
LINE
8
BLACK
6
CONTINUOUS
10
6.4590345669291338
20
-3.4266792913385826
11
6.4593328346456689
21
-3.3558131496062993
0
LINE
8
BLACK
6
CONTINUOUS
10
6.4593328346456689
20
-3.3558131496062993
11
6.4263987007874013
21
-3.3558131496062993
0
LINE
8
BLACK
6
CONTINUOUS
10
6.4263987007874013
20
-3.3558131496062993
11
6.423385433070866
21
-3.3552137795275589
0
LINE
8
BLACK
6
CONTINUOUS
10
6.423385433070866
20
-3.3552137795275589
11
6.4208309448818897
21
-3.3535068897637794
0
LINE
8
BLACK
6
CONTINUOUS
10
6.4208309448818897
20
-3.3535068897637794
11
6.4191240551181101
21
-3.3509524015748031
0
LINE
8
BLACK
6
CONTINUOUS
10
6.4191240551181101
20
-3.3509524015748031
11
6.4185246850393698
21
-3.3479391338582678
0
LINE
8
BLACK
6
CONTINUOUS
10
6.4185246850393698
20
-3.3479391338582678
11
6.4185246850393698
21
-3.2652619685039368
0
LINE
8
BLACK
6
CONTINUOUS
10
6.4185246850393698
20
-3.2652619685039368
11
6.3358475196850392
21
-3.2652619685039368
0
LINE
8
BLACK
6
CONTINUOUS
10
6.3358475196850392
20
-3.2652619685039368
11
6.3328342519685039
21
-3.2646625984251969
0
LINE
8
BLACK
6
CONTINUOUS
10
6.3328342519685039
20
-3.2646625984251969
11
6.3302797637795276
21
-3.2629557086614174
0
LINE
8
BLACK
6
CONTINUOUS
10
6.3302797637795276
20
-3.2629557086614174
11
6.3285728740157481
21
-3.2604012204724411
0
LINE
8
BLACK
6
CONTINUOUS
10
6.3285728740157481
20
-3.2604012204724411
11
6.3279735039370077
21
-3.2573879527559053
0
LINE
8
BLACK
6
CONTINUOUS
10
6.3279735039370077
20
-3.2573879527559053
11
6.3279735039370077
21
-3.2370729527559052
0
LINE
8
BLACK
6
CONTINUOUS
10
6.3279735039370077
20
-3.2370729527559052
11
6.2571073622047244
21
-3.2370729527559052
0
LINE
8
BLACK
6
CONTINUOUS
10
6.2571073622047244
20
-3.2370729527559052
11
6.2571073622047244
21
-3.2573879527559053
0
LINE
8
BLACK
6
CONTINUOUS
10
6.2571073622047244
20
-3.2573879527559053
11
6.2565079921259841
21
-3.2604012204724411
0
LINE
8
BLACK
6
CONTINUOUS
10
6.2565079921259841
20
-3.2604012204724411
11
6.2548011023622045
21
-3.2629557086614174
0
LINE
8
BLACK
6
CONTINUOUS
10
6.2548011023622045
20
-3.2629557086614174
11
6.2522466141732282
21
-3.2646625984251969
0
LINE
8
BLACK
6
CONTINUOUS
10
6.2522466141732282
20
-3.2646625984251969
11
6.2492333464566929
21
-3.2652619685039368
0
LINE
8
BLACK
6
CONTINUOUS
10
6.2492333464566929
20
-3.2652619685039368
11
6.0996270472440948
21
-3.2652619685039368
0
LINE
8
BLACK
6
CONTINUOUS
10
6.0996270472440948
20
-3.2652619685039368
11
6.0966137795275586
21
-3.2646625984251969
0
LINE
8
BLACK
6
CONTINUOUS
10
6.0966137795275586
20
-3.2646625984251969
11
6.0940592913385823
21
-3.2629557086614174
0
LINE
8
BLACK
6
CONTINUOUS
10
6.0940592913385823
20
-3.2629557086614174
11
6.0923524015748027
21
-3.2604012204724411
0
LINE
8
BLACK
6
CONTINUOUS
10
6.0923524015748027
20
-3.2604012204724411
11
6.0917530314960633
21
-3.2573879527559053
0
LINE
8
BLACK
6
CONTINUOUS
10
6.0917530314960633
20
-3.2573879527559053
11
6.0917530314960633
21
-3.2370729527559052
0
LINE
8
BLACK
6
CONTINUOUS
10
6.0917530314960633
20
-3.2370729527559052
11
6.0208868897637791
21
-3.2370729527559052
0
LINE
8
BLACK
6
CONTINUOUS
10
6.0208868897637791
20
-3.2370729527559052
11
6.0208868897637791
21
-3.2573879527559053
0
LINE
8
BLACK
6
CONTINUOUS
10
6.0208868897637791
20
-3.2573879527559053
11
6.0202875196850396
21
-3.2604012204724411
0
LINE
8
BLACK
6
CONTINUOUS
10
6.0202875196850396
20
-3.2604012204724411
11
6.0185806299212601
21
-3.2629557086614174
0
LINE
8
BLACK
6
CONTINUOUS
10
6.0185806299212601
20
-3.2629557086614174
11
6.0160261417322829
21
-3.2646625984251969
0
LINE
8
BLACK
6
CONTINUOUS
10
6.0160261417322829
20
-3.2646625984251969
11
6.0130128740157476
21
-3.2652619685039368
0
LINE
8
BLACK
6
CONTINUOUS
10
6.0130128740157476
20
-3.2652619685039368
11
5.8634065748031494
21
-3.2652619685039368
0
LINE
8
BLACK
6
CONTINUOUS
10
5.8634065748031494
20
-3.2652619685039368
11
5.8603933070866141
21
-3.2646625984251969
0
LINE
8
BLACK
6
CONTINUOUS
10
5.8603933070866141
20
-3.2646625984251969
11
5.8578388188976378
21
-3.2629557086614174
0
LINE
8
BLACK
6
CONTINUOUS
10
5.8578388188976378
20
-3.2629557086614174
11
5.8561319291338583
21
-3.2604012204724411
0
LINE
8
BLACK
6
CONTINUOUS
10
5.8561319291338583
20
-3.2604012204724411
11
5.8555325590551179
21
-3.2573879527559053
0
LINE
8
BLACK
6
CONTINUOUS
10
5.8555325590551179
20
-3.2573879527559053
11
5.8555325590551179
21
-3.2370729527559052
0
LINE
8
BLACK
6
CONTINUOUS
10
5.8555325590551179
20
-3.2370729527559052
11
5.7846664173228346
21
-3.2370729527559052
0
LINE
8
BLACK
6
CONTINUOUS
10
5.7846664173228346
20
-3.2370729527559052
11
5.7846664173228346
21
-3.2573879527559053
0
LINE
8
BLACK
6
CONTINUOUS
10
5.7846664173228346
20
-3.2573879527559053
11
5.7840670472440943
21
-3.2604012204724411
0
LINE
8
BLACK
6
CONTINUOUS
10
5.7840670472440943
20
-3.2604012204724411
11
5.7823601574803147
21
-3.2629557086614174
0
LINE
8
BLACK
6
CONTINUOUS
10
5.7823601574803147
20
-3.2629557086614174
11
5.7798056692913384
21
-3.2646625984251969
0
LINE
8
BLACK
6
CONTINUOUS
10
5.7798056692913384
20
-3.2646625984251969
11
5.7767924015748031
21
-3.2652619685039368
0
LINE
8
BLACK
6
CONTINUOUS
10
5.7767924015748031
20
-3.2652619685039368
11
5.627186102362205
21
-3.2652619685039368
0
LINE
8
BLACK
6
CONTINUOUS
10
5.627186102362205
20
-3.2652619685039368
11
5.6241728346456688
21
-3.2646625984251969
0
LINE
8
BLACK
6
CONTINUOUS
10
5.6241728346456688
20
-3.2646625984251969
11
5.6216183464566924
21
-3.2629557086614174
0
LINE
8
BLACK
6
CONTINUOUS
10
5.6216183464566924
20
-3.2629557086614174
11
5.6199114566929129
21
-3.2604012204724411
0
LINE
8
BLACK
6
CONTINUOUS
10
5.6199114566929129
20
-3.2604012204724411
11
5.6193120866141735
21
-3.2573879527559053
0
LINE
8
BLACK
6
CONTINUOUS
10
5.6193120866141735
20
-3.2573879527559053
11
5.6193120866141735
21
-3.2370729527559052
0
LINE
8
BLACK
6
CONTINUOUS
10
5.6193120866141735
20
-3.2370729527559052
11
5.5484459448818892
21
-3.2370729527559052
0
LINE
8
BLACK
6
CONTINUOUS
10
5.5484459448818892
20
-3.2370729527559052
11
5.5484459448818892
21
-3.2573879527559053
0
LINE
8
BLACK
6
CONTINUOUS
10
5.5484459448818892
20
-3.2573879527559053
11
5.5478465748031498
21
-3.2604012204724411
0
LINE
8
BLACK
6
CONTINUOUS
10
5.5478465748031498
20
-3.2604012204724411
11
5.5461396850393703
21
-3.2629557086614174
0
LINE
8
BLACK
6
CONTINUOUS
10
5.5461396850393703
20
-3.2629557086614174
11
5.543585196850394
21
-3.2646625984251969
0
LINE
8
BLACK
6
CONTINUOUS
10
5.543585196850394
20
-3.2646625984251969
11
5.5405719291338578
21
-3.2652619685039368
0
LINE
8
BLACK
6
CONTINUOUS
10
5.5405719291338578
20
-3.2652619685039368
11
5.3909656299212596
21
-3.2652619685039368
0
LINE
8
BLACK
6
CONTINUOUS
10
5.3909656299212596
20
-3.2652619685039368
11
5.3879523622047243
21
-3.2646625984251969
0
LINE
8
BLACK
6
CONTINUOUS
10
5.3879523622047243
20
-3.2646625984251969
11
5.385397874015748
21
-3.2629557086614174
0
LINE
8
BLACK
6
CONTINUOUS
10
5.385397874015748
20
-3.2629557086614174
11
5.3836909842519685
21
-3.2604012204724411
0
LINE
8
BLACK
6
CONTINUOUS
10
5.3836909842519685
20
-3.2604012204724411
11
5.3830916141732281
21
-3.2573879527559053
0
LINE
8
BLACK
6
CONTINUOUS
10
5.3830916141732281
20
-3.2573879527559053
11
5.3830916141732281
21
-3.2370729527559052
0
LINE
8
BLACK
6
CONTINUOUS
10
5.3830916141732281
20
-3.2370729527559052
11
5.3122254724409448
21
-3.2370729527559052
0
LINE
8
BLACK
6
CONTINUOUS
10
5.3122254724409448
20
-3.2370729527559052
11
5.3122254724409448
21
-3.2573879527559053
  0
ENDSEC
  0
EOF
