  0
SECTION
  2
HEADER
  9
$ANGBASE
  50
0.0
  9
$ANGDIR
  70
1
  9
$MEASUREMENT
  70
0
  0
ENDSEC
  0
SECTION
  2
TABLES
  0
TABLE
  2
LTYPE
  70
4
  0
LTYPE
  5
40F
  2
CONTINUOUS
  70
0
  3
Solid line
  72
65
  73
0
  40
0.0
  0
LTYPE
  5
410
  2
DASHDOT
 70
0
  3
Dash Dot ____ _ ____ _
 72
65
 73
4
 40
2.0
 49
1.25
 49
-0.25
 49
0.25
 49
-0.25
  0
LTYPE
  5
411
  2
DASHED
 70
0
  3
Dashed __ __ __ __ __
 72
65
 73
2
 40
0.75
 49
0.5
 49
-0.25
  0
LTYPE
  5
43B
  2
DOTTED
 70
0
  3
Dotted .  .  .  .
 72
65
 73
2
 40
0.2
 49
0.0
 49
-0.2
  0
ENDTAB
  0
TABLE
  2
STYLE
  70
4
  0
STYLE
  2
KICAD
  70
0
  40
0
  41
1
  42
1
  50
0
  71
0
  3
isocp.shx
  0
STYLE
  2
KICADB
  70
0
  40
0
  41
1
  42
1
  50
0
  71
0
  3
isocp.shx
  0
STYLE
  2
KICADI
  70
0
  40
0
  41
1
  42
1
  50
15
  71
0
  3
isocp.shx
  0
STYLE
  2
KICADBI
  70
0
  40
0
  41
1
  42
1
  50
15
  71
0
  3
isocp.shx
  0
ENDTAB
  0
TABLE
  2
LAYER
  70
1
  0
LAYER
  2
BLACK
  70
0
  62
7
  6
CONTINUOUS
  0
ENDTAB
  0
ENDSEC
  0
SECTION
  2
ENTITIES
0
LINE
8
BLACK
6
CONTINUOUS
10
1.88483
20
0.410752
11
1.9242
21
0.410752
0
LINE
8
BLACK
6
CONTINUOUS
10
1.9242
20
0.410752
11
1.9242
21
0.320201
0
LINE
8
BLACK
6
CONTINUOUS
10
1.9242
20
0.320201
11
2.01475
21
0.320201
0
LINE
8
BLACK
6
CONTINUOUS
10
2.01475
20
0.320201
11
2.01475
21
0.280831
0
LINE
8
BLACK
6
CONTINUOUS
10
2.01475
20
0.280831
11
1.88483
21
0.280831
0
LINE
8
BLACK
6
CONTINUOUS
10
1.88483
20
0.280831
11
1.88483
21
0.410752
0
LINE
8
BLACK
6
CONTINUOUS
10
2.72341
20
0.280831
11
2.57381
21
0.280831
0
LINE
8
BLACK
6
CONTINUOUS
10
2.57381
20
0.280831
11
2.57381
21
0.320201
0
LINE
8
BLACK
6
CONTINUOUS
10
2.57381
20
0.320201
11
2.72341
21
0.320201
0
LINE
8
BLACK
6
CONTINUOUS
10
2.72341
20
0.320201
11
2.72341
21
0.280831
0
LINE
8
BLACK
6
CONTINUOUS
10
3.04625
20
0.280831
11
3.04625
21
0.320201
0
LINE
8
BLACK
6
CONTINUOUS
10
3.04625
20
0.320201
11
3.1368
21
0.320201
0
LINE
8
BLACK
6
CONTINUOUS
10
3.1368
20
0.320201
11
3.1368
21
0.410752
0
LINE
8
BLACK
6
CONTINUOUS
10
3.1368
20
0.410752
11
3.17617
21
0.410752
0
LINE
8
BLACK
6
CONTINUOUS
10
3.17617
20
0.410752
11
3.17617
21
0.280831
0
LINE
8
BLACK
6
CONTINUOUS
10
3.17617
20
0.280831
11
3.04625
21
0.280831
0
LINE
8
BLACK
6
CONTINUOUS
10
2.25097
20
0.280831
11
2.10137
21
0.280831
0
LINE
8
BLACK
6
CONTINUOUS
10
2.10137
20
0.280831
11
2.10137
21
0.320201
0
LINE
8
BLACK
6
CONTINUOUS
10
2.10137
20
0.320201
11
2.25097
21
0.320201
0
LINE
8
BLACK
6
CONTINUOUS
10
2.25097
20
0.320201
11
2.25097
21
0.280831
0
LINE
8
BLACK
6
CONTINUOUS
10
2.95963
20
0.280831
11
2.81003
21
0.280831
0
LINE
8
BLACK
6
CONTINUOUS
10
2.81003
20
0.280831
11
2.81003
21
0.320201
0
LINE
8
BLACK
6
CONTINUOUS
10
2.81003
20
0.320201
11
2.95963
21
0.320201
0
LINE
8
BLACK
6
CONTINUOUS
10
2.95963
20
0.320201
11
2.95963
21
0.280831
0
LINE
8
BLACK
6
CONTINUOUS
10
2.48719
20
0.280831
11
2.33759
21
0.280831
0
LINE
8
BLACK
6
CONTINUOUS
10
2.33759
20
0.280831
11
2.33759
21
0.320201
0
LINE
8
BLACK
6
CONTINUOUS
10
2.33759
20
0.320201
11
2.48719
21
0.320201
0
LINE
8
BLACK
6
CONTINUOUS
10
2.48719
20
0.320201
11
2.48719
21
0.280831
0
LINE
8
BLACK
6
CONTINUOUS
10
3.17617
20
0.497366
11
3.1368
21
0.497366
0
LINE
8
BLACK
6
CONTINUOUS
10
3.1368
20
0.497366
11
3.1368
21
0.646972
0
LINE
8
BLACK
6
CONTINUOUS
10
3.1368
20
0.646972
11
3.17617
21
0.646972
0
LINE
8
BLACK
6
CONTINUOUS
10
3.17617
20
0.646972
11
3.17617
21
0.497366
0
LINE
8
BLACK
6
CONTINUOUS
10
1.9242
20
0.497366
11
1.88483
21
0.497366
0
LINE
8
BLACK
6
CONTINUOUS
10
1.88483
20
0.497366
11
1.88483
21
0.646972
0
LINE
8
BLACK
6
CONTINUOUS
10
1.88483
20
0.646972
11
1.9242
21
0.646972
0
LINE
8
BLACK
6
CONTINUOUS
10
1.9242
20
0.646972
11
1.9242
21
0.497366
0
LINE
8
BLACK
6
CONTINUOUS
10
3.17617
20
0.733587
11
3.1368
21
0.733587
0
LINE
8
BLACK
6
CONTINUOUS
10
3.1368
20
0.733587
11
3.1368
21
0.883193
0
LINE
8
BLACK
6
CONTINUOUS
10
3.1368
20
0.883193
11
3.17617
21
0.883193
0
LINE
8
BLACK
6
CONTINUOUS
10
3.17617
20
0.883193
11
3.17617
21
0.733587
0
LINE
8
BLACK
6
CONTINUOUS
10
1.9242
20
0.733587
11
1.88483
21
0.733587
0
LINE
8
BLACK
6
CONTINUOUS
10
1.88483
20
0.733587
11
1.88483
21
0.883193
0
LINE
8
BLACK
6
CONTINUOUS
10
1.88483
20
0.883193
11
1.9242
21
0.883193
0
LINE
8
BLACK
6
CONTINUOUS
10
1.9242
20
0.883193
11
1.9242
21
0.733587
0
LINE
8
BLACK
6
CONTINUOUS
10
3.17617
20
0.969807
11
3.1368
21
0.969807
0
LINE
8
BLACK
6
CONTINUOUS
10
3.1368
20
0.969807
11
3.1368
21
1.11941
0
LINE
8
BLACK
6
CONTINUOUS
10
3.1368
20
1.11941
11
3.17617
21
1.11941
0
LINE
8
BLACK
6
CONTINUOUS
10
3.17617
20
1.11941
11
3.17617
21
0.969807
0
LINE
8
BLACK
6
CONTINUOUS
10
1.9242
20
0.969807
11
1.88483
21
0.969807
0
LINE
8
BLACK
6
CONTINUOUS
10
1.88483
20
0.969807
11
1.88483
21
1.11941
0
LINE
8
BLACK
6
CONTINUOUS
10
1.88483
20
1.11941
11
1.9242
21
1.11941
0
LINE
8
BLACK
6
CONTINUOUS
10
1.9242
20
1.11941
11
1.9242
21
0.969807
0
LINE
8
BLACK
6
CONTINUOUS
10
1.9242
20
1.20603
11
1.88483
21
1.20603
0
LINE
8
BLACK
6
CONTINUOUS
10
1.88483
20
1.20603
11
1.88483
21
1.35563
0
LINE
8
BLACK
6
CONTINUOUS
10
1.88483
20
1.35563
11
1.9242
21
1.35563
0
LINE
8
BLACK
6
CONTINUOUS
10
1.9242
20
1.35563
11
1.9242
21
1.20603
0
LINE
8
BLACK
6
CONTINUOUS
10
3.17617
20
1.20603
11
3.1368
21
1.20603
0
LINE
8
BLACK
6
CONTINUOUS
10
3.1368
20
1.20603
11
3.1368
21
1.35563
0
LINE
8
BLACK
6
CONTINUOUS
10
3.1368
20
1.35563
11
3.17617
21
1.35563
0
LINE
8
BLACK
6
CONTINUOUS
10
3.17617
20
1.35563
11
3.17617
21
1.20603
0
LINE
8
BLACK
6
CONTINUOUS
10
2.01475
20
1.57217
11
2.01475
21
1.5328
0
LINE
8
BLACK
6
CONTINUOUS
10
2.01475
20
1.5328
11
1.9242
21
1.5328
0
LINE
8
BLACK
6
CONTINUOUS
10
1.9242
20
1.5328
11
1.9242
21
1.44225
0
LINE
8
BLACK
6
CONTINUOUS
10
1.9242
20
1.44225
11
1.88483
21
1.44225
0
LINE
8
BLACK
6
CONTINUOUS
10
1.88483
20
1.44225
11
1.88483
21
1.57217
0
LINE
8
BLACK
6
CONTINUOUS
10
1.88483
20
1.57217
11
2.01475
21
1.57217
0
LINE
8
BLACK
6
CONTINUOUS
10
3.04625
20
1.57217
11
3.17617
21
1.57217
0
LINE
8
BLACK
6
CONTINUOUS
10
3.17617
20
1.57217
11
3.17617
21
1.44225
0
LINE
8
BLACK
6
CONTINUOUS
10
3.17617
20
1.44225
11
3.1368
21
1.44225
0
LINE
8
BLACK
6
CONTINUOUS
10
3.1368
20
1.44225
11
3.1368
21
1.5328
0
LINE
8
BLACK
6
CONTINUOUS
10
3.1368
20
1.5328
11
3.04625
21
1.5328
0
LINE
8
BLACK
6
CONTINUOUS
10
3.04625
20
1.5328
11
3.04625
21
1.57217
0
LINE
8
BLACK
6
CONTINUOUS
10
2.48719
20
1.5328
11
2.33759
21
1.5328
0
LINE
8
BLACK
6
CONTINUOUS
10
2.33759
20
1.5328
11
2.33759
21
1.57217
0
LINE
8
BLACK
6
CONTINUOUS
10
2.33759
20
1.57217
11
2.48719
21
1.57217
0
LINE
8
BLACK
6
CONTINUOUS
10
2.48719
20
1.57217
11
2.48719
21
1.5328
0
LINE
8
BLACK
6
CONTINUOUS
10
2.25097
20
1.5328
11
2.10137
21
1.5328
0
LINE
8
BLACK
6
CONTINUOUS
10
2.10137
20
1.5328
11
2.10137
21
1.57217
0
LINE
8
BLACK
6
CONTINUOUS
10
2.10137
20
1.57217
11
2.25097
21
1.57217
0
LINE
8
BLACK
6
CONTINUOUS
10
2.25097
20
1.57217
11
2.25097
21
1.5328
0
LINE
8
BLACK
6
CONTINUOUS
10
2.72341
20
1.5328
11
2.57381
21
1.5328
0
LINE
8
BLACK
6
CONTINUOUS
10
2.57381
20
1.5328
11
2.57381
21
1.57217
0
LINE
8
BLACK
6
CONTINUOUS
10
2.57381
20
1.57217
11
2.72341
21
1.57217
0
LINE
8
BLACK
6
CONTINUOUS
10
2.72341
20
1.57217
11
2.72341
21
1.5328
0
LINE
8
BLACK
6
CONTINUOUS
10
2.95963
20
1.5328
11
2.81003
21
1.5328
0
LINE
8
BLACK
6
CONTINUOUS
10
2.81003
20
1.5328
11
2.81003
21
1.57217
0
LINE
8
BLACK
6
CONTINUOUS
10
2.81003
20
1.57217
11
2.95963
21
1.57217
0
LINE
8
BLACK
6
CONTINUOUS
10
2.95963
20
1.57217
11
2.95963
21
1.5328
0
LINE
8
BLACK
6
CONTINUOUS
10
1.64433
20
1.72425
11
1.6837
21
1.72425
0
LINE
8
BLACK
6
CONTINUOUS
10
1.6837
20
1.72425
11
1.6837
21
1.6337
0
LINE
8
BLACK
6
CONTINUOUS
10
1.6837
20
1.6337
11
1.77425
21
1.6337
0
LINE
8
BLACK
6
CONTINUOUS
10
1.77425
20
1.6337
11
1.77425
21
1.59433
0
LINE
8
BLACK
6
CONTINUOUS
10
1.77425
20
1.59433
11
1.64433
21
1.59433
0
LINE
8
BLACK
6
CONTINUOUS
10
1.64433
20
1.59433
11
1.64433
21
1.72425
0
LINE
8
BLACK
6
CONTINUOUS
10
2.48291
20
1.59433
11
2.33331
21
1.59433
0
LINE
8
BLACK
6
CONTINUOUS
10
2.33331
20
1.59433
11
2.33331
21
1.6337
0
LINE
8
BLACK
6
CONTINUOUS
10
2.33331
20
1.6337
11
2.48291
21
1.6337
0
LINE
8
BLACK
6
CONTINUOUS
10
2.48291
20
1.6337
11
2.48291
21
1.59433
0
LINE
8
BLACK
6
CONTINUOUS
10
2.01047
20
1.59433
11
1.86087
21
1.59433
0
LINE
8
BLACK
6
CONTINUOUS
10
1.86087
20
1.59433
11
1.86087
21
1.6337
0
LINE
8
BLACK
6
CONTINUOUS
10
1.86087
20
1.6337
11
2.01047
21
1.6337
0
LINE
8
BLACK
6
CONTINUOUS
10
2.01047
20
1.6337
11
2.01047
21
1.59433
0
LINE
8
BLACK
6
CONTINUOUS
10
2.71913
20
1.59433
11
2.56953
21
1.59433
0
LINE
8
BLACK
6
CONTINUOUS
10
2.56953
20
1.59433
11
2.56953
21
1.6337
0
LINE
8
BLACK
6
CONTINUOUS
10
2.56953
20
1.6337
11
2.71913
21
1.6337
0
LINE
8
BLACK
6
CONTINUOUS
10
2.71913
20
1.6337
11
2.71913
21
1.59433
0
LINE
8
BLACK
6
CONTINUOUS
10
2.80575
20
1.59433
11
2.80575
21
1.6337
0
LINE
8
BLACK
6
CONTINUOUS
10
2.80575
20
1.6337
11
2.8963
21
1.6337
0
LINE
8
BLACK
6
CONTINUOUS
10
2.8963
20
1.6337
11
2.8963
21
1.72425
0
LINE
8
BLACK
6
CONTINUOUS
10
2.8963
20
1.72425
11
2.93567
21
1.72425
0
LINE
8
BLACK
6
CONTINUOUS
10
2.93567
20
1.72425
11
2.93567
21
1.59433
0
LINE
8
BLACK
6
CONTINUOUS
10
2.93567
20
1.59433
11
2.80575
21
1.59433
0
LINE
8
BLACK
6
CONTINUOUS
10
2.24669
20
1.59433
11
2.09709
21
1.59433
0
LINE
8
BLACK
6
CONTINUOUS
10
2.09709
20
1.59433
11
2.09709
21
1.6337
0
LINE
8
BLACK
6
CONTINUOUS
10
2.09709
20
1.6337
11
2.24669
21
1.6337
0
LINE
8
BLACK
6
CONTINUOUS
10
2.24669
20
1.6337
11
2.24669
21
1.59433
0
LINE
8
BLACK
6
CONTINUOUS
10
2.93567
20
1.81087
11
2.8963
21
1.81087
0
LINE
8
BLACK
6
CONTINUOUS
10
2.8963
20
1.81087
11
2.8963
21
1.96047
0
LINE
8
BLACK
6
CONTINUOUS
10
2.8963
20
1.96047
11
2.93567
21
1.96047
0
LINE
8
BLACK
6
CONTINUOUS
10
2.93567
20
1.96047
11
2.93567
21
1.81087
0
LINE
8
BLACK
6
CONTINUOUS
10
1.6837
20
1.81087
11
1.64433
21
1.81087
0
LINE
8
BLACK
6
CONTINUOUS
10
1.64433
20
1.81087
11
1.64433
21
1.96047
0
LINE
8
BLACK
6
CONTINUOUS
10
1.64433
20
1.96047
11
1.6837
21
1.96047
0
LINE
8
BLACK
6
CONTINUOUS
10
1.6837
20
1.96047
11
1.6837
21
1.81087
0
LINE
8
BLACK
6
CONTINUOUS
10
2.93567
20
2.04709
11
2.8963
21
2.04709
0
LINE
8
BLACK
6
CONTINUOUS
10
2.8963
20
2.04709
11
2.8963
21
2.19669
0
LINE
8
BLACK
6
CONTINUOUS
10
2.8963
20
2.19669
11
2.93567
21
2.19669
0
LINE
8
BLACK
6
CONTINUOUS
10
2.93567
20
2.19669
11
2.93567
21
2.04709
0
LINE
8
BLACK
6
CONTINUOUS
10
1.6837
20
2.04709
11
1.64433
21
2.04709
0
LINE
8
BLACK
6
CONTINUOUS
10
1.64433
20
2.04709
11
1.64433
21
2.19669
0
LINE
8
BLACK
6
CONTINUOUS
10
1.64433
20
2.19669
11
1.6837
21
2.19669
0
LINE
8
BLACK
6
CONTINUOUS
10
1.6837
20
2.19669
11
1.6837
21
2.04709
0
LINE
8
BLACK
6
CONTINUOUS
10
1.6837
20
2.28331
11
1.64433
21
2.28331
0
LINE
8
BLACK
6
CONTINUOUS
10
1.64433
20
2.28331
11
1.64433
21
2.43291
0
LINE
8
BLACK
6
CONTINUOUS
10
1.64433
20
2.43291
11
1.6837
21
2.43291
0
LINE
8
BLACK
6
CONTINUOUS
10
1.6837
20
2.43291
11
1.6837
21
2.28331
0
LINE
8
BLACK
6
CONTINUOUS
10
2.93567
20
2.28331
11
2.8963
21
2.28331
0
LINE
8
BLACK
6
CONTINUOUS
10
2.8963
20
2.28331
11
2.8963
21
2.43291
0
LINE
8
BLACK
6
CONTINUOUS
10
2.8963
20
2.43291
11
2.93567
21
2.43291
0
LINE
8
BLACK
6
CONTINUOUS
10
2.93567
20
2.43291
11
2.93567
21
2.28331
0
LINE
8
BLACK
6
CONTINUOUS
10
1.6837
20
2.51953
11
1.64433
21
2.51953
0
LINE
8
BLACK
6
CONTINUOUS
10
1.64433
20
2.51953
11
1.64433
21
2.66913
0
LINE
8
BLACK
6
CONTINUOUS
10
1.64433
20
2.66913
11
1.6837
21
2.66913
0
LINE
8
BLACK
6
CONTINUOUS
10
1.6837
20
2.66913
11
1.6837
21
2.51953
0
LINE
8
BLACK
6
CONTINUOUS
10
2.93567
20
2.51953
11
2.8963
21
2.51953
0
LINE
8
BLACK
6
CONTINUOUS
10
2.8963
20
2.51953
11
2.8963
21
2.66913
0
LINE
8
BLACK
6
CONTINUOUS
10
2.8963
20
2.66913
11
2.93567
21
2.66913
0
LINE
8
BLACK
6
CONTINUOUS
10
2.93567
20
2.66913
11
2.93567
21
2.51953
0
LINE
8
BLACK
6
CONTINUOUS
10
2.80575
20
2.88567
11
2.93567
21
2.88567
0
LINE
8
BLACK
6
CONTINUOUS
10
2.93567
20
2.88567
11
2.93567
21
2.75575
0
LINE
8
BLACK
6
CONTINUOUS
10
2.93567
20
2.75575
11
2.8963
21
2.75575
0
LINE
8
BLACK
6
CONTINUOUS
10
2.8963
20
2.75575
11
2.8963
21
2.8463
0
LINE
8
BLACK
6
CONTINUOUS
10
2.8963
20
2.8463
11
2.80575
21
2.8463
0
LINE
8
BLACK
6
CONTINUOUS
10
2.80575
20
2.8463
11
2.80575
21
2.88567
0
LINE
8
BLACK
6
CONTINUOUS
10
1.77425
20
2.88567
11
1.77425
21
2.8463
0
LINE
8
BLACK
6
CONTINUOUS
10
1.77425
20
2.8463
11
1.6837
21
2.8463
0
LINE
8
BLACK
6
CONTINUOUS
10
1.6837
20
2.8463
11
1.6837
21
2.75575
0
LINE
8
BLACK
6
CONTINUOUS
10
1.6837
20
2.75575
11
1.64433
21
2.75575
0
LINE
8
BLACK
6
CONTINUOUS
10
1.64433
20
2.75575
11
1.64433
21
2.88567
0
LINE
8
BLACK
6
CONTINUOUS
10
1.64433
20
2.88567
11
1.77425
21
2.88567
0
LINE
8
BLACK
6
CONTINUOUS
10
2.71913
20
2.8463
11
2.56953
21
2.8463
0
LINE
8
BLACK
6
CONTINUOUS
10
2.56953
20
2.8463
11
2.56953
21
2.88567
0
LINE
8
BLACK
6
CONTINUOUS
10
2.56953
20
2.88567
11
2.71913
21
2.88567
0
LINE
8
BLACK
6
CONTINUOUS
10
2.71913
20
2.88567
11
2.71913
21
2.8463
0
LINE
8
BLACK
6
CONTINUOUS
10
2.01047
20
2.8463
11
1.86087
21
2.8463
0
LINE
8
BLACK
6
CONTINUOUS
10
1.86087
20
2.8463
11
1.86087
21
2.88567
0
LINE
8
BLACK
6
CONTINUOUS
10
1.86087
20
2.88567
11
2.01047
21
2.88567
0
LINE
8
BLACK
6
CONTINUOUS
10
2.01047
20
2.88567
11
2.01047
21
2.8463
0
LINE
8
BLACK
6
CONTINUOUS
10
2.48291
20
2.8463
11
2.33331
21
2.8463
0
LINE
8
BLACK
6
CONTINUOUS
10
2.33331
20
2.8463
11
2.33331
21
2.88567
0
LINE
8
BLACK
6
CONTINUOUS
10
2.33331
20
2.88567
11
2.48291
21
2.88567
0
LINE
8
BLACK
6
CONTINUOUS
10
2.48291
20
2.88567
11
2.48291
21
2.8463
0
LINE
8
BLACK
6
CONTINUOUS
10
2.24669
20
2.8463
11
2.09709
21
2.8463
0
LINE
8
BLACK
6
CONTINUOUS
10
2.09709
20
2.8463
11
2.09709
21
2.88567
0
LINE
8
BLACK
6
CONTINUOUS
10
2.09709
20
2.88567
11
2.24669
21
2.88567
0
LINE
8
BLACK
6
CONTINUOUS
10
2.24669
20
2.88567
11
2.24669
21
2.8463
  0
ENDSEC
  0
EOF
