  0
SECTION
  2
HEADER
  9
$ANGBASE
  50
0.0
  9
$ANGDIR
  70
1
  9
$MEASUREMENT
  70
0
  0
ENDSEC
  0
SECTION
  2
TABLES
  0
TABLE
  2
LTYPE
  70
4
  0
LTYPE
  5
40F
  2
CONTINUOUS
  70
0
  3
Solid line
  72
65
  73
0
  40
0.0
  0
LTYPE
  5
410
  2
DASHDOT
 70
0
  3
Dash Dot ____ _ ____ _
 72
65
 73
4
 40
2.0
 49
1.25
 49
-0.25
 49
0.25
 49
-0.25
  0
LTYPE
  5
411
  2
DASHED
 70
0
  3
Dashed __ __ __ __ __
 72
65
 73
2
 40
0.75
 49
0.5
 49
-0.25
  0
LTYPE
  5
43B
  2
DOTTED
 70
0
  3
Dotted .  .  .  .
 72
65
 73
2
 40
0.2
 49
0.0
 49
-0.2
  0
ENDTAB
  0
TABLE
  2
STYLE
  70
4
  0
STYLE
  2
KICAD
  70
0
  40
0
  41
1
  42
1
  50
0
  71
0
  3
isocp.shx
  0
STYLE
  2
KICADB
  70
0
  40
0
  41
1
  42
1
  50
0
  71
0
  3
isocp.shx
  0
STYLE
  2
KICADI
  70
0
  40
0
  41
1
  42
1
  50
15
  71
0
  3
isocp.shx
  0
STYLE
  2
KICADBI
  70
0
  40
0
  41
1
  42
1
  50
15
  71
0
  3
isocp.shx
  0
ENDTAB
  0
TABLE
  2
LAYER
  70
1
  0
LAYER
  2
BLACK
  70
0
  62
7
  6
CONTINUOUS
  0
ENDTAB
  0
ENDSEC
  0
SECTION
  2
ENTITIES
0
LINE
8
BLACK
6
CONTINUOUS
10
5.1034328346456688
20
-3.5068211023622045
11
5.1039655118110234
21
-3.5073537795275591
0
LINE
8
BLACK
6
CONTINUOUS
10
5.1039655118110234
20
-3.5073537795275591
11
5.1040404330708657
21
-3.5077304330708658
0
LINE
8
BLACK
6
CONTINUOUS
10
5.1040404330708657
20
-3.5077304330708658
11
5.1040404330708657
21
-4.700643818897638
0
LINE
8
BLACK
6
CONTINUOUS
10
5.1040404330708657
20
-4.700643818897638
11
5.1039655118110234
21
-4.7010204724409448
0
LINE
8
BLACK
6
CONTINUOUS
10
5.1039655118110234
20
-4.7010204724409448
11
5.1034328346456688
21
-4.7015531496062994
0
LINE
8
BLACK
6
CONTINUOUS
10
5.1034328346456688
20
-4.7015531496062994
11
5.103056181102362
21
-4.7016280708661418
0
LINE
8
BLACK
6
CONTINUOUS
10
5.103056181102362
20
-4.7016280708661418
11
3.9101427952755903
21
-4.7016280708661418
0
LINE
8
BLACK
6
CONTINUOUS
10
3.9101427952755903
20
-4.7016280708661418
11
3.9097661417322835
21
-4.7015531496062994
0
LINE
8
BLACK
6
CONTINUOUS
10
3.9097661417322835
20
-4.7015531496062994
11
3.9092334645669289
21
-4.7010204724409448
0
LINE
8
BLACK
6
CONTINUOUS
10
3.9092334645669289
20
-4.7010204724409448
11
3.9091585433070866
21
-4.700643818897638
0
LINE
8
BLACK
6
CONTINUOUS
10
3.9091585433070866
20
-4.700643818897638
11
3.9091585433070866
21
-3.5077304330708658
0
LINE
8
BLACK
6
CONTINUOUS
10
3.9091585433070866
20
-3.5077304330708658
11
3.9092334645669289
21
-3.5073537795275591
0
LINE
8
BLACK
6
CONTINUOUS
10
3.9092334645669289
20
-3.5073537795275591
11
3.9097661417322835
21
-3.5068211023622045
0
LINE
8
BLACK
6
CONTINUOUS
10
3.9097661417322835
20
-3.5068211023622045
11
3.9101427952755903
21
-3.5067461811023621
0
LINE
8
BLACK
6
CONTINUOUS
10
3.9101427952755903
20
-3.5067461811023621
11
5.103056181102362
21
-3.5067461811023621
0
LINE
8
BLACK
6
CONTINUOUS
10
5.103056181102362
20
-3.5067461811023621
11
5.1034328346456688
21
-3.5068211023622045
0
LINE
8
BLACK
6
CONTINUOUS
10
3.9111270472440944
20
-3.50871468503937
11
3.9111270472440944
21
-4.6996595669291334
0
LINE
8
BLACK
6
CONTINUOUS
10
3.9111270472440944
20
-4.6996595669291334
11
5.1020719291338583
21
-4.6996595669291334
0
LINE
8
BLACK
6
CONTINUOUS
10
5.1020719291338583
20
-4.6996595669291334
11
5.1020719291338583
21
-3.50871468503937
0
LINE
8
BLACK
6
CONTINUOUS
10
5.1020719291338583
20
-3.50871468503937
11
3.9111270472440944
21
-3.50871468503937
0
LINE
8
BLACK
6
CONTINUOUS
10
5.1624879527559058
20
-3.4477659842519683
11
5.1630206299212595
21
-3.4482986614173226
0
LINE
8
BLACK
6
CONTINUOUS
10
5.1630206299212595
20
-3.4482986614173226
11
5.1630955511811019
21
-3.4486753149606297
0
LINE
8
BLACK
6
CONTINUOUS
10
5.1630955511811019
20
-3.4486753149606297
11
5.1630955511811019
21
-4.7596989370078742
0
LINE
8
BLACK
6
CONTINUOUS
10
5.1630955511811019
20
-4.7596989370078742
11
5.1630206299212595
21
-4.7600755905511809
0
LINE
8
BLACK
6
CONTINUOUS
10
5.1630206299212595
20
-4.7600755905511809
11
5.1624879527559058
21
-4.7606082677165356
0
LINE
8
BLACK
6
CONTINUOUS
10
5.1624879527559058
20
-4.7606082677165356
11
5.1621112992125981
21
-4.7606831889763779
0
LINE
8
BLACK
6
CONTINUOUS
10
5.1621112992125981
20
-4.7606831889763779
11
3.8510876771653542
21
-4.7606831889763779
0
LINE
8
BLACK
6
CONTINUOUS
10
3.8510876771653542
20
-4.7606831889763779
11
3.850711023622047
21
-4.7606082677165356
0
LINE
8
BLACK
6
CONTINUOUS
10
3.850711023622047
20
-4.7606082677165356
11
3.8501783464566928
21
-4.7600755905511809
0
LINE
8
BLACK
6
CONTINUOUS
10
3.8501783464566928
20
-4.7600755905511809
11
3.8501034251968504
21
-4.7596989370078742
0
LINE
8
BLACK
6
CONTINUOUS
10
3.8501034251968504
20
-4.7596989370078742
11
3.8501034251968504
21
-3.4486753149606297
0
LINE
8
BLACK
6
CONTINUOUS
10
3.8501034251968504
20
-3.4486753149606297
11
3.8501783464566928
21
-3.4482986614173226
0
LINE
8
BLACK
6
CONTINUOUS
10
3.8501783464566928
20
-3.4482986614173226
11
3.850711023622047
21
-3.4477659842519683
0
LINE
8
BLACK
6
CONTINUOUS
10
3.850711023622047
20
-3.4477659842519683
11
3.8510876771653542
21
-3.447691062992126
0
LINE
8
BLACK
6
CONTINUOUS
10
3.8510876771653542
20
-3.447691062992126
11
5.1621112992125981
21
-3.447691062992126
0
LINE
8
BLACK
6
CONTINUOUS
10
5.1621112992125981
20
-3.447691062992126
11
5.1624879527559058
21
-3.4477659842519683
0
LINE
8
BLACK
6
CONTINUOUS
10
3.8520719291338583
20
-3.4496595669291339
11
3.8520719291338583
21
-4.7587146850393696
0
LINE
8
BLACK
6
CONTINUOUS
10
3.8520719291338583
20
-4.7587146850393696
11
5.1611270472440944
21
-4.7587146850393696
0
LINE
8
BLACK
6
CONTINUOUS
10
5.1611270472440944
20
-4.7587146850393696
11
5.1611270472440944
21
-3.4496595669291339
0
LINE
8
BLACK
6
CONTINUOUS
10
5.1611270472440944
20
-3.4496595669291339
11
3.8520719291338583
21
-3.4496595669291339
0
LINE
8
BLACK
6
CONTINUOUS
10
6.4169328346456691
20
-3.2663211417322833
11
6.4174655118110238
21
-3.2668538188976379
0
LINE
8
BLACK
6
CONTINUOUS
10
6.4174655118110238
20
-3.2668538188976379
11
6.4175404330708661
21
-3.2672304724409447
0
LINE
8
BLACK
6
CONTINUOUS
10
6.4175404330708661
20
-3.2672304724409447
11
6.4175404330708661
21
-4.4601438582677169
0
LINE
8
BLACK
6
CONTINUOUS
10
6.4175404330708661
20
-4.4601438582677169
11
6.4174655118110238
21
-4.4605205118110236
0
LINE
8
BLACK
6
CONTINUOUS
10
6.4174655118110238
20
-4.4605205118110236
11
6.4169328346456691
21
-4.4610531889763783
0
LINE
8
BLACK
6
CONTINUOUS
10
6.4169328346456691
20
-4.4610531889763783
11
6.4165561811023624
21
-4.4611281102362206
0
LINE
8
BLACK
6
CONTINUOUS
10
6.4165561811023624
20
-4.4611281102362206
11
5.2236427952755902
21
-4.4611281102362206
0
LINE
8
BLACK
6
CONTINUOUS
10
5.2236427952755902
20
-4.4611281102362206
11
5.2232661417322834
21
-4.4610531889763783
0
LINE
8
BLACK
6
CONTINUOUS
10
5.2232661417322834
20
-4.4610531889763783
11
5.2227334645669288
21
-4.4605205118110236
0
LINE
8
BLACK
6
CONTINUOUS
10
5.2227334645669288
20
-4.4605205118110236
11
5.2226585433070865
21
-4.4601438582677169
0
LINE
8
BLACK
6
CONTINUOUS
10
5.2226585433070865
20
-4.4601438582677169
11
5.2226585433070865
21
-3.2672304724409447
0
LINE
8
BLACK
6
CONTINUOUS
10
5.2226585433070865
20
-3.2672304724409447
11
5.2227334645669288
21
-3.2668538188976379
0
LINE
8
BLACK
6
CONTINUOUS
10
5.2227334645669288
20
-3.2668538188976379
11
5.2232661417322834
21
-3.2663211417322833
0
LINE
8
BLACK
6
CONTINUOUS
10
5.2232661417322834
20
-3.2663211417322833
11
5.2236427952755902
21
-3.266246220472441
0
LINE
8
BLACK
6
CONTINUOUS
10
5.2236427952755902
20
-3.266246220472441
11
6.4165561811023624
21
-3.266246220472441
0
LINE
8
BLACK
6
CONTINUOUS
10
6.4165561811023624
20
-3.266246220472441
11
6.4169328346456691
21
-3.2663211417322833
0
LINE
8
BLACK
6
CONTINUOUS
10
5.2246270472440948
20
-3.2682147244094488
11
5.2246270472440948
21
-4.4591596062992123
0
LINE
8
BLACK
6
CONTINUOUS
10
5.2246270472440948
20
-4.4591596062992123
11
6.4155719291338578
21
-4.4591596062992123
0
LINE
8
BLACK
6
CONTINUOUS
10
6.4155719291338578
20
-4.4591596062992123
11
6.4155719291338578
21
-3.2682147244094488
0
LINE
8
BLACK
6
CONTINUOUS
10
6.4155719291338578
20
-3.2682147244094488
11
5.2246270472440948
21
-3.2682147244094488
0
LINE
8
BLACK
6
CONTINUOUS
10
6.4759879527559052
20
-3.2072660236220472
11
6.4765206299212599
21
-3.2077987007874014
0
LINE
8
BLACK
6
CONTINUOUS
10
6.4765206299212599
20
-3.2077987007874014
11
6.4765955511811022
21
-3.2081753543307086
0
LINE
8
BLACK
6
CONTINUOUS
10
6.4765955511811022
20
-3.2081753543307086
11
6.4765955511811022
21
-4.519198976377953
0
LINE
8
BLACK
6
CONTINUOUS
10
6.4765955511811022
20
-4.519198976377953
11
6.4765206299212599
21
-4.5195756299212597
0
LINE
8
BLACK
6
CONTINUOUS
10
6.4765206299212599
20
-4.5195756299212597
11
6.4759879527559052
21
-4.5201083070866144
0
LINE
8
BLACK
6
CONTINUOUS
10
6.4759879527559052
20
-4.5201083070866144
11
6.4756112992125985
21
-4.5201832283464567
0
LINE
8
BLACK
6
CONTINUOUS
10
6.4756112992125985
20
-4.5201832283464567
11
5.1645876771653541
21
-4.5201832283464567
0
LINE
8
BLACK
6
CONTINUOUS
10
5.1645876771653541
20
-4.5201832283464567
11
5.1642110236220473
21
-4.5201083070866144
0
LINE
8
BLACK
6
CONTINUOUS
10
5.1642110236220473
20
-4.5201083070866144
11
5.1636783464566927
21
-4.5195756299212597
0
LINE
8
BLACK
6
CONTINUOUS
10
5.1636783464566927
20
-4.5195756299212597
11
5.1636034251968503
21
-4.519198976377953
0
LINE
8
BLACK
6
CONTINUOUS
10
5.1636034251968503
20
-4.519198976377953
11
5.1636034251968503
21
-3.2081753543307086
0
LINE
8
BLACK
6
CONTINUOUS
10
5.1636034251968503
20
-3.2081753543307086
11
5.1636783464566927
21
-3.2077987007874014
0
LINE
8
BLACK
6
CONTINUOUS
10
5.1636783464566927
20
-3.2077987007874014
11
5.1642110236220473
21
-3.2072660236220472
0
LINE
8
BLACK
6
CONTINUOUS
10
5.1642110236220473
20
-3.2072660236220472
11
5.1645876771653541
21
-3.2071911023622048
0
LINE
8
BLACK
6
CONTINUOUS
10
5.1645876771653541
20
-3.2071911023622048
11
6.4756112992125985
21
-3.2071911023622048
0
LINE
8
BLACK
6
CONTINUOUS
10
6.4756112992125985
20
-3.2071911023622048
11
6.4759879527559052
21
-3.2072660236220472
0
LINE
8
BLACK
6
CONTINUOUS
10
5.1655719291338578
20
-3.2091596062992127
11
5.1655719291338578
21
-4.5182147244094484
0
LINE
8
BLACK
6
CONTINUOUS
10
5.1655719291338578
20
-4.5182147244094484
11
6.4746270472440948
21
-4.5182147244094484
0
LINE
8
BLACK
6
CONTINUOUS
10
6.4746270472440948
20
-4.5182147244094484
11
6.4746270472440948
21
-3.2091596062992127
0
LINE
8
BLACK
6
CONTINUOUS
10
6.4746270472440948
20
-3.2091596062992127
11
5.1655719291338578
21
-3.2091596062992127
0
CIRCLE
8
BLACK
10
4.485611338582677
20
-3.323687125984252
40
0.0068897637795276
0
CIRCLE
8
BLACK
10
6.6466349212598423
20
-3.323687125984252
40
0.0068897637795276
0
CIRCLE
8
BLACK
10
7.1552963385826773
20
-4.823687125984252
40
0.0068897637795276
0
CIRCLE
8
BLACK
10
3.7800994881889762
20
-4.9236871653543304
40
0.0068897637795276
0
CIRCLE
8
BLACK
10
4.4300994881889766
20
-4.4969154724409446
40
0.0068897637795276
0
CIRCLE
8
BLACK
10
4.2332490944881886
20
-4.4969154724409446
40
0.0068897637795276
0
CIRCLE
8
BLACK
10
6.1000994881889765
20
-4.7036871259842519
40
0.0068897637795276
0
CIRCLE
8
BLACK
10
6.1000994881889765
20
-4.6036871259842522
40
0.0068897637795276
0
CIRCLE
8
BLACK
10
6.000099488188976
20
-4.6036871259842522
40
0.0068897637795276
0
CIRCLE
8
BLACK
10
5.9000994881889763
20
-4.6036871259842522
40
0.0068897637795276
0
CIRCLE
8
BLACK
10
6.000099488188976
20
-4.7036871259842519
40
0.0068897637795276
0
CIRCLE
8
BLACK
10
6.4000994881889763
20
-4.6036871259842522
40
0.0068897637795276
0
CIRCLE
8
BLACK
10
6.4000994881889763
20
-4.7036871259842519
40
0.0068897637795276
0
CIRCLE
8
BLACK
10
6.2000994881889762
20
-4.6036871259842522
40
0.0068897637795276
0
CIRCLE
8
BLACK
10
6.2000994881889762
20
-4.7036871259842519
40
0.0068897637795276
0
CIRCLE
8
BLACK
10
5.9000994881889763
20
-4.7036871259842519
40
0.0068897637795276
0
CIRCLE
8
BLACK
10
6.3000994881889758
20
-4.7036871259842519
40
0.0068897637795276
0
CIRCLE
8
BLACK
10
6.3000994881889758
20
-4.6036871259842522
40
0.0068897637795276
0
CIRCLE
8
BLACK
10
4.485611338582677
20
-3.323687125984252
40
0.0068897637795276
0
CIRCLE
8
BLACK
10
6.6466349212598423
20
-3.323687125984252
40
0.0068897637795276
0
CIRCLE
8
BLACK
10
7.1552963385826773
20
-4.823687125984252
40
0.0068897637795276
0
CIRCLE
8
BLACK
10
3.7800994881889762
20
-4.9236871653543304
40
0.0068897637795276
0
CIRCLE
8
BLACK
10
4.4300994881889766
20
-4.4969154724409446
40
0.0068897637795276
0
CIRCLE
8
BLACK
10
4.2332490944881886
20
-4.4969154724409446
40
0.0068897637795276
0
CIRCLE
8
BLACK
10
6.1000994881889765
20
-4.7036871259842519
40
0.0068897637795276
0
CIRCLE
8
BLACK
10
6.1000994881889765
20
-4.6036871259842522
40
0.0068897637795276
0
CIRCLE
8
BLACK
10
6.000099488188976
20
-4.6036871259842522
40
0.0068897637795276
0
CIRCLE
8
BLACK
10
5.9000994881889763
20
-4.6036871259842522
40
0.0068897637795276
0
CIRCLE
8
BLACK
10
6.000099488188976
20
-4.7036871259842519
40
0.0068897637795276
0
CIRCLE
8
BLACK
10
6.4000994881889763
20
-4.6036871259842522
40
0.0068897637795276
0
CIRCLE
8
BLACK
10
6.4000994881889763
20
-4.7036871259842519
40
0.0068897637795276
0
CIRCLE
8
BLACK
10
6.2000994881889762
20
-4.6036871259842522
40
0.0068897637795276
0
CIRCLE
8
BLACK
10
6.2000994881889762
20
-4.7036871259842519
40
0.0068897637795276
0
CIRCLE
8
BLACK
10
5.9000994881889763
20
-4.7036871259842519
40
0.0068897637795276
0
CIRCLE
8
BLACK
10
6.3000994881889758
20
-4.7036871259842519
40
0.0068897637795276
0
CIRCLE
8
BLACK
10
6.3000994881889758
20
-4.6036871259842522
40
0.0068897637795276
  0
ENDSEC
  0
EOF
