  0
SECTION
  2
HEADER
  9
$ANGBASE
  50
0.0
  9
$ANGDIR
  70
1
  9
$MEASUREMENT
  70
0
  0
ENDSEC
  0
SECTION
  2
TABLES
  0
TABLE
  2
LTYPE
  70
4
  0
LTYPE
  5
40F
  2
CONTINUOUS
  70
0
  3
Solid line
  72
65
  73
0
  40
0.0
  0
LTYPE
  5
410
  2
DASHDOT
 70
0
  3
Dash Dot ____ _ ____ _
 72
65
 73
4
 40
2.0
 49
1.25
 49
-0.25
 49
0.25
 49
-0.25
  0
LTYPE
  5
411
  2
DASHED
 70
0
  3
Dashed __ __ __ __ __
 72
65
 73
2
 40
0.75
 49
0.5
 49
-0.25
  0
LTYPE
  5
43B
  2
DOTTED
 70
0
  3
Dotted .  .  .  .
 72
65
 73
2
 40
0.2
 49
0.0
 49
-0.2
  0
ENDTAB
  0
TABLE
  2
STYLE
  70
4
  0
STYLE
  2
KICAD
  70
0
  40
0
  41
1
  42
1
  50
0
  71
0
  3
isocp.shx
  0
STYLE
  2
KICADB
  70
0
  40
0
  41
1
  42
1
  50
0
  71
0
  3
isocp.shx
  0
STYLE
  2
KICADI
  70
0
  40
0
  41
1
  42
1
  50
15
  71
0
  3
isocp.shx
  0
STYLE
  2
KICADBI
  70
0
  40
0
  41
1
  42
1
  50
15
  71
0
  3
isocp.shx
  0
ENDTAB
  0
TABLE
  2
LAYER
  70
1
  0
LAYER
  2
BLACK
  70
0
  62
7
  6
CONTINUOUS
  0
ENDTAB
  0
ENDSEC
  0
SECTION
  2
ENTITIES
0
LINE
8
BLACK
6
CONTINUOUS
10
4.2406379527559057
20
-4.4597692125984247
11
4.2477428346456696
21
-4.4619244488188974
0
LINE
8
BLACK
6
CONTINUOUS
10
4.2477428346456696
20
-4.4619244488188974
11
4.2542907874015743
21
-4.4654243700787397
0
LINE
8
BLACK
6
CONTINUOUS
10
4.2542907874015743
20
-4.4654243700787397
11
4.260030078740157
21
-4.4701344881889762
0
LINE
8
BLACK
6
CONTINUOUS
10
4.260030078740157
20
-4.4701344881889762
11
4.2647401968503935
21
-4.4758737795275589
0
LINE
8
BLACK
6
CONTINUOUS
10
4.2647401968503935
20
-4.4758737795275589
11
4.2682401181102358
21
-4.4824217322834645
0
LINE
8
BLACK
6
CONTINUOUS
10
4.2682401181102358
20
-4.4824217322834645
11
4.2703953543307085
21
-4.4895266141732284
0
LINE
8
BLACK
6
CONTINUOUS
10
4.2703953543307085
20
-4.4895266141732284
11
4.2711231102362204
21
-4.4969154724409446
0
LINE
8
BLACK
6
CONTINUOUS
10
4.2711231102362204
20
-4.4969154724409446
11
4.2703953543307085
21
-4.5043043307086617
0
LINE
8
BLACK
6
CONTINUOUS
10
4.2703953543307085
20
-4.5043043307086617
11
4.2682401181102358
21
-4.5114092125984255
0
LINE
8
BLACK
6
CONTINUOUS
10
4.2682401181102358
20
-4.5114092125984255
11
4.2647401968503935
21
-4.5179571653543302
0
LINE
8
BLACK
6
CONTINUOUS
10
4.2647401968503935
20
-4.5179571653543302
11
4.260030078740157
21
-4.523696456692913
0
LINE
8
BLACK
6
CONTINUOUS
10
4.260030078740157
20
-4.523696456692913
11
4.2542907874015743
21
-4.5284065748031495
0
LINE
8
BLACK
6
CONTINUOUS
10
4.2542907874015743
20
-4.5284065748031495
11
4.2477428346456696
21
-4.5319064960629918
0
LINE
8
BLACK
6
CONTINUOUS
10
4.2477428346456696
20
-4.5319064960629918
11
4.2406379527559057
21
-4.5340617322834644
0
LINE
8
BLACK
6
CONTINUOUS
10
4.2406379527559057
20
-4.5340617322834644
11
4.2332490944881886
21
-4.5347894881889763
0
LINE
8
BLACK
6
CONTINUOUS
10
4.2332490944881886
20
-4.5347894881889763
11
4.2258602362204725
21
-4.5340617322834644
0
LINE
8
BLACK
6
CONTINUOUS
10
4.2258602362204725
20
-4.5340617322834644
11
4.2187553543307086
21
-4.5319064960629918
0
LINE
8
BLACK
6
CONTINUOUS
10
4.2187553543307086
20
-4.5319064960629918
11
4.212207401574803
21
-4.5284065748031495
0
LINE
8
BLACK
6
CONTINUOUS
10
4.212207401574803
20
-4.5284065748031495
11
4.2064681102362202
21
-4.523696456692913
0
LINE
8
BLACK
6
CONTINUOUS
10
4.2064681102362202
20
-4.523696456692913
11
4.2017579921259838
21
-4.5179571653543302
0
LINE
8
BLACK
6
CONTINUOUS
10
4.2017579921259838
20
-4.5179571653543302
11
4.1982580708661414
21
-4.5114092125984255
0
LINE
8
BLACK
6
CONTINUOUS
10
4.1982580708661414
20
-4.5114092125984255
11
4.1961028346456688
21
-4.5043043307086617
0
LINE
8
BLACK
6
CONTINUOUS
10
4.1961028346456688
20
-4.5043043307086617
11
4.1953750787401578
21
-4.4969154724409446
0
LINE
8
BLACK
6
CONTINUOUS
10
4.1953750787401578
20
-4.4969154724409446
11
4.1961028346456688
21
-4.4895266141732284
0
LINE
8
BLACK
6
CONTINUOUS
10
4.1961028346456688
20
-4.4895266141732284
11
4.1982580708661414
21
-4.4824217322834645
0
LINE
8
BLACK
6
CONTINUOUS
10
4.1982580708661414
20
-4.4824217322834645
11
4.2017579921259838
21
-4.4758737795275589
0
LINE
8
BLACK
6
CONTINUOUS
10
4.2017579921259838
20
-4.4758737795275589
11
4.2064681102362202
21
-4.4701344881889762
0
LINE
8
BLACK
6
CONTINUOUS
10
4.2064681102362202
20
-4.4701344881889762
11
4.212207401574803
21
-4.4654243700787397
0
LINE
8
BLACK
6
CONTINUOUS
10
4.212207401574803
20
-4.4654243700787397
11
4.2187553543307086
21
-4.4619244488188974
0
LINE
8
BLACK
6
CONTINUOUS
10
4.2187553543307086
20
-4.4619244488188974
11
4.2258602362204725
21
-4.4597692125984247
0
LINE
8
BLACK
6
CONTINUOUS
10
4.2258602362204725
20
-4.4597692125984247
11
4.2332490944881886
21
-4.4590414566929129
0
LINE
8
BLACK
6
CONTINUOUS
10
4.2332490944881886
20
-4.4590414566929129
11
4.2406379527559057
21
-4.4597692125984247
0
LINE
8
BLACK
6
CONTINUOUS
10
4.4374883464566928
20
-4.4597692125984247
11
4.4445932283464566
21
-4.4619244488188974
0
LINE
8
BLACK
6
CONTINUOUS
10
4.4445932283464566
20
-4.4619244488188974
11
4.4511411811023622
21
-4.4654243700787397
0
LINE
8
BLACK
6
CONTINUOUS
10
4.4511411811023622
20
-4.4654243700787397
11
4.456880472440945
21
-4.4701344881889762
0
LINE
8
BLACK
6
CONTINUOUS
10
4.456880472440945
20
-4.4701344881889762
11
4.4615905905511806
21
-4.4758737795275589
0
LINE
8
BLACK
6
CONTINUOUS
10
4.4615905905511806
20
-4.4758737795275589
11
4.4650905118110238
21
-4.4824217322834645
0
LINE
8
BLACK
6
CONTINUOUS
10
4.4650905118110238
20
-4.4824217322834645
11
4.4672457480314955
21
-4.4895266141732284
0
LINE
8
BLACK
6
CONTINUOUS
10
4.4672457480314955
20
-4.4895266141732284
11
4.4679735039370074
21
-4.4969154724409446
0
LINE
8
BLACK
6
CONTINUOUS
10
4.4679735039370074
20
-4.4969154724409446
11
4.4672457480314955
21
-4.5043043307086617
0
LINE
8
BLACK
6
CONTINUOUS
10
4.4672457480314955
20
-4.5043043307086617
11
4.4650905118110238
21
-4.5114092125984255
0
LINE
8
BLACK
6
CONTINUOUS
10
4.4650905118110238
20
-4.5114092125984255
11
4.4615905905511806
21
-4.5179571653543302
0
LINE
8
BLACK
6
CONTINUOUS
10
4.4615905905511806
20
-4.5179571653543302
11
4.456880472440945
21
-4.523696456692913
0
LINE
8
BLACK
6
CONTINUOUS
10
4.456880472440945
20
-4.523696456692913
11
4.4511411811023622
21
-4.5284065748031495
0
LINE
8
BLACK
6
CONTINUOUS
10
4.4511411811023622
20
-4.5284065748031495
11
4.4445932283464566
21
-4.5319064960629918
0
LINE
8
BLACK
6
CONTINUOUS
10
4.4445932283464566
20
-4.5319064960629918
11
4.4374883464566928
21
-4.5340617322834644
0
LINE
8
BLACK
6
CONTINUOUS
10
4.4374883464566928
20
-4.5340617322834644
11
4.4300994881889766
21
-4.5347894881889763
0
LINE
8
BLACK
6
CONTINUOUS
10
4.4300994881889766
20
-4.5347894881889763
11
4.4227106299212595
21
-4.5340617322834644
0
LINE
8
BLACK
6
CONTINUOUS
10
4.4227106299212595
20
-4.5340617322834644
11
4.4156057480314956
21
-4.5319064960629918
0
LINE
8
BLACK
6
CONTINUOUS
10
4.4156057480314956
20
-4.5319064960629918
11
4.4090577952755901
21
-4.5284065748031495
0
LINE
8
BLACK
6
CONTINUOUS
10
4.4090577952755901
20
-4.5284065748031495
11
4.4033185039370082
21
-4.523696456692913
0
LINE
8
BLACK
6
CONTINUOUS
10
4.4033185039370082
20
-4.523696456692913
11
4.3986083858267717
21
-4.5179571653543302
0
LINE
8
BLACK
6
CONTINUOUS
10
4.3986083858267717
20
-4.5179571653543302
11
4.3951084645669294
21
-4.5114092125984255
0
LINE
8
BLACK
6
CONTINUOUS
10
4.3951084645669294
20
-4.5114092125984255
11
4.3929532283464567
21
-4.5043043307086617
0
LINE
8
BLACK
6
CONTINUOUS
10
4.3929532283464567
20
-4.5043043307086617
11
4.3922254724409449
21
-4.4969154724409446
0
LINE
8
BLACK
6
CONTINUOUS
10
4.3922254724409449
20
-4.4969154724409446
11
4.3929532283464567
21
-4.4895266141732284
0
LINE
8
BLACK
6
CONTINUOUS
10
4.3929532283464567
20
-4.4895266141732284
11
4.3951084645669294
21
-4.4824217322834645
0
LINE
8
BLACK
6
CONTINUOUS
10
4.3951084645669294
20
-4.4824217322834645
11
4.3986083858267717
21
-4.4758737795275589
0
LINE
8
BLACK
6
CONTINUOUS
10
4.3986083858267717
20
-4.4758737795275589
11
4.4033185039370082
21
-4.4701344881889762
0
LINE
8
BLACK
6
CONTINUOUS
10
4.4033185039370082
20
-4.4701344881889762
11
4.4090577952755901
21
-4.4654243700787397
0
LINE
8
BLACK
6
CONTINUOUS
10
4.4090577952755901
20
-4.4654243700787397
11
4.4156057480314956
21
-4.4619244488188974
0
LINE
8
BLACK
6
CONTINUOUS
10
4.4156057480314956
20
-4.4619244488188974
11
4.4227106299212595
21
-4.4597692125984247
0
LINE
8
BLACK
6
CONTINUOUS
10
4.4227106299212595
20
-4.4597692125984247
11
4.4300994881889766
21
-4.4590414566929129
0
LINE
8
BLACK
6
CONTINUOUS
10
4.4300994881889766
20
-4.4590414566929129
11
4.4374883464566928
21
-4.4597692125984247
0
LINE
8
BLACK
6
CONTINUOUS
10
5.1552820472440946
20
-4.140219566929134
11
5.1578365354330709
21
-4.1419264566929135
0
LINE
8
BLACK
6
CONTINUOUS
10
5.1578365354330709
20
-4.1419264566929135
11
5.1595434251968504
21
-4.1444809448818898
0
LINE
8
BLACK
6
CONTINUOUS
10
5.1595434251968504
20
-4.1444809448818898
11
5.1601427952755907
21
-4.1474942125984251
0
LINE
8
BLACK
6
CONTINUOUS
10
5.1601427952755907
20
-4.1474942125984251
11
5.1601427952755907
21
-4.2971005118110233
0
LINE
8
BLACK
6
CONTINUOUS
10
5.1601427952755907
20
-4.2971005118110233
11
5.1595434251968504
21
-4.3001137795275586
0
LINE
8
BLACK
6
CONTINUOUS
10
5.1595434251968504
20
-4.3001137795275586
11
5.1578365354330709
21
-4.3026682677165358
0
LINE
8
BLACK
6
CONTINUOUS
10
5.1578365354330709
20
-4.3026682677165358
11
5.1552820472440946
21
-4.3043751574803153
0
LINE
8
BLACK
6
CONTINUOUS
10
5.1552820472440946
20
-4.3043751574803153
11
5.1522687795275592
21
-4.3049745275590547
0
LINE
8
BLACK
6
CONTINUOUS
10
5.1522687795275592
20
-4.3049745275590547
11
5.1128987007874018
21
-4.3049745275590547
0
LINE
8
BLACK
6
CONTINUOUS
10
5.1128987007874018
20
-4.3049745275590547
11
5.1098854330708656
21
-4.3043751574803153
0
LINE
8
BLACK
6
CONTINUOUS
10
5.1098854330708656
20
-4.3043751574803153
11
5.1073309448818893
21
-4.3026682677165358
0
LINE
8
BLACK
6
CONTINUOUS
10
5.1073309448818893
20
-4.3026682677165358
11
5.1056240551181098
21
-4.3001137795275586
0
LINE
8
BLACK
6
CONTINUOUS
10
5.1056240551181098
20
-4.3001137795275586
11
5.1050246850393703
21
-4.2971005118110233
0
LINE
8
BLACK
6
CONTINUOUS
10
5.1050246850393703
20
-4.2971005118110233
11
5.1050246850393703
21
-4.1474942125984251
0
LINE
8
BLACK
6
CONTINUOUS
10
5.1050246850393703
20
-4.1474942125984251
11
5.1056240551181098
21
-4.1444809448818898
0
LINE
8
BLACK
6
CONTINUOUS
10
5.1056240551181098
20
-4.1444809448818898
11
5.1073309448818893
21
-4.1419264566929135
0
LINE
8
BLACK
6
CONTINUOUS
10
5.1073309448818893
20
-4.1419264566929135
11
5.1098854330708656
21
-4.140219566929134
0
LINE
8
BLACK
6
CONTINUOUS
10
5.1098854330708656
20
-4.140219566929134
11
5.1128987007874018
21
-4.1396201968503936
0
LINE
8
BLACK
6
CONTINUOUS
10
5.1128987007874018
20
-4.1396201968503936
11
5.1522687795275592
21
-4.1396201968503936
0
LINE
8
BLACK
6
CONTINUOUS
10
5.1522687795275592
20
-4.1396201968503936
11
5.1552820472440946
21
-4.140219566929134
0
LINE
8
BLACK
6
CONTINUOUS
10
5.2168135433070866
20
-4.1359400787401572
11
5.2193680314960629
21
-4.1376469685039368
0
LINE
8
BLACK
6
CONTINUOUS
10
5.2193680314960629
20
-4.1376469685039368
11
5.2210749212598424
21
-4.1402014566929131
0
LINE
8
BLACK
6
CONTINUOUS
10
5.2210749212598424
20
-4.1402014566929131
11
5.2216742913385827
21
-4.1432147244094484
0
LINE
8
BLACK
6
CONTINUOUS
10
5.2216742913385827
20
-4.1432147244094484
11
5.2216742913385827
21
-4.2928210236220474
0
LINE
8
BLACK
6
CONTINUOUS
10
5.2216742913385827
20
-4.2928210236220474
11
5.2210749212598424
21
-4.2958342913385827
0
LINE
8
BLACK
6
CONTINUOUS
10
5.2210749212598424
20
-4.2958342913385827
11
5.2193680314960629
21
-4.298388779527559
0
LINE
8
BLACK
6
CONTINUOUS
10
5.2193680314960629
20
-4.298388779527559
11
5.2168135433070866
21
-4.3000956692913386
0
LINE
8
BLACK
6
CONTINUOUS
10
5.2168135433070866
20
-4.3000956692913386
11
5.2138002755905513
21
-4.3006950393700789
0
LINE
8
BLACK
6
CONTINUOUS
10
5.2138002755905513
20
-4.3006950393700789
11
5.1744301968503938
21
-4.3006950393700789
0
LINE
8
BLACK
6
CONTINUOUS
10
5.1744301968503938
20
-4.3006950393700789
11
5.1714169291338585
21
-4.3000956692913386
0
LINE
8
BLACK
6
CONTINUOUS
10
5.1714169291338585
20
-4.3000956692913386
11
5.1688624409448813
21
-4.298388779527559
0
LINE
8
BLACK
6
CONTINUOUS
10
5.1688624409448813
20
-4.298388779527559
11
5.1671555511811018
21
-4.2958342913385827
0
LINE
8
BLACK
6
CONTINUOUS
10
5.1671555511811018
20
-4.2958342913385827
11
5.1665561811023624
21
-4.2928210236220474
0
LINE
8
BLACK
6
CONTINUOUS
10
5.1665561811023624
20
-4.2928210236220474
11
5.1665561811023624
21
-4.1432147244094484
0
LINE
8
BLACK
6
CONTINUOUS
10
5.1665561811023624
20
-4.1432147244094484
11
5.1671555511811018
21
-4.1402014566929131
0
LINE
8
BLACK
6
CONTINUOUS
10
5.1671555511811018
20
-4.1402014566929131
11
5.1688624409448813
21
-4.1376469685039368
0
LINE
8
BLACK
6
CONTINUOUS
10
5.1688624409448813
20
-4.1376469685039368
11
5.1714169291338585
21
-4.1359400787401572
0
LINE
8
BLACK
6
CONTINUOUS
10
5.1714169291338585
20
-4.1359400787401572
11
5.1744301968503938
21
-4.1353407086614169
0
LINE
8
BLACK
6
CONTINUOUS
10
5.1744301968503938
20
-4.1353407086614169
11
5.2138002755905513
21
-4.1353407086614169
0
LINE
8
BLACK
6
CONTINUOUS
10
5.2138002755905513
20
-4.1353407086614169
11
5.2168135433070866
21
-4.1359400787401572
0
LINE
8
BLACK
6
CONTINUOUS
10
5.1552820472440946
20
-3.903999094488189
11
5.1578365354330709
21
-3.9057059842519686
0
LINE
8
BLACK
6
CONTINUOUS
10
5.1578365354330709
20
-3.9057059842519686
11
5.1595434251968504
21
-3.9082604724409449
0
LINE
8
BLACK
6
CONTINUOUS
10
5.1595434251968504
20
-3.9082604724409449
11
5.1601427952755907
21
-3.9112737401574802
0
LINE
8
BLACK
6
CONTINUOUS
10
5.1601427952755907
20
-3.9112737401574802
11
5.1601427952755907
21
-4.0608800393700788
0
LINE
8
BLACK
6
CONTINUOUS
10
5.1601427952755907
20
-4.0608800393700788
11
5.1595434251968504
21
-4.0638933070866141
0
LINE
8
BLACK
6
CONTINUOUS
10
5.1595434251968504
20
-4.0638933070866141
11
5.1578365354330709
21
-4.0664477952755904
0
LINE
8
BLACK
6
CONTINUOUS
10
5.1578365354330709
20
-4.0664477952755904
11
5.1552820472440946
21
-4.0681546850393699
0
LINE
8
BLACK
6
CONTINUOUS
10
5.1552820472440946
20
-4.0681546850393699
11
5.1522687795275592
21
-4.0687540551181103
0
LINE
8
BLACK
6
CONTINUOUS
10
5.1522687795275592
20
-4.0687540551181103
11
5.1128987007874018
21
-4.0687540551181103
0
LINE
8
BLACK
6
CONTINUOUS
10
5.1128987007874018
20
-4.0687540551181103
11
5.1098854330708656
21
-4.0681546850393699
0
LINE
8
BLACK
6
CONTINUOUS
10
5.1098854330708656
20
-4.0681546850393699
11
5.1073309448818893
21
-4.0664477952755904
0
LINE
8
BLACK
6
CONTINUOUS
10
5.1073309448818893
20
-4.0664477952755904
11
5.1056240551181098
21
-4.0638933070866141
0
LINE
8
BLACK
6
CONTINUOUS
10
5.1056240551181098
20
-4.0638933070866141
11
5.1050246850393703
21
-4.0608800393700788
0
LINE
8
BLACK
6
CONTINUOUS
10
5.1050246850393703
20
-4.0608800393700788
11
5.1050246850393703
21
-3.9112737401574802
0
LINE
8
BLACK
6
CONTINUOUS
10
5.1050246850393703
20
-3.9112737401574802
11
5.1056240551181098
21
-3.9082604724409449
0
LINE
8
BLACK
6
CONTINUOUS
10
5.1056240551181098
20
-3.9082604724409449
11
5.1073309448818893
21
-3.9057059842519686
0
LINE
8
BLACK
6
CONTINUOUS
10
5.1073309448818893
20
-3.9057059842519686
11
5.1098854330708656
21
-3.903999094488189
0
LINE
8
BLACK
6
CONTINUOUS
10
5.1098854330708656
20
-3.903999094488189
11
5.1128987007874018
21
-3.9033997244094487
0
LINE
8
BLACK
6
CONTINUOUS
10
5.1128987007874018
20
-3.9033997244094487
11
5.1522687795275592
21
-3.9033997244094487
0
LINE
8
BLACK
6
CONTINUOUS
10
5.1522687795275592
20
-3.9033997244094487
11
5.1552820472440946
21
-3.903999094488189
0
LINE
8
BLACK
6
CONTINUOUS
10
5.2168135433070866
20
-3.8997196062992123
11
5.2193680314960629
21
-3.9014264960629919
0
LINE
8
BLACK
6
CONTINUOUS
10
5.2193680314960629
20
-3.9014264960629919
11
5.2210749212598424
21
-3.9039809842519686
0
LINE
8
BLACK
6
CONTINUOUS
10
5.2210749212598424
20
-3.9039809842519686
11
5.2216742913385827
21
-3.9069942519685039
0
LINE
8
BLACK
6
CONTINUOUS
10
5.2216742913385827
20
-3.9069942519685039
11
5.2216742913385827
21
-4.0566005511811021
0
LINE
8
BLACK
6
CONTINUOUS
10
5.2216742913385827
20
-4.0566005511811021
11
5.2210749212598424
21
-4.0596138188976374
0
LINE
8
BLACK
6
CONTINUOUS
10
5.2210749212598424
20
-4.0596138188976374
11
5.2193680314960629
21
-4.0621683070866137
0
LINE
8
BLACK
6
CONTINUOUS
10
5.2193680314960629
20
-4.0621683070866137
11
5.2168135433070866
21
-4.0638751968503932
0
LINE
8
BLACK
6
CONTINUOUS
10
5.2168135433070866
20
-4.0638751968503932
11
5.2138002755905513
21
-4.0644745669291336
0
LINE
8
BLACK
6
CONTINUOUS
10
5.2138002755905513
20
-4.0644745669291336
11
5.1744301968503938
21
-4.0644745669291336
0
LINE
8
BLACK
6
CONTINUOUS
10
5.1744301968503938
20
-4.0644745669291336
11
5.1714169291338585
21
-4.0638751968503932
0
LINE
8
BLACK
6
CONTINUOUS
10
5.1714169291338585
20
-4.0638751968503932
11
5.1688624409448813
21
-4.0621683070866137
0
LINE
8
BLACK
6
CONTINUOUS
10
5.1688624409448813
20
-4.0621683070866137
11
5.1671555511811018
21
-4.0596138188976374
0
LINE
8
BLACK
6
CONTINUOUS
10
5.1671555511811018
20
-4.0596138188976374
11
5.1665561811023624
21
-4.0566005511811021
0
LINE
8
BLACK
6
CONTINUOUS
10
5.1665561811023624
20
-4.0566005511811021
11
5.1665561811023624
21
-3.9069942519685039
0
LINE
8
BLACK
6
CONTINUOUS
10
5.1665561811023624
20
-3.9069942519685039
11
5.1671555511811018
21
-3.9039809842519686
0
LINE
8
BLACK
6
CONTINUOUS
10
5.1671555511811018
20
-3.9039809842519686
11
5.1688624409448813
21
-3.9014264960629919
0
LINE
8
BLACK
6
CONTINUOUS
10
5.1688624409448813
20
-3.9014264960629919
11
5.1714169291338585
21
-3.8997196062992123
0
LINE
8
BLACK
6
CONTINUOUS
10
5.1714169291338585
20
-3.8997196062992123
11
5.1744301968503938
21
-3.8991202362204724
0
LINE
8
BLACK
6
CONTINUOUS
10
5.1744301968503938
20
-3.8991202362204724
11
5.2138002755905513
21
-3.8991202362204724
0
LINE
8
BLACK
6
CONTINUOUS
10
5.2138002755905513
20
-3.8991202362204724
11
5.2168135433070866
21
-3.8997196062992123
0
LINE
8
BLACK
6
CONTINUOUS
10
5.1552820472440946
20
-3.6677786220472441
11
5.1578365354330709
21
-3.6694855118110237
0
LINE
8
BLACK
6
CONTINUOUS
10
5.1578365354330709
20
-3.6694855118110237
11
5.1595434251968504
21
-3.67204
0
LINE
8
BLACK
6
CONTINUOUS
10
5.1595434251968504
20
-3.67204
11
5.1601427952755907
21
-3.6750532677165353
0
LINE
8
BLACK
6
CONTINUOUS
10
5.1601427952755907
20
-3.6750532677165353
11
5.1601427952755907
21
-3.8246595669291339
0
LINE
8
BLACK
6
CONTINUOUS
10
5.1601427952755907
20
-3.8246595669291339
11
5.1595434251968504
21
-3.8276728346456692
0
LINE
8
BLACK
6
CONTINUOUS
10
5.1595434251968504
20
-3.8276728346456692
11
5.1578365354330709
21
-3.8302273228346455
0
LINE
8
BLACK
6
CONTINUOUS
10
5.1578365354330709
20
-3.8302273228346455
11
5.1552820472440946
21
-3.831934212598425
0
LINE
8
BLACK
6
CONTINUOUS
10
5.1552820472440946
20
-3.831934212598425
11
5.1522687795275592
21
-3.8325335826771654
0
LINE
8
BLACK
6
CONTINUOUS
10
5.1522687795275592
20
-3.8325335826771654
11
5.1128987007874018
21
-3.8325335826771654
0
LINE
8
BLACK
6
CONTINUOUS
10
5.1128987007874018
20
-3.8325335826771654
11
5.1098854330708656
21
-3.831934212598425
0
LINE
8
BLACK
6
CONTINUOUS
10
5.1098854330708656
20
-3.831934212598425
11
5.1073309448818893
21
-3.8302273228346455
0
LINE
8
BLACK
6
CONTINUOUS
10
5.1073309448818893
20
-3.8302273228346455
11
5.1056240551181098
21
-3.8276728346456692
0
LINE
8
BLACK
6
CONTINUOUS
10
5.1056240551181098
20
-3.8276728346456692
11
5.1050246850393703
21
-3.8246595669291339
0
LINE
8
BLACK
6
CONTINUOUS
10
5.1050246850393703
20
-3.8246595669291339
11
5.1050246850393703
21
-3.6750532677165353
0
LINE
8
BLACK
6
CONTINUOUS
10
5.1050246850393703
20
-3.6750532677165353
11
5.1056240551181098
21
-3.67204
0
LINE
8
BLACK
6
CONTINUOUS
10
5.1056240551181098
20
-3.67204
11
5.1073309448818893
21
-3.6694855118110237
0
LINE
8
BLACK
6
CONTINUOUS
10
5.1073309448818893
20
-3.6694855118110237
11
5.1098854330708656
21
-3.6677786220472441
0
LINE
8
BLACK
6
CONTINUOUS
10
5.1098854330708656
20
-3.6677786220472441
11
5.1128987007874018
21
-3.6671792519685038
0
LINE
8
BLACK
6
CONTINUOUS
10
5.1128987007874018
20
-3.6671792519685038
11
5.1522687795275592
21
-3.6671792519685038
0
LINE
8
BLACK
6
CONTINUOUS
10
5.1522687795275592
20
-3.6671792519685038
11
5.1552820472440946
21
-3.6677786220472441
0
LINE
8
BLACK
6
CONTINUOUS
10
5.2168135433070866
20
-3.6634991338582674
11
5.2193680314960629
21
-3.6652060236220469
0
LINE
8
BLACK
6
CONTINUOUS
10
5.2193680314960629
20
-3.6652060236220469
11
5.2210749212598424
21
-3.6677605118110237
0
LINE
8
BLACK
6
CONTINUOUS
10
5.2210749212598424
20
-3.6677605118110237
11
5.2216742913385827
21
-3.670773779527559
0
LINE
8
BLACK
6
CONTINUOUS
10
5.2216742913385827
20
-3.670773779527559
11
5.2216742913385827
21
-3.8203800787401576
0
LINE
8
BLACK
6
CONTINUOUS
10
5.2216742913385827
20
-3.8203800787401576
11
5.2210749212598424
21
-3.8233933464566929
0
LINE
8
BLACK
6
CONTINUOUS
10
5.2210749212598424
20
-3.8233933464566929
11
5.2193680314960629
21
-3.8259478346456692
0
LINE
8
BLACK
6
CONTINUOUS
10
5.2193680314960629
20
-3.8259478346456692
11
5.2168135433070866
21
-3.8276547244094488
0
LINE
8
BLACK
6
CONTINUOUS
10
5.2168135433070866
20
-3.8276547244094488
11
5.2138002755905513
21
-3.8282540944881891
0
LINE
8
BLACK
6
CONTINUOUS
10
5.2138002755905513
20
-3.8282540944881891
11
5.1744301968503938
21
-3.8282540944881891
0
LINE
8
BLACK
6
CONTINUOUS
10
5.1744301968503938
20
-3.8282540944881891
11
5.1714169291338585
21
-3.8276547244094488
0
LINE
8
BLACK
6
CONTINUOUS
10
5.1714169291338585
20
-3.8276547244094488
11
5.1688624409448813
21
-3.8259478346456692
0
LINE
8
BLACK
6
CONTINUOUS
10
5.1688624409448813
20
-3.8259478346456692
11
5.1671555511811018
21
-3.8233933464566929
0
LINE
8
BLACK
6
CONTINUOUS
10
5.1671555511811018
20
-3.8233933464566929
11
5.1665561811023624
21
-3.8203800787401576
0
LINE
8
BLACK
6
CONTINUOUS
10
5.1665561811023624
20
-3.8203800787401576
11
5.1665561811023624
21
-3.670773779527559
0
LINE
8
BLACK
6
CONTINUOUS
10
5.1665561811023624
20
-3.670773779527559
11
5.1671555511811018
21
-3.6677605118110237
0
LINE
8
BLACK
6
CONTINUOUS
10
5.1671555511811018
20
-3.6677605118110237
11
5.1688624409448813
21
-3.6652060236220469
0
LINE
8
BLACK
6
CONTINUOUS
10
5.1688624409448813
20
-3.6652060236220469
11
5.1714169291338585
21
-3.6634991338582674
0
LINE
8
BLACK
6
CONTINUOUS
10
5.1714169291338585
20
-3.6634991338582674
11
5.1744301968503938
21
-3.6628997637795275
0
LINE
8
BLACK
6
CONTINUOUS
10
5.1744301968503938
20
-3.6628997637795275
11
5.2138002755905513
21
-3.6628997637795275
0
LINE
8
BLACK
6
CONTINUOUS
10
5.2138002755905513
20
-3.6628997637795275
11
5.2168135433070866
21
-3.6634991338582674
0
LINE
8
BLACK
6
CONTINUOUS
10
5.1894695669291337
20
-3.1815611417322835
11
6.488682165354331
21
-3.1815611417322835
0
LINE
8
BLACK
6
CONTINUOUS
10
6.488682165354331
20
-3.1815611417322835
11
7.0484261811023616
21
-3.1815611417322835
0
LINE
8
BLACK
6
CONTINUOUS
10
7.0484261811023616
20
-3.1815611417322835
11
7.0487801181102361
21
-3.1815737795275592
0
LINE
8
BLACK
6
CONTINUOUS
10
7.0487801181102361
20
-3.1815737795275592
11
7.0594555511811024
21
-3.1823374409448819
0
LINE
8
BLACK
6
CONTINUOUS
10
7.0594555511811024
20
-3.1823374409448819
11
7.0601561023622041
21
-3.182438188976378
0
LINE
8
BLACK
6
CONTINUOUS
10
7.0601561023622041
20
-3.182438188976378
11
7.0704404330708659
21
-3.184675472440945
0
LINE
8
BLACK
6
CONTINUOUS
10
7.0704404330708659
20
-3.184675472440945
11
7.0711195275590546
21
-3.1848748818897636
0
LINE
8
BLACK
6
CONTINUOUS
10
7.0711195275590546
20
-3.1848748818897636
11
7.0809807480314957
21
-3.1885529921259841
0
LINE
8
BLACK
6
CONTINUOUS
10
7.0809807480314957
20
-3.1885529921259841
11
7.0816245669291336
21
-3.1888470078740156
0
LINE
8
BLACK
6
CONTINUOUS
10
7.0816245669291336
20
-3.1888470078740156
11
7.0908621653543307
21
-3.1938911417322835
0
LINE
8
BLACK
6
CONTINUOUS
10
7.0908621653543307
20
-3.1938911417322835
11
7.0914575590551179
21
-3.1942737795275589
0
LINE
8
BLACK
6
CONTINUOUS
10
7.0914575590551179
20
-3.1942737795275589
11
7.0998831496062991
21
-3.2005810629921259
0
LINE
8
BLACK
6
CONTINUOUS
10
7.0998831496062991
20
-3.2005810629921259
11
7.100418031496063
21
-3.2010445275590551
0
LINE
8
BLACK
6
CONTINUOUS
10
7.100418031496063
20
-3.2010445275590551
11
7.1078604330708659
21
-3.2084868897637793
0
LINE
8
BLACK
6
CONTINUOUS
10
7.1078604330708659
20
-3.2084868897637793
11
7.1083239370078735
21
-3.2090217716535432
0
LINE
8
BLACK
6
CONTINUOUS
10
7.1083239370078735
20
-3.2090217716535432
11
7.1146312204724405
21
-3.2174471653543306
0
LINE
8
BLACK
6
CONTINUOUS
10
7.1146312204724405
20
-3.2174471653543306
11
7.1150138582677167
21
-3.2180425590551178
0
LINE
8
BLACK
6
CONTINUOUS
10
7.1150138582677167
20
-3.2180425590551178
11
7.1200581889763779
21
-3.2272802755905512
0
LINE
8
BLACK
6
CONTINUOUS
10
7.1200581889763779
20
-3.2272802755905512
11
7.1203522047244094
21
-3.2279240944881891
0
LINE
8
BLACK
6
CONTINUOUS
10
7.1203522047244094
20
-3.2279240944881891
11
7.1240303937007869
21
-3.2377853149606297
0
LINE
8
BLACK
6
CONTINUOUS
10
7.1240303937007869
20
-3.2377853149606297
11
7.1242298031496061
21
-3.2384643700787401
0
LINE
8
BLACK
6
CONTINUOUS
10
7.1242298031496061
20
-3.2384643700787401
11
7.1264672047244089
21
-3.2487486220472439
0
LINE
8
BLACK
6
CONTINUOUS
10
7.1264672047244089
20
-3.2487486220472439
11
7.1265679527559049
21
-3.2494495275590549
0
LINE
8
BLACK
6
CONTINUOUS
10
7.1265679527559049
20
-3.2494495275590549
11
7.1273309448818898
21
-3.2601244488188974
0
LINE
8
BLACK
6
CONTINUOUS
10
7.1273309448818898
20
-3.2601244488188974
11
7.1273435826771649
21
-3.2604781102362206
0
LINE
8
BLACK
6
CONTINUOUS
10
7.1273435826771649
20
-3.2604781102362206
11
7.1273435826771649
21
-4.40833311023622
0
LINE
8
BLACK
6
CONTINUOUS
10
7.1273435826771649
20
-4.40833311023622
11
7.1281447637795274
21
-4.4195387007874016
0
LINE
8
BLACK
6
CONTINUOUS
10
7.1281447637795274
20
-4.4195387007874016
11
7.1305327165354333
21
-4.4305168110236224
0
LINE
8
BLACK
6
CONTINUOUS
10
7.1305327165354333
20
-4.4305168110236224
11
7.1305327559055121
21
-4.4305169291338578
0
LINE
8
BLACK
6
CONTINUOUS
10
7.1305327559055121
20
-4.4305169291338578
11
7.1344585433070868
21
-4.4410428346456694
0
LINE
8
BLACK
6
CONTINUOUS
10
7.1344585433070868
20
-4.4410428346456694
11
7.1344587007874019
21
-4.4410432283464569
0
LINE
8
BLACK
6
CONTINUOUS
10
7.1344587007874019
20
-4.4410432283464569
11
7.1398426377952751
21
-4.450903503937008
0
LINE
8
BLACK
6
CONTINUOUS
10
7.1398426377952751
20
-4.450903503937008
11
7.1465752755905507
21
-4.4598973622047247
0
LINE
8
BLACK
6
CONTINUOUS
10
7.1465752755905507
20
-4.4598973622047247
11
7.1545193700787397
21
-4.4678415354330712
0
LINE
8
BLACK
6
CONTINUOUS
10
7.1545193700787397
20
-4.4678415354330712
11
7.1545194094488185
21
-4.4678415748031499
0
LINE
8
BLACK
6
CONTINUOUS
10
7.1545194094488185
20
-4.4678415748031499
11
7.1635129921259839
21
-4.4745740944881884
0
LINE
8
BLACK
6
CONTINUOUS
10
7.1635129921259839
20
-4.4745740944881884
11
7.1709351181102363
21
-4.4786268897637793
0
LINE
8
BLACK
6
CONTINUOUS
10
7.1709351181102363
20
-4.4786268897637793
11
7.173373582677165
21
-4.4799583858267713
0
LINE
8
BLACK
6
CONTINUOUS
10
7.173373582677165
20
-4.4799583858267713
11
7.1771424409448814
21
-4.4813640551181102
0
LINE
8
BLACK
6
CONTINUOUS
10
7.1771424409448814
20
-4.4813640551181102
11
7.1789165748031492
21
-4.4825042519685034
0
LINE
8
BLACK
6
CONTINUOUS
10
7.1789165748031492
20
-4.4825042519685034
11
7.1800994488188978
21
-4.4836871259842521
0
LINE
8
BLACK
6
CONTINUOUS
10
7.1800994488188978
20
-4.4836871259842521
11
7.182514763779527
21
-4.4836871259842521
0
LINE
8
BLACK
6
CONTINUOUS
10
7.182514763779527
20
-4.4836871259842521
11
7.1837235826771648
21
-4.48386094488189
0
LINE
8
BLACK
6
CONTINUOUS
10
7.1837235826771648
20
-4.48386094488189
11
7.1837266929133854
21
-4.4838467322834648
0
LINE
8
BLACK
6
CONTINUOUS
10
7.1837266929133854
20
-4.4838467322834648
11
7.1861932677165354
21
-4.4843832677165354
0
LINE
8
BLACK
6
CONTINUOUS
10
7.1861932677165354
20
-4.4843832677165354
11
7.1948776377952752
21
-4.4862723622047245
0
LINE
8
BLACK
6
CONTINUOUS
10
7.1948776377952752
20
-4.4862723622047245
11
7.206083858267716
21
-4.4870729527559057
0
LINE
8
BLACK
6
CONTINUOUS
10
7.206083858267716
20
-4.4870729527559057
11
7.2413395669291338
21
-4.4870729527559057
0
LINE
8
BLACK
6
CONTINUOUS
10
7.2413395669291338
20
-4.4870729527559057
11
7.2416935039370074
21
-4.4870855905511808
0
LINE
8
BLACK
6
CONTINUOUS
10
7.2416935039370074
20
-4.4870855905511808
11
7.2523688188976374
21
-4.4878492125984248
0
LINE
8
BLACK
6
CONTINUOUS
10
7.2523688188976374
20
-4.4878492125984248
11
7.2530693700787401
21
-4.4879499606299209
0
LINE
8
BLACK
6
CONTINUOUS
10
7.2530693700787401
20
-4.4879499606299209
11
7.2633535826771656
21
-4.4901872440944883
0
LINE
8
BLACK
6
CONTINUOUS
10
7.2633535826771656
20
-4.4901872440944883
11
7.2640326771653543
21
-4.4903866535433066
0
LINE
8
BLACK
6
CONTINUOUS
10
7.2640326771653543
20
-4.4903866535433066
11
7.2738943700787404
21
-4.4940649212598425
0
LINE
8
BLACK
6
CONTINUOUS
10
7.2738943700787404
20
-4.4940649212598425
11
7.2745381889763774
21
-4.494358937007874
0
LINE
8
BLACK
6
CONTINUOUS
10
7.2745381889763774
20
-4.494358937007874
11
7.2837755118110232
21
-4.4994029133858264
0
LINE
8
BLACK
6
CONTINUOUS
10
7.2837755118110232
20
-4.4994029133858264
11
7.2843709055118104
21
-4.4997855511811027
0
LINE
8
BLACK
6
CONTINUOUS
10
7.2843709055118104
20
-4.4997855511811027
11
7.2927964960629916
21
-4.5060928740157475
0
LINE
8
BLACK
6
CONTINUOUS
10
7.2927964960629916
20
-4.5060928740157475
11
7.2933313779527555
21
-4.5065563385826772
0
LINE
8
BLACK
6
CONTINUOUS
10
7.2933313779527555
20
-4.5065563385826772
11
7.3007738188976372
21
-4.5139987401574801
0
LINE
8
BLACK
6
CONTINUOUS
10
7.3007738188976372
20
-4.5139987401574801
11
7.3012372834645669
21
-4.5145336220472441
0
LINE
8
BLACK
6
CONTINUOUS
10
7.3012372834645669
20
-4.5145336220472441
11
7.3075445669291339
21
-4.5229589763779527
0
LINE
8
BLACK
6
CONTINUOUS
10
7.3075445669291339
20
-4.5229589763779527
11
7.307927244094488
21
-4.52355437007874
0
LINE
8
BLACK
6
CONTINUOUS
10
7.307927244094488
20
-4.52355437007874
11
7.3129715748031492
21
-4.5327920866141733
0
LINE
8
BLACK
6
CONTINUOUS
10
7.3129715748031492
20
-4.5327920866141733
11
7.3132655905511808
21
-4.5334359055118112
0
LINE
8
BLACK
6
CONTINUOUS
10
7.3132655905511808
20
-4.5334359055118112
11
7.3169437795275591
21
-4.5432970866141735
0
LINE
8
BLACK
6
CONTINUOUS
10
7.3169437795275591
20
-4.5432970866141735
11
7.3171431889763774
21
-4.5439761811023622
0
LINE
8
BLACK
6
CONTINUOUS
10
7.3171431889763774
20
-4.5439761811023622
11
7.3193805905511811
21
-4.5542604724409443
0
LINE
8
BLACK
6
CONTINUOUS
10
7.3193805905511811
20
-4.5542604724409443
11
7.3194813385826771
21
-4.554961338582677
0
LINE
8
BLACK
6
CONTINUOUS
10
7.3194813385826771
20
-4.554961338582677
11
7.3202443307086611
21
-4.5656362598425195
0
LINE
8
BLACK
6
CONTINUOUS
10
7.3202443307086611
20
-4.5656362598425195
11
7.3202569685039371
21
-4.5659899212598427
0
LINE
8
BLACK
6
CONTINUOUS
10
7.3202569685039371
20
-4.5659899212598427
11
7.3202569685039371
21
-4.8569746456692915
0
LINE
8
BLACK
6
CONTINUOUS
10
7.3202569685039371
20
-4.8569746456692915
11
7.3202443307086611
21
-4.85732842519685
0
LINE
8
BLACK
6
CONTINUOUS
10
7.3202443307086611
20
-4.85732842519685
11
7.3194810236220471
21
-4.8680038976377951
0
LINE
8
BLACK
6
CONTINUOUS
10
7.3194810236220471
20
-4.8680038976377951
11
7.3193803149606298
21
-4.8687044881889765
0
LINE
8
BLACK
6
CONTINUOUS
10
7.3193803149606298
20
-4.8687044881889765
11
7.3171432677165349
21
-4.8789890944881886
0
LINE
8
BLACK
6
CONTINUOUS
10
7.3171432677165349
20
-4.8789890944881886
11
7.3169438976377954
21
-4.8796681889763782
0
LINE
8
BLACK
6
CONTINUOUS
10
7.3169438976377954
20
-4.8796681889763782
11
7.3132659055118108
21
-4.8895299212598422
0
LINE
8
BLACK
6
CONTINUOUS
10
7.3132659055118108
20
-4.8895299212598422
11
7.3129718897637792
21
-4.8901737401574801
0
LINE
8
BLACK
6
CONTINUOUS
10
7.3129718897637792
20
-4.8901737401574801
11
7.3079279527559056
21
-4.8994114960629922
0
LINE
8
BLACK
6
CONTINUOUS
10
7.3079279527559056
20
-4.8994114960629922
11
7.3075452755905514
21
-4.9000069291338582
0
LINE
8
BLACK
6
CONTINUOUS
10
7.3075452755905514
20
-4.9000069291338582
11
7.3012378740157482
21
-4.9084329133858269
0
LINE
8
BLACK
6
CONTINUOUS
10
7.3012378740157482
20
-4.9084329133858269
11
7.3007744094488185
21
-4.9089678346456695
0
LINE
8
BLACK
6
CONTINUOUS
10
7.3007744094488185
20
-4.9089678346456695
11
7.2933322047244094
21
-4.91641031496063
0
LINE
8
BLACK
6
CONTINUOUS
10
7.2933322047244094
20
-4.91641031496063
11
7.2927973228346454
21
-4.9168738188976375
0
LINE
8
BLACK
6
CONTINUOUS
10
7.2927973228346454
20
-4.9168738188976375
11
7.2843714173228342
21
-4.9231816141732283
0
LINE
8
BLACK
6
CONTINUOUS
10
7.2843714173228342
20
-4.9231816141732283
11
7.283776023622047
21
-4.9235642519685037
0
LINE
8
BLACK
6
CONTINUOUS
10
7.283776023622047
20
-4.9235642519685037
11
7.2745387401574799
21
-4.9286084251968507
0
LINE
8
BLACK
6
CONTINUOUS
10
7.2745387401574799
20
-4.9286084251968507
11
7.2738948818897633
21
-4.9289024803149601
0
LINE
8
BLACK
6
CONTINUOUS
10
7.2738948818897633
20
-4.9289024803149601
11
7.2640332283464568
21
-4.9325808267716535
0
LINE
8
BLACK
6
CONTINUOUS
10
7.2640332283464568
20
-4.9325808267716535
11
7.2633541338582672
21
-4.9327802362204727
0
LINE
8
BLACK
6
CONTINUOUS
10
7.2633541338582672
20
-4.9327802362204727
11
7.2530701968503939
21
-4.935017559055118
0
LINE
8
BLACK
6
CONTINUOUS
10
7.2530701968503939
20
-4.935017559055118
11
7.2523683464566924
21
-4.9351183858267715
0
LINE
8
BLACK
6
CONTINUOUS
10
7.2523683464566924
20
-4.9351183858267715
11
7.2416930314960632
21
-4.9358792913385825
0
LINE
8
BLACK
6
CONTINUOUS
10
7.2416930314960632
20
-4.9358792913385825
11
7.2413403543307089
21
-4.935891850393701
0
LINE
8
BLACK
6
CONTINUOUS
10
7.2413403543307089
20
-4.935891850393701
11
7.2123167322834645
21
-4.935891850393701
0
LINE
8
BLACK
6
CONTINUOUS
10
7.2123167322834645
20
-4.935891850393701
11
7.2099588582677168
21
-4.937195
0
LINE
8
BLACK
6
CONTINUOUS
10
7.2099588582677168
20
-4.937195
11
7.1969062992125981
21
-4.9426015748031498
0
LINE
8
BLACK
6
CONTINUOUS
10
7.1969062992125981
20
-4.9426015748031498
11
7.1833304724409448
21
-4.9465126771653543
0
LINE
8
BLACK
6
CONTINUOUS
10
7.1833304724409448
20
-4.9465126771653543
11
7.1694020866141734
21
-4.9488792125984249
0
LINE
8
BLACK
6
CONTINUOUS
10
7.1694020866141734
20
-4.9488792125984249
11
7.1552963385826773
21
-4.9496713779527557
0
LINE
8
BLACK
6
CONTINUOUS
10
7.1552963385826773
20
-4.9496713779527557
11
7.1411905905511812
21
-4.9488792125984249
0
LINE
8
BLACK
6
CONTINUOUS
10
7.1411905905511812
20
-4.9488792125984249
11
7.127262204724409
21
-4.9465126771653543
0
LINE
8
BLACK
6
CONTINUOUS
10
7.127262204724409
20
-4.9465126771653543
11
7.1136863779527557
21
-4.9426015748031498
0
LINE
8
BLACK
6
CONTINUOUS
10
7.1136863779527557
20
-4.9426015748031498
11
7.1006338188976379
21
-4.937195
0
LINE
8
BLACK
6
CONTINUOUS
10
7.1006338188976379
20
-4.937195
11
7.0982759448818893
21
-4.935891850393701
0
LINE
8
BLACK
6
CONTINUOUS
10
7.0982759448818893
20
-4.935891850393701
11
6.3360050393700789
21
-4.935891850393701
0
LINE
8
BLACK
6
CONTINUOUS
10
6.3360050393700789
20
-4.935891850393701
11
6.3267661811023617
21
-4.9366188188976379
0
LINE
8
BLACK
6
CONTINUOUS
10
6.3267661811023617
20
-4.9366188188976379
11
6.3177557086614176
21
-4.9387818110236221
0
LINE
8
BLACK
6
CONTINUOUS
10
6.3177557086614176
20
-4.9387818110236221
11
6.3091935039370082
21
-4.9423281889763775
0
LINE
8
BLACK
6
CONTINUOUS
10
6.3091935039370082
20
-4.9423281889763775
11
6.3012921653543303
21
-4.9471699606299211
0
LINE
8
BLACK
6
CONTINUOUS
10
6.3012921653543303
20
-4.9471699606299211
11
6.3012920078740153
21
-4.9471700787401574
0
LINE
8
BLACK
6
CONTINUOUS
10
6.3012920078740153
20
-4.9471700787401574
11
6.2942454330708664
21
-4.9531881102362201
0
LINE
8
BLACK
6
CONTINUOUS
10
6.2942454330708664
20
-4.9531881102362201
11
6.2882267322834648
21
-4.9602346850393699
0
LINE
8
BLACK
6
CONTINUOUS
10
6.2882267322834648
20
-4.9602346850393699
11
6.2833845669291337
21
-4.9681359448818894
0
LINE
8
BLACK
6
CONTINUOUS
10
6.2833845669291337
20
-4.9681359448818894
11
6.279837952755905
21
-4.9766975590551183
0
LINE
8
BLACK
6
CONTINUOUS
10
6.279837952755905
20
-4.9766975590551183
11
6.277674251968504
21
-4.9857087795275588
0
LINE
8
BLACK
6
CONTINUOUS
10
6.277674251968504
20
-4.9857087795275588
11
6.276949881889764
21
-4.9949468110236221
0
LINE
8
BLACK
6
CONTINUOUS
10
6.276949881889764
20
-4.9949468110236221
11
6.276949881889764
21
-5.0183740944881885
0
LINE
8
BLACK
6
CONTINUOUS
10
6.276949881889764
20
-5.0183740944881885
11
6.2769346062992124
21
-5.0187631889763775
0
LINE
8
BLACK
6
CONTINUOUS
10
6.2769346062992124
20
-5.0187631889763775
11
6.2762536614173223
21
-5.0274182677165351
0
LINE
8
BLACK
6
CONTINUOUS
10
6.2762536614173223
20
-5.0274182677165351
11
6.2761319291338582
21
-5.0281870472440939
0
LINE
8
BLACK
6
CONTINUOUS
10
6.2761319291338582
20
-5.0281870472440939
11
6.2741511023622047
21
-5.0364390551181097
0
LINE
8
BLACK
6
CONTINUOUS
10
6.2741511023622047
20
-5.0364390551181097
11
6.2739105511811024
21
-5.0371794094488189
0
LINE
8
BLACK
6
CONTINUOUS
10
6.2739105511811024
20
-5.0371794094488189
11
6.2706633070866138
21
-5.0450194881889763
0
LINE
8
BLACK
6
CONTINUOUS
10
6.2706633070866138
20
-5.0450194881889763
11
6.2703099212598428
21
-5.0457130708661415
0
LINE
8
BLACK
6
CONTINUOUS
10
6.2703099212598428
20
-5.0457130708661415
11
6.265875866141732
21
-5.052949212598425
0
LINE
8
BLACK
6
CONTINUOUS
10
6.265875866141732
20
-5.052949212598425
11
6.265418346456693
21
-5.0535789763779526
0
LINE
8
BLACK
6
CONTINUOUS
10
6.265418346456693
20
-5.0535789763779526
11
6.2599072834645666
21
-5.0600319291338582
0
LINE
8
BLACK
6
CONTINUOUS
10
6.2599072834645666
20
-5.0600319291338582
11
6.2593568897637795
21
-5.0605823622047241
0
LINE
8
BLACK
6
CONTINUOUS
10
6.2593568897637795
20
-5.0605823622047241
11
6.2529039763779526
21
-5.0660939763779522
0
LINE
8
BLACK
6
CONTINUOUS
10
6.2529039763779526
20
-5.0660939763779522
11
6.252274212598425
21
-5.0665515354330708
0
LINE
8
BLACK
6
CONTINUOUS
10
6.252274212598425
20
-5.0665515354330708
11
6.245038779527559
21
-5.0709856299212595
0
LINE
8
BLACK
6
CONTINUOUS
10
6.245038779527559
20
-5.0709856299212595
11
6.2443452362204726
21
-5.0713390551181101
0
LINE
8
BLACK
6
CONTINUOUS
10
6.2443452362204726
20
-5.0713390551181101
11
6.2365048425196852
21
-5.0745868503937004
0
LINE
8
BLACK
6
CONTINUOUS
10
6.2365048425196852
20
-5.0745868503937004
11
6.2357645275590547
21
-5.0748274015748027
0
LINE
8
BLACK
6
CONTINUOUS
10
6.2357645275590547
20
-5.0748274015748027
11
6.2275137401574803
21
-5.0768084251968499
0
LINE
8
BLACK
6
CONTINUOUS
10
6.2275137401574803
20
-5.0768084251968499
11
6.2267433464566926
21
-5.07693031496063
0
LINE
8
BLACK
6
CONTINUOUS
10
6.2267433464566926
20
-5.07693031496063
11
6.2180880708661412
21
-5.0776089370078736
0
LINE
8
BLACK
6
CONTINUOUS
10
6.2180880708661412
20
-5.0776089370078736
11
6.2177003149606298
21
-5.0776241338582677
0
LINE
8
BLACK
6
CONTINUOUS
10
6.2177003149606298
20
-5.0776241338582677
11
5.1350601181102364
21
-5.0776241338582677
0
LINE
8
BLACK
6
CONTINUOUS
10
5.1350601181102364
20
-5.0776241338582677
11
3.8349272834645669
21
-5.0776241338582677
0
LINE
8
BLACK
6
CONTINUOUS
10
3.8349272834645669
20
-5.0776241338582677
11
3.7180718503937009
21
-5.0776241338582677
0
LINE
8
BLACK
6
CONTINUOUS
10
3.7180718503937009
20
-5.0776241338582677
11
3.717717992125984
21
-5.0776114960629917
0
LINE
8
BLACK
6
CONTINUOUS
10
3.717717992125984
20
-5.0776114960629917
11
3.7070427952755907
21
-5.0768480708661414
0
LINE
8
BLACK
6
CONTINUOUS
10
3.7070427952755907
20
-5.0768480708661414
11
3.706342244094488
21
-5.0767473622047241
0
LINE
8
BLACK
6
CONTINUOUS
10
3.706342244094488
20
-5.0767473622047241
11
3.6960577165354329
21
-5.0745102362204726
0
LINE
8
BLACK
6
CONTINUOUS
10
3.6960577165354329
20
-5.0745102362204726
11
3.6953785826771655
21
-5.0743108267716535
0
LINE
8
BLACK
6
CONTINUOUS
10
3.6953785826771655
20
-5.0743108267716535
11
3.6855173228346456
21
-5.0706327952755901
0
LINE
8
BLACK
6
CONTINUOUS
10
3.6855173228346456
20
-5.0706327952755901
11
3.6848735039370077
21
-5.0703387795275585
0
LINE
8
BLACK
6
CONTINUOUS
10
3.6848735039370077
20
-5.0703387795275585
11
3.6756358661417323
21
-5.0652946850393699
0
LINE
8
BLACK
6
CONTINUOUS
10
3.6756358661417323
20
-5.0652946850393699
11
3.6750404330708659
21
-5.0649120078740157
0
LINE
8
BLACK
6
CONTINUOUS
10
3.6750404330708659
20
-5.0649120078740157
11
3.6666149212598422
21
-5.0586047244094487
0
LINE
8
BLACK
6
CONTINUOUS
10
3.6666149212598422
20
-5.0586047244094487
11
3.66608
21
-5.0581412204724412
0
LINE
8
BLACK
6
CONTINUOUS
10
3.66608
20
-5.0581412204724412
11
3.6586377952755904
21
-5.0506989370078736
0
LINE
8
BLACK
6
CONTINUOUS
10
3.6586377952755904
20
-5.0506989370078736
11
3.6581742913385824
21
-5.050164015748031
0
LINE
8
BLACK
6
CONTINUOUS
10
3.6581742913385824
20
-5.050164015748031
11
3.6518669685039371
21
-5.0417382283464569
0
LINE
8
BLACK
6
CONTINUOUS
10
3.6518669685039371
20
-5.0417382283464569
11
3.6514843307086613
21
-5.0411427952755901
0
LINE
8
BLACK
6
CONTINUOUS
10
3.6514843307086613
20
-5.0411427952755901
11
3.646440433070866
21
-5.0319053149606301
0
LINE
8
BLACK
6
CONTINUOUS
10
3.646440433070866
20
-5.0319053149606301
11
3.6461464173228344
21
-5.0312614960629922
0
LINE
8
BLACK
6
CONTINUOUS
10
3.6461464173228344
20
-5.0312614960629922
11
3.642468464566929
21
-5.0214001968503936
0
LINE
8
BLACK
6
CONTINUOUS
10
3.642468464566929
20
-5.0214001968503936
11
3.6422690551181103
21
-5.0207210236220474
0
LINE
8
BLACK
6
CONTINUOUS
10
3.6422690551181103
20
-5.0207210236220474
11
3.640212834645669
21
-5.0112677165354329
0
LINE
8
BLACK
6
CONTINUOUS
10
3.640212834645669
20
-5.0112677165354329
11
3.6400994881889761
21
-5.0102133858267717
0
LINE
8
BLACK
6
CONTINUOUS
10
3.6400994881889761
20
-5.0102133858267717
11
3.6400994881889761
21
-4.711962952755905
0
LINE
8
BLACK
6
CONTINUOUS
10
3.6400994881889761
20
-4.711962952755905
11
3.6402128740157478
21
-4.7109083858267713
0
LINE
8
BLACK
6
CONTINUOUS
10
3.6402128740157478
20
-4.7109083858267713
11
3.642269094488189
21
-4.7014569685039369
0
LINE
8
BLACK
6
CONTINUOUS
10
3.642269094488189
20
-4.7014569685039369
11
3.6424685039370077
21
-4.7007778740157482
0
LINE
8
BLACK
6
CONTINUOUS
10
3.6424685039370077
20
-4.7007778740157482
11
3.6461468110236219
21
-4.6909166929133859
0
LINE
8
BLACK
6
CONTINUOUS
10
3.6461468110236219
20
-4.6909166929133859
11
3.6464408661417322
21
-4.690272874015748
0
LINE
8
BLACK
6
CONTINUOUS
10
3.6464408661417322
20
-4.690272874015748
11
3.6514849212598426
21
-4.6810358661417322
0
LINE
8
BLACK
6
CONTINUOUS
10
3.6514849212598426
20
-4.6810358661417322
11
3.651867559055118
21
-4.680440472440945
0
LINE
8
BLACK
6
CONTINUOUS
10
3.651867559055118
20
-4.680440472440945
11
3.6581750393700787
21
-4.672015
0
LINE
8
BLACK
6
CONTINUOUS
10
3.6581750393700787
20
-4.672015
11
3.6586385433070867
21
-4.6714801181102361
0
LINE
8
BLACK
6
CONTINUOUS
10
3.6586385433070867
20
-4.6714801181102361
11
3.6660806692913384
21
-4.664038228346457
0
LINE
8
BLACK
6
CONTINUOUS
10
3.6660806692913384
20
-4.664038228346457
11
3.666615590551181
21
-4.6635747244094485
0
LINE
8
BLACK
6
CONTINUOUS
10
3.666615590551181
20
-4.6635747244094485
11
3.6750411811023622
21
-4.6572676377952753
0
LINE
8
BLACK
6
CONTINUOUS
10
3.6750411811023622
20
-4.6572676377952753
11
3.6756366141732282
21
-4.6568849999999999
0
LINE
8
BLACK
6
CONTINUOUS
10
3.6756366141732282
20
-4.6568849999999999
11
3.6848742913385828
21
-4.6518410629921263
0
LINE
8
BLACK
6
CONTINUOUS
10
3.6848742913385828
20
-4.6518410629921263
11
3.6855180708661415
21
-4.6515470866141735
0
LINE
8
BLACK
6
CONTINUOUS
10
3.6855180708661415
20
-4.6515470866141735
11
3.6953789763779525
21
-4.6478692913385826
0
LINE
8
BLACK
6
CONTINUOUS
10
3.6953789763779525
20
-4.6478692913385826
11
3.6960581102362204
21
-4.6476698818897635
0
LINE
8
BLACK
6
CONTINUOUS
10
3.6960581102362204
20
-4.6476698818897635
11
3.7063429527559055
21
-4.645432755905512
0
LINE
8
BLACK
6
CONTINUOUS
10
3.7063429527559055
20
-4.645432755905512
11
3.7070422440944881
21
-4.6453321259842522
0
LINE
8
BLACK
6
CONTINUOUS
10
3.7070422440944881
20
-4.6453321259842522
11
3.7178948031496062
21
-4.6445532677165353
0
LINE
8
BLACK
6
CONTINUOUS
10
3.7178948031496062
20
-4.6445532677165353
11
3.7178948031496062
21
-4.6445535433070866
0
LINE
8
BLACK
6
CONTINUOUS
10
3.7178948031496062
20
-4.6445535433070866
11
3.7178959055118108
21
-4.6445531496062991
0
LINE
8
BLACK
6
CONTINUOUS
10
3.7178959055118108
20
-4.6445531496062991
11
3.7291005511811024
21
-4.6437516141732287
0
LINE
8
BLACK
6
CONTINUOUS
10
3.7291005511811024
20
-4.6437516141732287
11
3.7400780314960631
21
-4.6413634251968503
0
LINE
8
BLACK
6
CONTINUOUS
10
3.7400780314960631
20
-4.6413634251968503
11
3.7400783070866139
21
-4.6413633464566928
0
LINE
8
BLACK
6
CONTINUOUS
10
3.7400783070866139
20
-4.6413633464566928
11
3.7506038188976376
21
-4.6374373228346455
0
LINE
8
BLACK
6
CONTINUOUS
10
3.7506038188976376
20
-4.6374373228346455
11
3.7506038582677164
21
-4.6374373228346455
0
LINE
8
BLACK
6
CONTINUOUS
10
3.7506038582677164
20
-4.6374373228346455
11
3.7604638976377953
21
-4.6320531102362201
0
LINE
8
BLACK
6
CONTINUOUS
10
3.7604638976377953
20
-4.6320531102362201
11
3.769457440944882
21
-4.625320393700787
0
LINE
8
BLACK
6
CONTINUOUS
10
3.769457440944882
20
-4.625320393700787
11
3.777401062992126
21
-4.617376456692913
0
LINE
8
BLACK
6
CONTINUOUS
10
3.777401062992126
20
-4.617376456692913
11
3.7841333858267716
21
-4.6083827559055113
0
LINE
8
BLACK
6
CONTINUOUS
10
3.7841333858267716
20
-4.6083827559055113
11
3.7862411417322832
21
-4.604522559055118
0
LINE
8
BLACK
6
CONTINUOUS
10
3.7862411417322832
20
-4.604522559055118
11
3.7870874015748033
21
-4.6033920866141731
0
LINE
8
BLACK
6
CONTINUOUS
10
3.7870874015748033
20
-4.6033920866141731
11
3.7871665748031496
21
-4.6033128740157476
0
LINE
8
BLACK
6
CONTINUOUS
10
3.7871665748031496
20
-4.6033128740157476
11
3.7873991338582678
21
-4.6024017716535432
0
LINE
8
BLACK
6
CONTINUOUS
10
3.7873991338582678
20
-4.6024017716535432
11
3.7878574409448817
21
-4.6015623622047244
0
LINE
8
BLACK
6
CONTINUOUS
10
3.7878574409448817
20
-4.6015623622047244
11
3.7895172047244094
21
-4.598522519685039
0
LINE
8
BLACK
6
CONTINUOUS
10
3.7895172047244094
20
-4.598522519685039
11
3.7934431102362205
21
-4.587996181102362
0
LINE
8
BLACK
6
CONTINUOUS
10
3.7934431102362205
20
-4.587996181102362
11
3.7958307874015746
21
-4.5770190157480313
0
LINE
8
BLACK
6
CONTINUOUS
10
3.7958307874015746
20
-4.5770190157480313
11
3.7966348818897635
21
-4.5658129527559055
0
LINE
8
BLACK
6
CONTINUOUS
10
3.7966348818897635
20
-4.5658129527559055
11
3.7966349212598423
21
-4.5658126771653542
0
LINE
8
BLACK
6
CONTINUOUS
10
3.7966349212598423
20
-4.5658126771653542
11
3.7966349212598423
21
-3.4288839763779526
0
LINE
8
BLACK
6
CONTINUOUS
10
3.7966349212598423
20
-3.4288839763779526
11
3.7966349212598423
21
-3.2604786614173227
0
LINE
8
BLACK
6
CONTINUOUS
10
3.7966349212598423
20
-3.2604786614173227
11
3.7966475590551179
21
-3.2601246850393699
0
LINE
8
BLACK
6
CONTINUOUS
10
3.7966475590551179
20
-3.2601246850393699
11
3.7974112992125981
21
-3.2494494881889762
0
LINE
8
BLACK
6
CONTINUOUS
10
3.7974112992125981
20
-3.2494494881889762
11
3.7975120472440942
21
-3.2487488976377952
0
LINE
8
BLACK
6
CONTINUOUS
10
3.7975120472440942
20
-3.2487488976377952
11
3.7997494094488187
21
-3.2384648425196851
0
LINE
8
BLACK
6
CONTINUOUS
10
3.7997494094488187
20
-3.2384648425196851
11
3.7999488188976378
21
-3.237785748031496
0
LINE
8
BLACK
6
CONTINUOUS
10
3.7999488188976378
20
-3.237785748031496
11
3.803627125984252
21
-3.2279245669291337
0
LINE
8
BLACK
6
CONTINUOUS
10
3.803627125984252
20
-3.2279245669291337
11
3.8039211811023623
21
-3.2272807480314958
0
LINE
8
BLACK
6
CONTINUOUS
10
3.8039211811023623
20
-3.2272807480314958
11
3.8089652362204722
21
-3.2180437401574804
0
LINE
8
BLACK
6
CONTINUOUS
10
3.8089652362204722
20
-3.2180437401574804
11
3.809347874015748
21
-3.2174483464566928
0
LINE
8
BLACK
6
CONTINUOUS
10
3.809347874015748
20
-3.2174483464566928
11
3.8156553543307088
21
-3.2090228740157478
0
LINE
8
BLACK
6
CONTINUOUS
10
3.8156553543307088
20
-3.2090228740157478
11
3.8161188582677164
21
-3.2084879921259843
0
LINE
8
BLACK
6
CONTINUOUS
10
3.8161188582677164
20
-3.2084879921259843
11
3.8235609842519684
21
-3.2010461023622048
0
LINE
8
BLACK
6
CONTINUOUS
10
3.8235609842519684
20
-3.2010461023622048
11
3.8240959055118111
21
-3.2005825984251968
0
LINE
8
BLACK
6
CONTINUOUS
10
3.8240959055118111
20
-3.2005825984251968
11
3.8325214960629919
21
-3.1942755118110235
0
LINE
8
BLACK
6
CONTINUOUS
10
3.8325214960629919
20
-3.1942755118110235
11
3.8331169291338583
21
-3.1938928740157482
0
LINE
8
BLACK
6
CONTINUOUS
10
3.8331169291338583
20
-3.1938928740157482
11
3.8423546062992124
21
-3.1888489370078741
0
LINE
8
BLACK
6
CONTINUOUS
10
3.8423546062992124
20
-3.1888489370078741
11
3.8429983858267716
21
-3.1885549606299213
0
LINE
8
BLACK
6
CONTINUOUS
10
3.8429983858267716
20
-3.1885549606299213
11
3.8528592913385826
21
-3.1848771653543309
0
LINE
8
BLACK
6
CONTINUOUS
10
3.8528592913385826
20
-3.1848771653543309
11
3.8535384251968505
21
-3.1846777559055117
0
LINE
8
BLACK
6
CONTINUOUS
10
3.8535384251968505
20
-3.1846777559055117
11
3.8638232677165352
21
-3.1824406299212598
0
LINE
8
BLACK
6
CONTINUOUS
10
3.8638232677165352
20
-3.1824406299212598
11
3.8645225590551182
21
-3.1823399999999999
0
LINE
8
BLACK
6
CONTINUOUS
10
3.8645225590551182
20
-3.1823399999999999
11
3.8751979133858265
21
-3.1815738582677167
0
LINE
8
BLACK
6
CONTINUOUS
10
3.8751979133858265
20
-3.1815738582677167
11
3.8755529921259844
21
-3.1815611417322835
0
LINE
8
BLACK
6
CONTINUOUS
10
3.8755529921259844
20
-3.1815611417322835
11
5.1894695669291337
21
-3.1815611417322835
0
LINE
8
BLACK
6
CONTINUOUS
10
5.3122254724409448
20
-3.2573879527559053
11
5.3116261023622044
21
-3.2604012204724411
0
LINE
8
BLACK
6
CONTINUOUS
10
5.3116261023622044
20
-3.2604012204724411
11
5.3099192125984249
21
-3.2629557086614174
0
LINE
8
BLACK
6
CONTINUOUS
10
5.3099192125984249
20
-3.2629557086614174
11
5.3073647244094486
21
-3.2646625984251969
0
LINE
8
BLACK
6
CONTINUOUS
10
5.3073647244094486
20
-3.2646625984251969
11
5.3043514566929133
21
-3.2652619685039368
0
LINE
8
BLACK
6
CONTINUOUS
10
5.3043514566929133
20
-3.2652619685039368
11
5.2216742913385827
21
-3.2652619685039368
0
LINE
8
BLACK
6
CONTINUOUS
10
5.2216742913385827
20
-3.2652619685039368
11
5.2216742913385827
21
-3.3479391338582678
0
LINE
8
BLACK
6
CONTINUOUS
10
5.2216742913385827
20
-3.3479391338582678
11
5.2210749212598424
21
-3.3509524015748031
0
LINE
8
BLACK
6
CONTINUOUS
10
5.2210749212598424
20
-3.3509524015748031
11
5.2193680314960629
21
-3.3535068897637794
0
LINE
8
BLACK
6
CONTINUOUS
10
5.2193680314960629
20
-3.3535068897637794
11
5.2168135433070866
21
-3.3552137795275589
0
LINE
8
BLACK
6
CONTINUOUS
10
5.2168135433070866
20
-3.3552137795275589
11
5.2138002755905513
21
-3.3558131496062993
0
LINE
8
BLACK
6
CONTINUOUS
10
5.2138002755905513
20
-3.3558131496062993
11
5.1844301968503936
21
-3.3558131496062993
0
LINE
8
BLACK
6
CONTINUOUS
10
5.1844301968503936
20
-3.3558131496062993
11
5.1844301968503936
21
-3.4266792913385826
0
LINE
8
BLACK
6
CONTINUOUS
10
5.1844301968503936
20
-3.4266792913385826
11
5.2138002755905513
21
-3.4266792913385826
0
LINE
8
BLACK
6
CONTINUOUS
10
5.2138002755905513
20
-3.4266792913385826
11
5.2168135433070866
21
-3.427278661417323
0
LINE
8
BLACK
6
CONTINUOUS
10
5.2168135433070866
20
-3.427278661417323
11
5.2193680314960629
21
-3.4289855511811025
0
LINE
8
BLACK
6
CONTINUOUS
10
5.2193680314960629
20
-3.4289855511811025
11
5.2210749212598424
21
-3.4315400393700788
0
LINE
8
BLACK
6
CONTINUOUS
10
5.2210749212598424
20
-3.4315400393700788
11
5.2216742913385827
21
-3.4345533070866141
0
LINE
8
BLACK
6
CONTINUOUS
10
5.2216742913385827
20
-3.4345533070866141
11
5.2216742913385827
21
-3.5841596062992127
0
LINE
8
BLACK
6
CONTINUOUS
10
5.2216742913385827
20
-3.5841596062992127
11
5.2210749212598424
21
-3.587172874015748
0
LINE
8
BLACK
6
CONTINUOUS
10
5.2210749212598424
20
-3.587172874015748
11
5.2193680314960629
21
-3.5897273622047243
0
LINE
8
BLACK
6
CONTINUOUS
10
5.2193680314960629
20
-3.5897273622047243
11
5.2168135433070866
21
-3.5914342519685039
0
LINE
8
BLACK
6
CONTINUOUS
10
5.2168135433070866
20
-3.5914342519685039
11
5.2138002755905513
21
-3.5920336220472442
0
LINE
8
BLACK
6
CONTINUOUS
10
5.2138002755905513
20
-3.5920336220472442
11
5.1744301968503938
21
-3.5920336220472442
0
LINE
8
BLACK
6
CONTINUOUS
10
5.1744301968503938
20
-3.5920336220472442
11
5.1714169291338585
21
-3.5914342519685039
0
LINE
8
BLACK
6
CONTINUOUS
10
5.1714169291338585
20
-3.5914342519685039
11
5.1688624409448813
21
-3.5897273622047243
0
LINE
8
BLACK
6
CONTINUOUS
10
5.1688624409448813
20
-3.5897273622047243
11
5.1671555511811018
21
-3.587172874015748
0
LINE
8
BLACK
6
CONTINUOUS
10
5.1671555511811018
20
-3.587172874015748
11
5.1665561811023624
21
-3.5841596062992127
0
LINE
8
BLACK
6
CONTINUOUS
10
5.1665561811023624
20
-3.5841596062992127
11
5.1665561811023624
21
-3.4732934251968501
0
LINE
8
BLACK
6
CONTINUOUS
10
5.1665561811023624
20
-3.4732934251968501
11
5.1601427952755907
21
-3.4732934251968501
0
LINE
8
BLACK
6
CONTINUOUS
10
5.1601427952755907
20
-3.4732934251968501
11
5.1601427952755907
21
-3.4978879133858265
0
LINE
8
BLACK
6
CONTINUOUS
10
5.1601427952755907
20
-3.4978879133858265
11
5.1601427952755907
21
-3.588439094488189
0
LINE
8
BLACK
6
CONTINUOUS
10
5.1601427952755907
20
-3.588439094488189
11
5.1595434251968504
21
-3.5914523622047243
0
LINE
8
BLACK
6
CONTINUOUS
10
5.1595434251968504
20
-3.5914523622047243
11
5.1578365354330709
21
-3.5940068503937006
0
LINE
8
BLACK
6
CONTINUOUS
10
5.1578365354330709
20
-3.5940068503937006
11
5.1552820472440946
21
-3.5957137401574801
0
LINE
8
BLACK
6
CONTINUOUS
10
5.1552820472440946
20
-3.5957137401574801
11
5.1522687795275592
21
-3.5963131102362205
0
LINE
8
BLACK
6
CONTINUOUS
10
5.1522687795275592
20
-3.5963131102362205
11
5.1128987007874018
21
-3.5963131102362205
0
LINE
8
BLACK
6
CONTINUOUS
10
5.1128987007874018
20
-3.5963131102362205
11
5.1098854330708656
21
-3.5957137401574801
0
LINE
8
BLACK
6
CONTINUOUS
10
5.1098854330708656
20
-3.5957137401574801
11
5.1073309448818893
21
-3.5940068503937006
0
LINE
8
BLACK
6
CONTINUOUS
10
5.1073309448818893
20
-3.5940068503937006
11
5.1056240551181098
21
-3.5914523622047243
0
LINE
8
BLACK
6
CONTINUOUS
10
5.1056240551181098
20
-3.5914523622047243
11
5.1050246850393703
21
-3.588439094488189
0
LINE
8
BLACK
6
CONTINUOUS
10
5.1050246850393703
20
-3.588439094488189
11
5.1050246850393703
21
-3.505761929133858
0
LINE
8
BLACK
6
CONTINUOUS
10
5.1050246850393703
20
-3.505761929133858
11
5.0223475196850389
21
-3.505761929133858
0
LINE
8
BLACK
6
CONTINUOUS
10
5.0223475196850389
20
-3.505761929133858
11
5.0193342519685036
21
-3.5051625590551181
0
LINE
8
BLACK
6
CONTINUOUS
10
5.0193342519685036
20
-3.5051625590551181
11
5.0167797637795273
21
-3.5034556692913386
0
LINE
8
BLACK
6
CONTINUOUS
10
5.0167797637795273
20
-3.5034556692913386
11
5.0150728740157478
21
-3.5009011811023623
0
LINE
8
BLACK
6
CONTINUOUS
10
5.0150728740157478
20
-3.5009011811023623
11
5.0144735039370074
21
-3.4978879133858265
0
LINE
8
BLACK
6
CONTINUOUS
10
5.0144735039370074
20
-3.4978879133858265
11
5.0144735039370074
21
-3.4732934251968501
0
LINE
8
BLACK
6
CONTINUOUS
10
5.0144735039370074
20
-3.4732934251968501
11
4.9436073622047241
21
-3.4732934251968501
0
LINE
8
BLACK
6
CONTINUOUS
10
4.9436073622047241
20
-3.4732934251968501
11
4.9436073622047241
21
-3.4978879133858265
0
LINE
8
BLACK
6
CONTINUOUS
10
4.9436073622047241
20
-3.4978879133858265
11
4.9430079921259837
21
-3.5009011811023623
0
LINE
8
BLACK
6
CONTINUOUS
10
4.9430079921259837
20
-3.5009011811023623
11
4.9413011023622042
21
-3.5034556692913386
0
LINE
8
BLACK
6
CONTINUOUS
10
4.9413011023622042
20
-3.5034556692913386
11
4.9387466141732279
21
-3.5051625590551181
0
LINE
8
BLACK
6
CONTINUOUS
10
4.9387466141732279
20
-3.5051625590551181
11
4.9357333464566926
21
-3.505761929133858
0
LINE
8
BLACK
6
CONTINUOUS
10
4.9357333464566926
20
-3.505761929133858
11
4.7861270472440944
21
-3.505761929133858
0
LINE
8
BLACK
6
CONTINUOUS
10
4.7861270472440944
20
-3.505761929133858
11
4.7831137795275591
21
-3.5051625590551181
0
LINE
8
BLACK
6
CONTINUOUS
10
4.7831137795275591
20
-3.5051625590551181
11
4.7805592913385828
21
-3.5034556692913386
0
LINE
8
BLACK
6
CONTINUOUS
10
4.7805592913385828
20
-3.5034556692913386
11
4.7788524015748033
21
-3.5009011811023623
0
LINE
8
BLACK
6
CONTINUOUS
10
4.7788524015748033
20
-3.5009011811023623
11
4.778253031496063
21
-3.4978879133858265
0
LINE
8
BLACK
6
CONTINUOUS
10
4.778253031496063
20
-3.4978879133858265
11
4.778253031496063
21
-3.4732934251968501
0
LINE
8
BLACK
6
CONTINUOUS
10
4.778253031496063
20
-3.4732934251968501
11
4.7073868897637796
21
-3.4732934251968501
0
LINE
8
BLACK
6
CONTINUOUS
10
4.7073868897637796
20
-3.4732934251968501
11
4.7073868897637796
21
-3.4978879133858265
0
LINE
8
BLACK
6
CONTINUOUS
10
4.7073868897637796
20
-3.4978879133858265
11
4.7067875196850393
21
-3.5009011811023623
0
LINE
8
BLACK
6
CONTINUOUS
10
4.7067875196850393
20
-3.5009011811023623
11
4.7050806299212597
21
-3.5034556692913386
0
LINE
8
BLACK
6
CONTINUOUS
10
4.7050806299212597
20
-3.5034556692913386
11
4.7025261417322834
21
-3.5051625590551181
0
LINE
8
BLACK
6
CONTINUOUS
10
4.7025261417322834
20
-3.5051625590551181
11
4.6995128740157481
21
-3.505761929133858
0
LINE
8
BLACK
6
CONTINUOUS
10
4.6995128740157481
20
-3.505761929133858
11
4.5499065748031491
21
-3.505761929133858
0
LINE
8
BLACK
6
CONTINUOUS
10
4.5499065748031491
20
-3.505761929133858
11
4.5468933070866138
21
-3.5051625590551181
0
LINE
8
BLACK
6
CONTINUOUS
10
4.5468933070866138
20
-3.5051625590551181
11
4.5443388188976375
21
-3.5034556692913386
0
LINE
8
BLACK
6
CONTINUOUS
10
4.5443388188976375
20
-3.5034556692913386
11
4.5426319291338579
21
-3.5009011811023623
0
LINE
8
BLACK
6
CONTINUOUS
10
4.5426319291338579
20
-3.5009011811023623
11
4.5420325590551176
21
-3.4978879133858265
0
LINE
8
BLACK
6
CONTINUOUS
10
4.5420325590551176
20
-3.4978879133858265
11
4.5420325590551176
21
-3.4732934251968501
0
LINE
8
BLACK
6
CONTINUOUS
10
4.5420325590551176
20
-3.4732934251968501
11
4.4711664173228343
21
-3.4732934251968501
0
LINE
8
BLACK
6
CONTINUOUS
10
4.4711664173228343
20
-3.4732934251968501
11
4.4711664173228343
21
-3.4978879133858265
0
LINE
8
BLACK
6
CONTINUOUS
10
4.4711664173228343
20
-3.4978879133858265
11
4.4705670472440948
21
-3.5009011811023623
0
LINE
8
BLACK
6
CONTINUOUS
10
4.4705670472440948
20
-3.5009011811023623
11
4.4688601574803153
21
-3.5034556692913386
0
LINE
8
BLACK
6
CONTINUOUS
10
4.4688601574803153
20
-3.5034556692913386
11
4.4663056692913381
21
-3.5051625590551181
0
LINE
8
BLACK
6
CONTINUOUS
10
4.4663056692913381
20
-3.5051625590551181
11
4.4632924015748028
21
-3.505761929133858
0
LINE
8
BLACK
6
CONTINUOUS
10
4.4632924015748028
20
-3.505761929133858
11
4.3136861023622046
21
-3.505761929133858
0
LINE
8
BLACK
6
CONTINUOUS
10
4.3136861023622046
20
-3.505761929133858
11
4.3106728346456693
21
-3.5051625590551181
0
LINE
8
BLACK
6
CONTINUOUS
10
4.3106728346456693
20
-3.5051625590551181
11
4.308118346456693
21
-3.5034556692913386
0
LINE
8
BLACK
6
CONTINUOUS
10
4.308118346456693
20
-3.5034556692913386
11
4.3064114566929135
21
-3.5009011811023623
0
LINE
8
BLACK
6
CONTINUOUS
10
4.3064114566929135
20
-3.5009011811023623
11
4.3058120866141731
21
-3.4978879133858265
0
LINE
8
BLACK
6
CONTINUOUS
10
4.3058120866141731
20
-3.4978879133858265
11
4.3058120866141731
21
-3.4732934251968501
0
LINE
8
BLACK
6
CONTINUOUS
10
4.3058120866141731
20
-3.4732934251968501
11
4.2349459448818898
21
-3.4732934251968501
0
LINE
8
BLACK
6
CONTINUOUS
10
4.2349459448818898
20
-3.4732934251968501
11
4.2349459448818898
21
-3.4978879133858265
0
LINE
8
BLACK
6
CONTINUOUS
10
4.2349459448818898
20
-3.4978879133858265
11
4.2343465748031495
21
-3.5009011811023623
0
LINE
8
BLACK
6
CONTINUOUS
10
4.2343465748031495
20
-3.5009011811023623
11
4.2326396850393699
21
-3.5034556692913386
0
LINE
8
BLACK
6
CONTINUOUS
10
4.2326396850393699
20
-3.5034556692913386
11
4.2300851968503936
21
-3.5051625590551181
0
LINE
8
BLACK
6
CONTINUOUS
10
4.2300851968503936
20
-3.5051625590551181
11
4.2270719291338583
21
-3.505761929133858
0
LINE
8
BLACK
6
CONTINUOUS
10
4.2270719291338583
20
-3.505761929133858
11
4.0774656299212602
21
-3.505761929133858
0
LINE
8
BLACK
6
CONTINUOUS
10
4.0774656299212602
20
-3.505761929133858
11
4.074452362204724
21
-3.5051625590551181
0
LINE
8
BLACK
6
CONTINUOUS
10
4.074452362204724
20
-3.5051625590551181
11
4.0718978740157477
21
-3.5034556692913386
0
LINE
8
BLACK
6
CONTINUOUS
10
4.0718978740157477
20
-3.5034556692913386
11
4.0701909842519681
21
-3.5009011811023623
0
LINE
8
BLACK
6
CONTINUOUS
10
4.0701909842519681
20
-3.5009011811023623
11
4.0695916141732287
21
-3.4978879133858265
0
LINE
8
BLACK
6
CONTINUOUS
10
4.0695916141732287
20
-3.4978879133858265
11
4.0695916141732287
21
-3.4732934251968501
0
LINE
8
BLACK
6
CONTINUOUS
10
4.0695916141732287
20
-3.4732934251968501
11
3.9987254724409449
21
-3.4732934251968501
0
LINE
8
BLACK
6
CONTINUOUS
10
3.9987254724409449
20
-3.4732934251968501
11
3.9987254724409449
21
-3.4978879133858265
0
LINE
8
BLACK
6
CONTINUOUS
10
3.9987254724409449
20
-3.4978879133858265
11
3.9981261023622046
21
-3.5009011811023623
0
LINE
8
BLACK
6
CONTINUOUS
10
3.9981261023622046
20
-3.5009011811023623
11
3.996419212598425
21
-3.5034556692913386
0
LINE
8
BLACK
6
CONTINUOUS
10
3.996419212598425
20
-3.5034556692913386
11
3.9938647244094487
21
-3.5051625590551181
0
LINE
8
BLACK
6
CONTINUOUS
10
3.9938647244094487
20
-3.5051625590551181
11
3.9908514566929134
21
-3.505761929133858
0
LINE
8
BLACK
6
CONTINUOUS
10
3.9908514566929134
20
-3.505761929133858
11
3.9081742913385824
21
-3.505761929133858
0
LINE
8
BLACK
6
CONTINUOUS
10
3.9081742913385824
20
-3.505761929133858
11
3.9081742913385824
21
-3.588439094488189
0
LINE
8
BLACK
6
CONTINUOUS
10
3.9081742913385824
20
-3.588439094488189
11
3.9075749212598425
21
-3.5914523622047243
0
LINE
8
BLACK
6
CONTINUOUS
10
3.9075749212598425
20
-3.5914523622047243
11
3.905868031496063
21
-3.5940068503937006
0
LINE
8
BLACK
6
CONTINUOUS
10
3.905868031496063
20
-3.5940068503937006
11
3.9033135433070867
21
-3.5957137401574801
0
LINE
8
BLACK
6
CONTINUOUS
10
3.9033135433070867
20
-3.5957137401574801
11
3.9003002755905509
21
-3.5963131102362205
0
LINE
8
BLACK
6
CONTINUOUS
10
3.9003002755905509
20
-3.5963131102362205
11
3.8655325590551182
21
-3.5963131102362205
0
LINE
8
BLACK
6
CONTINUOUS
10
3.8655325590551182
20
-3.5963131102362205
11
3.8655325590551182
21
-3.6671792519685038
0
LINE
8
BLACK
6
CONTINUOUS
10
3.8655325590551182
20
-3.6671792519685038
11
3.9003002755905509
21
-3.6671792519685038
0
LINE
8
BLACK
6
CONTINUOUS
10
3.9003002755905509
20
-3.6671792519685038
11
3.9033135433070867
21
-3.6677786220472441
0
LINE
8
BLACK
6
CONTINUOUS
10
3.9033135433070867
20
-3.6677786220472441
11
3.905868031496063
21
-3.6694855118110237
0
LINE
8
BLACK
6
CONTINUOUS
10
3.905868031496063
20
-3.6694855118110237
11
3.9075749212598425
21
-3.67204
0
LINE
8
BLACK
6
CONTINUOUS
10
3.9075749212598425
20
-3.67204
11
3.9081742913385824
21
-3.6750532677165353
0
LINE
8
BLACK
6
CONTINUOUS
10
3.9081742913385824
20
-3.6750532677165353
11
3.9081742913385824
21
-3.8246595669291339
0
LINE
8
BLACK
6
CONTINUOUS
10
3.9081742913385824
20
-3.8246595669291339
11
3.9075749212598425
21
-3.8276728346456692
0
LINE
8
BLACK
6
CONTINUOUS
10
3.9075749212598425
20
-3.8276728346456692
11
3.905868031496063
21
-3.8302273228346455
0
LINE
8
BLACK
6
CONTINUOUS
10
3.905868031496063
20
-3.8302273228346455
11
3.9033135433070867
21
-3.831934212598425
0
LINE
8
BLACK
6
CONTINUOUS
10
3.9033135433070867
20
-3.831934212598425
11
3.9003002755905509
21
-3.8325335826771654
0
LINE
8
BLACK
6
CONTINUOUS
10
3.9003002755905509
20
-3.8325335826771654
11
3.8655325590551182
21
-3.8325335826771654
0
LINE
8
BLACK
6
CONTINUOUS
10
3.8655325590551182
20
-3.8325335826771654
11
3.8655325590551182
21
-3.9033997244094487
0
LINE
8
BLACK
6
CONTINUOUS
10
3.8655325590551182
20
-3.9033997244094487
11
3.9003002755905509
21
-3.9033997244094487
0
LINE
8
BLACK
6
CONTINUOUS
10
3.9003002755905509
20
-3.9033997244094487
11
3.9033135433070867
21
-3.903999094488189
0
LINE
8
BLACK
6
CONTINUOUS
10
3.9033135433070867
20
-3.903999094488189
11
3.905868031496063
21
-3.9057059842519686
0
LINE
8
BLACK
6
CONTINUOUS
10
3.905868031496063
20
-3.9057059842519686
11
3.9075749212598425
21
-3.9082604724409449
0
LINE
8
BLACK
6
CONTINUOUS
10
3.9075749212598425
20
-3.9082604724409449
11
3.9081742913385824
21
-3.9112737401574802
0
LINE
8
BLACK
6
CONTINUOUS
10
3.9081742913385824
20
-3.9112737401574802
11
3.9081742913385824
21
-4.0608800393700788
0
LINE
8
BLACK
6
CONTINUOUS
10
3.9081742913385824
20
-4.0608800393700788
11
3.9075749212598425
21
-4.0638933070866141
0
LINE
8
BLACK
6
CONTINUOUS
10
3.9075749212598425
20
-4.0638933070866141
11
3.905868031496063
21
-4.0664477952755904
0
LINE
8
BLACK
6
CONTINUOUS
10
3.905868031496063
20
-4.0664477952755904
11
3.9033135433070867
21
-4.0681546850393699
0
LINE
8
BLACK
6
CONTINUOUS
10
3.9033135433070867
20
-4.0681546850393699
11
3.9003002755905509
21
-4.0687540551181103
0
LINE
8
BLACK
6
CONTINUOUS
10
3.9003002755905509
20
-4.0687540551181103
11
3.8655325590551182
21
-4.0687540551181103
0
LINE
8
BLACK
6
CONTINUOUS
10
3.8655325590551182
20
-4.0687540551181103
11
3.8655325590551182
21
-4.1396201968503936
0
LINE
8
BLACK
6
CONTINUOUS
10
3.8655325590551182
20
-4.1396201968503936
11
3.9003002755905509
21
-4.1396201968503936
0
LINE
8
BLACK
6
CONTINUOUS
10
3.9003002755905509
20
-4.1396201968503936
11
3.9033135433070867
21
-4.140219566929134
0
LINE
8
BLACK
6
CONTINUOUS
10
3.9033135433070867
20
-4.140219566929134
11
3.905868031496063
21
-4.1419264566929135
0
LINE
8
BLACK
6
CONTINUOUS
10
3.905868031496063
20
-4.1419264566929135
11
3.9075749212598425
21
-4.1444809448818898
0
LINE
8
BLACK
6
CONTINUOUS
10
3.9075749212598425
20
-4.1444809448818898
11
3.9081742913385824
21
-4.1474942125984251
0
LINE
8
BLACK
6
CONTINUOUS
10
3.9081742913385824
20
-4.1474942125984251
11
3.9081742913385824
21
-4.2971005118110233
0
LINE
8
BLACK
6
CONTINUOUS
10
3.9081742913385824
20
-4.2971005118110233
11
3.9075749212598425
21
-4.3001137795275586
0
LINE
8
BLACK
6
CONTINUOUS
10
3.9075749212598425
20
-4.3001137795275586
11
3.905868031496063
21
-4.3026682677165358
0
LINE
8
BLACK
6
CONTINUOUS
10
3.905868031496063
20
-4.3026682677165358
11
3.9033135433070867
21
-4.3043751574803153
0
LINE
8
BLACK
6
CONTINUOUS
10
3.9033135433070867
20
-4.3043751574803153
11
3.9003002755905509
21
-4.3049745275590547
0
LINE
8
BLACK
6
CONTINUOUS
10
3.9003002755905509
20
-4.3049745275590547
11
3.8655325590551182
21
-4.3049745275590547
0
LINE
8
BLACK
6
CONTINUOUS
10
3.8655325590551182
20
-4.3049745275590547
11
3.8655325590551182
21
-4.3758406692913381
0
LINE
8
BLACK
6
CONTINUOUS
10
3.8655325590551182
20
-4.3758406692913381
11
3.9003002755905509
21
-4.3758406692913381
0
LINE
8
BLACK
6
CONTINUOUS
10
3.9003002755905509
20
-4.3758406692913381
11
3.9033135433070867
21
-4.3764400393700784
0
LINE
8
BLACK
6
CONTINUOUS
10
3.9033135433070867
20
-4.3764400393700784
11
3.905868031496063
21
-4.3781469291338579
0
LINE
8
BLACK
6
CONTINUOUS
10
3.905868031496063
20
-4.3781469291338579
11
3.9075749212598425
21
-4.3807014173228342
0
LINE
8
BLACK
6
CONTINUOUS
10
3.9075749212598425
20
-4.3807014173228342
11
3.9081742913385824
21
-4.3837146850393696
0
LINE
8
BLACK
6
CONTINUOUS
10
3.9081742913385824
20
-4.3837146850393696
11
3.9081742913385824
21
-4.5333209842519686
0
LINE
8
BLACK
6
CONTINUOUS
10
3.9081742913385824
20
-4.5333209842519686
11
3.9075749212598425
21
-4.5363342519685039
0
LINE
8
BLACK
6
CONTINUOUS
10
3.9075749212598425
20
-4.5363342519685039
11
3.905868031496063
21
-4.5388887401574802
0
LINE
8
BLACK
6
CONTINUOUS
10
3.905868031496063
20
-4.5388887401574802
11
3.9033135433070867
21
-4.5405956299212598
0
LINE
8
BLACK
6
CONTINUOUS
10
3.9033135433070867
20
-4.5405956299212598
11
3.9003002755905509
21
-4.5411950000000001
0
LINE
8
BLACK
6
CONTINUOUS
10
3.9003002755905509
20
-4.5411950000000001
11
3.8655325590551182
21
-4.5411950000000001
0
LINE
8
BLACK
6
CONTINUOUS
10
3.8655325590551182
20
-4.5411950000000001
11
3.8655325590551182
21
-4.603687165354331
0
LINE
8
BLACK
6
CONTINUOUS
10
3.8655325590551182
20
-4.603687165354331
11
3.8656961417322835
21
-4.6038507480314959
0
LINE
8
BLACK
6
CONTINUOUS
10
3.8656961417322835
20
-4.6038507480314959
11
3.8678207874015746
21
-4.6044746062992123
0
LINE
8
BLACK
6
CONTINUOUS
10
3.8678207874015746
20
-4.6044746062992123
11
3.8696512204724409
21
-4.6065870472440942
0
LINE
8
BLACK
6
CONTINUOUS
10
3.8696512204724409
20
-4.6065870472440942
11
3.8700994881889761
21
-4.6086477559055119
0
LINE
8
BLACK
6
CONTINUOUS
10
3.8700994881889761
20
-4.6086477559055119
11
3.8700994881889761
21
-4.6120611417322834
0
LINE
8
BLACK
6
CONTINUOUS
10
3.8700994881889761
20
-4.6120611417322834
11
3.9003002755905509
21
-4.6120611417322834
0
LINE
8
BLACK
6
CONTINUOUS
10
3.9003002755905509
20
-4.6120611417322834
11
3.9033135433070867
21
-4.6126605118110238
0
LINE
8
BLACK
6
CONTINUOUS
10
3.9033135433070867
20
-4.6126605118110238
11
3.905868031496063
21
-4.6143674015748033
0
LINE
8
BLACK
6
CONTINUOUS
10
3.905868031496063
20
-4.6143674015748033
11
3.9075749212598425
21
-4.6169218897637796
0
LINE
8
BLACK
6
CONTINUOUS
10
3.9075749212598425
20
-4.6169218897637796
11
3.9081742913385824
21
-4.6199351574803149
0
LINE
8
BLACK
6
CONTINUOUS
10
3.9081742913385824
20
-4.6199351574803149
11
3.9081742913385824
21
-4.7026123228346455
0
LINE
8
BLACK
6
CONTINUOUS
10
3.9081742913385824
20
-4.7026123228346455
11
3.9908514566929134
21
-4.7026123228346455
0
LINE
8
BLACK
6
CONTINUOUS
10
3.9908514566929134
20
-4.7026123228346455
11
3.9938647244094487
21
-4.7032116929133858
0
LINE
8
BLACK
6
CONTINUOUS
10
3.9938647244094487
20
-4.7032116929133858
11
3.996419212598425
21
-4.7049185826771653
0
LINE
8
BLACK
6
CONTINUOUS
10
3.996419212598425
20
-4.7049185826771653
11
3.9981261023622046
21
-4.7074730708661416
0
LINE
8
BLACK
6
CONTINUOUS
10
3.9981261023622046
20
-4.7074730708661416
11
3.9987254724409449
21
-4.710486338582677
0
LINE
8
BLACK
6
CONTINUOUS
10
3.9987254724409449
20
-4.710486338582677
11
3.9987254724409449
21
-4.7429784645669288
0
LINE
8
BLACK
6
CONTINUOUS
10
3.9987254724409449
20
-4.7429784645669288
11
4.0695916141732287
21
-4.7429784645669288
0
LINE
8
BLACK
6
CONTINUOUS
10
4.0695916141732287
20
-4.7429784645669288
11
4.0695916141732287
21
-4.710486338582677
0
LINE
8
BLACK
6
CONTINUOUS
10
4.0695916141732287
20
-4.710486338582677
11
4.0701909842519681
21
-4.7074730708661416
0
LINE
8
BLACK
6
CONTINUOUS
10
4.0701909842519681
20
-4.7074730708661416
11
4.0718978740157477
21
-4.7049185826771653
0
LINE
8
BLACK
6
CONTINUOUS
10
4.0718978740157477
20
-4.7049185826771653
11
4.074452362204724
21
-4.7032116929133858
0
LINE
8
BLACK
6
CONTINUOUS
10
4.074452362204724
20
-4.7032116929133858
11
4.0774656299212602
21
-4.7026123228346455
0
LINE
8
BLACK
6
CONTINUOUS
10
4.0774656299212602
20
-4.7026123228346455
11
4.2270719291338583
21
-4.7026123228346455
0
LINE
8
BLACK
6
CONTINUOUS
10
4.2270719291338583
20
-4.7026123228346455
11
4.2300851968503936
21
-4.7032116929133858
0
LINE
8
BLACK
6
CONTINUOUS
10
4.2300851968503936
20
-4.7032116929133858
11
4.2326396850393699
21
-4.7049185826771653
0
LINE
8
BLACK
6
CONTINUOUS
10
4.2326396850393699
20
-4.7049185826771653
11
4.2343465748031495
21
-4.7074730708661416
0
LINE
8
BLACK
6
CONTINUOUS
10
4.2343465748031495
20
-4.7074730708661416
11
4.2349459448818898
21
-4.710486338582677
0
LINE
8
BLACK
6
CONTINUOUS
10
4.2349459448818898
20
-4.710486338582677
11
4.2349459448818898
21
-4.7429784645669288
0
LINE
8
BLACK
6
CONTINUOUS
10
4.2349459448818898
20
-4.7429784645669288
11
4.3058120866141731
21
-4.7429784645669288
0
LINE
8
BLACK
6
CONTINUOUS
10
4.3058120866141731
20
-4.7429784645669288
11
4.3058120866141731
21
-4.710486338582677
0
LINE
8
BLACK
6
CONTINUOUS
10
4.3058120866141731
20
-4.710486338582677
11
4.3064114566929135
21
-4.7074730708661416
0
LINE
8
BLACK
6
CONTINUOUS
10
4.3064114566929135
20
-4.7074730708661416
11
4.308118346456693
21
-4.7049185826771653
0
LINE
8
BLACK
6
CONTINUOUS
10
4.308118346456693
20
-4.7049185826771653
11
4.3106728346456693
21
-4.7032116929133858
0
LINE
8
BLACK
6
CONTINUOUS
10
4.3106728346456693
20
-4.7032116929133858
11
4.3136861023622046
21
-4.7026123228346455
0
LINE
8
BLACK
6
CONTINUOUS
10
4.3136861023622046
20
-4.7026123228346455
11
4.4632924015748028
21
-4.7026123228346455
0
LINE
8
BLACK
6
CONTINUOUS
10
4.4632924015748028
20
-4.7026123228346455
11
4.4663056692913381
21
-4.7032116929133858
0
LINE
8
BLACK
6
CONTINUOUS
10
4.4663056692913381
20
-4.7032116929133858
11
4.4688601574803153
21
-4.7049185826771653
0
LINE
8
BLACK
6
CONTINUOUS
10
4.4688601574803153
20
-4.7049185826771653
11
4.4705670472440948
21
-4.7074730708661416
0
LINE
8
BLACK
6
CONTINUOUS
10
4.4705670472440948
20
-4.7074730708661416
11
4.4711664173228343
21
-4.710486338582677
0
LINE
8
BLACK
6
CONTINUOUS
10
4.4711664173228343
20
-4.710486338582677
11
4.4711664173228343
21
-4.7429784645669288
0
LINE
8
BLACK
6
CONTINUOUS
10
4.4711664173228343
20
-4.7429784645669288
11
4.5420325590551176
21
-4.7429784645669288
0
LINE
8
BLACK
6
CONTINUOUS
10
4.5420325590551176
20
-4.7429784645669288
11
4.5420325590551176
21
-4.710486338582677
0
LINE
8
BLACK
6
CONTINUOUS
10
4.5420325590551176
20
-4.710486338582677
11
4.5426319291338579
21
-4.7074730708661416
0
LINE
8
BLACK
6
CONTINUOUS
10
4.5426319291338579
20
-4.7074730708661416
11
4.5443388188976375
21
-4.7049185826771653
0
LINE
8
BLACK
6
CONTINUOUS
10
4.5443388188976375
20
-4.7049185826771653
11
4.5468933070866138
21
-4.7032116929133858
0
LINE
8
BLACK
6
CONTINUOUS
10
4.5468933070866138
20
-4.7032116929133858
11
4.5499065748031491
21
-4.7026123228346455
0
LINE
8
BLACK
6
CONTINUOUS
10
4.5499065748031491
20
-4.7026123228346455
11
4.6995128740157481
21
-4.7026123228346455
0
LINE
8
BLACK
6
CONTINUOUS
10
4.6995128740157481
20
-4.7026123228346455
11
4.7025261417322834
21
-4.7032116929133858
0
LINE
8
BLACK
6
CONTINUOUS
10
4.7025261417322834
20
-4.7032116929133858
11
4.7050806299212597
21
-4.7049185826771653
0
LINE
8
BLACK
6
CONTINUOUS
10
4.7050806299212597
20
-4.7049185826771653
11
4.7067875196850393
21
-4.7074730708661416
0
LINE
8
BLACK
6
CONTINUOUS
10
4.7067875196850393
20
-4.7074730708661416
11
4.7073868897637796
21
-4.710486338582677
0
LINE
8
BLACK
6
CONTINUOUS
10
4.7073868897637796
20
-4.710486338582677
11
4.7073868897637796
21
-4.7429784645669288
0
LINE
8
BLACK
6
CONTINUOUS
10
4.7073868897637796
20
-4.7429784645669288
11
4.778253031496063
21
-4.7429784645669288
0
LINE
8
BLACK
6
CONTINUOUS
10
4.778253031496063
20
-4.7429784645669288
11
4.778253031496063
21
-4.710486338582677
0
LINE
8
BLACK
6
CONTINUOUS
10
4.778253031496063
20
-4.710486338582677
11
4.7788524015748033
21
-4.7074730708661416
0
LINE
8
BLACK
6
CONTINUOUS
10
4.7788524015748033
20
-4.7074730708661416
11
4.7805592913385828
21
-4.7049185826771653
0
LINE
8
BLACK
6
CONTINUOUS
10
4.7805592913385828
20
-4.7049185826771653
11
4.7831137795275591
21
-4.7032116929133858
0
LINE
8
BLACK
6
CONTINUOUS
10
4.7831137795275591
20
-4.7032116929133858
11
4.7861270472440944
21
-4.7026123228346455
0
LINE
8
BLACK
6
CONTINUOUS
10
4.7861270472440944
20
-4.7026123228346455
11
4.9357333464566926
21
-4.7026123228346455
0
LINE
8
BLACK
6
CONTINUOUS
10
4.9357333464566926
20
-4.7026123228346455
11
4.9387466141732279
21
-4.7032116929133858
0
LINE
8
BLACK
6
CONTINUOUS
10
4.9387466141732279
20
-4.7032116929133858
11
4.9413011023622042
21
-4.7049185826771653
0
LINE
8
BLACK
6
CONTINUOUS
10
4.9413011023622042
20
-4.7049185826771653
11
4.9430079921259837
21
-4.7074730708661416
0
LINE
8
BLACK
6
CONTINUOUS
10
4.9430079921259837
20
-4.7074730708661416
11
4.9436073622047241
21
-4.710486338582677
0
LINE
8
BLACK
6
CONTINUOUS
10
4.9436073622047241
20
-4.710486338582677
11
4.9436073622047241
21
-4.7429784645669288
0
LINE
8
BLACK
6
CONTINUOUS
10
4.9436073622047241
20
-4.7429784645669288
11
5.0144735039370074
21
-4.7429784645669288
0
LINE
8
BLACK
6
CONTINUOUS
10
5.0144735039370074
20
-4.7429784645669288
11
5.0144735039370074
21
-4.710486338582677
0
LINE
8
BLACK
6
CONTINUOUS
10
5.0144735039370074
20
-4.710486338582677
11
5.0150728740157478
21
-4.7074730708661416
0
LINE
8
BLACK
6
CONTINUOUS
10
5.0150728740157478
20
-4.7074730708661416
11
5.0167797637795273
21
-4.7049185826771653
0
LINE
8
BLACK
6
CONTINUOUS
10
5.0167797637795273
20
-4.7049185826771653
11
5.0193342519685036
21
-4.7032116929133858
0
LINE
8
BLACK
6
CONTINUOUS
10
5.0193342519685036
20
-4.7032116929133858
11
5.0223475196850389
21
-4.7026123228346455
0
LINE
8
BLACK
6
CONTINUOUS
10
5.0223475196850389
20
-4.7026123228346455
11
5.1050246850393703
21
-4.7026123228346455
0
LINE
8
BLACK
6
CONTINUOUS
10
5.1050246850393703
20
-4.7026123228346455
11
5.1050246850393703
21
-4.6199351574803149
0
LINE
8
BLACK
6
CONTINUOUS
10
5.1050246850393703
20
-4.6199351574803149
11
5.1056240551181098
21
-4.6169218897637796
0
LINE
8
BLACK
6
CONTINUOUS
10
5.1056240551181098
20
-4.6169218897637796
11
5.1073309448818893
21
-4.6143674015748033
0
LINE
8
BLACK
6
CONTINUOUS
10
5.1073309448818893
20
-4.6143674015748033
11
5.1098854330708656
21
-4.6126605118110238
0
LINE
8
BLACK
6
CONTINUOUS
10
5.1098854330708656
20
-4.6126605118110238
11
5.1128987007874018
21
-4.6120611417322834
0
LINE
8
BLACK
6
CONTINUOUS
10
5.1128987007874018
20
-4.6120611417322834
11
5.1400994881889766
21
-4.6120611417322834
0
LINE
8
BLACK
6
CONTINUOUS
10
5.1400994881889766
20
-4.6120611417322834
11
5.1400994881889766
21
-4.5411950000000001
0
LINE
8
BLACK
6
CONTINUOUS
10
5.1400994881889766
20
-4.5411950000000001
11
5.1128987007874018
21
-4.5411950000000001
0
LINE
8
BLACK
6
CONTINUOUS
10
5.1128987007874018
20
-4.5411950000000001
11
5.1098854330708656
21
-4.5405956299212598
0
LINE
8
BLACK
6
CONTINUOUS
10
5.1098854330708656
20
-4.5405956299212598
11
5.1073309448818893
21
-4.5388887401574802
0
LINE
8
BLACK
6
CONTINUOUS
10
5.1073309448818893
20
-4.5388887401574802
11
5.1056240551181098
21
-4.5363342519685039
0
LINE
8
BLACK
6
CONTINUOUS
10
5.1056240551181098
20
-4.5363342519685039
11
5.1050246850393703
21
-4.5333209842519686
0
LINE
8
BLACK
6
CONTINUOUS
10
5.1050246850393703
20
-4.5333209842519686
11
5.1050246850393703
21
-4.3837146850393696
0
LINE
8
BLACK
6
CONTINUOUS
10
5.1050246850393703
20
-4.3837146850393696
11
5.1056240551181098
21
-4.3807014173228342
0
LINE
8
BLACK
6
CONTINUOUS
10
5.1056240551181098
20
-4.3807014173228342
11
5.1073309448818893
21
-4.3781469291338579
0
LINE
8
BLACK
6
CONTINUOUS
10
5.1073309448818893
20
-4.3781469291338579
11
5.1098854330708656
21
-4.3764400393700784
0
LINE
8
BLACK
6
CONTINUOUS
10
5.1098854330708656
20
-4.3764400393700784
11
5.1128987007874018
21
-4.3758406692913381
0
LINE
8
BLACK
6
CONTINUOUS
10
5.1128987007874018
20
-4.3758406692913381
11
5.1522687795275592
21
-4.3758406692913381
0
LINE
8
BLACK
6
CONTINUOUS
10
5.1522687795275592
20
-4.3758406692913381
11
5.1552820472440946
21
-4.3764400393700784
0
LINE
8
BLACK
6
CONTINUOUS
10
5.1552820472440946
20
-4.3764400393700784
11
5.1578365354330709
21
-4.3781469291338579
0
LINE
8
BLACK
6
CONTINUOUS
10
5.1578365354330709
20
-4.3781469291338579
11
5.1595434251968504
21
-4.3807014173228342
0
LINE
8
BLACK
6
CONTINUOUS
10
5.1595434251968504
20
-4.3807014173228342
11
5.1601427952755907
21
-4.3837146850393696
0
LINE
8
BLACK
6
CONTINUOUS
10
5.1601427952755907
20
-4.3837146850393696
11
5.1601427952755907
21
-4.4836871259842521
0
LINE
8
BLACK
6
CONTINUOUS
10
5.1601427952755907
20
-4.4836871259842521
11
5.1665561811023624
21
-4.4836871259842521
0
LINE
8
BLACK
6
CONTINUOUS
10
5.1665561811023624
20
-4.4836871259842521
11
5.1665561811023624
21
-4.4699863779527558
0
LINE
8
BLACK
6
CONTINUOUS
10
5.1665561811023624
20
-4.4699863779527558
11
5.1665561811023624
21
-4.3794351968503937
0
LINE
8
BLACK
6
CONTINUOUS
10
5.1665561811023624
20
-4.3794351968503937
11
5.1671555511811018
21
-4.3764219291338584
0
LINE
8
BLACK
6
CONTINUOUS
10
5.1671555511811018
20
-4.3764219291338584
11
5.1688624409448813
21
-4.3738674409448821
0
LINE
8
BLACK
6
CONTINUOUS
10
5.1688624409448813
20
-4.3738674409448821
11
5.1714169291338585
21
-4.3721605511811026
0
LINE
8
BLACK
6
CONTINUOUS
10
5.1714169291338585
20
-4.3721605511811026
11
5.1744301968503938
21
-4.3715611811023622
0
LINE
8
BLACK
6
CONTINUOUS
10
5.1744301968503938
20
-4.3715611811023622
11
5.2138002755905513
21
-4.3715611811023622
0
LINE
8
BLACK
6
CONTINUOUS
10
5.2138002755905513
20
-4.3715611811023622
11
5.2168135433070866
21
-4.3721605511811026
0
LINE
8
BLACK
6
CONTINUOUS
10
5.2168135433070866
20
-4.3721605511811026
11
5.2193680314960629
21
-4.3738674409448821
0
LINE
8
BLACK
6
CONTINUOUS
10
5.2193680314960629
20
-4.3738674409448821
11
5.2210749212598424
21
-4.3764219291338584
0
LINE
8
BLACK
6
CONTINUOUS
10
5.2210749212598424
20
-4.3764219291338584
11
5.2216742913385827
21
-4.3794351968503937
0
LINE
8
BLACK
6
CONTINUOUS
10
5.2216742913385827
20
-4.3794351968503937
11
5.2216742913385827
21
-4.4621123622047243
0
LINE
8
BLACK
6
CONTINUOUS
10
5.2216742913385827
20
-4.4621123622047243
11
5.3043514566929133
21
-4.4621123622047243
0
LINE
8
BLACK
6
CONTINUOUS
10
5.3043514566929133
20
-4.4621123622047243
11
5.3073647244094486
21
-4.4627117322834646
0
LINE
8
BLACK
6
CONTINUOUS
10
5.3073647244094486
20
-4.4627117322834646
11
5.3099192125984249
21
-4.4644186220472442
0
LINE
8
BLACK
6
CONTINUOUS
10
5.3099192125984249
20
-4.4644186220472442
11
5.3116261023622044
21
-4.4669731102362205
0
LINE
8
BLACK
6
CONTINUOUS
10
5.3116261023622044
20
-4.4669731102362205
11
5.3122254724409448
21
-4.4699863779527558
0
LINE
8
BLACK
6
CONTINUOUS
10
5.3122254724409448
20
-4.4699863779527558
11
5.3122254724409448
21
-4.4836871259842521
0
LINE
8
BLACK
6
CONTINUOUS
10
5.3122254724409448
20
-4.4836871259842521
11
5.3830916141732281
21
-4.4836871259842521
0
LINE
8
BLACK
6
CONTINUOUS
10
5.3830916141732281
20
-4.4836871259842521
11
5.3830916141732281
21
-4.4699863779527558
0
LINE
8
BLACK
6
CONTINUOUS
10
5.3830916141732281
20
-4.4699863779527558
11
5.3836909842519685
21
-4.4669731102362205
0
LINE
8
BLACK
6
CONTINUOUS
10
5.3836909842519685
20
-4.4669731102362205
11
5.385397874015748
21
-4.4644186220472442
0
LINE
8
BLACK
6
CONTINUOUS
10
5.385397874015748
20
-4.4644186220472442
11
5.3879523622047243
21
-4.4627117322834646
0
LINE
8
BLACK
6
CONTINUOUS
10
5.3879523622047243
20
-4.4627117322834646
11
5.3909656299212596
21
-4.4621123622047243
0
LINE
8
BLACK
6
CONTINUOUS
10
5.3909656299212596
20
-4.4621123622047243
11
5.5405719291338578
21
-4.4621123622047243
0
LINE
8
BLACK
6
CONTINUOUS
10
5.5405719291338578
20
-4.4621123622047243
11
5.543585196850394
21
-4.4627117322834646
0
LINE
8
BLACK
6
CONTINUOUS
10
5.543585196850394
20
-4.4627117322834646
11
5.5461396850393703
21
-4.4644186220472442
0
LINE
8
BLACK
6
CONTINUOUS
10
5.5461396850393703
20
-4.4644186220472442
11
5.5478465748031498
21
-4.4669731102362205
0
LINE
8
BLACK
6
CONTINUOUS
10
5.5478465748031498
20
-4.4669731102362205
11
5.5484459448818892
21
-4.4699863779527558
0
LINE
8
BLACK
6
CONTINUOUS
10
5.5484459448818892
20
-4.4699863779527558
11
5.5484459448818892
21
-4.4836871259842521
0
LINE
8
BLACK
6
CONTINUOUS
10
5.5484459448818892
20
-4.4836871259842521
11
5.6193120866141735
21
-4.4836871259842521
0
LINE
8
BLACK
6
CONTINUOUS
10
5.6193120866141735
20
-4.4836871259842521
11
5.6193120866141735
21
-4.4699863779527558
0
LINE
8
BLACK
6
CONTINUOUS
10
5.6193120866141735
20
-4.4699863779527558
11
5.6199114566929129
21
-4.4669731102362205
0
LINE
8
BLACK
6
CONTINUOUS
10
5.6199114566929129
20
-4.4669731102362205
11
5.6216183464566924
21
-4.4644186220472442
0
LINE
8
BLACK
6
CONTINUOUS
10
5.6216183464566924
20
-4.4644186220472442
11
5.6241728346456688
21
-4.4627117322834646
0
LINE
8
BLACK
6
CONTINUOUS
10
5.6241728346456688
20
-4.4627117322834646
11
5.627186102362205
21
-4.4621123622047243
0
LINE
8
BLACK
6
CONTINUOUS
10
5.627186102362205
20
-4.4621123622047243
11
5.7767924015748031
21
-4.4621123622047243
0
LINE
8
BLACK
6
CONTINUOUS
10
5.7767924015748031
20
-4.4621123622047243
11
5.7798056692913384
21
-4.4627117322834646
0
LINE
8
BLACK
6
CONTINUOUS
10
5.7798056692913384
20
-4.4627117322834646
11
5.7823601574803147
21
-4.4644186220472442
0
LINE
8
BLACK
6
CONTINUOUS
10
5.7823601574803147
20
-4.4644186220472442
11
5.7840670472440943
21
-4.4669731102362205
0
LINE
8
BLACK
6
CONTINUOUS
10
5.7840670472440943
20
-4.4669731102362205
11
5.7846664173228346
21
-4.4699863779527558
0
LINE
8
BLACK
6
CONTINUOUS
10
5.7846664173228346
20
-4.4699863779527558
11
5.7846664173228346
21
-4.4836871259842521
0
LINE
8
BLACK
6
CONTINUOUS
10
5.7846664173228346
20
-4.4836871259842521
11
5.8555325590551179
21
-4.4836871259842521
0
LINE
8
BLACK
6
CONTINUOUS
10
5.8555325590551179
20
-4.4836871259842521
11
5.8555325590551179
21
-4.4699863779527558
0
LINE
8
BLACK
6
CONTINUOUS
10
5.8555325590551179
20
-4.4699863779527558
11
5.8561319291338583
21
-4.4669731102362205
0
LINE
8
BLACK
6
CONTINUOUS
10
5.8561319291338583
20
-4.4669731102362205
11
5.8578388188976378
21
-4.4644186220472442
0
LINE
8
BLACK
6
CONTINUOUS
10
5.8578388188976378
20
-4.4644186220472442
11
5.8603933070866141
21
-4.4627117322834646
0
LINE
8
BLACK
6
CONTINUOUS
10
5.8603933070866141
20
-4.4627117322834646
11
5.8634065748031494
21
-4.4621123622047243
0
LINE
8
BLACK
6
CONTINUOUS
10
5.8634065748031494
20
-4.4621123622047243
11
6.0130128740157476
21
-4.4621123622047243
0
LINE
8
BLACK
6
CONTINUOUS
10
6.0130128740157476
20
-4.4621123622047243
11
6.0160261417322829
21
-4.4627117322834646
0
LINE
8
BLACK
6
CONTINUOUS
10
6.0160261417322829
20
-4.4627117322834646
11
6.0185806299212601
21
-4.4644186220472442
0
LINE
8
BLACK
6
CONTINUOUS
10
6.0185806299212601
20
-4.4644186220472442
11
6.0202875196850396
21
-4.4669731102362205
0
LINE
8
BLACK
6
CONTINUOUS
10
6.0202875196850396
20
-4.4669731102362205
11
6.0208868897637791
21
-4.4699863779527558
0
LINE
8
BLACK
6
CONTINUOUS
10
6.0208868897637791
20
-4.4699863779527558
11
6.0208868897637791
21
-4.4836871259842521
0
LINE
8
BLACK
6
CONTINUOUS
10
6.0208868897637791
20
-4.4836871259842521
11
6.0917530314960633
21
-4.4836871259842521
0
LINE
8
BLACK
6
CONTINUOUS
10
6.0917530314960633
20
-4.4836871259842521
11
6.0917530314960633
21
-4.4699863779527558
0
LINE
8
BLACK
6
CONTINUOUS
10
6.0917530314960633
20
-4.4699863779527558
11
6.0923524015748027
21
-4.4669731102362205
0
LINE
8
BLACK
6
CONTINUOUS
10
6.0923524015748027
20
-4.4669731102362205
11
6.0940592913385823
21
-4.4644186220472442
0
LINE
8
BLACK
6
CONTINUOUS
10
6.0940592913385823
20
-4.4644186220472442
11
6.0966137795275586
21
-4.4627117322834646
0
LINE
8
BLACK
6
CONTINUOUS
10
6.0966137795275586
20
-4.4627117322834646
11
6.0996270472440948
21
-4.4621123622047243
0
LINE
8
BLACK
6
CONTINUOUS
10
6.0996270472440948
20
-4.4621123622047243
11
6.2492333464566929
21
-4.4621123622047243
0
LINE
8
BLACK
6
CONTINUOUS
10
6.2492333464566929
20
-4.4621123622047243
11
6.2522466141732282
21
-4.4627117322834646
0
LINE
8
BLACK
6
CONTINUOUS
10
6.2522466141732282
20
-4.4627117322834646
11
6.2548011023622045
21
-4.4644186220472442
0
LINE
8
BLACK
6
CONTINUOUS
10
6.2548011023622045
20
-4.4644186220472442
11
6.2565079921259841
21
-4.4669731102362205
0
LINE
8
BLACK
6
CONTINUOUS
10
6.2565079921259841
20
-4.4669731102362205
11
6.2571073622047244
21
-4.4699863779527558
0
LINE
8
BLACK
6
CONTINUOUS
10
6.2571073622047244
20
-4.4699863779527558
11
6.2571073622047244
21
-4.4836871259842521
0
LINE
8
BLACK
6
CONTINUOUS
10
6.2571073622047244
20
-4.4836871259842521
11
6.3279735039370077
21
-4.4836871259842521
0
LINE
8
BLACK
6
CONTINUOUS
10
6.3279735039370077
20
-4.4836871259842521
11
6.3279735039370077
21
-4.4699863779527558
0
LINE
8
BLACK
6
CONTINUOUS
10
6.3279735039370077
20
-4.4699863779527558
11
6.3285728740157481
21
-4.4669731102362205
0
LINE
8
BLACK
6
CONTINUOUS
10
6.3285728740157481
20
-4.4669731102362205
11
6.3302797637795276
21
-4.4644186220472442
0
LINE
8
BLACK
6
CONTINUOUS
10
6.3302797637795276
20
-4.4644186220472442
11
6.3328342519685039
21
-4.4627117322834646
0
LINE
8
BLACK
6
CONTINUOUS
10
6.3328342519685039
20
-4.4627117322834646
11
6.3358475196850392
21
-4.4621123622047243
0
LINE
8
BLACK
6
CONTINUOUS
10
6.3358475196850392
20
-4.4621123622047243
11
6.4185246850393698
21
-4.4621123622047243
0
LINE
8
BLACK
6
CONTINUOUS
10
6.4185246850393698
20
-4.4621123622047243
11
6.4185246850393698
21
-4.3794351968503937
0
LINE
8
BLACK
6
CONTINUOUS
10
6.4185246850393698
20
-4.3794351968503937
11
6.4191240551181101
21
-4.3764219291338584
0
LINE
8
BLACK
6
CONTINUOUS
10
6.4191240551181101
20
-4.3764219291338584
11
6.4208309448818897
21
-4.3738674409448821
0
LINE
8
BLACK
6
CONTINUOUS
10
6.4208309448818897
20
-4.3738674409448821
11
6.423385433070866
21
-4.3721605511811026
0
LINE
8
BLACK
6
CONTINUOUS
10
6.423385433070866
20
-4.3721605511811026
11
6.4263987007874013
21
-4.3715611811023622
0
LINE
8
BLACK
6
CONTINUOUS
10
6.4263987007874013
20
-4.3715611811023622
11
6.4550572440944878
21
-4.3715611811023622
0
LINE
8
BLACK
6
CONTINUOUS
10
6.4550572440944878
20
-4.3715611811023622
11
6.4553555511811025
21
-4.3006950393700789
0
LINE
8
BLACK
6
CONTINUOUS
10
6.4553555511811025
20
-4.3006950393700789
11
6.4263987007874013
21
-4.3006950393700789
0
LINE
8
BLACK
6
CONTINUOUS
10
6.4263987007874013
20
-4.3006950393700789
11
6.423385433070866
21
-4.3000956692913386
0
LINE
8
BLACK
6
CONTINUOUS
10
6.423385433070866
20
-4.3000956692913386
11
6.4208309448818897
21
-4.298388779527559
0
LINE
8
BLACK
6
CONTINUOUS
10
6.4208309448818897
20
-4.298388779527559
11
6.4191240551181101
21
-4.2958342913385827
0
LINE
8
BLACK
6
CONTINUOUS
10
6.4191240551181101
20
-4.2958342913385827
11
6.4185246850393698
21
-4.2928210236220474
0
LINE
8
BLACK
6
CONTINUOUS
10
6.4185246850393698
20
-4.2928210236220474
11
6.4185246850393698
21
-4.1432147244094484
0
LINE
8
BLACK
6
CONTINUOUS
10
6.4185246850393698
20
-4.1432147244094484
11
6.4191240551181101
21
-4.1402014566929131
0
LINE
8
BLACK
6
CONTINUOUS
10
6.4191240551181101
20
-4.1402014566929131
11
6.4208309448818897
21
-4.1376469685039368
0
LINE
8
BLACK
6
CONTINUOUS
10
6.4208309448818897
20
-4.1376469685039368
11
6.423385433070866
21
-4.1359400787401572
0
LINE
8
BLACK
6
CONTINUOUS
10
6.423385433070866
20
-4.1359400787401572
11
6.4263987007874013
21
-4.1353407086614169
0
LINE
8
BLACK
6
CONTINUOUS
10
6.4263987007874013
20
-4.1353407086614169
11
6.4560515748031495
21
-4.1353407086614169
0
LINE
8
BLACK
6
CONTINUOUS
10
6.4560515748031495
20
-4.1353407086614169
11
6.4563498818897633
21
-4.0644745669291336
0
LINE
8
BLACK
6
CONTINUOUS
10
6.4563498818897633
20
-4.0644745669291336
11
6.4263987007874013
21
-4.0644745669291336
0
LINE
8
BLACK
6
CONTINUOUS
10
6.4263987007874013
20
-4.0644745669291336
11
6.423385433070866
21
-4.0638751968503932
0
LINE
8
BLACK
6
CONTINUOUS
10
6.423385433070866
20
-4.0638751968503932
11
6.4208309448818897
21
-4.0621683070866137
0
LINE
8
BLACK
6
CONTINUOUS
10
6.4208309448818897
20
-4.0621683070866137
11
6.4191240551181101
21
-4.0596138188976374
0
LINE
8
BLACK
6
CONTINUOUS
10
6.4191240551181101
20
-4.0596138188976374
11
6.4185246850393698
21
-4.0566005511811021
0
LINE
8
BLACK
6
CONTINUOUS
10
6.4185246850393698
20
-4.0566005511811021
11
6.4185246850393698
21
-3.9069942519685039
0
LINE
8
BLACK
6
CONTINUOUS
10
6.4185246850393698
20
-3.9069942519685039
11
6.4191240551181101
21
-3.9039809842519686
0
LINE
8
BLACK
6
CONTINUOUS
10
6.4191240551181101
20
-3.9039809842519686
11
6.4208309448818897
21
-3.9014264960629919
0
LINE
8
BLACK
6
CONTINUOUS
10
6.4208309448818897
20
-3.9014264960629919
11
6.423385433070866
21
-3.8997196062992123
0
LINE
8
BLACK
6
CONTINUOUS
10
6.423385433070866
20
-3.8997196062992123
11
6.4263987007874013
21
-3.8991202362204724
0
LINE
8
BLACK
6
CONTINUOUS
10
6.4263987007874013
20
-3.8991202362204724
11
6.4570459055118112
21
-3.8991202362204724
0
LINE
8
BLACK
6
CONTINUOUS
10
6.4570459055118112
20
-3.8991202362204724
11
6.4573441732283463
21
-3.8282540944881891
0
LINE
8
BLACK
6
CONTINUOUS
10
6.4573441732283463
20
-3.8282540944881891
11
6.4263987007874013
21
-3.8282540944881891
0
LINE
8
BLACK
6
CONTINUOUS
10
6.4263987007874013
20
-3.8282540944881891
11
6.423385433070866
21
-3.8276547244094488
0
LINE
8
BLACK
6
CONTINUOUS
10
6.423385433070866
20
-3.8276547244094488
11
6.4208309448818897
21
-3.8259478346456692
0
LINE
8
BLACK
6
CONTINUOUS
10
6.4208309448818897
20
-3.8259478346456692
11
6.4191240551181101
21
-3.8233933464566929
0
LINE
8
BLACK
6
CONTINUOUS
10
6.4191240551181101
20
-3.8233933464566929
11
6.4185246850393698
21
-3.8203800787401576
0
LINE
8
BLACK
6
CONTINUOUS
10
6.4185246850393698
20
-3.8203800787401576
11
6.4185246850393698
21
-3.670773779527559
0
LINE
8
BLACK
6
CONTINUOUS
10
6.4185246850393698
20
-3.670773779527559
11
6.4191240551181101
21
-3.6677605118110237
0
LINE
8
BLACK
6
CONTINUOUS
10
6.4191240551181101
20
-3.6677605118110237
11
6.4208309448818897
21
-3.6652060236220469
0
LINE
8
BLACK
6
CONTINUOUS
10
6.4208309448818897
20
-3.6652060236220469
11
6.423385433070866
21
-3.6634991338582674
0
LINE
8
BLACK
6
CONTINUOUS
10
6.423385433070866
20
-3.6634991338582674
11
6.4263987007874013
21
-3.6628997637795275
0
LINE
8
BLACK
6
CONTINUOUS
10
6.4263987007874013
20
-3.6628997637795275
11
6.4580401968503933
21
-3.6628997637795275
0
LINE
8
BLACK
6
CONTINUOUS
10
6.4580401968503933
20
-3.6628997637795275
11
6.458338503937008
21
-3.5920336220472442
0
LINE
8
BLACK
6
CONTINUOUS
10
6.458338503937008
20
-3.5920336220472442
11
6.4263987007874013
21
-3.5920336220472442
0
LINE
8
BLACK
6
CONTINUOUS
10
6.4263987007874013
20
-3.5920336220472442
11
6.423385433070866
21
-3.5914342519685039
0
LINE
8
BLACK
6
CONTINUOUS
10
6.423385433070866
20
-3.5914342519685039
11
6.4208309448818897
21
-3.5897273622047243
0
LINE
8
BLACK
6
CONTINUOUS
10
6.4208309448818897
20
-3.5897273622047243
11
6.4191240551181101
21
-3.587172874015748
0
LINE
8
BLACK
6
CONTINUOUS
10
6.4191240551181101
20
-3.587172874015748
11
6.4185246850393698
21
-3.5841596062992127
0
LINE
8
BLACK
6
CONTINUOUS
10
6.4185246850393698
20
-3.5841596062992127
11
6.4185246850393698
21
-3.4345533070866141
0
LINE
8
BLACK
6
CONTINUOUS
10
6.4185246850393698
20
-3.4345533070866141
11
6.4191240551181101
21
-3.4315400393700788
0
LINE
8
BLACK
6
CONTINUOUS
10
6.4191240551181101
20
-3.4315400393700788
11
6.4208309448818897
21
-3.4289855511811025
0
LINE
8
BLACK
6
CONTINUOUS
10
6.4208309448818897
20
-3.4289855511811025
11
6.423385433070866
21
-3.427278661417323
0
LINE
8
BLACK
6
CONTINUOUS
10
6.423385433070866
20
-3.427278661417323
11
6.4263987007874013
21
-3.4266792913385826
0
LINE
8
BLACK
6
CONTINUOUS
10
6.4263987007874013
20
-3.4266792913385826
11
6.4590345275590551
21
-3.4266792913385826
0
LINE
8
BLACK
6
CONTINUOUS
10
6.4590345275590551
20
-3.4266792913385826
11
6.4593328346456689
21
-3.3558131496062993
0
LINE
8
BLACK
6
CONTINUOUS
10
6.4593328346456689
20
-3.3558131496062993
11
6.4263987007874013
21
-3.3558131496062993
0
LINE
8
BLACK
6
CONTINUOUS
10
6.4263987007874013
20
-3.3558131496062993
11
6.423385433070866
21
-3.3552137795275589
0
LINE
8
BLACK
6
CONTINUOUS
10
6.423385433070866
20
-3.3552137795275589
11
6.4208309448818897
21
-3.3535068897637794
0
LINE
8
BLACK
6
CONTINUOUS
10
6.4208309448818897
20
-3.3535068897637794
11
6.4191240551181101
21
-3.3509524015748031
0
LINE
8
BLACK
6
CONTINUOUS
10
6.4191240551181101
20
-3.3509524015748031
11
6.4185246850393698
21
-3.3479391338582678
0
LINE
8
BLACK
6
CONTINUOUS
10
6.4185246850393698
20
-3.3479391338582678
11
6.4185246850393698
21
-3.2652619685039368
0
LINE
8
BLACK
6
CONTINUOUS
10
6.4185246850393698
20
-3.2652619685039368
11
6.3358475196850392
21
-3.2652619685039368
0
LINE
8
BLACK
6
CONTINUOUS
10
6.3358475196850392
20
-3.2652619685039368
11
6.3328342519685039
21
-3.2646625984251969
0
LINE
8
BLACK
6
CONTINUOUS
10
6.3328342519685039
20
-3.2646625984251969
11
6.3302797637795276
21
-3.2629557086614174
0
LINE
8
BLACK
6
CONTINUOUS
10
6.3302797637795276
20
-3.2629557086614174
11
6.3285728740157481
21
-3.2604012204724411
0
LINE
8
BLACK
6
CONTINUOUS
10
6.3285728740157481
20
-3.2604012204724411
11
6.3279735039370077
21
-3.2573879527559053
0
LINE
8
BLACK
6
CONTINUOUS
10
6.3279735039370077
20
-3.2573879527559053
11
6.3279735039370077
21
-3.2370729527559052
0
LINE
8
BLACK
6
CONTINUOUS
10
6.3279735039370077
20
-3.2370729527559052
11
6.2571073622047244
21
-3.2370729527559052
0
LINE
8
BLACK
6
CONTINUOUS
10
6.2571073622047244
20
-3.2370729527559052
11
6.2571073622047244
21
-3.2573879527559053
0
LINE
8
BLACK
6
CONTINUOUS
10
6.2571073622047244
20
-3.2573879527559053
11
6.2565079921259841
21
-3.2604012204724411
0
LINE
8
BLACK
6
CONTINUOUS
10
6.2565079921259841
20
-3.2604012204724411
11
6.2548011023622045
21
-3.2629557086614174
0
LINE
8
BLACK
6
CONTINUOUS
10
6.2548011023622045
20
-3.2629557086614174
11
6.2522466141732282
21
-3.2646625984251969
0
LINE
8
BLACK
6
CONTINUOUS
10
6.2522466141732282
20
-3.2646625984251969
11
6.2492333464566929
21
-3.2652619685039368
0
LINE
8
BLACK
6
CONTINUOUS
10
6.2492333464566929
20
-3.2652619685039368
11
6.0996270472440948
21
-3.2652619685039368
0
LINE
8
BLACK
6
CONTINUOUS
10
6.0996270472440948
20
-3.2652619685039368
11
6.0966137795275586
21
-3.2646625984251969
0
LINE
8
BLACK
6
CONTINUOUS
10
6.0966137795275586
20
-3.2646625984251969
11
6.0940592913385823
21
-3.2629557086614174
0
LINE
8
BLACK
6
CONTINUOUS
10
6.0940592913385823
20
-3.2629557086614174
11
6.0923524015748027
21
-3.2604012204724411
0
LINE
8
BLACK
6
CONTINUOUS
10
6.0923524015748027
20
-3.2604012204724411
11
6.0917530314960633
21
-3.2573879527559053
0
LINE
8
BLACK
6
CONTINUOUS
10
6.0917530314960633
20
-3.2573879527559053
11
6.0917530314960633
21
-3.2370729527559052
0
LINE
8
BLACK
6
CONTINUOUS
10
6.0917530314960633
20
-3.2370729527559052
11
6.0208868897637791
21
-3.2370729527559052
0
LINE
8
BLACK
6
CONTINUOUS
10
6.0208868897637791
20
-3.2370729527559052
11
6.0208868897637791
21
-3.2573879527559053
0
LINE
8
BLACK
6
CONTINUOUS
10
6.0208868897637791
20
-3.2573879527559053
11
6.0202875196850396
21
-3.2604012204724411
0
LINE
8
BLACK
6
CONTINUOUS
10
6.0202875196850396
20
-3.2604012204724411
11
6.0185806299212601
21
-3.2629557086614174
0
LINE
8
BLACK
6
CONTINUOUS
10
6.0185806299212601
20
-3.2629557086614174
11
6.0160261417322829
21
-3.2646625984251969
0
LINE
8
BLACK
6
CONTINUOUS
10
6.0160261417322829
20
-3.2646625984251969
11
6.0130128740157476
21
-3.2652619685039368
0
LINE
8
BLACK
6
CONTINUOUS
10
6.0130128740157476
20
-3.2652619685039368
11
5.8634065748031494
21
-3.2652619685039368
0
LINE
8
BLACK
6
CONTINUOUS
10
5.8634065748031494
20
-3.2652619685039368
11
5.8603933070866141
21
-3.2646625984251969
0
LINE
8
BLACK
6
CONTINUOUS
10
5.8603933070866141
20
-3.2646625984251969
11
5.8578388188976378
21
-3.2629557086614174
0
LINE
8
BLACK
6
CONTINUOUS
10
5.8578388188976378
20
-3.2629557086614174
11
5.8561319291338583
21
-3.2604012204724411
0
LINE
8
BLACK
6
CONTINUOUS
10
5.8561319291338583
20
-3.2604012204724411
11
5.8555325590551179
21
-3.2573879527559053
0
LINE
8
BLACK
6
CONTINUOUS
10
5.8555325590551179
20
-3.2573879527559053
11
5.8555325590551179
21
-3.2370729527559052
0
LINE
8
BLACK
6
CONTINUOUS
10
5.8555325590551179
20
-3.2370729527559052
11
5.7846664173228346
21
-3.2370729527559052
0
LINE
8
BLACK
6
CONTINUOUS
10
5.7846664173228346
20
-3.2370729527559052
11
5.7846664173228346
21
-3.2573879527559053
0
LINE
8
BLACK
6
CONTINUOUS
10
5.7846664173228346
20
-3.2573879527559053
11
5.7840670472440943
21
-3.2604012204724411
0
LINE
8
BLACK
6
CONTINUOUS
10
5.7840670472440943
20
-3.2604012204724411
11
5.7823601574803147
21
-3.2629557086614174
0
LINE
8
BLACK
6
CONTINUOUS
10
5.7823601574803147
20
-3.2629557086614174
11
5.7798056692913384
21
-3.2646625984251969
0
LINE
8
BLACK
6
CONTINUOUS
10
5.7798056692913384
20
-3.2646625984251969
11
5.7767924015748031
21
-3.2652619685039368
0
LINE
8
BLACK
6
CONTINUOUS
10
5.7767924015748031
20
-3.2652619685039368
11
5.627186102362205
21
-3.2652619685039368
0
LINE
8
BLACK
6
CONTINUOUS
10
5.627186102362205
20
-3.2652619685039368
11
5.6241728346456688
21
-3.2646625984251969
0
LINE
8
BLACK
6
CONTINUOUS
10
5.6241728346456688
20
-3.2646625984251969
11
5.6216183464566924
21
-3.2629557086614174
0
LINE
8
BLACK
6
CONTINUOUS
10
5.6216183464566924
20
-3.2629557086614174
11
5.6199114566929129
21
-3.2604012204724411
0
LINE
8
BLACK
6
CONTINUOUS
10
5.6199114566929129
20
-3.2604012204724411
11
5.6193120866141735
21
-3.2573879527559053
0
LINE
8
BLACK
6
CONTINUOUS
10
5.6193120866141735
20
-3.2573879527559053
11
5.6193120866141735
21
-3.2370729527559052
0
LINE
8
BLACK
6
CONTINUOUS
10
5.6193120866141735
20
-3.2370729527559052
11
5.5484459448818892
21
-3.2370729527559052
0
LINE
8
BLACK
6
CONTINUOUS
10
5.5484459448818892
20
-3.2370729527559052
11
5.5484459448818892
21
-3.2573879527559053
0
LINE
8
BLACK
6
CONTINUOUS
10
5.5484459448818892
20
-3.2573879527559053
11
5.5478465748031498
21
-3.2604012204724411
0
LINE
8
BLACK
6
CONTINUOUS
10
5.5478465748031498
20
-3.2604012204724411
11
5.5461396850393703
21
-3.2629557086614174
0
LINE
8
BLACK
6
CONTINUOUS
10
5.5461396850393703
20
-3.2629557086614174
11
5.543585196850394
21
-3.2646625984251969
0
LINE
8
BLACK
6
CONTINUOUS
10
5.543585196850394
20
-3.2646625984251969
11
5.5405719291338578
21
-3.2652619685039368
0
LINE
8
BLACK
6
CONTINUOUS
10
5.5405719291338578
20
-3.2652619685039368
11
5.3909656299212596
21
-3.2652619685039368
0
LINE
8
BLACK
6
CONTINUOUS
10
5.3909656299212596
20
-3.2652619685039368
11
5.3879523622047243
21
-3.2646625984251969
0
LINE
8
BLACK
6
CONTINUOUS
10
5.3879523622047243
20
-3.2646625984251969
11
5.385397874015748
21
-3.2629557086614174
0
LINE
8
BLACK
6
CONTINUOUS
10
5.385397874015748
20
-3.2629557086614174
11
5.3836909842519685
21
-3.2604012204724411
0
LINE
8
BLACK
6
CONTINUOUS
10
5.3836909842519685
20
-3.2604012204724411
11
5.3830916141732281
21
-3.2573879527559053
0
LINE
8
BLACK
6
CONTINUOUS
10
5.3830916141732281
20
-3.2573879527559053
11
5.3830916141732281
21
-3.2370729527559052
0
LINE
8
BLACK
6
CONTINUOUS
10
5.3830916141732281
20
-3.2370729527559052
11
5.3122254724409448
21
-3.2370729527559052
0
LINE
8
BLACK
6
CONTINUOUS
10
5.3122254724409448
20
-3.2370729527559052
11
5.3122254724409448
21
-3.2573879527559053
  0
ENDSEC
  0
EOF
