  0
SECTION
  2
HEADER
  9
$ANGBASE
  50
0.0
  9
$ANGDIR
  70
1
  9
$MEASUREMENT
  70
0
  0
ENDSEC
  0
SECTION
  2
TABLES
  0
TABLE
  2
LTYPE
  70
4
  0
LTYPE
  5
40F
  2
CONTINUOUS
  70
0
  3
Solid line
  72
65
  73
0
  40
0.0
  0
LTYPE
  5
410
  2
DASHDOT
 70
0
  3
Dash Dot ____ _ ____ _
 72
65
 73
4
 40
2.0
 49
1.25
 49
-0.25
 49
0.25
 49
-0.25
  0
LTYPE
  5
411
  2
DASHED
 70
0
  3
Dashed __ __ __ __ __
 72
65
 73
2
 40
0.75
 49
0.5
 49
-0.25
  0
LTYPE
  5
43B
  2
DOTTED
 70
0
  3
Dotted .  .  .  .
 72
65
 73
2
 40
0.2
 49
0.0
 49
-0.2
  0
ENDTAB
  0
TABLE
  2
STYLE
  70
4
  0
STYLE
  2
KICAD
  70
0
  40
0
  41
1
  42
1
  50
0
  71
0
  3
isocp.shx
  0
STYLE
  2
KICADB
  70
0
  40
0
  41
1
  42
1
  50
0
  71
0
  3
isocp.shx
  0
STYLE
  2
KICADI
  70
0
  40
0
  41
1
  42
1
  50
15
  71
0
  3
isocp.shx
  0
STYLE
  2
KICADBI
  70
0
  40
0
  41
1
  42
1
  50
15
  71
0
  3
isocp.shx
  0
ENDTAB
  0
TABLE
  2
LAYER
  70
1
  0
LAYER
  2
BLACK
  70
0
  62
7
  6
CONTINUOUS
  0
ENDTAB
  0
ENDSEC
  0
SECTION
  2
ENTITIES
0
LINE
8
BLACK
6
CONTINUOUS
10
4.2442433464566927
20
-4.4606722834645671
11
4.2511027952755907
21
-4.463513582677165
0
LINE
8
BLACK
6
CONTINUOUS
10
4.2511027952755907
20
-4.463513582677165
11
4.257276102362205
21
-4.4676384645669289
0
LINE
8
BLACK
6
CONTINUOUS
10
4.257276102362205
20
-4.4676384645669289
11
4.2625261023622043
21
-4.4728884645669291
0
LINE
8
BLACK
6
CONTINUOUS
10
4.2625261023622043
20
-4.4728884645669291
11
4.2666509842519682
21
-4.4790617716535435
0
LINE
8
BLACK
6
CONTINUOUS
10
4.2666509842519682
20
-4.4790617716535435
11
4.269492283464567
21
-4.4859212204724406
0
LINE
8
BLACK
6
CONTINUOUS
10
4.269492283464567
20
-4.4859212204724406
11
4.2709407480314958
21
-4.4932031889763779
0
LINE
8
BLACK
6
CONTINUOUS
10
4.2709407480314958
20
-4.4932031889763779
11
4.2709407480314958
21
-4.5006277559055121
0
LINE
8
BLACK
6
CONTINUOUS
10
4.2709407480314958
20
-4.5006277559055121
11
4.269492283464567
21
-4.5079097244094486
0
LINE
8
BLACK
6
CONTINUOUS
10
4.269492283464567
20
-4.5079097244094486
11
4.2666509842519682
21
-4.5147691732283466
0
LINE
8
BLACK
6
CONTINUOUS
10
4.2666509842519682
20
-4.5147691732283466
11
4.2625261023622043
21
-4.5209424803149609
0
LINE
8
BLACK
6
CONTINUOUS
10
4.2625261023622043
20
-4.5209424803149609
11
4.257276102362205
21
-4.5261924803149602
0
LINE
8
BLACK
6
CONTINUOUS
10
4.257276102362205
20
-4.5261924803149602
11
4.2511027952755907
21
-4.5303173622047241
0
LINE
8
BLACK
6
CONTINUOUS
10
4.2511027952755907
20
-4.5303173622047241
11
4.2442433464566927
21
-4.5331586614173229
0
LINE
8
BLACK
6
CONTINUOUS
10
4.2442433464566927
20
-4.5331586614173229
11
4.2369613779527562
21
-4.5346071259842518
0
LINE
8
BLACK
6
CONTINUOUS
10
4.2369613779527562
20
-4.5346071259842518
11
4.229536811023622
21
-4.5346071259842518
0
LINE
8
BLACK
6
CONTINUOUS
10
4.229536811023622
20
-4.5346071259842518
11
4.2222548425196846
21
-4.5331586614173229
0
LINE
8
BLACK
6
CONTINUOUS
10
4.2222548425196846
20
-4.5331586614173229
11
4.2153953937007875
21
-4.5303173622047241
0
LINE
8
BLACK
6
CONTINUOUS
10
4.2153953937007875
20
-4.5303173622047241
11
4.2092220866141732
21
-4.5261924803149602
0
LINE
8
BLACK
6
CONTINUOUS
10
4.2092220866141732
20
-4.5261924803149602
11
4.203972086614173
21
-4.5209424803149609
0
LINE
8
BLACK
6
CONTINUOUS
10
4.203972086614173
20
-4.5209424803149609
11
4.1998472047244091
21
-4.5147691732283466
0
LINE
8
BLACK
6
CONTINUOUS
10
4.1998472047244091
20
-4.5147691732283466
11
4.1970059055118112
21
-4.5079097244094486
0
LINE
8
BLACK
6
CONTINUOUS
10
4.1970059055118112
20
-4.5079097244094486
11
4.1955574409448815
21
-4.5006277559055121
0
LINE
8
BLACK
6
CONTINUOUS
10
4.1955574409448815
20
-4.5006277559055121
11
4.1955574409448815
21
-4.4932031889763779
0
LINE
8
BLACK
6
CONTINUOUS
10
4.1955574409448815
20
-4.4932031889763779
11
4.1970059055118112
21
-4.4859212204724406
0
LINE
8
BLACK
6
CONTINUOUS
10
4.1970059055118112
20
-4.4859212204724406
11
4.1998472047244091
21
-4.4790617716535435
0
LINE
8
BLACK
6
CONTINUOUS
10
4.1998472047244091
20
-4.4790617716535435
11
4.203972086614173
21
-4.4728884645669291
0
LINE
8
BLACK
6
CONTINUOUS
10
4.203972086614173
20
-4.4728884645669291
11
4.2092220866141732
21
-4.4676384645669289
0
LINE
8
BLACK
6
CONTINUOUS
10
4.2092220866141732
20
-4.4676384645669289
11
4.2153953937007875
21
-4.463513582677165
0
LINE
8
BLACK
6
CONTINUOUS
10
4.2153953937007875
20
-4.463513582677165
11
4.2222548425196846
21
-4.4606722834645671
0
LINE
8
BLACK
6
CONTINUOUS
10
4.2222548425196846
20
-4.4606722834645671
11
4.229536811023622
21
-4.4592238188976374
0
LINE
8
BLACK
6
CONTINUOUS
10
4.229536811023622
20
-4.4592238188976374
11
4.2369613779527562
21
-4.4592238188976374
0
LINE
8
BLACK
6
CONTINUOUS
10
4.2369613779527562
20
-4.4592238188976374
11
4.2442433464566927
21
-4.4606722834645671
0
LINE
8
BLACK
6
CONTINUOUS
10
4.4410937401574806
20
-4.4606722834645671
11
4.4479531889763777
21
-4.463513582677165
0
LINE
8
BLACK
6
CONTINUOUS
10
4.4479531889763777
20
-4.463513582677165
11
4.454126496062992
21
-4.4676384645669289
0
LINE
8
BLACK
6
CONTINUOUS
10
4.454126496062992
20
-4.4676384645669289
11
4.4593764960629922
21
-4.4728884645669291
0
LINE
8
BLACK
6
CONTINUOUS
10
4.4593764960629922
20
-4.4728884645669291
11
4.4635013779527561
21
-4.4790617716535435
0
LINE
8
BLACK
6
CONTINUOUS
10
4.4635013779527561
20
-4.4790617716535435
11
4.466342677165354
21
-4.4859212204724406
0
LINE
8
BLACK
6
CONTINUOUS
10
4.466342677165354
20
-4.4859212204724406
11
4.4677911417322838
21
-4.4932031889763779
0
LINE
8
BLACK
6
CONTINUOUS
10
4.4677911417322838
20
-4.4932031889763779
11
4.4677911417322838
21
-4.5006277559055121
0
LINE
8
BLACK
6
CONTINUOUS
10
4.4677911417322838
20
-4.5006277559055121
11
4.466342677165354
21
-4.5079097244094486
0
LINE
8
BLACK
6
CONTINUOUS
10
4.466342677165354
20
-4.5079097244094486
11
4.4635013779527561
21
-4.5147691732283466
0
LINE
8
BLACK
6
CONTINUOUS
10
4.4635013779527561
20
-4.5147691732283466
11
4.4593764960629922
21
-4.5209424803149609
0
LINE
8
BLACK
6
CONTINUOUS
10
4.4593764960629922
20
-4.5209424803149609
11
4.454126496062992
21
-4.5261924803149602
0
LINE
8
BLACK
6
CONTINUOUS
10
4.454126496062992
20
-4.5261924803149602
11
4.4479531889763777
21
-4.5303173622047241
0
LINE
8
BLACK
6
CONTINUOUS
10
4.4479531889763777
20
-4.5303173622047241
11
4.4410937401574806
21
-4.5331586614173229
0
LINE
8
BLACK
6
CONTINUOUS
10
4.4410937401574806
20
-4.5331586614173229
11
4.4338117716535432
21
-4.5346071259842518
0
LINE
8
BLACK
6
CONTINUOUS
10
4.4338117716535432
20
-4.5346071259842518
11
4.4263872047244091
21
-4.5346071259842518
0
LINE
8
BLACK
6
CONTINUOUS
10
4.4263872047244091
20
-4.5346071259842518
11
4.4191052362204726
21
-4.5331586614173229
0
LINE
8
BLACK
6
CONTINUOUS
10
4.4191052362204726
20
-4.5331586614173229
11
4.4122457874015746
21
-4.5303173622047241
0
LINE
8
BLACK
6
CONTINUOUS
10
4.4122457874015746
20
-4.5303173622047241
11
4.4060724803149602
21
-4.5261924803149602
0
LINE
8
BLACK
6
CONTINUOUS
10
4.4060724803149602
20
-4.5261924803149602
11
4.4008224803149609
21
-4.5209424803149609
0
LINE
8
BLACK
6
CONTINUOUS
10
4.4008224803149609
20
-4.5209424803149609
11
4.396697598425197
21
-4.5147691732283466
0
LINE
8
BLACK
6
CONTINUOUS
10
4.396697598425197
20
-4.5147691732283466
11
4.3938562992125982
21
-4.5079097244094486
0
LINE
8
BLACK
6
CONTINUOUS
10
4.3938562992125982
20
-4.5079097244094486
11
4.3924078346456694
21
-4.5006277559055121
0
LINE
8
BLACK
6
CONTINUOUS
10
4.3924078346456694
20
-4.5006277559055121
11
4.3924078346456694
21
-4.4932031889763779
0
LINE
8
BLACK
6
CONTINUOUS
10
4.3924078346456694
20
-4.4932031889763779
11
4.3938562992125982
21
-4.4859212204724406
0
LINE
8
BLACK
6
CONTINUOUS
10
4.3938562992125982
20
-4.4859212204724406
11
4.396697598425197
21
-4.4790617716535435
0
LINE
8
BLACK
6
CONTINUOUS
10
4.396697598425197
20
-4.4790617716535435
11
4.4008224803149609
21
-4.4728884645669291
0
LINE
8
BLACK
6
CONTINUOUS
10
4.4008224803149609
20
-4.4728884645669291
11
4.4060724803149602
21
-4.4676384645669289
0
LINE
8
BLACK
6
CONTINUOUS
10
4.4060724803149602
20
-4.4676384645669289
11
4.4122457874015746
21
-4.463513582677165
0
LINE
8
BLACK
6
CONTINUOUS
10
4.4122457874015746
20
-4.463513582677165
11
4.4191052362204726
21
-4.4606722834645671
0
LINE
8
BLACK
6
CONTINUOUS
10
4.4191052362204726
20
-4.4606722834645671
11
4.4263872047244091
21
-4.4592238188976374
0
LINE
8
BLACK
6
CONTINUOUS
10
4.4263872047244091
20
-4.4592238188976374
11
4.4338117716535432
21
-4.4592238188976374
0
LINE
8
BLACK
6
CONTINUOUS
10
4.4338117716535432
20
-4.4592238188976374
11
4.4410937401574806
21
-4.4606722834645671
0
LINE
8
BLACK
6
CONTINUOUS
10
5.1552820472440946
20
-4.140219566929134
11
5.1578365354330709
21
-4.1419264566929135
0
LINE
8
BLACK
6
CONTINUOUS
10
5.1578365354330709
20
-4.1419264566929135
11
5.1595434251968504
21
-4.1444809448818898
0
LINE
8
BLACK
6
CONTINUOUS
10
5.1595434251968504
20
-4.1444809448818898
11
5.1601427952755907
21
-4.1474942125984251
0
LINE
8
BLACK
6
CONTINUOUS
10
5.1601427952755907
20
-4.1474942125984251
11
5.1601427952755907
21
-4.2971005118110233
0
LINE
8
BLACK
6
CONTINUOUS
10
5.1601427952755907
20
-4.2971005118110233
11
5.1595434251968504
21
-4.3001137795275586
0
LINE
8
BLACK
6
CONTINUOUS
10
5.1595434251968504
20
-4.3001137795275586
11
5.1578365354330709
21
-4.3026682677165358
0
LINE
8
BLACK
6
CONTINUOUS
10
5.1578365354330709
20
-4.3026682677165358
11
5.1552820472440946
21
-4.3043751574803153
0
LINE
8
BLACK
6
CONTINUOUS
10
5.1552820472440946
20
-4.3043751574803153
11
5.1522687795275592
21
-4.3049745275590547
0
LINE
8
BLACK
6
CONTINUOUS
10
5.1522687795275592
20
-4.3049745275590547
11
5.1128987007874018
21
-4.3049745275590547
0
LINE
8
BLACK
6
CONTINUOUS
10
5.1128987007874018
20
-4.3049745275590547
11
5.1098854330708656
21
-4.3043751574803153
0
LINE
8
BLACK
6
CONTINUOUS
10
5.1098854330708656
20
-4.3043751574803153
11
5.1073309448818893
21
-4.3026682677165358
0
LINE
8
BLACK
6
CONTINUOUS
10
5.1073309448818893
20
-4.3026682677165358
11
5.1056240551181098
21
-4.3001137795275586
0
LINE
8
BLACK
6
CONTINUOUS
10
5.1056240551181098
20
-4.3001137795275586
11
5.1050246850393703
21
-4.2971005118110233
0
LINE
8
BLACK
6
CONTINUOUS
10
5.1050246850393703
20
-4.2971005118110233
11
5.1050246850393703
21
-4.1474942125984251
0
LINE
8
BLACK
6
CONTINUOUS
10
5.1050246850393703
20
-4.1474942125984251
11
5.1056240551181098
21
-4.1444809448818898
0
LINE
8
BLACK
6
CONTINUOUS
10
5.1056240551181098
20
-4.1444809448818898
11
5.1073309448818893
21
-4.1419264566929135
0
LINE
8
BLACK
6
CONTINUOUS
10
5.1073309448818893
20
-4.1419264566929135
11
5.1098854330708656
21
-4.140219566929134
0
LINE
8
BLACK
6
CONTINUOUS
10
5.1098854330708656
20
-4.140219566929134
11
5.1128987007874018
21
-4.1396201968503936
0
LINE
8
BLACK
6
CONTINUOUS
10
5.1128987007874018
20
-4.1396201968503936
11
5.1522687795275592
21
-4.1396201968503936
0
LINE
8
BLACK
6
CONTINUOUS
10
5.1522687795275592
20
-4.1396201968503936
11
5.1552820472440946
21
-4.140219566929134
0
LINE
8
BLACK
6
CONTINUOUS
10
5.2168135433070866
20
-4.1359400787401572
11
5.2193680314960629
21
-4.1376469685039368
0
LINE
8
BLACK
6
CONTINUOUS
10
5.2193680314960629
20
-4.1376469685039368
11
5.2210749212598424
21
-4.1402014566929131
0
LINE
8
BLACK
6
CONTINUOUS
10
5.2210749212598424
20
-4.1402014566929131
11
5.2216742913385827
21
-4.1432147244094484
0
LINE
8
BLACK
6
CONTINUOUS
10
5.2216742913385827
20
-4.1432147244094484
11
5.2216742913385827
21
-4.2928210236220474
0
LINE
8
BLACK
6
CONTINUOUS
10
5.2216742913385827
20
-4.2928210236220474
11
5.2210749212598424
21
-4.2958342913385827
0
LINE
8
BLACK
6
CONTINUOUS
10
5.2210749212598424
20
-4.2958342913385827
11
5.2193680314960629
21
-4.298388779527559
0
LINE
8
BLACK
6
CONTINUOUS
10
5.2193680314960629
20
-4.298388779527559
11
5.2168135433070866
21
-4.3000956692913386
0
LINE
8
BLACK
6
CONTINUOUS
10
5.2168135433070866
20
-4.3000956692913386
11
5.2138002755905513
21
-4.3006950393700789
0
LINE
8
BLACK
6
CONTINUOUS
10
5.2138002755905513
20
-4.3006950393700789
11
5.1744301968503938
21
-4.3006950393700789
0
LINE
8
BLACK
6
CONTINUOUS
10
5.1744301968503938
20
-4.3006950393700789
11
5.1714169291338585
21
-4.3000956692913386
0
LINE
8
BLACK
6
CONTINUOUS
10
5.1714169291338585
20
-4.3000956692913386
11
5.1688624409448813
21
-4.298388779527559
0
LINE
8
BLACK
6
CONTINUOUS
10
5.1688624409448813
20
-4.298388779527559
11
5.1671555511811018
21
-4.2958342913385827
0
LINE
8
BLACK
6
CONTINUOUS
10
5.1671555511811018
20
-4.2958342913385827
11
5.1665561811023624
21
-4.2928210236220474
0
LINE
8
BLACK
6
CONTINUOUS
10
5.1665561811023624
20
-4.2928210236220474
11
5.1665561811023624
21
-4.1432147244094484
0
LINE
8
BLACK
6
CONTINUOUS
10
5.1665561811023624
20
-4.1432147244094484
11
5.1671555511811018
21
-4.1402014566929131
0
LINE
8
BLACK
6
CONTINUOUS
10
5.1671555511811018
20
-4.1402014566929131
11
5.1688624409448813
21
-4.1376469685039368
0
LINE
8
BLACK
6
CONTINUOUS
10
5.1688624409448813
20
-4.1376469685039368
11
5.1714169291338585
21
-4.1359400787401572
0
LINE
8
BLACK
6
CONTINUOUS
10
5.1714169291338585
20
-4.1359400787401572
11
5.1744301968503938
21
-4.1353407086614169
0
LINE
8
BLACK
6
CONTINUOUS
10
5.1744301968503938
20
-4.1353407086614169
11
5.2138002755905513
21
-4.1353407086614169
0
LINE
8
BLACK
6
CONTINUOUS
10
5.2138002755905513
20
-4.1353407086614169
11
5.2168135433070866
21
-4.1359400787401572
0
LINE
8
BLACK
6
CONTINUOUS
10
5.1552820472440946
20
-3.903999094488189
11
5.1578365354330709
21
-3.9057059842519686
0
LINE
8
BLACK
6
CONTINUOUS
10
5.1578365354330709
20
-3.9057059842519686
11
5.1595434251968504
21
-3.9082604724409449
0
LINE
8
BLACK
6
CONTINUOUS
10
5.1595434251968504
20
-3.9082604724409449
11
5.1601427952755907
21
-3.9112737401574802
0
LINE
8
BLACK
6
CONTINUOUS
10
5.1601427952755907
20
-3.9112737401574802
11
5.1601427952755907
21
-4.0608800393700788
0
LINE
8
BLACK
6
CONTINUOUS
10
5.1601427952755907
20
-4.0608800393700788
11
5.1595434251968504
21
-4.0638933070866141
0
LINE
8
BLACK
6
CONTINUOUS
10
5.1595434251968504
20
-4.0638933070866141
11
5.1578365354330709
21
-4.0664477952755904
0
LINE
8
BLACK
6
CONTINUOUS
10
5.1578365354330709
20
-4.0664477952755904
11
5.1552820472440946
21
-4.0681546850393699
0
LINE
8
BLACK
6
CONTINUOUS
10
5.1552820472440946
20
-4.0681546850393699
11
5.1522687795275592
21
-4.0687540551181103
0
LINE
8
BLACK
6
CONTINUOUS
10
5.1522687795275592
20
-4.0687540551181103
11
5.1128987007874018
21
-4.0687540551181103
0
LINE
8
BLACK
6
CONTINUOUS
10
5.1128987007874018
20
-4.0687540551181103
11
5.1098854330708656
21
-4.0681546850393699
0
LINE
8
BLACK
6
CONTINUOUS
10
5.1098854330708656
20
-4.0681546850393699
11
5.1073309448818893
21
-4.0664477952755904
0
LINE
8
BLACK
6
CONTINUOUS
10
5.1073309448818893
20
-4.0664477952755904
11
5.1056240551181098
21
-4.0638933070866141
0
LINE
8
BLACK
6
CONTINUOUS
10
5.1056240551181098
20
-4.0638933070866141
11
5.1050246850393703
21
-4.0608800393700788
0
LINE
8
BLACK
6
CONTINUOUS
10
5.1050246850393703
20
-4.0608800393700788
11
5.1050246850393703
21
-3.9112737401574802
0
LINE
8
BLACK
6
CONTINUOUS
10
5.1050246850393703
20
-3.9112737401574802
11
5.1056240551181098
21
-3.9082604724409449
0
LINE
8
BLACK
6
CONTINUOUS
10
5.1056240551181098
20
-3.9082604724409449
11
5.1073309448818893
21
-3.9057059842519686
0
LINE
8
BLACK
6
CONTINUOUS
10
5.1073309448818893
20
-3.9057059842519686
11
5.1098854330708656
21
-3.903999094488189
0
LINE
8
BLACK
6
CONTINUOUS
10
5.1098854330708656
20
-3.903999094488189
11
5.1128987007874018
21
-3.9033997244094487
0
LINE
8
BLACK
6
CONTINUOUS
10
5.1128987007874018
20
-3.9033997244094487
11
5.1522687795275592
21
-3.9033997244094487
0
LINE
8
BLACK
6
CONTINUOUS
10
5.1522687795275592
20
-3.9033997244094487
11
5.1552820472440946
21
-3.903999094488189
0
LINE
8
BLACK
6
CONTINUOUS
10
5.2168135433070866
20
-3.8997196062992123
11
5.2193680314960629
21
-3.9014264960629919
0
LINE
8
BLACK
6
CONTINUOUS
10
5.2193680314960629
20
-3.9014264960629919
11
5.2210749212598424
21
-3.9039809842519686
0
LINE
8
BLACK
6
CONTINUOUS
10
5.2210749212598424
20
-3.9039809842519686
11
5.2216742913385827
21
-3.9069942519685039
0
LINE
8
BLACK
6
CONTINUOUS
10
5.2216742913385827
20
-3.9069942519685039
11
5.2216742913385827
21
-4.0566005511811021
0
LINE
8
BLACK
6
CONTINUOUS
10
5.2216742913385827
20
-4.0566005511811021
11
5.2210749212598424
21
-4.0596138188976374
0
LINE
8
BLACK
6
CONTINUOUS
10
5.2210749212598424
20
-4.0596138188976374
11
5.2193680314960629
21
-4.0621683070866137
0
LINE
8
BLACK
6
CONTINUOUS
10
5.2193680314960629
20
-4.0621683070866137
11
5.2168135433070866
21
-4.0638751968503932
0
LINE
8
BLACK
6
CONTINUOUS
10
5.2168135433070866
20
-4.0638751968503932
11
5.2138002755905513
21
-4.0644745669291336
0
LINE
8
BLACK
6
CONTINUOUS
10
5.2138002755905513
20
-4.0644745669291336
11
5.1744301968503938
21
-4.0644745669291336
0
LINE
8
BLACK
6
CONTINUOUS
10
5.1744301968503938
20
-4.0644745669291336
11
5.1714169291338585
21
-4.0638751968503932
0
LINE
8
BLACK
6
CONTINUOUS
10
5.1714169291338585
20
-4.0638751968503932
11
5.1688624409448813
21
-4.0621683070866137
0
LINE
8
BLACK
6
CONTINUOUS
10
5.1688624409448813
20
-4.0621683070866137
11
5.1671555511811018
21
-4.0596138188976374
0
LINE
8
BLACK
6
CONTINUOUS
10
5.1671555511811018
20
-4.0596138188976374
11
5.1665561811023624
21
-4.0566005511811021
0
LINE
8
BLACK
6
CONTINUOUS
10
5.1665561811023624
20
-4.0566005511811021
11
5.1665561811023624
21
-3.9069942519685039
0
LINE
8
BLACK
6
CONTINUOUS
10
5.1665561811023624
20
-3.9069942519685039
11
5.1671555511811018
21
-3.9039809842519686
0
LINE
8
BLACK
6
CONTINUOUS
10
5.1671555511811018
20
-3.9039809842519686
11
5.1688624409448813
21
-3.9014264960629919
0
LINE
8
BLACK
6
CONTINUOUS
10
5.1688624409448813
20
-3.9014264960629919
11
5.1714169291338585
21
-3.8997196062992123
0
LINE
8
BLACK
6
CONTINUOUS
10
5.1714169291338585
20
-3.8997196062992123
11
5.1744301968503938
21
-3.8991202362204724
0
LINE
8
BLACK
6
CONTINUOUS
10
5.1744301968503938
20
-3.8991202362204724
11
5.2138002755905513
21
-3.8991202362204724
0
LINE
8
BLACK
6
CONTINUOUS
10
5.2138002755905513
20
-3.8991202362204724
11
5.2168135433070866
21
-3.8997196062992123
0
LINE
8
BLACK
6
CONTINUOUS
10
5.1552820472440946
20
-3.6677786220472441
11
5.1578365354330709
21
-3.6694855118110237
0
LINE
8
BLACK
6
CONTINUOUS
10
5.1578365354330709
20
-3.6694855118110237
11
5.1595434251968504
21
-3.67204
0
LINE
8
BLACK
6
CONTINUOUS
10
5.1595434251968504
20
-3.67204
11
5.1601427952755907
21
-3.6750532677165353
0
LINE
8
BLACK
6
CONTINUOUS
10
5.1601427952755907
20
-3.6750532677165353
11
5.1601427952755907
21
-3.8246595669291339
0
LINE
8
BLACK
6
CONTINUOUS
10
5.1601427952755907
20
-3.8246595669291339
11
5.1595434251968504
21
-3.8276728346456692
0
LINE
8
BLACK
6
CONTINUOUS
10
5.1595434251968504
20
-3.8276728346456692
11
5.1578365354330709
21
-3.8302273228346455
0
LINE
8
BLACK
6
CONTINUOUS
10
5.1578365354330709
20
-3.8302273228346455
11
5.1552820472440946
21
-3.831934212598425
0
LINE
8
BLACK
6
CONTINUOUS
10
5.1552820472440946
20
-3.831934212598425
11
5.1522687795275592
21
-3.8325335826771654
0
LINE
8
BLACK
6
CONTINUOUS
10
5.1522687795275592
20
-3.8325335826771654
11
5.1128987007874018
21
-3.8325335826771654
0
LINE
8
BLACK
6
CONTINUOUS
10
5.1128987007874018
20
-3.8325335826771654
11
5.1098854330708656
21
-3.831934212598425
0
LINE
8
BLACK
6
CONTINUOUS
10
5.1098854330708656
20
-3.831934212598425
11
5.1073309448818893
21
-3.8302273228346455
0
LINE
8
BLACK
6
CONTINUOUS
10
5.1073309448818893
20
-3.8302273228346455
11
5.1056240551181098
21
-3.8276728346456692
0
LINE
8
BLACK
6
CONTINUOUS
10
5.1056240551181098
20
-3.8276728346456692
11
5.1050246850393703
21
-3.8246595669291339
0
LINE
8
BLACK
6
CONTINUOUS
10
5.1050246850393703
20
-3.8246595669291339
11
5.1050246850393703
21
-3.6750532677165353
0
LINE
8
BLACK
6
CONTINUOUS
10
5.1050246850393703
20
-3.6750532677165353
11
5.1056240551181098
21
-3.67204
0
LINE
8
BLACK
6
CONTINUOUS
10
5.1056240551181098
20
-3.67204
11
5.1073309448818893
21
-3.6694855118110237
0
LINE
8
BLACK
6
CONTINUOUS
10
5.1073309448818893
20
-3.6694855118110237
11
5.1098854330708656
21
-3.6677786220472441
0
LINE
8
BLACK
6
CONTINUOUS
10
5.1098854330708656
20
-3.6677786220472441
11
5.1128987007874018
21
-3.6671792519685038
0
LINE
8
BLACK
6
CONTINUOUS
10
5.1128987007874018
20
-3.6671792519685038
11
5.1522687795275592
21
-3.6671792519685038
0
LINE
8
BLACK
6
CONTINUOUS
10
5.1522687795275592
20
-3.6671792519685038
11
5.1552820472440946
21
-3.6677786220472441
0
LINE
8
BLACK
6
CONTINUOUS
10
5.2168135433070866
20
-3.6634991338582674
11
5.2193680314960629
21
-3.6652060236220469
0
LINE
8
BLACK
6
CONTINUOUS
10
5.2193680314960629
20
-3.6652060236220469
11
5.2210749212598424
21
-3.6677605118110237
0
LINE
8
BLACK
6
CONTINUOUS
10
5.2210749212598424
20
-3.6677605118110237
11
5.2216742913385827
21
-3.670773779527559
0
LINE
8
BLACK
6
CONTINUOUS
10
5.2216742913385827
20
-3.670773779527559
11
5.2216742913385827
21
-3.8203800787401576
0
LINE
8
BLACK
6
CONTINUOUS
10
5.2216742913385827
20
-3.8203800787401576
11
5.2210749212598424
21
-3.8233933464566929
0
LINE
8
BLACK
6
CONTINUOUS
10
5.2210749212598424
20
-3.8233933464566929
11
5.2193680314960629
21
-3.8259478346456692
0
LINE
8
BLACK
6
CONTINUOUS
10
5.2193680314960629
20
-3.8259478346456692
11
5.2168135433070866
21
-3.8276547244094488
0
LINE
8
BLACK
6
CONTINUOUS
10
5.2168135433070866
20
-3.8276547244094488
11
5.2138002755905513
21
-3.8282540944881891
0
LINE
8
BLACK
6
CONTINUOUS
10
5.2138002755905513
20
-3.8282540944881891
11
5.1744301968503938
21
-3.8282540944881891
0
LINE
8
BLACK
6
CONTINUOUS
10
5.1744301968503938
20
-3.8282540944881891
11
5.1714169291338585
21
-3.8276547244094488
0
LINE
8
BLACK
6
CONTINUOUS
10
5.1714169291338585
20
-3.8276547244094488
11
5.1688624409448813
21
-3.8259478346456692
0
LINE
8
BLACK
6
CONTINUOUS
10
5.1688624409448813
20
-3.8259478346456692
11
5.1671555511811018
21
-3.8233933464566929
0
LINE
8
BLACK
6
CONTINUOUS
10
5.1671555511811018
20
-3.8233933464566929
11
5.1665561811023624
21
-3.8203800787401576
0
LINE
8
BLACK
6
CONTINUOUS
10
5.1665561811023624
20
-3.8203800787401576
11
5.1665561811023624
21
-3.670773779527559
0
LINE
8
BLACK
6
CONTINUOUS
10
5.1665561811023624
20
-3.670773779527559
11
5.1671555511811018
21
-3.6677605118110237
0
LINE
8
BLACK
6
CONTINUOUS
10
5.1671555511811018
20
-3.6677605118110237
11
5.1688624409448813
21
-3.6652060236220469
0
LINE
8
BLACK
6
CONTINUOUS
10
5.1688624409448813
20
-3.6652060236220469
11
5.1714169291338585
21
-3.6634991338582674
0
LINE
8
BLACK
6
CONTINUOUS
10
5.1714169291338585
20
-3.6634991338582674
11
5.1744301968503938
21
-3.6628997637795275
0
LINE
8
BLACK
6
CONTINUOUS
10
5.1744301968503938
20
-3.6628997637795275
11
5.2138002755905513
21
-3.6628997637795275
0
LINE
8
BLACK
6
CONTINUOUS
10
5.2138002755905513
20
-3.6628997637795275
11
5.2168135433070866
21
-3.6634991338582674
0
LINE
8
BLACK
6
CONTINUOUS
10
5.1894695669291337
20
-3.1815611417322835
11
6.488682165354331
21
-3.1815611417322835
0
LINE
8
BLACK
6
CONTINUOUS
10
6.488682165354331
20
-3.1815611417322835
11
7.0485580708661413
21
-3.1815611417322835
0
LINE
8
BLACK
6
CONTINUOUS
10
7.0485580708661413
20
-3.1815611417322835
11
7.0486472440944876
21
-3.1815619291338582
0
LINE
8
BLACK
6
CONTINUOUS
10
7.0486472440944876
20
-3.1815619291338582
11
7.053918031496063
21
-3.1816566929133856
0
LINE
8
BLACK
6
CONTINUOUS
10
7.053918031496063
20
-3.1816566929133856
11
7.0545348818897633
21
-3.1817064173228347
0
LINE
8
BLACK
6
CONTINUOUS
10
7.0545348818897633
20
-3.1817064173228347
11
7.0650107874015751
21
-3.1832127559055117
0
LINE
8
BLACK
6
CONTINUOUS
10
7.0650107874015751
20
-3.1832127559055117
11
7.0657023622047239
21
-3.183363188976378
0
LINE
8
BLACK
6
CONTINUOUS
10
7.0657023622047239
20
-3.183363188976378
11
7.0758146850393695
21
-3.1863324803149604
0
LINE
8
BLACK
6
CONTINUOUS
10
7.0758146850393695
20
-3.1863324803149604
11
7.0764778346456687
21
-3.1865798425196852
0
LINE
8
BLACK
6
CONTINUOUS
10
7.0764778346456687
20
-3.1865798425196852
11
7.0860646456692908
21
-3.1909580314960628
0
LINE
8
BLACK
6
CONTINUOUS
10
7.0860646456692908
20
-3.1909580314960628
11
7.086685826771653
21
-3.1912972047244095
0
LINE
8
BLACK
6
CONTINUOUS
10
7.086685826771653
20
-3.1912972047244095
11
7.095551968503937
21
-3.1969951574803148
0
LINE
8
BLACK
6
CONTINUOUS
10
7.095551968503937
20
-3.1969951574803148
11
7.0961185433070861
21
-3.1974192913385826
0
LINE
8
BLACK
6
CONTINUOUS
10
7.0961185433070861
20
-3.1974192913385826
11
7.1040835433070866
21
-3.2043209842519684
0
LINE
8
BLACK
6
CONTINUOUS
10
7.1040835433070866
20
-3.2043209842519684
11
7.1045840157480313
21
-3.2048214566929132
0
LINE
8
BLACK
6
CONTINUOUS
10
7.1045840157480313
20
-3.2048214566929132
11
7.1114857874015742
21
-3.2127863779527557
0
LINE
8
BLACK
6
CONTINUOUS
10
7.1114857874015742
20
-3.2127863779527557
11
7.1119099212598424
21
-3.2133529527559053
0
LINE
8
BLACK
6
CONTINUOUS
10
7.1119099212598424
20
-3.2133529527559053
11
7.1176078346456695
21
-3.2222189370078738
0
LINE
8
BLACK
6
CONTINUOUS
10
7.1176078346456695
20
-3.2222189370078738
11
7.117947047244094
21
-3.222840118110236
0
LINE
8
BLACK
6
CONTINUOUS
10
7.117947047244094
20
-3.222840118110236
11
7.1223253543307088
21
-3.2324268503937006
0
LINE
8
BLACK
6
CONTINUOUS
10
7.1223253543307088
20
-3.2324268503937006
11
7.1225727165354327
21
-3.2330899999999998
0
LINE
8
BLACK
6
CONTINUOUS
10
7.1225727165354327
20
-3.2330899999999998
11
7.1255421653543305
21
-3.2432024015748029
0
LINE
8
BLACK
6
CONTINUOUS
10
7.1255421653543305
20
-3.2432024015748029
11
7.1256925984251964
21
-3.2438939763779526
0
LINE
8
BLACK
6
CONTINUOUS
10
7.1256925984251964
20
-3.2438939763779526
11
7.1271989763779526
21
-3.2543696456692914
0
LINE
8
BLACK
6
CONTINUOUS
10
7.1271989763779526
20
-3.2543696456692914
11
7.1272487007874012
21
-3.2549871653543305
0
LINE
8
BLACK
6
CONTINUOUS
10
7.1272487007874012
20
-3.2549871653543305
11
7.1273427952755908
21
-3.2602572047244092
0
LINE
8
BLACK
6
CONTINUOUS
10
7.1273427952755908
20
-3.2602572047244092
11
7.1273435826771649
21
-3.2603457480314959
0
LINE
8
BLACK
6
CONTINUOUS
10
7.1273435826771649
20
-3.2603457480314959
11
7.1273435826771649
21
-4.408331811023622
0
LINE
8
BLACK
6
CONTINUOUS
10
7.1273435826771649
20
-4.408331811023622
11
7.1274398031496062
21
-4.4139574803149602
0
LINE
8
BLACK
6
CONTINUOUS
10
7.1274398031496062
20
-4.4139574803149602
11
7.1290404724409449
21
-4.4250923622047242
0
LINE
8
BLACK
6
CONTINUOUS
10
7.1290404724409449
20
-4.4250923622047242
11
7.132209803149606
21
-4.4358866929133853
0
LINE
8
BLACK
6
CONTINUOUS
10
7.132209803149606
20
-4.4358866929133853
11
7.1368827165354327
21
-4.4461193700787405
0
LINE
8
BLACK
6
CONTINUOUS
10
7.1368827165354327
20
-4.4461193700787405
11
7.1368828740157477
21
-4.4461196062992121
0
LINE
8
BLACK
6
CONTINUOUS
10
7.1368828740157477
20
-4.4461196062992121
11
7.1429646850393702
21
-4.4555833070866138
0
LINE
8
BLACK
6
CONTINUOUS
10
7.1429646850393702
20
-4.4555833070866138
11
7.1503315354330708
21
-4.4640852362204724
0
LINE
8
BLACK
6
CONTINUOUS
10
7.1503315354330708
20
-4.4640852362204724
11
7.1588333858267719
21
-4.4714521653543304
0
LINE
8
BLACK
6
CONTINUOUS
10
7.1588333858267719
20
-4.4714521653543304
11
7.1635363779527559
21
-4.4744746062992125
0
LINE
8
BLACK
6
CONTINUOUS
10
7.1635363779527559
20
-4.4744746062992125
11
7.168296850393701
21
-4.4775339763779529
0
LINE
8
BLACK
6
CONTINUOUS
10
7.168296850393701
20
-4.4775339763779529
11
7.168297007874016
21
-4.4775340551181104
0
LINE
8
BLACK
6
CONTINUOUS
10
7.168297007874016
20
-4.4775340551181104
11
7.177880826771653
21
-4.4819107874015751
0
LINE
8
BLACK
6
CONTINUOUS
10
7.177880826771653
20
-4.4819107874015751
11
7.1793277952755901
21
-4.4829154724409443
0
LINE
8
BLACK
6
CONTINUOUS
10
7.1793277952755901
20
-4.4829154724409443
11
7.1800994488188978
21
-4.4836871259842521
0
LINE
8
BLACK
6
CONTINUOUS
10
7.1800994488188978
20
-4.4836871259842521
11
7.1828568503937005
21
-4.4836871259842521
0
LINE
8
BLACK
6
CONTINUOUS
10
7.1828568503937005
20
-4.4836871259842521
11
7.1842542913385827
21
-4.483888031496063
0
LINE
8
BLACK
6
CONTINUOUS
10
7.1842542913385827
20
-4.483888031496063
11
7.1865362992125981
21
-4.4845580314960625
0
LINE
8
BLACK
6
CONTINUOUS
10
7.1865362992125981
20
-4.4845580314960625
11
7.1865363779527556
21
-4.4845580708661412
0
LINE
8
BLACK
6
CONTINUOUS
10
7.1865363779527556
20
-4.4845580708661412
11
7.1893234645669288
21
-4.4853764173228345
0
LINE
8
BLACK
6
CONTINUOUS
10
7.1893234645669288
20
-4.4853764173228345
11
7.1893239370078739
21
-4.4853765354330708
0
LINE
8
BLACK
6
CONTINUOUS
10
7.1893239370078739
20
-4.4853765354330708
11
7.2004592125984255
21
-4.4869774409448819
0
LINE
8
BLACK
6
CONTINUOUS
10
7.2004592125984255
20
-4.4869774409448819
11
7.200459133858268
21
-4.4869774409448819
0
LINE
8
BLACK
6
CONTINUOUS
10
7.200459133858268
20
-4.4869774409448819
11
7.2060841338582673
21
-4.4870729527559057
0
LINE
8
BLACK
6
CONTINUOUS
10
7.2060841338582673
20
-4.4870729527559057
11
7.241471377952756
21
-4.4870729527559057
0
LINE
8
BLACK
6
CONTINUOUS
10
7.241471377952756
20
-4.4870729527559057
11
7.2415605905511811
21
-4.4870737401574798
0
LINE
8
BLACK
6
CONTINUOUS
10
7.2415605905511811
20
-4.4870737401574798
11
7.2468314173228343
21
-4.4871685433070869
0
LINE
8
BLACK
6
CONTINUOUS
10
7.2468314173228343
20
-4.4871685433070869
11
7.2474482283464567
21
-4.4872182677165355
0
LINE
8
BLACK
6
CONTINUOUS
10
7.2474482283464567
20
-4.4872182677165355
11
7.2579241338582676
21
-4.4887245669291334
0
LINE
8
BLACK
6
CONTINUOUS
10
7.2579241338582676
20
-4.4887245669291334
11
7.2586157086614174
21
-4.4888750000000002
0
LINE
8
BLACK
6
CONTINUOUS
10
7.2586157086614174
20
-4.4888750000000002
11
7.2687281496062992
21
-4.4918443307086617
0
LINE
8
BLACK
6
CONTINUOUS
10
7.2687281496062992
20
-4.4918443307086617
11
7.2693912992125984
21
-4.4920916929133856
0
LINE
8
BLACK
6
CONTINUOUS
10
7.2693912992125984
20
-4.4920916929133856
11
7.278977874015748
21
-4.4964698031496058
0
LINE
8
BLACK
6
CONTINUOUS
10
7.278977874015748
20
-4.4964698031496058
11
7.2795990551181102
21
-4.4968089763779524
0
LINE
8
BLACK
6
CONTINUOUS
10
7.2795990551181102
20
-4.4968089763779524
11
7.2884653149606295
21
-4.5025069685039369
0
LINE
8
BLACK
6
CONTINUOUS
10
7.2884653149606295
20
-4.5025069685039369
11
7.2890318897637796
21
-4.5029311023622043
0
LINE
8
BLACK
6
CONTINUOUS
10
7.2890318897637796
20
-4.5029311023622043
11
7.2969968897637791
21
-4.5098327952755906
0
LINE
8
BLACK
6
CONTINUOUS
10
7.2969968897637791
20
-4.5098327952755906
11
7.2974973622047239
21
-4.5103332677165353
0
LINE
8
BLACK
6
CONTINUOUS
10
7.2974973622047239
20
-4.5103332677165353
11
7.3043991338582677
21
-4.5182981889763782
0
LINE
8
BLACK
6
CONTINUOUS
10
7.3043991338582677
20
-4.5182981889763782
11
7.304823267716535
21
-4.5188647637795274
0
LINE
8
BLACK
6
CONTINUOUS
10
7.304823267716535
20
-4.5188647637795274
11
7.310521181102362
21
-4.5277307480314963
0
LINE
8
BLACK
6
CONTINUOUS
10
7.310521181102362
20
-4.5277307480314963
11
7.3108603937007874
21
-4.5283519291338585
0
LINE
8
BLACK
6
CONTINUOUS
10
7.3108603937007874
20
-4.5283519291338585
11
7.3152387007874013
21
-4.5379386614173232
0
LINE
8
BLACK
6
CONTINUOUS
10
7.3152387007874013
20
-4.5379386614173232
11
7.3154860629921261
21
-4.5386018110236224
0
LINE
8
BLACK
6
CONTINUOUS
10
7.3154860629921261
20
-4.5386018110236224
11
7.3184555118110231
21
-4.5487142519685042
0
LINE
8
BLACK
6
CONTINUOUS
10
7.3184555118110231
20
-4.5487142519685042
11
7.3186059448818899
21
-4.5494058267716531
0
LINE
8
BLACK
6
CONTINUOUS
10
7.3186059448818899
20
-4.5494058267716531
11
7.3201123228346452
21
-4.5598814566929136
0
LINE
8
BLACK
6
CONTINUOUS
10
7.3201123228346452
20
-4.5598814566929136
11
7.3201620472440947
21
-4.5604989370078739
0
LINE
8
BLACK
6
CONTINUOUS
10
7.3201620472440947
20
-4.5604989370078739
11
7.3202561811023621
21
-4.565768976377953
0
LINE
8
BLACK
6
CONTINUOUS
10
7.3202561811023621
20
-4.565768976377953
11
7.3202569685039371
21
-4.565857559055118
0
LINE
8
BLACK
6
CONTINUOUS
10
7.3202569685039371
20
-4.565857559055118
11
7.3202569685039371
21
-4.8571077165354328
0
LINE
8
BLACK
6
CONTINUOUS
10
7.3202569685039371
20
-4.8571077165354328
11
7.3202562204724408
21
-4.8571944488188974
0
LINE
8
BLACK
6
CONTINUOUS
10
7.3202562204724408
20
-4.8571944488188974
11
7.3201640551181102
21
-4.8624652755905506
0
LINE
8
BLACK
6
CONTINUOUS
10
7.3201640551181102
20
-4.8624652755905506
11
7.3201143307086616
21
-4.8630844094488186
0
LINE
8
BLACK
6
CONTINUOUS
10
7.3201143307086616
20
-4.8630844094488186
11
7.3186083858267716
21
-4.8735601181102357
0
LINE
8
BLACK
6
CONTINUOUS
10
7.3186083858267716
20
-4.8735601181102357
11
7.3184579527559057
21
-4.8742517322834642
0
LINE
8
BLACK
6
CONTINUOUS
10
7.3184579527559057
20
-4.8742517322834642
11
7.3154888188976379
21
-4.8843644881889761
0
LINE
8
BLACK
6
CONTINUOUS
10
7.3154888188976379
20
-4.8843644881889761
11
7.3152414960629919
21
-4.8850276377952753
0
LINE
8
BLACK
6
CONTINUOUS
10
7.3152414960629919
20
-4.8850276377952753
11
7.3108632283464567
21
-4.8946151968503937
0
LINE
8
BLACK
6
CONTINUOUS
10
7.3108632283464567
20
-4.8946151968503937
11
7.3105240157480313
21
-4.8952364173228347
0
LINE
8
BLACK
6
CONTINUOUS
10
7.3105240157480313
20
-4.8952364173228347
11
7.3048260629921256
21
-4.904102992125984
0
LINE
8
BLACK
6
CONTINUOUS
10
7.3048260629921256
20
-4.904102992125984
11
7.3044019291338582
21
-4.9046696062992128
0
LINE
8
BLACK
6
CONTINUOUS
10
7.3044019291338582
20
-4.9046696062992128
11
7.2974998818897632
21
-4.9126352755905511
0
LINE
8
BLACK
6
CONTINUOUS
10
7.2974998818897632
20
-4.9126352755905511
11
7.2969994094488184
21
-4.9131357480314959
0
LINE
8
BLACK
6
CONTINUOUS
10
7.2969994094488184
20
-4.9131357480314959
11
7.2890342913385826
21
-4.9200378346456688
0
LINE
8
BLACK
6
CONTINUOUS
10
7.2890342913385826
20
-4.9200378346456688
11
7.2884677165354326
21
-4.9204620078740158
0
LINE
8
BLACK
6
CONTINUOUS
10
7.2884677165354326
20
-4.9204620078740158
11
7.279601023622047
21
-4.9261605118110232
0
LINE
8
BLACK
6
CONTINUOUS
10
7.279601023622047
20
-4.9261605118110232
11
7.278979803149606
21
-4.9264997244094486
0
LINE
8
BLACK
6
CONTINUOUS
10
7.278979803149606
20
-4.9264997244094486
11
7.2693926771653539
21
-4.9308781889763775
0
LINE
8
BLACK
6
CONTINUOUS
10
7.2693926771653539
20
-4.9308781889763775
11
7.2687295275590547
21
-4.9311255511811023
0
LINE
8
BLACK
6
CONTINUOUS
10
7.2687295275590547
20
-4.9311255511811023
11
7.2586165354330703
21
-4.9340951574803151
0
LINE
8
BLACK
6
CONTINUOUS
10
7.2586165354330703
20
-4.9340951574803151
11
7.2579249606299214
21
-4.9342455905511811
0
LINE
8
BLACK
6
CONTINUOUS
10
7.2579249606299214
20
-4.9342455905511811
11
7.247450905511811
21
-4.935751692913386
0
LINE
8
BLACK
6
CONTINUOUS
10
7.247450905511811
20
-4.935751692913386
11
7.2468292125984251
21
-4.9358014960629921
0
LINE
8
BLACK
6
CONTINUOUS
10
7.2468292125984251
20
-4.9358014960629921
11
7.2415585433070868
21
-4.9358911417322835
0
LINE
8
BLACK
6
CONTINUOUS
10
7.2415585433070868
20
-4.9358911417322835
11
7.2414741732283465
21
-4.935891850393701
0
LINE
8
BLACK
6
CONTINUOUS
10
7.2414741732283465
20
-4.935891850393701
11
7.2122081102362205
21
-4.935891850393701
0
LINE
8
BLACK
6
CONTINUOUS
10
7.2122081102362205
20
-4.935891850393701
11
7.2035084251968504
21
-4.9400814173228342
0
LINE
8
BLACK
6
CONTINUOUS
10
7.2035084251968504
20
-4.9400814173228342
11
7.1901732677165349
21
-4.9447475590551182
0
LINE
8
BLACK
6
CONTINUOUS
10
7.1901732677165349
20
-4.9447475590551182
11
7.1763994881889763
21
-4.9478913385826768
0
LINE
8
BLACK
6
CONTINUOUS
10
7.1763994881889763
20
-4.9478913385826768
11
7.1623603149606296
21
-4.9494731889763779
0
LINE
8
BLACK
6
CONTINUOUS
10
7.1623603149606296
20
-4.9494731889763779
11
7.1482323622047241
21
-4.9494731889763779
0
LINE
8
BLACK
6
CONTINUOUS
10
7.1482323622047241
20
-4.9494731889763779
11
7.1341931889763774
21
-4.9478913385826768
0
LINE
8
BLACK
6
CONTINUOUS
10
7.1341931889763774
20
-4.9478913385826768
11
7.1204194094488189
21
-4.9447475590551182
0
LINE
8
BLACK
6
CONTINUOUS
10
7.1204194094488189
20
-4.9447475590551182
11
7.1070842519685034
21
-4.9400814173228342
0
LINE
8
BLACK
6
CONTINUOUS
10
7.1070842519685034
20
-4.9400814173228342
11
7.0983845669291341
21
-4.935891850393701
0
LINE
8
BLACK
6
CONTINUOUS
10
7.0983845669291341
20
-4.935891850393701
11
6.3360045669291338
21
-4.935891850393701
0
LINE
8
BLACK
6
CONTINUOUS
10
6.3360045669291338
20
-4.935891850393701
11
6.3313646062992124
21
-4.9359856692913384
0
LINE
8
BLACK
6
CONTINUOUS
10
6.3313646062992124
20
-4.9359856692913384
11
6.3313642125984249
21
-4.9359857086614172
0
LINE
8
BLACK
6
CONTINUOUS
10
6.3313642125984249
20
-4.9359857086614172
11
6.3221978740157478
21
-4.9374373228346453
0
LINE
8
BLACK
6
CONTINUOUS
10
6.3221978740157478
20
-4.9374373228346453
11
6.3133711811023616
21
-4.9403051181102358
0
LINE
8
BLACK
6
CONTINUOUS
10
6.3133711811023616
20
-4.9403051181102358
11
6.3133708661417325
21
-4.9403052755905508
0
LINE
8
BLACK
6
CONTINUOUS
10
6.3133708661417325
20
-4.9403052755905508
11
6.3051017322834646
21
-4.9445183858267718
0
LINE
8
BLACK
6
CONTINUOUS
10
6.3051017322834646
20
-4.9445183858267718
11
6.2975933464566927
21
-4.9499732677165351
0
LINE
8
BLACK
6
CONTINUOUS
10
6.2975933464566927
20
-4.9499732677165351
11
6.2910303937007876
21
-4.9565358267716535
0
LINE
8
BLACK
6
CONTINUOUS
10
6.2910303937007876
20
-4.9565358267716535
11
6.2855749212598422
21
-4.9640441732283467
0
LINE
8
BLACK
6
CONTINUOUS
10
6.2855749212598422
20
-4.9640441732283467
11
6.2813613779527557
21
-4.9723132283464562
0
LINE
8
BLACK
6
CONTINUOUS
10
6.2813613779527557
20
-4.9723132283464562
11
6.281361338582677
21
-4.9723133464566924
0
LINE
8
BLACK
6
CONTINUOUS
10
6.281361338582677
20
-4.9723133464566924
11
6.2784931102362203
21
-4.9811400393700787
0
LINE
8
BLACK
6
CONTINUOUS
10
6.2784931102362203
20
-4.9811400393700787
11
6.2770410629921258
21
-4.9903063779527557
0
LINE
8
BLACK
6
CONTINUOUS
10
6.2770410629921258
20
-4.9903063779527557
11
6.2770410236220471
21
-4.9903065354330707
0
LINE
8
BLACK
6
CONTINUOUS
10
6.2770410236220471
20
-4.9903065354330707
11
6.276949881889764
21
-4.9949475590551176
0
LINE
8
BLACK
6
CONTINUOUS
10
6.276949881889764
20
-4.9949475590551176
11
6.276949881889764
21
-5.0185210236220472
0
LINE
8
BLACK
6
CONTINUOUS
10
6.276949881889764
20
-5.0185210236220472
11
6.2769489763779527
21
-5.0186162204724409
0
LINE
8
BLACK
6
CONTINUOUS
10
6.2769489763779527
20
-5.0186162204724409
11
6.2768673622047242
21
-5.0228675590551184
0
LINE
8
BLACK
6
CONTINUOUS
10
6.2768673622047242
20
-5.0228675590551184
11
6.2768072047244097
21
-5.0235481889763776
0
LINE
8
BLACK
6
CONTINUOUS
10
6.2768072047244097
20
-5.0235481889763776
11
6.2754701968503932
21
-5.0319916141732284
0
LINE
8
BLACK
6
CONTINUOUS
10
6.2754701968503932
20
-5.0319916141732284
11
6.2752885039370074
21
-5.032748582677165
0
LINE
8
BLACK
6
CONTINUOUS
10
6.2752885039370074
20
-5.032748582677165
11
6.2726618110236219
21
-5.0408334251968503
0
LINE
8
BLACK
6
CONTINUOUS
10
6.2726618110236219
20
-5.0408334251968503
11
6.2723639763779522
21
-5.0415525984251968
0
LINE
8
BLACK
6
CONTINUOUS
10
6.2723639763779522
20
-5.0415525984251968
11
6.268504881889764
21
-5.0491270472440943
0
LINE
8
BLACK
6
CONTINUOUS
10
6.268504881889764
20
-5.0491270472440943
11
6.2680981496062991
21
-5.0497907480314961
0
LINE
8
BLACK
6
CONTINUOUS
10
6.2680981496062991
20
-5.0497907480314961
11
6.2631015748031498
21
-5.0566683070866141
0
LINE
8
BLACK
6
CONTINUOUS
10
6.2631015748031498
20
-5.0566683070866141
11
6.2625960629921256
21
-5.0572602362204719
0
LINE
8
BLACK
6
CONTINUOUS
10
6.2625960629921256
20
-5.0572602362204719
11
6.2565851574803144
21
-5.0632714566929131
0
LINE
8
BLACK
6
CONTINUOUS
10
6.2565851574803144
20
-5.0632714566929131
11
6.2559932283464565
21
-5.0637770472440939
0
LINE
8
BLACK
6
CONTINUOUS
10
6.2559932283464565
20
-5.0637770472440939
11
6.2491160629921261
21
-5.0687738188976379
0
LINE
8
BLACK
6
CONTINUOUS
10
6.2491160629921261
20
-5.0687738188976379
11
6.2484523622047243
21
-5.0691805511811019
0
LINE
8
BLACK
6
CONTINUOUS
10
6.2484523622047243
20
-5.0691805511811019
11
6.2408782677165355
21
-5.073039960629921
0
LINE
8
BLACK
6
CONTINUOUS
10
6.2408782677165355
20
-5.073039960629921
11
6.2401591338582678
21
-5.0733378346456695
0
LINE
8
BLACK
6
CONTINUOUS
10
6.2401591338582678
20
-5.0733378346456695
11
6.2320742519685037
21
-5.0759649606299213
0
LINE
8
BLACK
6
CONTINUOUS
10
6.2320742519685037
20
-5.0759649606299213
11
6.2313173228346459
21
-5.0761466929133858
0
LINE
8
BLACK
6
CONTINUOUS
10
6.2313173228346459
20
-5.0761466929133858
11
6.2228754330708664
21
-5.0774838976377952
0
LINE
8
BLACK
6
CONTINUOUS
10
6.2228754330708664
20
-5.0774838976377952
11
6.2221916535433071
21
-5.0775441338582672
0
LINE
8
BLACK
6
CONTINUOUS
10
6.2221916535433071
20
-5.0775441338582672
11
6.2179412992125984
21
-5.0776232677165352
0
LINE
8
BLACK
6
CONTINUOUS
10
6.2179412992125984
20
-5.0776232677165352
11
6.2178489763779528
21
-5.0776241338582677
0
LINE
8
BLACK
6
CONTINUOUS
10
6.2178489763779528
20
-5.0776241338582677
11
5.1350601181102364
21
-5.0776241338582677
0
LINE
8
BLACK
6
CONTINUOUS
10
5.1350601181102364
20
-5.0776241338582677
11
3.8349272834645669
21
-5.0776241338582677
0
LINE
8
BLACK
6
CONTINUOUS
10
3.8349272834645669
20
-5.0776241338582677
11
3.7179362204724407
21
-5.0776241338582677
0
LINE
8
BLACK
6
CONTINUOUS
10
3.7179362204724407
20
-5.0776241338582677
11
3.7178526771653542
21
-5.0776234251968502
0
LINE
8
BLACK
6
CONTINUOUS
10
3.7178526771653542
20
-5.0776234251968502
11
3.7125827559055118
21
-5.0775346456692914
0
LINE
8
BLACK
6
CONTINUOUS
10
3.7125827559055118
20
-5.0775346456692914
11
3.7119603937007875
21
-5.077484881889764
0
LINE
8
BLACK
6
CONTINUOUS
10
3.7119603937007875
20
-5.077484881889764
11
3.7014858267716533
21
-5.0759790157480316
0
LINE
8
BLACK
6
CONTINUOUS
10
3.7014858267716533
20
-5.0759790157480316
11
3.7007941732283465
21
-5.0758285433070869
0
LINE
8
BLACK
6
CONTINUOUS
10
3.7007941732283465
20
-5.0758285433070869
11
3.6906812992125984
21
-5.0728591732283466
0
LINE
8
BLACK
6
CONTINUOUS
10
3.6906812992125984
20
-5.0728591732283466
11
3.6900181496062991
21
-5.0726118503937005
0
LINE
8
BLACK
6
CONTINUOUS
10
3.6900181496062991
20
-5.0726118503937005
11
3.6804304330708661
21
-5.0682333464566929
0
LINE
8
BLACK
6
CONTINUOUS
10
3.6804304330708661
20
-5.0682333464566929
11
3.6798092125984252
21
-5.0678941338582675
0
LINE
8
BLACK
6
CONTINUOUS
10
3.6798092125984252
20
-5.0678941338582675
11
3.6709423228346454
21
-5.0621957086614175
0
LINE
8
BLACK
6
CONTINUOUS
10
3.6709423228346454
20
-5.0621957086614175
11
3.670375708661417
21
-5.0617715354330706
0
LINE
8
BLACK
6
CONTINUOUS
10
3.670375708661417
20
-5.0617715354330706
11
3.662410157480315
21
-5.0548692913385826
0
LINE
8
BLACK
6
CONTINUOUS
10
3.662410157480315
20
-5.0548692913385826
11
3.6619096850393702
21
-5.0543688188976379
0
LINE
8
BLACK
6
CONTINUOUS
10
3.6619096850393702
20
-5.0543688188976379
11
3.6550075196850393
21
-5.0464031889763774
0
LINE
8
BLACK
6
CONTINUOUS
10
3.6550075196850393
20
-5.0464031889763774
11
3.6545833464566928
21
-5.0458365748031495
0
LINE
8
BLACK
6
CONTINUOUS
10
3.6545833464566928
20
-5.0458365748031495
11
3.6488848818897637
21
-5.0369694094488189
0
LINE
8
BLACK
6
CONTINUOUS
10
3.6488848818897637
20
-5.0369694094488189
11
3.648545708661417
21
-5.0363481889763779
0
LINE
8
BLACK
6
CONTINUOUS
10
3.648545708661417
20
-5.0363481889763779
11
3.6441674409448819
21
-5.0267608267716533
0
LINE
8
BLACK
6
CONTINUOUS
10
3.6441674409448819
20
-5.0267608267716533
11
3.6439200787401576
21
-5.0260976377952753
0
LINE
8
BLACK
6
CONTINUOUS
10
3.6439200787401576
20
-5.0260976377952753
11
3.640950748031496
21
-5.0159843307086609
0
LINE
8
BLACK
6
CONTINUOUS
10
3.640950748031496
20
-5.0159843307086609
11
3.6408003149606301
21
-5.0152927165354333
0
LINE
8
BLACK
6
CONTINUOUS
10
3.6408003149606301
20
-5.0152927165354333
11
3.640149960629921
21
-5.0107686614173224
0
LINE
8
BLACK
6
CONTINUOUS
10
3.640149960629921
20
-5.0107686614173224
11
3.6400994881889761
21
-5.0100627952755907
0
LINE
8
BLACK
6
CONTINUOUS
10
3.6400994881889761
20
-5.0100627952755907
11
3.6400994881889761
21
-4.7121312204724406
0
LINE
8
BLACK
6
CONTINUOUS
10
3.6400994881889761
20
-4.7121312204724406
11
3.6401499999999998
21
-4.7114251574803152
0
LINE
8
BLACK
6
CONTINUOUS
10
3.6401499999999998
20
-4.7114251574803152
11
3.6408027952755906
21
-4.7068854724409448
0
LINE
8
BLACK
6
CONTINUOUS
10
3.6408027952755906
20
-4.7068854724409448
11
3.6409532677165353
21
-4.7061938582677163
0
LINE
8
BLACK
6
CONTINUOUS
10
3.6409532677165353
20
-4.7061938582677163
11
3.6439227165354331
21
-4.6960816929133857
0
LINE
8
BLACK
6
CONTINUOUS
10
3.6439227165354331
20
-4.6960816929133857
11
3.6441700393700787
21
-4.6954185826771653
0
LINE
8
BLACK
6
CONTINUOUS
10
3.6441700393700787
20
-4.6954185826771653
11
3.6485485826771651
21
-4.6858313779527556
0
LINE
8
BLACK
6
CONTINUOUS
10
3.6485485826771651
20
-4.6858313779527556
11
3.6488877952755905
21
-4.6852101574803147
0
LINE
8
BLACK
6
CONTINUOUS
10
3.6488877952755905
20
-4.6852101574803147
11
3.6545861023622046
21
-4.6763438188976378
0
LINE
8
BLACK
6
CONTINUOUS
10
3.6545861023622046
20
-4.6763438188976378
11
3.6550102755905511
21
-4.6757772440944878
0
LINE
8
BLACK
6
CONTINUOUS
10
3.6550102755905511
20
-4.6757772440944878
11
3.6619121653543307
21
-4.6678123228346458
0
LINE
8
BLACK
6
CONTINUOUS
10
3.6619121653543307
20
-4.6678123228346458
11
3.6624126377952755
21
-4.667311850393701
0
LINE
8
BLACK
6
CONTINUOUS
10
3.6624126377952755
20
-4.667311850393701
11
3.6703781102362205
21
-4.6604099999999997
0
LINE
8
BLACK
6
CONTINUOUS
10
3.6703781102362205
20
-4.6604099999999997
11
3.6709447244094489
21
-4.6599858661417324
0
LINE
8
BLACK
6
CONTINUOUS
10
3.6709447244094489
20
-4.6599858661417324
11
3.6798111811023619
21
-4.6542879527559053
0
LINE
8
BLACK
6
CONTINUOUS
10
3.6798111811023619
20
-4.6542879527559053
11
3.6804323622047241
21
-4.6539487795275587
0
LINE
8
BLACK
6
CONTINUOUS
10
3.6804323622047241
20
-4.6539487795275587
11
3.6900193307086613
21
-4.6495707086614173
0
LINE
8
BLACK
6
CONTINUOUS
10
3.6900193307086613
20
-4.6495707086614173
11
3.6906825196850392
21
-4.6493233464566925
0
LINE
8
BLACK
6
CONTINUOUS
10
3.6906825196850392
20
-4.6493233464566925
11
3.7007952362204724
21
-4.646354173228346
0
LINE
8
BLACK
6
CONTINUOUS
10
3.7007952362204724
20
-4.646354173228346
11
3.7014868110236221
21
-4.6462037401574801
0
LINE
8
BLACK
6
CONTINUOUS
10
3.7014868110236221
20
-4.6462037401574801
11
3.7119631102362205
21
-4.6446976377952751
0
LINE
8
BLACK
6
CONTINUOUS
10
3.7119631102362205
20
-4.6446976377952751
11
3.7125806299212596
21
-4.6446479527559053
0
LINE
8
BLACK
6
CONTINUOUS
10
3.7125806299212596
20
-4.6446479527559053
11
3.7178881496062992
21
-4.6445533858267716
0
LINE
8
BLACK
6
CONTINUOUS
10
3.7178881496062992
20
-4.6445533858267716
11
3.7178947244094487
21
-4.6445532677165353
0
LINE
8
BLACK
6
CONTINUOUS
10
3.7178947244094487
20
-4.6445532677165353
11
3.7235198818897639
21
-4.6444604724409446
0
LINE
8
BLACK
6
CONTINUOUS
10
3.7235198818897639
20
-4.6444604724409446
11
3.7346543307086613
21
-4.6428594488188972
0
LINE
8
BLACK
6
CONTINUOUS
10
3.7346543307086613
20
-4.6428594488188972
11
3.7346545669291338
21
-4.6428594094488185
0
LINE
8
BLACK
6
CONTINUOUS
10
3.7346545669291338
20
-4.6428594094488185
11
3.7454487007874016
21
-4.6396898031496061
0
LINE
8
BLACK
6
CONTINUOUS
10
3.7454487007874016
20
-4.6396898031496061
11
3.7454489370078741
21
-4.6396897244094486
0
LINE
8
BLACK
6
CONTINUOUS
10
3.7454489370078741
20
-4.6396897244094486
11
3.7556819685039371
21
-4.6350162204724406
0
LINE
8
BLACK
6
CONTINUOUS
10
3.7556819685039371
20
-4.6350162204724406
11
3.7651458267716533
21
-4.6289339370078739
0
LINE
8
BLACK
6
CONTINUOUS
10
3.7651458267716533
20
-4.6289339370078739
11
3.7736475984251969
21
-4.6215668503937009
0
LINE
8
BLACK
6
CONTINUOUS
10
3.7736475984251969
20
-4.6215668503937009
11
3.7810144094488187
21
-4.613064803149606
0
LINE
8
BLACK
6
CONTINUOUS
10
3.7810144094488187
20
-4.613064803149606
11
3.787096181102362
21
-4.6036009448818893
0
LINE
8
BLACK
6
CONTINUOUS
10
3.787096181102362
20
-4.6036009448818893
11
3.787096338582677
21
-4.6036007086614168
0
LINE
8
BLACK
6
CONTINUOUS
10
3.787096338582677
20
-4.6036007086614168
11
3.7887690944881891
21
-4.5999377165354334
0
LINE
8
BLACK
6
CONTINUOUS
10
3.7887690944881891
20
-4.5999377165354334
11
3.7917694881889763
21
-4.5933674015748034
0
LINE
8
BLACK
6
CONTINUOUS
10
3.7917694881889763
20
-4.5933674015748034
11
3.7949387007874016
21
-4.5825732677165352
0
LINE
8
BLACK
6
CONTINUOUS
10
3.7949387007874016
20
-4.5825732677165352
11
3.7965394881889765
21
-4.5714379133858269
0
LINE
8
BLACK
6
CONTINUOUS
10
3.7965394881889765
20
-4.5714379133858269
11
3.7965394881889765
21
-4.5714378346456694
0
LINE
8
BLACK
6
CONTINUOUS
10
3.7965394881889765
20
-4.5714378346456694
11
3.7966349212598423
21
-4.5658128346456692
0
LINE
8
BLACK
6
CONTINUOUS
10
3.7966349212598423
20
-4.5658128346456692
11
3.7966349212598423
21
-3.4288839763779526
0
LINE
8
BLACK
6
CONTINUOUS
10
3.7966349212598423
20
-3.4288839763779526
11
3.7966349212598423
21
-3.2603441338582675
0
LINE
8
BLACK
6
CONTINUOUS
10
3.7966349212598423
20
-3.2603441338582675
11
3.7966356692913386
21
-3.2602581496062992
0
LINE
8
BLACK
6
CONTINUOUS
10
3.7966356692913386
20
-3.2602581496062992
11
3.7967270078740158
21
-3.2549883858267714
0
LINE
8
BLACK
6
CONTINUOUS
10
3.7967270078740158
20
-3.2549883858267714
11
3.7967767716535432
21
-3.2543682677165355
0
LINE
8
BLACK
6
CONTINUOUS
10
3.7967767716535432
20
-3.2543682677165355
11
3.7982831102362202
21
-3.2438933070866143
0
LINE
8
BLACK
6
CONTINUOUS
10
3.7982831102362202
20
-3.2438933070866143
11
3.7984335826771654
21
-3.2432017322834645
0
LINE
8
BLACK
6
CONTINUOUS
10
3.7984335826771654
20
-3.2432017322834645
11
3.8014030314960627
21
-3.233089566929134
0
LINE
8
BLACK
6
CONTINUOUS
10
3.8014030314960627
20
-3.233089566929134
11
3.8016503543307087
21
-3.2324264566929135
0
LINE
8
BLACK
6
CONTINUOUS
10
3.8016503543307087
20
-3.2324264566929135
11
3.8060288976377952
21
-3.2228392519685038
0
LINE
8
BLACK
6
CONTINUOUS
10
3.8060288976377952
20
-3.2228392519685038
11
3.8063681102362206
21
-3.2222180314960629
0
LINE
8
BLACK
6
CONTINUOUS
10
3.8063681102362206
20
-3.2222180314960629
11
3.8120664173228347
21
-3.2133516929133856
0
LINE
8
BLACK
6
CONTINUOUS
10
3.8120664173228347
20
-3.2133516929133856
11
3.8124905905511812
21
-3.212785118110236
0
LINE
8
BLACK
6
CONTINUOUS
10
3.8124905905511812
20
-3.212785118110236
11
3.8193924803149604
21
-3.2048201968503935
0
LINE
8
BLACK
6
CONTINUOUS
10
3.8193924803149604
20
-3.2048201968503935
11
3.8198929527559056
21
-3.2043197244094488
0
LINE
8
BLACK
6
CONTINUOUS
10
3.8198929527559056
20
-3.2043197244094488
11
3.8278584251968502
21
-3.197417874015748
0
LINE
8
BLACK
6
CONTINUOUS
10
3.8278584251968502
20
-3.197417874015748
11
3.8284250393700785
21
-3.1969937401574802
0
LINE
8
BLACK
6
CONTINUOUS
10
3.8284250393700785
20
-3.1969937401574802
11
3.837291496062992
21
-3.1912958267716536
0
LINE
8
BLACK
6
CONTINUOUS
10
3.837291496062992
20
-3.1912958267716536
11
3.8379126771653542
21
-3.1909566535433069
0
LINE
8
BLACK
6
CONTINUOUS
10
3.8379126771653542
20
-3.1909566535433069
11
3.8474996456692914
21
-3.1865785826771651
0
LINE
8
BLACK
6
CONTINUOUS
10
3.8474996456692914
20
-3.1865785826771651
11
3.8481628346456693
21
-3.1863312204724408
0
LINE
8
BLACK
6
CONTINUOUS
10
3.8481628346456693
20
-3.1863312204724408
11
3.8582755511811024
21
-3.1833620472440942
0
LINE
8
BLACK
6
CONTINUOUS
10
3.8582755511811024
20
-3.1833620472440942
11
3.8589671259842517
21
-3.1832116141732283
0
LINE
8
BLACK
6
CONTINUOUS
10
3.8589671259842517
20
-3.1832116141732283
11
3.8694434251968501
21
-3.1817055118110233
0
LINE
8
BLACK
6
CONTINUOUS
10
3.8694434251968501
20
-3.1817055118110233
11
3.8700609448818897
21
-3.1816558267716535
0
LINE
8
BLACK
6
CONTINUOUS
10
3.8700609448818897
20
-3.1816558267716535
11
3.8753309055118108
21
-3.1815619291338582
0
LINE
8
BLACK
6
CONTINUOUS
10
3.8753309055118108
20
-3.1815619291338582
11
3.8754192913385825
21
-3.1815611417322835
0
LINE
8
BLACK
6
CONTINUOUS
10
3.8754192913385825
20
-3.1815611417322835
11
5.1894695669291337
21
-3.1815611417322835
0
LINE
8
BLACK
6
CONTINUOUS
10
5.3122254724409448
20
-3.2573879527559053
11
5.3116261023622044
21
-3.2604012204724411
0
LINE
8
BLACK
6
CONTINUOUS
10
5.3116261023622044
20
-3.2604012204724411
11
5.3099192125984249
21
-3.2629557086614174
0
LINE
8
BLACK
6
CONTINUOUS
10
5.3099192125984249
20
-3.2629557086614174
11
5.3073647244094486
21
-3.2646625984251969
0
LINE
8
BLACK
6
CONTINUOUS
10
5.3073647244094486
20
-3.2646625984251969
11
5.3043514566929133
21
-3.2652619685039368
0
LINE
8
BLACK
6
CONTINUOUS
10
5.3043514566929133
20
-3.2652619685039368
11
5.2216742913385827
21
-3.2652619685039368
0
LINE
8
BLACK
6
CONTINUOUS
10
5.2216742913385827
20
-3.2652619685039368
11
5.2216742913385827
21
-3.3479391338582678
0
LINE
8
BLACK
6
CONTINUOUS
10
5.2216742913385827
20
-3.3479391338582678
11
5.2210749212598424
21
-3.3509524015748031
0
LINE
8
BLACK
6
CONTINUOUS
10
5.2210749212598424
20
-3.3509524015748031
11
5.2193680314960629
21
-3.3535068897637794
0
LINE
8
BLACK
6
CONTINUOUS
10
5.2193680314960629
20
-3.3535068897637794
11
5.2168135433070866
21
-3.3552137795275589
0
LINE
8
BLACK
6
CONTINUOUS
10
5.2168135433070866
20
-3.3552137795275589
11
5.2138002755905513
21
-3.3558131496062993
0
LINE
8
BLACK
6
CONTINUOUS
10
5.2138002755905513
20
-3.3558131496062993
11
5.1844301968503936
21
-3.3558131496062993
0
LINE
8
BLACK
6
CONTINUOUS
10
5.1844301968503936
20
-3.3558131496062993
11
5.1844301968503936
21
-3.4266792913385826
0
LINE
8
BLACK
6
CONTINUOUS
10
5.1844301968503936
20
-3.4266792913385826
11
5.2138002755905513
21
-3.4266792913385826
0
LINE
8
BLACK
6
CONTINUOUS
10
5.2138002755905513
20
-3.4266792913385826
11
5.2168135433070866
21
-3.427278661417323
0
LINE
8
BLACK
6
CONTINUOUS
10
5.2168135433070866
20
-3.427278661417323
11
5.2193680314960629
21
-3.4289855511811025
0
LINE
8
BLACK
6
CONTINUOUS
10
5.2193680314960629
20
-3.4289855511811025
11
5.2210749212598424
21
-3.4315400393700788
0
LINE
8
BLACK
6
CONTINUOUS
10
5.2210749212598424
20
-3.4315400393700788
11
5.2216742913385827
21
-3.4345533070866141
0
LINE
8
BLACK
6
CONTINUOUS
10
5.2216742913385827
20
-3.4345533070866141
11
5.2216742913385827
21
-3.5841596062992127
0
LINE
8
BLACK
6
CONTINUOUS
10
5.2216742913385827
20
-3.5841596062992127
11
5.2210749212598424
21
-3.587172874015748
0
LINE
8
BLACK
6
CONTINUOUS
10
5.2210749212598424
20
-3.587172874015748
11
5.2193680314960629
21
-3.5897273622047243
0
LINE
8
BLACK
6
CONTINUOUS
10
5.2193680314960629
20
-3.5897273622047243
11
5.2168135433070866
21
-3.5914342519685039
0
LINE
8
BLACK
6
CONTINUOUS
10
5.2168135433070866
20
-3.5914342519685039
11
5.2138002755905513
21
-3.5920336220472442
0
LINE
8
BLACK
6
CONTINUOUS
10
5.2138002755905513
20
-3.5920336220472442
11
5.1744301968503938
21
-3.5920336220472442
0
LINE
8
BLACK
6
CONTINUOUS
10
5.1744301968503938
20
-3.5920336220472442
11
5.1714169291338585
21
-3.5914342519685039
0
LINE
8
BLACK
6
CONTINUOUS
10
5.1714169291338585
20
-3.5914342519685039
11
5.1688624409448813
21
-3.5897273622047243
0
LINE
8
BLACK
6
CONTINUOUS
10
5.1688624409448813
20
-3.5897273622047243
11
5.1671555511811018
21
-3.587172874015748
0
LINE
8
BLACK
6
CONTINUOUS
10
5.1671555511811018
20
-3.587172874015748
11
5.1665561811023624
21
-3.5841596062992127
0
LINE
8
BLACK
6
CONTINUOUS
10
5.1665561811023624
20
-3.5841596062992127
11
5.1665561811023624
21
-3.4732934251968501
0
LINE
8
BLACK
6
CONTINUOUS
10
5.1665561811023624
20
-3.4732934251968501
11
5.1601427952755907
21
-3.4732934251968501
0
LINE
8
BLACK
6
CONTINUOUS
10
5.1601427952755907
20
-3.4732934251968501
11
5.1601427952755907
21
-3.4978879133858265
0
LINE
8
BLACK
6
CONTINUOUS
10
5.1601427952755907
20
-3.4978879133858265
11
5.1601427952755907
21
-3.588439094488189
0
LINE
8
BLACK
6
CONTINUOUS
10
5.1601427952755907
20
-3.588439094488189
11
5.1595434251968504
21
-3.5914523622047243
0
LINE
8
BLACK
6
CONTINUOUS
10
5.1595434251968504
20
-3.5914523622047243
11
5.1578365354330709
21
-3.5940068503937006
0
LINE
8
BLACK
6
CONTINUOUS
10
5.1578365354330709
20
-3.5940068503937006
11
5.1552820472440946
21
-3.5957137401574801
0
LINE
8
BLACK
6
CONTINUOUS
10
5.1552820472440946
20
-3.5957137401574801
11
5.1522687795275592
21
-3.5963131102362205
0
LINE
8
BLACK
6
CONTINUOUS
10
5.1522687795275592
20
-3.5963131102362205
11
5.1128987007874018
21
-3.5963131102362205
0
LINE
8
BLACK
6
CONTINUOUS
10
5.1128987007874018
20
-3.5963131102362205
11
5.1098854330708656
21
-3.5957137401574801
0
LINE
8
BLACK
6
CONTINUOUS
10
5.1098854330708656
20
-3.5957137401574801
11
5.1073309448818893
21
-3.5940068503937006
0
LINE
8
BLACK
6
CONTINUOUS
10
5.1073309448818893
20
-3.5940068503937006
11
5.1056240551181098
21
-3.5914523622047243
0
LINE
8
BLACK
6
CONTINUOUS
10
5.1056240551181098
20
-3.5914523622047243
11
5.1050246850393703
21
-3.588439094488189
0
LINE
8
BLACK
6
CONTINUOUS
10
5.1050246850393703
20
-3.588439094488189
11
5.1050246850393703
21
-3.505761929133858
0
LINE
8
BLACK
6
CONTINUOUS
10
5.1050246850393703
20
-3.505761929133858
11
5.0223475196850389
21
-3.505761929133858
0
LINE
8
BLACK
6
CONTINUOUS
10
5.0223475196850389
20
-3.505761929133858
11
5.0193342519685036
21
-3.5051625590551181
0
LINE
8
BLACK
6
CONTINUOUS
10
5.0193342519685036
20
-3.5051625590551181
11
5.0167797637795273
21
-3.5034556692913386
0
LINE
8
BLACK
6
CONTINUOUS
10
5.0167797637795273
20
-3.5034556692913386
11
5.0150728740157478
21
-3.5009011811023623
0
LINE
8
BLACK
6
CONTINUOUS
10
5.0150728740157478
20
-3.5009011811023623
11
5.0144735039370074
21
-3.4978879133858265
0
LINE
8
BLACK
6
CONTINUOUS
10
5.0144735039370074
20
-3.4978879133858265
11
5.0144735039370074
21
-3.4732934251968501
0
LINE
8
BLACK
6
CONTINUOUS
10
5.0144735039370074
20
-3.4732934251968501
11
4.9436073622047241
21
-3.4732934251968501
0
LINE
8
BLACK
6
CONTINUOUS
10
4.9436073622047241
20
-3.4732934251968501
11
4.9436073622047241
21
-3.4978879133858265
0
LINE
8
BLACK
6
CONTINUOUS
10
4.9436073622047241
20
-3.4978879133858265
11
4.9430079921259837
21
-3.5009011811023623
0
LINE
8
BLACK
6
CONTINUOUS
10
4.9430079921259837
20
-3.5009011811023623
11
4.9413011023622042
21
-3.5034556692913386
0
LINE
8
BLACK
6
CONTINUOUS
10
4.9413011023622042
20
-3.5034556692913386
11
4.9387466141732279
21
-3.5051625590551181
0
LINE
8
BLACK
6
CONTINUOUS
10
4.9387466141732279
20
-3.5051625590551181
11
4.9357333464566926
21
-3.505761929133858
0
LINE
8
BLACK
6
CONTINUOUS
10
4.9357333464566926
20
-3.505761929133858
11
4.7861270472440944
21
-3.505761929133858
0
LINE
8
BLACK
6
CONTINUOUS
10
4.7861270472440944
20
-3.505761929133858
11
4.7831137795275591
21
-3.5051625590551181
0
LINE
8
BLACK
6
CONTINUOUS
10
4.7831137795275591
20
-3.5051625590551181
11
4.7805592913385828
21
-3.5034556692913386
0
LINE
8
BLACK
6
CONTINUOUS
10
4.7805592913385828
20
-3.5034556692913386
11
4.7788524015748033
21
-3.5009011811023623
0
LINE
8
BLACK
6
CONTINUOUS
10
4.7788524015748033
20
-3.5009011811023623
11
4.778253031496063
21
-3.4978879133858265
0
LINE
8
BLACK
6
CONTINUOUS
10
4.778253031496063
20
-3.4978879133858265
11
4.778253031496063
21
-3.4732934251968501
0
LINE
8
BLACK
6
CONTINUOUS
10
4.778253031496063
20
-3.4732934251968501
11
4.7073868897637796
21
-3.4732934251968501
0
LINE
8
BLACK
6
CONTINUOUS
10
4.7073868897637796
20
-3.4732934251968501
11
4.7073868897637796
21
-3.4978879133858265
0
LINE
8
BLACK
6
CONTINUOUS
10
4.7073868897637796
20
-3.4978879133858265
11
4.7067875196850393
21
-3.5009011811023623
0
LINE
8
BLACK
6
CONTINUOUS
10
4.7067875196850393
20
-3.5009011811023623
11
4.7050806299212597
21
-3.5034556692913386
0
LINE
8
BLACK
6
CONTINUOUS
10
4.7050806299212597
20
-3.5034556692913386
11
4.7025261417322834
21
-3.5051625590551181
0
LINE
8
BLACK
6
CONTINUOUS
10
4.7025261417322834
20
-3.5051625590551181
11
4.6995128740157481
21
-3.505761929133858
0
LINE
8
BLACK
6
CONTINUOUS
10
4.6995128740157481
20
-3.505761929133858
11
4.5499065748031491
21
-3.505761929133858
0
LINE
8
BLACK
6
CONTINUOUS
10
4.5499065748031491
20
-3.505761929133858
11
4.5468933070866138
21
-3.5051625590551181
0
LINE
8
BLACK
6
CONTINUOUS
10
4.5468933070866138
20
-3.5051625590551181
11
4.5443388188976375
21
-3.5034556692913386
0
LINE
8
BLACK
6
CONTINUOUS
10
4.5443388188976375
20
-3.5034556692913386
11
4.5426319291338579
21
-3.5009011811023623
0
LINE
8
BLACK
6
CONTINUOUS
10
4.5426319291338579
20
-3.5009011811023623
11
4.5420325590551176
21
-3.4978879133858265
0
LINE
8
BLACK
6
CONTINUOUS
10
4.5420325590551176
20
-3.4978879133858265
11
4.5420325590551176
21
-3.4732934251968501
0
LINE
8
BLACK
6
CONTINUOUS
10
4.5420325590551176
20
-3.4732934251968501
11
4.4711664173228343
21
-3.4732934251968501
0
LINE
8
BLACK
6
CONTINUOUS
10
4.4711664173228343
20
-3.4732934251968501
11
4.4711664173228343
21
-3.4978879133858265
0
LINE
8
BLACK
6
CONTINUOUS
10
4.4711664173228343
20
-3.4978879133858265
11
4.4705670472440948
21
-3.5009011811023623
0
LINE
8
BLACK
6
CONTINUOUS
10
4.4705670472440948
20
-3.5009011811023623
11
4.4688601574803153
21
-3.5034556692913386
0
LINE
8
BLACK
6
CONTINUOUS
10
4.4688601574803153
20
-3.5034556692913386
11
4.4663056692913381
21
-3.5051625590551181
0
LINE
8
BLACK
6
CONTINUOUS
10
4.4663056692913381
20
-3.5051625590551181
11
4.4632924015748028
21
-3.505761929133858
0
LINE
8
BLACK
6
CONTINUOUS
10
4.4632924015748028
20
-3.505761929133858
11
4.3136861023622046
21
-3.505761929133858
0
LINE
8
BLACK
6
CONTINUOUS
10
4.3136861023622046
20
-3.505761929133858
11
4.3106728346456693
21
-3.5051625590551181
0
LINE
8
BLACK
6
CONTINUOUS
10
4.3106728346456693
20
-3.5051625590551181
11
4.308118346456693
21
-3.5034556692913386
0
LINE
8
BLACK
6
CONTINUOUS
10
4.308118346456693
20
-3.5034556692913386
11
4.3064114566929135
21
-3.5009011811023623
0
LINE
8
BLACK
6
CONTINUOUS
10
4.3064114566929135
20
-3.5009011811023623
11
4.3058120866141731
21
-3.4978879133858265
0
LINE
8
BLACK
6
CONTINUOUS
10
4.3058120866141731
20
-3.4978879133858265
11
4.3058120866141731
21
-3.4732934251968501
0
LINE
8
BLACK
6
CONTINUOUS
10
4.3058120866141731
20
-3.4732934251968501
11
4.2349459448818898
21
-3.4732934251968501
0
LINE
8
BLACK
6
CONTINUOUS
10
4.2349459448818898
20
-3.4732934251968501
11
4.2349459448818898
21
-3.4978879133858265
0
LINE
8
BLACK
6
CONTINUOUS
10
4.2349459448818898
20
-3.4978879133858265
11
4.2343465748031495
21
-3.5009011811023623
0
LINE
8
BLACK
6
CONTINUOUS
10
4.2343465748031495
20
-3.5009011811023623
11
4.2326396850393699
21
-3.5034556692913386
0
LINE
8
BLACK
6
CONTINUOUS
10
4.2326396850393699
20
-3.5034556692913386
11
4.2300851968503936
21
-3.5051625590551181
0
LINE
8
BLACK
6
CONTINUOUS
10
4.2300851968503936
20
-3.5051625590551181
11
4.2270719291338583
21
-3.505761929133858
0
LINE
8
BLACK
6
CONTINUOUS
10
4.2270719291338583
20
-3.505761929133858
11
4.0774656299212602
21
-3.505761929133858
0
LINE
8
BLACK
6
CONTINUOUS
10
4.0774656299212602
20
-3.505761929133858
11
4.074452362204724
21
-3.5051625590551181
0
LINE
8
BLACK
6
CONTINUOUS
10
4.074452362204724
20
-3.5051625590551181
11
4.0718978740157477
21
-3.5034556692913386
0
LINE
8
BLACK
6
CONTINUOUS
10
4.0718978740157477
20
-3.5034556692913386
11
4.0701909842519681
21
-3.5009011811023623
0
LINE
8
BLACK
6
CONTINUOUS
10
4.0701909842519681
20
-3.5009011811023623
11
4.0695916141732287
21
-3.4978879133858265
0
LINE
8
BLACK
6
CONTINUOUS
10
4.0695916141732287
20
-3.4978879133858265
11
4.0695916141732287
21
-3.4732934251968501
0
LINE
8
BLACK
6
CONTINUOUS
10
4.0695916141732287
20
-3.4732934251968501
11
3.9987254724409449
21
-3.4732934251968501
0
LINE
8
BLACK
6
CONTINUOUS
10
3.9987254724409449
20
-3.4732934251968501
11
3.9987254724409449
21
-3.4978879133858265
0
LINE
8
BLACK
6
CONTINUOUS
10
3.9987254724409449
20
-3.4978879133858265
11
3.9981261023622046
21
-3.5009011811023623
0
LINE
8
BLACK
6
CONTINUOUS
10
3.9981261023622046
20
-3.5009011811023623
11
3.996419212598425
21
-3.5034556692913386
0
LINE
8
BLACK
6
CONTINUOUS
10
3.996419212598425
20
-3.5034556692913386
11
3.9938647244094487
21
-3.5051625590551181
0
LINE
8
BLACK
6
CONTINUOUS
10
3.9938647244094487
20
-3.5051625590551181
11
3.9908514566929134
21
-3.505761929133858
0
LINE
8
BLACK
6
CONTINUOUS
10
3.9908514566929134
20
-3.505761929133858
11
3.9081742913385824
21
-3.505761929133858
0
LINE
8
BLACK
6
CONTINUOUS
10
3.9081742913385824
20
-3.505761929133858
11
3.9081742913385824
21
-3.588439094488189
0
LINE
8
BLACK
6
CONTINUOUS
10
3.9081742913385824
20
-3.588439094488189
11
3.9075749212598425
21
-3.5914523622047243
0
LINE
8
BLACK
6
CONTINUOUS
10
3.9075749212598425
20
-3.5914523622047243
11
3.905868031496063
21
-3.5940068503937006
0
LINE
8
BLACK
6
CONTINUOUS
10
3.905868031496063
20
-3.5940068503937006
11
3.9033135433070867
21
-3.5957137401574801
0
LINE
8
BLACK
6
CONTINUOUS
10
3.9033135433070867
20
-3.5957137401574801
11
3.9003002755905509
21
-3.5963131102362205
0
LINE
8
BLACK
6
CONTINUOUS
10
3.9003002755905509
20
-3.5963131102362205
11
3.8655325590551182
21
-3.5963131102362205
0
LINE
8
BLACK
6
CONTINUOUS
10
3.8655325590551182
20
-3.5963131102362205
11
3.8655325590551182
21
-3.6671792519685038
0
LINE
8
BLACK
6
CONTINUOUS
10
3.8655325590551182
20
-3.6671792519685038
11
3.9003002755905509
21
-3.6671792519685038
0
LINE
8
BLACK
6
CONTINUOUS
10
3.9003002755905509
20
-3.6671792519685038
11
3.9033135433070867
21
-3.6677786220472441
0
LINE
8
BLACK
6
CONTINUOUS
10
3.9033135433070867
20
-3.6677786220472441
11
3.905868031496063
21
-3.6694855118110237
0
LINE
8
BLACK
6
CONTINUOUS
10
3.905868031496063
20
-3.6694855118110237
11
3.9075749212598425
21
-3.67204
0
LINE
8
BLACK
6
CONTINUOUS
10
3.9075749212598425
20
-3.67204
11
3.9081742913385824
21
-3.6750532677165353
0
LINE
8
BLACK
6
CONTINUOUS
10
3.9081742913385824
20
-3.6750532677165353
11
3.9081742913385824
21
-3.8246595669291339
0
LINE
8
BLACK
6
CONTINUOUS
10
3.9081742913385824
20
-3.8246595669291339
11
3.9075749212598425
21
-3.8276728346456692
0
LINE
8
BLACK
6
CONTINUOUS
10
3.9075749212598425
20
-3.8276728346456692
11
3.905868031496063
21
-3.8302273228346455
0
LINE
8
BLACK
6
CONTINUOUS
10
3.905868031496063
20
-3.8302273228346455
11
3.9033135433070867
21
-3.831934212598425
0
LINE
8
BLACK
6
CONTINUOUS
10
3.9033135433070867
20
-3.831934212598425
11
3.9003002755905509
21
-3.8325335826771654
0
LINE
8
BLACK
6
CONTINUOUS
10
3.9003002755905509
20
-3.8325335826771654
11
3.8655325590551182
21
-3.8325335826771654
0
LINE
8
BLACK
6
CONTINUOUS
10
3.8655325590551182
20
-3.8325335826771654
11
3.8655325590551182
21
-3.9033997244094487
0
LINE
8
BLACK
6
CONTINUOUS
10
3.8655325590551182
20
-3.9033997244094487
11
3.9003002755905509
21
-3.9033997244094487
0
LINE
8
BLACK
6
CONTINUOUS
10
3.9003002755905509
20
-3.9033997244094487
11
3.9033135433070867
21
-3.903999094488189
0
LINE
8
BLACK
6
CONTINUOUS
10
3.9033135433070867
20
-3.903999094488189
11
3.905868031496063
21
-3.9057059842519686
0
LINE
8
BLACK
6
CONTINUOUS
10
3.905868031496063
20
-3.9057059842519686
11
3.9075749212598425
21
-3.9082604724409449
0
LINE
8
BLACK
6
CONTINUOUS
10
3.9075749212598425
20
-3.9082604724409449
11
3.9081742913385824
21
-3.9112737401574802
0
LINE
8
BLACK
6
CONTINUOUS
10
3.9081742913385824
20
-3.9112737401574802
11
3.9081742913385824
21
-4.0608800393700788
0
LINE
8
BLACK
6
CONTINUOUS
10
3.9081742913385824
20
-4.0608800393700788
11
3.9075749212598425
21
-4.0638933070866141
0
LINE
8
BLACK
6
CONTINUOUS
10
3.9075749212598425
20
-4.0638933070866141
11
3.905868031496063
21
-4.0664477952755904
0
LINE
8
BLACK
6
CONTINUOUS
10
3.905868031496063
20
-4.0664477952755904
11
3.9033135433070867
21
-4.0681546850393699
0
LINE
8
BLACK
6
CONTINUOUS
10
3.9033135433070867
20
-4.0681546850393699
11
3.9003002755905509
21
-4.0687540551181103
0
LINE
8
BLACK
6
CONTINUOUS
10
3.9003002755905509
20
-4.0687540551181103
11
3.8655325590551182
21
-4.0687540551181103
0
LINE
8
BLACK
6
CONTINUOUS
10
3.8655325590551182
20
-4.0687540551181103
11
3.8655325590551182
21
-4.1396201968503936
0
LINE
8
BLACK
6
CONTINUOUS
10
3.8655325590551182
20
-4.1396201968503936
11
3.9003002755905509
21
-4.1396201968503936
0
LINE
8
BLACK
6
CONTINUOUS
10
3.9003002755905509
20
-4.1396201968503936
11
3.9033135433070867
21
-4.140219566929134
0
LINE
8
BLACK
6
CONTINUOUS
10
3.9033135433070867
20
-4.140219566929134
11
3.905868031496063
21
-4.1419264566929135
0
LINE
8
BLACK
6
CONTINUOUS
10
3.905868031496063
20
-4.1419264566929135
11
3.9075749212598425
21
-4.1444809448818898
0
LINE
8
BLACK
6
CONTINUOUS
10
3.9075749212598425
20
-4.1444809448818898
11
3.9081742913385824
21
-4.1474942125984251
0
LINE
8
BLACK
6
CONTINUOUS
10
3.9081742913385824
20
-4.1474942125984251
11
3.9081742913385824
21
-4.2971005118110233
0
LINE
8
BLACK
6
CONTINUOUS
10
3.9081742913385824
20
-4.2971005118110233
11
3.9075749212598425
21
-4.3001137795275586
0
LINE
8
BLACK
6
CONTINUOUS
10
3.9075749212598425
20
-4.3001137795275586
11
3.905868031496063
21
-4.3026682677165358
0
LINE
8
BLACK
6
CONTINUOUS
10
3.905868031496063
20
-4.3026682677165358
11
3.9033135433070867
21
-4.3043751574803153
0
LINE
8
BLACK
6
CONTINUOUS
10
3.9033135433070867
20
-4.3043751574803153
11
3.9003002755905509
21
-4.3049745275590547
0
LINE
8
BLACK
6
CONTINUOUS
10
3.9003002755905509
20
-4.3049745275590547
11
3.8655325590551182
21
-4.3049745275590547
0
LINE
8
BLACK
6
CONTINUOUS
10
3.8655325590551182
20
-4.3049745275590547
11
3.8655325590551182
21
-4.3758406692913381
0
LINE
8
BLACK
6
CONTINUOUS
10
3.8655325590551182
20
-4.3758406692913381
11
3.9003002755905509
21
-4.3758406692913381
0
LINE
8
BLACK
6
CONTINUOUS
10
3.9003002755905509
20
-4.3758406692913381
11
3.9033135433070867
21
-4.3764400393700784
0
LINE
8
BLACK
6
CONTINUOUS
10
3.9033135433070867
20
-4.3764400393700784
11
3.905868031496063
21
-4.3781469291338579
0
LINE
8
BLACK
6
CONTINUOUS
10
3.905868031496063
20
-4.3781469291338579
11
3.9075749212598425
21
-4.3807014173228342
0
LINE
8
BLACK
6
CONTINUOUS
10
3.9075749212598425
20
-4.3807014173228342
11
3.9081742913385824
21
-4.3837146850393696
0
LINE
8
BLACK
6
CONTINUOUS
10
3.9081742913385824
20
-4.3837146850393696
11
3.9081742913385824
21
-4.5333209842519686
0
LINE
8
BLACK
6
CONTINUOUS
10
3.9081742913385824
20
-4.5333209842519686
11
3.9075749212598425
21
-4.5363342519685039
0
LINE
8
BLACK
6
CONTINUOUS
10
3.9075749212598425
20
-4.5363342519685039
11
3.905868031496063
21
-4.5388887401574802
0
LINE
8
BLACK
6
CONTINUOUS
10
3.905868031496063
20
-4.5388887401574802
11
3.9033135433070867
21
-4.5405956299212598
0
LINE
8
BLACK
6
CONTINUOUS
10
3.9033135433070867
20
-4.5405956299212598
11
3.9003002755905509
21
-4.5411950000000001
0
LINE
8
BLACK
6
CONTINUOUS
10
3.9003002755905509
20
-4.5411950000000001
11
3.8655325590551182
21
-4.5411950000000001
0
LINE
8
BLACK
6
CONTINUOUS
10
3.8655325590551182
20
-4.5411950000000001
11
3.8655325590551182
21
-4.603687165354331
0
LINE
8
BLACK
6
CONTINUOUS
10
3.8655325590551182
20
-4.603687165354331
11
3.8656961417322835
21
-4.6038507480314959
0
LINE
8
BLACK
6
CONTINUOUS
10
3.8656961417322835
20
-4.6038507480314959
11
3.8678207874015746
21
-4.6044746062992123
0
LINE
8
BLACK
6
CONTINUOUS
10
3.8678207874015746
20
-4.6044746062992123
11
3.8696512204724409
21
-4.6065870472440942
0
LINE
8
BLACK
6
CONTINUOUS
10
3.8696512204724409
20
-4.6065870472440942
11
3.8700994881889761
21
-4.6086477559055119
0
LINE
8
BLACK
6
CONTINUOUS
10
3.8700994881889761
20
-4.6086477559055119
11
3.8700994881889761
21
-4.6120611417322834
0
LINE
8
BLACK
6
CONTINUOUS
10
3.8700994881889761
20
-4.6120611417322834
11
3.9003002755905509
21
-4.6120611417322834
0
LINE
8
BLACK
6
CONTINUOUS
10
3.9003002755905509
20
-4.6120611417322834
11
3.9033135433070867
21
-4.6126605118110238
0
LINE
8
BLACK
6
CONTINUOUS
10
3.9033135433070867
20
-4.6126605118110238
11
3.905868031496063
21
-4.6143674015748033
0
LINE
8
BLACK
6
CONTINUOUS
10
3.905868031496063
20
-4.6143674015748033
11
3.9075749212598425
21
-4.6169218897637796
0
LINE
8
BLACK
6
CONTINUOUS
10
3.9075749212598425
20
-4.6169218897637796
11
3.9081742913385824
21
-4.6199351574803149
0
LINE
8
BLACK
6
CONTINUOUS
10
3.9081742913385824
20
-4.6199351574803149
11
3.9081742913385824
21
-4.7026123228346455
0
LINE
8
BLACK
6
CONTINUOUS
10
3.9081742913385824
20
-4.7026123228346455
11
3.9908514566929134
21
-4.7026123228346455
0
LINE
8
BLACK
6
CONTINUOUS
10
3.9908514566929134
20
-4.7026123228346455
11
3.9938647244094487
21
-4.7032116929133858
0
LINE
8
BLACK
6
CONTINUOUS
10
3.9938647244094487
20
-4.7032116929133858
11
3.996419212598425
21
-4.7049185826771653
0
LINE
8
BLACK
6
CONTINUOUS
10
3.996419212598425
20
-4.7049185826771653
11
3.9981261023622046
21
-4.7074730708661416
0
LINE
8
BLACK
6
CONTINUOUS
10
3.9981261023622046
20
-4.7074730708661416
11
3.9987254724409449
21
-4.710486338582677
0
LINE
8
BLACK
6
CONTINUOUS
10
3.9987254724409449
20
-4.710486338582677
11
3.9987254724409449
21
-4.7429784645669288
0
LINE
8
BLACK
6
CONTINUOUS
10
3.9987254724409449
20
-4.7429784645669288
11
4.0695916141732287
21
-4.7429784645669288
0
LINE
8
BLACK
6
CONTINUOUS
10
4.0695916141732287
20
-4.7429784645669288
11
4.0695916141732287
21
-4.710486338582677
0
LINE
8
BLACK
6
CONTINUOUS
10
4.0695916141732287
20
-4.710486338582677
11
4.0701909842519681
21
-4.7074730708661416
0
LINE
8
BLACK
6
CONTINUOUS
10
4.0701909842519681
20
-4.7074730708661416
11
4.0718978740157477
21
-4.7049185826771653
0
LINE
8
BLACK
6
CONTINUOUS
10
4.0718978740157477
20
-4.7049185826771653
11
4.074452362204724
21
-4.7032116929133858
0
LINE
8
BLACK
6
CONTINUOUS
10
4.074452362204724
20
-4.7032116929133858
11
4.0774656299212602
21
-4.7026123228346455
0
LINE
8
BLACK
6
CONTINUOUS
10
4.0774656299212602
20
-4.7026123228346455
11
4.2270719291338583
21
-4.7026123228346455
0
LINE
8
BLACK
6
CONTINUOUS
10
4.2270719291338583
20
-4.7026123228346455
11
4.2300851968503936
21
-4.7032116929133858
0
LINE
8
BLACK
6
CONTINUOUS
10
4.2300851968503936
20
-4.7032116929133858
11
4.2326396850393699
21
-4.7049185826771653
0
LINE
8
BLACK
6
CONTINUOUS
10
4.2326396850393699
20
-4.7049185826771653
11
4.2343465748031495
21
-4.7074730708661416
0
LINE
8
BLACK
6
CONTINUOUS
10
4.2343465748031495
20
-4.7074730708661416
11
4.2349459448818898
21
-4.710486338582677
0
LINE
8
BLACK
6
CONTINUOUS
10
4.2349459448818898
20
-4.710486338582677
11
4.2349459448818898
21
-4.7429784645669288
0
LINE
8
BLACK
6
CONTINUOUS
10
4.2349459448818898
20
-4.7429784645669288
11
4.3058120866141731
21
-4.7429784645669288
0
LINE
8
BLACK
6
CONTINUOUS
10
4.3058120866141731
20
-4.7429784645669288
11
4.3058120866141731
21
-4.710486338582677
0
LINE
8
BLACK
6
CONTINUOUS
10
4.3058120866141731
20
-4.710486338582677
11
4.3064114566929135
21
-4.7074730708661416
0
LINE
8
BLACK
6
CONTINUOUS
10
4.3064114566929135
20
-4.7074730708661416
11
4.308118346456693
21
-4.7049185826771653
0
LINE
8
BLACK
6
CONTINUOUS
10
4.308118346456693
20
-4.7049185826771653
11
4.3106728346456693
21
-4.7032116929133858
0
LINE
8
BLACK
6
CONTINUOUS
10
4.3106728346456693
20
-4.7032116929133858
11
4.3136861023622046
21
-4.7026123228346455
0
LINE
8
BLACK
6
CONTINUOUS
10
4.3136861023622046
20
-4.7026123228346455
11
4.4632924015748028
21
-4.7026123228346455
0
LINE
8
BLACK
6
CONTINUOUS
10
4.4632924015748028
20
-4.7026123228346455
11
4.4663056692913381
21
-4.7032116929133858
0
LINE
8
BLACK
6
CONTINUOUS
10
4.4663056692913381
20
-4.7032116929133858
11
4.4688601574803153
21
-4.7049185826771653
0
LINE
8
BLACK
6
CONTINUOUS
10
4.4688601574803153
20
-4.7049185826771653
11
4.4705670472440948
21
-4.7074730708661416
0
LINE
8
BLACK
6
CONTINUOUS
10
4.4705670472440948
20
-4.7074730708661416
11
4.4711664173228343
21
-4.710486338582677
0
LINE
8
BLACK
6
CONTINUOUS
10
4.4711664173228343
20
-4.710486338582677
11
4.4711664173228343
21
-4.7429784645669288
0
LINE
8
BLACK
6
CONTINUOUS
10
4.4711664173228343
20
-4.7429784645669288
11
4.5420325590551176
21
-4.7429784645669288
0
LINE
8
BLACK
6
CONTINUOUS
10
4.5420325590551176
20
-4.7429784645669288
11
4.5420325590551176
21
-4.710486338582677
0
LINE
8
BLACK
6
CONTINUOUS
10
4.5420325590551176
20
-4.710486338582677
11
4.5426319291338579
21
-4.7074730708661416
0
LINE
8
BLACK
6
CONTINUOUS
10
4.5426319291338579
20
-4.7074730708661416
11
4.5443388188976375
21
-4.7049185826771653
0
LINE
8
BLACK
6
CONTINUOUS
10
4.5443388188976375
20
-4.7049185826771653
11
4.5468933070866138
21
-4.7032116929133858
0
LINE
8
BLACK
6
CONTINUOUS
10
4.5468933070866138
20
-4.7032116929133858
11
4.5499065748031491
21
-4.7026123228346455
0
LINE
8
BLACK
6
CONTINUOUS
10
4.5499065748031491
20
-4.7026123228346455
11
4.6995128740157481
21
-4.7026123228346455
0
LINE
8
BLACK
6
CONTINUOUS
10
4.6995128740157481
20
-4.7026123228346455
11
4.7025261417322834
21
-4.7032116929133858
0
LINE
8
BLACK
6
CONTINUOUS
10
4.7025261417322834
20
-4.7032116929133858
11
4.7050806299212597
21
-4.7049185826771653
0
LINE
8
BLACK
6
CONTINUOUS
10
4.7050806299212597
20
-4.7049185826771653
11
4.7067875196850393
21
-4.7074730708661416
0
LINE
8
BLACK
6
CONTINUOUS
10
4.7067875196850393
20
-4.7074730708661416
11
4.7073868897637796
21
-4.710486338582677
0
LINE
8
BLACK
6
CONTINUOUS
10
4.7073868897637796
20
-4.710486338582677
11
4.7073868897637796
21
-4.7429784645669288
0
LINE
8
BLACK
6
CONTINUOUS
10
4.7073868897637796
20
-4.7429784645669288
11
4.778253031496063
21
-4.7429784645669288
0
LINE
8
BLACK
6
CONTINUOUS
10
4.778253031496063
20
-4.7429784645669288
11
4.778253031496063
21
-4.710486338582677
0
LINE
8
BLACK
6
CONTINUOUS
10
4.778253031496063
20
-4.710486338582677
11
4.7788524015748033
21
-4.7074730708661416
0
LINE
8
BLACK
6
CONTINUOUS
10
4.7788524015748033
20
-4.7074730708661416
11
4.7805592913385828
21
-4.7049185826771653
0
LINE
8
BLACK
6
CONTINUOUS
10
4.7805592913385828
20
-4.7049185826771653
11
4.7831137795275591
21
-4.7032116929133858
0
LINE
8
BLACK
6
CONTINUOUS
10
4.7831137795275591
20
-4.7032116929133858
11
4.7861270472440944
21
-4.7026123228346455
0
LINE
8
BLACK
6
CONTINUOUS
10
4.7861270472440944
20
-4.7026123228346455
11
4.9357333464566926
21
-4.7026123228346455
0
LINE
8
BLACK
6
CONTINUOUS
10
4.9357333464566926
20
-4.7026123228346455
11
4.9387466141732279
21
-4.7032116929133858
0
LINE
8
BLACK
6
CONTINUOUS
10
4.9387466141732279
20
-4.7032116929133858
11
4.9413011023622042
21
-4.7049185826771653
0
LINE
8
BLACK
6
CONTINUOUS
10
4.9413011023622042
20
-4.7049185826771653
11
4.9430079921259837
21
-4.7074730708661416
0
LINE
8
BLACK
6
CONTINUOUS
10
4.9430079921259837
20
-4.7074730708661416
11
4.9436073622047241
21
-4.710486338582677
0
LINE
8
BLACK
6
CONTINUOUS
10
4.9436073622047241
20
-4.710486338582677
11
4.9436073622047241
21
-4.7429784645669288
0
LINE
8
BLACK
6
CONTINUOUS
10
4.9436073622047241
20
-4.7429784645669288
11
5.0144735039370074
21
-4.7429784645669288
0
LINE
8
BLACK
6
CONTINUOUS
10
5.0144735039370074
20
-4.7429784645669288
11
5.0144735039370074
21
-4.710486338582677
0
LINE
8
BLACK
6
CONTINUOUS
10
5.0144735039370074
20
-4.710486338582677
11
5.0150728740157478
21
-4.7074730708661416
0
LINE
8
BLACK
6
CONTINUOUS
10
5.0150728740157478
20
-4.7074730708661416
11
5.0167797637795273
21
-4.7049185826771653
0
LINE
8
BLACK
6
CONTINUOUS
10
5.0167797637795273
20
-4.7049185826771653
11
5.0193342519685036
21
-4.7032116929133858
0
LINE
8
BLACK
6
CONTINUOUS
10
5.0193342519685036
20
-4.7032116929133858
11
5.0223475196850389
21
-4.7026123228346455
0
LINE
8
BLACK
6
CONTINUOUS
10
5.0223475196850389
20
-4.7026123228346455
11
5.1050246850393703
21
-4.7026123228346455
0
LINE
8
BLACK
6
CONTINUOUS
10
5.1050246850393703
20
-4.7026123228346455
11
5.1050246850393703
21
-4.6199351574803149
0
LINE
8
BLACK
6
CONTINUOUS
10
5.1050246850393703
20
-4.6199351574803149
11
5.1056240551181098
21
-4.6169218897637796
0
LINE
8
BLACK
6
CONTINUOUS
10
5.1056240551181098
20
-4.6169218897637796
11
5.1073309448818893
21
-4.6143674015748033
0
LINE
8
BLACK
6
CONTINUOUS
10
5.1073309448818893
20
-4.6143674015748033
11
5.1098854330708656
21
-4.6126605118110238
0
LINE
8
BLACK
6
CONTINUOUS
10
5.1098854330708656
20
-4.6126605118110238
11
5.1128987007874018
21
-4.6120611417322834
0
LINE
8
BLACK
6
CONTINUOUS
10
5.1128987007874018
20
-4.6120611417322834
11
5.1400994881889766
21
-4.6120611417322834
0
LINE
8
BLACK
6
CONTINUOUS
10
5.1400994881889766
20
-4.6120611417322834
11
5.1400994881889766
21
-4.5411950000000001
0
LINE
8
BLACK
6
CONTINUOUS
10
5.1400994881889766
20
-4.5411950000000001
11
5.1128987007874018
21
-4.5411950000000001
0
LINE
8
BLACK
6
CONTINUOUS
10
5.1128987007874018
20
-4.5411950000000001
11
5.1098854330708656
21
-4.5405956299212598
0
LINE
8
BLACK
6
CONTINUOUS
10
5.1098854330708656
20
-4.5405956299212598
11
5.1073309448818893
21
-4.5388887401574802
0
LINE
8
BLACK
6
CONTINUOUS
10
5.1073309448818893
20
-4.5388887401574802
11
5.1056240551181098
21
-4.5363342519685039
0
LINE
8
BLACK
6
CONTINUOUS
10
5.1056240551181098
20
-4.5363342519685039
11
5.1050246850393703
21
-4.5333209842519686
0
LINE
8
BLACK
6
CONTINUOUS
10
5.1050246850393703
20
-4.5333209842519686
11
5.1050246850393703
21
-4.3837146850393696
0
LINE
8
BLACK
6
CONTINUOUS
10
5.1050246850393703
20
-4.3837146850393696
11
5.1056240551181098
21
-4.3807014173228342
0
LINE
8
BLACK
6
CONTINUOUS
10
5.1056240551181098
20
-4.3807014173228342
11
5.1073309448818893
21
-4.3781469291338579
0
LINE
8
BLACK
6
CONTINUOUS
10
5.1073309448818893
20
-4.3781469291338579
11
5.1098854330708656
21
-4.3764400393700784
0
LINE
8
BLACK
6
CONTINUOUS
10
5.1098854330708656
20
-4.3764400393700784
11
5.1128987007874018
21
-4.3758406692913381
0
LINE
8
BLACK
6
CONTINUOUS
10
5.1128987007874018
20
-4.3758406692913381
11
5.1522687795275592
21
-4.3758406692913381
0
LINE
8
BLACK
6
CONTINUOUS
10
5.1522687795275592
20
-4.3758406692913381
11
5.1552820472440946
21
-4.3764400393700784
0
LINE
8
BLACK
6
CONTINUOUS
10
5.1552820472440946
20
-4.3764400393700784
11
5.1578365354330709
21
-4.3781469291338579
0
LINE
8
BLACK
6
CONTINUOUS
10
5.1578365354330709
20
-4.3781469291338579
11
5.1595434251968504
21
-4.3807014173228342
0
LINE
8
BLACK
6
CONTINUOUS
10
5.1595434251968504
20
-4.3807014173228342
11
5.1601427952755907
21
-4.3837146850393696
0
LINE
8
BLACK
6
CONTINUOUS
10
5.1601427952755907
20
-4.3837146850393696
11
5.1601427952755907
21
-4.4836871259842521
0
LINE
8
BLACK
6
CONTINUOUS
10
5.1601427952755907
20
-4.4836871259842521
11
5.1665561811023624
21
-4.4836871259842521
0
LINE
8
BLACK
6
CONTINUOUS
10
5.1665561811023624
20
-4.4836871259842521
11
5.1665561811023624
21
-4.4699863779527558
0
LINE
8
BLACK
6
CONTINUOUS
10
5.1665561811023624
20
-4.4699863779527558
11
5.1665561811023624
21
-4.3794351968503937
0
LINE
8
BLACK
6
CONTINUOUS
10
5.1665561811023624
20
-4.3794351968503937
11
5.1671555511811018
21
-4.3764219291338584
0
LINE
8
BLACK
6
CONTINUOUS
10
5.1671555511811018
20
-4.3764219291338584
11
5.1688624409448813
21
-4.3738674409448821
0
LINE
8
BLACK
6
CONTINUOUS
10
5.1688624409448813
20
-4.3738674409448821
11
5.1714169291338585
21
-4.3721605511811026
0
LINE
8
BLACK
6
CONTINUOUS
10
5.1714169291338585
20
-4.3721605511811026
11
5.1744301968503938
21
-4.3715611811023622
0
LINE
8
BLACK
6
CONTINUOUS
10
5.1744301968503938
20
-4.3715611811023622
11
5.2138002755905513
21
-4.3715611811023622
0
LINE
8
BLACK
6
CONTINUOUS
10
5.2138002755905513
20
-4.3715611811023622
11
5.2168135433070866
21
-4.3721605511811026
0
LINE
8
BLACK
6
CONTINUOUS
10
5.2168135433070866
20
-4.3721605511811026
11
5.2193680314960629
21
-4.3738674409448821
0
LINE
8
BLACK
6
CONTINUOUS
10
5.2193680314960629
20
-4.3738674409448821
11
5.2210749212598424
21
-4.3764219291338584
0
LINE
8
BLACK
6
CONTINUOUS
10
5.2210749212598424
20
-4.3764219291338584
11
5.2216742913385827
21
-4.3794351968503937
0
LINE
8
BLACK
6
CONTINUOUS
10
5.2216742913385827
20
-4.3794351968503937
11
5.2216742913385827
21
-4.4621123622047243
0
LINE
8
BLACK
6
CONTINUOUS
10
5.2216742913385827
20
-4.4621123622047243
11
5.3043514566929133
21
-4.4621123622047243
0
LINE
8
BLACK
6
CONTINUOUS
10
5.3043514566929133
20
-4.4621123622047243
11
5.3073647244094486
21
-4.4627117322834646
0
LINE
8
BLACK
6
CONTINUOUS
10
5.3073647244094486
20
-4.4627117322834646
11
5.3099192125984249
21
-4.4644186220472442
0
LINE
8
BLACK
6
CONTINUOUS
10
5.3099192125984249
20
-4.4644186220472442
11
5.3116261023622044
21
-4.4669731102362205
0
LINE
8
BLACK
6
CONTINUOUS
10
5.3116261023622044
20
-4.4669731102362205
11
5.3122254724409448
21
-4.4699863779527558
0
LINE
8
BLACK
6
CONTINUOUS
10
5.3122254724409448
20
-4.4699863779527558
11
5.3122254724409448
21
-4.4836871259842521
0
LINE
8
BLACK
6
CONTINUOUS
10
5.3122254724409448
20
-4.4836871259842521
11
5.3830916141732281
21
-4.4836871259842521
0
LINE
8
BLACK
6
CONTINUOUS
10
5.3830916141732281
20
-4.4836871259842521
11
5.3830916141732281
21
-4.4699863779527558
0
LINE
8
BLACK
6
CONTINUOUS
10
5.3830916141732281
20
-4.4699863779527558
11
5.3836909842519685
21
-4.4669731102362205
0
LINE
8
BLACK
6
CONTINUOUS
10
5.3836909842519685
20
-4.4669731102362205
11
5.385397874015748
21
-4.4644186220472442
0
LINE
8
BLACK
6
CONTINUOUS
10
5.385397874015748
20
-4.4644186220472442
11
5.3879523622047243
21
-4.4627117322834646
0
LINE
8
BLACK
6
CONTINUOUS
10
5.3879523622047243
20
-4.4627117322834646
11
5.3909656299212596
21
-4.4621123622047243
0
LINE
8
BLACK
6
CONTINUOUS
10
5.3909656299212596
20
-4.4621123622047243
11
5.5405719291338578
21
-4.4621123622047243
0
LINE
8
BLACK
6
CONTINUOUS
10
5.5405719291338578
20
-4.4621123622047243
11
5.543585196850394
21
-4.4627117322834646
0
LINE
8
BLACK
6
CONTINUOUS
10
5.543585196850394
20
-4.4627117322834646
11
5.5461396850393703
21
-4.4644186220472442
0
LINE
8
BLACK
6
CONTINUOUS
10
5.5461396850393703
20
-4.4644186220472442
11
5.5478465748031498
21
-4.4669731102362205
0
LINE
8
BLACK
6
CONTINUOUS
10
5.5478465748031498
20
-4.4669731102362205
11
5.5484459448818892
21
-4.4699863779527558
0
LINE
8
BLACK
6
CONTINUOUS
10
5.5484459448818892
20
-4.4699863779527558
11
5.5484459448818892
21
-4.4836871259842521
0
LINE
8
BLACK
6
CONTINUOUS
10
5.5484459448818892
20
-4.4836871259842521
11
5.6193120866141735
21
-4.4836871259842521
0
LINE
8
BLACK
6
CONTINUOUS
10
5.6193120866141735
20
-4.4836871259842521
11
5.6193120866141735
21
-4.4699863779527558
0
LINE
8
BLACK
6
CONTINUOUS
10
5.6193120866141735
20
-4.4699863779527558
11
5.6199114566929129
21
-4.4669731102362205
0
LINE
8
BLACK
6
CONTINUOUS
10
5.6199114566929129
20
-4.4669731102362205
11
5.6216183464566924
21
-4.4644186220472442
0
LINE
8
BLACK
6
CONTINUOUS
10
5.6216183464566924
20
-4.4644186220472442
11
5.6241728346456688
21
-4.4627117322834646
0
LINE
8
BLACK
6
CONTINUOUS
10
5.6241728346456688
20
-4.4627117322834646
11
5.627186102362205
21
-4.4621123622047243
0
LINE
8
BLACK
6
CONTINUOUS
10
5.627186102362205
20
-4.4621123622047243
11
5.7767924015748031
21
-4.4621123622047243
0
LINE
8
BLACK
6
CONTINUOUS
10
5.7767924015748031
20
-4.4621123622047243
11
5.7798056692913384
21
-4.4627117322834646
0
LINE
8
BLACK
6
CONTINUOUS
10
5.7798056692913384
20
-4.4627117322834646
11
5.7823601574803147
21
-4.4644186220472442
0
LINE
8
BLACK
6
CONTINUOUS
10
5.7823601574803147
20
-4.4644186220472442
11
5.7840670472440943
21
-4.4669731102362205
0
LINE
8
BLACK
6
CONTINUOUS
10
5.7840670472440943
20
-4.4669731102362205
11
5.7846664173228346
21
-4.4699863779527558
0
LINE
8
BLACK
6
CONTINUOUS
10
5.7846664173228346
20
-4.4699863779527558
11
5.7846664173228346
21
-4.4836871259842521
0
LINE
8
BLACK
6
CONTINUOUS
10
5.7846664173228346
20
-4.4836871259842521
11
5.8555325590551179
21
-4.4836871259842521
0
LINE
8
BLACK
6
CONTINUOUS
10
5.8555325590551179
20
-4.4836871259842521
11
5.8555325590551179
21
-4.4699863779527558
0
LINE
8
BLACK
6
CONTINUOUS
10
5.8555325590551179
20
-4.4699863779527558
11
5.8561319291338583
21
-4.4669731102362205
0
LINE
8
BLACK
6
CONTINUOUS
10
5.8561319291338583
20
-4.4669731102362205
11
5.8578388188976378
21
-4.4644186220472442
0
LINE
8
BLACK
6
CONTINUOUS
10
5.8578388188976378
20
-4.4644186220472442
11
5.8603933070866141
21
-4.4627117322834646
0
LINE
8
BLACK
6
CONTINUOUS
10
5.8603933070866141
20
-4.4627117322834646
11
5.8634065748031494
21
-4.4621123622047243
0
LINE
8
BLACK
6
CONTINUOUS
10
5.8634065748031494
20
-4.4621123622047243
11
6.0130128740157476
21
-4.4621123622047243
0
LINE
8
BLACK
6
CONTINUOUS
10
6.0130128740157476
20
-4.4621123622047243
11
6.0160261417322829
21
-4.4627117322834646
0
LINE
8
BLACK
6
CONTINUOUS
10
6.0160261417322829
20
-4.4627117322834646
11
6.0185806299212601
21
-4.4644186220472442
0
LINE
8
BLACK
6
CONTINUOUS
10
6.0185806299212601
20
-4.4644186220472442
11
6.0202875196850396
21
-4.4669731102362205
0
LINE
8
BLACK
6
CONTINUOUS
10
6.0202875196850396
20
-4.4669731102362205
11
6.0208868897637791
21
-4.4699863779527558
0
LINE
8
BLACK
6
CONTINUOUS
10
6.0208868897637791
20
-4.4699863779527558
11
6.0208868897637791
21
-4.4836871259842521
0
LINE
8
BLACK
6
CONTINUOUS
10
6.0208868897637791
20
-4.4836871259842521
11
6.0917530314960633
21
-4.4836871259842521
0
LINE
8
BLACK
6
CONTINUOUS
10
6.0917530314960633
20
-4.4836871259842521
11
6.0917530314960633
21
-4.4699863779527558
0
LINE
8
BLACK
6
CONTINUOUS
10
6.0917530314960633
20
-4.4699863779527558
11
6.0923524015748027
21
-4.4669731102362205
0
LINE
8
BLACK
6
CONTINUOUS
10
6.0923524015748027
20
-4.4669731102362205
11
6.0940592913385823
21
-4.4644186220472442
0
LINE
8
BLACK
6
CONTINUOUS
10
6.0940592913385823
20
-4.4644186220472442
11
6.0966137795275586
21
-4.4627117322834646
0
LINE
8
BLACK
6
CONTINUOUS
10
6.0966137795275586
20
-4.4627117322834646
11
6.0996270472440948
21
-4.4621123622047243
0
LINE
8
BLACK
6
CONTINUOUS
10
6.0996270472440948
20
-4.4621123622047243
11
6.2492333464566929
21
-4.4621123622047243
0
LINE
8
BLACK
6
CONTINUOUS
10
6.2492333464566929
20
-4.4621123622047243
11
6.2522466141732282
21
-4.4627117322834646
0
LINE
8
BLACK
6
CONTINUOUS
10
6.2522466141732282
20
-4.4627117322834646
11
6.2548011023622045
21
-4.4644186220472442
0
LINE
8
BLACK
6
CONTINUOUS
10
6.2548011023622045
20
-4.4644186220472442
11
6.2565079921259841
21
-4.4669731102362205
0
LINE
8
BLACK
6
CONTINUOUS
10
6.2565079921259841
20
-4.4669731102362205
11
6.2571073622047244
21
-4.4699863779527558
0
LINE
8
BLACK
6
CONTINUOUS
10
6.2571073622047244
20
-4.4699863779527558
11
6.2571073622047244
21
-4.4836871259842521
0
LINE
8
BLACK
6
CONTINUOUS
10
6.2571073622047244
20
-4.4836871259842521
11
6.3279735039370077
21
-4.4836871259842521
0
LINE
8
BLACK
6
CONTINUOUS
10
6.3279735039370077
20
-4.4836871259842521
11
6.3279735039370077
21
-4.4699863779527558
0
LINE
8
BLACK
6
CONTINUOUS
10
6.3279735039370077
20
-4.4699863779527558
11
6.3285728740157481
21
-4.4669731102362205
0
LINE
8
BLACK
6
CONTINUOUS
10
6.3285728740157481
20
-4.4669731102362205
11
6.3302797637795276
21
-4.4644186220472442
0
LINE
8
BLACK
6
CONTINUOUS
10
6.3302797637795276
20
-4.4644186220472442
11
6.3328342519685039
21
-4.4627117322834646
0
LINE
8
BLACK
6
CONTINUOUS
10
6.3328342519685039
20
-4.4627117322834646
11
6.3358475196850392
21
-4.4621123622047243
0
LINE
8
BLACK
6
CONTINUOUS
10
6.3358475196850392
20
-4.4621123622047243
11
6.4185246850393698
21
-4.4621123622047243
0
LINE
8
BLACK
6
CONTINUOUS
10
6.4185246850393698
20
-4.4621123622047243
11
6.4185246850393698
21
-4.3794351968503937
0
LINE
8
BLACK
6
CONTINUOUS
10
6.4185246850393698
20
-4.3794351968503937
11
6.4191240551181101
21
-4.3764219291338584
0
LINE
8
BLACK
6
CONTINUOUS
10
6.4191240551181101
20
-4.3764219291338584
11
6.4208309448818897
21
-4.3738674409448821
0
LINE
8
BLACK
6
CONTINUOUS
10
6.4208309448818897
20
-4.3738674409448821
11
6.423385433070866
21
-4.3721605511811026
0
LINE
8
BLACK
6
CONTINUOUS
10
6.423385433070866
20
-4.3721605511811026
11
6.4263987007874013
21
-4.3715611811023622
0
LINE
8
BLACK
6
CONTINUOUS
10
6.4263987007874013
20
-4.3715611811023622
11
6.4550572440944878
21
-4.3715611811023622
0
LINE
8
BLACK
6
CONTINUOUS
10
6.4550572440944878
20
-4.3715611811023622
11
6.4553555511811025
21
-4.3006950393700789
0
LINE
8
BLACK
6
CONTINUOUS
10
6.4553555511811025
20
-4.3006950393700789
11
6.4263987007874013
21
-4.3006950393700789
0
LINE
8
BLACK
6
CONTINUOUS
10
6.4263987007874013
20
-4.3006950393700789
11
6.423385433070866
21
-4.3000956692913386
0
LINE
8
BLACK
6
CONTINUOUS
10
6.423385433070866
20
-4.3000956692913386
11
6.4208309448818897
21
-4.298388779527559
0
LINE
8
BLACK
6
CONTINUOUS
10
6.4208309448818897
20
-4.298388779527559
11
6.4191240551181101
21
-4.2958342913385827
0
LINE
8
BLACK
6
CONTINUOUS
10
6.4191240551181101
20
-4.2958342913385827
11
6.4185246850393698
21
-4.2928210236220474
0
LINE
8
BLACK
6
CONTINUOUS
10
6.4185246850393698
20
-4.2928210236220474
11
6.4185246850393698
21
-4.1432147244094484
0
LINE
8
BLACK
6
CONTINUOUS
10
6.4185246850393698
20
-4.1432147244094484
11
6.4191240551181101
21
-4.1402014566929131
0
LINE
8
BLACK
6
CONTINUOUS
10
6.4191240551181101
20
-4.1402014566929131
11
6.4208309448818897
21
-4.1376469685039368
0
LINE
8
BLACK
6
CONTINUOUS
10
6.4208309448818897
20
-4.1376469685039368
11
6.423385433070866
21
-4.1359400787401572
0
LINE
8
BLACK
6
CONTINUOUS
10
6.423385433070866
20
-4.1359400787401572
11
6.4263987007874013
21
-4.1353407086614169
0
LINE
8
BLACK
6
CONTINUOUS
10
6.4263987007874013
20
-4.1353407086614169
11
6.4560515748031495
21
-4.1353407086614169
0
LINE
8
BLACK
6
CONTINUOUS
10
6.4560515748031495
20
-4.1353407086614169
11
6.4563498818897633
21
-4.0644745669291336
0
LINE
8
BLACK
6
CONTINUOUS
10
6.4563498818897633
20
-4.0644745669291336
11
6.4263987007874013
21
-4.0644745669291336
0
LINE
8
BLACK
6
CONTINUOUS
10
6.4263987007874013
20
-4.0644745669291336
11
6.423385433070866
21
-4.0638751968503932
0
LINE
8
BLACK
6
CONTINUOUS
10
6.423385433070866
20
-4.0638751968503932
11
6.4208309448818897
21
-4.0621683070866137
0
LINE
8
BLACK
6
CONTINUOUS
10
6.4208309448818897
20
-4.0621683070866137
11
6.4191240551181101
21
-4.0596138188976374
0
LINE
8
BLACK
6
CONTINUOUS
10
6.4191240551181101
20
-4.0596138188976374
11
6.4185246850393698
21
-4.0566005511811021
0
LINE
8
BLACK
6
CONTINUOUS
10
6.4185246850393698
20
-4.0566005511811021
11
6.4185246850393698
21
-3.9069942519685039
0
LINE
8
BLACK
6
CONTINUOUS
10
6.4185246850393698
20
-3.9069942519685039
11
6.4191240551181101
21
-3.9039809842519686
0
LINE
8
BLACK
6
CONTINUOUS
10
6.4191240551181101
20
-3.9039809842519686
11
6.4208309448818897
21
-3.9014264960629919
0
LINE
8
BLACK
6
CONTINUOUS
10
6.4208309448818897
20
-3.9014264960629919
11
6.423385433070866
21
-3.8997196062992123
0
LINE
8
BLACK
6
CONTINUOUS
10
6.423385433070866
20
-3.8997196062992123
11
6.4263987007874013
21
-3.8991202362204724
0
LINE
8
BLACK
6
CONTINUOUS
10
6.4263987007874013
20
-3.8991202362204724
11
6.4570459055118112
21
-3.8991202362204724
0
LINE
8
BLACK
6
CONTINUOUS
10
6.4570459055118112
20
-3.8991202362204724
11
6.4573441732283463
21
-3.8282540944881891
0
LINE
8
BLACK
6
CONTINUOUS
10
6.4573441732283463
20
-3.8282540944881891
11
6.4263987007874013
21
-3.8282540944881891
0
LINE
8
BLACK
6
CONTINUOUS
10
6.4263987007874013
20
-3.8282540944881891
11
6.423385433070866
21
-3.8276547244094488
0
LINE
8
BLACK
6
CONTINUOUS
10
6.423385433070866
20
-3.8276547244094488
11
6.4208309448818897
21
-3.8259478346456692
0
LINE
8
BLACK
6
CONTINUOUS
10
6.4208309448818897
20
-3.8259478346456692
11
6.4191240551181101
21
-3.8233933464566929
0
LINE
8
BLACK
6
CONTINUOUS
10
6.4191240551181101
20
-3.8233933464566929
11
6.4185246850393698
21
-3.8203800787401576
0
LINE
8
BLACK
6
CONTINUOUS
10
6.4185246850393698
20
-3.8203800787401576
11
6.4185246850393698
21
-3.670773779527559
0
LINE
8
BLACK
6
CONTINUOUS
10
6.4185246850393698
20
-3.670773779527559
11
6.4191240551181101
21
-3.6677605118110237
0
LINE
8
BLACK
6
CONTINUOUS
10
6.4191240551181101
20
-3.6677605118110237
11
6.4208309448818897
21
-3.6652060236220469
0
LINE
8
BLACK
6
CONTINUOUS
10
6.4208309448818897
20
-3.6652060236220469
11
6.423385433070866
21
-3.6634991338582674
0
LINE
8
BLACK
6
CONTINUOUS
10
6.423385433070866
20
-3.6634991338582674
11
6.4263987007874013
21
-3.6628997637795275
0
LINE
8
BLACK
6
CONTINUOUS
10
6.4263987007874013
20
-3.6628997637795275
11
6.4580401968503933
21
-3.6628997637795275
0
LINE
8
BLACK
6
CONTINUOUS
10
6.4580401968503933
20
-3.6628997637795275
11
6.458338503937008
21
-3.5920336220472442
0
LINE
8
BLACK
6
CONTINUOUS
10
6.458338503937008
20
-3.5920336220472442
11
6.4263987007874013
21
-3.5920336220472442
0
LINE
8
BLACK
6
CONTINUOUS
10
6.4263987007874013
20
-3.5920336220472442
11
6.423385433070866
21
-3.5914342519685039
0
LINE
8
BLACK
6
CONTINUOUS
10
6.423385433070866
20
-3.5914342519685039
11
6.4208309448818897
21
-3.5897273622047243
0
LINE
8
BLACK
6
CONTINUOUS
10
6.4208309448818897
20
-3.5897273622047243
11
6.4191240551181101
21
-3.587172874015748
0
LINE
8
BLACK
6
CONTINUOUS
10
6.4191240551181101
20
-3.587172874015748
11
6.4185246850393698
21
-3.5841596062992127
0
LINE
8
BLACK
6
CONTINUOUS
10
6.4185246850393698
20
-3.5841596062992127
11
6.4185246850393698
21
-3.4345533070866141
0
LINE
8
BLACK
6
CONTINUOUS
10
6.4185246850393698
20
-3.4345533070866141
11
6.4191240551181101
21
-3.4315400393700788
0
LINE
8
BLACK
6
CONTINUOUS
10
6.4191240551181101
20
-3.4315400393700788
11
6.4208309448818897
21
-3.4289855511811025
0
LINE
8
BLACK
6
CONTINUOUS
10
6.4208309448818897
20
-3.4289855511811025
11
6.423385433070866
21
-3.427278661417323
0
LINE
8
BLACK
6
CONTINUOUS
10
6.423385433070866
20
-3.427278661417323
11
6.4263987007874013
21
-3.4266792913385826
0
LINE
8
BLACK
6
CONTINUOUS
10
6.4263987007874013
20
-3.4266792913385826
11
6.4590345275590551
21
-3.4266792913385826
0
LINE
8
BLACK
6
CONTINUOUS
10
6.4590345275590551
20
-3.4266792913385826
11
6.4593328346456689
21
-3.3558131496062993
0
LINE
8
BLACK
6
CONTINUOUS
10
6.4593328346456689
20
-3.3558131496062993
11
6.4263987007874013
21
-3.3558131496062993
0
LINE
8
BLACK
6
CONTINUOUS
10
6.4263987007874013
20
-3.3558131496062993
11
6.423385433070866
21
-3.3552137795275589
0
LINE
8
BLACK
6
CONTINUOUS
10
6.423385433070866
20
-3.3552137795275589
11
6.4208309448818897
21
-3.3535068897637794
0
LINE
8
BLACK
6
CONTINUOUS
10
6.4208309448818897
20
-3.3535068897637794
11
6.4191240551181101
21
-3.3509524015748031
0
LINE
8
BLACK
6
CONTINUOUS
10
6.4191240551181101
20
-3.3509524015748031
11
6.4185246850393698
21
-3.3479391338582678
0
LINE
8
BLACK
6
CONTINUOUS
10
6.4185246850393698
20
-3.3479391338582678
11
6.4185246850393698
21
-3.2652619685039368
0
LINE
8
BLACK
6
CONTINUOUS
10
6.4185246850393698
20
-3.2652619685039368
11
6.3358475196850392
21
-3.2652619685039368
0
LINE
8
BLACK
6
CONTINUOUS
10
6.3358475196850392
20
-3.2652619685039368
11
6.3328342519685039
21
-3.2646625984251969
0
LINE
8
BLACK
6
CONTINUOUS
10
6.3328342519685039
20
-3.2646625984251969
11
6.3302797637795276
21
-3.2629557086614174
0
LINE
8
BLACK
6
CONTINUOUS
10
6.3302797637795276
20
-3.2629557086614174
11
6.3285728740157481
21
-3.2604012204724411
0
LINE
8
BLACK
6
CONTINUOUS
10
6.3285728740157481
20
-3.2604012204724411
11
6.3279735039370077
21
-3.2573879527559053
0
LINE
8
BLACK
6
CONTINUOUS
10
6.3279735039370077
20
-3.2573879527559053
11
6.3279735039370077
21
-3.2370729527559052
0
LINE
8
BLACK
6
CONTINUOUS
10
6.3279735039370077
20
-3.2370729527559052
11
6.2571073622047244
21
-3.2370729527559052
0
LINE
8
BLACK
6
CONTINUOUS
10
6.2571073622047244
20
-3.2370729527559052
11
6.2571073622047244
21
-3.2573879527559053
0
LINE
8
BLACK
6
CONTINUOUS
10
6.2571073622047244
20
-3.2573879527559053
11
6.2565079921259841
21
-3.2604012204724411
0
LINE
8
BLACK
6
CONTINUOUS
10
6.2565079921259841
20
-3.2604012204724411
11
6.2548011023622045
21
-3.2629557086614174
0
LINE
8
BLACK
6
CONTINUOUS
10
6.2548011023622045
20
-3.2629557086614174
11
6.2522466141732282
21
-3.2646625984251969
0
LINE
8
BLACK
6
CONTINUOUS
10
6.2522466141732282
20
-3.2646625984251969
11
6.2492333464566929
21
-3.2652619685039368
0
LINE
8
BLACK
6
CONTINUOUS
10
6.2492333464566929
20
-3.2652619685039368
11
6.0996270472440948
21
-3.2652619685039368
0
LINE
8
BLACK
6
CONTINUOUS
10
6.0996270472440948
20
-3.2652619685039368
11
6.0966137795275586
21
-3.2646625984251969
0
LINE
8
BLACK
6
CONTINUOUS
10
6.0966137795275586
20
-3.2646625984251969
11
6.0940592913385823
21
-3.2629557086614174
0
LINE
8
BLACK
6
CONTINUOUS
10
6.0940592913385823
20
-3.2629557086614174
11
6.0923524015748027
21
-3.2604012204724411
0
LINE
8
BLACK
6
CONTINUOUS
10
6.0923524015748027
20
-3.2604012204724411
11
6.0917530314960633
21
-3.2573879527559053
0
LINE
8
BLACK
6
CONTINUOUS
10
6.0917530314960633
20
-3.2573879527559053
11
6.0917530314960633
21
-3.2370729527559052
0
LINE
8
BLACK
6
CONTINUOUS
10
6.0917530314960633
20
-3.2370729527559052
11
6.0208868897637791
21
-3.2370729527559052
0
LINE
8
BLACK
6
CONTINUOUS
10
6.0208868897637791
20
-3.2370729527559052
11
6.0208868897637791
21
-3.2573879527559053
0
LINE
8
BLACK
6
CONTINUOUS
10
6.0208868897637791
20
-3.2573879527559053
11
6.0202875196850396
21
-3.2604012204724411
0
LINE
8
BLACK
6
CONTINUOUS
10
6.0202875196850396
20
-3.2604012204724411
11
6.0185806299212601
21
-3.2629557086614174
0
LINE
8
BLACK
6
CONTINUOUS
10
6.0185806299212601
20
-3.2629557086614174
11
6.0160261417322829
21
-3.2646625984251969
0
LINE
8
BLACK
6
CONTINUOUS
10
6.0160261417322829
20
-3.2646625984251969
11
6.0130128740157476
21
-3.2652619685039368
0
LINE
8
BLACK
6
CONTINUOUS
10
6.0130128740157476
20
-3.2652619685039368
11
5.8634065748031494
21
-3.2652619685039368
0
LINE
8
BLACK
6
CONTINUOUS
10
5.8634065748031494
20
-3.2652619685039368
11
5.8603933070866141
21
-3.2646625984251969
0
LINE
8
BLACK
6
CONTINUOUS
10
5.8603933070866141
20
-3.2646625984251969
11
5.8578388188976378
21
-3.2629557086614174
0
LINE
8
BLACK
6
CONTINUOUS
10
5.8578388188976378
20
-3.2629557086614174
11
5.8561319291338583
21
-3.2604012204724411
0
LINE
8
BLACK
6
CONTINUOUS
10
5.8561319291338583
20
-3.2604012204724411
11
5.8555325590551179
21
-3.2573879527559053
0
LINE
8
BLACK
6
CONTINUOUS
10
5.8555325590551179
20
-3.2573879527559053
11
5.8555325590551179
21
-3.2370729527559052
0
LINE
8
BLACK
6
CONTINUOUS
10
5.8555325590551179
20
-3.2370729527559052
11
5.7846664173228346
21
-3.2370729527559052
0
LINE
8
BLACK
6
CONTINUOUS
10
5.7846664173228346
20
-3.2370729527559052
11
5.7846664173228346
21
-3.2573879527559053
0
LINE
8
BLACK
6
CONTINUOUS
10
5.7846664173228346
20
-3.2573879527559053
11
5.7840670472440943
21
-3.2604012204724411
0
LINE
8
BLACK
6
CONTINUOUS
10
5.7840670472440943
20
-3.2604012204724411
11
5.7823601574803147
21
-3.2629557086614174
0
LINE
8
BLACK
6
CONTINUOUS
10
5.7823601574803147
20
-3.2629557086614174
11
5.7798056692913384
21
-3.2646625984251969
0
LINE
8
BLACK
6
CONTINUOUS
10
5.7798056692913384
20
-3.2646625984251969
11
5.7767924015748031
21
-3.2652619685039368
0
LINE
8
BLACK
6
CONTINUOUS
10
5.7767924015748031
20
-3.2652619685039368
11
5.627186102362205
21
-3.2652619685039368
0
LINE
8
BLACK
6
CONTINUOUS
10
5.627186102362205
20
-3.2652619685039368
11
5.6241728346456688
21
-3.2646625984251969
0
LINE
8
BLACK
6
CONTINUOUS
10
5.6241728346456688
20
-3.2646625984251969
11
5.6216183464566924
21
-3.2629557086614174
0
LINE
8
BLACK
6
CONTINUOUS
10
5.6216183464566924
20
-3.2629557086614174
11
5.6199114566929129
21
-3.2604012204724411
0
LINE
8
BLACK
6
CONTINUOUS
10
5.6199114566929129
20
-3.2604012204724411
11
5.6193120866141735
21
-3.2573879527559053
0
LINE
8
BLACK
6
CONTINUOUS
10
5.6193120866141735
20
-3.2573879527559053
11
5.6193120866141735
21
-3.2370729527559052
0
LINE
8
BLACK
6
CONTINUOUS
10
5.6193120866141735
20
-3.2370729527559052
11
5.5484459448818892
21
-3.2370729527559052
0
LINE
8
BLACK
6
CONTINUOUS
10
5.5484459448818892
20
-3.2370729527559052
11
5.5484459448818892
21
-3.2573879527559053
0
LINE
8
BLACK
6
CONTINUOUS
10
5.5484459448818892
20
-3.2573879527559053
11
5.5478465748031498
21
-3.2604012204724411
0
LINE
8
BLACK
6
CONTINUOUS
10
5.5478465748031498
20
-3.2604012204724411
11
5.5461396850393703
21
-3.2629557086614174
0
LINE
8
BLACK
6
CONTINUOUS
10
5.5461396850393703
20
-3.2629557086614174
11
5.543585196850394
21
-3.2646625984251969
0
LINE
8
BLACK
6
CONTINUOUS
10
5.543585196850394
20
-3.2646625984251969
11
5.5405719291338578
21
-3.2652619685039368
0
LINE
8
BLACK
6
CONTINUOUS
10
5.5405719291338578
20
-3.2652619685039368
11
5.3909656299212596
21
-3.2652619685039368
0
LINE
8
BLACK
6
CONTINUOUS
10
5.3909656299212596
20
-3.2652619685039368
11
5.3879523622047243
21
-3.2646625984251969
0
LINE
8
BLACK
6
CONTINUOUS
10
5.3879523622047243
20
-3.2646625984251969
11
5.385397874015748
21
-3.2629557086614174
0
LINE
8
BLACK
6
CONTINUOUS
10
5.385397874015748
20
-3.2629557086614174
11
5.3836909842519685
21
-3.2604012204724411
0
LINE
8
BLACK
6
CONTINUOUS
10
5.3836909842519685
20
-3.2604012204724411
11
5.3830916141732281
21
-3.2573879527559053
0
LINE
8
BLACK
6
CONTINUOUS
10
5.3830916141732281
20
-3.2573879527559053
11
5.3830916141732281
21
-3.2370729527559052
0
LINE
8
BLACK
6
CONTINUOUS
10
5.3830916141732281
20
-3.2370729527559052
11
5.3122254724409448
21
-3.2370729527559052
0
LINE
8
BLACK
6
CONTINUOUS
10
5.3122254724409448
20
-3.2370729527559052
11
5.3122254724409448
21
-3.2573879527559053
0
CIRCLE
8
BLACK
10
4.485611338582677
20
-3.323687125984252
40
0.0068897637795276
0
CIRCLE
8
BLACK
10
6.6466349212598423
20
-3.323687125984252
40
0.0068897637795276
0
CIRCLE
8
BLACK
10
7.1552963385826773
20
-4.823687125984252
40
0.0068897637795276
0
CIRCLE
8
BLACK
10
3.7800994881889762
20
-4.9236871653543304
40
0.0068897637795276
0
CIRCLE
8
BLACK
10
4.4300994881889766
20
-4.4969154724409446
40
0.0068897637795276
0
CIRCLE
8
BLACK
10
4.2332490944881886
20
-4.4969154724409446
40
0.0068897637795276
0
CIRCLE
8
BLACK
10
6.1000994881889765
20
-4.7036871259842519
40
0.0068897637795276
0
CIRCLE
8
BLACK
10
6.1000994881889765
20
-4.6036871259842522
40
0.0068897637795276
0
CIRCLE
8
BLACK
10
6.000099488188976
20
-4.6036871259842522
40
0.0068897637795276
0
CIRCLE
8
BLACK
10
5.9000994881889763
20
-4.6036871259842522
40
0.0068897637795276
0
CIRCLE
8
BLACK
10
6.000099488188976
20
-4.7036871259842519
40
0.0068897637795276
0
CIRCLE
8
BLACK
10
6.4000994881889763
20
-4.6036871259842522
40
0.0068897637795276
0
CIRCLE
8
BLACK
10
6.4000994881889763
20
-4.7036871259842519
40
0.0068897637795276
0
CIRCLE
8
BLACK
10
6.2000994881889762
20
-4.6036871259842522
40
0.0068897637795276
0
CIRCLE
8
BLACK
10
6.2000994881889762
20
-4.7036871259842519
40
0.0068897637795276
0
CIRCLE
8
BLACK
10
5.9000994881889763
20
-4.7036871259842519
40
0.0068897637795276
0
CIRCLE
8
BLACK
10
6.3000994881889758
20
-4.7036871259842519
40
0.0068897637795276
0
CIRCLE
8
BLACK
10
6.3000994881889758
20
-4.6036871259842522
40
0.0068897637795276
0
CIRCLE
8
WHITE
10
4.485611338582677
20
-3.323687125984252
40
0.0068897637795276
0
CIRCLE
8
WHITE
10
6.6466349212598423
20
-3.323687125984252
40
0.0068897637795276
0
CIRCLE
8
WHITE
10
7.1552963385826773
20
-4.823687125984252
40
0.0068897637795276
0
CIRCLE
8
WHITE
10
3.7800994881889762
20
-4.9236871653543304
40
0.0068897637795276
0
CIRCLE
8
WHITE
10
4.4300994881889766
20
-4.4969154724409446
40
0.0068897637795276
0
CIRCLE
8
WHITE
10
4.2332490944881886
20
-4.4969154724409446
40
0.0068897637795276
0
CIRCLE
8
WHITE
10
6.1000994881889765
20
-4.7036871259842519
40
0.0068897637795276
0
CIRCLE
8
WHITE
10
6.1000994881889765
20
-4.6036871259842522
40
0.0068897637795276
0
CIRCLE
8
WHITE
10
6.000099488188976
20
-4.6036871259842522
40
0.0068897637795276
0
CIRCLE
8
WHITE
10
5.9000994881889763
20
-4.6036871259842522
40
0.0068897637795276
0
CIRCLE
8
WHITE
10
6.000099488188976
20
-4.7036871259842519
40
0.0068897637795276
0
CIRCLE
8
WHITE
10
6.4000994881889763
20
-4.6036871259842522
40
0.0068897637795276
0
CIRCLE
8
WHITE
10
6.4000994881889763
20
-4.7036871259842519
40
0.0068897637795276
0
CIRCLE
8
WHITE
10
6.2000994881889762
20
-4.6036871259842522
40
0.0068897637795276
0
CIRCLE
8
WHITE
10
6.2000994881889762
20
-4.7036871259842519
40
0.0068897637795276
0
CIRCLE
8
WHITE
10
5.9000994881889763
20
-4.7036871259842519
40
0.0068897637795276
0
CIRCLE
8
WHITE
10
6.3000994881889758
20
-4.7036871259842519
40
0.0068897637795276
0
CIRCLE
8
WHITE
10
6.3000994881889758
20
-4.6036871259842522
40
0.0068897637795276
  0
ENDSEC
  0
EOF
