  0
SECTION
  2
HEADER
  9
$ANGBASE
  50
0.0
  9
$ANGDIR
  70
1
  9
$MEASUREMENT
  70
0
  0
ENDSEC
  0
SECTION
  2
TABLES
  0
TABLE
  2
LTYPE
  70
4
  0
LTYPE
  5
40F
  2
CONTINUOUS
  70
0
  3
Solid line
  72
65
  73
0
  40
0.0
  0
LTYPE
  5
410
  2
DASHDOT
 70
0
  3
Dash Dot ____ _ ____ _
 72
65
 73
4
 40
2.0
 49
1.25
 49
-0.25
 49
0.25
 49
-0.25
  0
LTYPE
  5
411
  2
DASHED
 70
0
  3
Dashed __ __ __ __ __
 72
65
 73
2
 40
0.75
 49
0.5
 49
-0.25
  0
LTYPE
  5
43B
  2
DOTTED
 70
0
  3
Dotted .  .  .  .
 72
65
 73
2
 40
0.2
 49
0.0
 49
-0.2
  0
ENDTAB
  0
TABLE
  2
STYLE
  70
4
  0
STYLE
  2
KICAD
  70
0
  40
0
  41
1
  42
1
  50
0
  71
0
  3
isocp.shx
  0
STYLE
  2
KICADB
  70
0
  40
0
  41
1
  42
1
  50
0
  71
0
  3
isocp.shx
  0
STYLE
  2
KICADI
  70
0
  40
0
  41
1
  42
1
  50
15
  71
0
  3
isocp.shx
  0
STYLE
  2
KICADBI
  70
0
  40
0
  41
1
  42
1
  50
15
  71
0
  3
isocp.shx
  0
ENDTAB
  0
TABLE
  2
LAYER
  70
1
  0
LAYER
  2
BLACK
  70
0
  62
7
  6
CONTINUOUS
  0
ENDTAB
  0
ENDSEC
  0
SECTION
  2
ENTITIES
0
LINE
8
BLACK
6
CONTINUOUS
10
3.46235
20
2.69729
11
3.47064
21
2.6942
0
LINE
8
BLACK
6
CONTINUOUS
10
3.47064
20
2.6942
11
3.47841
21
2.68996
0
LINE
8
BLACK
6
CONTINUOUS
10
3.47841
20
2.68996
11
3.48549
21
2.68466
0
LINE
8
BLACK
6
CONTINUOUS
10
3.48549
20
2.68466
11
3.49174
21
2.6784
0
LINE
8
BLACK
6
CONTINUOUS
10
3.49174
20
2.6784
11
3.49705
21
2.67132
0
LINE
8
BLACK
6
CONTINUOUS
10
3.49705
20
2.67132
11
3.50129
21
2.66355
0
LINE
8
BLACK
6
CONTINUOUS
10
3.50129
20
2.66355
11
3.50438
21
2.65526
0
LINE
8
BLACK
6
CONTINUOUS
10
3.50438
20
2.65526
11
3.50626
21
2.64662
0
LINE
8
BLACK
6
CONTINUOUS
10
3.50626
20
2.64662
11
3.50689
21
2.6378
0
LINE
8
BLACK
6
CONTINUOUS
10
3.50689
20
2.6378
11
3.50689
21
0.137795
0
LINE
8
BLACK
6
CONTINUOUS
10
3.50689
20
0.137795
11
3.50619
21
0.127132
0
LINE
8
BLACK
6
CONTINUOUS
10
3.50619
20
0.127132
11
3.50411
21
0.116652
0
LINE
8
BLACK
6
CONTINUOUS
10
3.50411
20
0.116652
11
3.50067
21
0.106533
0
LINE
8
BLACK
6
CONTINUOUS
10
3.50067
20
0.106533
11
3.49594
21
0.0969488
0
LINE
8
BLACK
6
CONTINUOUS
10
3.49594
20
0.0969488
11
3.49001
21
0.0880638
0
LINE
8
BLACK
6
CONTINUOUS
10
3.49001
20
0.0880638
11
3.48296
21
0.0800296
0
LINE
8
BLACK
6
CONTINUOUS
10
3.48296
20
0.0800296
11
3.47493
21
0.0729839
0
LINE
8
BLACK
6
CONTINUOUS
10
3.47493
20
0.0729839
11
3.46604
21
0.0670471
0
LINE
8
BLACK
6
CONTINUOUS
10
3.46604
20
0.0670471
11
3.45646
21
0.0623209
0
LINE
8
BLACK
6
CONTINUOUS
10
3.45646
20
0.0623209
11
3.44634
21
0.058886
0
LINE
8
BLACK
6
CONTINUOUS
10
3.44634
20
0.058886
11
3.43586
21
0.0568013
0
LINE
8
BLACK
6
CONTINUOUS
10
3.43586
20
0.0568013
11
3.4252
21
0.0561024
0
LINE
8
BLACK
6
CONTINUOUS
10
3.4252
20
0.0561024
11
3.14961
21
0.0561024
0
LINE
8
BLACK
6
CONTINUOUS
10
3.14961
20
0.0561024
11
3.13894
21
0.0568013
0
LINE
8
BLACK
6
CONTINUOUS
10
3.13894
20
0.0568013
11
3.12846
21
0.058886
0
LINE
8
BLACK
6
CONTINUOUS
10
3.12846
20
0.058886
11
3.11834
21
0.0623209
0
LINE
8
BLACK
6
CONTINUOUS
10
3.11834
20
0.0623209
11
3.10876
21
0.0670471
0
LINE
8
BLACK
6
CONTINUOUS
10
3.10876
20
0.0670471
11
3.09987
21
0.0729839
0
LINE
8
BLACK
6
CONTINUOUS
10
3.09987
20
0.0729839
11
3.09184
21
0.0800296
0
LINE
8
BLACK
6
CONTINUOUS
10
3.09184
20
0.0800296
11
3.08479
21
0.0880638
0
LINE
8
BLACK
6
CONTINUOUS
10
3.08479
20
0.0880638
11
3.07886
21
0.0969488
0
LINE
8
BLACK
6
CONTINUOUS
10
3.07886
20
0.0969488
11
3.07413
21
0.106533
0
LINE
8
BLACK
6
CONTINUOUS
10
3.07413
20
0.106533
11
3.0707
21
0.116652
0
LINE
8
BLACK
6
CONTINUOUS
10
3.0707
20
0.116652
11
3.06861
21
0.127132
0
LINE
8
BLACK
6
CONTINUOUS
10
3.06861
20
0.127132
11
3.06791
21
0.137795
0
LINE
8
BLACK
6
CONTINUOUS
10
3.06791
20
0.137795
11
3.06805
21
0.138212
0
LINE
8
BLACK
6
CONTINUOUS
10
3.06805
20
0.138212
11
3.06743
21
0.147709
0
LINE
8
BLACK
6
CONTINUOUS
10
3.06743
20
0.147709
11
3.06549
21
0.157453
0
LINE
8
BLACK
6
CONTINUOUS
10
3.06549
20
0.157453
11
3.06229
21
0.16686
0
LINE
8
BLACK
6
CONTINUOUS
10
3.06229
20
0.16686
11
3.0579
21
0.17577
0
LINE
8
BLACK
6
CONTINUOUS
10
3.0579
20
0.17577
11
3.05238
21
0.184031
0
LINE
8
BLACK
6
CONTINUOUS
10
3.05238
20
0.184031
11
3.04583
21
0.1915
0
LINE
8
BLACK
6
CONTINUOUS
10
3.04583
20
0.1915
11
3.03836
21
0.19805
0
LINE
8
BLACK
6
CONTINUOUS
10
3.03836
20
0.19805
11
3.0301
21
0.20357
0
LINE
8
BLACK
6
CONTINUOUS
10
3.0301
20
0.20357
11
3.02119
21
0.207964
0
LINE
8
BLACK
6
CONTINUOUS
10
3.02119
20
0.207964
11
3.01178
21
0.211157
0
LINE
8
BLACK
6
CONTINUOUS
10
3.01178
20
0.211157
11
3.00204
21
0.213096
0
LINE
8
BLACK
6
CONTINUOUS
10
3.00204
20
0.213096
11
2.99254
21
0.213718
0
LINE
8
BLACK
6
CONTINUOUS
10
2.99254
20
0.213718
11
2.99213
21
0.213583
0
LINE
8
BLACK
6
CONTINUOUS
10
2.99213
20
0.213583
11
1.68661
21
0.213583
0
LINE
8
BLACK
6
CONTINUOUS
10
1.68661
20
0.213583
11
1.67595
21
0.214282
0
LINE
8
BLACK
6
CONTINUOUS
10
1.67595
20
0.214282
11
1.66547
21
0.216366
0
LINE
8
BLACK
6
CONTINUOUS
10
1.66547
20
0.216366
11
1.65535
21
0.219801
0
LINE
8
BLACK
6
CONTINUOUS
10
1.65535
20
0.219801
11
1.64577
21
0.224527
0
LINE
8
BLACK
6
CONTINUOUS
10
1.64577
20
0.224527
11
1.63688
21
0.230464
0
LINE
8
BLACK
6
CONTINUOUS
10
1.63688
20
0.230464
11
1.62885
21
0.23751
0
LINE
8
BLACK
6
CONTINUOUS
10
1.62885
20
0.23751
11
1.6218
21
0.245544
0
LINE
8
BLACK
6
CONTINUOUS
10
1.6218
20
0.245544
11
1.61587
21
0.254429
0
LINE
8
BLACK
6
CONTINUOUS
10
1.61587
20
0.254429
11
1.61114
21
0.264013
0
LINE
8
BLACK
6
CONTINUOUS
10
1.61114
20
0.264013
11
1.6077
21
0.274132
0
LINE
8
BLACK
6
CONTINUOUS
10
1.6077
20
0.274132
11
1.60562
21
0.284613
0
LINE
8
BLACK
6
CONTINUOUS
10
1.60562
20
0.284613
11
1.60492
21
0.295276
0
LINE
8
BLACK
6
CONTINUOUS
10
1.60492
20
0.295276
11
1.60492
21
3.4685
0
LINE
8
BLACK
6
CONTINUOUS
10
1.60492
20
3.4685
11
1.60562
21
3.47917
0
LINE
8
BLACK
6
CONTINUOUS
10
1.60562
20
3.47917
11
1.6077
21
3.48965
0
LINE
8
BLACK
6
CONTINUOUS
10
1.6077
20
3.48965
11
1.61114
21
3.49977
0
LINE
8
BLACK
6
CONTINUOUS
10
1.61114
20
3.49977
11
1.61587
21
3.50935
0
LINE
8
BLACK
6
CONTINUOUS
10
1.61587
20
3.50935
11
1.6218
21
3.51824
0
LINE
8
BLACK
6
CONTINUOUS
10
1.6218
20
3.51824
11
1.62885
21
3.52627
0
LINE
8
BLACK
6
CONTINUOUS
10
1.62885
20
3.52627
11
1.63688
21
3.53332
0
LINE
8
BLACK
6
CONTINUOUS
10
1.63688
20
3.53332
11
1.64577
21
3.53925
0
LINE
8
BLACK
6
CONTINUOUS
10
1.64577
20
3.53925
11
1.65535
21
3.54398
0
LINE
8
BLACK
6
CONTINUOUS
10
1.65535
20
3.54398
11
1.66547
21
3.54741
0
LINE
8
BLACK
6
CONTINUOUS
10
1.66547
20
3.54741
11
1.67595
21
3.5495
0
LINE
8
BLACK
6
CONTINUOUS
10
1.67595
20
3.5495
11
1.68661
21
3.5502
0
LINE
8
BLACK
6
CONTINUOUS
10
1.68661
20
3.5502
11
2.83465
21
3.5502
0
LINE
8
BLACK
6
CONTINUOUS
10
2.83465
20
3.5502
11
2.83532
21
3.55008
0
LINE
8
BLACK
6
CONTINUOUS
10
2.83532
20
3.55008
11
2.84456
21
3.55068
0
LINE
8
BLACK
6
CONTINUOUS
10
2.84456
20
3.55068
11
2.8543
21
3.55262
0
LINE
8
BLACK
6
CONTINUOUS
10
2.8543
20
3.55262
11
2.86371
21
3.55582
0
LINE
8
BLACK
6
CONTINUOUS
10
2.86371
20
3.55582
11
2.87262
21
3.56021
0
LINE
8
BLACK
6
CONTINUOUS
10
2.87262
20
3.56021
11
2.88088
21
3.56573
0
LINE
8
BLACK
6
CONTINUOUS
10
2.88088
20
3.56573
11
2.88835
21
3.57228
0
LINE
8
BLACK
6
CONTINUOUS
10
2.88835
20
3.57228
11
2.8949
21
3.57975
0
LINE
8
BLACK
6
CONTINUOUS
10
2.8949
20
3.57975
11
2.90042
21
3.58801
0
LINE
8
BLACK
6
CONTINUOUS
10
2.90042
20
3.58801
11
2.90481
21
3.59692
0
LINE
8
BLACK
6
CONTINUOUS
10
2.90481
20
3.59692
11
2.90801
21
3.60633
0
LINE
8
BLACK
6
CONTINUOUS
10
2.90801
20
3.60633
11
2.90995
21
3.61607
0
LINE
8
BLACK
6
CONTINUOUS
10
2.90995
20
3.61607
11
2.91057
21
3.62557
0
LINE
8
BLACK
6
CONTINUOUS
10
2.91057
20
3.62557
11
2.91043
21
3.62598
0
LINE
8
BLACK
6
CONTINUOUS
10
2.91043
20
3.62598
11
2.91043
21
3.66142
0
LINE
8
BLACK
6
CONTINUOUS
10
2.91043
20
3.66142
11
2.91113
21
3.67208
0
LINE
8
BLACK
6
CONTINUOUS
10
2.91113
20
3.67208
11
2.91322
21
3.68256
0
LINE
8
BLACK
6
CONTINUOUS
10
2.91322
20
3.68256
11
2.91665
21
3.69268
0
LINE
8
BLACK
6
CONTINUOUS
10
2.91665
20
3.69268
11
2.92138
21
3.70226
0
LINE
8
BLACK
6
CONTINUOUS
10
2.92138
20
3.70226
11
2.92731
21
3.71115
0
LINE
8
BLACK
6
CONTINUOUS
10
2.92731
20
3.71115
11
2.93436
21
3.71918
0
LINE
8
BLACK
6
CONTINUOUS
10
2.93436
20
3.71918
11
2.94239
21
3.72623
0
LINE
8
BLACK
6
CONTINUOUS
10
2.94239
20
3.72623
11
2.95128
21
3.73217
0
LINE
8
BLACK
6
CONTINUOUS
10
2.95128
20
3.73217
11
2.96086
21
3.73689
0
LINE
8
BLACK
6
CONTINUOUS
10
2.96086
20
3.73689
11
2.97098
21
3.74033
0
LINE
8
BLACK
6
CONTINUOUS
10
2.97098
20
3.74033
11
2.98146
21
3.74241
0
LINE
8
BLACK
6
CONTINUOUS
10
2.98146
20
3.74241
11
2.99213
21
3.74311
0
LINE
8
BLACK
6
CONTINUOUS
10
2.99213
20
3.74311
11
3.28346
21
3.74311
0
LINE
8
BLACK
6
CONTINUOUS
10
3.28346
20
3.74311
11
3.29413
21
3.74241
0
LINE
8
BLACK
6
CONTINUOUS
10
3.29413
20
3.74241
11
3.30461
21
3.74033
0
LINE
8
BLACK
6
CONTINUOUS
10
3.30461
20
3.74033
11
3.31473
21
3.73689
0
LINE
8
BLACK
6
CONTINUOUS
10
3.31473
20
3.73689
11
3.32431
21
3.73217
0
LINE
8
BLACK
6
CONTINUOUS
10
3.32431
20
3.73217
11
3.3332
21
3.72623
0
LINE
8
BLACK
6
CONTINUOUS
10
3.3332
20
3.72623
11
3.34123
21
3.71918
0
LINE
8
BLACK
6
CONTINUOUS
10
3.34123
20
3.71918
11
3.34828
21
3.71115
0
LINE
8
BLACK
6
CONTINUOUS
10
3.34828
20
3.71115
11
3.35421
21
3.70226
0
LINE
8
BLACK
6
CONTINUOUS
10
3.35421
20
3.70226
11
3.35894
21
3.69268
0
LINE
8
BLACK
6
CONTINUOUS
10
3.35894
20
3.69268
11
3.36237
21
3.68256
0
LINE
8
BLACK
6
CONTINUOUS
10
3.36237
20
3.68256
11
3.36446
21
3.67208
0
LINE
8
BLACK
6
CONTINUOUS
10
3.36446
20
3.67208
11
3.36516
21
3.66142
0
LINE
8
BLACK
6
CONTINUOUS
10
3.36516
20
3.66142
11
3.36516
21
2.75591
0
LINE
8
BLACK
6
CONTINUOUS
10
3.36516
20
2.75591
11
3.36504
21
2.75523
0
LINE
8
BLACK
6
CONTINUOUS
10
3.36504
20
2.75523
11
3.36568
21
2.7471
0
LINE
8
BLACK
6
CONTINUOUS
10
3.36568
20
2.7471
11
3.36774
21
2.73852
0
LINE
8
BLACK
6
CONTINUOUS
10
3.36774
20
2.73852
11
3.37112
21
2.73036
0
LINE
8
BLACK
6
CONTINUOUS
10
3.37112
20
2.73036
11
3.37573
21
2.72283
0
LINE
8
BLACK
6
CONTINUOUS
10
3.37573
20
2.72283
11
3.38147
21
2.71611
0
LINE
8
BLACK
6
CONTINUOUS
10
3.38147
20
2.71611
11
3.38818
21
2.71038
0
LINE
8
BLACK
6
CONTINUOUS
10
3.38818
20
2.71038
11
3.39571
21
2.70576
0
LINE
8
BLACK
6
CONTINUOUS
10
3.39571
20
2.70576
11
3.40387
21
2.70238
0
LINE
8
BLACK
6
CONTINUOUS
10
3.40387
20
2.70238
11
3.41246
21
2.70032
0
LINE
8
BLACK
6
CONTINUOUS
10
3.41246
20
2.70032
11
3.42083
21
2.69966
0
LINE
8
BLACK
6
CONTINUOUS
10
3.42083
20
2.69966
11
3.42126
21
2.6998
0
LINE
8
BLACK
6
CONTINUOUS
10
3.42126
20
2.6998
11
3.44488
21
2.6998
0
LINE
8
BLACK
6
CONTINUOUS
10
3.44488
20
2.6998
11
3.45371
21
2.69917
0
LINE
8
BLACK
6
CONTINUOUS
10
3.45371
20
2.69917
11
3.46235
21
2.69729
0
LINE
8
BLACK
6
CONTINUOUS
10
2.99145
20
3.73732
11
2.98221
21
3.73672
0
LINE
8
BLACK
6
CONTINUOUS
10
2.98221
20
3.73672
11
2.97247
21
3.73478
0
LINE
8
BLACK
6
CONTINUOUS
10
2.97247
20
3.73478
11
2.96306
21
3.73159
0
LINE
8
BLACK
6
CONTINUOUS
10
2.96306
20
3.73159
11
2.95415
21
3.72719
0
LINE
8
BLACK
6
CONTINUOUS
10
2.95415
20
3.72719
11
2.94589
21
3.72167
0
LINE
8
BLACK
6
CONTINUOUS
10
2.94589
20
3.72167
11
2.93842
21
3.71512
0
LINE
8
BLACK
6
CONTINUOUS
10
2.93842
20
3.71512
11
2.93187
21
3.70765
0
LINE
8
BLACK
6
CONTINUOUS
10
2.93187
20
3.70765
11
2.92635
21
3.69939
0
LINE
8
BLACK
6
CONTINUOUS
10
2.92635
20
3.69939
11
2.92196
21
3.69048
0
LINE
8
BLACK
6
CONTINUOUS
10
2.92196
20
3.69048
11
2.91876
21
3.68107
0
LINE
8
BLACK
6
CONTINUOUS
10
2.91876
20
3.68107
11
2.91683
21
3.67133
0
LINE
8
BLACK
6
CONTINUOUS
10
2.91683
20
3.67133
11
2.9162
21
3.66183
0
LINE
8
BLACK
6
CONTINUOUS
10
2.9162
20
3.66183
11
2.91634
21
3.66142
0
LINE
8
BLACK
6
CONTINUOUS
10
2.91634
20
3.66142
11
2.91634
21
3.62598
0
LINE
8
BLACK
6
CONTINUOUS
10
2.91634
20
3.62598
11
2.91564
21
3.61532
0
LINE
8
BLACK
6
CONTINUOUS
10
2.91564
20
3.61532
11
2.91355
21
3.60484
0
LINE
8
BLACK
6
CONTINUOUS
10
2.91355
20
3.60484
11
2.91012
21
3.59472
0
LINE
8
BLACK
6
CONTINUOUS
10
2.91012
20
3.59472
11
2.90539
21
3.58514
0
LINE
8
BLACK
6
CONTINUOUS
10
2.90539
20
3.58514
11
2.89946
21
3.57625
0
LINE
8
BLACK
6
CONTINUOUS
10
2.89946
20
3.57625
11
2.89241
21
3.56822
0
LINE
8
BLACK
6
CONTINUOUS
10
2.89241
20
3.56822
11
2.88438
21
3.56117
0
LINE
8
BLACK
6
CONTINUOUS
10
2.88438
20
3.56117
11
2.87549
21
3.55524
0
LINE
8
BLACK
6
CONTINUOUS
10
2.87549
20
3.55524
11
2.86591
21
3.55051
0
LINE
8
BLACK
6
CONTINUOUS
10
2.86591
20
3.55051
11
2.85579
21
3.54707
0
LINE
8
BLACK
6
CONTINUOUS
10
2.85579
20
3.54707
11
2.84531
21
3.54499
0
LINE
8
BLACK
6
CONTINUOUS
10
2.84531
20
3.54499
11
2.83465
21
3.54429
0
LINE
8
BLACK
6
CONTINUOUS
10
2.83465
20
3.54429
11
1.68661
21
3.54429
0
LINE
8
BLACK
6
CONTINUOUS
10
1.68661
20
3.54429
11
1.68594
21
3.54441
0
LINE
8
BLACK
6
CONTINUOUS
10
1.68594
20
3.54441
11
1.6767
21
3.5438
0
LINE
8
BLACK
6
CONTINUOUS
10
1.6767
20
3.5438
11
1.66696
21
3.54187
0
LINE
8
BLACK
6
CONTINUOUS
10
1.66696
20
3.54187
11
1.65755
21
3.53867
0
LINE
8
BLACK
6
CONTINUOUS
10
1.65755
20
3.53867
11
1.64864
21
3.53428
0
LINE
8
BLACK
6
CONTINUOUS
10
1.64864
20
3.53428
11
1.64038
21
3.52876
0
LINE
8
BLACK
6
CONTINUOUS
10
1.64038
20
3.52876
11
1.63291
21
3.52221
0
LINE
8
BLACK
6
CONTINUOUS
10
1.63291
20
3.52221
11
1.62636
21
3.51474
0
LINE
8
BLACK
6
CONTINUOUS
10
1.62636
20
3.51474
11
1.62084
21
3.50648
0
LINE
8
BLACK
6
CONTINUOUS
10
1.62084
20
3.50648
11
1.61645
21
3.49757
0
LINE
8
BLACK
6
CONTINUOUS
10
1.61645
20
3.49757
11
1.61325
21
3.48816
0
LINE
8
BLACK
6
CONTINUOUS
10
1.61325
20
3.48816
11
1.61131
21
3.47842
0
LINE
8
BLACK
6
CONTINUOUS
10
1.61131
20
3.47842
11
1.61069
21
3.46892
0
LINE
8
BLACK
6
CONTINUOUS
10
1.61069
20
3.46892
11
1.61083
21
3.4685
0
LINE
8
BLACK
6
CONTINUOUS
10
1.61083
20
3.4685
11
1.61083
21
0.295276
0
LINE
8
BLACK
6
CONTINUOUS
10
1.61083
20
0.295276
11
1.61071
21
0.294603
0
LINE
8
BLACK
6
CONTINUOUS
10
1.61071
20
0.294603
11
1.61131
21
0.285362
0
LINE
8
BLACK
6
CONTINUOUS
10
1.61131
20
0.285362
11
1.61325
21
0.275618
0
LINE
8
BLACK
6
CONTINUOUS
10
1.61325
20
0.275618
11
1.61645
21
0.266211
0
LINE
8
BLACK
6
CONTINUOUS
10
1.61645
20
0.266211
11
1.62084
21
0.257301
0
LINE
8
BLACK
6
CONTINUOUS
10
1.62084
20
0.257301
11
1.62636
21
0.24904
0
LINE
8
BLACK
6
CONTINUOUS
10
1.62636
20
0.24904
11
1.63291
21
0.241571
0
LINE
8
BLACK
6
CONTINUOUS
10
1.63291
20
0.241571
11
1.64038
21
0.23502
0
LINE
8
BLACK
6
CONTINUOUS
10
1.64038
20
0.23502
11
1.64864
21
0.229501
0
LINE
8
BLACK
6
CONTINUOUS
10
1.64864
20
0.229501
11
1.65755
21
0.225107
0
LINE
8
BLACK
6
CONTINUOUS
10
1.65755
20
0.225107
11
1.66696
21
0.221914
0
LINE
8
BLACK
6
CONTINUOUS
10
1.66696
20
0.221914
11
1.6767
21
0.219975
0
LINE
8
BLACK
6
CONTINUOUS
10
1.6767
20
0.219975
11
1.6862
21
0.219353
0
LINE
8
BLACK
6
CONTINUOUS
10
1.6862
20
0.219353
11
1.68661
21
0.219488
0
LINE
8
BLACK
6
CONTINUOUS
10
1.68661
20
0.219488
11
2.99213
21
0.219488
0
LINE
8
BLACK
6
CONTINUOUS
10
2.99213
20
0.219488
11
3.00279
21
0.218789
0
LINE
8
BLACK
6
CONTINUOUS
10
3.00279
20
0.218789
11
3.01327
21
0.216705
0
LINE
8
BLACK
6
CONTINUOUS
10
3.01327
20
0.216705
11
3.02339
21
0.21327
0
LINE
8
BLACK
6
CONTINUOUS
10
3.02339
20
0.21327
11
3.03297
21
0.208543
0
LINE
8
BLACK
6
CONTINUOUS
10
3.03297
20
0.208543
11
3.04186
21
0.202607
0
LINE
8
BLACK
6
CONTINUOUS
10
3.04186
20
0.202607
11
3.04989
21
0.195561
0
LINE
8
BLACK
6
CONTINUOUS
10
3.04989
20
0.195561
11
3.05694
21
0.187527
0
LINE
8
BLACK
6
CONTINUOUS
10
3.05694
20
0.187527
11
3.06287
21
0.178642
0
LINE
8
BLACK
6
CONTINUOUS
10
3.06287
20
0.178642
11
3.0676
21
0.169058
0
LINE
8
BLACK
6
CONTINUOUS
10
3.0676
20
0.169058
11
3.07104
21
0.158939
0
LINE
8
BLACK
6
CONTINUOUS
10
3.07104
20
0.158939
11
3.07312
21
0.148458
0
LINE
8
BLACK
6
CONTINUOUS
10
3.07312
20
0.148458
11
3.07382
21
0.137795
0
LINE
8
BLACK
6
CONTINUOUS
10
3.07382
20
0.137795
11
3.07368
21
0.137379
0
LINE
8
BLACK
6
CONTINUOUS
10
3.07368
20
0.137379
11
3.07431
21
0.127882
0
LINE
8
BLACK
6
CONTINUOUS
10
3.07431
20
0.127882
11
3.07624
21
0.118138
0
LINE
8
BLACK
6
CONTINUOUS
10
3.07624
20
0.118138
11
3.07944
21
0.10873
0
LINE
8
BLACK
6
CONTINUOUS
10
3.07944
20
0.10873
11
3.08383
21
0.0998203
0
LINE
8
BLACK
6
CONTINUOUS
10
3.08383
20
0.0998203
11
3.08935
21
0.0915598
0
LINE
8
BLACK
6
CONTINUOUS
10
3.08935
20
0.0915598
11
3.0959
21
0.0840905
0
LINE
8
BLACK
6
CONTINUOUS
10
3.0959
20
0.0840905
11
3.10337
21
0.0775401
0
LINE
8
BLACK
6
CONTINUOUS
10
3.10337
20
0.0775401
11
3.11163
21
0.0720206
0
LINE
8
BLACK
6
CONTINUOUS
10
3.11163
20
0.0720206
11
3.12054
21
0.0676266
0
LINE
8
BLACK
6
CONTINUOUS
10
3.12054
20
0.0676266
11
3.12995
21
0.0644332
0
LINE
8
BLACK
6
CONTINUOUS
10
3.12995
20
0.0644332
11
3.13969
21
0.062495
0
LINE
8
BLACK
6
CONTINUOUS
10
3.13969
20
0.062495
11
3.14919
21
0.0618726
0
LINE
8
BLACK
6
CONTINUOUS
10
3.14919
20
0.0618726
11
3.14961
21
0.0620079
0
LINE
8
BLACK
6
CONTINUOUS
10
3.14961
20
0.0620079
11
3.4252
21
0.0620079
0
LINE
8
BLACK
6
CONTINUOUS
10
3.4252
20
0.0620079
11
3.42587
21
0.0618893
0
LINE
8
BLACK
6
CONTINUOUS
10
3.42587
20
0.0618893
11
3.43511
21
0.062495
0
LINE
8
BLACK
6
CONTINUOUS
10
3.43511
20
0.062495
11
3.44485
21
0.0644332
0
LINE
8
BLACK
6
CONTINUOUS
10
3.44485
20
0.0644332
11
3.45426
21
0.0676266
0
LINE
8
BLACK
6
CONTINUOUS
10
3.45426
20
0.0676266
11
3.46317
21
0.0720206
0
LINE
8
BLACK
6
CONTINUOUS
10
3.46317
20
0.0720206
11
3.47143
21
0.0775401
0
LINE
8
BLACK
6
CONTINUOUS
10
3.47143
20
0.0775401
11
3.4789
21
0.0840905
0
LINE
8
BLACK
6
CONTINUOUS
10
3.4789
20
0.0840905
11
3.48545
21
0.0915598
0
LINE
8
BLACK
6
CONTINUOUS
10
3.48545
20
0.0915598
11
3.49097
21
0.0998203
0
LINE
8
BLACK
6
CONTINUOUS
10
3.49097
20
0.0998203
11
3.49537
21
0.10873
0
LINE
8
BLACK
6
CONTINUOUS
10
3.49537
20
0.10873
11
3.49856
21
0.118138
0
LINE
8
BLACK
6
CONTINUOUS
10
3.49856
20
0.118138
11
3.5005
21
0.127882
0
LINE
8
BLACK
6
CONTINUOUS
10
3.5005
20
0.127882
11
3.50112
21
0.137379
0
LINE
8
BLACK
6
CONTINUOUS
10
3.50112
20
0.137379
11
3.50098
21
0.137795
0
LINE
8
BLACK
6
CONTINUOUS
10
3.50098
20
0.137795
11
3.50098
21
2.6378
0
LINE
8
BLACK
6
CONTINUOUS
10
3.50098
20
2.6378
11
3.5011
21
2.63848
0
LINE
8
BLACK
6
CONTINUOUS
10
3.5011
20
2.63848
11
3.50046
21
2.6466
0
LINE
8
BLACK
6
CONTINUOUS
10
3.50046
20
2.6466
11
3.4984
21
2.65519
0
LINE
8
BLACK
6
CONTINUOUS
10
3.4984
20
2.65519
11
3.49502
21
2.66334
0
LINE
8
BLACK
6
CONTINUOUS
10
3.49502
20
2.66334
11
3.49041
21
2.67087
0
LINE
8
BLACK
6
CONTINUOUS
10
3.49041
20
2.67087
11
3.48467
21
2.67759
0
LINE
8
BLACK
6
CONTINUOUS
10
3.48467
20
2.67759
11
3.47796
21
2.68332
0
LINE
8
BLACK
6
CONTINUOUS
10
3.47796
20
2.68332
11
3.47043
21
2.68794
0
LINE
8
BLACK
6
CONTINUOUS
10
3.47043
20
2.68794
11
3.46227
21
2.69132
0
LINE
8
BLACK
6
CONTINUOUS
10
3.46227
20
2.69132
11
3.45369
21
2.69338
0
LINE
8
BLACK
6
CONTINUOUS
10
3.45369
20
2.69338
11
3.44531
21
2.69404
0
LINE
8
BLACK
6
CONTINUOUS
10
3.44531
20
2.69404
11
3.44488
21
2.6939
0
LINE
8
BLACK
6
CONTINUOUS
10
3.44488
20
2.6939
11
3.42126
21
2.6939
0
LINE
8
BLACK
6
CONTINUOUS
10
3.42126
20
2.6939
11
3.41244
21
2.69453
0
LINE
8
BLACK
6
CONTINUOUS
10
3.41244
20
2.69453
11
3.40379
21
2.69641
0
LINE
8
BLACK
6
CONTINUOUS
10
3.40379
20
2.69641
11
3.3955
21
2.6995
0
LINE
8
BLACK
6
CONTINUOUS
10
3.3955
20
2.6995
11
3.38774
21
2.70374
0
LINE
8
BLACK
6
CONTINUOUS
10
3.38774
20
2.70374
11
3.38065
21
2.70904
0
LINE
8
BLACK
6
CONTINUOUS
10
3.38065
20
2.70904
11
3.3744
21
2.7153
0
LINE
8
BLACK
6
CONTINUOUS
10
3.3744
20
2.7153
11
3.3691
21
2.72238
0
LINE
8
BLACK
6
CONTINUOUS
10
3.3691
20
2.72238
11
3.36486
21
2.73015
0
LINE
8
BLACK
6
CONTINUOUS
10
3.36486
20
2.73015
11
3.36176
21
2.73844
0
LINE
8
BLACK
6
CONTINUOUS
10
3.36176
20
2.73844
11
3.35988
21
2.74708
0
LINE
8
BLACK
6
CONTINUOUS
10
3.35988
20
2.74708
11
3.35925
21
2.75591
0
LINE
8
BLACK
6
CONTINUOUS
10
3.35925
20
2.75591
11
3.35925
21
3.66142
0
LINE
8
BLACK
6
CONTINUOUS
10
3.35925
20
3.66142
11
3.35937
21
3.66209
0
LINE
8
BLACK
6
CONTINUOUS
10
3.35937
20
3.66209
11
3.35876
21
3.67133
0
LINE
8
BLACK
6
CONTINUOUS
10
3.35876
20
3.67133
11
3.35683
21
3.68107
0
LINE
8
BLACK
6
CONTINUOUS
10
3.35683
20
3.68107
11
3.35363
21
3.69048
0
LINE
8
BLACK
6
CONTINUOUS
10
3.35363
20
3.69048
11
3.34924
21
3.69939
0
LINE
8
BLACK
6
CONTINUOUS
10
3.34924
20
3.69939
11
3.34372
21
3.70765
0
LINE
8
BLACK
6
CONTINUOUS
10
3.34372
20
3.70765
11
3.33717
21
3.71512
0
LINE
8
BLACK
6
CONTINUOUS
10
3.33717
20
3.71512
11
3.3297
21
3.72167
0
LINE
8
BLACK
6
CONTINUOUS
10
3.3297
20
3.72167
11
3.32144
21
3.72719
0
LINE
8
BLACK
6
CONTINUOUS
10
3.32144
20
3.72719
11
3.31253
21
3.73159
0
LINE
8
BLACK
6
CONTINUOUS
10
3.31253
20
3.73159
11
3.30312
21
3.73478
0
LINE
8
BLACK
6
CONTINUOUS
10
3.30312
20
3.73478
11
3.29338
21
3.73672
0
LINE
8
BLACK
6
CONTINUOUS
10
3.29338
20
3.73672
11
3.28388
21
3.73734
0
LINE
8
BLACK
6
CONTINUOUS
10
3.28388
20
3.73734
11
3.28346
21
3.7372
0
LINE
8
BLACK
6
CONTINUOUS
10
3.28346
20
3.7372
11
2.99213
21
3.7372
0
LINE
8
BLACK
6
CONTINUOUS
10
2.99213
20
3.7372
11
2.99145
21
3.73732
  0
ENDSEC
  0
EOF
