  0
SECTION
  2
HEADER
  9
$ANGBASE
  50
0.0
  9
$ANGDIR
  70
1
  9
$MEASUREMENT
  70
0
  0
ENDSEC
  0
SECTION
  2
TABLES
  0
TABLE
  2
LTYPE
  70
4
  0
LTYPE
  5
40F
  2
CONTINUOUS
  70
0
  3
Solid line
  72
65
  73
0
  40
0.0
  0
LTYPE
  5
410
  2
DASHDOT
 70
0
  3
Dash Dot ____ _ ____ _
 72
65
 73
4
 40
2.0
 49
1.25
 49
-0.25
 49
0.25
 49
-0.25
  0
LTYPE
  5
411
  2
DASHED
 70
0
  3
Dashed __ __ __ __ __
 72
65
 73
2
 40
0.75
 49
0.5
 49
-0.25
  0
LTYPE
  5
43B
  2
DOTTED
 70
0
  3
Dotted .  .  .  .
 72
65
 73
2
 40
0.2
 49
0.0
 49
-0.2
  0
ENDTAB
  0
TABLE
  2
STYLE
  70
4
  0
STYLE
  2
KICAD
  70
0
  40
0
  41
1
  42
1
  50
0
  71
0
  3
isocp.shx
  0
STYLE
  2
KICADB
  70
0
  40
0
  41
1
  42
1
  50
0
  71
0
  3
isocp.shx
  0
STYLE
  2
KICADI
  70
0
  40
0
  41
1
  42
1
  50
15
  71
0
  3
isocp.shx
  0
STYLE
  2
KICADBI
  70
0
  40
0
  41
1
  42
1
  50
15
  71
0
  3
isocp.shx
  0
ENDTAB
  0
TABLE
  2
LAYER
  70
1
  0
LAYER
  2
BLACK
  70
0
  62
7
  6
CONTINUOUS
  0
ENDTAB
  0
ENDSEC
  0
SECTION
  2
ENTITIES
0
LINE
8
BLACK
6
CONTINUOUS
10
6.7034065748031493
20
-4.3583721653543304
11
6.7041025590551175
21
-4.3586604330708658
0
LINE
8
BLACK
6
CONTINUOUS
10
6.7041025590551175
20
-4.3586604330708658
11
6.704390826771653
21
-4.359356417322835
0
LINE
8
BLACK
6
CONTINUOUS
10
6.704390826771653
20
-4.359356417322835
11
6.704390826771653
21
-4.5680178346456692
0
LINE
8
BLACK
6
CONTINUOUS
10
6.704390826771653
20
-4.5680178346456692
11
6.7041025590551175
21
-4.5687138188976375
0
LINE
8
BLACK
6
CONTINUOUS
10
6.7041025590551175
20
-4.5687138188976375
11
6.7034065748031493
21
-4.569002086614173
0
LINE
8
BLACK
6
CONTINUOUS
10
6.7034065748031493
20
-4.569002086614173
11
6.616792401574803
21
-4.569002086614173
0
LINE
8
BLACK
6
CONTINUOUS
10
6.616792401574803
20
-4.569002086614173
11
6.6160964173228347
21
-4.5687138188976375
0
LINE
8
BLACK
6
CONTINUOUS
10
6.6160964173228347
20
-4.5687138188976375
11
6.6158081496062993
21
-4.5680178346456692
0
LINE
8
BLACK
6
CONTINUOUS
10
6.6158081496062993
20
-4.5680178346456692
11
6.6158081496062993
21
-4.359356417322835
0
LINE
8
BLACK
6
CONTINUOUS
10
6.6158081496062993
20
-4.359356417322835
11
6.6160964173228347
21
-4.3586604330708658
0
LINE
8
BLACK
6
CONTINUOUS
10
6.6160964173228347
20
-4.3586604330708658
11
6.616792401574803
21
-4.3583721653543304
0
LINE
8
BLACK
6
CONTINUOUS
10
6.616792401574803
20
-4.3583721653543304
11
6.7034065748031493
21
-4.3583721653543304
0
LINE
8
BLACK
6
CONTINUOUS
10
6.6177766535433067
20
-4.3603406692913387
11
6.6177766535433067
21
-4.5670335826771655
0
LINE
8
BLACK
6
CONTINUOUS
10
6.6177766535433067
20
-4.5670335826771655
11
6.7024223228346456
21
-4.5670335826771655
0
LINE
8
BLACK
6
CONTINUOUS
10
6.7024223228346456
20
-4.5670335826771655
11
6.7024223228346456
21
-4.3603406692913387
0
LINE
8
BLACK
6
CONTINUOUS
10
6.7024223228346456
20
-4.3603406692913387
11
6.6177766535433067
21
-4.3603406692913387
0
LINE
8
BLACK
6
CONTINUOUS
10
6.7009656299212601
20
-3.7265611417322835
11
6.7016616141732284
21
-3.7268494094488189
0
LINE
8
BLACK
6
CONTINUOUS
10
6.7016616141732284
20
-3.7268494094488189
11
6.7019498818897638
21
-3.7275453937007872
0
LINE
8
BLACK
6
CONTINUOUS
10
6.7019498818897638
20
-3.7275453937007872
11
6.7019498818897638
21
-3.9598288582677164
0
LINE
8
BLACK
6
CONTINUOUS
10
6.7019498818897638
20
-3.9598288582677164
11
6.7016616141732284
21
-3.9605248425196851
0
LINE
8
BLACK
6
CONTINUOUS
10
6.7016616141732284
20
-3.9605248425196851
11
6.7009656299212601
21
-3.9608131102362205
0
LINE
8
BLACK
6
CONTINUOUS
10
6.7009656299212601
20
-3.9608131102362205
11
6.6015207480314961
21
-3.9608131102362205
0
LINE
8
BLACK
6
CONTINUOUS
10
6.6015207480314961
20
-3.9608131102362205
11
6.6015207480314961
21
-4.454265866141732
0
LINE
8
BLACK
6
CONTINUOUS
10
6.6015207480314961
20
-4.454265866141732
11
6.6012324803149607
21
-4.4549618503937003
0
LINE
8
BLACK
6
CONTINUOUS
10
6.6012324803149607
20
-4.4549618503937003
11
6.6005364960629924
21
-4.4552501181102357
0
LINE
8
BLACK
6
CONTINUOUS
10
6.6005364960629924
20
-4.4552501181102357
11
6.0729774409448813
21
-4.4552501181102357
0
LINE
8
BLACK
6
CONTINUOUS
10
6.0729774409448813
20
-4.4552501181102357
11
6.0722814566929131
21
-4.4549618503937003
0
LINE
8
BLACK
6
CONTINUOUS
10
6.0722814566929131
20
-4.4549618503937003
11
6.0719931889763776
21
-4.454265866141732
0
LINE
8
BLACK
6
CONTINUOUS
10
6.0719931889763776
20
-4.454265866141732
11
6.0719931889763776
21
-3.9267068110236218
0
LINE
8
BLACK
6
CONTINUOUS
10
6.0719931889763776
20
-3.9267068110236218
11
6.0722814566929131
21
-3.9260108267716536
0
LINE
8
BLACK
6
CONTINUOUS
10
6.0722814566929131
20
-3.9260108267716536
11
6.0729774409448813
21
-3.9257225590551181
0
LINE
8
BLACK
6
CONTINUOUS
10
6.0729774409448813
20
-3.9257225590551181
11
6.5582490944881888
21
-3.9257225590551181
0
LINE
8
BLACK
6
CONTINUOUS
10
6.5582490944881888
20
-3.9257225590551181
11
6.5582490944881888
21
-3.7275453937007872
0
LINE
8
BLACK
6
CONTINUOUS
10
6.5582490944881888
20
-3.7275453937007872
11
6.5585373622047243
21
-3.7268494094488189
0
LINE
8
BLACK
6
CONTINUOUS
10
6.5585373622047243
20
-3.7268494094488189
11
6.5592333464566925
21
-3.7265611417322835
0
LINE
8
BLACK
6
CONTINUOUS
10
6.5592333464566925
20
-3.7265611417322835
11
6.7009656299212601
21
-3.7265611417322835
0
LINE
8
BLACK
6
CONTINUOUS
10
6.0739616929133859
20
-3.927691062992126
11
6.0739616929133859
21
-4.4532816141732283
0
LINE
8
BLACK
6
CONTINUOUS
10
6.0739616929133859
20
-4.4532816141732283
11
6.5995522440944878
21
-4.4532816141732283
0
LINE
8
BLACK
6
CONTINUOUS
10
6.5995522440944878
20
-4.4532816141732283
11
6.5995522440944878
21
-3.9608131102362205
0
LINE
8
BLACK
6
CONTINUOUS
10
6.5995522440944878
20
-3.9608131102362205
11
6.5592333464566925
21
-3.9608131102362205
0
LINE
8
BLACK
6
CONTINUOUS
10
6.5592333464566925
20
-3.9608131102362205
11
6.5585373622047243
21
-3.9605248425196851
0
LINE
8
BLACK
6
CONTINUOUS
10
6.5585373622047243
20
-3.9605248425196851
11
6.5582490944881888
21
-3.9598288582677164
0
LINE
8
BLACK
6
CONTINUOUS
10
6.5582490944881888
20
-3.9598288582677164
11
6.5582490944881888
21
-3.927691062992126
0
LINE
8
BLACK
6
CONTINUOUS
10
6.5582490944881888
20
-3.927691062992126
11
6.0739616929133859
21
-3.927691062992126
0
LINE
8
BLACK
6
CONTINUOUS
10
6.5602175984251971
20
-3.927691062992126
11
6.5602175984251971
21
-3.9588446062992126
0
LINE
8
BLACK
6
CONTINUOUS
10
6.5602175984251971
20
-3.9588446062992126
11
6.5995522440944878
21
-3.9588446062992126
0
LINE
8
BLACK
6
CONTINUOUS
10
6.5995522440944878
20
-3.9588446062992126
11
6.5995522440944878
21
-3.927691062992126
0
LINE
8
BLACK
6
CONTINUOUS
10
6.5995522440944878
20
-3.927691062992126
11
6.5602175984251971
21
-3.927691062992126
0
LINE
8
BLACK
6
CONTINUOUS
10
6.5602175984251971
20
-3.7285296456692913
11
6.5602175984251971
21
-3.9257225590551181
0
LINE
8
BLACK
6
CONTINUOUS
10
6.5602175984251971
20
-3.9257225590551181
11
6.6005364960629924
21
-3.9257225590551181
0
LINE
8
BLACK
6
CONTINUOUS
10
6.6005364960629924
20
-3.9257225590551181
11
6.6012324803149607
21
-3.9260108267716536
0
LINE
8
BLACK
6
CONTINUOUS
10
6.6012324803149607
20
-3.9260108267716536
11
6.6015207480314961
21
-3.9267068110236218
0
LINE
8
BLACK
6
CONTINUOUS
10
6.6015207480314961
20
-3.9267068110236218
11
6.6015207480314961
21
-3.9588446062992126
0
LINE
8
BLACK
6
CONTINUOUS
10
6.6015207480314961
20
-3.9588446062992126
11
6.6999813779527555
21
-3.9588446062992126
0
LINE
8
BLACK
6
CONTINUOUS
10
6.6999813779527555
20
-3.9588446062992126
11
6.6999813779527555
21
-3.7285296456692913
0
LINE
8
BLACK
6
CONTINUOUS
10
6.6999813779527555
20
-3.7285296456692913
11
6.5602175984251971
21
-3.7285296456692913
0
LINE
8
BLACK
6
CONTINUOUS
10
6.1675010629921259
20
-3.7402225590551179
11
6.1681970472440941
21
-3.7405108267716534
0
LINE
8
BLACK
6
CONTINUOUS
10
6.1681970472440941
20
-3.7405108267716534
11
6.1684853149606296
21
-3.7412068110236221
0
LINE
8
BLACK
6
CONTINUOUS
10
6.1684853149606296
20
-3.7412068110236221
11
6.1684853149606296
21
-3.8868761023622045
0
LINE
8
BLACK
6
CONTINUOUS
10
6.1684853149606296
20
-3.8868761023622045
11
6.1681970472440941
21
-3.8875720866141732
0
LINE
8
BLACK
6
CONTINUOUS
10
6.1681970472440941
20
-3.8875720866141732
11
6.1675010629921259
21
-3.8878603543307086
0
LINE
8
BLACK
6
CONTINUOUS
10
6.1675010629921259
20
-3.8878603543307086
11
6.0926979133858268
21
-3.8878603543307086
0
LINE
8
BLACK
6
CONTINUOUS
10
6.0926979133858268
20
-3.8878603543307086
11
6.0920019291338585
21
-3.8875720866141732
0
LINE
8
BLACK
6
CONTINUOUS
10
6.0920019291338585
20
-3.8875720866141732
11
6.0917136614173231
21
-3.8868761023622045
0
LINE
8
BLACK
6
CONTINUOUS
10
6.0917136614173231
20
-3.8868761023622045
11
6.0917136614173231
21
-3.7412068110236221
0
LINE
8
BLACK
6
CONTINUOUS
10
6.0917136614173231
20
-3.7412068110236221
11
6.0920019291338585
21
-3.7405108267716534
0
LINE
8
BLACK
6
CONTINUOUS
10
6.0920019291338585
20
-3.7405108267716534
11
6.0926979133858268
21
-3.7402225590551179
0
LINE
8
BLACK
6
CONTINUOUS
10
6.0926979133858268
20
-3.7402225590551179
11
6.1675010629921259
21
-3.7402225590551179
0
LINE
8
BLACK
6
CONTINUOUS
10
6.0936821653543305
20
-3.7421910629921258
11
6.0936821653543305
21
-3.8858918503937008
0
LINE
8
BLACK
6
CONTINUOUS
10
6.0936821653543305
20
-3.8858918503937008
11
6.1665168110236221
21
-3.8858918503937008
0
LINE
8
BLACK
6
CONTINUOUS
10
6.1665168110236221
20
-3.8858918503937008
11
6.1665168110236221
21
-3.7421910629921258
0
LINE
8
BLACK
6
CONTINUOUS
10
6.1665168110236221
20
-3.7421910629921258
11
6.0936821653543305
21
-3.7421910629921258
0
LINE
8
BLACK
6
CONTINUOUS
10
6.1741152362204721
20
-3.5962737401574802
11
6.1748112204724412
21
-3.5965620078740157
0
LINE
8
BLACK
6
CONTINUOUS
10
6.1748112204724412
20
-3.5965620078740157
11
6.1750994881889758
21
-3.597257992125984
0
LINE
8
BLACK
6
CONTINUOUS
10
6.1750994881889758
20
-3.597257992125984
11
6.1750994881889758
21
-3.7311162598425196
0
LINE
8
BLACK
6
CONTINUOUS
10
6.1750994881889758
20
-3.7311162598425196
11
6.1748112204724412
21
-3.7318122440944883
0
LINE
8
BLACK
6
CONTINUOUS
10
6.1748112204724412
20
-3.7318122440944883
11
6.1741152362204721
21
-3.7321005118110238
0
LINE
8
BLACK
6
CONTINUOUS
10
6.1741152362204721
20
-3.7321005118110238
11
6.0126979133858267
21
-3.7321005118110238
0
LINE
8
BLACK
6
CONTINUOUS
10
6.0126979133858267
20
-3.7321005118110238
11
6.0120019291338584
21
-3.7318122440944883
0
LINE
8
BLACK
6
CONTINUOUS
10
6.0120019291338584
20
-3.7318122440944883
11
6.011713661417323
21
-3.7311162598425196
0
LINE
8
BLACK
6
CONTINUOUS
10
6.011713661417323
20
-3.7311162598425196
11
6.011713661417323
21
-3.597257992125984
0
LINE
8
BLACK
6
CONTINUOUS
10
6.011713661417323
20
-3.597257992125984
11
6.0120019291338584
21
-3.5965620078740157
0
LINE
8
BLACK
6
CONTINUOUS
10
6.0120019291338584
20
-3.5965620078740157
11
6.0126979133858267
21
-3.5962737401574802
0
LINE
8
BLACK
6
CONTINUOUS
10
6.0126979133858267
20
-3.5962737401574802
11
6.1741152362204721
21
-3.5962737401574802
0
LINE
8
BLACK
6
CONTINUOUS
10
6.0136821653543304
20
-3.5982422440944881
11
6.0136821653543304
21
-3.7301320078740154
0
LINE
8
BLACK
6
CONTINUOUS
10
6.0136821653543304
20
-3.7301320078740154
11
6.1731309842519684
21
-3.7301320078740154
0
LINE
8
BLACK
6
CONTINUOUS
10
6.1731309842519684
20
-3.7301320078740154
11
6.1731309842519684
21
-3.5982422440944881
0
LINE
8
BLACK
6
CONTINUOUS
10
6.1731309842519684
20
-3.5982422440944881
11
6.0136821653543304
21
-3.5982422440944881
0
LINE
8
BLACK
6
CONTINUOUS
10
6.8908868897637792
20
-3.5602619685039367
11
6.8915828740157483
21
-3.5605502362204722
0
LINE
8
BLACK
6
CONTINUOUS
10
6.8915828740157483
20
-3.5605502362204722
11
6.8918711417322829
21
-3.5612462204724409
0
LINE
8
BLACK
6
CONTINUOUS
10
6.8918711417322829
20
-3.5612462204724409
11
6.8918711417322829
21
-4.7541596062992122
0
LINE
8
BLACK
6
CONTINUOUS
10
6.8918711417322829
20
-4.7541596062992122
11
6.8915828740157483
21
-4.7548555905511813
0
LINE
8
BLACK
6
CONTINUOUS
10
6.8915828740157483
20
-4.7548555905511813
11
6.8908868897637792
21
-4.7551438582677168
0
LINE
8
BLACK
6
CONTINUOUS
10
6.8908868897637792
20
-4.7551438582677168
11
5.6979735039370079
21
-4.7551438582677168
0
LINE
8
BLACK
6
CONTINUOUS
10
5.6979735039370079
20
-4.7551438582677168
11
5.6972775196850396
21
-4.7548555905511813
0
LINE
8
BLACK
6
CONTINUOUS
10
5.6972775196850396
20
-4.7548555905511813
11
5.6969892519685041
21
-4.7541596062992122
0
LINE
8
BLACK
6
CONTINUOUS
10
5.6969892519685041
20
-4.7541596062992122
11
5.6969892519685041
21
-3.5612462204724409
0
LINE
8
BLACK
6
CONTINUOUS
10
5.6969892519685041
20
-3.5612462204724409
11
5.6972775196850396
21
-3.5605502362204722
0
LINE
8
BLACK
6
CONTINUOUS
10
5.6972775196850396
20
-3.5605502362204722
11
5.6979735039370079
21
-3.5602619685039367
0
LINE
8
BLACK
6
CONTINUOUS
10
5.6979735039370079
20
-3.5602619685039367
11
6.8908868897637792
21
-3.5602619685039367
0
LINE
8
BLACK
6
CONTINUOUS
10
5.6989577559055116
20
-3.5622304724409446
11
5.6989577559055116
21
-4.7531753543307085
0
LINE
8
BLACK
6
CONTINUOUS
10
5.6989577559055116
20
-4.7531753543307085
11
6.8899026377952755
21
-4.7531753543307085
0
LINE
8
BLACK
6
CONTINUOUS
10
6.8899026377952755
20
-4.7531753543307085
11
6.8899026377952755
21
-3.5622304724409446
0
LINE
8
BLACK
6
CONTINUOUS
10
6.8899026377952755
20
-3.5622304724409446
11
5.6989577559055116
21
-3.5622304724409446
0
LINE
8
BLACK
6
CONTINUOUS
10
6.9499420078740153
20
-3.5012068503937006
11
6.9506379921259844
21
-3.5014951181102361
0
LINE
8
BLACK
6
CONTINUOUS
10
6.9506379921259844
20
-3.5014951181102361
11
6.9509262598425199
21
-3.5021911023622048
0
LINE
8
BLACK
6
CONTINUOUS
10
6.9509262598425199
20
-3.5021911023622048
11
6.9509262598425199
21
-4.8132147244094483
0
LINE
8
BLACK
6
CONTINUOUS
10
6.9509262598425199
20
-4.8132147244094483
11
6.9506379921259844
21
-4.8139107086614175
0
LINE
8
BLACK
6
CONTINUOUS
10
6.9506379921259844
20
-4.8139107086614175
11
6.9499420078740153
21
-4.8141989763779529
0
LINE
8
BLACK
6
CONTINUOUS
10
6.9499420078740153
20
-4.8141989763779529
11
5.6389183858267717
21
-4.8141989763779529
0
LINE
8
BLACK
6
CONTINUOUS
10
5.6389183858267717
20
-4.8141989763779529
11
5.6382224015748026
21
-4.8139107086614175
0
LINE
8
BLACK
6
CONTINUOUS
10
5.6382224015748026
20
-4.8139107086614175
11
5.637934133858268
21
-4.8132147244094483
0
LINE
8
BLACK
6
CONTINUOUS
10
5.637934133858268
20
-4.8132147244094483
11
5.637934133858268
21
-3.5021911023622048
0
LINE
8
BLACK
6
CONTINUOUS
10
5.637934133858268
20
-3.5021911023622048
11
5.6382224015748026
21
-3.5014951181102361
0
LINE
8
BLACK
6
CONTINUOUS
10
5.6382224015748026
20
-3.5014951181102361
11
5.6389183858267717
21
-3.5012068503937006
0
LINE
8
BLACK
6
CONTINUOUS
10
5.6389183858267717
20
-3.5012068503937006
11
6.9499420078740153
21
-3.5012068503937006
0
LINE
8
BLACK
6
CONTINUOUS
10
5.6399026377952755
20
-3.5031753543307085
11
5.6399026377952755
21
-4.8122304724409446
0
LINE
8
BLACK
6
CONTINUOUS
10
5.6399026377952755
20
-4.8122304724409446
11
6.9489577559055116
21
-4.8122304724409446
0
LINE
8
BLACK
6
CONTINUOUS
10
6.9489577559055116
20
-4.8122304724409446
11
6.9489577559055116
21
-3.5031753543307085
0
LINE
8
BLACK
6
CONTINUOUS
10
6.9489577559055116
20
-3.5031753543307085
11
5.6399026377952755
21
-3.5031753543307085
0
LINE
8
BLACK
6
CONTINUOUS
10
5.4237648425196845
20
-4.3292659055118108
11
5.4244608267716536
21
-4.3295541732283462
0
LINE
8
BLACK
6
CONTINUOUS
10
5.4244608267716536
20
-4.3295541732283462
11
5.4247490944881891
21
-4.3302501574803145
0
LINE
8
BLACK
6
CONTINUOUS
10
5.4247490944881891
20
-4.3302501574803145
11
5.4247490944881891
21
-4.5176517322834648
0
LINE
8
BLACK
6
CONTINUOUS
10
5.4247490944881891
20
-4.5176517322834648
11
5.4244608267716536
21
-4.5183477165354331
0
LINE
8
BLACK
6
CONTINUOUS
10
5.4244608267716536
20
-4.5183477165354331
11
5.4237648425196845
21
-4.5186359842519686
0
LINE
8
BLACK
6
CONTINUOUS
10
5.4237648425196845
20
-4.5186359842519686
11
5.2820325590551178
21
-4.5186359842519686
0
LINE
8
BLACK
6
CONTINUOUS
10
5.2820325590551178
20
-4.5186359842519686
11
5.2813365748031496
21
-4.5183477165354331
0
LINE
8
BLACK
6
CONTINUOUS
10
5.2813365748031496
20
-4.5183477165354331
11
5.2810483070866141
21
-4.5176517322834648
0
LINE
8
BLACK
6
CONTINUOUS
10
5.2810483070866141
20
-4.5176517322834648
11
5.2810483070866141
21
-4.3302501574803145
0
LINE
8
BLACK
6
CONTINUOUS
10
5.2810483070866141
20
-4.3302501574803145
11
5.2813365748031496
21
-4.3295541732283462
0
LINE
8
BLACK
6
CONTINUOUS
10
5.2813365748031496
20
-4.3295541732283462
11
5.2820325590551178
21
-4.3292659055118108
0
LINE
8
BLACK
6
CONTINUOUS
10
5.2820325590551178
20
-4.3292659055118108
11
5.4237648425196845
21
-4.3292659055118108
0
LINE
8
BLACK
6
CONTINUOUS
10
5.2830168110236215
20
-4.3312344094488191
11
5.2830168110236215
21
-4.5166674803149602
0
LINE
8
BLACK
6
CONTINUOUS
10
5.2830168110236215
20
-4.5166674803149602
11
5.4227805905511808
21
-4.5166674803149602
0
LINE
8
BLACK
6
CONTINUOUS
10
5.4227805905511808
20
-4.5166674803149602
11
5.4227805905511808
21
-4.3312344094488191
0
LINE
8
BLACK
6
CONTINUOUS
10
5.4227805905511808
20
-4.3312344094488191
11
5.2830168110236215
21
-4.3312344094488191
0
LINE
8
BLACK
6
CONTINUOUS
10
4.3805364960629918
20
-4.0846989370078743
11
4.3812324803149609
21
-4.0849872047244098
0
LINE
8
BLACK
6
CONTINUOUS
10
4.3812324803149609
20
-4.0849872047244098
11
4.3815207480314964
21
-4.0856831889763781
0
LINE
8
BLACK
6
CONTINUOUS
10
4.3815207480314964
20
-4.0856831889763781
11
4.3815207480314964
21
-4.3022186220472438
0
LINE
8
BLACK
6
CONTINUOUS
10
4.3815207480314964
20
-4.3022186220472438
11
4.3812324803149609
21
-4.3029146062992121
0
LINE
8
BLACK
6
CONTINUOUS
10
4.3812324803149609
20
-4.3029146062992121
11
4.3805364960629918
21
-4.3032028740157475
0
LINE
8
BLACK
6
CONTINUOUS
10
4.3805364960629918
20
-4.3032028740157475
11
4.0852609055118112
21
-4.3032028740157475
0
LINE
8
BLACK
6
CONTINUOUS
10
4.0852609055118112
20
-4.3032028740157475
11
4.0845649212598421
21
-4.3029146062992121
0
LINE
8
BLACK
6
CONTINUOUS
10
4.0845649212598421
20
-4.3029146062992121
11
4.0842766535433066
21
-4.3022186220472438
0
LINE
8
BLACK
6
CONTINUOUS
10
4.0842766535433066
20
-4.3022186220472438
11
4.0842766535433066
21
-4.0856831889763781
0
LINE
8
BLACK
6
CONTINUOUS
10
4.0842766535433066
20
-4.0856831889763781
11
4.0845649212598421
21
-4.0849872047244098
0
LINE
8
BLACK
6
CONTINUOUS
10
4.0845649212598421
20
-4.0849872047244098
11
4.0852609055118112
21
-4.0846989370078743
0
LINE
8
BLACK
6
CONTINUOUS
10
4.0852609055118112
20
-4.0846989370078743
11
4.3805364960629918
21
-4.0846989370078743
0
LINE
8
BLACK
6
CONTINUOUS
10
4.0862451574803149
20
-4.0866674409448818
11
4.0862451574803149
21
-4.3012343700787401
0
LINE
8
BLACK
6
CONTINUOUS
10
4.0862451574803149
20
-4.3012343700787401
11
4.3795522440944881
21
-4.3012343700787401
0
LINE
8
BLACK
6
CONTINUOUS
10
4.3795522440944881
20
-4.3012343700787401
11
4.3795522440944881
21
-4.0866674409448818
0
LINE
8
BLACK
6
CONTINUOUS
10
4.3795522440944881
20
-4.0866674409448818
11
4.0862451574803149
21
-4.0866674409448818
0
LINE
8
BLACK
6
CONTINUOUS
10
5.2605364960629917
20
-4.0046989370078743
11
5.2612324803149608
21
-4.0049872047244097
0
LINE
8
BLACK
6
CONTINUOUS
10
5.2612324803149608
20
-4.0049872047244097
11
5.2615207480314963
21
-4.005683188976378
0
LINE
8
BLACK
6
CONTINUOUS
10
5.2615207480314963
20
-4.005683188976378
11
5.2615207480314963
21
-4.2222186220472437
0
LINE
8
BLACK
6
CONTINUOUS
10
5.2615207480314963
20
-4.2222186220472437
11
5.2612324803149608
21
-4.2229146062992129
0
LINE
8
BLACK
6
CONTINUOUS
10
5.2612324803149608
20
-4.2229146062992129
11
5.2605364960629917
21
-4.2232028740157483
0
LINE
8
BLACK
6
CONTINUOUS
10
5.2605364960629917
20
-4.2232028740157483
11
4.9652609055118111
21
-4.2232028740157483
0
LINE
8
BLACK
6
CONTINUOUS
10
4.9652609055118111
20
-4.2232028740157483
11
4.9645649212598428
21
-4.2229146062992129
0
LINE
8
BLACK
6
CONTINUOUS
10
4.9645649212598428
20
-4.2229146062992129
11
4.9642766535433074
21
-4.2222186220472437
0
LINE
8
BLACK
6
CONTINUOUS
10
4.9642766535433074
20
-4.2222186220472437
11
4.9642766535433074
21
-4.005683188976378
0
LINE
8
BLACK
6
CONTINUOUS
10
4.9642766535433074
20
-4.005683188976378
11
4.9645649212598428
21
-4.0049872047244097
0
LINE
8
BLACK
6
CONTINUOUS
10
4.9645649212598428
20
-4.0049872047244097
11
4.9652609055118111
21
-4.0046989370078743
0
LINE
8
BLACK
6
CONTINUOUS
10
4.9652609055118111
20
-4.0046989370078743
11
5.2605364960629917
21
-4.0046989370078743
0
LINE
8
BLACK
6
CONTINUOUS
10
4.9662451574803148
20
-4.0066674409448817
11
4.9662451574803148
21
-4.22123437007874
0
LINE
8
BLACK
6
CONTINUOUS
10
4.9662451574803148
20
-4.22123437007874
11
5.259552244094488
21
-4.22123437007874
0
LINE
8
BLACK
6
CONTINUOUS
10
5.259552244094488
20
-4.22123437007874
11
5.259552244094488
21
-4.0066674409448817
0
LINE
8
BLACK
6
CONTINUOUS
10
5.259552244094488
20
-4.0066674409448817
11
4.9662451574803148
21
-4.0066674409448817
0
LINE
8
BLACK
6
CONTINUOUS
10
5.5515994881889759
20
-3.8471005118110235
11
5.552295472440945
21
-3.847388779527559
0
LINE
8
BLACK
6
CONTINUOUS
10
5.552295472440945
20
-3.847388779527559
11
5.5525837401574805
21
-3.8480847637795277
0
LINE
8
BLACK
6
CONTINUOUS
10
5.5525837401574805
20
-3.8480847637795277
11
5.5525837401574805
21
-3.9898170472440944
0
LINE
8
BLACK
6
CONTINUOUS
10
5.5525837401574805
20
-3.9898170472440944
11
5.552295472440945
21
-3.9905130314960631
0
LINE
8
BLACK
6
CONTINUOUS
10
5.552295472440945
20
-3.9905130314960631
11
5.5515994881889759
21
-3.9908012992125985
0
LINE
8
BLACK
6
CONTINUOUS
10
5.5515994881889759
20
-3.9908012992125985
11
5.3641979133858264
21
-3.9908012992125985
0
LINE
8
BLACK
6
CONTINUOUS
10
5.3641979133858264
20
-3.9908012992125985
11
5.3635019291338581
21
-3.9905130314960631
0
LINE
8
BLACK
6
CONTINUOUS
10
5.3635019291338581
20
-3.9905130314960631
11
5.3632136614173227
21
-3.9898170472440944
0
LINE
8
BLACK
6
CONTINUOUS
10
5.3632136614173227
20
-3.9898170472440944
11
5.3632136614173227
21
-3.8480847637795277
0
LINE
8
BLACK
6
CONTINUOUS
10
5.3632136614173227
20
-3.8480847637795277
11
5.3635019291338581
21
-3.847388779527559
0
LINE
8
BLACK
6
CONTINUOUS
10
5.3635019291338581
20
-3.847388779527559
11
5.3641979133858264
21
-3.8471005118110235
0
LINE
8
BLACK
6
CONTINUOUS
10
5.3641979133858264
20
-3.8471005118110235
11
5.5515994881889759
21
-3.8471005118110235
0
LINE
8
BLACK
6
CONTINUOUS
10
5.365182165354331
20
-3.8490690157480314
11
5.365182165354331
21
-3.9888327952755906
0
LINE
8
BLACK
6
CONTINUOUS
10
5.365182165354331
20
-3.9888327952755906
11
5.5506152362204721
21
-3.9888327952755906
0
LINE
8
BLACK
6
CONTINUOUS
10
5.5506152362204721
20
-3.9888327952755906
11
5.5506152362204721
21
-3.8490690157480314
0
LINE
8
BLACK
6
CONTINUOUS
10
5.5506152362204721
20
-3.8490690157480314
11
5.365182165354331
21
-3.8490690157480314
0
LINE
8
BLACK
6
CONTINUOUS
10
4.5091191732283464
20
-3.8060375196850393
11
4.5098151574803147
21
-3.8063257874015748
0
LINE
8
BLACK
6
CONTINUOUS
10
4.5098151574803147
20
-3.8063257874015748
11
4.5101034251968501
21
-3.8070217716535431
0
LINE
8
BLACK
6
CONTINUOUS
10
4.5101034251968501
20
-3.8070217716535431
11
4.5101034251968501
21
-3.9408800393700787
0
LINE
8
BLACK
6
CONTINUOUS
10
4.5101034251968501
20
-3.9408800393700787
11
4.5098151574803147
21
-3.941576023622047
0
LINE
8
BLACK
6
CONTINUOUS
10
4.5098151574803147
20
-3.941576023622047
11
4.5091191732283464
21
-3.9418642913385824
0
LINE
8
BLACK
6
CONTINUOUS
10
4.5091191732283464
20
-3.9418642913385824
11
4.3579380708661413
21
-3.9418642913385824
0
LINE
8
BLACK
6
CONTINUOUS
10
4.3579380708661413
20
-3.9418642913385824
11
4.357242086614173
21
-3.941576023622047
0
LINE
8
BLACK
6
CONTINUOUS
10
4.357242086614173
20
-3.941576023622047
11
4.3569538188976376
21
-3.9408800393700787
0
LINE
8
BLACK
6
CONTINUOUS
10
4.3569538188976376
20
-3.9408800393700787
11
4.3569538188976376
21
-3.8070217716535431
0
LINE
8
BLACK
6
CONTINUOUS
10
4.3569538188976376
20
-3.8070217716535431
11
4.357242086614173
21
-3.8063257874015748
0
LINE
8
BLACK
6
CONTINUOUS
10
4.357242086614173
20
-3.8063257874015748
11
4.3579380708661413
21
-3.8060375196850393
0
LINE
8
BLACK
6
CONTINUOUS
10
4.3579380708661413
20
-3.8060375196850393
11
4.5091191732283464
21
-3.8060375196850393
0
LINE
8
BLACK
6
CONTINUOUS
10
4.3589223228346459
20
-3.8080060236220472
11
4.3589223228346459
21
-3.9398957874015745
0
LINE
8
BLACK
6
CONTINUOUS
10
4.3589223228346459
20
-3.9398957874015745
11
4.5081349212598427
21
-3.9398957874015745
0
LINE
8
BLACK
6
CONTINUOUS
10
4.5081349212598427
20
-3.9398957874015745
11
4.5081349212598427
21
-3.8080060236220472
0
LINE
8
BLACK
6
CONTINUOUS
10
4.5081349212598427
20
-3.8080060236220472
11
4.3589223228346459
21
-3.8080060236220472
  0
ENDSEC
  0
EOF
