M48
; DRILL file {KiCad 9.0.7+1} date 2026-05-15T02:31:04+0000
; FORMAT={3:3/ absolute / metric / suppress leading zeros}
; #@! TF.CreationDate,2026-05-15T02:31:04+00:00
; #@! TF.GenerationSoftware,Kicad,Pcbnew,9.0.7+1
; #@! TF.FileFunction,Plated,1,2,PTH
FMAT,2
METRIC,TZ
; #@! TA.AperFunction,Plated,PTH,ViaDrill
T1C0.400
; #@! TA.AperFunction,Plated,PTH,ComponentDrill
T2C0.762
; #@! TA.AperFunction,Plated,PTH,ComponentDrill
T3C0.889
; #@! TA.AperFunction,Plated,PTH,ComponentDrill
T4C3.000
%
G90
G05
T1
X99736Y-99801
X99736Y-101071
X99736Y-102976
X99736Y-104881
X99736Y-106786
X99736Y-110596
X99736Y-108691
X99736Y-111866
X100371Y-98531
X101260Y-113390
X101641Y-97261
X102182Y-104494
X102182Y-105764
X102276Y-114406
X102911Y-96626
X102911Y-111472
X103292Y-115422
X104308Y-116438
X104816Y-96626
X104935Y-111722
X104935Y-113222
X105185Y-110472
X105685Y-114472
X105832Y-117454
X106086Y-95991
X106500Y-100938
X107356Y-117454
X107515Y-109047
X107516Y-104621
X107516Y-106526
X107516Y-107796
X107864Y-100811
X107953Y-111854
X107991Y-95991
X107991Y-110596
X108880Y-117454
X108935Y-111722
X108935Y-112972
X108935Y-114722
X109421Y-100811
X109421Y-110336
X109896Y-95991
X110056Y-102716
X110404Y-117454
X111166Y-95991
X111420Y-116438
X111509Y-115410
X111928Y-101198
X112436Y-94721
X112685Y-115972
X113185Y-112472
X113706Y-116311
X113706Y-117581
X114341Y-94721
X114976Y-97896
X114976Y-99166
X114976Y-100222
X115611Y-94721
X116246Y-99166
X116246Y-100222
X116881Y-95356
X117435Y-100222
X118151Y-96626
X118151Y-109326
X118786Y-100436
X118786Y-101706
X118786Y-103738
X119421Y-97261
X119421Y-109326
X120056Y-101706
X120056Y-103738
X120056Y-100436
X120564Y-108818
X120691Y-97261
X121326Y-100436
X121961Y-97261
X121961Y-110850
X122596Y-100436
X123231Y-109834
X123231Y-97261
X123231Y-112501
X123231Y-114406
X123866Y-92816
X123866Y-100436
X124435Y-113472
X124501Y-96626
X124501Y-109326
X124501Y-110596
X124501Y-115041
X125136Y-94086
X125136Y-95356
X125136Y-111866
X125479Y-92550
X125771Y-113136
X125771Y-115041
X126058Y-98906
X126058Y-111352
X127003Y-92296
X127041Y-114406
X127168Y-100690
X127257Y-108298
X127836Y-109066
X127963Y-107669
X128311Y-101071
X128311Y-114406
X128527Y-92296
X128692Y-104373
X129106Y-109066
X129581Y-100436
X129581Y-114406
X129708Y-96118
X130216Y-92562
X130414Y-106526
X130624Y-107548
X130630Y-103478
X130851Y-98531
X130851Y-114406
X131232Y-96118
X131486Y-97261
X131486Y-91038
X131486Y-101071
X131646Y-108266
X132121Y-114406
X133010Y-91038
X133391Y-115041
X133391Y-116311
X133607Y-92804
X133607Y-93820
X133607Y-105504
X134534Y-91038
X134661Y-94721
X134661Y-116946
X134821Y-100811
X135945Y-116412
X135964Y-104748
X135989Y-112927
X136091Y-100811
X136091Y-109066
X136312Y-91038
X136726Y-108431
X137201Y-116311
X137836Y-91038
X138032Y-114095
X138090Y-110342
X138090Y-111358
X138090Y-112882
X138852Y-109326
X139901Y-101706
X140122Y-109326
X140376Y-110596
X140884Y-108310
X149139Y-100563
X149355Y-110761
X151200Y-110905
X151933Y-104627
X152080Y-111848
X153076Y-102214
X153571Y-100614
X154435Y-112870
X154718Y-111370
X155616Y-100690
X155673Y-112267
X157648Y-102214
X157685Y-109722
X158185Y-107972
X159172Y-102722
X159265Y-105508
X159685Y-109222
X160785Y-105250
X161039Y-91280
X161801Y-110076
X162309Y-91280
X162309Y-96868
X163071Y-98138
X163325Y-93058
X163325Y-94328
X163325Y-95598
X163325Y-110330
X163685Y-104472
X165185Y-114472
X166435Y-114472
X168677Y-97820
X170435Y-116722
X171453Y-99662
X172469Y-92804
X172469Y-94074
X172685Y-102722
X172723Y-99662
T2
X107525Y-114222
X112525Y-114222
T3
X149863Y-116934
X149863Y-119474
X152403Y-116934
X152403Y-119474
X154943Y-116934
X154943Y-119474
X157483Y-116934
X157483Y-119474
X160023Y-116934
X160023Y-119474
X162563Y-116934
X162563Y-119474
T4
X96015Y-125062
X113935Y-84422
X168825Y-84422
X181745Y-122522
M30
