G04 #@! TF.GenerationSoftware,KiCad,Pcbnew,(6.0.0-rc1-dev-1606-g4cd41e394)*
G04 #@! TF.CreationDate,2019-01-30T22:16:11+01:00
G04 #@! TF.ProjectId,SPACEDOS01A_PCB01A,53504143-4544-44f5-9330-31415f504342,REV*
G04 #@! TF.SameCoordinates,Original*
G04 #@! TF.FileFunction,Legend,Top*
G04 #@! TF.FilePolarity,Positive*
%FSLAX46Y46*%
G04 Gerber Fmt 4.6, Leading zero omitted, Abs format (unit mm)*
G04 Created by KiCad (PCBNEW (6.0.0-rc1-dev-1606-g4cd41e394)) date 30.01.2019 22:16:11*
%MOMM*%
%LPD*%
G04 APERTURE LIST*
%ADD10C,0.300000*%
%ADD11C,0.150000*%
%ADD12C,0.100000*%
G04 APERTURE END LIST*
D10*
X72349428Y35352904D02*
X72349428Y36652904D01*
X72844666Y36652904D01*
X72968476Y36591000D01*
X73030380Y36529095D01*
X73092285Y36405285D01*
X73092285Y36219571D01*
X73030380Y36095761D01*
X72968476Y36033857D01*
X72844666Y35971952D01*
X72349428Y35971952D01*
X74392285Y35476714D02*
X74330380Y35414809D01*
X74144666Y35352904D01*
X74020857Y35352904D01*
X73835142Y35414809D01*
X73711333Y35538619D01*
X73649428Y35662428D01*
X73587523Y35910047D01*
X73587523Y36095761D01*
X73649428Y36343380D01*
X73711333Y36467190D01*
X73835142Y36591000D01*
X74020857Y36652904D01*
X74144666Y36652904D01*
X74330380Y36591000D01*
X74392285Y36529095D01*
X74825619Y36652904D02*
X75692285Y36652904D01*
X75135142Y35352904D01*
X75902238Y26492904D02*
X76707000Y26492904D01*
X76273666Y25997666D01*
X76459380Y25997666D01*
X76583190Y25935761D01*
X76645095Y25873857D01*
X76707000Y25750047D01*
X76707000Y25440523D01*
X76645095Y25316714D01*
X76583190Y25254809D01*
X76459380Y25192904D01*
X76087952Y25192904D01*
X75964142Y25254809D01*
X75902238Y25316714D01*
X77078428Y26492904D02*
X77511761Y25192904D01*
X77945095Y26492904D01*
X78254619Y26492904D02*
X79059380Y26492904D01*
X78626047Y25997666D01*
X78811761Y25997666D01*
X78935571Y25935761D01*
X78997476Y25873857D01*
X79059380Y25750047D01*
X79059380Y25440523D01*
X78997476Y25316714D01*
X78935571Y25254809D01*
X78811761Y25192904D01*
X78440333Y25192904D01*
X78316523Y25254809D01*
X78254619Y25316714D01*
X73027190Y33193904D02*
X72593857Y33812952D01*
X72284333Y33193904D02*
X72284333Y34493904D01*
X72779571Y34493904D01*
X72903380Y34432000D01*
X72965285Y34370095D01*
X73027190Y34246285D01*
X73027190Y34060571D01*
X72965285Y33936761D01*
X72903380Y33874857D01*
X72779571Y33812952D01*
X72284333Y33812952D01*
X73460523Y34493904D02*
X74327190Y33193904D01*
X74327190Y34493904D02*
X73460523Y33193904D01*
X75070047Y34493904D02*
X75193857Y34493904D01*
X75317666Y34432000D01*
X75379571Y34370095D01*
X75441476Y34246285D01*
X75503380Y33998666D01*
X75503380Y33689142D01*
X75441476Y33441523D01*
X75379571Y33317714D01*
X75317666Y33255809D01*
X75193857Y33193904D01*
X75070047Y33193904D01*
X74946238Y33255809D01*
X74884333Y33317714D01*
X74822428Y33441523D01*
X74760523Y33689142D01*
X74760523Y33998666D01*
X74822428Y34246285D01*
X74884333Y34370095D01*
X74946238Y34432000D01*
X75070047Y34493904D01*
X77883190Y24333904D02*
X77264142Y24333904D01*
X77202238Y23714857D01*
X77264142Y23776761D01*
X77387952Y23838666D01*
X77697476Y23838666D01*
X77821285Y23776761D01*
X77883190Y23714857D01*
X77945095Y23591047D01*
X77945095Y23281523D01*
X77883190Y23157714D01*
X77821285Y23095809D01*
X77697476Y23033904D01*
X77387952Y23033904D01*
X77264142Y23095809D01*
X77202238Y23157714D01*
X78316523Y24333904D02*
X78749857Y23033904D01*
X79183190Y24333904D01*
X76335571Y29098000D02*
X76211761Y29159904D01*
X76026047Y29159904D01*
X75840333Y29098000D01*
X75716523Y28974190D01*
X75654619Y28850380D01*
X75592714Y28602761D01*
X75592714Y28417047D01*
X75654619Y28169428D01*
X75716523Y28045619D01*
X75840333Y27921809D01*
X76026047Y27859904D01*
X76149857Y27859904D01*
X76335571Y27921809D01*
X76397476Y27983714D01*
X76397476Y28417047D01*
X76149857Y28417047D01*
X76954619Y27859904D02*
X76954619Y29159904D01*
X77697476Y27859904D01*
X77697476Y29159904D01*
X78316523Y27859904D02*
X78316523Y29159904D01*
X78626047Y29159904D01*
X78811761Y29098000D01*
X78935571Y28974190D01*
X78997476Y28850380D01*
X79059380Y28602761D01*
X79059380Y28417047D01*
X78997476Y28169428D01*
X78935571Y28045619D01*
X78811761Y27921809D01*
X78626047Y27859904D01*
X78316523Y27859904D01*
X76472142Y34493904D02*
X77215000Y34493904D01*
X76843571Y33193904D02*
X76843571Y34493904D01*
X77524523Y34493904D02*
X78391190Y33193904D01*
X78391190Y34493904D02*
X77524523Y33193904D01*
X79134047Y34493904D02*
X79257857Y34493904D01*
X79381666Y34432000D01*
X79443571Y34370095D01*
X79505476Y34246285D01*
X79567380Y33998666D01*
X79567380Y33689142D01*
X79505476Y33441523D01*
X79443571Y33317714D01*
X79381666Y33255809D01*
X79257857Y33193904D01*
X79134047Y33193904D01*
X79010238Y33255809D01*
X78948333Y33317714D01*
X78886428Y33441523D01*
X78824523Y33689142D01*
X78824523Y33998666D01*
X78886428Y34246285D01*
X78948333Y34370095D01*
X79010238Y34432000D01*
X79134047Y34493904D01*
X76413428Y35352904D02*
X76413428Y36652904D01*
X76908666Y36652904D01*
X77032476Y36591000D01*
X77094380Y36529095D01*
X77156285Y36405285D01*
X77156285Y36219571D01*
X77094380Y36095761D01*
X77032476Y36033857D01*
X76908666Y35971952D01*
X76413428Y35971952D01*
X78456285Y35476714D02*
X78394380Y35414809D01*
X78208666Y35352904D01*
X78084857Y35352904D01*
X77899142Y35414809D01*
X77775333Y35538619D01*
X77713428Y35662428D01*
X77651523Y35910047D01*
X77651523Y36095761D01*
X77713428Y36343380D01*
X77775333Y36467190D01*
X77899142Y36591000D01*
X78084857Y36652904D01*
X78208666Y36652904D01*
X78394380Y36591000D01*
X78456285Y36529095D01*
X78889619Y36652904D02*
X79694380Y36652904D01*
X79261047Y36157666D01*
X79446761Y36157666D01*
X79570571Y36095761D01*
X79632476Y36033857D01*
X79694380Y35910047D01*
X79694380Y35600523D01*
X79632476Y35476714D01*
X79570571Y35414809D01*
X79446761Y35352904D01*
X79075333Y35352904D01*
X78951523Y35414809D01*
X78889619Y35476714D01*
X54025619Y46082809D02*
X54211333Y46020904D01*
X54520857Y46020904D01*
X54644666Y46082809D01*
X54706571Y46144714D01*
X54768476Y46268523D01*
X54768476Y46392333D01*
X54706571Y46516142D01*
X54644666Y46578047D01*
X54520857Y46639952D01*
X54273238Y46701857D01*
X54149428Y46763761D01*
X54087523Y46825666D01*
X54025619Y46949476D01*
X54025619Y47073285D01*
X54087523Y47197095D01*
X54149428Y47259000D01*
X54273238Y47320904D01*
X54582761Y47320904D01*
X54768476Y47259000D01*
X55325619Y46020904D02*
X55325619Y47320904D01*
X55820857Y47320904D01*
X55944666Y47259000D01*
X56006571Y47197095D01*
X56068476Y47073285D01*
X56068476Y46887571D01*
X56006571Y46763761D01*
X55944666Y46701857D01*
X55820857Y46639952D01*
X55325619Y46639952D01*
X56563714Y46392333D02*
X57182761Y46392333D01*
X56439904Y46020904D02*
X56873238Y47320904D01*
X57306571Y46020904D01*
X58482761Y46144714D02*
X58420857Y46082809D01*
X58235142Y46020904D01*
X58111333Y46020904D01*
X57925619Y46082809D01*
X57801809Y46206619D01*
X57739904Y46330428D01*
X57678000Y46578047D01*
X57678000Y46763761D01*
X57739904Y47011380D01*
X57801809Y47135190D01*
X57925619Y47259000D01*
X58111333Y47320904D01*
X58235142Y47320904D01*
X58420857Y47259000D01*
X58482761Y47197095D01*
X59039904Y46701857D02*
X59473238Y46701857D01*
X59658952Y46020904D02*
X59039904Y46020904D01*
X59039904Y47320904D01*
X59658952Y47320904D01*
X60216095Y46020904D02*
X60216095Y47320904D01*
X60525619Y47320904D01*
X60711333Y47259000D01*
X60835142Y47135190D01*
X60897047Y47011380D01*
X60958952Y46763761D01*
X60958952Y46578047D01*
X60897047Y46330428D01*
X60835142Y46206619D01*
X60711333Y46082809D01*
X60525619Y46020904D01*
X60216095Y46020904D01*
X61763714Y47320904D02*
X62011333Y47320904D01*
X62135142Y47259000D01*
X62258952Y47135190D01*
X62320857Y46887571D01*
X62320857Y46454238D01*
X62258952Y46206619D01*
X62135142Y46082809D01*
X62011333Y46020904D01*
X61763714Y46020904D01*
X61639904Y46082809D01*
X61516095Y46206619D01*
X61454190Y46454238D01*
X61454190Y46887571D01*
X61516095Y47135190D01*
X61639904Y47259000D01*
X61763714Y47320904D01*
X62816095Y46082809D02*
X63001809Y46020904D01*
X63311333Y46020904D01*
X63435142Y46082809D01*
X63497047Y46144714D01*
X63558952Y46268523D01*
X63558952Y46392333D01*
X63497047Y46516142D01*
X63435142Y46578047D01*
X63311333Y46639952D01*
X63063714Y46701857D01*
X62939904Y46763761D01*
X62878000Y46825666D01*
X62816095Y46949476D01*
X62816095Y47073285D01*
X62878000Y47197095D01*
X62939904Y47259000D01*
X63063714Y47320904D01*
X63373238Y47320904D01*
X63558952Y47259000D01*
X64363714Y47320904D02*
X64487523Y47320904D01*
X64611333Y47259000D01*
X64673238Y47197095D01*
X64735142Y47073285D01*
X64797047Y46825666D01*
X64797047Y46516142D01*
X64735142Y46268523D01*
X64673238Y46144714D01*
X64611333Y46082809D01*
X64487523Y46020904D01*
X64363714Y46020904D01*
X64239904Y46082809D01*
X64178000Y46144714D01*
X64116095Y46268523D01*
X64054190Y46516142D01*
X64054190Y46825666D01*
X64116095Y47073285D01*
X64178000Y47197095D01*
X64239904Y47259000D01*
X64363714Y47320904D01*
X66035142Y46020904D02*
X65292285Y46020904D01*
X65663714Y46020904D02*
X65663714Y47320904D01*
X65539904Y47135190D01*
X65416095Y47011380D01*
X65292285Y46949476D01*
X66530380Y46392333D02*
X67149428Y46392333D01*
X66406571Y46020904D02*
X66839904Y47320904D01*
X67273238Y46020904D01*
X67397047Y45897095D02*
X68387523Y45897095D01*
X68697047Y46020904D02*
X68697047Y47320904D01*
X69192285Y47320904D01*
X69316095Y47259000D01*
X69378000Y47197095D01*
X69439904Y47073285D01*
X69439904Y46887571D01*
X69378000Y46763761D01*
X69316095Y46701857D01*
X69192285Y46639952D01*
X68697047Y46639952D01*
X70739904Y46144714D02*
X70678000Y46082809D01*
X70492285Y46020904D01*
X70368476Y46020904D01*
X70182761Y46082809D01*
X70058952Y46206619D01*
X69997047Y46330428D01*
X69935142Y46578047D01*
X69935142Y46763761D01*
X69997047Y47011380D01*
X70058952Y47135190D01*
X70182761Y47259000D01*
X70368476Y47320904D01*
X70492285Y47320904D01*
X70678000Y47259000D01*
X70739904Y47197095D01*
X71730380Y46701857D02*
X71916095Y46639952D01*
X71978000Y46578047D01*
X72039904Y46454238D01*
X72039904Y46268523D01*
X71978000Y46144714D01*
X71916095Y46082809D01*
X71792285Y46020904D01*
X71297047Y46020904D01*
X71297047Y47320904D01*
X71730380Y47320904D01*
X71854190Y47259000D01*
X71916095Y47197095D01*
X71978000Y47073285D01*
X71978000Y46949476D01*
X71916095Y46825666D01*
X71854190Y46763761D01*
X71730380Y46701857D01*
X71297047Y46701857D01*
X72844666Y47320904D02*
X72968476Y47320904D01*
X73092285Y47259000D01*
X73154190Y47197095D01*
X73216095Y47073285D01*
X73278000Y46825666D01*
X73278000Y46516142D01*
X73216095Y46268523D01*
X73154190Y46144714D01*
X73092285Y46082809D01*
X72968476Y46020904D01*
X72844666Y46020904D01*
X72720857Y46082809D01*
X72658952Y46144714D01*
X72597047Y46268523D01*
X72535142Y46516142D01*
X72535142Y46825666D01*
X72597047Y47073285D01*
X72658952Y47197095D01*
X72720857Y47259000D01*
X72844666Y47320904D01*
X74516095Y46020904D02*
X73773238Y46020904D01*
X74144666Y46020904D02*
X74144666Y47320904D01*
X74020857Y47135190D01*
X73897047Y47011380D01*
X73773238Y46949476D01*
X75011333Y46392333D02*
X75630380Y46392333D01*
X74887523Y46020904D02*
X75320857Y47320904D01*
X75754190Y46020904D01*
X75911809Y30399904D02*
X75478476Y31018952D01*
X75168952Y30399904D02*
X75168952Y31699904D01*
X75664190Y31699904D01*
X75788000Y31638000D01*
X75849904Y31576095D01*
X75911809Y31452285D01*
X75911809Y31266571D01*
X75849904Y31142761D01*
X75788000Y31080857D01*
X75664190Y31018952D01*
X75168952Y31018952D01*
X76407047Y30461809D02*
X76592761Y30399904D01*
X76902285Y30399904D01*
X77026095Y30461809D01*
X77088000Y30523714D01*
X77149904Y30647523D01*
X77149904Y30771333D01*
X77088000Y30895142D01*
X77026095Y30957047D01*
X76902285Y31018952D01*
X76654666Y31080857D01*
X76530857Y31142761D01*
X76468952Y31204666D01*
X76407047Y31328476D01*
X76407047Y31452285D01*
X76468952Y31576095D01*
X76530857Y31638000D01*
X76654666Y31699904D01*
X76964190Y31699904D01*
X77149904Y31638000D01*
X77521333Y31699904D02*
X78264190Y31699904D01*
X77892761Y30399904D02*
X77892761Y31699904D01*
X78635619Y31266571D02*
X79564190Y31266571D01*
X79007047Y31823714D02*
X78635619Y30152285D01*
X79440380Y30709428D02*
X78511809Y30709428D01*
X79068952Y30152285D02*
X79440380Y31823714D01*
X69818571Y4615571D02*
X69890000Y4687000D01*
X70032857Y4758428D01*
X70390000Y4758428D01*
X70532857Y4687000D01*
X70604285Y4615571D01*
X70675714Y4472714D01*
X70675714Y4329857D01*
X70604285Y4115571D01*
X69747142Y3258428D01*
X70675714Y3258428D01*
X71604285Y4758428D02*
X71747142Y4758428D01*
X71890000Y4687000D01*
X71961428Y4615571D01*
X72032857Y4472714D01*
X72104285Y4187000D01*
X72104285Y3829857D01*
X72032857Y3544142D01*
X71961428Y3401285D01*
X71890000Y3329857D01*
X71747142Y3258428D01*
X71604285Y3258428D01*
X71461428Y3329857D01*
X71390000Y3401285D01*
X71318571Y3544142D01*
X71247142Y3829857D01*
X71247142Y4187000D01*
X71318571Y4472714D01*
X71390000Y4615571D01*
X71461428Y4687000D01*
X71604285Y4758428D01*
X73532857Y3258428D02*
X72675714Y3258428D01*
X73104285Y3258428D02*
X73104285Y4758428D01*
X72961428Y4544142D01*
X72818571Y4401285D01*
X72675714Y4329857D01*
X74247142Y3258428D02*
X74532857Y3258428D01*
X74675714Y3329857D01*
X74747142Y3401285D01*
X74890000Y3615571D01*
X74961428Y3901285D01*
X74961428Y4472714D01*
X74890000Y4615571D01*
X74818571Y4687000D01*
X74675714Y4758428D01*
X74390000Y4758428D01*
X74247142Y4687000D01*
X74175714Y4615571D01*
X74104285Y4472714D01*
X74104285Y4115571D01*
X74175714Y3972714D01*
X74247142Y3901285D01*
X74390000Y3829857D01*
X74675714Y3829857D01*
X74818571Y3901285D01*
X74890000Y3972714D01*
X74961428Y4115571D01*
X69513000Y7298428D02*
X69513000Y6227000D01*
X69441571Y6012714D01*
X69298714Y5869857D01*
X69084428Y5798428D01*
X68941571Y5798428D01*
X70155857Y6227000D02*
X70870142Y6227000D01*
X70013000Y5798428D02*
X70513000Y7298428D01*
X71013000Y5798428D01*
X72370142Y5941285D02*
X72298714Y5869857D01*
X72084428Y5798428D01*
X71941571Y5798428D01*
X71727285Y5869857D01*
X71584428Y6012714D01*
X71513000Y6155571D01*
X71441571Y6441285D01*
X71441571Y6655571D01*
X71513000Y6941285D01*
X71584428Y7084142D01*
X71727285Y7227000D01*
X71941571Y7298428D01*
X72084428Y7298428D01*
X72298714Y7227000D01*
X72370142Y7155571D01*
X73013000Y5798428D02*
X73013000Y7298428D01*
X73013000Y6584142D02*
X73870142Y6584142D01*
X73870142Y5798428D02*
X73870142Y7298428D01*
X74870142Y7298428D02*
X75155857Y7298428D01*
X75298714Y7227000D01*
X75441571Y7084142D01*
X75513000Y6798428D01*
X75513000Y6298428D01*
X75441571Y6012714D01*
X75298714Y5869857D01*
X75155857Y5798428D01*
X74870142Y5798428D01*
X74727285Y5869857D01*
X74584428Y6012714D01*
X74513000Y6298428D01*
X74513000Y6798428D01*
X74584428Y7084142D01*
X74727285Y7227000D01*
X74870142Y7298428D01*
X26436285Y5139428D02*
X26436285Y3925142D01*
X26507714Y3782285D01*
X26579142Y3710857D01*
X26722000Y3639428D01*
X27007714Y3639428D01*
X27150571Y3710857D01*
X27222000Y3782285D01*
X27293428Y3925142D01*
X27293428Y5139428D01*
X27936285Y3710857D02*
X28150571Y3639428D01*
X28507714Y3639428D01*
X28650571Y3710857D01*
X28722000Y3782285D01*
X28793428Y3925142D01*
X28793428Y4068000D01*
X28722000Y4210857D01*
X28650571Y4282285D01*
X28507714Y4353714D01*
X28222000Y4425142D01*
X28079142Y4496571D01*
X28007714Y4568000D01*
X27936285Y4710857D01*
X27936285Y4853714D01*
X28007714Y4996571D01*
X28079142Y5068000D01*
X28222000Y5139428D01*
X28579142Y5139428D01*
X28793428Y5068000D01*
X29222000Y5139428D02*
X30079142Y5139428D01*
X29650571Y3639428D02*
X29650571Y5139428D01*
X30579142Y3782285D02*
X30650571Y3710857D01*
X30579142Y3639428D01*
X30507714Y3710857D01*
X30579142Y3782285D01*
X30579142Y3639428D01*
X32150571Y3782285D02*
X32079142Y3710857D01*
X31864857Y3639428D01*
X31722000Y3639428D01*
X31507714Y3710857D01*
X31364857Y3853714D01*
X31293428Y3996571D01*
X31222000Y4282285D01*
X31222000Y4496571D01*
X31293428Y4782285D01*
X31364857Y4925142D01*
X31507714Y5068000D01*
X31722000Y5139428D01*
X31864857Y5139428D01*
X32079142Y5068000D01*
X32150571Y4996571D01*
X32650571Y5139428D02*
X33650571Y5139428D01*
X32650571Y3639428D01*
X33650571Y3639428D01*
D11*
X83693000Y29718000D02*
X83693000Y32258000D01*
X88773000Y29718000D02*
X83693000Y29718000D01*
X88773000Y32258000D02*
X88773000Y29718000D01*
X83693000Y32258000D02*
X88773000Y32258000D01*
X57531000Y35544760D02*
X57731660Y35143440D01*
X57731660Y35143440D02*
X57833260Y34544000D01*
X57833260Y34544000D02*
X57731660Y34043620D01*
X57731660Y34043620D02*
X57332880Y33345120D01*
X57332880Y33345120D02*
X56730900Y32943800D01*
X56730900Y32943800D02*
X56131460Y32743140D01*
X56131460Y32743140D02*
X49532540Y32743140D01*
X49532540Y32743140D02*
X48831500Y32943800D01*
X48831500Y32943800D02*
X48432720Y33243520D01*
X48432720Y33243520D02*
X48031400Y33743900D01*
X48031400Y33743900D02*
X47830740Y34343340D01*
X47830740Y34343340D02*
X47830740Y34843720D01*
X47830740Y34843720D02*
X48031400Y35344100D01*
X48031400Y35344100D02*
X48531780Y35943540D01*
X48531780Y35943540D02*
X49032160Y36243260D01*
X49032160Y36243260D02*
X49532540Y36344860D01*
X49631600Y36344860D02*
X56233060Y36344860D01*
X56233060Y36344860D02*
X56631840Y36243260D01*
X56631840Y36243260D02*
X57132220Y35943540D01*
X57132220Y35943540D02*
X57632600Y35443160D01*
X49641760Y36873180D02*
X49182020Y36824920D01*
X49182020Y36824920D02*
X48783240Y36713160D01*
X48783240Y36713160D02*
X48351440Y36494720D01*
X48351440Y36494720D02*
X48061880Y36263580D01*
X48061880Y36263580D02*
X47731680Y35913060D01*
X47731680Y35913060D02*
X47442120Y35374580D01*
X47442120Y35374580D02*
X47312580Y34775140D01*
X47312580Y34775140D02*
X47312580Y34264600D01*
X47312580Y34264600D02*
X47482760Y33563560D01*
X47482760Y33563560D02*
X47881540Y32974280D01*
X47881540Y32974280D02*
X48341280Y32603440D01*
X48341280Y32603440D02*
X48762920Y32395160D01*
X48762920Y32395160D02*
X49212500Y32235140D01*
X49212500Y32235140D02*
X49651920Y32204660D01*
X56992520Y32423100D02*
X57370980Y32644080D01*
X57370980Y32644080D02*
X57691020Y32923480D01*
X57691020Y32923480D02*
X57942480Y33253680D01*
X57942480Y33253680D02*
X58242200Y33804860D01*
X58242200Y33804860D02*
X58351420Y34274760D01*
X58351420Y34274760D02*
X58371740Y34734500D01*
X58371740Y34734500D02*
X58282840Y35194240D01*
X58282840Y35194240D02*
X58092340Y35643820D01*
X58092340Y35643820D02*
X57731660Y36113720D01*
X57731660Y36113720D02*
X57381140Y36433760D01*
X57381140Y36433760D02*
X56992520Y36664900D01*
X56992520Y36664900D02*
X56563260Y36804600D01*
X56563260Y36804600D02*
X56121300Y36873180D01*
X49631600Y32214820D02*
X56083200Y32214820D01*
X56083200Y32214820D02*
X56502300Y32252920D01*
X56502300Y32252920D02*
X56992520Y32423100D01*
X49631600Y36873180D02*
X56083200Y36873180D01*
X83693000Y24638000D02*
X83693000Y27178000D01*
X83693000Y27178000D02*
X88773000Y27178000D01*
X88773000Y27178000D02*
X88773000Y24638000D01*
X88773000Y24638000D02*
X83693000Y24638000D01*
X83693000Y27178000D02*
X83693000Y29718000D01*
X83693000Y29718000D02*
X88773000Y29718000D01*
X88773000Y29718000D02*
X88773000Y27178000D01*
X88773000Y27178000D02*
X83693000Y27178000D01*
X88773000Y22098000D02*
X83693000Y22098000D01*
X88773000Y24638000D02*
X88773000Y22098000D01*
X83693000Y24638000D02*
X88773000Y24638000D01*
X83693000Y22098000D02*
X83693000Y24638000D01*
D12*
X19960000Y9690000D02*
X5760000Y9690000D01*
X19960000Y9690000D02*
X19960000Y36690000D01*
X19960000Y36690000D02*
X5760000Y36690000D01*
X5760000Y9690000D02*
X5760000Y36690000D01*
D11*
X83693000Y34798000D02*
X83693000Y37338000D01*
X86233000Y34798000D02*
X83693000Y34798000D01*
X86233000Y37338000D02*
X86233000Y34798000D01*
X83693000Y37338000D02*
X86233000Y37338000D01*
X86233000Y37338000D02*
X88773000Y37338000D01*
X88773000Y37338000D02*
X88773000Y34798000D01*
X88773000Y34798000D02*
X86233000Y34798000D01*
X86233000Y34798000D02*
X86233000Y37338000D01*
X83693000Y32258000D02*
X83693000Y34798000D01*
X86233000Y32258000D02*
X83693000Y32258000D01*
X86233000Y34798000D02*
X86233000Y32258000D01*
X83693000Y34798000D02*
X86233000Y34798000D01*
X86233000Y34798000D02*
X88773000Y34798000D01*
X88773000Y34798000D02*
X88773000Y32258000D01*
X88773000Y32258000D02*
X86233000Y32258000D01*
X86233000Y32258000D02*
X86233000Y34798000D01*
X52355809Y38377809D02*
X52355809Y37901619D01*
X52022476Y38901619D02*
X52355809Y38377809D01*
X52689142Y38901619D01*
X53546285Y37901619D02*
X52974857Y37901619D01*
X53260571Y37901619D02*
X53260571Y38901619D01*
X53165333Y38758761D01*
X53070095Y38663523D01*
X52974857Y38615904D01*
X12121904Y28617619D02*
X12121904Y29617619D01*
X12360000Y29617619D01*
X12502857Y29570000D01*
X12598095Y29474761D01*
X12645714Y29379523D01*
X12693333Y29189047D01*
X12693333Y29046190D01*
X12645714Y28855714D01*
X12598095Y28760476D01*
X12502857Y28665238D01*
X12360000Y28617619D01*
X12121904Y28617619D01*
X13074285Y29522380D02*
X13121904Y29570000D01*
X13217142Y29617619D01*
X13455238Y29617619D01*
X13550476Y29570000D01*
X13598095Y29522380D01*
X13645714Y29427142D01*
X13645714Y29331904D01*
X13598095Y29189047D01*
X13026666Y28617619D01*
X13645714Y28617619D01*
X16408095Y32427619D02*
X16408095Y33427619D01*
X16979523Y32427619D02*
X16550952Y32999047D01*
X16979523Y33427619D02*
X16408095Y32856190D01*
M02*
