G04 #@! TF.GenerationSoftware,KiCad,Pcbnew,(5.99.0-6591-gee6c8b60ac)*
G04 #@! TF.CreationDate,2020-11-24T08:13:14+01:00*
G04 #@! TF.ProjectId,SPACEDOS01A_PCB01B,53504143-4544-44f5-9330-31415f504342,REV*
G04 #@! TF.SameCoordinates,Original*
G04 #@! TF.FileFunction,Soldermask,Bot*
G04 #@! TF.FilePolarity,Negative*
%FSLAX46Y46*%
G04 Gerber Fmt 4.6, Leading zero omitted, Abs format (unit mm)*
G04 Created by KiCad (PCBNEW (5.99.0-6591-gee6c8b60ac)) date 2020-11-24 08:13:14*
%MOMM*%
%LPD*%
G01*
G04 APERTURE LIST*
G04 Aperture macros list*
%AMRoundRect*
0 Rectangle with rounded corners*
0 $1 Rounding radius*
0 $2 $3 $4 $5 $6 $7 $8 $9 X,Y pos of 4 corners*
0 Add a 4 corners polygon primitive as box body*
4,1,4,$2,$3,$4,$5,$6,$7,$8,$9,$2,$3,0*
0 Add four circle primitives for the rounded corners*
1,1,$1+$1,$2,$3,0*
1,1,$1+$1,$4,$5,0*
1,1,$1+$1,$6,$7,0*
1,1,$1+$1,$8,$9,0*
0 Add four rect primitives between the rounded corners*
20,1,$1+$1,$2,$3,$4,$5,0*
20,1,$1+$1,$4,$5,$6,$7,0*
20,1,$1+$1,$6,$7,$8,$9,0*
20,1,$1+$1,$8,$9,$2,$3,0*%
G04 Aperture macros list end*
%ADD10C,6.400000*%
%ADD11RoundRect,0.200000X0.762000X-0.762000X0.762000X0.762000X-0.762000X0.762000X-0.762000X-0.762000X0*%
%ADD12C,1.924000*%
%ADD13RoundRect,0.200000X-0.762000X-0.762000X0.762000X-0.762000X0.762000X0.762000X-0.762000X0.762000X0*%
%ADD14C,1.900000*%
%ADD15RoundRect,0.200000X-0.698500X0.444500X-0.698500X-0.444500X0.698500X-0.444500X0.698500X0.444500X0*%
%ADD16RoundRect,0.200000X1.275080X1.249680X-1.275080X1.249680X-1.275080X-1.249680X1.275080X-1.249680X0*%
%ADD17RoundRect,0.200000X0.698500X-0.444500X0.698500X0.444500X-0.698500X0.444500X-0.698500X-0.444500X0*%
%ADD18RoundRect,0.200000X0.444500X0.698500X-0.444500X0.698500X-0.444500X-0.698500X0.444500X-0.698500X0*%
%ADD19RoundRect,0.200000X-0.444500X-0.698500X0.444500X-0.698500X0.444500X0.698500X-0.444500X0.698500X0*%
%ADD20RoundRect,0.200000X-0.775000X-0.300000X0.775000X-0.300000X0.775000X0.300000X-0.775000X0.300000X0*%
%ADD21RoundRect,0.200000X0.325000X-0.780000X0.325000X0.780000X-0.325000X0.780000X-0.325000X-0.780000X0*%
%ADD22RoundRect,0.200000X-0.780000X-0.325000X0.780000X-0.325000X0.780000X0.325000X-0.780000X0.325000X0*%
%ADD23RoundRect,0.200000X0.700000X-0.449500X0.700000X0.449500X-0.700000X0.449500X-0.700000X-0.449500X0*%
%ADD24RoundRect,0.200000X0.700000X-0.444500X0.700000X0.444500X-0.700000X0.444500X-0.700000X-0.444500X0*%
%ADD25RoundRect,0.200000X-0.450000X-0.400000X0.450000X-0.400000X0.450000X0.400000X-0.450000X0.400000X0*%
%ADD26RoundRect,0.200000X-0.650000X-0.850000X0.650000X-0.850000X0.650000X0.850000X-0.650000X0.850000X0*%
%ADD27RoundRect,0.336957X0.438043X0.563043X-0.438043X0.563043X-0.438043X-0.563043X0.438043X-0.563043X0*%
%ADD28RoundRect,0.200000X0.530000X0.325000X-0.530000X0.325000X-0.530000X-0.325000X0.530000X-0.325000X0*%
%ADD29RoundRect,0.200000X0.750000X-0.650000X0.750000X0.650000X-0.750000X0.650000X-0.750000X-0.650000X0*%
%ADD30RoundRect,0.200000X1.500000X-0.350000X1.500000X0.350000X-1.500000X0.350000X-1.500000X-0.350000X0*%
%ADD31RoundRect,0.200000X-0.750000X-0.275000X0.750000X-0.275000X0.750000X0.275000X-0.750000X0.275000X0*%
%ADD32RoundRect,0.200000X-0.275000X0.750000X-0.275000X-0.750000X0.275000X-0.750000X0.275000X0.750000X0*%
%ADD33RoundRect,0.200000X-1.900000X-0.500000X1.900000X-0.500000X1.900000X0.500000X-1.900000X0.500000X0*%
%ADD34RoundRect,0.200000X-0.500000X-1.900000X0.500000X-1.900000X0.500000X1.900000X-0.500000X1.900000X0*%
%ADD35RoundRect,0.200000X-1.650000X-1.275000X1.650000X-1.275000X1.650000X1.275000X-1.650000X1.275000X0*%
%ADD36RoundRect,0.200000X0.650000X0.750000X-0.650000X0.750000X-0.650000X-0.750000X0.650000X-0.750000X0*%
%ADD37RoundRect,0.200000X0.350000X1.500000X-0.350000X1.500000X-0.350000X-1.500000X0.350000X-1.500000X0*%
%ADD38RoundRect,0.200000X0.635000X1.270000X-0.635000X1.270000X-0.635000X-1.270000X0.635000X-1.270000X0*%
%ADD39RoundRect,0.200000X0.125000X-0.550000X0.125000X0.550000X-0.125000X0.550000X-0.125000X-0.550000X0*%
%ADD40RoundRect,0.200000X0.500000X0.900000X-0.500000X0.900000X-0.500000X-0.900000X0.500000X-0.900000X0*%
G04 APERTURE END LIST*
D10*
X86360000Y45720000D03*
X5080000Y45720000D03*
X5080000Y5080000D03*
D11*
X84963000Y25908000D03*
X87503000Y25908000D03*
X84963000Y28448000D03*
X87503000Y28448000D03*
X84963000Y23368000D03*
X87503000Y23368000D03*
D12*
X15360000Y34190000D03*
X10360000Y34190000D03*
D13*
X84963000Y36068000D03*
X87503000Y36068000D03*
X84963000Y33528000D03*
X87503000Y33528000D03*
X84963000Y30988000D03*
X87503000Y30988000D03*
D10*
X86360000Y5080000D03*
D14*
X50292000Y34544000D03*
X55172000Y34544000D03*
D15*
X10066000Y20504500D03*
X10066000Y18599500D03*
D16*
X29989760Y16250000D03*
X24940240Y16250000D03*
D17*
X5240000Y28950000D03*
X5240000Y30855000D03*
D18*
X30005000Y13075000D03*
X28100000Y13075000D03*
X7780000Y23870000D03*
X5875000Y23870000D03*
D15*
X19718000Y24759000D03*
X19718000Y22854000D03*
D17*
X40038000Y23933500D03*
X40038000Y25838500D03*
X33180000Y32061500D03*
X33180000Y33966500D03*
D15*
X40165000Y17837500D03*
X40165000Y15932500D03*
D18*
X11272500Y23870000D03*
X9367500Y23870000D03*
D15*
X17686000Y24759000D03*
X17686000Y22854000D03*
D17*
X37752000Y23933500D03*
X37752000Y25838500D03*
X35466000Y32061500D03*
X35466000Y33966500D03*
D15*
X42705000Y17837500D03*
X42705000Y15932500D03*
D17*
X20226000Y26410000D03*
X20226000Y28315000D03*
D15*
X22766000Y28442000D03*
X22766000Y26537000D03*
D17*
X27338000Y27362500D03*
X27338000Y29267500D03*
X27084000Y22854000D03*
X27084000Y24759000D03*
X37752000Y27743500D03*
X37752000Y29648500D03*
D15*
X35720000Y21647500D03*
X35720000Y19742500D03*
D17*
X30894000Y32061500D03*
X30894000Y33966500D03*
D18*
X37942500Y17520000D03*
X36037500Y17520000D03*
X7780000Y21330000D03*
X5875000Y21330000D03*
D15*
X15400000Y31807500D03*
X15400000Y29902500D03*
D17*
X17940000Y29966000D03*
X17940000Y31871000D03*
X17940000Y26410000D03*
X17940000Y28315000D03*
X24798000Y26537000D03*
X24798000Y28442000D03*
X24798000Y22854000D03*
X24798000Y24759000D03*
X42705000Y23552500D03*
X42705000Y25457500D03*
D19*
X39593500Y27934000D03*
X41498500Y27934000D03*
D20*
X7620000Y25775000D03*
X7620000Y27045000D03*
X7620000Y28315000D03*
X7620000Y29585000D03*
X13020000Y29585000D03*
X13020000Y28315000D03*
X13020000Y27045000D03*
X13020000Y25775000D03*
D21*
X39718000Y32172000D03*
X38768000Y32172000D03*
X37818000Y32172000D03*
X37818000Y34872000D03*
X39718000Y34872000D03*
D22*
X40085000Y19745000D03*
X40085000Y20695000D03*
X40085000Y21645000D03*
X42785000Y21645000D03*
X42785000Y19745000D03*
D15*
X15400000Y25775000D03*
X15400000Y23870000D03*
D20*
X29972000Y23743000D03*
X29972000Y25013000D03*
X29972000Y26283000D03*
X29972000Y27553000D03*
X35372000Y27553000D03*
X35372000Y26283000D03*
X35372000Y25013000D03*
X35372000Y23743000D03*
D23*
X42324000Y33585500D03*
D24*
X42324000Y35490500D03*
D15*
X20320000Y35496500D03*
X20320000Y33591500D03*
D25*
X14416000Y18602000D03*
X14416000Y20502000D03*
X16416000Y19552000D03*
D26*
X81407000Y12573000D03*
X84907000Y12573000D03*
D17*
X72009000Y18097500D03*
X72009000Y20002500D03*
D19*
X66675000Y19050000D03*
X68580000Y19050000D03*
X66675000Y21082000D03*
X68580000Y21082000D03*
X69786500Y16256000D03*
X71691500Y16256000D03*
D15*
X24384000Y35496500D03*
X24384000Y33591500D03*
X78867000Y14033500D03*
X78867000Y12128500D03*
D19*
X84328000Y17653000D03*
X86233000Y17653000D03*
D17*
X78867000Y15494000D03*
X78867000Y17399000D03*
D19*
X84328000Y19939000D03*
X86233000Y19939000D03*
D26*
X83185000Y15113000D03*
X86685000Y15113000D03*
D27*
X67945000Y16256000D03*
X65895000Y16256000D03*
X62747000Y20066000D03*
X60697000Y20066000D03*
D28*
X67183000Y14097000D03*
X67183000Y13147000D03*
X67183000Y12197000D03*
X64983000Y12197000D03*
X64983000Y14097000D03*
D17*
X54991000Y17907000D03*
X54991000Y19812000D03*
X62357000Y12382500D03*
X62357000Y14287500D03*
X57150000Y17907000D03*
X57150000Y19812000D03*
D29*
X51943000Y17573000D03*
D30*
X51943000Y18923000D03*
D29*
X51943000Y20273000D03*
D17*
X60071000Y12446000D03*
X60071000Y14351000D03*
D29*
X57023000Y12874000D03*
D30*
X57023000Y14224000D03*
D29*
X57023000Y15574000D03*
D15*
X63754000Y18097500D03*
X63754000Y16192500D03*
D17*
X71882000Y28511500D03*
X71882000Y30416500D03*
X74168000Y28511500D03*
X74168000Y30416500D03*
D19*
X80581500Y23368000D03*
X82486500Y23368000D03*
D15*
X72390000Y33782000D03*
X72390000Y31877000D03*
D19*
X80200500Y27813000D03*
X82105500Y27813000D03*
D15*
X53848000Y15557500D03*
X53848000Y13652500D03*
D28*
X61679000Y18222000D03*
X61679000Y17272000D03*
X61679000Y16322000D03*
X59479000Y16322000D03*
X59479000Y18222000D03*
D31*
X57550000Y26640000D03*
X57550000Y27440000D03*
X57550000Y28240000D03*
X57550000Y29040000D03*
X57550000Y29840000D03*
X57550000Y30640000D03*
X57550000Y31440000D03*
X57550000Y32240000D03*
X57550000Y33040000D03*
X57550000Y33840000D03*
X57550000Y34640000D03*
D32*
X59250000Y36340000D03*
X60050000Y36340000D03*
X60850000Y36340000D03*
X61650000Y36340000D03*
X62450000Y36340000D03*
X63250000Y36340000D03*
X64050000Y36340000D03*
X64850000Y36340000D03*
X65650000Y36340000D03*
X66450000Y36340000D03*
X67250000Y36340000D03*
D31*
X68950000Y34640000D03*
X68950000Y33840000D03*
X68950000Y33040000D03*
X68950000Y32240000D03*
X68950000Y31440000D03*
X68950000Y30640000D03*
X68950000Y29840000D03*
X68950000Y29040000D03*
X68950000Y28240000D03*
X68950000Y27440000D03*
X68950000Y26640000D03*
D32*
X67250000Y24940000D03*
X66450000Y24940000D03*
X65650000Y24940000D03*
X64850000Y24940000D03*
X64050000Y24940000D03*
X63250000Y24940000D03*
X62450000Y24940000D03*
X61650000Y24940000D03*
X60850000Y24940000D03*
X60050000Y24940000D03*
X59250000Y24940000D03*
D19*
X76200000Y28321000D03*
X78105000Y28321000D03*
D33*
X77501000Y10279000D03*
X71501000Y40579000D03*
X65501000Y40579000D03*
D34*
X46601000Y34429000D03*
D33*
X53501000Y40579000D03*
X53501000Y10279000D03*
X77501000Y40579000D03*
X83501000Y40579000D03*
D34*
X90401000Y34429000D03*
D35*
X89251000Y39804000D03*
D33*
X83501000Y10279000D03*
X59501000Y40579000D03*
D34*
X46601000Y28429000D03*
D33*
X65501000Y10279000D03*
D34*
X90401000Y28429000D03*
X46601000Y22429000D03*
X90401000Y22429000D03*
X90401000Y16429000D03*
X46601000Y16429000D03*
D33*
X59501000Y10279000D03*
D35*
X47751000Y11054000D03*
X89251000Y11054000D03*
D33*
X71501000Y10279000D03*
D35*
X47751000Y39804000D03*
D36*
X76661000Y16383000D03*
D37*
X75311000Y16383000D03*
D36*
X73961000Y16383000D03*
D13*
X50165000Y23622000D03*
X52705000Y23622000D03*
X50165000Y26162000D03*
X52705000Y26162000D03*
X50165000Y28702000D03*
X52705000Y28702000D03*
D19*
X49657000Y30988000D03*
X51562000Y30988000D03*
X78930500Y25654000D03*
X80835500Y25654000D03*
X80200500Y29845000D03*
X82105500Y29845000D03*
X49847500Y36957000D03*
X51752500Y36957000D03*
D18*
X55435500Y36957000D03*
X53530500Y36957000D03*
D17*
X53213000Y30861000D03*
X53213000Y32766000D03*
D18*
X64452500Y22225000D03*
X62547500Y22225000D03*
D19*
X63182500Y38481000D03*
X65087500Y38481000D03*
X80200500Y32004000D03*
X82105500Y32004000D03*
D15*
X76962000Y23431500D03*
X76962000Y21526500D03*
D38*
X77597000Y32893000D03*
X74549000Y32893000D03*
D19*
X75247500Y25908000D03*
X77152500Y25908000D03*
D39*
X73390000Y21726000D03*
X72890000Y21726000D03*
X72390000Y21726000D03*
X71890000Y21726000D03*
X71390000Y21726000D03*
X71390000Y26026000D03*
X71890000Y26026000D03*
X72390000Y26026000D03*
X72890000Y26026000D03*
X73390000Y26026000D03*
D40*
X74168000Y19558000D03*
X76668000Y19558000D03*
D15*
X22352000Y35496500D03*
X22352000Y33591500D03*
X18034000Y35560000D03*
X18034000Y33655000D03*
X69469000Y14097000D03*
X69469000Y12192000D03*
D36*
X76661000Y12827000D03*
D37*
X75311000Y12827000D03*
D36*
X73961000Y12827000D03*
D15*
X71882000Y14160500D03*
X71882000Y12255500D03*
X48895000Y19748500D03*
X48895000Y17843500D03*
D19*
X26035000Y38100000D03*
X27940000Y38100000D03*
X22225000Y38100000D03*
X24130000Y38100000D03*
X18415000Y38100000D03*
X20320000Y38100000D03*
D33*
X25874000Y10340000D03*
X7874000Y10340000D03*
X37874000Y40640000D03*
D35*
X43624000Y11115000D03*
D34*
X974000Y16490000D03*
X44774000Y22490000D03*
D33*
X19874000Y10340000D03*
X7874000Y40640000D03*
D34*
X44774000Y16490000D03*
D33*
X31874000Y10340000D03*
D34*
X44774000Y34490000D03*
D33*
X19874000Y40640000D03*
X13874000Y10340000D03*
D35*
X2124000Y39865000D03*
D34*
X974000Y22490000D03*
X974000Y28490000D03*
D33*
X13874000Y40640000D03*
D34*
X44774000Y28490000D03*
D35*
X43624000Y39865000D03*
D33*
X37874000Y10340000D03*
X31874000Y40640000D03*
D34*
X974000Y34490000D03*
D35*
X2124000Y11115000D03*
D33*
X25874000Y40640000D03*
M02*
