M48
;DRILL file {KiCad (6.0.0-rc1-dev-205-gc0615c5ef)} date 03/07/19 09:34:16
;FORMAT={3:3/ absolute / metric / suppress leading zeros}
FMAT,2
METRIC,TZ
T1C0.400
T2C0.762
T3C0.889
T4C3.000
%
G90
G05
M71
T1
X51067Y46901
X51067Y45377
X51067Y43599
X51067Y42075
X51067Y40551
X51308Y71374
X51308Y70104
X52324Y37592
X52324Y36068
X52578Y34544
X52591Y39281
X52832Y81534
X52832Y42672
X52845Y32931
X53086Y72390
X53848Y42672
X54102Y81534
X54115Y34201
X54356Y72390
X54750Y43726
X54750Y24676
X54750Y23406
X54750Y21501
X55385Y34201
X55385Y25946
X55626Y72390
X56020Y20231
X56020Y18961
X56020Y17056
X56020Y15151
X56147Y40297
X56147Y38773
X56655Y33566
X56655Y27216
X56655Y13881
X56655Y11976
X56896Y71374
X57290Y40551
X57290Y32296
X57290Y31026
X57290Y29756
X57290Y28486
X57290Y10706
X57848Y77743
X57925Y24041
X58166Y72136
X58560Y39916
X58560Y9436
X58935Y35123
X59195Y25311
X59195Y24041
X59690Y81788
X59690Y80518
X59830Y8801
X60250Y26500
X60250Y25311
X60250Y24041
X60465Y38646
X60465Y32931
X60465Y31661
X60465Y30391
X60465Y29121
X60465Y27851
X60592Y58204
X60643Y62636
X60719Y64681
X60719Y36233
X60840Y45156
X60840Y43886
X60840Y18486
X60840Y16929
X60967Y15565
X61100Y40551
X61100Y37376
X61100Y8801
X61227Y20993
X61735Y48966
X61735Y29121
X61735Y27851
X62243Y66713
X62243Y62141
X62745Y19121
X62750Y81750
X62751Y68237
X63005Y8801
X63507Y39695
X63767Y29121
X63767Y27851
X64402Y37757
X64500Y72750
X64523Y11247
X64650Y16581
X64656Y60998
X64777Y45029
X64910Y8801
X65278Y69850
X65532Y42672
X65537Y68331
X65793Y11247
X66555Y39479
X66555Y16581
X66815Y8801
X67577Y39689
X67698Y37028
X67825Y16581
X68000Y67250
X68295Y40711
X68326Y36322
X68339Y49949
X68460Y45791
X68720Y8801
X68847Y29629
X69075Y16581
X69095Y45156
X69095Y38171
X69095Y36901
X69250Y68750
X69355Y49187
X69355Y47917
X69355Y33566
X69355Y28486
X69355Y27216
X69750Y66750
X69863Y32296
X70104Y70866
X70358Y72390
X70365Y18486
X70371Y47155
X70500Y14250
X70625Y49441
X70625Y33566
X70625Y17056
X70625Y8801
X70790Y58420
X70879Y31026
X70933Y60265
X71381Y35123
X71387Y47155
X71398Y63783
X71500Y11976
X71750Y18000
X71750Y14000
X71876Y61146
X71882Y17018
X71895Y34201
X71895Y8801
X72295Y64739
X72500Y22250
X72530Y32296
X72898Y63500
X72911Y47155
X72955Y45054
X73000Y18000
X73165Y34836
X73250Y14000
X73419Y10325
X73500Y33500
X74123Y47097
X74435Y41186
X74435Y39916
X74435Y38646
X74435Y37376
X74435Y36106
X74435Y32296
X74435Y11341
X74500Y75500
X74500Y74250
X74500Y14750
X74750Y18000
X75070Y42456
X75070Y34836
X75070Y33566
X75438Y20574
X75451Y12357
X76000Y21750
X76340Y46266
X76340Y42456
X76340Y22771
X76441Y45011
X76467Y20485
X76467Y13373
X76750Y79500
X76975Y43726
X77483Y19469
X77483Y17945
X77483Y16421
X77483Y14897
X77610Y22771
T2
X74250Y21590
X74250Y16590
T3
X76962Y61468
X76962Y58928
X76962Y71628
X79502Y71628
X76962Y66548
X79502Y66548
X76962Y64008
X79502Y64008
X79502Y58928
X76962Y69088
X79502Y69088
X79502Y61468
T4
X44450Y23000
X44450Y77890
X85090Y5080
X82550Y90810
T0
M30
