G04 #@! TF.GenerationSoftware,KiCad,Pcbnew,(6.0.0-rc1-dev-205-gc0615c5ef)*
G04 #@! TF.CreationDate,2019-03-07T14:34:26+01:00*
G04 #@! TF.ProjectId,SPACEDOS01B_PCB01A,5350414345444F533031425F50434230,REV*
G04 #@! TF.SameCoordinates,Original*
G04 #@! TF.FileFunction,Legend,Bot*
G04 #@! TF.FilePolarity,Positive*
%FSLAX46Y46*%
G04 Gerber Fmt 4.6, Leading zero omitted, Abs format (unit mm)*
G04 Created by KiCad (PCBNEW (6.0.0-rc1-dev-205-gc0615c5ef)) date 03/07/19 14:34:26*
%MOMM*%
%LPD*%
G01*
G04 APERTURE LIST*
%ADD10C,0.300000*%
%ADD11C,0.120000*%
%ADD12C,0.150000*%
G04 APERTURE END LIST*
D10*
X84649571Y67298000D02*
X84792428Y67369428D01*
X85006714Y67369428D01*
X85221000Y67298000D01*
X85363857Y67155142D01*
X85435285Y67012285D01*
X85506714Y66726571D01*
X85506714Y66512285D01*
X85435285Y66226571D01*
X85363857Y66083714D01*
X85221000Y65940857D01*
X85006714Y65869428D01*
X84863857Y65869428D01*
X84649571Y65940857D01*
X84578142Y66012285D01*
X84578142Y66512285D01*
X84863857Y66512285D01*
X83935285Y65869428D02*
X83935285Y67369428D01*
X83078142Y65869428D01*
X83078142Y67369428D01*
X82363857Y65869428D02*
X82363857Y67369428D01*
X82006714Y67369428D01*
X81792428Y67298000D01*
X81649571Y67155142D01*
X81578142Y67012285D01*
X81506714Y66726571D01*
X81506714Y66512285D01*
X81578142Y66226571D01*
X81649571Y66083714D01*
X81792428Y65940857D01*
X82006714Y65869428D01*
X82363857Y65869428D01*
X77640571Y57229142D02*
X76140571Y57229142D01*
X76140571Y56657714D01*
X76212000Y56514857D01*
X76283428Y56443428D01*
X76426285Y56372000D01*
X76640571Y56372000D01*
X76783428Y56443428D01*
X76854857Y56514857D01*
X76926285Y56657714D01*
X76926285Y57229142D01*
X77640571Y55729142D02*
X76140571Y55729142D01*
X76140571Y55372000D01*
X76212000Y55157714D01*
X76354857Y55014857D01*
X76497714Y54943428D01*
X76783428Y54872000D01*
X76997714Y54872000D01*
X77283428Y54943428D01*
X77426285Y55014857D01*
X77569142Y55157714D01*
X77640571Y55372000D01*
X77640571Y55729142D01*
X76140571Y54372000D02*
X76140571Y53443428D01*
X76712000Y53943428D01*
X76712000Y53729142D01*
X76783428Y53586285D01*
X76854857Y53514857D01*
X76997714Y53443428D01*
X77354857Y53443428D01*
X77497714Y53514857D01*
X77569142Y53586285D01*
X77640571Y53729142D01*
X77640571Y54157714D01*
X77569142Y54300571D01*
X77497714Y54372000D01*
X83054000Y60789428D02*
X83554000Y61503714D01*
X83911142Y60789428D02*
X83911142Y62289428D01*
X83339714Y62289428D01*
X83196857Y62218000D01*
X83125428Y62146571D01*
X83054000Y62003714D01*
X83054000Y61789428D01*
X83125428Y61646571D01*
X83196857Y61575142D01*
X83339714Y61503714D01*
X83911142Y61503714D01*
X82554000Y62289428D02*
X81554000Y60789428D01*
X81554000Y62289428D02*
X82554000Y60789428D01*
X85546428Y58249428D02*
X85546428Y59749428D01*
X84975000Y59749428D01*
X84832142Y59678000D01*
X84760714Y59606571D01*
X84689285Y59463714D01*
X84689285Y59249428D01*
X84760714Y59106571D01*
X84832142Y59035142D01*
X84975000Y58963714D01*
X85546428Y58963714D01*
X84046428Y58249428D02*
X84046428Y59749428D01*
X83689285Y59749428D01*
X83475000Y59678000D01*
X83332142Y59535142D01*
X83260714Y59392285D01*
X83189285Y59106571D01*
X83189285Y58892285D01*
X83260714Y58606571D01*
X83332142Y58463714D01*
X83475000Y58320857D01*
X83689285Y58249428D01*
X84046428Y58249428D01*
X82617857Y59606571D02*
X82546428Y59678000D01*
X82403571Y59749428D01*
X82046428Y59749428D01*
X81903571Y59678000D01*
X81832142Y59606571D01*
X81760714Y59463714D01*
X81760714Y59320857D01*
X81832142Y59106571D01*
X82689285Y58249428D01*
X81760714Y58249428D01*
X87459571Y62289428D02*
X86602428Y62289428D01*
X87031000Y60789428D02*
X87031000Y62289428D01*
X86245285Y62289428D02*
X85245285Y60789428D01*
X85245285Y62289428D02*
X86245285Y60789428D01*
X85578142Y63329428D02*
X86078142Y64043714D01*
X86435285Y63329428D02*
X86435285Y64829428D01*
X85863857Y64829428D01*
X85721000Y64758000D01*
X85649571Y64686571D01*
X85578142Y64543714D01*
X85578142Y64329428D01*
X85649571Y64186571D01*
X85721000Y64115142D01*
X85863857Y64043714D01*
X86435285Y64043714D01*
X85006714Y63400857D02*
X84792428Y63329428D01*
X84435285Y63329428D01*
X84292428Y63400857D01*
X84221000Y63472285D01*
X84149571Y63615142D01*
X84149571Y63758000D01*
X84221000Y63900857D01*
X84292428Y63972285D01*
X84435285Y64043714D01*
X84721000Y64115142D01*
X84863857Y64186571D01*
X84935285Y64258000D01*
X85006714Y64400857D01*
X85006714Y64543714D01*
X84935285Y64686571D01*
X84863857Y64758000D01*
X84721000Y64829428D01*
X84363857Y64829428D01*
X84149571Y64758000D01*
X83721000Y64829428D02*
X82863857Y64829428D01*
X83292428Y63329428D02*
X83292428Y64829428D01*
X82435285Y64329428D02*
X81363857Y64329428D01*
X82006714Y64972285D02*
X82435285Y63043714D01*
X81506714Y63686571D02*
X82578142Y63686571D01*
X81935285Y63043714D02*
X81506714Y64972285D01*
X84895571Y72195428D02*
X83967000Y72195428D01*
X84467000Y71624000D01*
X84252714Y71624000D01*
X84109857Y71552571D01*
X84038428Y71481142D01*
X83967000Y71338285D01*
X83967000Y70981142D01*
X84038428Y70838285D01*
X84109857Y70766857D01*
X84252714Y70695428D01*
X84681285Y70695428D01*
X84824142Y70766857D01*
X84895571Y70838285D01*
X83538428Y72195428D02*
X83038428Y70695428D01*
X82538428Y72195428D01*
X82181285Y72195428D02*
X81252714Y72195428D01*
X81752714Y71624000D01*
X81538428Y71624000D01*
X81395571Y71552571D01*
X81324142Y71481142D01*
X81252714Y71338285D01*
X81252714Y70981142D01*
X81324142Y70838285D01*
X81395571Y70766857D01*
X81538428Y70695428D01*
X81967000Y70695428D01*
X82109857Y70766857D01*
X82181285Y70838285D01*
X46754190Y67953095D02*
X46816095Y67767380D01*
X46816095Y67457857D01*
X46754190Y67334047D01*
X46692285Y67272142D01*
X46568476Y67210238D01*
X46444666Y67210238D01*
X46320857Y67272142D01*
X46258952Y67334047D01*
X46197047Y67457857D01*
X46135142Y67705476D01*
X46073238Y67829285D01*
X46011333Y67891190D01*
X45887523Y67953095D01*
X45763714Y67953095D01*
X45639904Y67891190D01*
X45578000Y67829285D01*
X45516095Y67705476D01*
X45516095Y67395952D01*
X45578000Y67210238D01*
X46816095Y66653095D02*
X45516095Y66653095D01*
X45516095Y66157857D01*
X45578000Y66034047D01*
X45639904Y65972142D01*
X45763714Y65910238D01*
X45949428Y65910238D01*
X46073238Y65972142D01*
X46135142Y66034047D01*
X46197047Y66157857D01*
X46197047Y66653095D01*
X46444666Y65415000D02*
X46444666Y64795952D01*
X46816095Y65538809D02*
X45516095Y65105476D01*
X46816095Y64672142D01*
X46692285Y63495952D02*
X46754190Y63557857D01*
X46816095Y63743571D01*
X46816095Y63867380D01*
X46754190Y64053095D01*
X46630380Y64176904D01*
X46506571Y64238809D01*
X46258952Y64300714D01*
X46073238Y64300714D01*
X45825619Y64238809D01*
X45701809Y64176904D01*
X45578000Y64053095D01*
X45516095Y63867380D01*
X45516095Y63743571D01*
X45578000Y63557857D01*
X45639904Y63495952D01*
X46135142Y62938809D02*
X46135142Y62505476D01*
X46816095Y62319761D02*
X46816095Y62938809D01*
X45516095Y62938809D01*
X45516095Y62319761D01*
X46816095Y61762619D02*
X45516095Y61762619D01*
X45516095Y61453095D01*
X45578000Y61267380D01*
X45701809Y61143571D01*
X45825619Y61081666D01*
X46073238Y61019761D01*
X46258952Y61019761D01*
X46506571Y61081666D01*
X46630380Y61143571D01*
X46754190Y61267380D01*
X46816095Y61453095D01*
X46816095Y61762619D01*
X45516095Y60215000D02*
X45516095Y59967380D01*
X45578000Y59843571D01*
X45701809Y59719761D01*
X45949428Y59657857D01*
X46382761Y59657857D01*
X46630380Y59719761D01*
X46754190Y59843571D01*
X46816095Y59967380D01*
X46816095Y60215000D01*
X46754190Y60338809D01*
X46630380Y60462619D01*
X46382761Y60524523D01*
X45949428Y60524523D01*
X45701809Y60462619D01*
X45578000Y60338809D01*
X45516095Y60215000D01*
X46754190Y59162619D02*
X46816095Y58976904D01*
X46816095Y58667380D01*
X46754190Y58543571D01*
X46692285Y58481666D01*
X46568476Y58419761D01*
X46444666Y58419761D01*
X46320857Y58481666D01*
X46258952Y58543571D01*
X46197047Y58667380D01*
X46135142Y58915000D01*
X46073238Y59038809D01*
X46011333Y59100714D01*
X45887523Y59162619D01*
X45763714Y59162619D01*
X45639904Y59100714D01*
X45578000Y59038809D01*
X45516095Y58915000D01*
X45516095Y58605476D01*
X45578000Y58419761D01*
X45516095Y57615000D02*
X45516095Y57491190D01*
X45578000Y57367380D01*
X45639904Y57305476D01*
X45763714Y57243571D01*
X46011333Y57181666D01*
X46320857Y57181666D01*
X46568476Y57243571D01*
X46692285Y57305476D01*
X46754190Y57367380D01*
X46816095Y57491190D01*
X46816095Y57615000D01*
X46754190Y57738809D01*
X46692285Y57800714D01*
X46568476Y57862619D01*
X46320857Y57924523D01*
X46011333Y57924523D01*
X45763714Y57862619D01*
X45639904Y57800714D01*
X45578000Y57738809D01*
X45516095Y57615000D01*
X46816095Y55943571D02*
X46816095Y56686428D01*
X46816095Y56315000D02*
X45516095Y56315000D01*
X45701809Y56438809D01*
X45825619Y56562619D01*
X45887523Y56686428D01*
X46135142Y54953095D02*
X46197047Y54767380D01*
X46258952Y54705476D01*
X46382761Y54643571D01*
X46568476Y54643571D01*
X46692285Y54705476D01*
X46754190Y54767380D01*
X46816095Y54891190D01*
X46816095Y55386428D01*
X45516095Y55386428D01*
X45516095Y54953095D01*
X45578000Y54829285D01*
X45639904Y54767380D01*
X45763714Y54705476D01*
X45887523Y54705476D01*
X46011333Y54767380D01*
X46073238Y54829285D01*
X46135142Y54953095D01*
X46135142Y55386428D01*
X46939904Y54395952D02*
X46939904Y53405476D01*
X46816095Y53095952D02*
X45516095Y53095952D01*
X45516095Y52600714D01*
X45578000Y52476904D01*
X45639904Y52415000D01*
X45763714Y52353095D01*
X45949428Y52353095D01*
X46073238Y52415000D01*
X46135142Y52476904D01*
X46197047Y52600714D01*
X46197047Y53095952D01*
X46692285Y51053095D02*
X46754190Y51115000D01*
X46816095Y51300714D01*
X46816095Y51424523D01*
X46754190Y51610238D01*
X46630380Y51734047D01*
X46506571Y51795952D01*
X46258952Y51857857D01*
X46073238Y51857857D01*
X45825619Y51795952D01*
X45701809Y51734047D01*
X45578000Y51610238D01*
X45516095Y51424523D01*
X45516095Y51300714D01*
X45578000Y51115000D01*
X45639904Y51053095D01*
X46135142Y50062619D02*
X46197047Y49876904D01*
X46258952Y49815000D01*
X46382761Y49753095D01*
X46568476Y49753095D01*
X46692285Y49815000D01*
X46754190Y49876904D01*
X46816095Y50000714D01*
X46816095Y50495952D01*
X45516095Y50495952D01*
X45516095Y50062619D01*
X45578000Y49938809D01*
X45639904Y49876904D01*
X45763714Y49815000D01*
X45887523Y49815000D01*
X46011333Y49876904D01*
X46073238Y49938809D01*
X46135142Y50062619D01*
X46135142Y50495952D01*
X45516095Y48948333D02*
X45516095Y48824523D01*
X45578000Y48700714D01*
X45639904Y48638809D01*
X45763714Y48576904D01*
X46011333Y48515000D01*
X46320857Y48515000D01*
X46568476Y48576904D01*
X46692285Y48638809D01*
X46754190Y48700714D01*
X46816095Y48824523D01*
X46816095Y48948333D01*
X46754190Y49072142D01*
X46692285Y49134047D01*
X46568476Y49195952D01*
X46320857Y49257857D01*
X46011333Y49257857D01*
X45763714Y49195952D01*
X45639904Y49134047D01*
X45578000Y49072142D01*
X45516095Y48948333D01*
X46816095Y47276904D02*
X46816095Y48019761D01*
X46816095Y47648333D02*
X45516095Y47648333D01*
X45701809Y47772142D01*
X45825619Y47895952D01*
X45887523Y48019761D01*
X46444666Y46781666D02*
X46444666Y46162619D01*
X46816095Y46905476D02*
X45516095Y46472142D01*
X46816095Y46038809D01*
X48708571Y65003714D02*
X49922857Y65003714D01*
X50065714Y64932285D01*
X50137142Y64860857D01*
X50208571Y64718000D01*
X50208571Y64432285D01*
X50137142Y64289428D01*
X50065714Y64218000D01*
X49922857Y64146571D01*
X48708571Y64146571D01*
X50137142Y63503714D02*
X50208571Y63289428D01*
X50208571Y62932285D01*
X50137142Y62789428D01*
X50065714Y62718000D01*
X49922857Y62646571D01*
X49780000Y62646571D01*
X49637142Y62718000D01*
X49565714Y62789428D01*
X49494285Y62932285D01*
X49422857Y63218000D01*
X49351428Y63360857D01*
X49280000Y63432285D01*
X49137142Y63503714D01*
X48994285Y63503714D01*
X48851428Y63432285D01*
X48780000Y63360857D01*
X48708571Y63218000D01*
X48708571Y62860857D01*
X48780000Y62646571D01*
X48708571Y62218000D02*
X48708571Y61360857D01*
X50208571Y61789428D02*
X48708571Y61789428D01*
X50065714Y60860857D02*
X50137142Y60789428D01*
X50208571Y60860857D01*
X50137142Y60932285D01*
X50065714Y60860857D01*
X50208571Y60860857D01*
X50065714Y59289428D02*
X50137142Y59360857D01*
X50208571Y59575142D01*
X50208571Y59718000D01*
X50137142Y59932285D01*
X49994285Y60075142D01*
X49851428Y60146571D01*
X49565714Y60218000D01*
X49351428Y60218000D01*
X49065714Y60146571D01*
X48922857Y60075142D01*
X48780000Y59932285D01*
X48708571Y59718000D01*
X48708571Y59575142D01*
X48780000Y59360857D01*
X48851428Y59289428D01*
X48708571Y58789428D02*
X48708571Y57789428D01*
X50208571Y58789428D01*
X50208571Y57789428D01*
X45071428Y88071428D02*
X45000000Y88000000D01*
X44928571Y87857142D01*
X44928571Y87500000D01*
X45000000Y87357142D01*
X45071428Y87285714D01*
X45214285Y87214285D01*
X45357142Y87214285D01*
X45571428Y87285714D01*
X46428571Y88142857D01*
X46428571Y87214285D01*
X44928571Y86285714D02*
X44928571Y86142857D01*
X45000000Y86000000D01*
X45071428Y85928571D01*
X45214285Y85857142D01*
X45500000Y85785714D01*
X45857142Y85785714D01*
X46142857Y85857142D01*
X46285714Y85928571D01*
X46357142Y86000000D01*
X46428571Y86142857D01*
X46428571Y86285714D01*
X46357142Y86428571D01*
X46285714Y86500000D01*
X46142857Y86571428D01*
X45857142Y86642857D01*
X45500000Y86642857D01*
X45214285Y86571428D01*
X45071428Y86500000D01*
X45000000Y86428571D01*
X44928571Y86285714D01*
X46428571Y84357142D02*
X46428571Y85214285D01*
X46428571Y84785714D02*
X44928571Y84785714D01*
X45142857Y84928571D01*
X45285714Y85071428D01*
X45357142Y85214285D01*
X46428571Y83642857D02*
X46428571Y83357142D01*
X46357142Y83214285D01*
X46285714Y83142857D01*
X46071428Y83000000D01*
X45785714Y82928571D01*
X45214285Y82928571D01*
X45071428Y83000000D01*
X45000000Y83071428D01*
X44928571Y83214285D01*
X44928571Y83500000D01*
X45000000Y83642857D01*
X45071428Y83714285D01*
X45214285Y83785714D01*
X45571428Y83785714D01*
X45714285Y83714285D01*
X45785714Y83642857D01*
X45857142Y83500000D01*
X45857142Y83214285D01*
X45785714Y83071428D01*
X45714285Y83000000D01*
X45571428Y82928571D01*
X42428571Y88500000D02*
X43500000Y88500000D01*
X43714285Y88571428D01*
X43857142Y88714285D01*
X43928571Y88928571D01*
X43928571Y89071428D01*
X43500000Y87857142D02*
X43500000Y87142857D01*
X43928571Y88000000D02*
X42428571Y87500000D01*
X43928571Y87000000D01*
X43785714Y85642857D02*
X43857142Y85714285D01*
X43928571Y85928571D01*
X43928571Y86071428D01*
X43857142Y86285714D01*
X43714285Y86428571D01*
X43571428Y86500000D01*
X43285714Y86571428D01*
X43071428Y86571428D01*
X42785714Y86500000D01*
X42642857Y86428571D01*
X42500000Y86285714D01*
X42428571Y86071428D01*
X42428571Y85928571D01*
X42500000Y85714285D01*
X42571428Y85642857D01*
X43928571Y85000000D02*
X42428571Y85000000D01*
X43142857Y85000000D02*
X43142857Y84142857D01*
X43928571Y84142857D02*
X42428571Y84142857D01*
X42428571Y83142857D02*
X42428571Y82857142D01*
X42500000Y82714285D01*
X42642857Y82571428D01*
X42928571Y82500000D01*
X43428571Y82500000D01*
X43714285Y82571428D01*
X43857142Y82714285D01*
X43928571Y82857142D01*
X43928571Y83142857D01*
X43857142Y83285714D01*
X43714285Y83428571D01*
X43428571Y83500000D01*
X42928571Y83500000D01*
X42642857Y83428571D01*
X42500000Y83285714D01*
X42428571Y83142857D01*
X75928571Y93785714D02*
X77142857Y93785714D01*
X77285714Y93714285D01*
X77357142Y93642857D01*
X77428571Y93500000D01*
X77428571Y93214285D01*
X77357142Y93071428D01*
X77285714Y93000000D01*
X77142857Y92928571D01*
X75928571Y92928571D01*
X77357142Y92285714D02*
X77428571Y92071428D01*
X77428571Y91714285D01*
X77357142Y91571428D01*
X77285714Y91500000D01*
X77142857Y91428571D01*
X77000000Y91428571D01*
X76857142Y91500000D01*
X76785714Y91571428D01*
X76714285Y91714285D01*
X76642857Y92000000D01*
X76571428Y92142857D01*
X76500000Y92214285D01*
X76357142Y92285714D01*
X76214285Y92285714D01*
X76071428Y92214285D01*
X76000000Y92142857D01*
X75928571Y92000000D01*
X75928571Y91642857D01*
X76000000Y91428571D01*
X75928571Y91000000D02*
X75928571Y90142857D01*
X77428571Y90571428D02*
X75928571Y90571428D01*
X77285714Y89642857D02*
X77357142Y89571428D01*
X77428571Y89642857D01*
X77357142Y89714285D01*
X77285714Y89642857D01*
X77428571Y89642857D01*
X77285714Y88071428D02*
X77357142Y88142857D01*
X77428571Y88357142D01*
X77428571Y88500000D01*
X77357142Y88714285D01*
X77214285Y88857142D01*
X77071428Y88928571D01*
X76785714Y89000000D01*
X76571428Y89000000D01*
X76285714Y88928571D01*
X76142857Y88857142D01*
X76000000Y88714285D01*
X75928571Y88500000D01*
X75928571Y88357142D01*
X76000000Y88142857D01*
X76071428Y88071428D01*
X75928571Y87571428D02*
X75928571Y86571428D01*
X77428571Y87571428D01*
X77428571Y86571428D01*
D11*
G04 #@! TO.C,M10*
X70966000Y73046000D02*
X69366000Y73046000D01*
X70966000Y40746000D02*
X69366000Y40746000D01*
X64966000Y73046000D02*
X63366000Y73046000D01*
X64966000Y40746000D02*
X63366000Y40746000D01*
X58966000Y73046000D02*
X57366000Y73046000D01*
X58966000Y40746000D02*
X57366000Y40746000D01*
X52966000Y73046000D02*
X51366000Y73046000D01*
X52966000Y40746000D02*
X51366000Y40746000D01*
X46966000Y73046000D02*
X45366000Y73046000D01*
X46966000Y40746000D02*
X45366000Y40746000D01*
X74316000Y69696000D02*
X74316000Y68096000D01*
X42016000Y69696000D02*
X42016000Y68096000D01*
X74316000Y63696000D02*
X74316000Y62096000D01*
X42016000Y63696000D02*
X42016000Y62096000D01*
X74316000Y57696000D02*
X74316000Y56096000D01*
X42016000Y57696000D02*
X42016000Y56096000D01*
X74316000Y51696000D02*
X74316000Y50096000D01*
X42016000Y51696000D02*
X42016000Y50096000D01*
X74316000Y45696000D02*
X74316000Y44096000D01*
X42016000Y45696000D02*
X42016000Y44096000D01*
D12*
G04 #@! TO.C,J2*
X75692000Y67818000D02*
X75692000Y65278000D01*
X75692000Y65278000D02*
X80772000Y65278000D01*
X80772000Y65278000D02*
X80772000Y67818000D01*
X80772000Y67818000D02*
X75692000Y67818000D01*
G04 #@! TO.C,J3*
X75692000Y72898000D02*
X75692000Y70358000D01*
X75692000Y70358000D02*
X80772000Y70358000D01*
X80772000Y70358000D02*
X80772000Y72898000D01*
X80772000Y72898000D02*
X75692000Y72898000D01*
G04 #@! TO.C,J7*
X78232000Y60198000D02*
X80772000Y60198000D01*
X78232000Y62738000D02*
X78232000Y60198000D01*
X80772000Y62738000D02*
X78232000Y62738000D01*
X80772000Y60198000D02*
X80772000Y62738000D01*
G04 #@! TO.C,J4*
X75692000Y57658000D02*
X78232000Y57658000D01*
X75692000Y60198000D02*
X75692000Y57658000D01*
X78232000Y60198000D02*
X75692000Y60198000D01*
X78232000Y57658000D02*
X78232000Y60198000D01*
G04 #@! TO.C,J6*
X75692000Y60198000D02*
X78232000Y60198000D01*
X75692000Y62738000D02*
X75692000Y60198000D01*
X78232000Y62738000D02*
X75692000Y62738000D01*
X78232000Y60198000D02*
X78232000Y62738000D01*
G04 #@! TO.C,J5*
X78232000Y57658000D02*
X80772000Y57658000D01*
X78232000Y60198000D02*
X78232000Y57658000D01*
X80772000Y60198000D02*
X78232000Y60198000D01*
X80772000Y57658000D02*
X80772000Y60198000D01*
G04 #@! TO.C,J19*
X80772000Y62738000D02*
X80772000Y65278000D01*
X75692000Y62738000D02*
X80772000Y62738000D01*
X75692000Y65278000D02*
X75692000Y62738000D01*
X80772000Y65278000D02*
X75692000Y65278000D01*
D11*
G04 #@! TO.C,M8*
X80424700Y10733100D02*
X80424700Y12333100D01*
X48124700Y10733100D02*
X48124700Y12333100D01*
X80424700Y16733100D02*
X80424700Y18333100D01*
X48124700Y16733100D02*
X48124700Y18333100D01*
X80424700Y22733100D02*
X80424700Y24333100D01*
X48124700Y22733100D02*
X48124700Y24333100D01*
X80424700Y28733100D02*
X80424700Y30333100D01*
X48124700Y28733100D02*
X48124700Y30333100D01*
X80424700Y34733100D02*
X80424700Y36333100D01*
X48124700Y34733100D02*
X48124700Y36333100D01*
X77074700Y7383100D02*
X75474700Y7383100D01*
X77074700Y39683100D02*
X75474700Y39683100D01*
X71074700Y7383100D02*
X69474700Y7383100D01*
X71074700Y39683100D02*
X69474700Y39683100D01*
X65074700Y7383100D02*
X63474700Y7383100D01*
X65074700Y39683100D02*
X63474700Y39683100D01*
X59074700Y7383100D02*
X57474700Y7383100D01*
X59074700Y39683100D02*
X57474700Y39683100D01*
X53074700Y7383100D02*
X51474700Y7383100D01*
X53074700Y39683100D02*
X51474700Y39683100D01*
D12*
G04 #@! TO.C,J1*
X80772000Y67818000D02*
X80772000Y70358000D01*
X80772000Y70358000D02*
X75692000Y70358000D01*
X75692000Y70358000D02*
X75692000Y67818000D01*
X75692000Y67818000D02*
X80772000Y67818000D01*
G04 #@! TO.C,M10*
X55387714Y69905619D02*
X55387714Y70905619D01*
X55054380Y70191333D01*
X54721047Y70905619D01*
X54721047Y69905619D01*
X53721047Y69905619D02*
X54292476Y69905619D01*
X54006761Y69905619D02*
X54006761Y70905619D01*
X54102000Y70762761D01*
X54197238Y70667523D01*
X54292476Y70619904D01*
X53102000Y70905619D02*
X53006761Y70905619D01*
X52911523Y70858000D01*
X52863904Y70810380D01*
X52816285Y70715142D01*
X52768666Y70524666D01*
X52768666Y70286571D01*
X52816285Y70096095D01*
X52863904Y70000857D01*
X52911523Y69953238D01*
X53006761Y69905619D01*
X53102000Y69905619D01*
X53197238Y69953238D01*
X53244857Y70000857D01*
X53292476Y70096095D01*
X53340095Y70286571D01*
X53340095Y70524666D01*
X53292476Y70715142D01*
X53244857Y70810380D01*
X53197238Y70858000D01*
X53102000Y70905619D01*
G04 #@! TO.C,M8*
X64968380Y24342623D02*
X63968380Y24342623D01*
X64682666Y24009290D01*
X63968380Y23675957D01*
X64968380Y23675957D01*
X64396952Y23056909D02*
X64349333Y23152147D01*
X64301714Y23199766D01*
X64206476Y23247385D01*
X64158857Y23247385D01*
X64063619Y23199766D01*
X64016000Y23152147D01*
X63968380Y23056909D01*
X63968380Y22866433D01*
X64016000Y22771195D01*
X64063619Y22723576D01*
X64158857Y22675957D01*
X64206476Y22675957D01*
X64301714Y22723576D01*
X64349333Y22771195D01*
X64396952Y22866433D01*
X64396952Y23056909D01*
X64444571Y23152147D01*
X64492190Y23199766D01*
X64587428Y23247385D01*
X64777904Y23247385D01*
X64873142Y23199766D01*
X64920761Y23152147D01*
X64968380Y23056909D01*
X64968380Y22866433D01*
X64920761Y22771195D01*
X64873142Y22723576D01*
X64777904Y22675957D01*
X64587428Y22675957D01*
X64492190Y22723576D01*
X64444571Y22771195D01*
X64396952Y22866433D01*
G04 #@! TD*
M02*
