G04 #@! TF.GenerationSoftware,KiCad,Pcbnew,(6.0.0-rc1-dev-205-gc0615c5ef)*
G04 #@! TF.CreationDate,2019-03-07T09:34:15+01:00*
G04 #@! TF.ProjectId,SPACEDOS01B_PCB01A,5350414345444F533031425F50434230,REV*
G04 #@! TF.SameCoordinates,Original*
G04 #@! TF.FileFunction,Soldermask,Bot*
G04 #@! TF.FilePolarity,Negative*
%FSLAX46Y46*%
G04 Gerber Fmt 4.6, Leading zero omitted, Abs format (unit mm)*
G04 Created by KiCad (PCBNEW (6.0.0-rc1-dev-205-gc0615c5ef)) date 03/07/19 09:34:15*
%MOMM*%
%LPD*%
G01*
G04 APERTURE LIST*
%ADD10C,1.924000*%
%ADD11R,1.400000X1.400000*%
%ADD12R,2.700000X1.400000*%
%ADD13R,4.200000X1.400000*%
%ADD14R,1.400000X2.700000*%
%ADD15R,1.400000X4.200000*%
%ADD16R,1.924000X1.924000*%
%ADD17C,6.400000*%
%ADD18C,0.254000*%
G04 APERTURE END LIST*
D10*
G04 #@! TO.C,D1*
X74250000Y21590000D03*
X74250000Y16590000D03*
G04 #@! TD*
D11*
G04 #@! TO.C,M10*
X74066000Y72796000D03*
X42266000Y72796000D03*
X42266000Y40996000D03*
X74066000Y40996000D03*
D12*
X72416000Y72796000D03*
X72416000Y40996000D03*
D13*
X67166000Y72796000D03*
X67166000Y40996000D03*
X61166000Y72796000D03*
X61166000Y40996000D03*
X55166000Y72796000D03*
X55166000Y40996000D03*
X49166000Y72796000D03*
X49166000Y40996000D03*
D12*
X43916000Y72796000D03*
X43916000Y40996000D03*
D14*
X74066000Y71146000D03*
X42266000Y71146000D03*
D15*
X74066000Y65896000D03*
X42266000Y65896000D03*
X74066000Y59896000D03*
X42266000Y59896000D03*
X74066000Y53896000D03*
X42266000Y53896000D03*
X74066000Y47896000D03*
X42266000Y47896000D03*
D14*
X74066000Y42646000D03*
X42266000Y42646000D03*
G04 #@! TD*
D16*
G04 #@! TO.C,J2*
X79502000Y66548000D03*
X76962000Y66548000D03*
G04 #@! TD*
G04 #@! TO.C,J3*
X79502000Y71628000D03*
X76962000Y71628000D03*
G04 #@! TD*
G04 #@! TO.C,J7*
X79502000Y61468000D03*
G04 #@! TD*
G04 #@! TO.C,J4*
X76962000Y58928000D03*
G04 #@! TD*
G04 #@! TO.C,J6*
X76962000Y61468000D03*
G04 #@! TD*
G04 #@! TO.C,J5*
X79502000Y58928000D03*
G04 #@! TD*
G04 #@! TO.C,J19*
X76962000Y64008000D03*
X79502000Y64008000D03*
G04 #@! TD*
D17*
G04 #@! TO.C,M2*
X44450000Y77890000D03*
G04 #@! TD*
G04 #@! TO.C,M3*
X85090000Y5080000D03*
G04 #@! TD*
G04 #@! TO.C,M4*
X44450000Y23000000D03*
G04 #@! TD*
G04 #@! TO.C,M1*
X82550000Y90810000D03*
G04 #@! TD*
D11*
G04 #@! TO.C,M8*
X80174700Y7633100D03*
X80174700Y39433100D03*
X48374700Y39433100D03*
X48374700Y7633100D03*
D14*
X80174700Y9283100D03*
X48374700Y9283100D03*
D15*
X80174700Y14533100D03*
X48374700Y14533100D03*
X80174700Y20533100D03*
X48374700Y20533100D03*
X80174700Y26533100D03*
X48374700Y26533100D03*
X80174700Y32533100D03*
X48374700Y32533100D03*
D14*
X80174700Y37783100D03*
X48374700Y37783100D03*
D12*
X78524700Y7633100D03*
X78524700Y39433100D03*
D13*
X73274700Y7633100D03*
X73274700Y39433100D03*
X67274700Y7633100D03*
X67274700Y39433100D03*
X61274700Y7633100D03*
X61274700Y39433100D03*
X55274700Y7633100D03*
X55274700Y39433100D03*
D12*
X50024700Y7633100D03*
X50024700Y39433100D03*
G04 #@! TD*
D16*
G04 #@! TO.C,J1*
X76962000Y69088000D03*
X79502000Y69088000D03*
G04 #@! TD*
D18*
G36*
X89123000Y39877000D02*
X73627000Y39877000D01*
X73627000Y95373000D01*
X89123000Y95373000D01*
X89123000Y39877000D01*
X89123000Y39877000D01*
G37*
X89123000Y39877000D02*
X73627000Y39877000D01*
X73627000Y95373000D01*
X89123000Y95373000D01*
X89123000Y39877000D01*
G36*
X76623000Y73127000D02*
X40877000Y73127000D01*
X40877000Y90123000D01*
X76623000Y90123000D01*
X76623000Y73127000D01*
X76623000Y73127000D01*
G37*
X76623000Y73127000D02*
X40877000Y73127000D01*
X40877000Y90123000D01*
X76623000Y90123000D01*
X76623000Y73127000D01*
G36*
X42123000Y40877000D02*
X40877000Y40877000D01*
X40877000Y73623000D01*
X42123000Y73623000D01*
X42123000Y40877000D01*
X42123000Y40877000D01*
G37*
X42123000Y40877000D02*
X40877000Y40877000D01*
X40877000Y73623000D01*
X42123000Y73623000D01*
X42123000Y40877000D01*
G36*
X48123000Y5377000D02*
X40877000Y5377000D01*
X40877000Y40623000D01*
X48123000Y40623000D01*
X48123000Y5377000D01*
X48123000Y5377000D01*
G37*
X48123000Y5377000D02*
X40877000Y5377000D01*
X40877000Y40623000D01*
X48123000Y40623000D01*
X48123000Y5377000D01*
G36*
X81123000Y5377000D02*
X47377000Y5377000D01*
X47377000Y7123000D01*
X81123000Y7123000D01*
X81123000Y5377000D01*
X81123000Y5377000D01*
G37*
X81123000Y5377000D02*
X47377000Y5377000D01*
X47377000Y7123000D01*
X81123000Y7123000D01*
X81123000Y5377000D01*
G36*
X88623000Y1627000D02*
X77377000Y1627000D01*
X77377000Y7123000D01*
X88623000Y7123000D01*
X88623000Y1627000D01*
X88623000Y1627000D01*
G37*
X88623000Y1627000D02*
X77377000Y1627000D01*
X77377000Y7123000D01*
X88623000Y7123000D01*
X88623000Y1627000D01*
G36*
X88623000Y6627000D02*
X80627000Y6627000D01*
X80627000Y39873000D01*
X88623000Y39873000D01*
X88623000Y6627000D01*
X88623000Y6627000D01*
G37*
X88623000Y6627000D02*
X80627000Y6627000D01*
X80627000Y39873000D01*
X88623000Y39873000D01*
X88623000Y6627000D01*
M02*
