G04 #@! TF.GenerationSoftware,KiCad,Pcbnew,(5.1.0-rc1-108-gb4c0af021)*
G04 #@! TF.CreationDate,2019-03-06T20:25:16+01:00
G04 #@! TF.ProjectId,SPACEDOS01B_PCB01A,53504143-4544-44f5-9330-31425f504342,REV*
G04 #@! TF.SameCoordinates,Original*
G04 #@! TF.FileFunction,Legend,Top*
G04 #@! TF.FilePolarity,Positive*
%FSLAX46Y46*%
G04 Gerber Fmt 4.6, Leading zero omitted, Abs format (unit mm)*
G04 Created by KiCad (PCBNEW (5.1.0-rc1-108-gb4c0af021)) date 2019-03-06 20:25:16*
%MOMM*%
%LPD*%
G04 APERTURE LIST*
%ADD10C,0.100000*%
%ADD11C,0.150000*%
%ADD12C,0.120000*%
%ADD13C,0.304800*%
%ADD14C,0.127000*%
%ADD15C,0.050000*%
G04 APERTURE END LIST*
D10*
X69750000Y12090000D02*
X78750000Y12090000D01*
X78750000Y23090000D02*
X78750000Y12090000D01*
X69750000Y23090000D02*
X78750000Y23090000D01*
X69750000Y23090000D02*
X69750000Y12090000D01*
D11*
X66992500Y77216000D02*
X65976500Y77216000D01*
X66992500Y78740000D02*
X66992500Y77216000D01*
X65976500Y78740000D02*
X66992500Y78740000D01*
X64960500Y77216000D02*
X63944500Y77216000D01*
X63944500Y77216000D02*
G75*
G03X63944500Y77216000I-127000J0D01*
G01*
X63944500Y77216000D02*
X63944500Y78740000D01*
X63944500Y78740000D02*
X64960500Y78740000D01*
X66484500Y79502000D02*
X65468500Y79502000D01*
X66484500Y81026000D02*
X66484500Y79502000D01*
X65468500Y81026000D02*
X66484500Y81026000D01*
X64452500Y79502000D02*
X63436500Y79502000D01*
X63436500Y79502000D02*
G75*
G03X63436500Y79502000I-127000J0D01*
G01*
X63436500Y79502000D02*
X63436500Y81026000D01*
X63436500Y81026000D02*
X64452500Y81026000D01*
D12*
X76834000Y85094000D02*
X78434000Y85094000D01*
X76834000Y52794000D02*
X78434000Y52794000D01*
X70834000Y85094000D02*
X72434000Y85094000D01*
X70834000Y52794000D02*
X72434000Y52794000D01*
X64834000Y85094000D02*
X66434000Y85094000D01*
X64834000Y52794000D02*
X66434000Y52794000D01*
X58834000Y85094000D02*
X60434000Y85094000D01*
X58834000Y52794000D02*
X60434000Y52794000D01*
X52834000Y85094000D02*
X54434000Y85094000D01*
X52834000Y52794000D02*
X54434000Y52794000D01*
X81784000Y80144000D02*
X81784000Y81744000D01*
X49484000Y80144000D02*
X49484000Y81744000D01*
X81784000Y74144000D02*
X81784000Y75744000D01*
X49484000Y74144000D02*
X49484000Y75744000D01*
X81784000Y68144000D02*
X81784000Y69744000D01*
X49484000Y68144000D02*
X49484000Y69744000D01*
X81784000Y62144000D02*
X81784000Y63744000D01*
X49484000Y62144000D02*
X49484000Y63744000D01*
X81784000Y56144000D02*
X81784000Y57744000D01*
X49484000Y56144000D02*
X49484000Y57744000D01*
D11*
X80010000Y76517500D02*
X80010000Y75501500D01*
X78486000Y76517500D02*
X80010000Y76517500D01*
X78613000Y76644500D02*
G75*
G03X78613000Y76644500I-127000J0D01*
G01*
X78486000Y75501500D02*
X78486000Y76517500D01*
X80010000Y74485500D02*
X80010000Y73469500D01*
X80010000Y73469500D02*
X78486000Y73469500D01*
X78486000Y73469500D02*
X78486000Y74485500D01*
X56826500Y38044100D02*
X53427980Y38044100D01*
X56826500Y30749220D02*
X56826500Y36748700D01*
X57677400Y39326800D02*
X57677400Y38127920D01*
X58177780Y38727360D02*
X57077960Y38727360D01*
X53425440Y30726360D02*
X53425440Y36725840D01*
X56823960Y38026320D02*
X53425440Y38026320D01*
X67570700Y48331100D02*
X67570700Y47315100D01*
X66046700Y48331100D02*
X67570700Y48331100D01*
X66046700Y47315100D02*
X66046700Y48331100D01*
X67570700Y46299100D02*
X67570700Y45283100D01*
X67697700Y45156100D02*
G75*
G03X67697700Y45156100I-127000J0D01*
G01*
X67570700Y45283100D02*
X66046700Y45283100D01*
X66046700Y45283100D02*
X66046700Y46299100D01*
X56033000Y78920000D02*
X54958000Y78920000D01*
X56033000Y75845000D02*
X59283000Y75845000D01*
X56033000Y79095000D02*
X59283000Y79095000D01*
X56033000Y75845000D02*
X56033000Y76120000D01*
X59283000Y75845000D02*
X59283000Y76120000D01*
X59283000Y79095000D02*
X59283000Y78820000D01*
X56033000Y79095000D02*
X56033000Y78920000D01*
X56908000Y78470000D02*
G75*
G03X56908000Y78470000I-250000J0D01*
G01*
X69977000Y79248000D02*
X69977000Y80772000D01*
X67183000Y79248000D02*
X69977000Y79248000D01*
X67183000Y80772000D02*
X67183000Y79248000D01*
X67183000Y83820000D02*
X67183000Y82296000D01*
X69977000Y83820000D02*
X67183000Y83820000D01*
X69977000Y82296000D02*
X69977000Y83820000D01*
X69977000Y82296000D02*
X69977000Y83820000D01*
X67235605Y83947000D02*
G75*
G03X67235605Y83947000I-179605J0D01*
G01*
X77470000Y81534000D02*
X78994000Y81534000D01*
X78994000Y77470000D02*
X77470000Y77470000D01*
X78994000Y81534000D02*
X78994000Y77470000D01*
X77470000Y77470000D02*
X77470000Y81534000D01*
X77470000Y77470000D02*
X77597000Y77470000D01*
X53086000Y54530000D02*
X51562000Y54530000D01*
X51562000Y58594000D02*
X53086000Y58594000D01*
X51562000Y54530000D02*
X51562000Y58594000D01*
X53086000Y58594000D02*
X53086000Y54530000D01*
X53086000Y58594000D02*
X52959000Y58594000D01*
X69094700Y43251100D02*
X68078700Y43251100D01*
X69094700Y44775100D02*
X69094700Y43251100D01*
X68078700Y44775100D02*
X69094700Y44775100D01*
X67062700Y43251100D02*
X66046700Y43251100D01*
X66046700Y43251100D02*
G75*
G03X66046700Y43251100I-127000J0D01*
G01*
X66046700Y43251100D02*
X66046700Y44775100D01*
X66046700Y44775100D02*
X67062700Y44775100D01*
X64903700Y48204100D02*
X63887700Y48204100D01*
X64903700Y49728100D02*
X64903700Y48204100D01*
X63887700Y49728100D02*
X64903700Y49728100D01*
X62871700Y48204100D02*
X61855700Y48204100D01*
X61855700Y48204100D02*
G75*
G03X61855700Y48204100I-127000J0D01*
G01*
X61855700Y48204100D02*
X61855700Y49728100D01*
X61855700Y49728100D02*
X62871700Y49728100D01*
X65284700Y45537100D02*
X64268700Y45537100D01*
X65284700Y47061100D02*
X65284700Y45537100D01*
X64268700Y47061100D02*
X65284700Y47061100D01*
X63252700Y45537100D02*
X62236700Y45537100D01*
X62236700Y45537100D02*
G75*
G03X62236700Y45537100I-127000J0D01*
G01*
X62236700Y45537100D02*
X62236700Y47061100D01*
X62236700Y47061100D02*
X63252700Y47061100D01*
X54235700Y49728100D02*
X55251700Y49728100D01*
X54235700Y48204100D02*
X54235700Y49728100D01*
X55251700Y48204100D02*
X54235700Y48204100D01*
X56267700Y49728100D02*
X57283700Y49728100D01*
X57537700Y49728100D02*
G75*
G03X57537700Y49728100I-127000J0D01*
G01*
X57283700Y49728100D02*
X57283700Y48204100D01*
X57283700Y48204100D02*
X56267700Y48204100D01*
X54235700Y47188100D02*
X55251700Y47188100D01*
X54235700Y45664100D02*
X54235700Y47188100D01*
X55251700Y45664100D02*
X54235700Y45664100D01*
X56267700Y47188100D02*
X57283700Y47188100D01*
X57537700Y47188100D02*
G75*
G03X57537700Y47188100I-127000J0D01*
G01*
X57283700Y47188100D02*
X57283700Y45664100D01*
X57283700Y45664100D02*
X56267700Y45664100D01*
X55632700Y41727100D02*
X55632700Y42743100D01*
X57156700Y41727100D02*
X55632700Y41727100D01*
X57156700Y42743100D02*
X57156700Y41727100D01*
X55632700Y43759100D02*
X55632700Y44775100D01*
X55759700Y44902100D02*
G75*
G03X55759700Y44902100I-127000J0D01*
G01*
X55632700Y44775100D02*
X57156700Y44775100D01*
X57156700Y44775100D02*
X57156700Y43759100D01*
X65284700Y43251100D02*
X64268700Y43251100D01*
X65284700Y44775100D02*
X65284700Y43251100D01*
X64268700Y44775100D02*
X65284700Y44775100D01*
X63252700Y43251100D02*
X62236700Y43251100D01*
X62236700Y43251100D02*
G75*
G03X62236700Y43251100I-127000J0D01*
G01*
X62236700Y43251100D02*
X62236700Y44775100D01*
X62236700Y44775100D02*
X63252700Y44775100D01*
X58045700Y42743100D02*
X59061700Y42743100D01*
X58045700Y41219100D02*
X58045700Y42743100D01*
X59061700Y41219100D02*
X58045700Y41219100D01*
X60077700Y42743100D02*
X61093700Y42743100D01*
X61347700Y42743100D02*
G75*
G03X61347700Y42743100I-127000J0D01*
G01*
X61093700Y42743100D02*
X61093700Y41219100D01*
X61093700Y41219100D02*
X60077700Y41219100D01*
X67097700Y36858100D02*
X66952700Y36858100D01*
X61947700Y36858100D02*
X62092700Y36858100D01*
X62092700Y36858100D02*
X62092700Y35458100D01*
X67097700Y36858100D02*
X67097700Y41008100D01*
X61947700Y36858100D02*
X61947700Y41008100D01*
X61947700Y41008100D02*
X62092700Y41008100D01*
X64205200Y32583100D02*
X63189200Y32583100D01*
X64205200Y34107100D02*
X64205200Y32583100D01*
X63189200Y34107100D02*
X64205200Y34107100D01*
X62173200Y32583100D02*
X61157200Y32583100D01*
X61157200Y32583100D02*
G75*
G03X61157200Y32583100I-127000J0D01*
G01*
X61157200Y32583100D02*
X61157200Y34107100D01*
X61157200Y34107100D02*
X62173200Y34107100D01*
X64205200Y30297100D02*
X63189200Y30297100D01*
X64205200Y31821100D02*
X64205200Y30297100D01*
X63189200Y31821100D02*
X64205200Y31821100D01*
X62173200Y30297100D02*
X61157200Y30297100D01*
X61157200Y30297100D02*
G75*
G03X61157200Y30297100I-127000J0D01*
G01*
X61157200Y30297100D02*
X61157200Y31821100D01*
X61157200Y31821100D02*
X62173200Y31821100D01*
X68713700Y32837100D02*
X67697700Y32837100D01*
X68713700Y34361100D02*
X68713700Y32837100D01*
X67697700Y34361100D02*
X68713700Y34361100D01*
X66681700Y32837100D02*
X65665700Y32837100D01*
X65665700Y32837100D02*
G75*
G03X65665700Y32837100I-127000J0D01*
G01*
X65665700Y32837100D02*
X65665700Y34361100D01*
X65665700Y34361100D02*
X66681700Y34361100D01*
X67888200Y30297100D02*
X66872200Y30297100D01*
X67888200Y31821100D02*
X67888200Y30297100D01*
X66872200Y31821100D02*
X67888200Y31821100D01*
X65856200Y30297100D02*
X64840200Y30297100D01*
X64840200Y30297100D02*
G75*
G03X64840200Y30297100I-127000J0D01*
G01*
X64840200Y30297100D02*
X64840200Y31821100D01*
X64840200Y31821100D02*
X65856200Y31821100D01*
X60928500Y26741100D02*
X61944500Y26741100D01*
X60928500Y25217100D02*
X60928500Y26741100D01*
X61944500Y25217100D02*
X60928500Y25217100D01*
X62960500Y26741100D02*
X63976500Y26741100D01*
X64230500Y26741100D02*
G75*
G03X64230500Y26741100I-127000J0D01*
G01*
X63976500Y26741100D02*
X63976500Y25217100D01*
X63976500Y25217100D02*
X62960500Y25217100D01*
X60928500Y24762000D02*
X61944500Y24762000D01*
X60928500Y23238000D02*
X60928500Y24762000D01*
X61944500Y23238000D02*
X60928500Y23238000D01*
X62960500Y24762000D02*
X63976500Y24762000D01*
X64230500Y24762000D02*
G75*
G03X64230500Y24762000I-127000J0D01*
G01*
X63976500Y24762000D02*
X63976500Y23238000D01*
X63976500Y23238000D02*
X62960500Y23238000D01*
X62173200Y22423100D02*
X63189200Y22423100D01*
X62173200Y20899100D02*
X62173200Y22423100D01*
X63189200Y20899100D02*
X62173200Y20899100D01*
X64205200Y22423100D02*
X65221200Y22423100D01*
X65475200Y22423100D02*
G75*
G03X65475200Y22423100I-127000J0D01*
G01*
X65221200Y22423100D02*
X65221200Y20899100D01*
X65221200Y20899100D02*
X64205200Y20899100D01*
X64840200Y29789100D02*
X65856200Y29789100D01*
X64840200Y28265100D02*
X64840200Y29789100D01*
X65856200Y28265100D02*
X64840200Y28265100D01*
X66872200Y29789100D02*
X67888200Y29789100D01*
X68142200Y29789100D02*
G75*
G03X68142200Y29789100I-127000J0D01*
G01*
X67888200Y29789100D02*
X67888200Y28265100D01*
X67888200Y28265100D02*
X66872200Y28265100D01*
X67761200Y25725100D02*
X66745200Y25725100D01*
X67761200Y27249100D02*
X67761200Y25725100D01*
X66745200Y27249100D02*
X67761200Y27249100D01*
X65729200Y25725100D02*
X64713200Y25725100D01*
X64713200Y25725100D02*
G75*
G03X64713200Y25725100I-127000J0D01*
G01*
X64713200Y25725100D02*
X64713200Y27249100D01*
X64713200Y27249100D02*
X65729200Y27249100D01*
X67476500Y23488000D02*
X66460500Y23488000D01*
X67476500Y25012000D02*
X67476500Y23488000D01*
X66460500Y25012000D02*
X67476500Y25012000D01*
X65444500Y23488000D02*
X64428500Y23488000D01*
X64428500Y23488000D02*
G75*
G03X64428500Y23488000I-127000J0D01*
G01*
X64428500Y23488000D02*
X64428500Y25012000D01*
X64428500Y25012000D02*
X65444500Y25012000D01*
X71317200Y24238000D02*
X70301200Y24238000D01*
X71317200Y25762000D02*
X71317200Y24238000D01*
X70301200Y25762000D02*
X71317200Y25762000D01*
X69285200Y24238000D02*
X68269200Y24238000D01*
X68269200Y24238000D02*
G75*
G03X68269200Y24238000I-127000J0D01*
G01*
X68269200Y24238000D02*
X68269200Y25762000D01*
X68269200Y25762000D02*
X69285200Y25762000D01*
X67988000Y20678500D02*
X67988000Y21694500D01*
X69512000Y20678500D02*
X67988000Y20678500D01*
X69512000Y21694500D02*
X69512000Y20678500D01*
X67988000Y22710500D02*
X67988000Y23726500D01*
X68115000Y23853500D02*
G75*
G03X68115000Y23853500I-127000J0D01*
G01*
X67988000Y23726500D02*
X69512000Y23726500D01*
X69512000Y23726500D02*
X69512000Y22710500D01*
X69129700Y14506100D02*
X68984700Y14506100D01*
X63979700Y14506100D02*
X64124700Y14506100D01*
X64124700Y14506100D02*
X64124700Y13106100D01*
X69129700Y14506100D02*
X69129700Y18656100D01*
X63979700Y14506100D02*
X63979700Y18656100D01*
X63979700Y18656100D02*
X64124700Y18656100D01*
X56902700Y17089100D02*
X57918700Y17089100D01*
X56902700Y15565100D02*
X56902700Y17089100D01*
X57918700Y15565100D02*
X56902700Y15565100D01*
X58934700Y17089100D02*
X59950700Y17089100D01*
X60204700Y17089100D02*
G75*
G03X60204700Y17089100I-127000J0D01*
G01*
X59950700Y17089100D02*
X59950700Y15565100D01*
X59950700Y15565100D02*
X58934700Y15565100D01*
X61982700Y15057100D02*
X61982700Y16073100D01*
X63506700Y15057100D02*
X61982700Y15057100D01*
X63506700Y16073100D02*
X63506700Y15057100D01*
X61982700Y17089100D02*
X61982700Y18105100D01*
X62109700Y18232100D02*
G75*
G03X62109700Y18232100I-127000J0D01*
G01*
X61982700Y18105100D02*
X63506700Y18105100D01*
X63506700Y18105100D02*
X63506700Y17089100D01*
X59442700Y11564600D02*
X59442700Y12580600D01*
X60966700Y11564600D02*
X59442700Y11564600D01*
X60966700Y12580600D02*
X60966700Y11564600D01*
X59442700Y13596600D02*
X59442700Y14612600D01*
X59569700Y14739600D02*
G75*
G03X59569700Y14739600I-127000J0D01*
G01*
X59442700Y14612600D02*
X60966700Y14612600D01*
X60966700Y14612600D02*
X60966700Y13596600D01*
X61982700Y11564600D02*
X61982700Y12580600D01*
X63506700Y11564600D02*
X61982700Y11564600D01*
X63506700Y12580600D02*
X63506700Y11564600D01*
X61982700Y13596600D02*
X61982700Y14612600D01*
X62109700Y14739600D02*
G75*
G03X62109700Y14739600I-127000J0D01*
G01*
X61982700Y14612600D02*
X63506700Y14612600D01*
X63506700Y14612600D02*
X63506700Y13596600D01*
X69476500Y10739100D02*
X68460500Y10739100D01*
X69476500Y12263100D02*
X69476500Y10739100D01*
X68460500Y12263100D02*
X69476500Y12263100D01*
X67444500Y10739100D02*
X66428500Y10739100D01*
X66428500Y10739100D02*
G75*
G03X66428500Y10739100I-127000J0D01*
G01*
X66428500Y10739100D02*
X66428500Y12263100D01*
X66428500Y12263100D02*
X67444500Y12263100D01*
X60261500Y36322000D02*
X59245500Y36322000D01*
X60261500Y37846000D02*
X60261500Y36322000D01*
X59245500Y37846000D02*
X60261500Y37846000D01*
X58229500Y36322000D02*
X57213500Y36322000D01*
X57213500Y36322000D02*
G75*
G03X57213500Y36322000I-127000J0D01*
G01*
X57213500Y36322000D02*
X57213500Y37846000D01*
X57213500Y37846000D02*
X58229500Y37846000D01*
X58178700Y55664100D02*
X58178700Y60744100D01*
X58178700Y60744100D02*
X65798700Y60744100D01*
X65798700Y60744100D02*
X65798700Y55664100D01*
X65798700Y55664100D02*
X58178700Y55664100D01*
X73412700Y40965100D02*
X72396700Y40965100D01*
X73412700Y42489100D02*
X73412700Y40965100D01*
X72396700Y42489100D02*
X73412700Y42489100D01*
X71380700Y40965100D02*
X70364700Y40965100D01*
X70364700Y40965100D02*
G75*
G03X70364700Y40965100I-127000J0D01*
G01*
X70364700Y40965100D02*
X70364700Y42489100D01*
X70364700Y42489100D02*
X71380700Y42489100D01*
X73412700Y38679100D02*
X72396700Y38679100D01*
X73412700Y40203100D02*
X73412700Y38679100D01*
X72396700Y40203100D02*
X73412700Y40203100D01*
X71380700Y38679100D02*
X70364700Y38679100D01*
X70364700Y38679100D02*
G75*
G03X70364700Y38679100I-127000J0D01*
G01*
X70364700Y38679100D02*
X70364700Y40203100D01*
X70364700Y40203100D02*
X71380700Y40203100D01*
X73412700Y36393100D02*
X72396700Y36393100D01*
X73412700Y37917100D02*
X73412700Y36393100D01*
X72396700Y37917100D02*
X73412700Y37917100D01*
X71380700Y36393100D02*
X70364700Y36393100D01*
X70364700Y36393100D02*
G75*
G03X70364700Y36393100I-127000J0D01*
G01*
X70364700Y36393100D02*
X70364700Y37917100D01*
X70364700Y37917100D02*
X71380700Y37917100D01*
X61291700Y64844100D02*
X61866700Y64844100D01*
X61291700Y75194100D02*
X61966700Y75194100D01*
X71641700Y75194100D02*
X70966700Y75194100D01*
X71641700Y64844100D02*
X70966700Y64844100D01*
X61291700Y64844100D02*
X61291700Y65519100D01*
X71641700Y64844100D02*
X71641700Y65519100D01*
X71641700Y75194100D02*
X71641700Y74519100D01*
X61291700Y75194100D02*
X61291700Y74519100D01*
X61866700Y64844100D02*
X61866700Y63569100D01*
X75006200Y23533100D02*
X73990200Y23533100D01*
X75006200Y25057100D02*
X75006200Y23533100D01*
X75260200Y25057100D02*
G75*
G03X75260200Y25057100I-127000J0D01*
G01*
X73990200Y25057100D02*
X75006200Y25057100D01*
X72974200Y23533100D02*
X71958200Y23533100D01*
X71958200Y23533100D02*
X71958200Y25057100D01*
X71958200Y25057100D02*
X72974200Y25057100D01*
D12*
X71496700Y43419100D02*
X73296700Y43419100D01*
X73296700Y46639100D02*
X70846700Y46639100D01*
X57959700Y48596100D02*
X57959700Y46146100D01*
X61179700Y46796100D02*
X61179700Y48596100D01*
X60006700Y22437100D02*
X60006700Y20977100D01*
X56846700Y22437100D02*
X56846700Y20277100D01*
X56846700Y22437100D02*
X57776700Y22437100D01*
X60006700Y22437100D02*
X59076700Y22437100D01*
D11*
X76200000Y83312000D02*
X76200000Y82296000D01*
X74676000Y83312000D02*
X76200000Y83312000D01*
X74803000Y83439000D02*
G75*
G03X74803000Y83439000I-127000J0D01*
G01*
X74676000Y82296000D02*
X74676000Y83312000D01*
X76200000Y81280000D02*
X76200000Y80264000D01*
X76200000Y80264000D02*
X74676000Y80264000D01*
X74676000Y80264000D02*
X74676000Y81280000D01*
X72644000Y80264000D02*
X72644000Y81280000D01*
X74168000Y80264000D02*
X72644000Y80264000D01*
X74168000Y81280000D02*
X74168000Y80264000D01*
X72644000Y82296000D02*
X72644000Y83312000D01*
X72771000Y83439000D02*
G75*
G03X72771000Y83439000I-127000J0D01*
G01*
X72644000Y83312000D02*
X74168000Y83312000D01*
X74168000Y83312000D02*
X74168000Y82296000D01*
X71882000Y83312000D02*
X71882000Y82296000D01*
X70358000Y83312000D02*
X71882000Y83312000D01*
X70485000Y83439000D02*
G75*
G03X70485000Y83439000I-127000J0D01*
G01*
X70358000Y82296000D02*
X70358000Y83312000D01*
X71882000Y81280000D02*
X71882000Y80264000D01*
X71882000Y80264000D02*
X70358000Y80264000D01*
X70358000Y80264000D02*
X70358000Y81280000D01*
X70358000Y77216000D02*
X69342000Y77216000D01*
X70358000Y78740000D02*
X70358000Y77216000D01*
X69342000Y78740000D02*
X70358000Y78740000D01*
X68326000Y77216000D02*
X67310000Y77216000D01*
X67310000Y77216000D02*
G75*
G03X67310000Y77216000I-127000J0D01*
G01*
X67310000Y77216000D02*
X67310000Y78740000D01*
X67310000Y78740000D02*
X68326000Y78740000D01*
X69164200Y59220100D02*
X68148200Y59220100D01*
X69164200Y60744100D02*
X69164200Y59220100D01*
X68148200Y60744100D02*
X69164200Y60744100D01*
X67132200Y59220100D02*
X66116200Y59220100D01*
X66116200Y59220100D02*
G75*
G03X66116200Y59220100I-127000J0D01*
G01*
X66116200Y59220100D02*
X66116200Y60744100D01*
X66116200Y60744100D02*
X67132200Y60744100D01*
X58229500Y68326000D02*
X57213500Y68326000D01*
X58229500Y69850000D02*
X58229500Y68326000D01*
X58483500Y69850000D02*
G75*
G03X58483500Y69850000I-127000J0D01*
G01*
X57213500Y69850000D02*
X58229500Y69850000D01*
X56197500Y68326000D02*
X55181500Y68326000D01*
X55181500Y68326000D02*
X55181500Y69850000D01*
X55181500Y69850000D02*
X56197500Y69850000D01*
X73545700Y69380100D02*
X73545700Y70396100D01*
X75069700Y69380100D02*
X73545700Y69380100D01*
X75196700Y69253100D02*
G75*
G03X75196700Y69253100I-127000J0D01*
G01*
X75069700Y70396100D02*
X75069700Y69380100D01*
X73545700Y71412100D02*
X73545700Y72428100D01*
X73545700Y72428100D02*
X75069700Y72428100D01*
X75069700Y72428100D02*
X75069700Y71412100D01*
X68389500Y57912000D02*
X69405500Y57912000D01*
X68389500Y56388000D02*
X68389500Y57912000D01*
X68389500Y56388000D02*
G75*
G03X68389500Y56388000I-127000J0D01*
G01*
X69405500Y56388000D02*
X68389500Y56388000D01*
X70421500Y57912000D02*
X71437500Y57912000D01*
X71437500Y57912000D02*
X71437500Y56388000D01*
X71437500Y56388000D02*
X70421500Y56388000D01*
X55372000Y81534000D02*
X56388000Y81534000D01*
X55372000Y80010000D02*
X55372000Y81534000D01*
X56388000Y80010000D02*
X55372000Y80010000D01*
X57404000Y81534000D02*
X58420000Y81534000D01*
X58674000Y81534000D02*
G75*
G03X58674000Y81534000I-127000J0D01*
G01*
X58420000Y81534000D02*
X58420000Y80010000D01*
X58420000Y80010000D02*
X57404000Y80010000D01*
X62484000Y80708500D02*
X62484000Y79692500D01*
X60960000Y80708500D02*
X62484000Y80708500D01*
X60960000Y79692500D02*
X60960000Y80708500D01*
X62484000Y78676500D02*
X62484000Y77660500D01*
X62611000Y77533500D02*
G75*
G03X62611000Y77533500I-127000J0D01*
G01*
X62484000Y77660500D02*
X60960000Y77660500D01*
X60960000Y77660500D02*
X60960000Y78676500D01*
X52514500Y75438000D02*
X53530500Y75438000D01*
X52514500Y73914000D02*
X52514500Y75438000D01*
X53530500Y73914000D02*
X52514500Y73914000D01*
X54546500Y75438000D02*
X55562500Y75438000D01*
X55816500Y75438000D02*
G75*
G03X55816500Y75438000I-127000J0D01*
G01*
X55562500Y75438000D02*
X55562500Y73914000D01*
X55562500Y73914000D02*
X54546500Y73914000D01*
X67576700Y58902600D02*
X67576700Y57886600D01*
X66052700Y58902600D02*
X67576700Y58902600D01*
X66052700Y57886600D02*
X66052700Y58902600D01*
X67576700Y56870600D02*
X67576700Y55854600D01*
X67703700Y55727600D02*
G75*
G03X67703700Y55727600I-127000J0D01*
G01*
X67576700Y55854600D02*
X66052700Y55854600D01*
X66052700Y55854600D02*
X66052700Y56870600D01*
X74942700Y29883100D02*
X73926700Y29883100D01*
X74942700Y31407100D02*
X74942700Y29883100D01*
X75196700Y31407100D02*
G75*
G03X75196700Y31407100I-127000J0D01*
G01*
X73926700Y31407100D02*
X74942700Y31407100D01*
X72910700Y29883100D02*
X71894700Y29883100D01*
X71894700Y29883100D02*
X71894700Y31407100D01*
X71894700Y31407100D02*
X72910700Y31407100D01*
X71894700Y29375100D02*
X72910700Y29375100D01*
X71894700Y27851100D02*
X71894700Y29375100D01*
X72910700Y27851100D02*
X71894700Y27851100D01*
X73926700Y29375100D02*
X74942700Y29375100D01*
X75196700Y29375100D02*
G75*
G03X75196700Y29375100I-127000J0D01*
G01*
X74942700Y29375100D02*
X74942700Y27851100D01*
X74942700Y27851100D02*
X73926700Y27851100D01*
X52641500Y67818000D02*
X53657500Y67818000D01*
X52641500Y66294000D02*
X52641500Y67818000D01*
X53657500Y66294000D02*
X52641500Y66294000D01*
X54673500Y67818000D02*
X55689500Y67818000D01*
X55943500Y67818000D02*
G75*
G03X55943500Y67818000I-127000J0D01*
G01*
X55689500Y67818000D02*
X55689500Y66294000D01*
X55689500Y66294000D02*
X54673500Y66294000D01*
X56959500Y59944000D02*
X55943500Y59944000D01*
X56959500Y61468000D02*
X56959500Y59944000D01*
X55943500Y61468000D02*
X56959500Y61468000D01*
X54927500Y59944000D02*
X53911500Y59944000D01*
X53911500Y59944000D02*
G75*
G03X53911500Y59944000I-127000J0D01*
G01*
X53911500Y59944000D02*
X53911500Y61468000D01*
X53911500Y61468000D02*
X54927500Y61468000D01*
X54038500Y59182000D02*
X55054500Y59182000D01*
X54038500Y57658000D02*
X54038500Y59182000D01*
X54038500Y57658000D02*
G75*
G03X54038500Y57658000I-127000J0D01*
G01*
X55054500Y57658000D02*
X54038500Y57658000D01*
X56070500Y59182000D02*
X57086500Y59182000D01*
X57086500Y59182000D02*
X57086500Y57658000D01*
X57086500Y57658000D02*
X56070500Y57658000D01*
X55626000Y54165500D02*
X55626000Y55181500D01*
X57150000Y54165500D02*
X55626000Y54165500D01*
X57277000Y54038500D02*
G75*
G03X57277000Y54038500I-127000J0D01*
G01*
X57150000Y55181500D02*
X57150000Y54165500D01*
X55626000Y56197500D02*
X55626000Y57213500D01*
X55626000Y57213500D02*
X57150000Y57213500D01*
X57150000Y57213500D02*
X57150000Y56197500D01*
X76212700Y31724600D02*
X76212700Y32740600D01*
X77736700Y31724600D02*
X76212700Y31724600D01*
X77863700Y31597600D02*
G75*
G03X77863700Y31597600I-127000J0D01*
G01*
X77736700Y32740600D02*
X77736700Y31724600D01*
X76212700Y33756600D02*
X76212700Y34772600D01*
X76212700Y34772600D02*
X77736700Y34772600D01*
X77736700Y34772600D02*
X77736700Y33756600D01*
X77736700Y30962600D02*
X77736700Y29946600D01*
X76212700Y30962600D02*
X77736700Y30962600D01*
X76212700Y29946600D02*
X76212700Y30962600D01*
X77736700Y28930600D02*
X77736700Y27914600D01*
X77863700Y27787600D02*
G75*
G03X77863700Y27787600I-127000J0D01*
G01*
X77736700Y27914600D02*
X76212700Y27914600D01*
X76212700Y27914600D02*
X76212700Y28930600D01*
X77736700Y27152600D02*
X77736700Y26136600D01*
X76212700Y27152600D02*
X77736700Y27152600D01*
X76212700Y26136600D02*
X76212700Y27152600D01*
X77736700Y25120600D02*
X77736700Y24104600D01*
X77863700Y23977600D02*
G75*
G03X77863700Y23977600I-127000J0D01*
G01*
X77736700Y24104600D02*
X76212700Y24104600D01*
X76212700Y24104600D02*
X76212700Y25120600D01*
D12*
X57166252Y64060000D02*
X56643748Y64060000D01*
X57166252Y65480000D02*
X56643748Y65480000D01*
X51488700Y64738000D02*
X51488700Y62938000D01*
X54708700Y62938000D02*
X54708700Y65388000D01*
D11*
X74942700Y25819100D02*
X73926700Y25819100D01*
X74942700Y27343100D02*
X74942700Y25819100D01*
X75196700Y27343100D02*
G75*
G03X75196700Y27343100I-127000J0D01*
G01*
X73926700Y27343100D02*
X74942700Y27343100D01*
X72910700Y25819100D02*
X71894700Y25819100D01*
X71894700Y25819100D02*
X71894700Y27343100D01*
X71894700Y27343100D02*
X72910700Y27343100D01*
X77216000Y83566000D02*
X78232000Y83566000D01*
X77216000Y82042000D02*
X77216000Y83566000D01*
X77216000Y82042000D02*
G75*
G03X77216000Y82042000I-127000J0D01*
G01*
X78232000Y82042000D02*
X77216000Y82042000D01*
X79248000Y83566000D02*
X80264000Y83566000D01*
X80264000Y83566000D02*
X80264000Y82042000D01*
X80264000Y82042000D02*
X79248000Y82042000D01*
D12*
X71656000Y77232000D02*
X75956000Y77232000D01*
X75956000Y77232000D02*
X75956000Y79232000D01*
X75956000Y79232000D02*
X71656000Y79232000D01*
D11*
X77724000Y76454000D02*
X77724000Y75438000D01*
X76200000Y76454000D02*
X77724000Y76454000D01*
X76327000Y76581000D02*
G75*
G03X76327000Y76581000I-127000J0D01*
G01*
X76200000Y75438000D02*
X76200000Y76454000D01*
X77724000Y74422000D02*
X77724000Y73406000D01*
X77724000Y73406000D02*
X76200000Y73406000D01*
X76200000Y73406000D02*
X76200000Y74422000D01*
X78512380Y19391904D02*
X77512380Y19391904D01*
X77512380Y19630000D01*
X77560000Y19772857D01*
X77655238Y19868095D01*
X77750476Y19915714D01*
X77940952Y19963333D01*
X78083809Y19963333D01*
X78274285Y19915714D01*
X78369523Y19868095D01*
X78464761Y19772857D01*
X78512380Y19630000D01*
X78512380Y19391904D01*
X78512380Y20915714D02*
X78512380Y20344285D01*
X78512380Y20630000D02*
X77512380Y20630000D01*
X77655238Y20534761D01*
X77750476Y20439523D01*
X77798095Y20344285D01*
X72162380Y21138095D02*
X71162380Y21138095D01*
X72162380Y21709523D02*
X71590952Y21280952D01*
X71162380Y21709523D02*
X71733809Y21138095D01*
X48686380Y68134476D02*
X47686380Y68134476D01*
X48400666Y68467809D01*
X47686380Y68801142D01*
X48686380Y68801142D01*
X48686380Y69324952D02*
X48686380Y69515428D01*
X48638761Y69610666D01*
X48591142Y69658285D01*
X48448285Y69753523D01*
X48257809Y69801142D01*
X47876857Y69801142D01*
X47781619Y69753523D01*
X47734000Y69705904D01*
X47686380Y69610666D01*
X47686380Y69420190D01*
X47734000Y69324952D01*
X47781619Y69277333D01*
X47876857Y69229714D01*
X48114952Y69229714D01*
X48210190Y69277333D01*
X48257809Y69324952D01*
X48305428Y69420190D01*
X48305428Y69610666D01*
X48257809Y69705904D01*
X48210190Y69753523D01*
X48114952Y69801142D01*
D13*
X58518985Y33472100D02*
X58591557Y33399528D01*
X58664128Y33181814D01*
X58664128Y33036671D01*
X58591557Y32818957D01*
X58446414Y32673814D01*
X58301271Y32601242D01*
X58010985Y32528671D01*
X57793271Y32528671D01*
X57502985Y32601242D01*
X57357842Y32673814D01*
X57212700Y32818957D01*
X57140128Y33036671D01*
X57140128Y33181814D01*
X57212700Y33399528D01*
X57285271Y33472100D01*
X58664128Y34923528D02*
X58664128Y34052671D01*
X58664128Y34488100D02*
X57140128Y34488100D01*
X57357842Y34342957D01*
X57502985Y34197814D01*
X57575557Y34052671D01*
X57783717Y38144248D02*
X57783717Y39305391D01*
X58364288Y38724820D02*
X57203145Y38724820D01*
D11*
X56419904Y80567619D02*
X56419904Y79758095D01*
X56467523Y79662857D01*
X56515142Y79615238D01*
X56610380Y79567619D01*
X56800857Y79567619D01*
X56896095Y79615238D01*
X56943714Y79662857D01*
X56991333Y79758095D01*
X56991333Y80567619D01*
X57991333Y79567619D02*
X57419904Y79567619D01*
X57705619Y79567619D02*
X57705619Y80567619D01*
X57610380Y80424761D01*
X57515142Y80329523D01*
X57419904Y80281904D01*
X58943714Y79567619D02*
X58372285Y79567619D01*
X58658000Y79567619D02*
X58658000Y80567619D01*
X58562761Y80424761D01*
X58467523Y80329523D01*
X58372285Y80281904D01*
D14*
X69559714Y81534000D02*
X69559714Y81171142D01*
X68797714Y81171142D01*
X69559714Y82187142D02*
X69559714Y81751714D01*
X69559714Y81969428D02*
X68797714Y81969428D01*
X68906571Y81896857D01*
X68979142Y81824285D01*
X69015428Y81751714D01*
D11*
X78589142Y78859142D02*
X78636761Y78811523D01*
X78684380Y78668666D01*
X78684380Y78573428D01*
X78636761Y78430571D01*
X78541523Y78335333D01*
X78446285Y78287714D01*
X78255809Y78240095D01*
X78112952Y78240095D01*
X77922476Y78287714D01*
X77827238Y78335333D01*
X77732000Y78430571D01*
X77684380Y78573428D01*
X77684380Y78668666D01*
X77732000Y78811523D01*
X77779619Y78859142D01*
X77779619Y79240095D02*
X77732000Y79287714D01*
X77684380Y79382952D01*
X77684380Y79621047D01*
X77732000Y79716285D01*
X77779619Y79763904D01*
X77874857Y79811523D01*
X77970095Y79811523D01*
X78112952Y79763904D01*
X78684380Y79192476D01*
X78684380Y79811523D01*
X78684380Y80287714D02*
X78684380Y80478190D01*
X78636761Y80573428D01*
X78589142Y80621047D01*
X78446285Y80716285D01*
X78255809Y80763904D01*
X77874857Y80763904D01*
X77779619Y80716285D01*
X77732000Y80668666D01*
X77684380Y80573428D01*
X77684380Y80382952D01*
X77732000Y80287714D01*
X77779619Y80240095D01*
X77874857Y80192476D01*
X78112952Y80192476D01*
X78208190Y80240095D01*
X78255809Y80287714D01*
X78303428Y80382952D01*
X78303428Y80573428D01*
X78255809Y80668666D01*
X78208190Y80716285D01*
X78112952Y80763904D01*
X52681142Y55999142D02*
X52728761Y55951523D01*
X52776380Y55808666D01*
X52776380Y55713428D01*
X52728761Y55570571D01*
X52633523Y55475333D01*
X52538285Y55427714D01*
X52347809Y55380095D01*
X52204952Y55380095D01*
X52014476Y55427714D01*
X51919238Y55475333D01*
X51824000Y55570571D01*
X51776380Y55713428D01*
X51776380Y55808666D01*
X51824000Y55951523D01*
X51871619Y55999142D01*
X51776380Y56903904D02*
X51776380Y56427714D01*
X52252571Y56380095D01*
X52204952Y56427714D01*
X52157333Y56522952D01*
X52157333Y56761047D01*
X52204952Y56856285D01*
X52252571Y56903904D01*
X52347809Y56951523D01*
X52585904Y56951523D01*
X52681142Y56903904D01*
X52728761Y56856285D01*
X52776380Y56761047D01*
X52776380Y56522952D01*
X52728761Y56427714D01*
X52681142Y56380095D01*
X51871619Y57332476D02*
X51824000Y57380095D01*
X51776380Y57475333D01*
X51776380Y57713428D01*
X51824000Y57808666D01*
X51871619Y57856285D01*
X51966857Y57903904D01*
X52062095Y57903904D01*
X52204952Y57856285D01*
X52776380Y57284857D01*
X52776380Y57903904D01*
X63975080Y38171195D02*
X64784604Y38171195D01*
X64879842Y38218814D01*
X64927461Y38266433D01*
X64975080Y38361671D01*
X64975080Y38552147D01*
X64927461Y38647385D01*
X64879842Y38695004D01*
X64784604Y38742623D01*
X63975080Y38742623D01*
X64070319Y39171195D02*
X64022700Y39218814D01*
X63975080Y39314052D01*
X63975080Y39552147D01*
X64022700Y39647385D01*
X64070319Y39695004D01*
X64165557Y39742623D01*
X64260795Y39742623D01*
X64403652Y39695004D01*
X64975080Y39123576D01*
X64975080Y39742623D01*
X66007080Y15819195D02*
X66816604Y15819195D01*
X66911842Y15866814D01*
X66959461Y15914433D01*
X67007080Y16009671D01*
X67007080Y16200147D01*
X66959461Y16295385D01*
X66911842Y16343004D01*
X66816604Y16390623D01*
X66007080Y16390623D01*
X67007080Y17390623D02*
X67007080Y16819195D01*
X67007080Y17104909D02*
X66007080Y17104909D01*
X66149938Y17009671D01*
X66245176Y16914433D01*
X66292795Y16819195D01*
D15*
X59674890Y55425957D02*
X59674890Y55140242D01*
X59674890Y55283100D02*
X59174890Y55283100D01*
X59246319Y55235480D01*
X59293938Y55187861D01*
X59317747Y55140242D01*
D11*
X53090476Y8191619D02*
X53090476Y9191619D01*
X53423809Y8477333D01*
X53757142Y9191619D01*
X53757142Y8191619D01*
X54661904Y9191619D02*
X54471428Y9191619D01*
X54376190Y9144000D01*
X54328571Y9096380D01*
X54233333Y8953523D01*
X54185714Y8763047D01*
X54185714Y8382095D01*
X54233333Y8286857D01*
X54280952Y8239238D01*
X54376190Y8191619D01*
X54566666Y8191619D01*
X54661904Y8239238D01*
X54709523Y8286857D01*
X54757142Y8382095D01*
X54757142Y8620190D01*
X54709523Y8715428D01*
X54661904Y8763047D01*
X54566666Y8810666D01*
X54376190Y8810666D01*
X54280952Y8763047D01*
X54233333Y8715428D01*
X54185714Y8620190D01*
X65886080Y68777004D02*
X66695604Y68777004D01*
X66790842Y68824623D01*
X66838461Y68872242D01*
X66886080Y68967480D01*
X66886080Y69157957D01*
X66838461Y69253195D01*
X66790842Y69300814D01*
X66695604Y69348433D01*
X65886080Y69348433D01*
X66886080Y70348433D02*
X66886080Y69777004D01*
X66886080Y70062719D02*
X65886080Y70062719D01*
X66028938Y69967480D01*
X66124176Y69872242D01*
X66171795Y69777004D01*
X65886080Y70967480D02*
X65886080Y71062719D01*
X65933700Y71157957D01*
X65981319Y71205576D01*
X66076557Y71253195D01*
X66267033Y71300814D01*
X66505128Y71300814D01*
X66695604Y71253195D01*
X66790842Y71205576D01*
X66838461Y71157957D01*
X66886080Y71062719D01*
X66886080Y70967480D01*
X66838461Y70872242D01*
X66790842Y70824623D01*
X66695604Y70777004D01*
X66505128Y70729385D01*
X66267033Y70729385D01*
X66076557Y70777004D01*
X65981319Y70824623D01*
X65933700Y70872242D01*
X65886080Y70967480D01*
X71634795Y45576719D02*
X71634795Y44767195D01*
X71682414Y44671957D01*
X71730033Y44624338D01*
X71825271Y44576719D01*
X72015747Y44576719D01*
X72110985Y44624338D01*
X72158604Y44671957D01*
X72206223Y44767195D01*
X72206223Y45576719D01*
X73110985Y45243385D02*
X73110985Y44576719D01*
X72872890Y45624338D02*
X72634795Y44910052D01*
X73253842Y44910052D01*
X59022080Y46934195D02*
X59831604Y46934195D01*
X59926842Y46981814D01*
X59974461Y47029433D01*
X60022080Y47124671D01*
X60022080Y47315147D01*
X59974461Y47410385D01*
X59926842Y47458004D01*
X59831604Y47505623D01*
X59022080Y47505623D01*
X59022080Y48458004D02*
X59022080Y47981814D01*
X59498271Y47934195D01*
X59450652Y47981814D01*
X59403033Y48077052D01*
X59403033Y48315147D01*
X59450652Y48410385D01*
X59498271Y48458004D01*
X59593509Y48505623D01*
X59831604Y48505623D01*
X59926842Y48458004D01*
X59974461Y48410385D01*
X60022080Y48315147D01*
X60022080Y48077052D01*
X59974461Y47981814D01*
X59926842Y47934195D01*
X57879080Y20391195D02*
X58688604Y20391195D01*
X58783842Y20438814D01*
X58831461Y20486433D01*
X58879080Y20581671D01*
X58879080Y20772147D01*
X58831461Y20867385D01*
X58783842Y20915004D01*
X58688604Y20962623D01*
X57879080Y20962623D01*
X57879080Y21343576D02*
X57879080Y21962623D01*
X58260033Y21629290D01*
X58260033Y21772147D01*
X58307652Y21867385D01*
X58355271Y21915004D01*
X58450509Y21962623D01*
X58688604Y21962623D01*
X58783842Y21915004D01*
X58831461Y21867385D01*
X58879080Y21772147D01*
X58879080Y21486433D01*
X58831461Y21391195D01*
X58783842Y21343576D01*
X73246033Y49782719D02*
X72912700Y50258909D01*
X72674604Y49782719D02*
X72674604Y50782719D01*
X73055557Y50782719D01*
X73150795Y50735100D01*
X73198414Y50687480D01*
X73246033Y50592242D01*
X73246033Y50449385D01*
X73198414Y50354147D01*
X73150795Y50306528D01*
X73055557Y50258909D01*
X72674604Y50258909D01*
X74198414Y49782719D02*
X73626985Y49782719D01*
X73912700Y49782719D02*
X73912700Y50782719D01*
X73817461Y50639861D01*
X73722223Y50544623D01*
X73626985Y50497004D01*
X56738333Y64317619D02*
X56262142Y64317619D01*
X56262142Y65317619D01*
X56976428Y65317619D02*
X57595476Y65317619D01*
X57262142Y64936666D01*
X57405000Y64936666D01*
X57500238Y64889047D01*
X57547857Y64841428D01*
X57595476Y64746190D01*
X57595476Y64508095D01*
X57547857Y64412857D01*
X57500238Y64365238D01*
X57405000Y64317619D01*
X57119285Y64317619D01*
X57024047Y64365238D01*
X56976428Y64412857D01*
X52721080Y63391095D02*
X53530604Y63391095D01*
X53625842Y63438714D01*
X53673461Y63486333D01*
X53721080Y63581571D01*
X53721080Y63772047D01*
X53673461Y63867285D01*
X53625842Y63914904D01*
X53530604Y63962523D01*
X52721080Y63962523D01*
X53149652Y64581571D02*
X53102033Y64486333D01*
X53054414Y64438714D01*
X52959176Y64391095D01*
X52911557Y64391095D01*
X52816319Y64438714D01*
X52768700Y64486333D01*
X52721080Y64581571D01*
X52721080Y64772047D01*
X52768700Y64867285D01*
X52816319Y64914904D01*
X52911557Y64962523D01*
X52959176Y64962523D01*
X53054414Y64914904D01*
X53102033Y64867285D01*
X53149652Y64772047D01*
X53149652Y64581571D01*
X53197271Y64486333D01*
X53244890Y64438714D01*
X53340128Y64391095D01*
X53530604Y64391095D01*
X53625842Y64438714D01*
X53673461Y64486333D01*
X53721080Y64581571D01*
X53721080Y64772047D01*
X53673461Y64867285D01*
X53625842Y64914904D01*
X53530604Y64962523D01*
X53340128Y64962523D01*
X53244890Y64914904D01*
X53197271Y64867285D01*
X53149652Y64772047D01*
X72667904Y77779619D02*
X72667904Y78779619D01*
X72906000Y78779619D01*
X73048857Y78732000D01*
X73144095Y78636761D01*
X73191714Y78541523D01*
X73239333Y78351047D01*
X73239333Y78208190D01*
X73191714Y78017714D01*
X73144095Y77922476D01*
X73048857Y77827238D01*
X72906000Y77779619D01*
X72667904Y77779619D01*
X73572666Y78779619D02*
X74191714Y78779619D01*
X73858380Y78398666D01*
X74001238Y78398666D01*
X74096476Y78351047D01*
X74144095Y78303428D01*
X74191714Y78208190D01*
X74191714Y77970095D01*
X74144095Y77874857D01*
X74096476Y77827238D01*
X74001238Y77779619D01*
X73715523Y77779619D01*
X73620285Y77827238D01*
X73572666Y77874857D01*
M02*
