G04 #@! TF.GenerationSoftware,KiCad,Pcbnew,(5.99.0-6591-gee6c8b60ac)*
G04 #@! TF.CreationDate,2020-11-24T08:13:14+01:00*
G04 #@! TF.ProjectId,SPACEDOS01A_PCB01B,53504143-4544-44f5-9330-31415f504342,REV*
G04 #@! TF.SameCoordinates,Original*
G04 #@! TF.FileFunction,Legend,Top*
G04 #@! TF.FilePolarity,Positive*
%FSLAX46Y46*%
G04 Gerber Fmt 4.6, Leading zero omitted, Abs format (unit mm)*
G04 Created by KiCad (PCBNEW (5.99.0-6591-gee6c8b60ac)) date 2020-11-24 08:13:14*
%MOMM*%
%LPD*%
G01*
G04 APERTURE LIST*
%ADD10C,0.300000*%
%ADD11C,0.150000*%
%ADD12C,0.100000*%
%ADD13C,0.120000*%
%ADD14R,1.524000X1.524000*%
G04 APERTURE END LIST*
D10*
X75911809Y30399904D02*
X75478476Y31018952D01*
X75168952Y30399904D02*
X75168952Y31699904D01*
X75664190Y31699904D01*
X75788000Y31638000D01*
X75849904Y31576095D01*
X75911809Y31452285D01*
X75911809Y31266571D01*
X75849904Y31142761D01*
X75788000Y31080857D01*
X75664190Y31018952D01*
X75168952Y31018952D01*
X76407047Y30461809D02*
X76592761Y30399904D01*
X76902285Y30399904D01*
X77026095Y30461809D01*
X77088000Y30523714D01*
X77149904Y30647523D01*
X77149904Y30771333D01*
X77088000Y30895142D01*
X77026095Y30957047D01*
X76902285Y31018952D01*
X76654666Y31080857D01*
X76530857Y31142761D01*
X76468952Y31204666D01*
X76407047Y31328476D01*
X76407047Y31452285D01*
X76468952Y31576095D01*
X76530857Y31638000D01*
X76654666Y31699904D01*
X76964190Y31699904D01*
X77149904Y31638000D01*
X77521333Y31699904D02*
X78264190Y31699904D01*
X77892761Y30399904D02*
X77892761Y31699904D01*
X78635619Y31266571D02*
X79564190Y31266571D01*
X79007047Y31823714D02*
X78635619Y30152285D01*
X79440380Y30709428D02*
X78511809Y30709428D01*
X79068952Y30152285D02*
X79440380Y31823714D01*
X53839904Y46082809D02*
X54025619Y46020904D01*
X54335142Y46020904D01*
X54458952Y46082809D01*
X54520857Y46144714D01*
X54582761Y46268523D01*
X54582761Y46392333D01*
X54520857Y46516142D01*
X54458952Y46578047D01*
X54335142Y46639952D01*
X54087523Y46701857D01*
X53963714Y46763761D01*
X53901809Y46825666D01*
X53839904Y46949476D01*
X53839904Y47073285D01*
X53901809Y47197095D01*
X53963714Y47259000D01*
X54087523Y47320904D01*
X54397047Y47320904D01*
X54582761Y47259000D01*
X55139904Y46020904D02*
X55139904Y47320904D01*
X55635142Y47320904D01*
X55758952Y47259000D01*
X55820857Y47197095D01*
X55882761Y47073285D01*
X55882761Y46887571D01*
X55820857Y46763761D01*
X55758952Y46701857D01*
X55635142Y46639952D01*
X55139904Y46639952D01*
X56378000Y46392333D02*
X56997047Y46392333D01*
X56254190Y46020904D02*
X56687523Y47320904D01*
X57120857Y46020904D01*
X58297047Y46144714D02*
X58235142Y46082809D01*
X58049428Y46020904D01*
X57925619Y46020904D01*
X57739904Y46082809D01*
X57616095Y46206619D01*
X57554190Y46330428D01*
X57492285Y46578047D01*
X57492285Y46763761D01*
X57554190Y47011380D01*
X57616095Y47135190D01*
X57739904Y47259000D01*
X57925619Y47320904D01*
X58049428Y47320904D01*
X58235142Y47259000D01*
X58297047Y47197095D01*
X58854190Y46701857D02*
X59287523Y46701857D01*
X59473238Y46020904D02*
X58854190Y46020904D01*
X58854190Y47320904D01*
X59473238Y47320904D01*
X60030380Y46020904D02*
X60030380Y47320904D01*
X60339904Y47320904D01*
X60525619Y47259000D01*
X60649428Y47135190D01*
X60711333Y47011380D01*
X60773238Y46763761D01*
X60773238Y46578047D01*
X60711333Y46330428D01*
X60649428Y46206619D01*
X60525619Y46082809D01*
X60339904Y46020904D01*
X60030380Y46020904D01*
X61578000Y47320904D02*
X61825619Y47320904D01*
X61949428Y47259000D01*
X62073238Y47135190D01*
X62135142Y46887571D01*
X62135142Y46454238D01*
X62073238Y46206619D01*
X61949428Y46082809D01*
X61825619Y46020904D01*
X61578000Y46020904D01*
X61454190Y46082809D01*
X61330380Y46206619D01*
X61268476Y46454238D01*
X61268476Y46887571D01*
X61330380Y47135190D01*
X61454190Y47259000D01*
X61578000Y47320904D01*
X62630380Y46082809D02*
X62816095Y46020904D01*
X63125619Y46020904D01*
X63249428Y46082809D01*
X63311333Y46144714D01*
X63373238Y46268523D01*
X63373238Y46392333D01*
X63311333Y46516142D01*
X63249428Y46578047D01*
X63125619Y46639952D01*
X62878000Y46701857D01*
X62754190Y46763761D01*
X62692285Y46825666D01*
X62630380Y46949476D01*
X62630380Y47073285D01*
X62692285Y47197095D01*
X62754190Y47259000D01*
X62878000Y47320904D01*
X63187523Y47320904D01*
X63373238Y47259000D01*
X64178000Y47320904D02*
X64301809Y47320904D01*
X64425619Y47259000D01*
X64487523Y47197095D01*
X64549428Y47073285D01*
X64611333Y46825666D01*
X64611333Y46516142D01*
X64549428Y46268523D01*
X64487523Y46144714D01*
X64425619Y46082809D01*
X64301809Y46020904D01*
X64178000Y46020904D01*
X64054190Y46082809D01*
X63992285Y46144714D01*
X63930380Y46268523D01*
X63868476Y46516142D01*
X63868476Y46825666D01*
X63930380Y47073285D01*
X63992285Y47197095D01*
X64054190Y47259000D01*
X64178000Y47320904D01*
X65849428Y46020904D02*
X65106571Y46020904D01*
X65478000Y46020904D02*
X65478000Y47320904D01*
X65354190Y47135190D01*
X65230380Y47011380D01*
X65106571Y46949476D01*
X66344666Y46392333D02*
X66963714Y46392333D01*
X66220857Y46020904D02*
X66654190Y47320904D01*
X67087523Y46020904D01*
X67211333Y45897095D02*
X68201809Y45897095D01*
X68511333Y46020904D02*
X68511333Y47320904D01*
X69006571Y47320904D01*
X69130380Y47259000D01*
X69192285Y47197095D01*
X69254190Y47073285D01*
X69254190Y46887571D01*
X69192285Y46763761D01*
X69130380Y46701857D01*
X69006571Y46639952D01*
X68511333Y46639952D01*
X70554190Y46144714D02*
X70492285Y46082809D01*
X70306571Y46020904D01*
X70182761Y46020904D01*
X69997047Y46082809D01*
X69873238Y46206619D01*
X69811333Y46330428D01*
X69749428Y46578047D01*
X69749428Y46763761D01*
X69811333Y47011380D01*
X69873238Y47135190D01*
X69997047Y47259000D01*
X70182761Y47320904D01*
X70306571Y47320904D01*
X70492285Y47259000D01*
X70554190Y47197095D01*
X71544666Y46701857D02*
X71730380Y46639952D01*
X71792285Y46578047D01*
X71854190Y46454238D01*
X71854190Y46268523D01*
X71792285Y46144714D01*
X71730380Y46082809D01*
X71606571Y46020904D01*
X71111333Y46020904D01*
X71111333Y47320904D01*
X71544666Y47320904D01*
X71668476Y47259000D01*
X71730380Y47197095D01*
X71792285Y47073285D01*
X71792285Y46949476D01*
X71730380Y46825666D01*
X71668476Y46763761D01*
X71544666Y46701857D01*
X71111333Y46701857D01*
X72658952Y47320904D02*
X72782761Y47320904D01*
X72906571Y47259000D01*
X72968476Y47197095D01*
X73030380Y47073285D01*
X73092285Y46825666D01*
X73092285Y46516142D01*
X73030380Y46268523D01*
X72968476Y46144714D01*
X72906571Y46082809D01*
X72782761Y46020904D01*
X72658952Y46020904D01*
X72535142Y46082809D01*
X72473238Y46144714D01*
X72411333Y46268523D01*
X72349428Y46516142D01*
X72349428Y46825666D01*
X72411333Y47073285D01*
X72473238Y47197095D01*
X72535142Y47259000D01*
X72658952Y47320904D01*
X74330380Y46020904D02*
X73587523Y46020904D01*
X73958952Y46020904D02*
X73958952Y47320904D01*
X73835142Y47135190D01*
X73711333Y47011380D01*
X73587523Y46949476D01*
X75320857Y46701857D02*
X75506571Y46639952D01*
X75568476Y46578047D01*
X75630380Y46454238D01*
X75630380Y46268523D01*
X75568476Y46144714D01*
X75506571Y46082809D01*
X75382761Y46020904D01*
X74887523Y46020904D01*
X74887523Y47320904D01*
X75320857Y47320904D01*
X75444666Y47259000D01*
X75506571Y47197095D01*
X75568476Y47073285D01*
X75568476Y46949476D01*
X75506571Y46825666D01*
X75444666Y46763761D01*
X75320857Y46701857D01*
X74887523Y46701857D01*
X76472142Y34493904D02*
X77215000Y34493904D01*
X76843571Y33193904D02*
X76843571Y34493904D01*
X77524523Y34493904D02*
X78391190Y33193904D01*
X78391190Y34493904D02*
X77524523Y33193904D01*
X79134047Y34493904D02*
X79257857Y34493904D01*
X79381666Y34432000D01*
X79443571Y34370095D01*
X79505476Y34246285D01*
X79567380Y33998666D01*
X79567380Y33689142D01*
X79505476Y33441523D01*
X79443571Y33317714D01*
X79381666Y33255809D01*
X79257857Y33193904D01*
X79134047Y33193904D01*
X79010238Y33255809D01*
X78948333Y33317714D01*
X78886428Y33441523D01*
X78824523Y33689142D01*
X78824523Y33998666D01*
X78886428Y34246285D01*
X78948333Y34370095D01*
X79010238Y34432000D01*
X79134047Y34493904D01*
X77883190Y24333904D02*
X77264142Y24333904D01*
X77202238Y23714857D01*
X77264142Y23776761D01*
X77387952Y23838666D01*
X77697476Y23838666D01*
X77821285Y23776761D01*
X77883190Y23714857D01*
X77945095Y23591047D01*
X77945095Y23281523D01*
X77883190Y23157714D01*
X77821285Y23095809D01*
X77697476Y23033904D01*
X77387952Y23033904D01*
X77264142Y23095809D01*
X77202238Y23157714D01*
X78316523Y24333904D02*
X78749857Y23033904D01*
X79183190Y24333904D01*
X73027190Y33193904D02*
X72593857Y33812952D01*
X72284333Y33193904D02*
X72284333Y34493904D01*
X72779571Y34493904D01*
X72903380Y34432000D01*
X72965285Y34370095D01*
X73027190Y34246285D01*
X73027190Y34060571D01*
X72965285Y33936761D01*
X72903380Y33874857D01*
X72779571Y33812952D01*
X72284333Y33812952D01*
X73460523Y34493904D02*
X74327190Y33193904D01*
X74327190Y34493904D02*
X73460523Y33193904D01*
X75070047Y34493904D02*
X75193857Y34493904D01*
X75317666Y34432000D01*
X75379571Y34370095D01*
X75441476Y34246285D01*
X75503380Y33998666D01*
X75503380Y33689142D01*
X75441476Y33441523D01*
X75379571Y33317714D01*
X75317666Y33255809D01*
X75193857Y33193904D01*
X75070047Y33193904D01*
X74946238Y33255809D01*
X74884333Y33317714D01*
X74822428Y33441523D01*
X74760523Y33689142D01*
X74760523Y33998666D01*
X74822428Y34246285D01*
X74884333Y34370095D01*
X74946238Y34432000D01*
X75070047Y34493904D01*
X75902238Y26492904D02*
X76707000Y26492904D01*
X76273666Y25997666D01*
X76459380Y25997666D01*
X76583190Y25935761D01*
X76645095Y25873857D01*
X76707000Y25750047D01*
X76707000Y25440523D01*
X76645095Y25316714D01*
X76583190Y25254809D01*
X76459380Y25192904D01*
X76087952Y25192904D01*
X75964142Y25254809D01*
X75902238Y25316714D01*
X77078428Y26492904D02*
X77511761Y25192904D01*
X77945095Y26492904D01*
X78254619Y26492904D02*
X79059380Y26492904D01*
X78626047Y25997666D01*
X78811761Y25997666D01*
X78935571Y25935761D01*
X78997476Y25873857D01*
X79059380Y25750047D01*
X79059380Y25440523D01*
X78997476Y25316714D01*
X78935571Y25254809D01*
X78811761Y25192904D01*
X78440333Y25192904D01*
X78316523Y25254809D01*
X78254619Y25316714D01*
X76335571Y29098000D02*
X76211761Y29159904D01*
X76026047Y29159904D01*
X75840333Y29098000D01*
X75716523Y28974190D01*
X75654619Y28850380D01*
X75592714Y28602761D01*
X75592714Y28417047D01*
X75654619Y28169428D01*
X75716523Y28045619D01*
X75840333Y27921809D01*
X76026047Y27859904D01*
X76149857Y27859904D01*
X76335571Y27921809D01*
X76397476Y27983714D01*
X76397476Y28417047D01*
X76149857Y28417047D01*
X76954619Y27859904D02*
X76954619Y29159904D01*
X77697476Y27859904D01*
X77697476Y29159904D01*
X78316523Y27859904D02*
X78316523Y29159904D01*
X78626047Y29159904D01*
X78811761Y29098000D01*
X78935571Y28974190D01*
X78997476Y28850380D01*
X79059380Y28602761D01*
X79059380Y28417047D01*
X78997476Y28169428D01*
X78935571Y28045619D01*
X78811761Y27921809D01*
X78626047Y27859904D01*
X78316523Y27859904D01*
X72349428Y35352904D02*
X72349428Y36652904D01*
X72844666Y36652904D01*
X72968476Y36591000D01*
X73030380Y36529095D01*
X73092285Y36405285D01*
X73092285Y36219571D01*
X73030380Y36095761D01*
X72968476Y36033857D01*
X72844666Y35971952D01*
X72349428Y35971952D01*
X74392285Y35476714D02*
X74330380Y35414809D01*
X74144666Y35352904D01*
X74020857Y35352904D01*
X73835142Y35414809D01*
X73711333Y35538619D01*
X73649428Y35662428D01*
X73587523Y35910047D01*
X73587523Y36095761D01*
X73649428Y36343380D01*
X73711333Y36467190D01*
X73835142Y36591000D01*
X74020857Y36652904D01*
X74144666Y36652904D01*
X74330380Y36591000D01*
X74392285Y36529095D01*
X74825619Y36652904D02*
X75692285Y36652904D01*
X75135142Y35352904D01*
X76413428Y35352904D02*
X76413428Y36652904D01*
X76908666Y36652904D01*
X77032476Y36591000D01*
X77094380Y36529095D01*
X77156285Y36405285D01*
X77156285Y36219571D01*
X77094380Y36095761D01*
X77032476Y36033857D01*
X76908666Y35971952D01*
X76413428Y35971952D01*
X78456285Y35476714D02*
X78394380Y35414809D01*
X78208666Y35352904D01*
X78084857Y35352904D01*
X77899142Y35414809D01*
X77775333Y35538619D01*
X77713428Y35662428D01*
X77651523Y35910047D01*
X77651523Y36095761D01*
X77713428Y36343380D01*
X77775333Y36467190D01*
X77899142Y36591000D01*
X78084857Y36652904D01*
X78208666Y36652904D01*
X78394380Y36591000D01*
X78456285Y36529095D01*
X78889619Y36652904D02*
X79694380Y36652904D01*
X79261047Y36157666D01*
X79446761Y36157666D01*
X79570571Y36095761D01*
X79632476Y36033857D01*
X79694380Y35910047D01*
X79694380Y35600523D01*
X79632476Y35476714D01*
X79570571Y35414809D01*
X79446761Y35352904D01*
X79075333Y35352904D01*
X78951523Y35414809D01*
X78889619Y35476714D01*
X69818571Y4615571D02*
X69890000Y4687000D01*
X70032857Y4758428D01*
X70390000Y4758428D01*
X70532857Y4687000D01*
X70604285Y4615571D01*
X70675714Y4472714D01*
X70675714Y4329857D01*
X70604285Y4115571D01*
X69747142Y3258428D01*
X70675714Y3258428D01*
X71604285Y4758428D02*
X71747142Y4758428D01*
X71890000Y4687000D01*
X71961428Y4615571D01*
X72032857Y4472714D01*
X72104285Y4187000D01*
X72104285Y3829857D01*
X72032857Y3544142D01*
X71961428Y3401285D01*
X71890000Y3329857D01*
X71747142Y3258428D01*
X71604285Y3258428D01*
X71461428Y3329857D01*
X71390000Y3401285D01*
X71318571Y3544142D01*
X71247142Y3829857D01*
X71247142Y4187000D01*
X71318571Y4472714D01*
X71390000Y4615571D01*
X71461428Y4687000D01*
X71604285Y4758428D01*
X72675714Y4615571D02*
X72747142Y4687000D01*
X72890000Y4758428D01*
X73247142Y4758428D01*
X73390000Y4687000D01*
X73461428Y4615571D01*
X73532857Y4472714D01*
X73532857Y4329857D01*
X73461428Y4115571D01*
X72604285Y3258428D01*
X73532857Y3258428D01*
X74461428Y4758428D02*
X74604285Y4758428D01*
X74747142Y4687000D01*
X74818571Y4615571D01*
X74890000Y4472714D01*
X74961428Y4187000D01*
X74961428Y3829857D01*
X74890000Y3544142D01*
X74818571Y3401285D01*
X74747142Y3329857D01*
X74604285Y3258428D01*
X74461428Y3258428D01*
X74318571Y3329857D01*
X74247142Y3401285D01*
X74175714Y3544142D01*
X74104285Y3829857D01*
X74104285Y4187000D01*
X74175714Y4472714D01*
X74247142Y4615571D01*
X74318571Y4687000D01*
X74461428Y4758428D01*
X69513000Y7298428D02*
X69513000Y6227000D01*
X69441571Y6012714D01*
X69298714Y5869857D01*
X69084428Y5798428D01*
X68941571Y5798428D01*
X70155857Y6227000D02*
X70870142Y6227000D01*
X70013000Y5798428D02*
X70513000Y7298428D01*
X71013000Y5798428D01*
X72370142Y5941285D02*
X72298714Y5869857D01*
X72084428Y5798428D01*
X71941571Y5798428D01*
X71727285Y5869857D01*
X71584428Y6012714D01*
X71513000Y6155571D01*
X71441571Y6441285D01*
X71441571Y6655571D01*
X71513000Y6941285D01*
X71584428Y7084142D01*
X71727285Y7227000D01*
X71941571Y7298428D01*
X72084428Y7298428D01*
X72298714Y7227000D01*
X72370142Y7155571D01*
X73013000Y5798428D02*
X73013000Y7298428D01*
X73013000Y6584142D02*
X73870142Y6584142D01*
X73870142Y5798428D02*
X73870142Y7298428D01*
X74870142Y7298428D02*
X75155857Y7298428D01*
X75298714Y7227000D01*
X75441571Y7084142D01*
X75513000Y6798428D01*
X75513000Y6298428D01*
X75441571Y6012714D01*
X75298714Y5869857D01*
X75155857Y5798428D01*
X74870142Y5798428D01*
X74727285Y5869857D01*
X74584428Y6012714D01*
X74513000Y6298428D01*
X74513000Y6798428D01*
X74584428Y7084142D01*
X74727285Y7227000D01*
X74870142Y7298428D01*
X26436285Y5139428D02*
X26436285Y3925142D01*
X26507714Y3782285D01*
X26579142Y3710857D01*
X26722000Y3639428D01*
X27007714Y3639428D01*
X27150571Y3710857D01*
X27222000Y3782285D01*
X27293428Y3925142D01*
X27293428Y5139428D01*
X27936285Y3710857D02*
X28150571Y3639428D01*
X28507714Y3639428D01*
X28650571Y3710857D01*
X28722000Y3782285D01*
X28793428Y3925142D01*
X28793428Y4068000D01*
X28722000Y4210857D01*
X28650571Y4282285D01*
X28507714Y4353714D01*
X28222000Y4425142D01*
X28079142Y4496571D01*
X28007714Y4568000D01*
X27936285Y4710857D01*
X27936285Y4853714D01*
X28007714Y4996571D01*
X28079142Y5068000D01*
X28222000Y5139428D01*
X28579142Y5139428D01*
X28793428Y5068000D01*
X29222000Y5139428D02*
X30079142Y5139428D01*
X29650571Y3639428D02*
X29650571Y5139428D01*
X30579142Y3782285D02*
X30650571Y3710857D01*
X30579142Y3639428D01*
X30507714Y3710857D01*
X30579142Y3782285D01*
X30579142Y3639428D01*
X32150571Y3782285D02*
X32079142Y3710857D01*
X31864857Y3639428D01*
X31722000Y3639428D01*
X31507714Y3710857D01*
X31364857Y3853714D01*
X31293428Y3996571D01*
X31222000Y4282285D01*
X31222000Y4496571D01*
X31293428Y4782285D01*
X31364857Y4925142D01*
X31507714Y5068000D01*
X31722000Y5139428D01*
X31864857Y5139428D01*
X32079142Y5068000D01*
X32150571Y4996571D01*
X32650571Y5139428D02*
X33650571Y5139428D01*
X32650571Y3639428D01*
X33650571Y3639428D01*
D11*
X12121904Y28617619D02*
X12121904Y29617619D01*
X12360000Y29617619D01*
X12502857Y29570000D01*
X12598095Y29474761D01*
X12645714Y29379523D01*
X12693333Y29189047D01*
X12693333Y29046190D01*
X12645714Y28855714D01*
X12598095Y28760476D01*
X12502857Y28665238D01*
X12360000Y28617619D01*
X12121904Y28617619D01*
X13074285Y29522380D02*
X13121904Y29570000D01*
X13217142Y29617619D01*
X13455238Y29617619D01*
X13550476Y29570000D01*
X13598095Y29522380D01*
X13645714Y29427142D01*
X13645714Y29331904D01*
X13598095Y29189047D01*
X13026666Y28617619D01*
X13645714Y28617619D01*
X16408095Y32427619D02*
X16408095Y33427619D01*
X16979523Y32427619D02*
X16550952Y32999047D01*
X16979523Y33427619D02*
X16408095Y32856190D01*
X39038380Y36423476D02*
X38038380Y36423476D01*
X38752666Y36756809D01*
X38038380Y37090142D01*
X39038380Y37090142D01*
X38038380Y38042523D02*
X38038380Y37566333D01*
X38514571Y37518714D01*
X38466952Y37566333D01*
X38419333Y37661571D01*
X38419333Y37899666D01*
X38466952Y37994904D01*
X38514571Y38042523D01*
X38609809Y38090142D01*
X38847904Y38090142D01*
X38943142Y38042523D01*
X38990761Y37994904D01*
X39038380Y37899666D01*
X39038380Y37661571D01*
X38990761Y37566333D01*
X38943142Y37518714D01*
X16462476Y42347619D02*
X16462476Y43347619D01*
X16795809Y42633333D01*
X17129142Y43347619D01*
X17129142Y42347619D01*
X17748190Y42919047D02*
X17652952Y42966666D01*
X17605333Y43014285D01*
X17557714Y43109523D01*
X17557714Y43157142D01*
X17605333Y43252380D01*
X17652952Y43300000D01*
X17748190Y43347619D01*
X17938666Y43347619D01*
X18033904Y43300000D01*
X18081523Y43252380D01*
X18129142Y43157142D01*
X18129142Y43109523D01*
X18081523Y43014285D01*
X18033904Y42966666D01*
X17938666Y42919047D01*
X17748190Y42919047D01*
X17652952Y42871428D01*
X17605333Y42823809D01*
X17557714Y42728571D01*
X17557714Y42538095D01*
X17605333Y42442857D01*
X17652952Y42395238D01*
X17748190Y42347619D01*
X17938666Y42347619D01*
X18033904Y42395238D01*
X18081523Y42442857D01*
X18129142Y42538095D01*
X18129142Y42728571D01*
X18081523Y42823809D01*
X18033904Y42871428D01*
X17938666Y42919047D01*
X52255809Y38092809D02*
X52255809Y37616619D01*
X51922476Y38616619D02*
X52255809Y38092809D01*
X52589142Y38616619D01*
X53446285Y37616619D02*
X52874857Y37616619D01*
X53160571Y37616619D02*
X53160571Y38616619D01*
X53065333Y38473761D01*
X52970095Y38378523D01*
X52874857Y38330904D01*
X88773000Y24638000D02*
X83693000Y24638000D01*
X88773000Y27178000D02*
X88773000Y24638000D01*
X83693000Y27178000D02*
X88773000Y27178000D01*
X83693000Y24638000D02*
X83693000Y27178000D01*
X83693000Y27178000D02*
X83693000Y29718000D01*
X83693000Y29718000D02*
X88773000Y29718000D01*
X88773000Y27178000D02*
X83693000Y27178000D01*
X88773000Y29718000D02*
X88773000Y27178000D01*
X83693000Y24638000D02*
X88773000Y24638000D01*
X83693000Y22098000D02*
X83693000Y24638000D01*
X88773000Y24638000D02*
X88773000Y22098000D01*
X88773000Y22098000D02*
X83693000Y22098000D01*
D12*
X19960000Y9690000D02*
X19960000Y36690000D01*
X19960000Y9690000D02*
X5760000Y9690000D01*
X5760000Y9690000D02*
X5760000Y36690000D01*
X19960000Y36690000D02*
X5760000Y36690000D01*
D11*
X83693000Y37338000D02*
X86233000Y37338000D01*
X86233000Y37338000D02*
X86233000Y34798000D01*
X83693000Y34798000D02*
X83693000Y37338000D01*
X86233000Y34798000D02*
X83693000Y34798000D01*
X88773000Y34798000D02*
X86233000Y34798000D01*
X86233000Y37338000D02*
X88773000Y37338000D01*
X88773000Y37338000D02*
X88773000Y34798000D01*
X86233000Y34798000D02*
X86233000Y37338000D01*
X83693000Y34798000D02*
X86233000Y34798000D01*
X86233000Y34798000D02*
X86233000Y32258000D01*
X83693000Y32258000D02*
X83693000Y34798000D01*
X86233000Y32258000D02*
X83693000Y32258000D01*
X88773000Y32258000D02*
X86233000Y32258000D01*
X86233000Y32258000D02*
X86233000Y34798000D01*
X88773000Y34798000D02*
X88773000Y32258000D01*
X86233000Y34798000D02*
X88773000Y34798000D01*
X88773000Y29718000D02*
X83693000Y29718000D01*
X88773000Y32258000D02*
X88773000Y29718000D01*
X83693000Y32258000D02*
X88773000Y32258000D01*
X83693000Y29718000D02*
X83693000Y32258000D01*
D13*
X22472000Y41550000D02*
X24072000Y41550000D01*
X33422000Y14200000D02*
X33422000Y12600000D01*
X1122000Y20200000D02*
X1122000Y18600000D01*
X10472000Y41550000D02*
X12072000Y41550000D01*
X16472000Y9250000D02*
X18072000Y9250000D01*
X1122000Y14200000D02*
X1122000Y12600000D01*
X33422000Y38200000D02*
X33422000Y36600000D01*
X33422000Y26200000D02*
X33422000Y24600000D01*
X1122000Y32200000D02*
X1122000Y30600000D01*
X22472000Y9250000D02*
X24072000Y9250000D01*
X28472000Y41550000D02*
X30072000Y41550000D01*
X4472000Y41550000D02*
X6072000Y41550000D01*
X16472000Y41550000D02*
X18072000Y41550000D01*
X33422000Y32200000D02*
X33422000Y30600000D01*
X28472000Y9250000D02*
X30072000Y9250000D01*
X4472000Y9250000D02*
X6072000Y9250000D01*
X1122000Y38200000D02*
X1122000Y36600000D01*
X1122000Y26200000D02*
X1122000Y24600000D01*
X33422000Y20200000D02*
X33422000Y18600000D01*
X10472000Y9250000D02*
X12072000Y9250000D01*
X49532000Y37069000D02*
X55932000Y37069000D01*
X49532000Y32019000D02*
X55932000Y32019000D01*
X55932000Y32019000D02*
G75*
G03*
X55932000Y37069000I0J2525000D01*
G01*
X49532000Y32019000D02*
G75*
G02*
X49532000Y37069000I0J2525000D01*
G01*
D14*
X84963000Y25908000D03*
X87503000Y25908000D03*
X84963000Y28448000D03*
X87503000Y28448000D03*
X84963000Y23368000D03*
X87503000Y23368000D03*
X84963000Y36068000D03*
X87503000Y36068000D03*
X84963000Y33528000D03*
X87503000Y33528000D03*
X84963000Y30988000D03*
X87503000Y30988000D03*
M02*
