G04 #@! TF.GenerationSoftware,KiCad,Pcbnew,(6.0.0-rc1-dev-205-gc0615c5ef)*
G04 #@! TF.CreationDate,2019-03-07T14:34:26+01:00*
G04 #@! TF.ProjectId,SPACEDOS01B_PCB01A,5350414345444F533031425F50434230,REV*
G04 #@! TF.SameCoordinates,Original*
G04 #@! TF.FileFunction,Copper,L2,Bot,Signal*
G04 #@! TF.FilePolarity,Positive*
%FSLAX46Y46*%
G04 Gerber Fmt 4.6, Leading zero omitted, Abs format (unit mm)*
G04 Created by KiCad (PCBNEW (6.0.0-rc1-dev-205-gc0615c5ef)) date 03/07/19 14:34:26*
%MOMM*%
%LPD*%
G01*
G04 APERTURE LIST*
G04 #@! TA.AperFunction,ComponentPad*
%ADD10C,1.524000*%
G04 #@! TD*
G04 #@! TA.AperFunction,SMDPad,CuDef*
%ADD11R,1.000000X1.000000*%
G04 #@! TD*
G04 #@! TA.AperFunction,SMDPad,CuDef*
%ADD12R,2.300000X1.000000*%
G04 #@! TD*
G04 #@! TA.AperFunction,SMDPad,CuDef*
%ADD13R,3.800000X1.000000*%
G04 #@! TD*
G04 #@! TA.AperFunction,SMDPad,CuDef*
%ADD14R,1.000000X2.300000*%
G04 #@! TD*
G04 #@! TA.AperFunction,SMDPad,CuDef*
%ADD15R,1.000000X3.800000*%
G04 #@! TD*
G04 #@! TA.AperFunction,ComponentPad*
%ADD16R,1.524000X1.524000*%
G04 #@! TD*
G04 #@! TA.AperFunction,ComponentPad*
%ADD17C,6.000000*%
G04 #@! TD*
G04 #@! TA.AperFunction,ViaPad*
%ADD18C,0.800000*%
G04 #@! TD*
G04 #@! TA.AperFunction,Conductor*
%ADD19C,0.250000*%
G04 #@! TD*
G04 #@! TA.AperFunction,Conductor*
%ADD20C,0.400000*%
G04 #@! TD*
G04 #@! TA.AperFunction,Conductor*
%ADD21C,0.300000*%
G04 #@! TD*
G04 #@! TA.AperFunction,Conductor*
%ADD22C,0.800000*%
G04 #@! TD*
G04 #@! TA.AperFunction,Conductor*
%ADD23C,0.600000*%
G04 #@! TD*
G04 #@! TA.AperFunction,Conductor*
%ADD24C,0.254000*%
G04 #@! TD*
G04 #@! TA.AperFunction,Conductor*
%ADD25C,0.100000*%
G04 #@! TD*
G04 APERTURE END LIST*
D10*
G04 #@! TO.P,D1,1*
G04 #@! TO.N,/K*
X74250000Y21590000D03*
G04 #@! TO.P,D1,2*
G04 #@! TO.N,/A*
X74250000Y16590000D03*
G04 #@! TD*
D11*
G04 #@! TO.P,M10,1*
G04 #@! TO.N,GND*
X74066000Y72796000D03*
X42266000Y72796000D03*
X42266000Y40996000D03*
X74066000Y40996000D03*
D12*
X72416000Y72796000D03*
X72416000Y40996000D03*
D13*
X67166000Y72796000D03*
X67166000Y40996000D03*
X61166000Y72796000D03*
X61166000Y40996000D03*
X55166000Y72796000D03*
X55166000Y40996000D03*
X49166000Y72796000D03*
X49166000Y40996000D03*
D12*
X43916000Y72796000D03*
X43916000Y40996000D03*
D14*
X74066000Y71146000D03*
X42266000Y71146000D03*
D15*
X74066000Y65896000D03*
X42266000Y65896000D03*
X74066000Y59896000D03*
X42266000Y59896000D03*
X74066000Y53896000D03*
X42266000Y53896000D03*
X74066000Y47896000D03*
X42266000Y47896000D03*
D14*
X74066000Y42646000D03*
X42266000Y42646000D03*
G04 #@! TD*
D16*
G04 #@! TO.P,J2,2*
G04 #@! TO.N,GND*
X79502000Y66548000D03*
G04 #@! TO.P,J2,1*
X76962000Y66548000D03*
G04 #@! TD*
G04 #@! TO.P,J3,2*
G04 #@! TO.N,/power/3*
X79502000Y71628000D03*
G04 #@! TO.P,J3,1*
X76962000Y71628000D03*
G04 #@! TD*
G04 #@! TO.P,J7,1*
G04 #@! TO.N,/cpu/TX0*
X79502000Y61468000D03*
G04 #@! TD*
G04 #@! TO.P,J4,1*
G04 #@! TO.N,/cpu/PD3*
X76962000Y58928000D03*
G04 #@! TD*
G04 #@! TO.P,J6,1*
G04 #@! TO.N,/cpu/RX0*
X76962000Y61468000D03*
G04 #@! TD*
G04 #@! TO.P,J5,1*
G04 #@! TO.N,/cpu/PD2*
X79502000Y58928000D03*
G04 #@! TD*
G04 #@! TO.P,J19,2*
G04 #@! TO.N,/cpu/RST#*
X76962000Y64008000D03*
G04 #@! TO.P,J19,1*
X79502000Y64008000D03*
G04 #@! TD*
D17*
G04 #@! TO.P,M2,1*
G04 #@! TO.N,GND*
X44450000Y77890000D03*
G04 #@! TD*
G04 #@! TO.P,M3,1*
G04 #@! TO.N,GND*
X85090000Y5080000D03*
G04 #@! TD*
G04 #@! TO.P,M4,1*
G04 #@! TO.N,GND*
X44450000Y23000000D03*
G04 #@! TD*
G04 #@! TO.P,M1,1*
G04 #@! TO.N,GND*
X82550000Y90810000D03*
G04 #@! TD*
D11*
G04 #@! TO.P,M8,1*
G04 #@! TO.N,GND*
X80174700Y7633100D03*
X80174700Y39433100D03*
X48374700Y39433100D03*
X48374700Y7633100D03*
D14*
X80174700Y9283100D03*
X48374700Y9283100D03*
D15*
X80174700Y14533100D03*
X48374700Y14533100D03*
X80174700Y20533100D03*
X48374700Y20533100D03*
X80174700Y26533100D03*
X48374700Y26533100D03*
X80174700Y32533100D03*
X48374700Y32533100D03*
D14*
X80174700Y37783100D03*
X48374700Y37783100D03*
D12*
X78524700Y7633100D03*
X78524700Y39433100D03*
D13*
X73274700Y7633100D03*
X73274700Y39433100D03*
X67274700Y7633100D03*
X67274700Y39433100D03*
X61274700Y7633100D03*
X61274700Y39433100D03*
X55274700Y7633100D03*
X55274700Y39433100D03*
D12*
X50024700Y7633100D03*
X50024700Y39433100D03*
G04 #@! TD*
D16*
G04 #@! TO.P,J1,2*
G04 #@! TO.N,N/C*
X76962000Y69088000D03*
G04 #@! TO.P,J1,1*
X79502000Y69088000D03*
G04 #@! TD*
D18*
G04 #@! TO.N,GND*
X76750000Y79500000D03*
X55626000Y72390000D03*
X54356000Y72390000D03*
X54749700Y43726100D03*
X62744700Y19121100D03*
X61226700Y20993100D03*
X60839700Y18486100D03*
X60839700Y16929100D03*
X64649700Y16581100D03*
X66554700Y16581100D03*
X67824700Y16581100D03*
X69075265Y16580557D03*
X73418700Y10325100D03*
X70364700Y18486100D03*
X69094700Y36901100D03*
X69094700Y38171100D03*
X67576514Y39689286D03*
X69094700Y45156100D03*
X66554700Y39479100D03*
X68294700Y40711100D03*
X60839700Y43886100D03*
X60839700Y45156100D03*
X68459700Y45791100D03*
X64776700Y45029100D03*
X67697700Y37028100D03*
X64522700Y11247100D03*
X65792700Y11247100D03*
X60966700Y15565100D03*
X63506700Y39695100D03*
X52590700Y39281100D03*
X52324000Y37592000D03*
X51066700Y40551100D03*
X51066700Y42075100D03*
X51066700Y43599100D03*
X51066700Y45377100D03*
X51066700Y46901100D03*
X52324000Y36068000D03*
X52578000Y34544000D03*
X52844700Y32931100D03*
X54114700Y34201100D03*
X55384700Y34201100D03*
X56654700Y33566100D03*
X57289700Y32296100D03*
X57289700Y31026100D03*
X57289700Y29756100D03*
X57289700Y28486100D03*
X56654700Y27216100D03*
X55384700Y25946100D03*
X54749700Y24676100D03*
X54749700Y23406100D03*
X54749700Y21501100D03*
X56019700Y20231100D03*
X56019700Y18961100D03*
X57924700Y24041100D03*
X59194700Y24041100D03*
X60250000Y24041100D03*
X60250000Y25311100D03*
X59194700Y25311100D03*
X60250000Y26500000D03*
X60464700Y27851100D03*
X60464700Y29121100D03*
X60464700Y30391100D03*
X60464700Y31661100D03*
X60464700Y32931100D03*
X61734700Y27851100D03*
X63766700Y27851100D03*
X63766700Y29121100D03*
X61734700Y29121100D03*
X61099700Y37376100D03*
X60718700Y36233100D03*
X60464700Y38646100D03*
X61099700Y40551100D03*
X56146700Y40297100D03*
X57289700Y40551100D03*
X58559700Y39916100D03*
X56146700Y38773100D03*
X56019700Y17056100D03*
X56019700Y15151100D03*
X56654700Y13881100D03*
X56654700Y11976100D03*
X57289700Y10706100D03*
X58559700Y9436100D03*
X59829700Y8801100D03*
X61099700Y8801100D03*
X63004700Y8801100D03*
X64909700Y8801100D03*
X66814700Y8801100D03*
X68719700Y8801100D03*
X70624700Y8801100D03*
X71894700Y8801100D03*
X71500000Y11976100D03*
X70500000Y14250000D03*
X71750000Y14000000D03*
X73250000Y14000000D03*
X74500000Y14750000D03*
X71882000Y17018000D03*
X74750000Y18000000D03*
X73000000Y18000000D03*
X70624700Y17056100D03*
X71750000Y18000000D03*
X74434700Y11341100D03*
X72500000Y22250000D03*
X75438000Y20574000D03*
X76000000Y21750000D03*
X76339700Y22771100D03*
X77609700Y22771100D03*
X73500000Y33500000D03*
X69354700Y27216100D03*
X69354700Y28486100D03*
X68846700Y29629100D03*
X70878700Y31026100D03*
X69862700Y32296100D03*
X69354700Y33566100D03*
X70624700Y33566100D03*
X71894700Y34201100D03*
X73164700Y34836100D03*
X72529700Y32296100D03*
X74434700Y32296100D03*
X75069700Y33566100D03*
X75069700Y34836100D03*
X74434700Y36106100D03*
X74434700Y37376100D03*
X74434700Y38646100D03*
X74434700Y39916100D03*
X74434700Y41186100D03*
X75069700Y42456100D03*
X76339700Y42456100D03*
X76974700Y43726100D03*
X76339700Y46266100D03*
X72910700Y47155100D03*
X71386700Y47155100D03*
X70370700Y47155100D03*
X69354700Y47917100D03*
X69354700Y49187100D03*
X68338700Y49949100D03*
X60718700Y64681100D03*
X64655700Y60998100D03*
X75450700Y12357100D03*
X76466700Y13373100D03*
X77482700Y14897100D03*
X77482700Y16421100D03*
X77482700Y17945100D03*
X77482700Y19469100D03*
X76466700Y20485100D03*
X76440661Y45010523D03*
X74123007Y47097407D03*
X62242700Y66713100D03*
X60642699Y62636209D03*
X57848500Y77742838D03*
X53086000Y72390000D03*
X52832000Y81534000D03*
X54102000Y81534000D03*
X59690000Y81788000D03*
X59690000Y80518000D03*
X62750000Y81750000D03*
X74500000Y75500000D03*
X74500000Y74250000D03*
X64500000Y72750000D03*
X69250000Y68750000D03*
X68000000Y67250000D03*
X69750000Y66750000D03*
X68326000Y36322000D03*
G04 #@! TO.N,Net-(R1-Pad2)*
X65532000Y42672000D03*
X72955432Y45054203D03*
G04 #@! TO.N,/cpu/RST#*
X70789700Y58420000D03*
X72898000Y63500000D03*
G04 #@! TO.N,/cpu/PC0*
X70104000Y70866000D03*
X56896000Y71374000D03*
G04 #@! TO.N,/cpu/PC1*
X70358000Y72390000D03*
X58166002Y72136000D03*
G04 #@! TO.N,/cpu/PB6*
X60591700Y58204100D03*
X62242700Y62141100D03*
G04 #@! TO.N,+3V3*
X58934700Y35123100D03*
X71380700Y35123100D03*
X51308000Y70104000D03*
X51308000Y71374000D03*
X52832000Y42672000D03*
X53848000Y42672000D03*
G04 #@! TO.N,PA1*
X64401700Y37757100D03*
X65278000Y69850000D03*
G04 #@! TO.N,PA0*
X70624700Y49441100D03*
X65536586Y68330586D03*
G04 #@! TO.N,PB0*
X61734700Y48966100D03*
X62750700Y68237100D03*
G04 #@! TO.N,/cpu/PD3*
X71876033Y61145647D03*
X72295092Y64738825D03*
G04 #@! TO.N,/cpu/PD2*
X70933305Y60265305D03*
X71397989Y63783339D03*
G04 #@! TD*
D19*
G04 #@! TO.N,GND*
X60839700Y18486100D02*
X60839700Y20391100D01*
X67824700Y16581100D02*
X66554700Y16581100D01*
X69075265Y18466665D02*
X69075265Y16580557D01*
X70364700Y19756100D02*
X69075265Y18466665D01*
D20*
X69094700Y38171100D02*
X69094700Y36901100D01*
X68294700Y40407472D02*
X67576514Y39689286D01*
X68294700Y40711100D02*
X68294700Y40407472D01*
X67786700Y40711100D02*
X66554700Y39479100D01*
X68294700Y40711100D02*
X67786700Y40711100D01*
X60839700Y45156100D02*
X60839700Y43886100D01*
X68459700Y45791100D02*
X65538700Y45791100D01*
X65538700Y45791100D02*
X64776700Y45029100D01*
D19*
X64522700Y11247100D02*
X65792700Y11247100D01*
X63506700Y39695100D02*
X62236700Y39695100D01*
X62236700Y39695100D02*
X61982700Y39949100D01*
X67697700Y37028100D02*
X68326000Y36399800D01*
X68326000Y36399800D02*
X68326000Y36322000D01*
D20*
G04 #@! TO.N,Net-(R1-Pad2)*
X72555433Y44654204D02*
X72955432Y45054203D01*
X70573229Y42672000D02*
X72555433Y44654204D01*
X65532000Y42672000D02*
X70573229Y42672000D01*
D21*
G04 #@! TO.N,/cpu/RST#*
X72898000Y62934315D02*
X72898000Y63500000D01*
X70789700Y58420000D02*
X72898000Y60528300D01*
X72898000Y60528300D02*
X72898000Y62934315D01*
G04 #@! TO.N,/cpu/PC0*
X70104000Y70866000D02*
X57404000Y70866000D01*
X57404000Y70866000D02*
X56896000Y71374000D01*
G04 #@! TO.N,/cpu/PC1*
X69334010Y71366010D02*
X70358000Y72390000D01*
X58935992Y71366010D02*
X69334010Y71366010D01*
X58166002Y72136000D02*
X58935992Y71366010D01*
D20*
G04 #@! TO.N,/cpu/PB6*
X61842701Y61741101D02*
X62242700Y62141100D01*
X60591700Y60490100D02*
X61842701Y61741101D01*
X60591700Y58204100D02*
X60591700Y60490100D01*
D22*
G04 #@! TO.N,+3V3*
X71380700Y35123100D02*
X58934700Y35123100D01*
X51308000Y70104000D02*
X51308000Y71374000D01*
X51308000Y68326000D02*
X52832000Y66802000D01*
X51308000Y70104000D02*
X51308000Y68326000D01*
X52832000Y66802000D02*
X52832000Y42672000D01*
D23*
X52832000Y42672000D02*
X53848000Y42672000D01*
D20*
G04 #@! TO.N,PA1*
X64401700Y37757100D02*
X64401700Y39984102D01*
X63855699Y68427699D02*
X64878001Y69450001D01*
X64878001Y69450001D02*
X65278000Y69850000D01*
X63855699Y40530103D02*
X63855699Y68427699D01*
X64401700Y39984102D02*
X63855699Y40530103D01*
G04 #@! TO.N,PA0*
X70624700Y49441100D02*
X69811998Y50253802D01*
X69811998Y64055174D02*
X69811998Y60413998D01*
X65536586Y68330586D02*
X69811998Y64055174D01*
X69811998Y50253802D02*
X69811998Y60413998D01*
G04 #@! TO.N,PB0*
X63166690Y50398090D02*
X61734700Y48966100D01*
X63166690Y67821110D02*
X63166690Y50398090D01*
X62750700Y68237100D02*
X63166690Y67821110D01*
D21*
G04 #@! TO.N,/cpu/PD3*
X71876033Y61145647D02*
X71876033Y61711332D01*
X72147999Y61983298D02*
X72147999Y64591732D01*
X71876033Y61711332D02*
X72147999Y61983298D01*
X72147999Y64591732D02*
X72295092Y64738825D01*
G04 #@! TO.N,/cpu/PD2*
X70933305Y63318655D02*
X70997990Y63383340D01*
X70933305Y60265305D02*
X70933305Y63318655D01*
X70997990Y63383340D02*
X71397989Y63783339D01*
G04 #@! TD*
D24*
G04 #@! TO.N,GND*
G36*
X83690497Y94467109D02*
X83969927Y94382744D01*
X84227647Y94245711D01*
X84453847Y94061227D01*
X84639901Y93836327D01*
X84778731Y93579565D01*
X84865045Y93300730D01*
X84898000Y92987188D01*
X84898001Y69975347D01*
X84900168Y69953344D01*
X84900103Y69944031D01*
X84900787Y69937056D01*
X84931387Y69645910D01*
X84940529Y69601378D01*
X84949061Y69556648D01*
X84951087Y69549938D01*
X85037655Y69270282D01*
X85055284Y69228344D01*
X85072331Y69186152D01*
X85075622Y69179963D01*
X85214861Y68922447D01*
X85240292Y68884745D01*
X85265216Y68846656D01*
X85269646Y68841224D01*
X85456251Y68615657D01*
X85488522Y68583611D01*
X85520369Y68551090D01*
X85525770Y68546622D01*
X85752634Y68361596D01*
X85790490Y68336445D01*
X85828072Y68310712D01*
X85834238Y68307378D01*
X86092719Y68169941D01*
X86134798Y68152598D01*
X86176604Y68134680D01*
X86183300Y68132607D01*
X86463554Y68047993D01*
X86508180Y68039157D01*
X86552691Y68029696D01*
X86559662Y68028963D01*
X86851014Y68000396D01*
X86851019Y68000396D01*
X86875347Y67998000D01*
X87475451Y67998000D01*
X87693380Y67976632D01*
X87879387Y67920473D01*
X88050953Y67829249D01*
X88201527Y67706444D01*
X88325385Y67556725D01*
X88417800Y67385808D01*
X88475258Y67200191D01*
X88498001Y66983803D01*
X88498000Y3524551D01*
X88467109Y3209506D01*
X88382745Y2930077D01*
X88245712Y2672354D01*
X88061228Y2446155D01*
X87836327Y2260099D01*
X87579566Y2121269D01*
X87300730Y2034955D01*
X86987187Y2002000D01*
X80024551Y2002000D01*
X79709506Y2032891D01*
X79430077Y2117255D01*
X79172354Y2254288D01*
X78946155Y2438772D01*
X78760099Y2663673D01*
X78621269Y2920434D01*
X78534955Y3199270D01*
X78501957Y3513224D01*
X78501948Y3515725D01*
X78499732Y3537537D01*
X78499885Y3559461D01*
X78499201Y3566437D01*
X78458400Y3954630D01*
X78449257Y3999168D01*
X78440726Y4043892D01*
X78438700Y4050602D01*
X78323276Y4423476D01*
X78305648Y4465410D01*
X78288600Y4507605D01*
X78285310Y4513794D01*
X78099659Y4857149D01*
X78074221Y4894862D01*
X78049302Y4932942D01*
X78044872Y4938374D01*
X77796065Y5239128D01*
X77763795Y5271174D01*
X77731947Y5303695D01*
X77726547Y5308163D01*
X77424062Y5554864D01*
X77386188Y5580027D01*
X77348623Y5605748D01*
X77342458Y5609082D01*
X76997816Y5792331D01*
X76955776Y5809659D01*
X76913930Y5827594D01*
X76907234Y5829667D01*
X76533563Y5942484D01*
X76488919Y5951324D01*
X76444427Y5960781D01*
X76437456Y5961514D01*
X76048987Y5999604D01*
X76048981Y5999604D01*
X76024653Y6002000D01*
X42864551Y6002000D01*
X42549506Y6032891D01*
X42270077Y6117255D01*
X42012354Y6254288D01*
X41786155Y6438772D01*
X41600099Y6663673D01*
X41461269Y6920434D01*
X41374955Y7199270D01*
X41342000Y7512813D01*
X41342000Y16707106D01*
X73061000Y16707106D01*
X73061000Y16472894D01*
X73106693Y16243182D01*
X73196322Y16026797D01*
X73326443Y15832057D01*
X73492057Y15666443D01*
X73686797Y15536322D01*
X73903182Y15446693D01*
X74132894Y15401000D01*
X74367106Y15401000D01*
X74596818Y15446693D01*
X74813203Y15536322D01*
X75007943Y15666443D01*
X75173557Y15832057D01*
X75303678Y16026797D01*
X75393307Y16243182D01*
X75439000Y16472894D01*
X75439000Y16707106D01*
X75393307Y16936818D01*
X75303678Y17153203D01*
X75173557Y17347943D01*
X75007943Y17513557D01*
X74813203Y17643678D01*
X74596818Y17733307D01*
X74367106Y17779000D01*
X74132894Y17779000D01*
X73903182Y17733307D01*
X73686797Y17643678D01*
X73492057Y17513557D01*
X73326443Y17347943D01*
X73196322Y17153203D01*
X73106693Y16936818D01*
X73061000Y16707106D01*
X41342000Y16707106D01*
X41342000Y21707106D01*
X73061000Y21707106D01*
X73061000Y21472894D01*
X73106693Y21243182D01*
X73196322Y21026797D01*
X73326443Y20832057D01*
X73492057Y20666443D01*
X73686797Y20536322D01*
X73903182Y20446693D01*
X74132894Y20401000D01*
X74367106Y20401000D01*
X74596818Y20446693D01*
X74813203Y20536322D01*
X75007943Y20666443D01*
X75173557Y20832057D01*
X75303678Y21026797D01*
X75393307Y21243182D01*
X75439000Y21472894D01*
X75439000Y21707106D01*
X75393307Y21936818D01*
X75303678Y22153203D01*
X75173557Y22347943D01*
X75007943Y22513557D01*
X74813203Y22643678D01*
X74596818Y22733307D01*
X74367106Y22779000D01*
X74132894Y22779000D01*
X73903182Y22733307D01*
X73686797Y22643678D01*
X73492057Y22513557D01*
X73326443Y22347943D01*
X73196322Y22153203D01*
X73106693Y21936818D01*
X73061000Y21707106D01*
X41342000Y21707106D01*
X41342000Y35123100D01*
X58103699Y35123100D01*
X58107700Y35082476D01*
X58107700Y35041648D01*
X58115665Y35001608D01*
X58119666Y34960980D01*
X58131518Y34921909D01*
X58139482Y34881873D01*
X58155103Y34844161D01*
X58166955Y34805090D01*
X58186202Y34769082D01*
X58201823Y34731369D01*
X58224502Y34697427D01*
X58243748Y34661421D01*
X58269648Y34629862D01*
X58292328Y34595919D01*
X58321195Y34567052D01*
X58347094Y34535494D01*
X58378652Y34509595D01*
X58407519Y34480728D01*
X58441462Y34458048D01*
X58473021Y34432148D01*
X58509027Y34412902D01*
X58542969Y34390223D01*
X58580682Y34374602D01*
X58616690Y34355355D01*
X58655761Y34343503D01*
X58693473Y34327882D01*
X58733509Y34319918D01*
X58772580Y34308066D01*
X58813209Y34304065D01*
X58853248Y34296100D01*
X71462152Y34296100D01*
X71502191Y34304065D01*
X71542820Y34308066D01*
X71581891Y34319918D01*
X71621927Y34327882D01*
X71659639Y34343503D01*
X71698710Y34355355D01*
X71734718Y34374602D01*
X71772431Y34390223D01*
X71806373Y34412902D01*
X71842379Y34432148D01*
X71873938Y34458048D01*
X71907881Y34480728D01*
X71936748Y34509595D01*
X71968306Y34535494D01*
X71994205Y34567052D01*
X72023072Y34595919D01*
X72045752Y34629862D01*
X72071652Y34661421D01*
X72090898Y34697427D01*
X72113577Y34731369D01*
X72129198Y34769082D01*
X72148445Y34805090D01*
X72160297Y34844161D01*
X72175918Y34881873D01*
X72183882Y34921909D01*
X72195734Y34960980D01*
X72199735Y35001608D01*
X72207700Y35041648D01*
X72207700Y35082476D01*
X72211701Y35123100D01*
X72207700Y35163724D01*
X72207700Y35204552D01*
X72199735Y35244592D01*
X72195734Y35285220D01*
X72183882Y35324291D01*
X72175918Y35364327D01*
X72160297Y35402039D01*
X72148445Y35441110D01*
X72129198Y35477118D01*
X72113577Y35514831D01*
X72090898Y35548773D01*
X72071652Y35584779D01*
X72045752Y35616338D01*
X72023072Y35650281D01*
X71994205Y35679148D01*
X71968306Y35710706D01*
X71936748Y35736605D01*
X71907881Y35765472D01*
X71873938Y35788152D01*
X71842379Y35814052D01*
X71806373Y35833298D01*
X71772431Y35855977D01*
X71734718Y35871598D01*
X71698710Y35890845D01*
X71659639Y35902697D01*
X71621927Y35918318D01*
X71581891Y35926282D01*
X71542820Y35938134D01*
X71502191Y35942135D01*
X71462152Y35950100D01*
X58853248Y35950100D01*
X58813209Y35942135D01*
X58772580Y35938134D01*
X58733509Y35926282D01*
X58693473Y35918318D01*
X58655761Y35902697D01*
X58616690Y35890845D01*
X58580682Y35871598D01*
X58542969Y35855977D01*
X58509027Y35833298D01*
X58473021Y35814052D01*
X58441462Y35788152D01*
X58407519Y35765472D01*
X58378652Y35736605D01*
X58347094Y35710706D01*
X58321195Y35679148D01*
X58292328Y35650281D01*
X58269648Y35616338D01*
X58243748Y35584779D01*
X58224502Y35548773D01*
X58201823Y35514831D01*
X58186202Y35477118D01*
X58166955Y35441110D01*
X58155103Y35402039D01*
X58139482Y35364327D01*
X58131518Y35324291D01*
X58119666Y35285220D01*
X58115665Y35244592D01*
X58107700Y35204552D01*
X58107700Y35163724D01*
X58103699Y35123100D01*
X41342000Y35123100D01*
X41342000Y68326000D01*
X50477000Y68326000D01*
X50492967Y68163880D01*
X50540256Y68007990D01*
X50617048Y67864321D01*
X50694498Y67769949D01*
X50720395Y67738394D01*
X50751947Y67712499D01*
X52005000Y66459445D01*
X52005001Y42753457D01*
X52005000Y42753452D01*
X52005000Y42590548D01*
X52012967Y42550499D01*
X52016967Y42509880D01*
X52028816Y42470818D01*
X52036782Y42430773D01*
X52052407Y42393052D01*
X52064256Y42353990D01*
X52083498Y42317991D01*
X52099123Y42280269D01*
X52121807Y42246320D01*
X52141049Y42210321D01*
X52166944Y42178768D01*
X52189628Y42144819D01*
X52218500Y42115947D01*
X52244395Y42084394D01*
X52275948Y42058499D01*
X52304819Y42029628D01*
X52338767Y42006945D01*
X52370322Y41981048D01*
X52406323Y41961805D01*
X52440269Y41939123D01*
X52477987Y41923500D01*
X52513991Y41904255D01*
X52553058Y41892404D01*
X52590773Y41876782D01*
X52630812Y41868818D01*
X52669881Y41856966D01*
X52710508Y41852965D01*
X52750548Y41845000D01*
X52791376Y41845000D01*
X52832000Y41840999D01*
X52872624Y41845000D01*
X52913452Y41845000D01*
X52953492Y41852965D01*
X52994120Y41856966D01*
X53033191Y41868818D01*
X53073227Y41876782D01*
X53110939Y41892403D01*
X53150010Y41904255D01*
X53186018Y41923502D01*
X53223731Y41939123D01*
X53232527Y41945000D01*
X53447473Y41945000D01*
X53456269Y41939123D01*
X53606773Y41876782D01*
X53766548Y41845000D01*
X53929452Y41845000D01*
X54089227Y41876782D01*
X54239731Y41939123D01*
X54375181Y42029628D01*
X54490372Y42144819D01*
X54580877Y42280269D01*
X54643218Y42430773D01*
X54675000Y42590548D01*
X54675000Y42753452D01*
X54643218Y42913227D01*
X54580877Y43063731D01*
X54490372Y43199181D01*
X54375181Y43314372D01*
X54239731Y43404877D01*
X54089227Y43467218D01*
X53929452Y43499000D01*
X53766548Y43499000D01*
X53659000Y43477607D01*
X53659000Y66761390D01*
X53663000Y66802001D01*
X53659000Y66842612D01*
X53659000Y66842624D01*
X53647034Y66964120D01*
X53599745Y67120010D01*
X53522952Y67263679D01*
X53522951Y67263681D01*
X53445502Y67358053D01*
X53445496Y67358059D01*
X53419606Y67389606D01*
X53388059Y67415495D01*
X52135000Y68668553D01*
X52135000Y71455452D01*
X56069000Y71455452D01*
X56069000Y71292548D01*
X56100782Y71132773D01*
X56163123Y70982269D01*
X56253628Y70846819D01*
X56368819Y70731628D01*
X56504269Y70641123D01*
X56654773Y70578782D01*
X56814548Y70547000D01*
X56906999Y70547000D01*
X56975961Y70478038D01*
X56994026Y70456026D01*
X57081885Y70383921D01*
X57182124Y70330343D01*
X57290888Y70297350D01*
X57375664Y70289000D01*
X57375670Y70289000D01*
X57403999Y70286210D01*
X57432328Y70289000D01*
X64576707Y70289000D01*
X64545123Y70241731D01*
X64482782Y70091227D01*
X64451000Y69931452D01*
X64451000Y69909712D01*
X63434121Y68892832D01*
X63410199Y68873200D01*
X63353383Y68803970D01*
X63277881Y68879472D01*
X63142431Y68969977D01*
X62991927Y69032318D01*
X62832152Y69064100D01*
X62669248Y69064100D01*
X62509473Y69032318D01*
X62358969Y68969977D01*
X62223519Y68879472D01*
X62108328Y68764281D01*
X62017823Y68628831D01*
X61955482Y68478327D01*
X61923700Y68318552D01*
X61923700Y68155648D01*
X61955482Y67995873D01*
X62017823Y67845369D01*
X62108328Y67709919D01*
X62223519Y67594728D01*
X62358969Y67504223D01*
X62509473Y67441882D01*
X62539690Y67435871D01*
X62539690Y62913220D01*
X62483927Y62936318D01*
X62324152Y62968100D01*
X62161248Y62968100D01*
X62001473Y62936318D01*
X61850969Y62873977D01*
X61715519Y62783472D01*
X61600328Y62668281D01*
X61509823Y62532831D01*
X61447482Y62382327D01*
X61415700Y62222552D01*
X61415700Y62200812D01*
X60170122Y60955233D01*
X60146200Y60935601D01*
X60067848Y60840128D01*
X60019767Y60750176D01*
X60009626Y60731203D01*
X59973773Y60613012D01*
X59961667Y60490100D01*
X59964701Y60459296D01*
X59964700Y58746653D01*
X59949328Y58731281D01*
X59858823Y58595831D01*
X59796482Y58445327D01*
X59764700Y58285552D01*
X59764700Y58122648D01*
X59796482Y57962873D01*
X59858823Y57812369D01*
X59949328Y57676919D01*
X60064519Y57561728D01*
X60199969Y57471223D01*
X60350473Y57408882D01*
X60510248Y57377100D01*
X60673152Y57377100D01*
X60832927Y57408882D01*
X60983431Y57471223D01*
X61118881Y57561728D01*
X61234072Y57676919D01*
X61324577Y57812369D01*
X61386918Y57962873D01*
X61418700Y58122648D01*
X61418700Y58285552D01*
X61386918Y58445327D01*
X61324577Y58595831D01*
X61234072Y58731281D01*
X61218700Y58746653D01*
X61218700Y60230389D01*
X62302412Y61314100D01*
X62324152Y61314100D01*
X62483927Y61345882D01*
X62539690Y61368980D01*
X62539691Y50657803D01*
X61674989Y49793100D01*
X61653248Y49793100D01*
X61493473Y49761318D01*
X61342969Y49698977D01*
X61207519Y49608472D01*
X61092328Y49493281D01*
X61001823Y49357831D01*
X60939482Y49207327D01*
X60907700Y49047552D01*
X60907700Y48884648D01*
X60939482Y48724873D01*
X61001823Y48574369D01*
X61092328Y48438919D01*
X61207519Y48323728D01*
X61342969Y48233223D01*
X61493473Y48170882D01*
X61653248Y48139100D01*
X61816152Y48139100D01*
X61975927Y48170882D01*
X62126431Y48233223D01*
X62261881Y48323728D01*
X62377072Y48438919D01*
X62467577Y48574369D01*
X62529918Y48724873D01*
X62561700Y48884648D01*
X62561700Y48906389D01*
X63228699Y49573388D01*
X63228699Y40560897D01*
X63225666Y40530103D01*
X63228699Y40499310D01*
X63237772Y40407191D01*
X63273624Y40289001D01*
X63331846Y40180076D01*
X63410198Y40084602D01*
X63434126Y40064965D01*
X63774701Y39724389D01*
X63774700Y38299653D01*
X63759328Y38284281D01*
X63668823Y38148831D01*
X63606482Y37998327D01*
X63574700Y37838552D01*
X63574700Y37675648D01*
X63606482Y37515873D01*
X63668823Y37365369D01*
X63759328Y37229919D01*
X63874519Y37114728D01*
X64009969Y37024223D01*
X64160473Y36961882D01*
X64320248Y36930100D01*
X64483152Y36930100D01*
X64642927Y36961882D01*
X64793431Y37024223D01*
X64928881Y37114728D01*
X65044072Y37229919D01*
X65134577Y37365369D01*
X65196918Y37515873D01*
X65228700Y37675648D01*
X65228700Y37838552D01*
X65196918Y37998327D01*
X65134577Y38148831D01*
X65044072Y38284281D01*
X65028700Y38299653D01*
X65028700Y39953309D01*
X65031733Y39984103D01*
X65019627Y40107015D01*
X65019170Y40108522D01*
X64983775Y40225205D01*
X64925553Y40334130D01*
X64847201Y40429603D01*
X64823278Y40449236D01*
X64482699Y40789814D01*
X64482699Y42753452D01*
X64705000Y42753452D01*
X64705000Y42590548D01*
X64736782Y42430773D01*
X64799123Y42280269D01*
X64889628Y42144819D01*
X65004819Y42029628D01*
X65140269Y41939123D01*
X65290773Y41876782D01*
X65450548Y41845000D01*
X65613452Y41845000D01*
X65773227Y41876782D01*
X65923731Y41939123D01*
X66059181Y42029628D01*
X66074553Y42045000D01*
X70542435Y42045000D01*
X70573229Y42041967D01*
X70604023Y42045000D01*
X70696142Y42054073D01*
X70814332Y42089925D01*
X70923257Y42148147D01*
X71018730Y42226499D01*
X71038367Y42250427D01*
X73015144Y44227203D01*
X73036884Y44227203D01*
X73196659Y44258985D01*
X73347163Y44321326D01*
X73482613Y44411831D01*
X73597804Y44527022D01*
X73688309Y44662472D01*
X73750650Y44812976D01*
X73782432Y44972751D01*
X73782432Y45135655D01*
X73750650Y45295430D01*
X73688309Y45445934D01*
X73597804Y45581384D01*
X73482613Y45696575D01*
X73347163Y45787080D01*
X73196659Y45849421D01*
X73036884Y45881203D01*
X72873980Y45881203D01*
X72714205Y45849421D01*
X72563701Y45787080D01*
X72428251Y45696575D01*
X72313060Y45581384D01*
X72222555Y45445934D01*
X72160214Y45295430D01*
X72128432Y45135655D01*
X72128432Y45113915D01*
X70313518Y43299000D01*
X66074553Y43299000D01*
X66059181Y43314372D01*
X65923731Y43404877D01*
X65773227Y43467218D01*
X65613452Y43499000D01*
X65450548Y43499000D01*
X65290773Y43467218D01*
X65140269Y43404877D01*
X65004819Y43314372D01*
X64889628Y43199181D01*
X64799123Y43063731D01*
X64736782Y42913227D01*
X64705000Y42753452D01*
X64482699Y42753452D01*
X64482699Y68167988D01*
X64709586Y68394875D01*
X64709586Y68249134D01*
X64741368Y68089359D01*
X64803709Y67938855D01*
X64894214Y67803405D01*
X65009405Y67688214D01*
X65144855Y67597709D01*
X65295359Y67535368D01*
X65455134Y67503586D01*
X65476875Y67503586D01*
X69184998Y63795462D01*
X69184999Y60444792D01*
X69184998Y50284596D01*
X69181965Y50253802D01*
X69184998Y50223009D01*
X69194071Y50130890D01*
X69229923Y50012700D01*
X69288145Y49903775D01*
X69366497Y49808301D01*
X69390425Y49788664D01*
X69797700Y49381388D01*
X69797700Y49359648D01*
X69829482Y49199873D01*
X69891823Y49049369D01*
X69982328Y48913919D01*
X70097519Y48798728D01*
X70232969Y48708223D01*
X70383473Y48645882D01*
X70543248Y48614100D01*
X70706152Y48614100D01*
X70865927Y48645882D01*
X71016431Y48708223D01*
X71151881Y48798728D01*
X71267072Y48913919D01*
X71357577Y49049369D01*
X71419918Y49199873D01*
X71451700Y49359648D01*
X71451700Y49522552D01*
X71419918Y49682327D01*
X71357577Y49832831D01*
X71267072Y49968281D01*
X71151881Y50083472D01*
X71016431Y50173977D01*
X70865927Y50236318D01*
X70706152Y50268100D01*
X70684412Y50268100D01*
X70438998Y50513513D01*
X70438998Y57670128D01*
X70548473Y57624782D01*
X70708248Y57593000D01*
X70871152Y57593000D01*
X71030927Y57624782D01*
X71181431Y57687123D01*
X71316881Y57777628D01*
X71432072Y57892819D01*
X71522577Y58028269D01*
X71584918Y58178773D01*
X71616700Y58338548D01*
X71616700Y58430999D01*
X72875701Y59690000D01*
X75770934Y59690000D01*
X75770934Y58166000D01*
X75779178Y58082293D01*
X75803595Y58001804D01*
X75843245Y57927624D01*
X75896605Y57862605D01*
X75961624Y57809245D01*
X76035804Y57769595D01*
X76116293Y57745178D01*
X76200000Y57736934D01*
X77724000Y57736934D01*
X77807707Y57745178D01*
X77888196Y57769595D01*
X77962376Y57809245D01*
X78027395Y57862605D01*
X78080755Y57927624D01*
X78120405Y58001804D01*
X78144822Y58082293D01*
X78153066Y58166000D01*
X78153066Y59690000D01*
X78310934Y59690000D01*
X78310934Y58166000D01*
X78319178Y58082293D01*
X78343595Y58001804D01*
X78383245Y57927624D01*
X78436605Y57862605D01*
X78501624Y57809245D01*
X78575804Y57769595D01*
X78656293Y57745178D01*
X78740000Y57736934D01*
X80264000Y57736934D01*
X80347707Y57745178D01*
X80428196Y57769595D01*
X80502376Y57809245D01*
X80567395Y57862605D01*
X80620755Y57927624D01*
X80660405Y58001804D01*
X80684822Y58082293D01*
X80693066Y58166000D01*
X80693066Y59690000D01*
X80684822Y59773707D01*
X80660405Y59854196D01*
X80620755Y59928376D01*
X80567395Y59993395D01*
X80502376Y60046755D01*
X80428196Y60086405D01*
X80347707Y60110822D01*
X80264000Y60119066D01*
X78740000Y60119066D01*
X78656293Y60110822D01*
X78575804Y60086405D01*
X78501624Y60046755D01*
X78436605Y59993395D01*
X78383245Y59928376D01*
X78343595Y59854196D01*
X78319178Y59773707D01*
X78310934Y59690000D01*
X78153066Y59690000D01*
X78144822Y59773707D01*
X78120405Y59854196D01*
X78080755Y59928376D01*
X78027395Y59993395D01*
X77962376Y60046755D01*
X77888196Y60086405D01*
X77807707Y60110822D01*
X77724000Y60119066D01*
X76200000Y60119066D01*
X76116293Y60110822D01*
X76035804Y60086405D01*
X75961624Y60046755D01*
X75896605Y59993395D01*
X75843245Y59928376D01*
X75803595Y59854196D01*
X75779178Y59773707D01*
X75770934Y59690000D01*
X72875701Y59690000D01*
X73285963Y60100262D01*
X73307974Y60118326D01*
X73380079Y60206185D01*
X73433657Y60306424D01*
X73466650Y60415188D01*
X73475000Y60499964D01*
X73475000Y60499970D01*
X73477790Y60528299D01*
X73475000Y60556628D01*
X73475000Y62230000D01*
X75770934Y62230000D01*
X75770934Y60706000D01*
X75779178Y60622293D01*
X75803595Y60541804D01*
X75843245Y60467624D01*
X75896605Y60402605D01*
X75961624Y60349245D01*
X76035804Y60309595D01*
X76116293Y60285178D01*
X76200000Y60276934D01*
X77724000Y60276934D01*
X77807707Y60285178D01*
X77888196Y60309595D01*
X77962376Y60349245D01*
X78027395Y60402605D01*
X78080755Y60467624D01*
X78120405Y60541804D01*
X78144822Y60622293D01*
X78153066Y60706000D01*
X78153066Y62230000D01*
X78310934Y62230000D01*
X78310934Y60706000D01*
X78319178Y60622293D01*
X78343595Y60541804D01*
X78383245Y60467624D01*
X78436605Y60402605D01*
X78501624Y60349245D01*
X78575804Y60309595D01*
X78656293Y60285178D01*
X78740000Y60276934D01*
X80264000Y60276934D01*
X80347707Y60285178D01*
X80428196Y60309595D01*
X80502376Y60349245D01*
X80567395Y60402605D01*
X80620755Y60467624D01*
X80660405Y60541804D01*
X80684822Y60622293D01*
X80693066Y60706000D01*
X80693066Y62230000D01*
X80684822Y62313707D01*
X80660405Y62394196D01*
X80620755Y62468376D01*
X80567395Y62533395D01*
X80502376Y62586755D01*
X80428196Y62626405D01*
X80347707Y62650822D01*
X80264000Y62659066D01*
X78740000Y62659066D01*
X78656293Y62650822D01*
X78575804Y62626405D01*
X78501624Y62586755D01*
X78436605Y62533395D01*
X78383245Y62468376D01*
X78343595Y62394196D01*
X78319178Y62313707D01*
X78310934Y62230000D01*
X78153066Y62230000D01*
X78144822Y62313707D01*
X78120405Y62394196D01*
X78080755Y62468376D01*
X78027395Y62533395D01*
X77962376Y62586755D01*
X77888196Y62626405D01*
X77807707Y62650822D01*
X77724000Y62659066D01*
X76200000Y62659066D01*
X76116293Y62650822D01*
X76035804Y62626405D01*
X75961624Y62586755D01*
X75896605Y62533395D01*
X75843245Y62468376D01*
X75803595Y62394196D01*
X75779178Y62313707D01*
X75770934Y62230000D01*
X73475000Y62230000D01*
X73475000Y62907447D01*
X73540372Y62972819D01*
X73630877Y63108269D01*
X73693218Y63258773D01*
X73725000Y63418548D01*
X73725000Y63581452D01*
X73693218Y63741227D01*
X73630877Y63891731D01*
X73540372Y64027181D01*
X73425181Y64142372D01*
X73289731Y64232877D01*
X73139227Y64295218D01*
X73010426Y64320839D01*
X73027969Y64347094D01*
X73090310Y64497598D01*
X73122092Y64657373D01*
X73122092Y64820277D01*
X73090310Y64980052D01*
X73027969Y65130556D01*
X72937464Y65266006D01*
X72822273Y65381197D01*
X72686823Y65471702D01*
X72536319Y65534043D01*
X72376544Y65565825D01*
X72213640Y65565825D01*
X72053865Y65534043D01*
X71903361Y65471702D01*
X71767911Y65381197D01*
X71652720Y65266006D01*
X71562215Y65130556D01*
X71499874Y64980052D01*
X71468092Y64820277D01*
X71468092Y64657373D01*
X71477448Y64610339D01*
X71316537Y64610339D01*
X71156762Y64578557D01*
X71006258Y64516216D01*
X70870808Y64425711D01*
X70755617Y64310520D01*
X70665112Y64175070D01*
X70602771Y64024566D01*
X70570989Y63864791D01*
X70570989Y63772340D01*
X70569950Y63771301D01*
X70545341Y63746691D01*
X70523332Y63728629D01*
X70505271Y63706622D01*
X70505268Y63706619D01*
X70501385Y63701887D01*
X70451227Y63640770D01*
X70438998Y63617891D01*
X70438998Y64024380D01*
X70442031Y64055174D01*
X70429925Y64178087D01*
X70394073Y64296278D01*
X70335851Y64405202D01*
X70319020Y64425711D01*
X70257499Y64500675D01*
X70233577Y64520307D01*
X68491634Y66262250D01*
X75565000Y66262250D01*
X75565000Y65723458D01*
X75589403Y65600777D01*
X75637270Y65485215D01*
X75706763Y65381211D01*
X75795211Y65292763D01*
X75899215Y65223270D01*
X76014777Y65175403D01*
X76045391Y65169313D01*
X76035804Y65166405D01*
X75961624Y65126755D01*
X75896605Y65073395D01*
X75843245Y65008376D01*
X75803595Y64934196D01*
X75779178Y64853707D01*
X75770934Y64770000D01*
X75770934Y63246000D01*
X75779178Y63162293D01*
X75803595Y63081804D01*
X75843245Y63007624D01*
X75896605Y62942605D01*
X75961624Y62889245D01*
X76035804Y62849595D01*
X76116293Y62825178D01*
X76200000Y62816934D01*
X77724000Y62816934D01*
X77807707Y62825178D01*
X77888196Y62849595D01*
X77962376Y62889245D01*
X78027395Y62942605D01*
X78080755Y63007624D01*
X78120405Y63081804D01*
X78144822Y63162293D01*
X78153066Y63246000D01*
X78153066Y64770000D01*
X78144822Y64853707D01*
X78120405Y64934196D01*
X78080755Y65008376D01*
X78027395Y65073395D01*
X77962376Y65126755D01*
X77888196Y65166405D01*
X77878609Y65169313D01*
X77909223Y65175403D01*
X78024785Y65223270D01*
X78128789Y65292763D01*
X78217237Y65381211D01*
X78232000Y65403305D01*
X78246763Y65381211D01*
X78335211Y65292763D01*
X78439215Y65223270D01*
X78554777Y65175403D01*
X78585391Y65169313D01*
X78575804Y65166405D01*
X78501624Y65126755D01*
X78436605Y65073395D01*
X78383245Y65008376D01*
X78343595Y64934196D01*
X78319178Y64853707D01*
X78310934Y64770000D01*
X78310934Y63246000D01*
X78319178Y63162293D01*
X78343595Y63081804D01*
X78383245Y63007624D01*
X78436605Y62942605D01*
X78501624Y62889245D01*
X78575804Y62849595D01*
X78656293Y62825178D01*
X78740000Y62816934D01*
X80264000Y62816934D01*
X80347707Y62825178D01*
X80428196Y62849595D01*
X80502376Y62889245D01*
X80567395Y62942605D01*
X80620755Y63007624D01*
X80660405Y63081804D01*
X80684822Y63162293D01*
X80693066Y63246000D01*
X80693066Y64770000D01*
X80684822Y64853707D01*
X80660405Y64934196D01*
X80620755Y65008376D01*
X80567395Y65073395D01*
X80502376Y65126755D01*
X80428196Y65166405D01*
X80418609Y65169313D01*
X80449223Y65175403D01*
X80564785Y65223270D01*
X80668789Y65292763D01*
X80757237Y65381211D01*
X80826730Y65485215D01*
X80874597Y65600777D01*
X80899000Y65723458D01*
X80899000Y66262250D01*
X80740250Y66421000D01*
X79629000Y66421000D01*
X79629000Y66401000D01*
X79375000Y66401000D01*
X79375000Y66421000D01*
X78263750Y66421000D01*
X78232000Y66389250D01*
X78200250Y66421000D01*
X77089000Y66421000D01*
X77089000Y66401000D01*
X76835000Y66401000D01*
X76835000Y66421000D01*
X75723750Y66421000D01*
X75565000Y66262250D01*
X68491634Y66262250D01*
X67381342Y67372542D01*
X75565000Y67372542D01*
X75565000Y66833750D01*
X75723750Y66675000D01*
X76835000Y66675000D01*
X76835000Y66695000D01*
X77089000Y66695000D01*
X77089000Y66675000D01*
X78200250Y66675000D01*
X78232000Y66706750D01*
X78263750Y66675000D01*
X79375000Y66675000D01*
X79375000Y66695000D01*
X79629000Y66695000D01*
X79629000Y66675000D01*
X80740250Y66675000D01*
X80899000Y66833750D01*
X80899000Y67372542D01*
X80874597Y67495223D01*
X80826730Y67610785D01*
X80757237Y67714789D01*
X80668789Y67803237D01*
X80564785Y67872730D01*
X80449223Y67920597D01*
X80418609Y67926687D01*
X80428196Y67929595D01*
X80502376Y67969245D01*
X80567395Y68022605D01*
X80620755Y68087624D01*
X80660405Y68161804D01*
X80684822Y68242293D01*
X80693066Y68326000D01*
X80693066Y69850000D01*
X80684822Y69933707D01*
X80660405Y70014196D01*
X80620755Y70088376D01*
X80567395Y70153395D01*
X80502376Y70206755D01*
X80428196Y70246405D01*
X80347707Y70270822D01*
X80264000Y70279066D01*
X78740000Y70279066D01*
X78656293Y70270822D01*
X78575804Y70246405D01*
X78501624Y70206755D01*
X78436605Y70153395D01*
X78383245Y70088376D01*
X78343595Y70014196D01*
X78319178Y69933707D01*
X78310934Y69850000D01*
X78310934Y68326000D01*
X78319178Y68242293D01*
X78343595Y68161804D01*
X78383245Y68087624D01*
X78436605Y68022605D01*
X78501624Y67969245D01*
X78575804Y67929595D01*
X78585391Y67926687D01*
X78554777Y67920597D01*
X78439215Y67872730D01*
X78335211Y67803237D01*
X78246763Y67714789D01*
X78232000Y67692695D01*
X78217237Y67714789D01*
X78128789Y67803237D01*
X78024785Y67872730D01*
X77909223Y67920597D01*
X77878609Y67926687D01*
X77888196Y67929595D01*
X77962376Y67969245D01*
X78027395Y68022605D01*
X78080755Y68087624D01*
X78120405Y68161804D01*
X78144822Y68242293D01*
X78153066Y68326000D01*
X78153066Y69850000D01*
X78144822Y69933707D01*
X78120405Y70014196D01*
X78080755Y70088376D01*
X78027395Y70153395D01*
X77962376Y70206755D01*
X77888196Y70246405D01*
X77807707Y70270822D01*
X77724000Y70279066D01*
X76200000Y70279066D01*
X76116293Y70270822D01*
X76035804Y70246405D01*
X75961624Y70206755D01*
X75896605Y70153395D01*
X75843245Y70088376D01*
X75803595Y70014196D01*
X75779178Y69933707D01*
X75770934Y69850000D01*
X75770934Y68326000D01*
X75779178Y68242293D01*
X75803595Y68161804D01*
X75843245Y68087624D01*
X75896605Y68022605D01*
X75961624Y67969245D01*
X76035804Y67929595D01*
X76045391Y67926687D01*
X76014777Y67920597D01*
X75899215Y67872730D01*
X75795211Y67803237D01*
X75706763Y67714789D01*
X75637270Y67610785D01*
X75589403Y67495223D01*
X75565000Y67372542D01*
X67381342Y67372542D01*
X66363586Y68390297D01*
X66363586Y68412038D01*
X66331804Y68571813D01*
X66269463Y68722317D01*
X66178958Y68857767D01*
X66063767Y68972958D01*
X65928317Y69063463D01*
X65777813Y69125804D01*
X65704537Y69140380D01*
X65805181Y69207628D01*
X65920372Y69322819D01*
X66010877Y69458269D01*
X66073218Y69608773D01*
X66105000Y69768548D01*
X66105000Y69931452D01*
X66073218Y70091227D01*
X66010877Y70241731D01*
X65979293Y70289000D01*
X69511447Y70289000D01*
X69576819Y70223628D01*
X69712269Y70133123D01*
X69862773Y70070782D01*
X70022548Y70039000D01*
X70185452Y70039000D01*
X70345227Y70070782D01*
X70495731Y70133123D01*
X70631181Y70223628D01*
X70746372Y70338819D01*
X70836877Y70474269D01*
X70899218Y70624773D01*
X70931000Y70784548D01*
X70931000Y70947452D01*
X70899218Y71107227D01*
X70836877Y71257731D01*
X70746372Y71393181D01*
X70631181Y71508372D01*
X70524196Y71579857D01*
X70599227Y71594782D01*
X70749731Y71657123D01*
X70885181Y71747628D01*
X71000372Y71862819D01*
X71090877Y71998269D01*
X71153218Y72148773D01*
X71185000Y72308548D01*
X71185000Y72390000D01*
X75770934Y72390000D01*
X75770934Y70866000D01*
X75779178Y70782293D01*
X75803595Y70701804D01*
X75843245Y70627624D01*
X75896605Y70562605D01*
X75961624Y70509245D01*
X76035804Y70469595D01*
X76116293Y70445178D01*
X76200000Y70436934D01*
X77724000Y70436934D01*
X77807707Y70445178D01*
X77888196Y70469595D01*
X77962376Y70509245D01*
X78027395Y70562605D01*
X78080755Y70627624D01*
X78120405Y70701804D01*
X78144822Y70782293D01*
X78153066Y70866000D01*
X78153066Y72390000D01*
X78310934Y72390000D01*
X78310934Y70866000D01*
X78319178Y70782293D01*
X78343595Y70701804D01*
X78383245Y70627624D01*
X78436605Y70562605D01*
X78501624Y70509245D01*
X78575804Y70469595D01*
X78656293Y70445178D01*
X78740000Y70436934D01*
X80264000Y70436934D01*
X80347707Y70445178D01*
X80428196Y70469595D01*
X80502376Y70509245D01*
X80567395Y70562605D01*
X80620755Y70627624D01*
X80660405Y70701804D01*
X80684822Y70782293D01*
X80693066Y70866000D01*
X80693066Y72390000D01*
X80684822Y72473707D01*
X80660405Y72554196D01*
X80620755Y72628376D01*
X80567395Y72693395D01*
X80502376Y72746755D01*
X80428196Y72786405D01*
X80347707Y72810822D01*
X80264000Y72819066D01*
X78740000Y72819066D01*
X78656293Y72810822D01*
X78575804Y72786405D01*
X78501624Y72746755D01*
X78436605Y72693395D01*
X78383245Y72628376D01*
X78343595Y72554196D01*
X78319178Y72473707D01*
X78310934Y72390000D01*
X78153066Y72390000D01*
X78144822Y72473707D01*
X78120405Y72554196D01*
X78080755Y72628376D01*
X78027395Y72693395D01*
X77962376Y72746755D01*
X77888196Y72786405D01*
X77807707Y72810822D01*
X77724000Y72819066D01*
X76200000Y72819066D01*
X76116293Y72810822D01*
X76035804Y72786405D01*
X75961624Y72746755D01*
X75896605Y72693395D01*
X75843245Y72628376D01*
X75803595Y72554196D01*
X75779178Y72473707D01*
X75770934Y72390000D01*
X71185000Y72390000D01*
X71185000Y72471452D01*
X71153218Y72631227D01*
X71090877Y72781731D01*
X71000372Y72917181D01*
X70885181Y73032372D01*
X70749731Y73122877D01*
X70599227Y73185218D01*
X70439452Y73217000D01*
X70276548Y73217000D01*
X70116773Y73185218D01*
X69966269Y73122877D01*
X69830819Y73032372D01*
X69715628Y72917181D01*
X69625123Y72781731D01*
X69562782Y72631227D01*
X69531000Y72471452D01*
X69531000Y72379001D01*
X69095009Y71943010D01*
X59174993Y71943010D01*
X58993002Y72125001D01*
X58993002Y72217452D01*
X58961220Y72377227D01*
X58898879Y72527731D01*
X58808374Y72663181D01*
X58693183Y72778372D01*
X58557733Y72868877D01*
X58407229Y72931218D01*
X58247454Y72963000D01*
X58084550Y72963000D01*
X57924775Y72931218D01*
X57774271Y72868877D01*
X57638821Y72778372D01*
X57523630Y72663181D01*
X57433125Y72527731D01*
X57370784Y72377227D01*
X57339002Y72217452D01*
X57339002Y72072619D01*
X57287731Y72106877D01*
X57137227Y72169218D01*
X56977452Y72201000D01*
X56814548Y72201000D01*
X56654773Y72169218D01*
X56504269Y72106877D01*
X56368819Y72016372D01*
X56253628Y71901181D01*
X56163123Y71765731D01*
X56100782Y71615227D01*
X56069000Y71455452D01*
X52135000Y71455452D01*
X52127035Y71495491D01*
X52123034Y71536120D01*
X52111182Y71575191D01*
X52103218Y71615227D01*
X52087597Y71652939D01*
X52075745Y71692010D01*
X52056498Y71728018D01*
X52040877Y71765731D01*
X52018198Y71799673D01*
X51998952Y71835679D01*
X51973052Y71867238D01*
X51950372Y71901181D01*
X51921505Y71930048D01*
X51895606Y71961606D01*
X51864048Y71987505D01*
X51835181Y72016372D01*
X51801238Y72039052D01*
X51769679Y72064952D01*
X51733673Y72084198D01*
X51699731Y72106877D01*
X51662018Y72122498D01*
X51626010Y72141745D01*
X51586939Y72153597D01*
X51549227Y72169218D01*
X51509191Y72177182D01*
X51470120Y72189034D01*
X51429492Y72193035D01*
X51389452Y72201000D01*
X51348624Y72201000D01*
X51308000Y72205001D01*
X51267376Y72201000D01*
X51226548Y72201000D01*
X51186508Y72193035D01*
X51145881Y72189034D01*
X51106812Y72177182D01*
X51066773Y72169218D01*
X51029058Y72153596D01*
X50989991Y72141745D01*
X50953987Y72122500D01*
X50916269Y72106877D01*
X50882323Y72084195D01*
X50846322Y72064952D01*
X50814767Y72039055D01*
X50780819Y72016372D01*
X50751948Y71987501D01*
X50720395Y71961606D01*
X50694500Y71930053D01*
X50665628Y71901181D01*
X50642944Y71867232D01*
X50617049Y71835679D01*
X50597807Y71799680D01*
X50575123Y71765731D01*
X50559498Y71728009D01*
X50540256Y71692010D01*
X50528407Y71652948D01*
X50512782Y71615227D01*
X50504816Y71575182D01*
X50492967Y71536120D01*
X50488967Y71495501D01*
X50481000Y71455452D01*
X50481000Y71292548D01*
X50481001Y71292543D01*
X50481000Y70185452D01*
X50481000Y70144623D01*
X50481001Y68366623D01*
X50477000Y68326000D01*
X41342000Y68326000D01*
X41342000Y88075449D01*
X41372891Y88390497D01*
X41457256Y88669927D01*
X41594289Y88927647D01*
X41778773Y89153847D01*
X42003673Y89339901D01*
X42260435Y89478731D01*
X42539270Y89565045D01*
X42852812Y89598000D01*
X72024653Y89598000D01*
X72047011Y89600202D01*
X72059461Y89600115D01*
X72066437Y89600799D01*
X72454629Y89641600D01*
X72499168Y89650743D01*
X72543891Y89659274D01*
X72550601Y89661300D01*
X72923476Y89776724D01*
X72965410Y89794352D01*
X73007605Y89811400D01*
X73013794Y89814690D01*
X73357149Y90000341D01*
X73394862Y90025779D01*
X73432942Y90050698D01*
X73438373Y90055128D01*
X73739128Y90303935D01*
X73771154Y90336186D01*
X73803695Y90368052D01*
X73808163Y90373453D01*
X74054864Y90675938D01*
X74080025Y90713809D01*
X74105748Y90751376D01*
X74109081Y90757542D01*
X74292331Y91102183D01*
X74309669Y91144249D01*
X74327594Y91186070D01*
X74329666Y91192765D01*
X74442484Y91566437D01*
X74451324Y91611081D01*
X74460781Y91655573D01*
X74461514Y91662544D01*
X74499604Y92051013D01*
X74499604Y92051019D01*
X74502000Y92075347D01*
X74502000Y92975449D01*
X74532891Y93290497D01*
X74617256Y93569927D01*
X74754289Y93827647D01*
X74938773Y94053847D01*
X75163673Y94239901D01*
X75420435Y94378731D01*
X75699270Y94465045D01*
X76012812Y94498000D01*
X83375449Y94498000D01*
X83690497Y94467109D01*
X83690497Y94467109D01*
G37*
X83690497Y94467109D02*
X83969927Y94382744D01*
X84227647Y94245711D01*
X84453847Y94061227D01*
X84639901Y93836327D01*
X84778731Y93579565D01*
X84865045Y93300730D01*
X84898000Y92987188D01*
X84898001Y69975347D01*
X84900168Y69953344D01*
X84900103Y69944031D01*
X84900787Y69937056D01*
X84931387Y69645910D01*
X84940529Y69601378D01*
X84949061Y69556648D01*
X84951087Y69549938D01*
X85037655Y69270282D01*
X85055284Y69228344D01*
X85072331Y69186152D01*
X85075622Y69179963D01*
X85214861Y68922447D01*
X85240292Y68884745D01*
X85265216Y68846656D01*
X85269646Y68841224D01*
X85456251Y68615657D01*
X85488522Y68583611D01*
X85520369Y68551090D01*
X85525770Y68546622D01*
X85752634Y68361596D01*
X85790490Y68336445D01*
X85828072Y68310712D01*
X85834238Y68307378D01*
X86092719Y68169941D01*
X86134798Y68152598D01*
X86176604Y68134680D01*
X86183300Y68132607D01*
X86463554Y68047993D01*
X86508180Y68039157D01*
X86552691Y68029696D01*
X86559662Y68028963D01*
X86851014Y68000396D01*
X86851019Y68000396D01*
X86875347Y67998000D01*
X87475451Y67998000D01*
X87693380Y67976632D01*
X87879387Y67920473D01*
X88050953Y67829249D01*
X88201527Y67706444D01*
X88325385Y67556725D01*
X88417800Y67385808D01*
X88475258Y67200191D01*
X88498001Y66983803D01*
X88498000Y3524551D01*
X88467109Y3209506D01*
X88382745Y2930077D01*
X88245712Y2672354D01*
X88061228Y2446155D01*
X87836327Y2260099D01*
X87579566Y2121269D01*
X87300730Y2034955D01*
X86987187Y2002000D01*
X80024551Y2002000D01*
X79709506Y2032891D01*
X79430077Y2117255D01*
X79172354Y2254288D01*
X78946155Y2438772D01*
X78760099Y2663673D01*
X78621269Y2920434D01*
X78534955Y3199270D01*
X78501957Y3513224D01*
X78501948Y3515725D01*
X78499732Y3537537D01*
X78499885Y3559461D01*
X78499201Y3566437D01*
X78458400Y3954630D01*
X78449257Y3999168D01*
X78440726Y4043892D01*
X78438700Y4050602D01*
X78323276Y4423476D01*
X78305648Y4465410D01*
X78288600Y4507605D01*
X78285310Y4513794D01*
X78099659Y4857149D01*
X78074221Y4894862D01*
X78049302Y4932942D01*
X78044872Y4938374D01*
X77796065Y5239128D01*
X77763795Y5271174D01*
X77731947Y5303695D01*
X77726547Y5308163D01*
X77424062Y5554864D01*
X77386188Y5580027D01*
X77348623Y5605748D01*
X77342458Y5609082D01*
X76997816Y5792331D01*
X76955776Y5809659D01*
X76913930Y5827594D01*
X76907234Y5829667D01*
X76533563Y5942484D01*
X76488919Y5951324D01*
X76444427Y5960781D01*
X76437456Y5961514D01*
X76048987Y5999604D01*
X76048981Y5999604D01*
X76024653Y6002000D01*
X42864551Y6002000D01*
X42549506Y6032891D01*
X42270077Y6117255D01*
X42012354Y6254288D01*
X41786155Y6438772D01*
X41600099Y6663673D01*
X41461269Y6920434D01*
X41374955Y7199270D01*
X41342000Y7512813D01*
X41342000Y16707106D01*
X73061000Y16707106D01*
X73061000Y16472894D01*
X73106693Y16243182D01*
X73196322Y16026797D01*
X73326443Y15832057D01*
X73492057Y15666443D01*
X73686797Y15536322D01*
X73903182Y15446693D01*
X74132894Y15401000D01*
X74367106Y15401000D01*
X74596818Y15446693D01*
X74813203Y15536322D01*
X75007943Y15666443D01*
X75173557Y15832057D01*
X75303678Y16026797D01*
X75393307Y16243182D01*
X75439000Y16472894D01*
X75439000Y16707106D01*
X75393307Y16936818D01*
X75303678Y17153203D01*
X75173557Y17347943D01*
X75007943Y17513557D01*
X74813203Y17643678D01*
X74596818Y17733307D01*
X74367106Y17779000D01*
X74132894Y17779000D01*
X73903182Y17733307D01*
X73686797Y17643678D01*
X73492057Y17513557D01*
X73326443Y17347943D01*
X73196322Y17153203D01*
X73106693Y16936818D01*
X73061000Y16707106D01*
X41342000Y16707106D01*
X41342000Y21707106D01*
X73061000Y21707106D01*
X73061000Y21472894D01*
X73106693Y21243182D01*
X73196322Y21026797D01*
X73326443Y20832057D01*
X73492057Y20666443D01*
X73686797Y20536322D01*
X73903182Y20446693D01*
X74132894Y20401000D01*
X74367106Y20401000D01*
X74596818Y20446693D01*
X74813203Y20536322D01*
X75007943Y20666443D01*
X75173557Y20832057D01*
X75303678Y21026797D01*
X75393307Y21243182D01*
X75439000Y21472894D01*
X75439000Y21707106D01*
X75393307Y21936818D01*
X75303678Y22153203D01*
X75173557Y22347943D01*
X75007943Y22513557D01*
X74813203Y22643678D01*
X74596818Y22733307D01*
X74367106Y22779000D01*
X74132894Y22779000D01*
X73903182Y22733307D01*
X73686797Y22643678D01*
X73492057Y22513557D01*
X73326443Y22347943D01*
X73196322Y22153203D01*
X73106693Y21936818D01*
X73061000Y21707106D01*
X41342000Y21707106D01*
X41342000Y35123100D01*
X58103699Y35123100D01*
X58107700Y35082476D01*
X58107700Y35041648D01*
X58115665Y35001608D01*
X58119666Y34960980D01*
X58131518Y34921909D01*
X58139482Y34881873D01*
X58155103Y34844161D01*
X58166955Y34805090D01*
X58186202Y34769082D01*
X58201823Y34731369D01*
X58224502Y34697427D01*
X58243748Y34661421D01*
X58269648Y34629862D01*
X58292328Y34595919D01*
X58321195Y34567052D01*
X58347094Y34535494D01*
X58378652Y34509595D01*
X58407519Y34480728D01*
X58441462Y34458048D01*
X58473021Y34432148D01*
X58509027Y34412902D01*
X58542969Y34390223D01*
X58580682Y34374602D01*
X58616690Y34355355D01*
X58655761Y34343503D01*
X58693473Y34327882D01*
X58733509Y34319918D01*
X58772580Y34308066D01*
X58813209Y34304065D01*
X58853248Y34296100D01*
X71462152Y34296100D01*
X71502191Y34304065D01*
X71542820Y34308066D01*
X71581891Y34319918D01*
X71621927Y34327882D01*
X71659639Y34343503D01*
X71698710Y34355355D01*
X71734718Y34374602D01*
X71772431Y34390223D01*
X71806373Y34412902D01*
X71842379Y34432148D01*
X71873938Y34458048D01*
X71907881Y34480728D01*
X71936748Y34509595D01*
X71968306Y34535494D01*
X71994205Y34567052D01*
X72023072Y34595919D01*
X72045752Y34629862D01*
X72071652Y34661421D01*
X72090898Y34697427D01*
X72113577Y34731369D01*
X72129198Y34769082D01*
X72148445Y34805090D01*
X72160297Y34844161D01*
X72175918Y34881873D01*
X72183882Y34921909D01*
X72195734Y34960980D01*
X72199735Y35001608D01*
X72207700Y35041648D01*
X72207700Y35082476D01*
X72211701Y35123100D01*
X72207700Y35163724D01*
X72207700Y35204552D01*
X72199735Y35244592D01*
X72195734Y35285220D01*
X72183882Y35324291D01*
X72175918Y35364327D01*
X72160297Y35402039D01*
X72148445Y35441110D01*
X72129198Y35477118D01*
X72113577Y35514831D01*
X72090898Y35548773D01*
X72071652Y35584779D01*
X72045752Y35616338D01*
X72023072Y35650281D01*
X71994205Y35679148D01*
X71968306Y35710706D01*
X71936748Y35736605D01*
X71907881Y35765472D01*
X71873938Y35788152D01*
X71842379Y35814052D01*
X71806373Y35833298D01*
X71772431Y35855977D01*
X71734718Y35871598D01*
X71698710Y35890845D01*
X71659639Y35902697D01*
X71621927Y35918318D01*
X71581891Y35926282D01*
X71542820Y35938134D01*
X71502191Y35942135D01*
X71462152Y35950100D01*
X58853248Y35950100D01*
X58813209Y35942135D01*
X58772580Y35938134D01*
X58733509Y35926282D01*
X58693473Y35918318D01*
X58655761Y35902697D01*
X58616690Y35890845D01*
X58580682Y35871598D01*
X58542969Y35855977D01*
X58509027Y35833298D01*
X58473021Y35814052D01*
X58441462Y35788152D01*
X58407519Y35765472D01*
X58378652Y35736605D01*
X58347094Y35710706D01*
X58321195Y35679148D01*
X58292328Y35650281D01*
X58269648Y35616338D01*
X58243748Y35584779D01*
X58224502Y35548773D01*
X58201823Y35514831D01*
X58186202Y35477118D01*
X58166955Y35441110D01*
X58155103Y35402039D01*
X58139482Y35364327D01*
X58131518Y35324291D01*
X58119666Y35285220D01*
X58115665Y35244592D01*
X58107700Y35204552D01*
X58107700Y35163724D01*
X58103699Y35123100D01*
X41342000Y35123100D01*
X41342000Y68326000D01*
X50477000Y68326000D01*
X50492967Y68163880D01*
X50540256Y68007990D01*
X50617048Y67864321D01*
X50694498Y67769949D01*
X50720395Y67738394D01*
X50751947Y67712499D01*
X52005000Y66459445D01*
X52005001Y42753457D01*
X52005000Y42753452D01*
X52005000Y42590548D01*
X52012967Y42550499D01*
X52016967Y42509880D01*
X52028816Y42470818D01*
X52036782Y42430773D01*
X52052407Y42393052D01*
X52064256Y42353990D01*
X52083498Y42317991D01*
X52099123Y42280269D01*
X52121807Y42246320D01*
X52141049Y42210321D01*
X52166944Y42178768D01*
X52189628Y42144819D01*
X52218500Y42115947D01*
X52244395Y42084394D01*
X52275948Y42058499D01*
X52304819Y42029628D01*
X52338767Y42006945D01*
X52370322Y41981048D01*
X52406323Y41961805D01*
X52440269Y41939123D01*
X52477987Y41923500D01*
X52513991Y41904255D01*
X52553058Y41892404D01*
X52590773Y41876782D01*
X52630812Y41868818D01*
X52669881Y41856966D01*
X52710508Y41852965D01*
X52750548Y41845000D01*
X52791376Y41845000D01*
X52832000Y41840999D01*
X52872624Y41845000D01*
X52913452Y41845000D01*
X52953492Y41852965D01*
X52994120Y41856966D01*
X53033191Y41868818D01*
X53073227Y41876782D01*
X53110939Y41892403D01*
X53150010Y41904255D01*
X53186018Y41923502D01*
X53223731Y41939123D01*
X53232527Y41945000D01*
X53447473Y41945000D01*
X53456269Y41939123D01*
X53606773Y41876782D01*
X53766548Y41845000D01*
X53929452Y41845000D01*
X54089227Y41876782D01*
X54239731Y41939123D01*
X54375181Y42029628D01*
X54490372Y42144819D01*
X54580877Y42280269D01*
X54643218Y42430773D01*
X54675000Y42590548D01*
X54675000Y42753452D01*
X54643218Y42913227D01*
X54580877Y43063731D01*
X54490372Y43199181D01*
X54375181Y43314372D01*
X54239731Y43404877D01*
X54089227Y43467218D01*
X53929452Y43499000D01*
X53766548Y43499000D01*
X53659000Y43477607D01*
X53659000Y66761390D01*
X53663000Y66802001D01*
X53659000Y66842612D01*
X53659000Y66842624D01*
X53647034Y66964120D01*
X53599745Y67120010D01*
X53522952Y67263679D01*
X53522951Y67263681D01*
X53445502Y67358053D01*
X53445496Y67358059D01*
X53419606Y67389606D01*
X53388059Y67415495D01*
X52135000Y68668553D01*
X52135000Y71455452D01*
X56069000Y71455452D01*
X56069000Y71292548D01*
X56100782Y71132773D01*
X56163123Y70982269D01*
X56253628Y70846819D01*
X56368819Y70731628D01*
X56504269Y70641123D01*
X56654773Y70578782D01*
X56814548Y70547000D01*
X56906999Y70547000D01*
X56975961Y70478038D01*
X56994026Y70456026D01*
X57081885Y70383921D01*
X57182124Y70330343D01*
X57290888Y70297350D01*
X57375664Y70289000D01*
X57375670Y70289000D01*
X57403999Y70286210D01*
X57432328Y70289000D01*
X64576707Y70289000D01*
X64545123Y70241731D01*
X64482782Y70091227D01*
X64451000Y69931452D01*
X64451000Y69909712D01*
X63434121Y68892832D01*
X63410199Y68873200D01*
X63353383Y68803970D01*
X63277881Y68879472D01*
X63142431Y68969977D01*
X62991927Y69032318D01*
X62832152Y69064100D01*
X62669248Y69064100D01*
X62509473Y69032318D01*
X62358969Y68969977D01*
X62223519Y68879472D01*
X62108328Y68764281D01*
X62017823Y68628831D01*
X61955482Y68478327D01*
X61923700Y68318552D01*
X61923700Y68155648D01*
X61955482Y67995873D01*
X62017823Y67845369D01*
X62108328Y67709919D01*
X62223519Y67594728D01*
X62358969Y67504223D01*
X62509473Y67441882D01*
X62539690Y67435871D01*
X62539690Y62913220D01*
X62483927Y62936318D01*
X62324152Y62968100D01*
X62161248Y62968100D01*
X62001473Y62936318D01*
X61850969Y62873977D01*
X61715519Y62783472D01*
X61600328Y62668281D01*
X61509823Y62532831D01*
X61447482Y62382327D01*
X61415700Y62222552D01*
X61415700Y62200812D01*
X60170122Y60955233D01*
X60146200Y60935601D01*
X60067848Y60840128D01*
X60019767Y60750176D01*
X60009626Y60731203D01*
X59973773Y60613012D01*
X59961667Y60490100D01*
X59964701Y60459296D01*
X59964700Y58746653D01*
X59949328Y58731281D01*
X59858823Y58595831D01*
X59796482Y58445327D01*
X59764700Y58285552D01*
X59764700Y58122648D01*
X59796482Y57962873D01*
X59858823Y57812369D01*
X59949328Y57676919D01*
X60064519Y57561728D01*
X60199969Y57471223D01*
X60350473Y57408882D01*
X60510248Y57377100D01*
X60673152Y57377100D01*
X60832927Y57408882D01*
X60983431Y57471223D01*
X61118881Y57561728D01*
X61234072Y57676919D01*
X61324577Y57812369D01*
X61386918Y57962873D01*
X61418700Y58122648D01*
X61418700Y58285552D01*
X61386918Y58445327D01*
X61324577Y58595831D01*
X61234072Y58731281D01*
X61218700Y58746653D01*
X61218700Y60230389D01*
X62302412Y61314100D01*
X62324152Y61314100D01*
X62483927Y61345882D01*
X62539690Y61368980D01*
X62539691Y50657803D01*
X61674989Y49793100D01*
X61653248Y49793100D01*
X61493473Y49761318D01*
X61342969Y49698977D01*
X61207519Y49608472D01*
X61092328Y49493281D01*
X61001823Y49357831D01*
X60939482Y49207327D01*
X60907700Y49047552D01*
X60907700Y48884648D01*
X60939482Y48724873D01*
X61001823Y48574369D01*
X61092328Y48438919D01*
X61207519Y48323728D01*
X61342969Y48233223D01*
X61493473Y48170882D01*
X61653248Y48139100D01*
X61816152Y48139100D01*
X61975927Y48170882D01*
X62126431Y48233223D01*
X62261881Y48323728D01*
X62377072Y48438919D01*
X62467577Y48574369D01*
X62529918Y48724873D01*
X62561700Y48884648D01*
X62561700Y48906389D01*
X63228699Y49573388D01*
X63228699Y40560897D01*
X63225666Y40530103D01*
X63228699Y40499310D01*
X63237772Y40407191D01*
X63273624Y40289001D01*
X63331846Y40180076D01*
X63410198Y40084602D01*
X63434126Y40064965D01*
X63774701Y39724389D01*
X63774700Y38299653D01*
X63759328Y38284281D01*
X63668823Y38148831D01*
X63606482Y37998327D01*
X63574700Y37838552D01*
X63574700Y37675648D01*
X63606482Y37515873D01*
X63668823Y37365369D01*
X63759328Y37229919D01*
X63874519Y37114728D01*
X64009969Y37024223D01*
X64160473Y36961882D01*
X64320248Y36930100D01*
X64483152Y36930100D01*
X64642927Y36961882D01*
X64793431Y37024223D01*
X64928881Y37114728D01*
X65044072Y37229919D01*
X65134577Y37365369D01*
X65196918Y37515873D01*
X65228700Y37675648D01*
X65228700Y37838552D01*
X65196918Y37998327D01*
X65134577Y38148831D01*
X65044072Y38284281D01*
X65028700Y38299653D01*
X65028700Y39953309D01*
X65031733Y39984103D01*
X65019627Y40107015D01*
X65019170Y40108522D01*
X64983775Y40225205D01*
X64925553Y40334130D01*
X64847201Y40429603D01*
X64823278Y40449236D01*
X64482699Y40789814D01*
X64482699Y42753452D01*
X64705000Y42753452D01*
X64705000Y42590548D01*
X64736782Y42430773D01*
X64799123Y42280269D01*
X64889628Y42144819D01*
X65004819Y42029628D01*
X65140269Y41939123D01*
X65290773Y41876782D01*
X65450548Y41845000D01*
X65613452Y41845000D01*
X65773227Y41876782D01*
X65923731Y41939123D01*
X66059181Y42029628D01*
X66074553Y42045000D01*
X70542435Y42045000D01*
X70573229Y42041967D01*
X70604023Y42045000D01*
X70696142Y42054073D01*
X70814332Y42089925D01*
X70923257Y42148147D01*
X71018730Y42226499D01*
X71038367Y42250427D01*
X73015144Y44227203D01*
X73036884Y44227203D01*
X73196659Y44258985D01*
X73347163Y44321326D01*
X73482613Y44411831D01*
X73597804Y44527022D01*
X73688309Y44662472D01*
X73750650Y44812976D01*
X73782432Y44972751D01*
X73782432Y45135655D01*
X73750650Y45295430D01*
X73688309Y45445934D01*
X73597804Y45581384D01*
X73482613Y45696575D01*
X73347163Y45787080D01*
X73196659Y45849421D01*
X73036884Y45881203D01*
X72873980Y45881203D01*
X72714205Y45849421D01*
X72563701Y45787080D01*
X72428251Y45696575D01*
X72313060Y45581384D01*
X72222555Y45445934D01*
X72160214Y45295430D01*
X72128432Y45135655D01*
X72128432Y45113915D01*
X70313518Y43299000D01*
X66074553Y43299000D01*
X66059181Y43314372D01*
X65923731Y43404877D01*
X65773227Y43467218D01*
X65613452Y43499000D01*
X65450548Y43499000D01*
X65290773Y43467218D01*
X65140269Y43404877D01*
X65004819Y43314372D01*
X64889628Y43199181D01*
X64799123Y43063731D01*
X64736782Y42913227D01*
X64705000Y42753452D01*
X64482699Y42753452D01*
X64482699Y68167988D01*
X64709586Y68394875D01*
X64709586Y68249134D01*
X64741368Y68089359D01*
X64803709Y67938855D01*
X64894214Y67803405D01*
X65009405Y67688214D01*
X65144855Y67597709D01*
X65295359Y67535368D01*
X65455134Y67503586D01*
X65476875Y67503586D01*
X69184998Y63795462D01*
X69184999Y60444792D01*
X69184998Y50284596D01*
X69181965Y50253802D01*
X69184998Y50223009D01*
X69194071Y50130890D01*
X69229923Y50012700D01*
X69288145Y49903775D01*
X69366497Y49808301D01*
X69390425Y49788664D01*
X69797700Y49381388D01*
X69797700Y49359648D01*
X69829482Y49199873D01*
X69891823Y49049369D01*
X69982328Y48913919D01*
X70097519Y48798728D01*
X70232969Y48708223D01*
X70383473Y48645882D01*
X70543248Y48614100D01*
X70706152Y48614100D01*
X70865927Y48645882D01*
X71016431Y48708223D01*
X71151881Y48798728D01*
X71267072Y48913919D01*
X71357577Y49049369D01*
X71419918Y49199873D01*
X71451700Y49359648D01*
X71451700Y49522552D01*
X71419918Y49682327D01*
X71357577Y49832831D01*
X71267072Y49968281D01*
X71151881Y50083472D01*
X71016431Y50173977D01*
X70865927Y50236318D01*
X70706152Y50268100D01*
X70684412Y50268100D01*
X70438998Y50513513D01*
X70438998Y57670128D01*
X70548473Y57624782D01*
X70708248Y57593000D01*
X70871152Y57593000D01*
X71030927Y57624782D01*
X71181431Y57687123D01*
X71316881Y57777628D01*
X71432072Y57892819D01*
X71522577Y58028269D01*
X71584918Y58178773D01*
X71616700Y58338548D01*
X71616700Y58430999D01*
X72875701Y59690000D01*
X75770934Y59690000D01*
X75770934Y58166000D01*
X75779178Y58082293D01*
X75803595Y58001804D01*
X75843245Y57927624D01*
X75896605Y57862605D01*
X75961624Y57809245D01*
X76035804Y57769595D01*
X76116293Y57745178D01*
X76200000Y57736934D01*
X77724000Y57736934D01*
X77807707Y57745178D01*
X77888196Y57769595D01*
X77962376Y57809245D01*
X78027395Y57862605D01*
X78080755Y57927624D01*
X78120405Y58001804D01*
X78144822Y58082293D01*
X78153066Y58166000D01*
X78153066Y59690000D01*
X78310934Y59690000D01*
X78310934Y58166000D01*
X78319178Y58082293D01*
X78343595Y58001804D01*
X78383245Y57927624D01*
X78436605Y57862605D01*
X78501624Y57809245D01*
X78575804Y57769595D01*
X78656293Y57745178D01*
X78740000Y57736934D01*
X80264000Y57736934D01*
X80347707Y57745178D01*
X80428196Y57769595D01*
X80502376Y57809245D01*
X80567395Y57862605D01*
X80620755Y57927624D01*
X80660405Y58001804D01*
X80684822Y58082293D01*
X80693066Y58166000D01*
X80693066Y59690000D01*
X80684822Y59773707D01*
X80660405Y59854196D01*
X80620755Y59928376D01*
X80567395Y59993395D01*
X80502376Y60046755D01*
X80428196Y60086405D01*
X80347707Y60110822D01*
X80264000Y60119066D01*
X78740000Y60119066D01*
X78656293Y60110822D01*
X78575804Y60086405D01*
X78501624Y60046755D01*
X78436605Y59993395D01*
X78383245Y59928376D01*
X78343595Y59854196D01*
X78319178Y59773707D01*
X78310934Y59690000D01*
X78153066Y59690000D01*
X78144822Y59773707D01*
X78120405Y59854196D01*
X78080755Y59928376D01*
X78027395Y59993395D01*
X77962376Y60046755D01*
X77888196Y60086405D01*
X77807707Y60110822D01*
X77724000Y60119066D01*
X76200000Y60119066D01*
X76116293Y60110822D01*
X76035804Y60086405D01*
X75961624Y60046755D01*
X75896605Y59993395D01*
X75843245Y59928376D01*
X75803595Y59854196D01*
X75779178Y59773707D01*
X75770934Y59690000D01*
X72875701Y59690000D01*
X73285963Y60100262D01*
X73307974Y60118326D01*
X73380079Y60206185D01*
X73433657Y60306424D01*
X73466650Y60415188D01*
X73475000Y60499964D01*
X73475000Y60499970D01*
X73477790Y60528299D01*
X73475000Y60556628D01*
X73475000Y62230000D01*
X75770934Y62230000D01*
X75770934Y60706000D01*
X75779178Y60622293D01*
X75803595Y60541804D01*
X75843245Y60467624D01*
X75896605Y60402605D01*
X75961624Y60349245D01*
X76035804Y60309595D01*
X76116293Y60285178D01*
X76200000Y60276934D01*
X77724000Y60276934D01*
X77807707Y60285178D01*
X77888196Y60309595D01*
X77962376Y60349245D01*
X78027395Y60402605D01*
X78080755Y60467624D01*
X78120405Y60541804D01*
X78144822Y60622293D01*
X78153066Y60706000D01*
X78153066Y62230000D01*
X78310934Y62230000D01*
X78310934Y60706000D01*
X78319178Y60622293D01*
X78343595Y60541804D01*
X78383245Y60467624D01*
X78436605Y60402605D01*
X78501624Y60349245D01*
X78575804Y60309595D01*
X78656293Y60285178D01*
X78740000Y60276934D01*
X80264000Y60276934D01*
X80347707Y60285178D01*
X80428196Y60309595D01*
X80502376Y60349245D01*
X80567395Y60402605D01*
X80620755Y60467624D01*
X80660405Y60541804D01*
X80684822Y60622293D01*
X80693066Y60706000D01*
X80693066Y62230000D01*
X80684822Y62313707D01*
X80660405Y62394196D01*
X80620755Y62468376D01*
X80567395Y62533395D01*
X80502376Y62586755D01*
X80428196Y62626405D01*
X80347707Y62650822D01*
X80264000Y62659066D01*
X78740000Y62659066D01*
X78656293Y62650822D01*
X78575804Y62626405D01*
X78501624Y62586755D01*
X78436605Y62533395D01*
X78383245Y62468376D01*
X78343595Y62394196D01*
X78319178Y62313707D01*
X78310934Y62230000D01*
X78153066Y62230000D01*
X78144822Y62313707D01*
X78120405Y62394196D01*
X78080755Y62468376D01*
X78027395Y62533395D01*
X77962376Y62586755D01*
X77888196Y62626405D01*
X77807707Y62650822D01*
X77724000Y62659066D01*
X76200000Y62659066D01*
X76116293Y62650822D01*
X76035804Y62626405D01*
X75961624Y62586755D01*
X75896605Y62533395D01*
X75843245Y62468376D01*
X75803595Y62394196D01*
X75779178Y62313707D01*
X75770934Y62230000D01*
X73475000Y62230000D01*
X73475000Y62907447D01*
X73540372Y62972819D01*
X73630877Y63108269D01*
X73693218Y63258773D01*
X73725000Y63418548D01*
X73725000Y63581452D01*
X73693218Y63741227D01*
X73630877Y63891731D01*
X73540372Y64027181D01*
X73425181Y64142372D01*
X73289731Y64232877D01*
X73139227Y64295218D01*
X73010426Y64320839D01*
X73027969Y64347094D01*
X73090310Y64497598D01*
X73122092Y64657373D01*
X73122092Y64820277D01*
X73090310Y64980052D01*
X73027969Y65130556D01*
X72937464Y65266006D01*
X72822273Y65381197D01*
X72686823Y65471702D01*
X72536319Y65534043D01*
X72376544Y65565825D01*
X72213640Y65565825D01*
X72053865Y65534043D01*
X71903361Y65471702D01*
X71767911Y65381197D01*
X71652720Y65266006D01*
X71562215Y65130556D01*
X71499874Y64980052D01*
X71468092Y64820277D01*
X71468092Y64657373D01*
X71477448Y64610339D01*
X71316537Y64610339D01*
X71156762Y64578557D01*
X71006258Y64516216D01*
X70870808Y64425711D01*
X70755617Y64310520D01*
X70665112Y64175070D01*
X70602771Y64024566D01*
X70570989Y63864791D01*
X70570989Y63772340D01*
X70569950Y63771301D01*
X70545341Y63746691D01*
X70523332Y63728629D01*
X70505271Y63706622D01*
X70505268Y63706619D01*
X70501385Y63701887D01*
X70451227Y63640770D01*
X70438998Y63617891D01*
X70438998Y64024380D01*
X70442031Y64055174D01*
X70429925Y64178087D01*
X70394073Y64296278D01*
X70335851Y64405202D01*
X70319020Y64425711D01*
X70257499Y64500675D01*
X70233577Y64520307D01*
X68491634Y66262250D01*
X75565000Y66262250D01*
X75565000Y65723458D01*
X75589403Y65600777D01*
X75637270Y65485215D01*
X75706763Y65381211D01*
X75795211Y65292763D01*
X75899215Y65223270D01*
X76014777Y65175403D01*
X76045391Y65169313D01*
X76035804Y65166405D01*
X75961624Y65126755D01*
X75896605Y65073395D01*
X75843245Y65008376D01*
X75803595Y64934196D01*
X75779178Y64853707D01*
X75770934Y64770000D01*
X75770934Y63246000D01*
X75779178Y63162293D01*
X75803595Y63081804D01*
X75843245Y63007624D01*
X75896605Y62942605D01*
X75961624Y62889245D01*
X76035804Y62849595D01*
X76116293Y62825178D01*
X76200000Y62816934D01*
X77724000Y62816934D01*
X77807707Y62825178D01*
X77888196Y62849595D01*
X77962376Y62889245D01*
X78027395Y62942605D01*
X78080755Y63007624D01*
X78120405Y63081804D01*
X78144822Y63162293D01*
X78153066Y63246000D01*
X78153066Y64770000D01*
X78144822Y64853707D01*
X78120405Y64934196D01*
X78080755Y65008376D01*
X78027395Y65073395D01*
X77962376Y65126755D01*
X77888196Y65166405D01*
X77878609Y65169313D01*
X77909223Y65175403D01*
X78024785Y65223270D01*
X78128789Y65292763D01*
X78217237Y65381211D01*
X78232000Y65403305D01*
X78246763Y65381211D01*
X78335211Y65292763D01*
X78439215Y65223270D01*
X78554777Y65175403D01*
X78585391Y65169313D01*
X78575804Y65166405D01*
X78501624Y65126755D01*
X78436605Y65073395D01*
X78383245Y65008376D01*
X78343595Y64934196D01*
X78319178Y64853707D01*
X78310934Y64770000D01*
X78310934Y63246000D01*
X78319178Y63162293D01*
X78343595Y63081804D01*
X78383245Y63007624D01*
X78436605Y62942605D01*
X78501624Y62889245D01*
X78575804Y62849595D01*
X78656293Y62825178D01*
X78740000Y62816934D01*
X80264000Y62816934D01*
X80347707Y62825178D01*
X80428196Y62849595D01*
X80502376Y62889245D01*
X80567395Y62942605D01*
X80620755Y63007624D01*
X80660405Y63081804D01*
X80684822Y63162293D01*
X80693066Y63246000D01*
X80693066Y64770000D01*
X80684822Y64853707D01*
X80660405Y64934196D01*
X80620755Y65008376D01*
X80567395Y65073395D01*
X80502376Y65126755D01*
X80428196Y65166405D01*
X80418609Y65169313D01*
X80449223Y65175403D01*
X80564785Y65223270D01*
X80668789Y65292763D01*
X80757237Y65381211D01*
X80826730Y65485215D01*
X80874597Y65600777D01*
X80899000Y65723458D01*
X80899000Y66262250D01*
X80740250Y66421000D01*
X79629000Y66421000D01*
X79629000Y66401000D01*
X79375000Y66401000D01*
X79375000Y66421000D01*
X78263750Y66421000D01*
X78232000Y66389250D01*
X78200250Y66421000D01*
X77089000Y66421000D01*
X77089000Y66401000D01*
X76835000Y66401000D01*
X76835000Y66421000D01*
X75723750Y66421000D01*
X75565000Y66262250D01*
X68491634Y66262250D01*
X67381342Y67372542D01*
X75565000Y67372542D01*
X75565000Y66833750D01*
X75723750Y66675000D01*
X76835000Y66675000D01*
X76835000Y66695000D01*
X77089000Y66695000D01*
X77089000Y66675000D01*
X78200250Y66675000D01*
X78232000Y66706750D01*
X78263750Y66675000D01*
X79375000Y66675000D01*
X79375000Y66695000D01*
X79629000Y66695000D01*
X79629000Y66675000D01*
X80740250Y66675000D01*
X80899000Y66833750D01*
X80899000Y67372542D01*
X80874597Y67495223D01*
X80826730Y67610785D01*
X80757237Y67714789D01*
X80668789Y67803237D01*
X80564785Y67872730D01*
X80449223Y67920597D01*
X80418609Y67926687D01*
X80428196Y67929595D01*
X80502376Y67969245D01*
X80567395Y68022605D01*
X80620755Y68087624D01*
X80660405Y68161804D01*
X80684822Y68242293D01*
X80693066Y68326000D01*
X80693066Y69850000D01*
X80684822Y69933707D01*
X80660405Y70014196D01*
X80620755Y70088376D01*
X80567395Y70153395D01*
X80502376Y70206755D01*
X80428196Y70246405D01*
X80347707Y70270822D01*
X80264000Y70279066D01*
X78740000Y70279066D01*
X78656293Y70270822D01*
X78575804Y70246405D01*
X78501624Y70206755D01*
X78436605Y70153395D01*
X78383245Y70088376D01*
X78343595Y70014196D01*
X78319178Y69933707D01*
X78310934Y69850000D01*
X78310934Y68326000D01*
X78319178Y68242293D01*
X78343595Y68161804D01*
X78383245Y68087624D01*
X78436605Y68022605D01*
X78501624Y67969245D01*
X78575804Y67929595D01*
X78585391Y67926687D01*
X78554777Y67920597D01*
X78439215Y67872730D01*
X78335211Y67803237D01*
X78246763Y67714789D01*
X78232000Y67692695D01*
X78217237Y67714789D01*
X78128789Y67803237D01*
X78024785Y67872730D01*
X77909223Y67920597D01*
X77878609Y67926687D01*
X77888196Y67929595D01*
X77962376Y67969245D01*
X78027395Y68022605D01*
X78080755Y68087624D01*
X78120405Y68161804D01*
X78144822Y68242293D01*
X78153066Y68326000D01*
X78153066Y69850000D01*
X78144822Y69933707D01*
X78120405Y70014196D01*
X78080755Y70088376D01*
X78027395Y70153395D01*
X77962376Y70206755D01*
X77888196Y70246405D01*
X77807707Y70270822D01*
X77724000Y70279066D01*
X76200000Y70279066D01*
X76116293Y70270822D01*
X76035804Y70246405D01*
X75961624Y70206755D01*
X75896605Y70153395D01*
X75843245Y70088376D01*
X75803595Y70014196D01*
X75779178Y69933707D01*
X75770934Y69850000D01*
X75770934Y68326000D01*
X75779178Y68242293D01*
X75803595Y68161804D01*
X75843245Y68087624D01*
X75896605Y68022605D01*
X75961624Y67969245D01*
X76035804Y67929595D01*
X76045391Y67926687D01*
X76014777Y67920597D01*
X75899215Y67872730D01*
X75795211Y67803237D01*
X75706763Y67714789D01*
X75637270Y67610785D01*
X75589403Y67495223D01*
X75565000Y67372542D01*
X67381342Y67372542D01*
X66363586Y68390297D01*
X66363586Y68412038D01*
X66331804Y68571813D01*
X66269463Y68722317D01*
X66178958Y68857767D01*
X66063767Y68972958D01*
X65928317Y69063463D01*
X65777813Y69125804D01*
X65704537Y69140380D01*
X65805181Y69207628D01*
X65920372Y69322819D01*
X66010877Y69458269D01*
X66073218Y69608773D01*
X66105000Y69768548D01*
X66105000Y69931452D01*
X66073218Y70091227D01*
X66010877Y70241731D01*
X65979293Y70289000D01*
X69511447Y70289000D01*
X69576819Y70223628D01*
X69712269Y70133123D01*
X69862773Y70070782D01*
X70022548Y70039000D01*
X70185452Y70039000D01*
X70345227Y70070782D01*
X70495731Y70133123D01*
X70631181Y70223628D01*
X70746372Y70338819D01*
X70836877Y70474269D01*
X70899218Y70624773D01*
X70931000Y70784548D01*
X70931000Y70947452D01*
X70899218Y71107227D01*
X70836877Y71257731D01*
X70746372Y71393181D01*
X70631181Y71508372D01*
X70524196Y71579857D01*
X70599227Y71594782D01*
X70749731Y71657123D01*
X70885181Y71747628D01*
X71000372Y71862819D01*
X71090877Y71998269D01*
X71153218Y72148773D01*
X71185000Y72308548D01*
X71185000Y72390000D01*
X75770934Y72390000D01*
X75770934Y70866000D01*
X75779178Y70782293D01*
X75803595Y70701804D01*
X75843245Y70627624D01*
X75896605Y70562605D01*
X75961624Y70509245D01*
X76035804Y70469595D01*
X76116293Y70445178D01*
X76200000Y70436934D01*
X77724000Y70436934D01*
X77807707Y70445178D01*
X77888196Y70469595D01*
X77962376Y70509245D01*
X78027395Y70562605D01*
X78080755Y70627624D01*
X78120405Y70701804D01*
X78144822Y70782293D01*
X78153066Y70866000D01*
X78153066Y72390000D01*
X78310934Y72390000D01*
X78310934Y70866000D01*
X78319178Y70782293D01*
X78343595Y70701804D01*
X78383245Y70627624D01*
X78436605Y70562605D01*
X78501624Y70509245D01*
X78575804Y70469595D01*
X78656293Y70445178D01*
X78740000Y70436934D01*
X80264000Y70436934D01*
X80347707Y70445178D01*
X80428196Y70469595D01*
X80502376Y70509245D01*
X80567395Y70562605D01*
X80620755Y70627624D01*
X80660405Y70701804D01*
X80684822Y70782293D01*
X80693066Y70866000D01*
X80693066Y72390000D01*
X80684822Y72473707D01*
X80660405Y72554196D01*
X80620755Y72628376D01*
X80567395Y72693395D01*
X80502376Y72746755D01*
X80428196Y72786405D01*
X80347707Y72810822D01*
X80264000Y72819066D01*
X78740000Y72819066D01*
X78656293Y72810822D01*
X78575804Y72786405D01*
X78501624Y72746755D01*
X78436605Y72693395D01*
X78383245Y72628376D01*
X78343595Y72554196D01*
X78319178Y72473707D01*
X78310934Y72390000D01*
X78153066Y72390000D01*
X78144822Y72473707D01*
X78120405Y72554196D01*
X78080755Y72628376D01*
X78027395Y72693395D01*
X77962376Y72746755D01*
X77888196Y72786405D01*
X77807707Y72810822D01*
X77724000Y72819066D01*
X76200000Y72819066D01*
X76116293Y72810822D01*
X76035804Y72786405D01*
X75961624Y72746755D01*
X75896605Y72693395D01*
X75843245Y72628376D01*
X75803595Y72554196D01*
X75779178Y72473707D01*
X75770934Y72390000D01*
X71185000Y72390000D01*
X71185000Y72471452D01*
X71153218Y72631227D01*
X71090877Y72781731D01*
X71000372Y72917181D01*
X70885181Y73032372D01*
X70749731Y73122877D01*
X70599227Y73185218D01*
X70439452Y73217000D01*
X70276548Y73217000D01*
X70116773Y73185218D01*
X69966269Y73122877D01*
X69830819Y73032372D01*
X69715628Y72917181D01*
X69625123Y72781731D01*
X69562782Y72631227D01*
X69531000Y72471452D01*
X69531000Y72379001D01*
X69095009Y71943010D01*
X59174993Y71943010D01*
X58993002Y72125001D01*
X58993002Y72217452D01*
X58961220Y72377227D01*
X58898879Y72527731D01*
X58808374Y72663181D01*
X58693183Y72778372D01*
X58557733Y72868877D01*
X58407229Y72931218D01*
X58247454Y72963000D01*
X58084550Y72963000D01*
X57924775Y72931218D01*
X57774271Y72868877D01*
X57638821Y72778372D01*
X57523630Y72663181D01*
X57433125Y72527731D01*
X57370784Y72377227D01*
X57339002Y72217452D01*
X57339002Y72072619D01*
X57287731Y72106877D01*
X57137227Y72169218D01*
X56977452Y72201000D01*
X56814548Y72201000D01*
X56654773Y72169218D01*
X56504269Y72106877D01*
X56368819Y72016372D01*
X56253628Y71901181D01*
X56163123Y71765731D01*
X56100782Y71615227D01*
X56069000Y71455452D01*
X52135000Y71455452D01*
X52127035Y71495491D01*
X52123034Y71536120D01*
X52111182Y71575191D01*
X52103218Y71615227D01*
X52087597Y71652939D01*
X52075745Y71692010D01*
X52056498Y71728018D01*
X52040877Y71765731D01*
X52018198Y71799673D01*
X51998952Y71835679D01*
X51973052Y71867238D01*
X51950372Y71901181D01*
X51921505Y71930048D01*
X51895606Y71961606D01*
X51864048Y71987505D01*
X51835181Y72016372D01*
X51801238Y72039052D01*
X51769679Y72064952D01*
X51733673Y72084198D01*
X51699731Y72106877D01*
X51662018Y72122498D01*
X51626010Y72141745D01*
X51586939Y72153597D01*
X51549227Y72169218D01*
X51509191Y72177182D01*
X51470120Y72189034D01*
X51429492Y72193035D01*
X51389452Y72201000D01*
X51348624Y72201000D01*
X51308000Y72205001D01*
X51267376Y72201000D01*
X51226548Y72201000D01*
X51186508Y72193035D01*
X51145881Y72189034D01*
X51106812Y72177182D01*
X51066773Y72169218D01*
X51029058Y72153596D01*
X50989991Y72141745D01*
X50953987Y72122500D01*
X50916269Y72106877D01*
X50882323Y72084195D01*
X50846322Y72064952D01*
X50814767Y72039055D01*
X50780819Y72016372D01*
X50751948Y71987501D01*
X50720395Y71961606D01*
X50694500Y71930053D01*
X50665628Y71901181D01*
X50642944Y71867232D01*
X50617049Y71835679D01*
X50597807Y71799680D01*
X50575123Y71765731D01*
X50559498Y71728009D01*
X50540256Y71692010D01*
X50528407Y71652948D01*
X50512782Y71615227D01*
X50504816Y71575182D01*
X50492967Y71536120D01*
X50488967Y71495501D01*
X50481000Y71455452D01*
X50481000Y71292548D01*
X50481001Y71292543D01*
X50481000Y70185452D01*
X50481000Y70144623D01*
X50481001Y68366623D01*
X50477000Y68326000D01*
X41342000Y68326000D01*
X41342000Y88075449D01*
X41372891Y88390497D01*
X41457256Y88669927D01*
X41594289Y88927647D01*
X41778773Y89153847D01*
X42003673Y89339901D01*
X42260435Y89478731D01*
X42539270Y89565045D01*
X42852812Y89598000D01*
X72024653Y89598000D01*
X72047011Y89600202D01*
X72059461Y89600115D01*
X72066437Y89600799D01*
X72454629Y89641600D01*
X72499168Y89650743D01*
X72543891Y89659274D01*
X72550601Y89661300D01*
X72923476Y89776724D01*
X72965410Y89794352D01*
X73007605Y89811400D01*
X73013794Y89814690D01*
X73357149Y90000341D01*
X73394862Y90025779D01*
X73432942Y90050698D01*
X73438373Y90055128D01*
X73739128Y90303935D01*
X73771154Y90336186D01*
X73803695Y90368052D01*
X73808163Y90373453D01*
X74054864Y90675938D01*
X74080025Y90713809D01*
X74105748Y90751376D01*
X74109081Y90757542D01*
X74292331Y91102183D01*
X74309669Y91144249D01*
X74327594Y91186070D01*
X74329666Y91192765D01*
X74442484Y91566437D01*
X74451324Y91611081D01*
X74460781Y91655573D01*
X74461514Y91662544D01*
X74499604Y92051013D01*
X74499604Y92051019D01*
X74502000Y92075347D01*
X74502000Y92975449D01*
X74532891Y93290497D01*
X74617256Y93569927D01*
X74754289Y93827647D01*
X74938773Y94053847D01*
X75163673Y94239901D01*
X75420435Y94378731D01*
X75699270Y94465045D01*
X76012812Y94498000D01*
X83375449Y94498000D01*
X83690497Y94467109D01*
D25*
G36*
X83925895Y94798410D02*
X84409507Y94578525D01*
X84811972Y94231738D01*
X85100925Y93785939D01*
X85254382Y93272813D01*
X85275000Y92995366D01*
X85275000Y85460623D01*
X40965000Y86096651D01*
X40965000Y88091091D01*
X41041590Y88625895D01*
X41261475Y89109507D01*
X41608262Y89511972D01*
X42054061Y89800925D01*
X42567187Y89954382D01*
X42844634Y89975000D01*
X72012307Y89975000D01*
X72016884Y89975910D01*
X72304882Y89997312D01*
X72317334Y90000050D01*
X72329969Y90001780D01*
X72331435Y90002209D01*
X72874719Y90164686D01*
X72890144Y90171813D01*
X72905606Y90178729D01*
X72906886Y90179548D01*
X72906892Y90179551D01*
X72906896Y90179555D01*
X73382738Y90487980D01*
X73395505Y90499117D01*
X73408442Y90510127D01*
X73409446Y90511278D01*
X73779601Y90940863D01*
X73788745Y90955162D01*
X73798055Y90969334D01*
X73798695Y90970721D01*
X74033401Y91486929D01*
X74038165Y91503219D01*
X74043123Y91519436D01*
X74043349Y91520946D01*
X74123262Y92078955D01*
X74125000Y92087693D01*
X74125000Y92991091D01*
X74201590Y93525895D01*
X74421475Y94009507D01*
X74768262Y94411972D01*
X75214061Y94700925D01*
X75727187Y94854382D01*
X76004634Y94875000D01*
X83391091Y94875000D01*
X83925895Y94798410D01*
X83925895Y94798410D01*
G37*
X83925895Y94798410D02*
X84409507Y94578525D01*
X84811972Y94231738D01*
X85100925Y93785939D01*
X85254382Y93272813D01*
X85275000Y92995366D01*
X85275000Y85460623D01*
X40965000Y86096651D01*
X40965000Y88091091D01*
X41041590Y88625895D01*
X41261475Y89109507D01*
X41608262Y89511972D01*
X42054061Y89800925D01*
X42567187Y89954382D01*
X42844634Y89975000D01*
X72012307Y89975000D01*
X72016884Y89975910D01*
X72304882Y89997312D01*
X72317334Y90000050D01*
X72329969Y90001780D01*
X72331435Y90002209D01*
X72874719Y90164686D01*
X72890144Y90171813D01*
X72905606Y90178729D01*
X72906886Y90179548D01*
X72906892Y90179551D01*
X72906896Y90179555D01*
X73382738Y90487980D01*
X73395505Y90499117D01*
X73408442Y90510127D01*
X73409446Y90511278D01*
X73779601Y90940863D01*
X73788745Y90955162D01*
X73798055Y90969334D01*
X73798695Y90970721D01*
X74033401Y91486929D01*
X74038165Y91503219D01*
X74043123Y91519436D01*
X74043349Y91520946D01*
X74123262Y92078955D01*
X74125000Y92087693D01*
X74125000Y92991091D01*
X74201590Y93525895D01*
X74421475Y94009507D01*
X74768262Y94411972D01*
X75214061Y94700925D01*
X75727187Y94854382D01*
X76004634Y94875000D01*
X83391091Y94875000D01*
X83925895Y94798410D01*
G36*
X84409507Y94578525D02*
X84811972Y94231738D01*
X85100925Y93785939D01*
X85254382Y93272813D01*
X85275000Y92995366D01*
X85275001Y69987693D01*
X85276537Y69979969D01*
X85323111Y69611298D01*
X85325230Y69604211D01*
X85325811Y69596830D01*
X85332799Y69576422D01*
X85531963Y69125923D01*
X85537368Y69117694D01*
X85541277Y69108661D01*
X85554492Y69091624D01*
X85554498Y69091616D01*
X85554502Y69091613D01*
X85888849Y68729917D01*
X85896625Y68723885D01*
X85903252Y68716602D01*
X85921282Y68704759D01*
X86354767Y68470864D01*
X86364083Y68467675D01*
X86372707Y68462933D01*
X86393601Y68457568D01*
X86877578Y68377012D01*
X86887693Y68375000D01*
X87489666Y68375000D01*
X87944830Y68299240D01*
X88341694Y68085104D01*
X88647797Y67753963D01*
X88831154Y67339220D01*
X88875001Y66992130D01*
X88875000Y3508908D01*
X88798411Y2974108D01*
X88578524Y2490491D01*
X88231739Y2088029D01*
X87785939Y1799075D01*
X87272812Y1645618D01*
X86995366Y1625000D01*
X84124000Y1625000D01*
X84124000Y94708337D01*
X84409507Y94578525D01*
X84409507Y94578525D01*
G37*
X84409507Y94578525D02*
X84811972Y94231738D01*
X85100925Y93785939D01*
X85254382Y93272813D01*
X85275000Y92995366D01*
X85275001Y69987693D01*
X85276537Y69979969D01*
X85323111Y69611298D01*
X85325230Y69604211D01*
X85325811Y69596830D01*
X85332799Y69576422D01*
X85531963Y69125923D01*
X85537368Y69117694D01*
X85541277Y69108661D01*
X85554492Y69091624D01*
X85554498Y69091616D01*
X85554502Y69091613D01*
X85888849Y68729917D01*
X85896625Y68723885D01*
X85903252Y68716602D01*
X85921282Y68704759D01*
X86354767Y68470864D01*
X86364083Y68467675D01*
X86372707Y68462933D01*
X86393601Y68457568D01*
X86877578Y68377012D01*
X86887693Y68375000D01*
X87489666Y68375000D01*
X87944830Y68299240D01*
X88341694Y68085104D01*
X88647797Y67753963D01*
X88831154Y67339220D01*
X88875001Y66992130D01*
X88875000Y3508908D01*
X88798411Y2974108D01*
X88578524Y2490491D01*
X88231739Y2088029D01*
X87785939Y1799075D01*
X87272812Y1645618D01*
X86995366Y1625000D01*
X84124000Y1625000D01*
X84124000Y94708337D01*
X84409507Y94578525D01*
G36*
X88875000Y3508908D02*
X88798411Y2974108D01*
X88578524Y2490491D01*
X88231739Y2088029D01*
X87785939Y1799075D01*
X87272812Y1645618D01*
X86995366Y1625000D01*
X80008908Y1625000D01*
X79474108Y1701589D01*
X78990491Y1921476D01*
X78588029Y2268261D01*
X78299075Y2714061D01*
X78145618Y3227188D01*
X78124656Y3509263D01*
X78124656Y3509264D01*
X78102688Y3804882D01*
X78099950Y3817334D01*
X78098220Y3829969D01*
X78097791Y3831435D01*
X77935314Y4374720D01*
X77928180Y4390161D01*
X77921271Y4405606D01*
X77920448Y4406893D01*
X77612020Y4882738D01*
X77600885Y4895502D01*
X77589873Y4908442D01*
X77588726Y4909442D01*
X77588722Y4909446D01*
X77588717Y4909449D01*
X77159137Y5279601D01*
X77144819Y5288758D01*
X77130665Y5298055D01*
X77129279Y5298696D01*
X76613070Y5533401D01*
X76596793Y5538161D01*
X76580564Y5543123D01*
X76579055Y5543349D01*
X76579053Y5543349D01*
X76021045Y5623262D01*
X76012307Y5625000D01*
X42848908Y5625000D01*
X42314108Y5701589D01*
X41830491Y5921476D01*
X41428029Y6268261D01*
X41139075Y6714061D01*
X40985618Y7227188D01*
X40980980Y7289600D01*
X47316700Y7289600D01*
X47316700Y7022107D01*
X47401650Y6817018D01*
X47558618Y6660051D01*
X47763707Y6575100D01*
X48031200Y6575100D01*
X48170700Y6714600D01*
X48170700Y7289600D01*
X48316700Y7289600D01*
X48316700Y7022107D01*
X48401650Y6817018D01*
X48558618Y6660051D01*
X48686021Y6607279D01*
X48718200Y6575100D01*
X49681200Y6575100D01*
X49820700Y6714600D01*
X49820700Y7429100D01*
X50228700Y7429100D01*
X50228700Y6714600D01*
X50368200Y6575100D01*
X51285693Y6575100D01*
X51490782Y6660051D01*
X51647750Y6817018D01*
X51732700Y7022107D01*
X51732700Y7289600D01*
X52816700Y7289600D01*
X52816700Y7022107D01*
X52901650Y6817018D01*
X53058618Y6660051D01*
X53263707Y6575100D01*
X54931200Y6575100D01*
X55070700Y6714600D01*
X55070700Y7429100D01*
X55478700Y7429100D01*
X55478700Y6714600D01*
X55618200Y6575100D01*
X57285693Y6575100D01*
X57490782Y6660051D01*
X57647750Y6817018D01*
X57732700Y7022107D01*
X57732700Y7289600D01*
X58816700Y7289600D01*
X58816700Y7022107D01*
X58901650Y6817018D01*
X59058618Y6660051D01*
X59263707Y6575100D01*
X60931200Y6575100D01*
X61070700Y6714600D01*
X61070700Y7429100D01*
X61478700Y7429100D01*
X61478700Y6714600D01*
X61618200Y6575100D01*
X63285693Y6575100D01*
X63490782Y6660051D01*
X63647750Y6817018D01*
X63732700Y7022107D01*
X63732700Y7289600D01*
X64816700Y7289600D01*
X64816700Y7022107D01*
X64901650Y6817018D01*
X65058618Y6660051D01*
X65263707Y6575100D01*
X66931200Y6575100D01*
X67070700Y6714600D01*
X67070700Y7429100D01*
X67478700Y7429100D01*
X67478700Y6714600D01*
X67618200Y6575100D01*
X69285693Y6575100D01*
X69490782Y6660051D01*
X69647750Y6817018D01*
X69732700Y7022107D01*
X69732700Y7289600D01*
X70816700Y7289600D01*
X70816700Y7022107D01*
X70901650Y6817018D01*
X71058618Y6660051D01*
X71263707Y6575100D01*
X72931200Y6575100D01*
X73070700Y6714600D01*
X73070700Y7429100D01*
X73478700Y7429100D01*
X73478700Y6714600D01*
X73618200Y6575100D01*
X75285693Y6575100D01*
X75490782Y6660051D01*
X75647750Y6817018D01*
X75732700Y7022107D01*
X75732700Y7289600D01*
X76816700Y7289600D01*
X76816700Y7022107D01*
X76901650Y6817018D01*
X77058618Y6660051D01*
X77263707Y6575100D01*
X78181200Y6575100D01*
X78320700Y6714600D01*
X78320700Y7429100D01*
X78728700Y7429100D01*
X78728700Y6714600D01*
X78868200Y6575100D01*
X79831200Y6575100D01*
X79863379Y6607279D01*
X79990782Y6660051D01*
X80147750Y6817018D01*
X80232700Y7022107D01*
X80232700Y7289600D01*
X80093200Y7429100D01*
X80378700Y7429100D01*
X80378700Y6714600D01*
X80518200Y6575100D01*
X80785693Y6575100D01*
X80990782Y6660051D01*
X81147750Y6817018D01*
X81232700Y7022107D01*
X81232700Y7289600D01*
X81093200Y7429100D01*
X80378700Y7429100D01*
X80093200Y7429100D01*
X78728700Y7429100D01*
X78320700Y7429100D01*
X76956200Y7429100D01*
X76816700Y7289600D01*
X75732700Y7289600D01*
X75593200Y7429100D01*
X73478700Y7429100D01*
X73070700Y7429100D01*
X70956200Y7429100D01*
X70816700Y7289600D01*
X69732700Y7289600D01*
X69593200Y7429100D01*
X67478700Y7429100D01*
X67070700Y7429100D01*
X64956200Y7429100D01*
X64816700Y7289600D01*
X63732700Y7289600D01*
X63593200Y7429100D01*
X61478700Y7429100D01*
X61070700Y7429100D01*
X58956200Y7429100D01*
X58816700Y7289600D01*
X57732700Y7289600D01*
X57593200Y7429100D01*
X55478700Y7429100D01*
X55070700Y7429100D01*
X52956200Y7429100D01*
X52816700Y7289600D01*
X51732700Y7289600D01*
X51593200Y7429100D01*
X50228700Y7429100D01*
X49820700Y7429100D01*
X48456200Y7429100D01*
X48316700Y7289600D01*
X48170700Y7289600D01*
X48170700Y7429100D01*
X47456200Y7429100D01*
X47316700Y7289600D01*
X40980980Y7289600D01*
X40965000Y7504634D01*
X40965000Y8357595D01*
X47316700Y8419866D01*
X47316700Y7976600D01*
X47348878Y7944422D01*
X47401650Y7817018D01*
X47558618Y7660051D01*
X47763707Y7575100D01*
X48031200Y7575100D01*
X48170700Y7714600D01*
X48170700Y7857100D01*
X48436200Y7857100D01*
X48456200Y7837100D01*
X48578700Y7837100D01*
X48578700Y7714600D01*
X48718200Y7575100D01*
X48985693Y7575100D01*
X49190782Y7660051D01*
X49347750Y7817018D01*
X49356068Y7837100D01*
X49820700Y7837100D01*
X49820700Y7857100D01*
X50228700Y7857100D01*
X50228700Y7837100D01*
X51593200Y7837100D01*
X51732700Y7976600D01*
X51732700Y8244093D01*
X51647750Y8449182D01*
X51634732Y8462200D01*
X52927341Y8474873D01*
X52901650Y8449182D01*
X52816700Y8244093D01*
X52816700Y7976600D01*
X52956200Y7837100D01*
X55070700Y7837100D01*
X55070700Y7857100D01*
X55478700Y7857100D01*
X55478700Y7837100D01*
X57593200Y7837100D01*
X57732700Y7976600D01*
X57732700Y8244093D01*
X57647750Y8449182D01*
X57576479Y8520453D01*
X58986747Y8534279D01*
X58901650Y8449182D01*
X58816700Y8244093D01*
X58816700Y7976600D01*
X58956200Y7837100D01*
X61070700Y7837100D01*
X61070700Y7857100D01*
X61478700Y7857100D01*
X61478700Y7837100D01*
X63593200Y7837100D01*
X63732700Y7976600D01*
X63732700Y8244093D01*
X63647750Y8449182D01*
X63518226Y8578705D01*
X65046154Y8593685D01*
X64901650Y8449182D01*
X64816700Y8244093D01*
X64816700Y7976600D01*
X64956200Y7837100D01*
X67070700Y7837100D01*
X67070700Y7857100D01*
X67478700Y7857100D01*
X67478700Y7837100D01*
X69593200Y7837100D01*
X69732700Y7976600D01*
X69732700Y8244093D01*
X69647750Y8449182D01*
X69490782Y8606149D01*
X69417411Y8636540D01*
X71173554Y8653757D01*
X71058618Y8606149D01*
X70901650Y8449182D01*
X70816700Y8244093D01*
X70816700Y7976600D01*
X70956200Y7837100D01*
X73070700Y7837100D01*
X73070700Y7857100D01*
X73478700Y7857100D01*
X73478700Y7837100D01*
X75593200Y7837100D01*
X75732700Y7976600D01*
X75732700Y8244093D01*
X76816700Y8244093D01*
X76816700Y7976600D01*
X76956200Y7837100D01*
X78320700Y7837100D01*
X78320700Y8551600D01*
X78181200Y8691100D01*
X77263707Y8691100D01*
X77058618Y8606149D01*
X76901650Y8449182D01*
X76816700Y8244093D01*
X75732700Y8244093D01*
X75647750Y8449182D01*
X75490782Y8606149D01*
X75285693Y8691100D01*
X74982510Y8691100D01*
X79116700Y8731631D01*
X79116700Y8691100D01*
X78868200Y8691100D01*
X78728700Y8551600D01*
X78728700Y7837100D01*
X79193332Y7837100D01*
X79201650Y7817018D01*
X79358618Y7660051D01*
X79563707Y7575100D01*
X79831200Y7575100D01*
X79970700Y7714600D01*
X79970700Y7837100D01*
X80093200Y7837100D01*
X80232700Y7976600D01*
X80232700Y8244093D01*
X80147750Y8449182D01*
X79990782Y8606149D01*
X79970700Y8614467D01*
X79970700Y8740004D01*
X80378700Y8744004D01*
X80378700Y7714600D01*
X80518200Y7575100D01*
X80785693Y7575100D01*
X80990782Y7660051D01*
X81147750Y7817018D01*
X81200522Y7944422D01*
X81232700Y7976600D01*
X81232700Y8752376D01*
X88875000Y8827301D01*
X88875000Y3508908D01*
X88875000Y3508908D01*
G37*
X88875000Y3508908D02*
X88798411Y2974108D01*
X88578524Y2490491D01*
X88231739Y2088029D01*
X87785939Y1799075D01*
X87272812Y1645618D01*
X86995366Y1625000D01*
X80008908Y1625000D01*
X79474108Y1701589D01*
X78990491Y1921476D01*
X78588029Y2268261D01*
X78299075Y2714061D01*
X78145618Y3227188D01*
X78124656Y3509263D01*
X78124656Y3509264D01*
X78102688Y3804882D01*
X78099950Y3817334D01*
X78098220Y3829969D01*
X78097791Y3831435D01*
X77935314Y4374720D01*
X77928180Y4390161D01*
X77921271Y4405606D01*
X77920448Y4406893D01*
X77612020Y4882738D01*
X77600885Y4895502D01*
X77589873Y4908442D01*
X77588726Y4909442D01*
X77588722Y4909446D01*
X77588717Y4909449D01*
X77159137Y5279601D01*
X77144819Y5288758D01*
X77130665Y5298055D01*
X77129279Y5298696D01*
X76613070Y5533401D01*
X76596793Y5538161D01*
X76580564Y5543123D01*
X76579055Y5543349D01*
X76579053Y5543349D01*
X76021045Y5623262D01*
X76012307Y5625000D01*
X42848908Y5625000D01*
X42314108Y5701589D01*
X41830491Y5921476D01*
X41428029Y6268261D01*
X41139075Y6714061D01*
X40985618Y7227188D01*
X40980980Y7289600D01*
X47316700Y7289600D01*
X47316700Y7022107D01*
X47401650Y6817018D01*
X47558618Y6660051D01*
X47763707Y6575100D01*
X48031200Y6575100D01*
X48170700Y6714600D01*
X48170700Y7289600D01*
X48316700Y7289600D01*
X48316700Y7022107D01*
X48401650Y6817018D01*
X48558618Y6660051D01*
X48686021Y6607279D01*
X48718200Y6575100D01*
X49681200Y6575100D01*
X49820700Y6714600D01*
X49820700Y7429100D01*
X50228700Y7429100D01*
X50228700Y6714600D01*
X50368200Y6575100D01*
X51285693Y6575100D01*
X51490782Y6660051D01*
X51647750Y6817018D01*
X51732700Y7022107D01*
X51732700Y7289600D01*
X52816700Y7289600D01*
X52816700Y7022107D01*
X52901650Y6817018D01*
X53058618Y6660051D01*
X53263707Y6575100D01*
X54931200Y6575100D01*
X55070700Y6714600D01*
X55070700Y7429100D01*
X55478700Y7429100D01*
X55478700Y6714600D01*
X55618200Y6575100D01*
X57285693Y6575100D01*
X57490782Y6660051D01*
X57647750Y6817018D01*
X57732700Y7022107D01*
X57732700Y7289600D01*
X58816700Y7289600D01*
X58816700Y7022107D01*
X58901650Y6817018D01*
X59058618Y6660051D01*
X59263707Y6575100D01*
X60931200Y6575100D01*
X61070700Y6714600D01*
X61070700Y7429100D01*
X61478700Y7429100D01*
X61478700Y6714600D01*
X61618200Y6575100D01*
X63285693Y6575100D01*
X63490782Y6660051D01*
X63647750Y6817018D01*
X63732700Y7022107D01*
X63732700Y7289600D01*
X64816700Y7289600D01*
X64816700Y7022107D01*
X64901650Y6817018D01*
X65058618Y6660051D01*
X65263707Y6575100D01*
X66931200Y6575100D01*
X67070700Y6714600D01*
X67070700Y7429100D01*
X67478700Y7429100D01*
X67478700Y6714600D01*
X67618200Y6575100D01*
X69285693Y6575100D01*
X69490782Y6660051D01*
X69647750Y6817018D01*
X69732700Y7022107D01*
X69732700Y7289600D01*
X70816700Y7289600D01*
X70816700Y7022107D01*
X70901650Y6817018D01*
X71058618Y6660051D01*
X71263707Y6575100D01*
X72931200Y6575100D01*
X73070700Y6714600D01*
X73070700Y7429100D01*
X73478700Y7429100D01*
X73478700Y6714600D01*
X73618200Y6575100D01*
X75285693Y6575100D01*
X75490782Y6660051D01*
X75647750Y6817018D01*
X75732700Y7022107D01*
X75732700Y7289600D01*
X76816700Y7289600D01*
X76816700Y7022107D01*
X76901650Y6817018D01*
X77058618Y6660051D01*
X77263707Y6575100D01*
X78181200Y6575100D01*
X78320700Y6714600D01*
X78320700Y7429100D01*
X78728700Y7429100D01*
X78728700Y6714600D01*
X78868200Y6575100D01*
X79831200Y6575100D01*
X79863379Y6607279D01*
X79990782Y6660051D01*
X80147750Y6817018D01*
X80232700Y7022107D01*
X80232700Y7289600D01*
X80093200Y7429100D01*
X80378700Y7429100D01*
X80378700Y6714600D01*
X80518200Y6575100D01*
X80785693Y6575100D01*
X80990782Y6660051D01*
X81147750Y6817018D01*
X81232700Y7022107D01*
X81232700Y7289600D01*
X81093200Y7429100D01*
X80378700Y7429100D01*
X80093200Y7429100D01*
X78728700Y7429100D01*
X78320700Y7429100D01*
X76956200Y7429100D01*
X76816700Y7289600D01*
X75732700Y7289600D01*
X75593200Y7429100D01*
X73478700Y7429100D01*
X73070700Y7429100D01*
X70956200Y7429100D01*
X70816700Y7289600D01*
X69732700Y7289600D01*
X69593200Y7429100D01*
X67478700Y7429100D01*
X67070700Y7429100D01*
X64956200Y7429100D01*
X64816700Y7289600D01*
X63732700Y7289600D01*
X63593200Y7429100D01*
X61478700Y7429100D01*
X61070700Y7429100D01*
X58956200Y7429100D01*
X58816700Y7289600D01*
X57732700Y7289600D01*
X57593200Y7429100D01*
X55478700Y7429100D01*
X55070700Y7429100D01*
X52956200Y7429100D01*
X52816700Y7289600D01*
X51732700Y7289600D01*
X51593200Y7429100D01*
X50228700Y7429100D01*
X49820700Y7429100D01*
X48456200Y7429100D01*
X48316700Y7289600D01*
X48170700Y7289600D01*
X48170700Y7429100D01*
X47456200Y7429100D01*
X47316700Y7289600D01*
X40980980Y7289600D01*
X40965000Y7504634D01*
X40965000Y8357595D01*
X47316700Y8419866D01*
X47316700Y7976600D01*
X47348878Y7944422D01*
X47401650Y7817018D01*
X47558618Y7660051D01*
X47763707Y7575100D01*
X48031200Y7575100D01*
X48170700Y7714600D01*
X48170700Y7857100D01*
X48436200Y7857100D01*
X48456200Y7837100D01*
X48578700Y7837100D01*
X48578700Y7714600D01*
X48718200Y7575100D01*
X48985693Y7575100D01*
X49190782Y7660051D01*
X49347750Y7817018D01*
X49356068Y7837100D01*
X49820700Y7837100D01*
X49820700Y7857100D01*
X50228700Y7857100D01*
X50228700Y7837100D01*
X51593200Y7837100D01*
X51732700Y7976600D01*
X51732700Y8244093D01*
X51647750Y8449182D01*
X51634732Y8462200D01*
X52927341Y8474873D01*
X52901650Y8449182D01*
X52816700Y8244093D01*
X52816700Y7976600D01*
X52956200Y7837100D01*
X55070700Y7837100D01*
X55070700Y7857100D01*
X55478700Y7857100D01*
X55478700Y7837100D01*
X57593200Y7837100D01*
X57732700Y7976600D01*
X57732700Y8244093D01*
X57647750Y8449182D01*
X57576479Y8520453D01*
X58986747Y8534279D01*
X58901650Y8449182D01*
X58816700Y8244093D01*
X58816700Y7976600D01*
X58956200Y7837100D01*
X61070700Y7837100D01*
X61070700Y7857100D01*
X61478700Y7857100D01*
X61478700Y7837100D01*
X63593200Y7837100D01*
X63732700Y7976600D01*
X63732700Y8244093D01*
X63647750Y8449182D01*
X63518226Y8578705D01*
X65046154Y8593685D01*
X64901650Y8449182D01*
X64816700Y8244093D01*
X64816700Y7976600D01*
X64956200Y7837100D01*
X67070700Y7837100D01*
X67070700Y7857100D01*
X67478700Y7857100D01*
X67478700Y7837100D01*
X69593200Y7837100D01*
X69732700Y7976600D01*
X69732700Y8244093D01*
X69647750Y8449182D01*
X69490782Y8606149D01*
X69417411Y8636540D01*
X71173554Y8653757D01*
X71058618Y8606149D01*
X70901650Y8449182D01*
X70816700Y8244093D01*
X70816700Y7976600D01*
X70956200Y7837100D01*
X73070700Y7837100D01*
X73070700Y7857100D01*
X73478700Y7857100D01*
X73478700Y7837100D01*
X75593200Y7837100D01*
X75732700Y7976600D01*
X75732700Y8244093D01*
X76816700Y8244093D01*
X76816700Y7976600D01*
X76956200Y7837100D01*
X78320700Y7837100D01*
X78320700Y8551600D01*
X78181200Y8691100D01*
X77263707Y8691100D01*
X77058618Y8606149D01*
X76901650Y8449182D01*
X76816700Y8244093D01*
X75732700Y8244093D01*
X75647750Y8449182D01*
X75490782Y8606149D01*
X75285693Y8691100D01*
X74982510Y8691100D01*
X79116700Y8731631D01*
X79116700Y8691100D01*
X78868200Y8691100D01*
X78728700Y8551600D01*
X78728700Y7837100D01*
X79193332Y7837100D01*
X79201650Y7817018D01*
X79358618Y7660051D01*
X79563707Y7575100D01*
X79831200Y7575100D01*
X79970700Y7714600D01*
X79970700Y7837100D01*
X80093200Y7837100D01*
X80232700Y7976600D01*
X80232700Y8244093D01*
X80147750Y8449182D01*
X79990782Y8606149D01*
X79970700Y8614467D01*
X79970700Y8740004D01*
X80378700Y8744004D01*
X80378700Y7714600D01*
X80518200Y7575100D01*
X80785693Y7575100D01*
X80990782Y7660051D01*
X81147750Y7817018D01*
X81200522Y7944422D01*
X81232700Y7976600D01*
X81232700Y8752376D01*
X88875000Y8827301D01*
X88875000Y3508908D01*
G36*
X61070698Y8551602D02*
X61067621Y8554679D01*
X61070698Y8554709D01*
X61070698Y8551602D01*
X61070698Y8551602D01*
G37*
X61070698Y8551602D02*
X61067621Y8554679D01*
X61070698Y8554709D01*
X61070698Y8551602D01*
G36*
X61478702Y8551602D02*
X61478702Y8558710D01*
X61485880Y8558780D01*
X61478702Y8551602D01*
X61478702Y8551602D01*
G37*
X61478702Y8551602D02*
X61478702Y8558710D01*
X61485880Y8558780D01*
X61478702Y8551602D01*
G36*
X67070698Y8551602D02*
X67009368Y8612932D01*
X67070698Y8613533D01*
X67070698Y8551602D01*
X67070698Y8551602D01*
G37*
X67070698Y8551602D02*
X67009368Y8612932D01*
X67070698Y8613533D01*
X67070698Y8551602D01*
G36*
X67478702Y8551602D02*
X67478702Y8617533D01*
X67545286Y8618186D01*
X67478702Y8551602D01*
X67478702Y8551602D01*
G37*
X67478702Y8551602D02*
X67478702Y8617533D01*
X67545286Y8618186D01*
X67478702Y8551602D01*
G36*
X73070698Y8551602D02*
X72951116Y8671184D01*
X73070698Y8672356D01*
X73070698Y8551602D01*
X73070698Y8551602D01*
G37*
X73070698Y8551602D02*
X72951116Y8671184D01*
X73070698Y8672356D01*
X73070698Y8551602D01*
G36*
X73478702Y8551602D02*
X73478702Y8676357D01*
X73604692Y8677592D01*
X73478702Y8551602D01*
X73478702Y8551602D01*
G37*
X73478702Y8551602D02*
X73478702Y8676357D01*
X73604692Y8677592D01*
X73478702Y8551602D01*
G36*
X44829037Y73854000D02*
X44259500Y73854000D01*
X44120000Y73714500D01*
X44120000Y73000000D01*
X44140000Y73000000D01*
X44140000Y72592000D01*
X44120000Y72592000D01*
X44120000Y71877500D01*
X44259500Y71738000D01*
X44846769Y71738000D01*
X45095518Y42054000D01*
X44259500Y42054000D01*
X44120000Y41914500D01*
X44120000Y41200000D01*
X44140000Y41200000D01*
X44140000Y40792000D01*
X44120000Y40792000D01*
X44120000Y40077500D01*
X44259500Y39938000D01*
X45113250Y39938000D01*
X45400789Y5625000D01*
X42848908Y5625000D01*
X42314108Y5701589D01*
X41830491Y5921476D01*
X41428029Y6268261D01*
X41139075Y6714061D01*
X40985618Y7227188D01*
X40965000Y7504634D01*
X40965000Y40652500D01*
X41208000Y40652500D01*
X41208000Y40385007D01*
X41292951Y40179918D01*
X41449918Y40022950D01*
X41655007Y39938000D01*
X41922500Y39938000D01*
X42062000Y40077500D01*
X42062000Y40652500D01*
X42208000Y40652500D01*
X42208000Y40385007D01*
X42292951Y40179918D01*
X42449918Y40022950D01*
X42577322Y39970178D01*
X42609500Y39938000D01*
X43572500Y39938000D01*
X43712000Y40077500D01*
X43712000Y40792000D01*
X42347500Y40792000D01*
X42208000Y40652500D01*
X42062000Y40652500D01*
X42062000Y40792000D01*
X41347500Y40792000D01*
X41208000Y40652500D01*
X40965000Y40652500D01*
X40965000Y42302500D01*
X41208000Y42302500D01*
X41208000Y41339500D01*
X41240179Y41307321D01*
X41292951Y41179918D01*
X41449918Y41022950D01*
X41655007Y40938000D01*
X41922500Y40938000D01*
X42062000Y41077500D01*
X42062000Y41606993D01*
X42208000Y41606993D01*
X42208000Y41339500D01*
X42347500Y41200000D01*
X42470000Y41200000D01*
X42470000Y41077500D01*
X42609500Y40938000D01*
X42876993Y40938000D01*
X43082082Y41022950D01*
X43239049Y41179918D01*
X43247367Y41200000D01*
X43712000Y41200000D01*
X43712000Y41914500D01*
X43572500Y42054000D01*
X43324000Y42054000D01*
X43324000Y42302500D01*
X43184500Y42442000D01*
X42470000Y42442000D01*
X42470000Y41977368D01*
X42449918Y41969050D01*
X42292951Y41812082D01*
X42208000Y41606993D01*
X42062000Y41606993D01*
X42062000Y42442000D01*
X41347500Y42442000D01*
X41208000Y42302500D01*
X40965000Y42302500D01*
X40965000Y43906993D01*
X41208000Y43906993D01*
X41208000Y42989500D01*
X41347500Y42850000D01*
X42062000Y42850000D01*
X42062000Y44214500D01*
X42470000Y44214500D01*
X42470000Y42850000D01*
X43184500Y42850000D01*
X43324000Y42989500D01*
X43324000Y43906993D01*
X43239049Y44112082D01*
X43082082Y44269050D01*
X42876993Y44354000D01*
X42609500Y44354000D01*
X42470000Y44214500D01*
X42062000Y44214500D01*
X41922500Y44354000D01*
X41655007Y44354000D01*
X41449918Y44269050D01*
X41292951Y44112082D01*
X41208000Y43906993D01*
X40965000Y43906993D01*
X40965000Y47552500D01*
X41208000Y47552500D01*
X41208000Y45885007D01*
X41292951Y45679918D01*
X41449918Y45522950D01*
X41655007Y45438000D01*
X41922500Y45438000D01*
X42062000Y45577500D01*
X42062000Y47692000D01*
X42470000Y47692000D01*
X42470000Y45577500D01*
X42609500Y45438000D01*
X42876993Y45438000D01*
X43082082Y45522950D01*
X43239049Y45679918D01*
X43324000Y45885007D01*
X43324000Y47552500D01*
X43184500Y47692000D01*
X42470000Y47692000D01*
X42062000Y47692000D01*
X41347500Y47692000D01*
X41208000Y47552500D01*
X40965000Y47552500D01*
X40965000Y49906993D01*
X41208000Y49906993D01*
X41208000Y48239500D01*
X41347500Y48100000D01*
X42062000Y48100000D01*
X42062000Y50214500D01*
X42470000Y50214500D01*
X42470000Y48100000D01*
X43184500Y48100000D01*
X43324000Y48239500D01*
X43324000Y49906993D01*
X43239049Y50112082D01*
X43082082Y50269050D01*
X42876993Y50354000D01*
X42609500Y50354000D01*
X42470000Y50214500D01*
X42062000Y50214500D01*
X41922500Y50354000D01*
X41655007Y50354000D01*
X41449918Y50269050D01*
X41292951Y50112082D01*
X41208000Y49906993D01*
X40965000Y49906993D01*
X40965000Y53552500D01*
X41208000Y53552500D01*
X41208000Y51885007D01*
X41292951Y51679918D01*
X41449918Y51522950D01*
X41655007Y51438000D01*
X41922500Y51438000D01*
X42062000Y51577500D01*
X42062000Y53692000D01*
X42470000Y53692000D01*
X42470000Y51577500D01*
X42609500Y51438000D01*
X42876993Y51438000D01*
X43082082Y51522950D01*
X43239049Y51679918D01*
X43324000Y51885007D01*
X43324000Y53552500D01*
X43184500Y53692000D01*
X42470000Y53692000D01*
X42062000Y53692000D01*
X41347500Y53692000D01*
X41208000Y53552500D01*
X40965000Y53552500D01*
X40965000Y55906993D01*
X41208000Y55906993D01*
X41208000Y54239500D01*
X41347500Y54100000D01*
X42062000Y54100000D01*
X42062000Y56214500D01*
X42470000Y56214500D01*
X42470000Y54100000D01*
X43184500Y54100000D01*
X43324000Y54239500D01*
X43324000Y55906993D01*
X43239049Y56112082D01*
X43082082Y56269050D01*
X42876993Y56354000D01*
X42609500Y56354000D01*
X42470000Y56214500D01*
X42062000Y56214500D01*
X41922500Y56354000D01*
X41655007Y56354000D01*
X41449918Y56269050D01*
X41292951Y56112082D01*
X41208000Y55906993D01*
X40965000Y55906993D01*
X40965000Y59552500D01*
X41208000Y59552500D01*
X41208000Y57885007D01*
X41292951Y57679918D01*
X41449918Y57522950D01*
X41655007Y57438000D01*
X41922500Y57438000D01*
X42062000Y57577500D01*
X42062000Y59692000D01*
X42470000Y59692000D01*
X42470000Y57577500D01*
X42609500Y57438000D01*
X42876993Y57438000D01*
X43082082Y57522950D01*
X43239049Y57679918D01*
X43324000Y57885007D01*
X43324000Y59552500D01*
X43184500Y59692000D01*
X42470000Y59692000D01*
X42062000Y59692000D01*
X41347500Y59692000D01*
X41208000Y59552500D01*
X40965000Y59552500D01*
X40965000Y61906993D01*
X41208000Y61906993D01*
X41208000Y60239500D01*
X41347500Y60100000D01*
X42062000Y60100000D01*
X42062000Y62214500D01*
X42470000Y62214500D01*
X42470000Y60100000D01*
X43184500Y60100000D01*
X43324000Y60239500D01*
X43324000Y61906993D01*
X43239049Y62112082D01*
X43082082Y62269050D01*
X42876993Y62354000D01*
X42609500Y62354000D01*
X42470000Y62214500D01*
X42062000Y62214500D01*
X41922500Y62354000D01*
X41655007Y62354000D01*
X41449918Y62269050D01*
X41292951Y62112082D01*
X41208000Y61906993D01*
X40965000Y61906993D01*
X40965000Y65552500D01*
X41208000Y65552500D01*
X41208000Y63885007D01*
X41292951Y63679918D01*
X41449918Y63522950D01*
X41655007Y63438000D01*
X41922500Y63438000D01*
X42062000Y63577500D01*
X42062000Y65692000D01*
X42470000Y65692000D01*
X42470000Y63577500D01*
X42609500Y63438000D01*
X42876993Y63438000D01*
X43082082Y63522950D01*
X43239049Y63679918D01*
X43324000Y63885007D01*
X43324000Y65552500D01*
X43184500Y65692000D01*
X42470000Y65692000D01*
X42062000Y65692000D01*
X41347500Y65692000D01*
X41208000Y65552500D01*
X40965000Y65552500D01*
X40965000Y67906993D01*
X41208000Y67906993D01*
X41208000Y66239500D01*
X41347500Y66100000D01*
X42062000Y66100000D01*
X42062000Y68214500D01*
X42470000Y68214500D01*
X42470000Y66100000D01*
X43184500Y66100000D01*
X43324000Y66239500D01*
X43324000Y67906993D01*
X43239049Y68112082D01*
X43082082Y68269050D01*
X42876993Y68354000D01*
X42609500Y68354000D01*
X42470000Y68214500D01*
X42062000Y68214500D01*
X41922500Y68354000D01*
X41655007Y68354000D01*
X41449918Y68269050D01*
X41292951Y68112082D01*
X41208000Y67906993D01*
X40965000Y67906993D01*
X40965000Y70802500D01*
X41208000Y70802500D01*
X41208000Y69885007D01*
X41292951Y69679918D01*
X41449918Y69522950D01*
X41655007Y69438000D01*
X41922500Y69438000D01*
X42062000Y69577500D01*
X42062000Y70942000D01*
X42470000Y70942000D01*
X42470000Y69577500D01*
X42609500Y69438000D01*
X42876993Y69438000D01*
X43082082Y69522950D01*
X43239049Y69679918D01*
X43324000Y69885007D01*
X43324000Y70802500D01*
X43184500Y70942000D01*
X42470000Y70942000D01*
X42062000Y70942000D01*
X41347500Y70942000D01*
X41208000Y70802500D01*
X40965000Y70802500D01*
X40965000Y72452500D01*
X41208000Y72452500D01*
X41208000Y71489500D01*
X41347500Y71350000D01*
X42062000Y71350000D01*
X42062000Y72452500D01*
X42208000Y72452500D01*
X42208000Y72185007D01*
X42292951Y71979918D01*
X42449918Y71822950D01*
X42470000Y71814632D01*
X42470000Y71350000D01*
X43184500Y71350000D01*
X43324000Y71489500D01*
X43324000Y71738000D01*
X43572500Y71738000D01*
X43712000Y71877500D01*
X43712000Y72592000D01*
X43247367Y72592000D01*
X43239049Y72612082D01*
X43082082Y72769050D01*
X42876993Y72854000D01*
X42609500Y72854000D01*
X42470000Y72714500D01*
X42470000Y72592000D01*
X42347500Y72592000D01*
X42208000Y72452500D01*
X42062000Y72452500D01*
X42062000Y72714500D01*
X41922500Y72854000D01*
X41655007Y72854000D01*
X41449918Y72769050D01*
X41292951Y72612082D01*
X41240179Y72484679D01*
X41208000Y72452500D01*
X40965000Y72452500D01*
X40965000Y73406993D01*
X41208000Y73406993D01*
X41208000Y73139500D01*
X41347500Y73000000D01*
X42062000Y73000000D01*
X42062000Y73406993D01*
X42208000Y73406993D01*
X42208000Y73139500D01*
X42347500Y73000000D01*
X43712000Y73000000D01*
X43712000Y73714500D01*
X43572500Y73854000D01*
X42609500Y73854000D01*
X42577322Y73821822D01*
X42449918Y73769050D01*
X42292951Y73612082D01*
X42208000Y73406993D01*
X42062000Y73406993D01*
X42062000Y73714500D01*
X41922500Y73854000D01*
X41655007Y73854000D01*
X41449918Y73769050D01*
X41292951Y73612082D01*
X41208000Y73406993D01*
X40965000Y73406993D01*
X40965000Y88091091D01*
X41041590Y88625895D01*
X41261475Y89109507D01*
X41608262Y89511972D01*
X42054061Y89800925D01*
X42567187Y89954382D01*
X42844634Y89975000D01*
X44693945Y89975000D01*
X44829037Y73854000D01*
X44829037Y73854000D01*
G37*
X44829037Y73854000D02*
X44259500Y73854000D01*
X44120000Y73714500D01*
X44120000Y73000000D01*
X44140000Y73000000D01*
X44140000Y72592000D01*
X44120000Y72592000D01*
X44120000Y71877500D01*
X44259500Y71738000D01*
X44846769Y71738000D01*
X45095518Y42054000D01*
X44259500Y42054000D01*
X44120000Y41914500D01*
X44120000Y41200000D01*
X44140000Y41200000D01*
X44140000Y40792000D01*
X44120000Y40792000D01*
X44120000Y40077500D01*
X44259500Y39938000D01*
X45113250Y39938000D01*
X45400789Y5625000D01*
X42848908Y5625000D01*
X42314108Y5701589D01*
X41830491Y5921476D01*
X41428029Y6268261D01*
X41139075Y6714061D01*
X40985618Y7227188D01*
X40965000Y7504634D01*
X40965000Y40652500D01*
X41208000Y40652500D01*
X41208000Y40385007D01*
X41292951Y40179918D01*
X41449918Y40022950D01*
X41655007Y39938000D01*
X41922500Y39938000D01*
X42062000Y40077500D01*
X42062000Y40652500D01*
X42208000Y40652500D01*
X42208000Y40385007D01*
X42292951Y40179918D01*
X42449918Y40022950D01*
X42577322Y39970178D01*
X42609500Y39938000D01*
X43572500Y39938000D01*
X43712000Y40077500D01*
X43712000Y40792000D01*
X42347500Y40792000D01*
X42208000Y40652500D01*
X42062000Y40652500D01*
X42062000Y40792000D01*
X41347500Y40792000D01*
X41208000Y40652500D01*
X40965000Y40652500D01*
X40965000Y42302500D01*
X41208000Y42302500D01*
X41208000Y41339500D01*
X41240179Y41307321D01*
X41292951Y41179918D01*
X41449918Y41022950D01*
X41655007Y40938000D01*
X41922500Y40938000D01*
X42062000Y41077500D01*
X42062000Y41606993D01*
X42208000Y41606993D01*
X42208000Y41339500D01*
X42347500Y41200000D01*
X42470000Y41200000D01*
X42470000Y41077500D01*
X42609500Y40938000D01*
X42876993Y40938000D01*
X43082082Y41022950D01*
X43239049Y41179918D01*
X43247367Y41200000D01*
X43712000Y41200000D01*
X43712000Y41914500D01*
X43572500Y42054000D01*
X43324000Y42054000D01*
X43324000Y42302500D01*
X43184500Y42442000D01*
X42470000Y42442000D01*
X42470000Y41977368D01*
X42449918Y41969050D01*
X42292951Y41812082D01*
X42208000Y41606993D01*
X42062000Y41606993D01*
X42062000Y42442000D01*
X41347500Y42442000D01*
X41208000Y42302500D01*
X40965000Y42302500D01*
X40965000Y43906993D01*
X41208000Y43906993D01*
X41208000Y42989500D01*
X41347500Y42850000D01*
X42062000Y42850000D01*
X42062000Y44214500D01*
X42470000Y44214500D01*
X42470000Y42850000D01*
X43184500Y42850000D01*
X43324000Y42989500D01*
X43324000Y43906993D01*
X43239049Y44112082D01*
X43082082Y44269050D01*
X42876993Y44354000D01*
X42609500Y44354000D01*
X42470000Y44214500D01*
X42062000Y44214500D01*
X41922500Y44354000D01*
X41655007Y44354000D01*
X41449918Y44269050D01*
X41292951Y44112082D01*
X41208000Y43906993D01*
X40965000Y43906993D01*
X40965000Y47552500D01*
X41208000Y47552500D01*
X41208000Y45885007D01*
X41292951Y45679918D01*
X41449918Y45522950D01*
X41655007Y45438000D01*
X41922500Y45438000D01*
X42062000Y45577500D01*
X42062000Y47692000D01*
X42470000Y47692000D01*
X42470000Y45577500D01*
X42609500Y45438000D01*
X42876993Y45438000D01*
X43082082Y45522950D01*
X43239049Y45679918D01*
X43324000Y45885007D01*
X43324000Y47552500D01*
X43184500Y47692000D01*
X42470000Y47692000D01*
X42062000Y47692000D01*
X41347500Y47692000D01*
X41208000Y47552500D01*
X40965000Y47552500D01*
X40965000Y49906993D01*
X41208000Y49906993D01*
X41208000Y48239500D01*
X41347500Y48100000D01*
X42062000Y48100000D01*
X42062000Y50214500D01*
X42470000Y50214500D01*
X42470000Y48100000D01*
X43184500Y48100000D01*
X43324000Y48239500D01*
X43324000Y49906993D01*
X43239049Y50112082D01*
X43082082Y50269050D01*
X42876993Y50354000D01*
X42609500Y50354000D01*
X42470000Y50214500D01*
X42062000Y50214500D01*
X41922500Y50354000D01*
X41655007Y50354000D01*
X41449918Y50269050D01*
X41292951Y50112082D01*
X41208000Y49906993D01*
X40965000Y49906993D01*
X40965000Y53552500D01*
X41208000Y53552500D01*
X41208000Y51885007D01*
X41292951Y51679918D01*
X41449918Y51522950D01*
X41655007Y51438000D01*
X41922500Y51438000D01*
X42062000Y51577500D01*
X42062000Y53692000D01*
X42470000Y53692000D01*
X42470000Y51577500D01*
X42609500Y51438000D01*
X42876993Y51438000D01*
X43082082Y51522950D01*
X43239049Y51679918D01*
X43324000Y51885007D01*
X43324000Y53552500D01*
X43184500Y53692000D01*
X42470000Y53692000D01*
X42062000Y53692000D01*
X41347500Y53692000D01*
X41208000Y53552500D01*
X40965000Y53552500D01*
X40965000Y55906993D01*
X41208000Y55906993D01*
X41208000Y54239500D01*
X41347500Y54100000D01*
X42062000Y54100000D01*
X42062000Y56214500D01*
X42470000Y56214500D01*
X42470000Y54100000D01*
X43184500Y54100000D01*
X43324000Y54239500D01*
X43324000Y55906993D01*
X43239049Y56112082D01*
X43082082Y56269050D01*
X42876993Y56354000D01*
X42609500Y56354000D01*
X42470000Y56214500D01*
X42062000Y56214500D01*
X41922500Y56354000D01*
X41655007Y56354000D01*
X41449918Y56269050D01*
X41292951Y56112082D01*
X41208000Y55906993D01*
X40965000Y55906993D01*
X40965000Y59552500D01*
X41208000Y59552500D01*
X41208000Y57885007D01*
X41292951Y57679918D01*
X41449918Y57522950D01*
X41655007Y57438000D01*
X41922500Y57438000D01*
X42062000Y57577500D01*
X42062000Y59692000D01*
X42470000Y59692000D01*
X42470000Y57577500D01*
X42609500Y57438000D01*
X42876993Y57438000D01*
X43082082Y57522950D01*
X43239049Y57679918D01*
X43324000Y57885007D01*
X43324000Y59552500D01*
X43184500Y59692000D01*
X42470000Y59692000D01*
X42062000Y59692000D01*
X41347500Y59692000D01*
X41208000Y59552500D01*
X40965000Y59552500D01*
X40965000Y61906993D01*
X41208000Y61906993D01*
X41208000Y60239500D01*
X41347500Y60100000D01*
X42062000Y60100000D01*
X42062000Y62214500D01*
X42470000Y62214500D01*
X42470000Y60100000D01*
X43184500Y60100000D01*
X43324000Y60239500D01*
X43324000Y61906993D01*
X43239049Y62112082D01*
X43082082Y62269050D01*
X42876993Y62354000D01*
X42609500Y62354000D01*
X42470000Y62214500D01*
X42062000Y62214500D01*
X41922500Y62354000D01*
X41655007Y62354000D01*
X41449918Y62269050D01*
X41292951Y62112082D01*
X41208000Y61906993D01*
X40965000Y61906993D01*
X40965000Y65552500D01*
X41208000Y65552500D01*
X41208000Y63885007D01*
X41292951Y63679918D01*
X41449918Y63522950D01*
X41655007Y63438000D01*
X41922500Y63438000D01*
X42062000Y63577500D01*
X42062000Y65692000D01*
X42470000Y65692000D01*
X42470000Y63577500D01*
X42609500Y63438000D01*
X42876993Y63438000D01*
X43082082Y63522950D01*
X43239049Y63679918D01*
X43324000Y63885007D01*
X43324000Y65552500D01*
X43184500Y65692000D01*
X42470000Y65692000D01*
X42062000Y65692000D01*
X41347500Y65692000D01*
X41208000Y65552500D01*
X40965000Y65552500D01*
X40965000Y67906993D01*
X41208000Y67906993D01*
X41208000Y66239500D01*
X41347500Y66100000D01*
X42062000Y66100000D01*
X42062000Y68214500D01*
X42470000Y68214500D01*
X42470000Y66100000D01*
X43184500Y66100000D01*
X43324000Y66239500D01*
X43324000Y67906993D01*
X43239049Y68112082D01*
X43082082Y68269050D01*
X42876993Y68354000D01*
X42609500Y68354000D01*
X42470000Y68214500D01*
X42062000Y68214500D01*
X41922500Y68354000D01*
X41655007Y68354000D01*
X41449918Y68269050D01*
X41292951Y68112082D01*
X41208000Y67906993D01*
X40965000Y67906993D01*
X40965000Y70802500D01*
X41208000Y70802500D01*
X41208000Y69885007D01*
X41292951Y69679918D01*
X41449918Y69522950D01*
X41655007Y69438000D01*
X41922500Y69438000D01*
X42062000Y69577500D01*
X42062000Y70942000D01*
X42470000Y70942000D01*
X42470000Y69577500D01*
X42609500Y69438000D01*
X42876993Y69438000D01*
X43082082Y69522950D01*
X43239049Y69679918D01*
X43324000Y69885007D01*
X43324000Y70802500D01*
X43184500Y70942000D01*
X42470000Y70942000D01*
X42062000Y70942000D01*
X41347500Y70942000D01*
X41208000Y70802500D01*
X40965000Y70802500D01*
X40965000Y72452500D01*
X41208000Y72452500D01*
X41208000Y71489500D01*
X41347500Y71350000D01*
X42062000Y71350000D01*
X42062000Y72452500D01*
X42208000Y72452500D01*
X42208000Y72185007D01*
X42292951Y71979918D01*
X42449918Y71822950D01*
X42470000Y71814632D01*
X42470000Y71350000D01*
X43184500Y71350000D01*
X43324000Y71489500D01*
X43324000Y71738000D01*
X43572500Y71738000D01*
X43712000Y71877500D01*
X43712000Y72592000D01*
X43247367Y72592000D01*
X43239049Y72612082D01*
X43082082Y72769050D01*
X42876993Y72854000D01*
X42609500Y72854000D01*
X42470000Y72714500D01*
X42470000Y72592000D01*
X42347500Y72592000D01*
X42208000Y72452500D01*
X42062000Y72452500D01*
X42062000Y72714500D01*
X41922500Y72854000D01*
X41655007Y72854000D01*
X41449918Y72769050D01*
X41292951Y72612082D01*
X41240179Y72484679D01*
X41208000Y72452500D01*
X40965000Y72452500D01*
X40965000Y73406993D01*
X41208000Y73406993D01*
X41208000Y73139500D01*
X41347500Y73000000D01*
X42062000Y73000000D01*
X42062000Y73406993D01*
X42208000Y73406993D01*
X42208000Y73139500D01*
X42347500Y73000000D01*
X43712000Y73000000D01*
X43712000Y73714500D01*
X43572500Y73854000D01*
X42609500Y73854000D01*
X42577322Y73821822D01*
X42449918Y73769050D01*
X42292951Y73612082D01*
X42208000Y73406993D01*
X42062000Y73406993D01*
X42062000Y73714500D01*
X41922500Y73854000D01*
X41655007Y73854000D01*
X41449918Y73769050D01*
X41292951Y73612082D01*
X41208000Y73406993D01*
X40965000Y73406993D01*
X40965000Y88091091D01*
X41041590Y88625895D01*
X41261475Y89109507D01*
X41608262Y89511972D01*
X42054061Y89800925D01*
X42567187Y89954382D01*
X42844634Y89975000D01*
X44693945Y89975000D01*
X44829037Y73854000D01*
G36*
X83925895Y94798410D02*
X84409507Y94578525D01*
X84811972Y94231738D01*
X85100925Y93785939D01*
X85254382Y93272813D01*
X85275000Y92995366D01*
X85275000Y85415551D01*
X40965000Y85870012D01*
X40965000Y88091091D01*
X41041590Y88625895D01*
X41261475Y89109507D01*
X41608262Y89511972D01*
X42054061Y89800925D01*
X42567187Y89954382D01*
X42844634Y89975000D01*
X72012307Y89975000D01*
X72016884Y89975910D01*
X72304882Y89997312D01*
X72317334Y90000050D01*
X72329969Y90001780D01*
X72331435Y90002209D01*
X72874719Y90164686D01*
X72890144Y90171813D01*
X72905606Y90178729D01*
X72906886Y90179548D01*
X72906892Y90179551D01*
X72906896Y90179555D01*
X73382738Y90487980D01*
X73395505Y90499117D01*
X73408442Y90510127D01*
X73409446Y90511278D01*
X73779601Y90940863D01*
X73788745Y90955162D01*
X73798055Y90969334D01*
X73798695Y90970721D01*
X74033401Y91486929D01*
X74038165Y91503219D01*
X74043123Y91519436D01*
X74043349Y91520946D01*
X74123262Y92078955D01*
X74125000Y92087693D01*
X74125000Y92991091D01*
X74201590Y93525895D01*
X74421475Y94009507D01*
X74768262Y94411972D01*
X75214061Y94700925D01*
X75727187Y94854382D01*
X76004634Y94875000D01*
X83391091Y94875000D01*
X83925895Y94798410D01*
X83925895Y94798410D01*
G37*
X83925895Y94798410D02*
X84409507Y94578525D01*
X84811972Y94231738D01*
X85100925Y93785939D01*
X85254382Y93272813D01*
X85275000Y92995366D01*
X85275000Y85415551D01*
X40965000Y85870012D01*
X40965000Y88091091D01*
X41041590Y88625895D01*
X41261475Y89109507D01*
X41608262Y89511972D01*
X42054061Y89800925D01*
X42567187Y89954382D01*
X42844634Y89975000D01*
X72012307Y89975000D01*
X72016884Y89975910D01*
X72304882Y89997312D01*
X72317334Y90000050D01*
X72329969Y90001780D01*
X72331435Y90002209D01*
X72874719Y90164686D01*
X72890144Y90171813D01*
X72905606Y90178729D01*
X72906886Y90179548D01*
X72906892Y90179551D01*
X72906896Y90179555D01*
X73382738Y90487980D01*
X73395505Y90499117D01*
X73408442Y90510127D01*
X73409446Y90511278D01*
X73779601Y90940863D01*
X73788745Y90955162D01*
X73798055Y90969334D01*
X73798695Y90970721D01*
X74033401Y91486929D01*
X74038165Y91503219D01*
X74043123Y91519436D01*
X74043349Y91520946D01*
X74123262Y92078955D01*
X74125000Y92087693D01*
X74125000Y92991091D01*
X74201590Y93525895D01*
X74421475Y94009507D01*
X74768262Y94411972D01*
X75214061Y94700925D01*
X75727187Y94854382D01*
X76004634Y94875000D01*
X83391091Y94875000D01*
X83925895Y94798410D01*
G04 #@! TD*
M02*
