G04 #@! TF.GenerationSoftware,KiCad,Pcbnew,(6.0.0-rc1-dev-1606-g4cd41e394)*
G04 #@! TF.CreationDate,2019-01-30T22:16:11+01:00
G04 #@! TF.ProjectId,SPACEDOS01A_PCB01A,53504143-4544-44f5-9330-31415f504342,REV*
G04 #@! TF.SameCoordinates,Original*
G04 #@! TF.FileFunction,Copper,L1,Top*
G04 #@! TF.FilePolarity,Positive*
%FSLAX46Y46*%
G04 Gerber Fmt 4.6, Leading zero omitted, Abs format (unit mm)*
G04 Created by KiCad (PCBNEW (6.0.0-rc1-dev-1606-g4cd41e394)) date 30.01.2019 22:16:11*
%MOMM*%
%LPD*%
G04 APERTURE LIST*
%ADD10C,6.000000*%
%ADD11R,1.524000X1.524000*%
%ADD12C,1.501140*%
%ADD13C,1.524000*%
%ADD14C,0.800000*%
%ADD15C,0.250000*%
%ADD16C,0.400000*%
%ADD17C,0.800000*%
%ADD18C,0.254000*%
G04 APERTURE END LIST*
D10*
X86360000Y45720000D03*
X5080000Y45720000D03*
X5080000Y5080000D03*
D11*
X87503000Y30988000D03*
X84963000Y30988000D03*
D10*
X86360000Y5080000D03*
D12*
X50391060Y34544000D03*
X55272940Y34544000D03*
D11*
X87503000Y25908000D03*
X84963000Y25908000D03*
X87503000Y28448000D03*
X84963000Y28448000D03*
X84963000Y23368000D03*
X87503000Y23368000D03*
D13*
X10360000Y34190000D03*
X15360000Y34190000D03*
D11*
X84963000Y36068000D03*
X87503000Y36068000D03*
X84963000Y33528000D03*
X87503000Y33528000D03*
D14*
X37465000Y15875000D03*
X12860000Y23870000D03*
X14732000Y22352000D03*
X12225000Y21965000D03*
X10668000Y21965000D03*
X10320000Y25775000D03*
X10320000Y27680000D03*
X10320000Y28950000D03*
X10319457Y30200565D03*
X4064000Y34544000D03*
X12225000Y31490000D03*
X30640000Y30220000D03*
X31910000Y30220000D03*
X33428186Y28701814D03*
X38895000Y30220000D03*
X33218000Y27680000D03*
X34450000Y29420000D03*
X37625000Y21965000D03*
X38895000Y21965000D03*
X39530000Y29585000D03*
X38768000Y25902000D03*
X30767000Y28823000D03*
X29862000Y28823000D03*
X4986000Y25648000D03*
X4986000Y26918000D03*
X9304000Y22092000D03*
X33434000Y24632000D03*
X50038000Y13716000D03*
X51308000Y13716000D03*
X52578000Y13716000D03*
X50038000Y12446000D03*
X51308000Y12446000D03*
X52578000Y12446000D03*
X33020000Y13716000D03*
X32766000Y12192000D03*
X34290000Y12192000D03*
X35814000Y12192000D03*
X37338000Y12192000D03*
X39116000Y12192000D03*
X40640000Y12192000D03*
X28575000Y11430000D03*
X26670000Y12700000D03*
X26670000Y13970000D03*
X27940000Y15240000D03*
X27940000Y16510000D03*
X27305000Y17780000D03*
X26035000Y18415000D03*
X24765000Y18415000D03*
X23495000Y18415000D03*
X22225000Y18415000D03*
X20955000Y17780000D03*
X19685000Y16510000D03*
X18415000Y15875000D03*
X17145000Y15875000D03*
X15240000Y15875000D03*
X13970000Y17145000D03*
X12700000Y17145000D03*
X17780000Y19050000D03*
X17780000Y20320000D03*
X17780000Y21590000D03*
X19050000Y21590000D03*
X19050000Y20320000D03*
X20320000Y21590000D03*
X21590000Y21590000D03*
X22860000Y21590000D03*
X24130000Y21590000D03*
X25400000Y21590000D03*
X26670000Y21590000D03*
X21590000Y22860000D03*
X21590000Y24892000D03*
X22860000Y24892000D03*
X22860000Y22860000D03*
X31115000Y22225000D03*
X29972000Y21844000D03*
X30480000Y20320000D03*
X30480000Y19050000D03*
X31750000Y19050000D03*
X31750000Y20320000D03*
X32385000Y21590000D03*
X34290000Y22225000D03*
X34036000Y17272000D03*
X34290000Y18415000D03*
X33655000Y19685000D03*
X32512000Y17272000D03*
X10795000Y17145000D03*
X8890000Y17145000D03*
X7620000Y17780000D03*
X5715000Y17780000D03*
X4445000Y18415000D03*
X3175000Y19685000D03*
X2540000Y20955000D03*
X2540000Y22225000D03*
X2540000Y24130000D03*
X2540000Y26035000D03*
X2540000Y27940000D03*
X2540000Y29845000D03*
X2540000Y31750000D03*
X2540000Y33020000D03*
X5715000Y33020000D03*
X6985000Y31750000D03*
X7620000Y33020000D03*
X8255000Y34290000D03*
X8255000Y35560000D03*
X10160000Y36195000D03*
X11430000Y36195000D03*
X12065000Y34925000D03*
X10795000Y31750000D03*
X12065000Y33020000D03*
X5080000Y35560000D03*
X13970000Y34925000D03*
X14605000Y36195000D03*
X15875000Y36195000D03*
X16510000Y37465000D03*
X16510000Y38735000D03*
X19685000Y30480000D03*
X20955000Y30480000D03*
X22225000Y30480000D03*
X23368000Y29972000D03*
X24765000Y32004000D03*
X26035000Y30988000D03*
X27305000Y30480000D03*
X27305000Y31750000D03*
X27940000Y33020000D03*
X28575000Y34290000D03*
X26035000Y33655000D03*
X26035000Y35560000D03*
X27305000Y36195000D03*
X28575000Y36195000D03*
X29845000Y35560000D03*
X31115000Y35560000D03*
X32385000Y35560000D03*
X33655000Y35560000D03*
X34925000Y35560000D03*
X36195000Y36195000D03*
X36195000Y37465000D03*
X37465000Y38100000D03*
X38735000Y37465000D03*
X40005000Y37465000D03*
X40894000Y35306000D03*
X40894000Y34036000D03*
X40894000Y32512000D03*
X40894000Y31496000D03*
X41656000Y30480000D03*
X42926000Y30480000D03*
X43688000Y29464000D03*
X50800000Y39116000D03*
X52324000Y39116000D03*
X53848000Y39116000D03*
X55372000Y39116000D03*
X56896000Y39116000D03*
X58420000Y39116000D03*
X59944000Y39116000D03*
X61468000Y39116000D03*
X59436000Y26924000D03*
X60960000Y26924000D03*
X61976000Y26924000D03*
X62992000Y26924000D03*
X58928000Y20320000D03*
X53848000Y20320000D03*
X57912000Y24892000D03*
X69596000Y24892000D03*
X70104000Y22352000D03*
X76200000Y31496000D03*
X66548000Y31496000D03*
X64008000Y32004000D03*
X67183000Y38735000D03*
X68453000Y38735000D03*
X75311000Y14605000D03*
X51054000Y32512000D03*
X50038000Y21717000D03*
X49657000Y32512000D03*
X54864000Y24892000D03*
X54229000Y28829000D03*
X6096000Y36576000D03*
X7112000Y37592000D03*
X8636000Y38608000D03*
X10160000Y38608000D03*
X11684000Y38608000D03*
X13208000Y38608000D03*
X14224000Y37592000D03*
X79248000Y21844000D03*
X79248000Y20320000D03*
X78232000Y19304000D03*
X78232000Y39243000D03*
X76708000Y39243000D03*
X75184000Y39243000D03*
X73660000Y39243000D03*
X72136000Y39243000D03*
X70612000Y39243000D03*
X69596000Y39243000D03*
X87884000Y12192000D03*
X87884000Y13716000D03*
X88392000Y16764000D03*
X79248000Y33528000D03*
X67056000Y34036000D03*
X37625000Y36570000D03*
X33815000Y26410000D03*
X59690000Y29210000D03*
X78740000Y31115000D03*
X65747314Y29387314D03*
X71882000Y24638000D03*
X67056000Y29210000D03*
X71374778Y27336070D03*
X51435000Y24765000D03*
X55245000Y27140000D03*
X61976000Y34671000D03*
X71374000Y35306000D03*
X60325000Y34671000D03*
X72066686Y36191990D03*
X28862000Y20060000D03*
X28862000Y32506000D03*
X64389000Y19558000D03*
X64389000Y20574000D03*
X59182000Y15367000D03*
X58420000Y15367000D03*
X76200000Y33020000D03*
X63754000Y33020000D03*
X65532000Y19177000D03*
X51943000Y21844000D03*
X31496000Y25527000D03*
X65405000Y27940000D03*
X43180000Y31750000D03*
X62865000Y31115000D03*
D15*
X12225000Y21965000D02*
X14130000Y21965000D01*
X10320000Y28950000D02*
X10320000Y27680000D01*
X12205565Y30200565D02*
X10319457Y30200565D01*
X13495000Y31490000D02*
X12205565Y30200565D01*
D16*
X31910000Y30220000D02*
X30640000Y30220000D01*
X34146372Y29420000D02*
X33428186Y28701814D01*
X34450000Y29420000D02*
X34146372Y29420000D01*
X34450000Y28912000D02*
X33218000Y27680000D01*
X34450000Y29420000D02*
X34450000Y28912000D01*
X38895000Y21965000D02*
X37625000Y21965000D01*
X39530000Y29585000D02*
X39530000Y26664000D01*
X39530000Y26664000D02*
X38768000Y25902000D01*
D15*
X29862000Y28823000D02*
X30767000Y28823000D01*
X4986000Y25648000D02*
X4986000Y26918000D01*
X33434000Y24632000D02*
X33434000Y23362000D01*
X33434000Y23362000D02*
X33688000Y23108000D01*
D16*
X37625000Y30220000D02*
X37625000Y36570000D01*
X33815000Y26410000D02*
X37625000Y30220000D01*
X78174315Y31115000D02*
X77285315Y30226000D01*
X78740000Y31115000D02*
X78174315Y31115000D01*
X60706000Y30226000D02*
X59690000Y29210000D01*
X77285315Y30226000D02*
X60706000Y30226000D01*
X70827999Y25692001D02*
X71882000Y24638000D01*
X65747314Y29387314D02*
X69442627Y25692001D01*
X69442627Y25692001D02*
X70827999Y25692001D01*
X68929930Y27336070D02*
X71374778Y27336070D01*
X67056000Y29210000D02*
X68929930Y27336070D01*
X51435000Y24765000D02*
X53810000Y27140000D01*
X53810000Y27140000D02*
X55245000Y27140000D01*
X61976000Y34671000D02*
X62611000Y35306000D01*
X62611000Y35306000D02*
X71374000Y35306000D01*
X60325000Y34671000D02*
X61845990Y36191990D01*
X61845990Y36191990D02*
X72066686Y36191990D01*
D17*
X28862000Y32506000D02*
X28862000Y20060000D01*
X63373000Y15367000D02*
X59182000Y15367000D01*
X64389000Y16383000D02*
X63373000Y15367000D01*
X64389000Y20574000D02*
X64389000Y16383000D01*
X59182000Y15367000D02*
X58420000Y15367000D01*
D16*
X76200000Y33020000D02*
X63754000Y33020000D01*
D17*
X64643000Y21844000D02*
X51943000Y21844000D01*
X65532000Y20955000D02*
X64643000Y21844000D01*
X65532000Y19177000D02*
X65532000Y20955000D01*
D16*
X34148003Y25101999D02*
X45548999Y25101999D01*
X31496000Y25527000D02*
X33723002Y25527000D01*
X33723002Y25527000D02*
X34148003Y25101999D01*
X48387000Y27940000D02*
X48323500Y27876500D01*
X65405000Y27940000D02*
X48387000Y27940000D01*
X45548999Y25101999D02*
X48323500Y27876500D01*
X43180000Y31750000D02*
X43815000Y31115000D01*
X43815000Y31115000D02*
X62865000Y31115000D01*
D18*
G36*
X90451000Y989000D02*
G01*
X989000Y989000D01*
X989000Y32607939D01*
X27827000Y32607939D01*
X27827000Y32556837D01*
X27827001Y20161944D01*
X27827000Y20161939D01*
X27827000Y19958061D01*
X27836971Y19907933D01*
X27841977Y19857105D01*
X27856803Y19808232D01*
X27866774Y19758102D01*
X27886335Y19710878D01*
X27901160Y19662007D01*
X27925235Y19616966D01*
X27944795Y19569744D01*
X27973191Y19527247D01*
X27997267Y19482203D01*
X28029668Y19442722D01*
X28058063Y19400226D01*
X28094203Y19364086D01*
X28126605Y19324604D01*
X28166087Y19292202D01*
X28202226Y19256063D01*
X28244721Y19227669D01*
X28284204Y19195266D01*
X28329250Y19171188D01*
X28371744Y19142795D01*
X28418962Y19123237D01*
X28464008Y19099159D01*
X28512884Y19084332D01*
X28560102Y19064774D01*
X28610226Y19054804D01*
X28659106Y19039976D01*
X28709942Y19034969D01*
X28760061Y19025000D01*
X28811162Y19025000D01*
X28862000Y19019993D01*
X28912838Y19025000D01*
X28963939Y19025000D01*
X29014057Y19034969D01*
X29064895Y19039976D01*
X29113777Y19054804D01*
X29163898Y19064774D01*
X29211113Y19084331D01*
X29259993Y19099159D01*
X29305042Y19123238D01*
X29352256Y19142795D01*
X29394746Y19171186D01*
X29439797Y19195266D01*
X29479284Y19227672D01*
X29521774Y19256063D01*
X29557908Y19292197D01*
X29597396Y19324604D01*
X29629803Y19364092D01*
X29665937Y19400226D01*
X29694328Y19442716D01*
X29726734Y19482203D01*
X29750814Y19527254D01*
X29779205Y19569744D01*
X29798762Y19616958D01*
X29822841Y19662007D01*
X29837669Y19710887D01*
X29857226Y19758102D01*
X29867196Y19808223D01*
X29882024Y19857105D01*
X29887031Y19907943D01*
X29897000Y19958061D01*
X29897000Y21844000D01*
X50902993Y21844000D01*
X50908000Y21793162D01*
X50908000Y21742061D01*
X50917969Y21691943D01*
X50922976Y21641105D01*
X50937804Y21592223D01*
X50947774Y21542102D01*
X50967331Y21494887D01*
X50982159Y21446007D01*
X51006238Y21400958D01*
X51025795Y21353744D01*
X51054186Y21311254D01*
X51078266Y21266203D01*
X51110672Y21226716D01*
X51139063Y21184226D01*
X51175196Y21148093D01*
X51207604Y21108604D01*
X51247092Y21076197D01*
X51283226Y21040063D01*
X51325716Y21011672D01*
X51365203Y20979266D01*
X51410254Y20955186D01*
X51452744Y20926795D01*
X51499958Y20907238D01*
X51545007Y20883159D01*
X51593887Y20868331D01*
X51641102Y20848774D01*
X51691223Y20838804D01*
X51740105Y20823976D01*
X51790943Y20818969D01*
X51841061Y20809000D01*
X63378715Y20809000D01*
X63368976Y20776894D01*
X63363969Y20726058D01*
X63354000Y20675939D01*
X63354000Y20624837D01*
X63354001Y16811712D01*
X62944290Y16402000D01*
X58318061Y16402000D01*
X58267943Y16392031D01*
X58217105Y16387024D01*
X58168223Y16372196D01*
X58118102Y16362226D01*
X58070887Y16342669D01*
X58022007Y16327841D01*
X57976958Y16303762D01*
X57929744Y16284205D01*
X57887254Y16255814D01*
X57842203Y16231734D01*
X57802716Y16199328D01*
X57760226Y16170937D01*
X57724092Y16134803D01*
X57684604Y16102396D01*
X57652197Y16062908D01*
X57616063Y16026774D01*
X57587672Y15984284D01*
X57555266Y15944797D01*
X57531186Y15899746D01*
X57502795Y15857256D01*
X57483238Y15810042D01*
X57459159Y15764993D01*
X57444331Y15716113D01*
X57424774Y15668898D01*
X57414804Y15618777D01*
X57399976Y15569895D01*
X57394969Y15519057D01*
X57385000Y15468939D01*
X57385000Y15417838D01*
X57379993Y15367000D01*
X57385000Y15316162D01*
X57385000Y15265061D01*
X57394969Y15214943D01*
X57399976Y15164105D01*
X57414804Y15115223D01*
X57424774Y15065102D01*
X57444331Y15017887D01*
X57459159Y14969007D01*
X57483238Y14923958D01*
X57502795Y14876744D01*
X57531186Y14834254D01*
X57555266Y14789203D01*
X57587672Y14749716D01*
X57616063Y14707226D01*
X57652197Y14671092D01*
X57684604Y14631604D01*
X57724092Y14599197D01*
X57760226Y14563063D01*
X57802716Y14534672D01*
X57842203Y14502266D01*
X57887254Y14478186D01*
X57929744Y14449795D01*
X57976958Y14430238D01*
X58022007Y14406159D01*
X58070887Y14391331D01*
X58118102Y14371774D01*
X58168223Y14361804D01*
X58217105Y14346976D01*
X58267943Y14341969D01*
X58318061Y14332000D01*
X63322172Y14332000D01*
X63373000Y14326994D01*
X63423828Y14332000D01*
X63423838Y14332000D01*
X63575895Y14346976D01*
X63770993Y14406159D01*
X63950797Y14502266D01*
X64108396Y14631604D01*
X64140807Y14671097D01*
X65084908Y15615197D01*
X65124396Y15647604D01*
X65220735Y15764993D01*
X65253734Y15805202D01*
X65349840Y15985006D01*
X65349841Y15985007D01*
X65409024Y16180105D01*
X65424000Y16332162D01*
X65424000Y16332164D01*
X65429007Y16383000D01*
X65424000Y16433835D01*
X65424000Y18143206D01*
X65430061Y18142000D01*
X65481162Y18142000D01*
X65532000Y18136993D01*
X65582838Y18142000D01*
X65633939Y18142000D01*
X65684058Y18151969D01*
X65734894Y18156976D01*
X65783774Y18171804D01*
X65833898Y18181774D01*
X65881116Y18201332D01*
X65929992Y18216159D01*
X65975039Y18240237D01*
X66022256Y18259795D01*
X66064747Y18288186D01*
X66109797Y18312266D01*
X66149284Y18344672D01*
X66191774Y18373063D01*
X66227908Y18409197D01*
X66267396Y18441604D01*
X66299803Y18481092D01*
X66335937Y18517226D01*
X66364328Y18559716D01*
X66396734Y18599203D01*
X66420814Y18644254D01*
X66449205Y18686744D01*
X66468762Y18733958D01*
X66492841Y18779007D01*
X66507669Y18827887D01*
X66527226Y18875102D01*
X66537196Y18925223D01*
X66552024Y18974105D01*
X66557031Y19024943D01*
X66567000Y19075061D01*
X66567000Y20904165D01*
X66572007Y20955000D01*
X66563629Y21040063D01*
X66552024Y21157895D01*
X66492841Y21352993D01*
X66443124Y21446007D01*
X66396734Y21532798D01*
X66299803Y21650908D01*
X66267396Y21690396D01*
X66227908Y21722803D01*
X65410807Y22539903D01*
X65378396Y22579396D01*
X65220797Y22708734D01*
X65040993Y22804841D01*
X64845895Y22864024D01*
X64693838Y22879000D01*
X64693828Y22879000D01*
X64643000Y22884006D01*
X64592172Y22879000D01*
X51841061Y22879000D01*
X51790943Y22869031D01*
X51740105Y22864024D01*
X51691223Y22849196D01*
X51641102Y22839226D01*
X51593887Y22819669D01*
X51545007Y22804841D01*
X51499958Y22780762D01*
X51452744Y22761205D01*
X51410254Y22732814D01*
X51365203Y22708734D01*
X51325716Y22676328D01*
X51283226Y22647937D01*
X51247092Y22611803D01*
X51207604Y22579396D01*
X51175197Y22539908D01*
X51139063Y22503774D01*
X51110672Y22461284D01*
X51078266Y22421797D01*
X51054186Y22376746D01*
X51025795Y22334256D01*
X51006238Y22287042D01*
X50982159Y22241993D01*
X50967331Y22193113D01*
X50947774Y22145898D01*
X50937804Y22095777D01*
X50922976Y22046895D01*
X50917969Y21996057D01*
X50908000Y21945939D01*
X50908000Y21894838D01*
X50902993Y21844000D01*
X29897000Y21844000D01*
X29897000Y25628939D01*
X30461000Y25628939D01*
X30461000Y25425061D01*
X30500774Y25225102D01*
X30578795Y25036744D01*
X30692063Y24867226D01*
X30836226Y24723063D01*
X31005744Y24609795D01*
X31194102Y24531774D01*
X31394061Y24492000D01*
X31597939Y24492000D01*
X31797898Y24531774D01*
X31986256Y24609795D01*
X32109285Y24692000D01*
X33377135Y24692000D01*
X33528557Y24540578D01*
X33554712Y24508708D01*
X33681857Y24404363D01*
X33809564Y24336102D01*
X33826916Y24326827D01*
X33984314Y24279081D01*
X34148002Y24262959D01*
X34189021Y24266999D01*
X45507981Y24266999D01*
X45548999Y24262959D01*
X45590017Y24266999D01*
X45590018Y24266999D01*
X45712688Y24279081D01*
X45870086Y24326827D01*
X46015145Y24404363D01*
X46142290Y24508708D01*
X46168445Y24540578D01*
X48732869Y27105000D01*
X52594132Y27105000D01*
X51278225Y25789093D01*
X51133102Y25760226D01*
X50944744Y25682205D01*
X50775226Y25568937D01*
X50631063Y25424774D01*
X50517795Y25255256D01*
X50439774Y25066898D01*
X50400000Y24866939D01*
X50400000Y24663061D01*
X50439774Y24463102D01*
X50517795Y24274744D01*
X50631063Y24105226D01*
X50775226Y23961063D01*
X50944744Y23847795D01*
X51133102Y23769774D01*
X51333061Y23730000D01*
X51536939Y23730000D01*
X51736898Y23769774D01*
X51925256Y23847795D01*
X52094774Y23961063D01*
X52238937Y24105226D01*
X52352205Y24274744D01*
X52430226Y24463102D01*
X52459093Y24608225D01*
X54155868Y26305000D01*
X54631715Y26305000D01*
X54754744Y26222795D01*
X54943102Y26144774D01*
X55143061Y26105000D01*
X55346939Y26105000D01*
X55546898Y26144774D01*
X55735256Y26222795D01*
X55904774Y26336063D01*
X56048937Y26480226D01*
X56162205Y26649744D01*
X56240226Y26838102D01*
X56280000Y27038061D01*
X56280000Y27105000D01*
X64791715Y27105000D01*
X64914744Y27022795D01*
X65103102Y26944774D01*
X65303061Y26905000D01*
X65506939Y26905000D01*
X65706898Y26944774D01*
X65895256Y27022795D01*
X66064774Y27136063D01*
X66208937Y27280226D01*
X66322205Y27449744D01*
X66375457Y27578304D01*
X68823190Y25130569D01*
X68849336Y25098710D01*
X68881195Y25072564D01*
X68881197Y25072562D01*
X68924842Y25036744D01*
X68976481Y24994365D01*
X69121540Y24916829D01*
X69278938Y24869083D01*
X69401608Y24857001D01*
X69401609Y24857001D01*
X69442627Y24852961D01*
X69483645Y24857001D01*
X70482132Y24857001D01*
X70857908Y24481224D01*
X70886774Y24336102D01*
X70964795Y24147744D01*
X71078063Y23978226D01*
X71222226Y23834063D01*
X71391744Y23720795D01*
X71580102Y23642774D01*
X71780061Y23603000D01*
X71983939Y23603000D01*
X72183898Y23642774D01*
X72372256Y23720795D01*
X72541774Y23834063D01*
X72685937Y23978226D01*
X72799205Y24147744D01*
X72877226Y24336102D01*
X72917000Y24536061D01*
X72917000Y24739939D01*
X72877226Y24939898D01*
X72799205Y25128256D01*
X72685937Y25297774D01*
X72541774Y25441937D01*
X72372256Y25555205D01*
X72183898Y25633226D01*
X72038776Y25662092D01*
X71447444Y26253423D01*
X71421290Y26285292D01*
X71402064Y26301070D01*
X71476717Y26301070D01*
X71676676Y26340844D01*
X71865034Y26418865D01*
X72034552Y26532133D01*
X72172419Y26670000D01*
X83562928Y26670000D01*
X83562928Y25146000D01*
X83575188Y25021518D01*
X83611498Y24901820D01*
X83670463Y24791506D01*
X83749815Y24694815D01*
X83819044Y24638000D01*
X83749815Y24581185D01*
X83670463Y24484494D01*
X83611498Y24374180D01*
X83575188Y24254482D01*
X83562928Y24130000D01*
X83562928Y22606000D01*
X83575188Y22481518D01*
X83611498Y22361820D01*
X83670463Y22251506D01*
X83749815Y22154815D01*
X83846506Y22075463D01*
X83956820Y22016498D01*
X84076518Y21980188D01*
X84201000Y21967928D01*
X85725000Y21967928D01*
X85849482Y21980188D01*
X85969180Y22016498D01*
X86079494Y22075463D01*
X86176185Y22154815D01*
X86233000Y22224044D01*
X86289815Y22154815D01*
X86386506Y22075463D01*
X86496820Y22016498D01*
X86616518Y21980188D01*
X86741000Y21967928D01*
X88265000Y21967928D01*
X88389482Y21980188D01*
X88509180Y22016498D01*
X88619494Y22075463D01*
X88716185Y22154815D01*
X88795537Y22251506D01*
X88854502Y22361820D01*
X88890812Y22481518D01*
X88903072Y22606000D01*
X88903072Y24130000D01*
X88890812Y24254482D01*
X88854502Y24374180D01*
X88795537Y24484494D01*
X88716185Y24581185D01*
X88646956Y24638000D01*
X88716185Y24694815D01*
X88795537Y24791506D01*
X88854502Y24901820D01*
X88890812Y25021518D01*
X88903072Y25146000D01*
X88903072Y26670000D01*
X88890812Y26794482D01*
X88854502Y26914180D01*
X88795537Y27024494D01*
X88716185Y27121185D01*
X88619494Y27200537D01*
X88509180Y27259502D01*
X88389482Y27295812D01*
X88265000Y27308072D01*
X86741000Y27308072D01*
X86616518Y27295812D01*
X86496820Y27259502D01*
X86386506Y27200537D01*
X86289815Y27121185D01*
X86233000Y27051956D01*
X86176185Y27121185D01*
X86079494Y27200537D01*
X85969180Y27259502D01*
X85849482Y27295812D01*
X85725000Y27308072D01*
X84201000Y27308072D01*
X84076518Y27295812D01*
X83956820Y27259502D01*
X83846506Y27200537D01*
X83749815Y27121185D01*
X83670463Y27024494D01*
X83611498Y26914180D01*
X83575188Y26794482D01*
X83562928Y26670000D01*
X72172419Y26670000D01*
X72178715Y26676296D01*
X72291983Y26845814D01*
X72370004Y27034172D01*
X72409778Y27234131D01*
X72409778Y27438009D01*
X72370004Y27637968D01*
X72291983Y27826326D01*
X72178715Y27995844D01*
X72034552Y28140007D01*
X71865034Y28253275D01*
X71676676Y28331296D01*
X71476717Y28371070D01*
X71272839Y28371070D01*
X71072880Y28331296D01*
X70884522Y28253275D01*
X70761493Y28171070D01*
X69275798Y28171070D01*
X68080093Y29366775D01*
X68075274Y29391000D01*
X77244297Y29391000D01*
X77285315Y29386960D01*
X77326333Y29391000D01*
X77326334Y29391000D01*
X77449004Y29403082D01*
X77606402Y29450828D01*
X77751461Y29528364D01*
X77878606Y29632709D01*
X77904760Y29664578D01*
X78382845Y30142662D01*
X78438102Y30119774D01*
X78638061Y30080000D01*
X78841939Y30080000D01*
X79041898Y30119774D01*
X79230256Y30197795D01*
X79399774Y30311063D01*
X79543937Y30455226D01*
X79657205Y30624744D01*
X79735226Y30813102D01*
X79775000Y31013061D01*
X79775000Y31216939D01*
X79735226Y31416898D01*
X79657205Y31605256D01*
X79543937Y31774774D01*
X79399774Y31918937D01*
X79230256Y32032205D01*
X79041898Y32110226D01*
X78841939Y32150000D01*
X78638061Y32150000D01*
X78438102Y32110226D01*
X78249744Y32032205D01*
X78125577Y31949240D01*
X78010626Y31937918D01*
X77853228Y31890172D01*
X77708169Y31812636D01*
X77631847Y31750000D01*
X77581024Y31708291D01*
X77554878Y31676432D01*
X76939447Y31061000D01*
X63900000Y31061000D01*
X63900000Y31216939D01*
X63860226Y31416898D01*
X63782205Y31605256D01*
X63668937Y31774774D01*
X63524774Y31918937D01*
X63355256Y32032205D01*
X63166898Y32110226D01*
X62966939Y32150000D01*
X62763061Y32150000D01*
X62563102Y32110226D01*
X62374744Y32032205D01*
X62251715Y31950000D01*
X44195495Y31950000D01*
X44175226Y32051898D01*
X44097205Y32240256D01*
X43983937Y32409774D01*
X43839774Y32553937D01*
X43670256Y32667205D01*
X43481898Y32745226D01*
X43281939Y32785000D01*
X43078061Y32785000D01*
X42878102Y32745226D01*
X42689744Y32667205D01*
X42520226Y32553937D01*
X42376063Y32409774D01*
X42262795Y32240256D01*
X42184774Y32051898D01*
X42145000Y31851939D01*
X42145000Y31648061D01*
X42184774Y31448102D01*
X42262795Y31259744D01*
X42376063Y31090226D01*
X42520226Y30946063D01*
X42689744Y30832795D01*
X42878102Y30754774D01*
X43023224Y30725908D01*
X43195561Y30553570D01*
X43221709Y30521709D01*
X43348854Y30417364D01*
X43493913Y30339828D01*
X43651311Y30292082D01*
X43773981Y30280000D01*
X43773982Y30280000D01*
X43815000Y30275960D01*
X43856018Y30280000D01*
X59579133Y30280000D01*
X59533225Y30234093D01*
X59388102Y30205226D01*
X59199744Y30127205D01*
X59030226Y30013937D01*
X58886063Y29869774D01*
X58772795Y29700256D01*
X58694774Y29511898D01*
X58655000Y29311939D01*
X58655000Y29108061D01*
X58694774Y28908102D01*
X58749907Y28775000D01*
X48428018Y28775000D01*
X48387000Y28779040D01*
X48345982Y28775000D01*
X48345981Y28775000D01*
X48223311Y28762918D01*
X48065913Y28715172D01*
X47920854Y28637636D01*
X47793709Y28533291D01*
X47767556Y28501424D01*
X47762078Y28495946D01*
X47762070Y28495939D01*
X45203132Y25936999D01*
X34739352Y25936999D01*
X34810226Y26108102D01*
X34839093Y26253225D01*
X38186433Y29600564D01*
X38218291Y29626709D01*
X38278650Y29700256D01*
X38322636Y29753854D01*
X38400172Y29898913D01*
X38402818Y29907636D01*
X38447918Y30056311D01*
X38460000Y30178981D01*
X38460000Y30178982D01*
X38464040Y30220000D01*
X38460000Y30261018D01*
X38460000Y33121939D01*
X62719000Y33121939D01*
X62719000Y32918061D01*
X62758774Y32718102D01*
X62836795Y32529744D01*
X62950063Y32360226D01*
X63094226Y32216063D01*
X63263744Y32102795D01*
X63452102Y32024774D01*
X63652061Y31985000D01*
X63855939Y31985000D01*
X64055898Y32024774D01*
X64244256Y32102795D01*
X64367285Y32185000D01*
X75586715Y32185000D01*
X75709744Y32102795D01*
X75898102Y32024774D01*
X76098061Y31985000D01*
X76301939Y31985000D01*
X76501898Y32024774D01*
X76690256Y32102795D01*
X76859774Y32216063D01*
X77003937Y32360226D01*
X77117205Y32529744D01*
X77195226Y32718102D01*
X77235000Y32918061D01*
X77235000Y33121939D01*
X77195226Y33321898D01*
X77117205Y33510256D01*
X77003937Y33679774D01*
X76859774Y33823937D01*
X76690256Y33937205D01*
X76501898Y34015226D01*
X76301939Y34055000D01*
X76098061Y34055000D01*
X75898102Y34015226D01*
X75709744Y33937205D01*
X75586715Y33855000D01*
X64367285Y33855000D01*
X64244256Y33937205D01*
X64055898Y34015226D01*
X63855939Y34055000D01*
X63652061Y34055000D01*
X63452102Y34015226D01*
X63263744Y33937205D01*
X63094226Y33823937D01*
X62950063Y33679774D01*
X62836795Y33510256D01*
X62758774Y33321898D01*
X62719000Y33121939D01*
X38460000Y33121939D01*
X38460000Y34680467D01*
X49005490Y34680467D01*
X49005490Y34407533D01*
X49058737Y34139844D01*
X49163184Y33887687D01*
X49314818Y33660751D01*
X49507811Y33467758D01*
X49734747Y33316124D01*
X49986904Y33211677D01*
X50254593Y33158430D01*
X50527527Y33158430D01*
X50795216Y33211677D01*
X51047373Y33316124D01*
X51274309Y33467758D01*
X51467302Y33660751D01*
X51618936Y33887687D01*
X51723383Y34139844D01*
X51776630Y34407533D01*
X51776630Y34680467D01*
X53887370Y34680467D01*
X53887370Y34407533D01*
X53940617Y34139844D01*
X54045064Y33887687D01*
X54196698Y33660751D01*
X54389691Y33467758D01*
X54616627Y33316124D01*
X54868784Y33211677D01*
X55136473Y33158430D01*
X55409407Y33158430D01*
X55677096Y33211677D01*
X55929253Y33316124D01*
X56156189Y33467758D01*
X56349182Y33660751D01*
X56500816Y33887687D01*
X56605263Y34139844D01*
X56658510Y34407533D01*
X56658510Y34680467D01*
X56640117Y34772939D01*
X59290000Y34772939D01*
X59290000Y34569061D01*
X59329774Y34369102D01*
X59407795Y34180744D01*
X59521063Y34011226D01*
X59665226Y33867063D01*
X59834744Y33753795D01*
X60023102Y33675774D01*
X60223061Y33636000D01*
X60426939Y33636000D01*
X60626898Y33675774D01*
X60815256Y33753795D01*
X60984774Y33867063D01*
X61128937Y34011226D01*
X61150500Y34043497D01*
X61172063Y34011226D01*
X61316226Y33867063D01*
X61485744Y33753795D01*
X61674102Y33675774D01*
X61874061Y33636000D01*
X62077939Y33636000D01*
X62277898Y33675774D01*
X62466256Y33753795D01*
X62635774Y33867063D01*
X62779937Y34011226D01*
X62893205Y34180744D01*
X62971226Y34369102D01*
X62991495Y34471000D01*
X70760715Y34471000D01*
X70883744Y34388795D01*
X71072102Y34310774D01*
X71272061Y34271000D01*
X71475939Y34271000D01*
X71675898Y34310774D01*
X71864256Y34388795D01*
X72033774Y34502063D01*
X72177937Y34646226D01*
X72291205Y34815744D01*
X72369226Y35004102D01*
X72409000Y35204061D01*
X72409000Y35213505D01*
X72556942Y35274785D01*
X72726460Y35388053D01*
X72870623Y35532216D01*
X72983891Y35701734D01*
X73061912Y35890092D01*
X73101686Y36090051D01*
X73101686Y36293929D01*
X73061912Y36493888D01*
X72983891Y36682246D01*
X72885166Y36830000D01*
X83562928Y36830000D01*
X83562928Y35306000D01*
X83575188Y35181518D01*
X83611498Y35061820D01*
X83670463Y34951506D01*
X83749815Y34854815D01*
X83819044Y34798000D01*
X83749815Y34741185D01*
X83670463Y34644494D01*
X83611498Y34534180D01*
X83575188Y34414482D01*
X83562928Y34290000D01*
X83562928Y32766000D01*
X83575188Y32641518D01*
X83611498Y32521820D01*
X83670463Y32411506D01*
X83749815Y32314815D01*
X83819044Y32258000D01*
X83749815Y32201185D01*
X83670463Y32104494D01*
X83611498Y31994180D01*
X83575188Y31874482D01*
X83562928Y31750000D01*
X83562928Y30226000D01*
X83575188Y30101518D01*
X83611498Y29981820D01*
X83670463Y29871506D01*
X83749815Y29774815D01*
X83846506Y29695463D01*
X83956820Y29636498D01*
X84076518Y29600188D01*
X84201000Y29587928D01*
X85725000Y29587928D01*
X85849482Y29600188D01*
X85969180Y29636498D01*
X86079494Y29695463D01*
X86176185Y29774815D01*
X86233000Y29844044D01*
X86289815Y29774815D01*
X86386506Y29695463D01*
X86496820Y29636498D01*
X86616518Y29600188D01*
X86741000Y29587928D01*
X88265000Y29587928D01*
X88389482Y29600188D01*
X88509180Y29636498D01*
X88619494Y29695463D01*
X88716185Y29774815D01*
X88795537Y29871506D01*
X88854502Y29981820D01*
X88890812Y30101518D01*
X88903072Y30226000D01*
X88903072Y31750000D01*
X88890812Y31874482D01*
X88854502Y31994180D01*
X88795537Y32104494D01*
X88716185Y32201185D01*
X88646956Y32258000D01*
X88716185Y32314815D01*
X88795537Y32411506D01*
X88854502Y32521820D01*
X88890812Y32641518D01*
X88903072Y32766000D01*
X88903072Y34290000D01*
X88890812Y34414482D01*
X88854502Y34534180D01*
X88795537Y34644494D01*
X88716185Y34741185D01*
X88646956Y34798000D01*
X88716185Y34854815D01*
X88795537Y34951506D01*
X88854502Y35061820D01*
X88890812Y35181518D01*
X88903072Y35306000D01*
X88903072Y36830000D01*
X88890812Y36954482D01*
X88854502Y37074180D01*
X88795537Y37184494D01*
X88716185Y37281185D01*
X88619494Y37360537D01*
X88509180Y37419502D01*
X88389482Y37455812D01*
X88265000Y37468072D01*
X86741000Y37468072D01*
X86616518Y37455812D01*
X86496820Y37419502D01*
X86386506Y37360537D01*
X86289815Y37281185D01*
X86233000Y37211956D01*
X86176185Y37281185D01*
X86079494Y37360537D01*
X85969180Y37419502D01*
X85849482Y37455812D01*
X85725000Y37468072D01*
X84201000Y37468072D01*
X84076518Y37455812D01*
X83956820Y37419502D01*
X83846506Y37360537D01*
X83749815Y37281185D01*
X83670463Y37184494D01*
X83611498Y37074180D01*
X83575188Y36954482D01*
X83562928Y36830000D01*
X72885166Y36830000D01*
X72870623Y36851764D01*
X72726460Y36995927D01*
X72556942Y37109195D01*
X72368584Y37187216D01*
X72168625Y37226990D01*
X71964747Y37226990D01*
X71764788Y37187216D01*
X71576430Y37109195D01*
X71453401Y37026990D01*
X61887008Y37026990D01*
X61845990Y37031030D01*
X61804972Y37026990D01*
X61804971Y37026990D01*
X61682301Y37014908D01*
X61524903Y36967162D01*
X61379844Y36889626D01*
X61252699Y36785281D01*
X61226553Y36753422D01*
X60168225Y35695093D01*
X60023102Y35666226D01*
X59834744Y35588205D01*
X59665226Y35474937D01*
X59521063Y35330774D01*
X59407795Y35161256D01*
X59329774Y34972898D01*
X59290000Y34772939D01*
X56640117Y34772939D01*
X56605263Y34948156D01*
X56500816Y35200313D01*
X56349182Y35427249D01*
X56156189Y35620242D01*
X55929253Y35771876D01*
X55677096Y35876323D01*
X55409407Y35929570D01*
X55136473Y35929570D01*
X54868784Y35876323D01*
X54616627Y35771876D01*
X54389691Y35620242D01*
X54196698Y35427249D01*
X54045064Y35200313D01*
X53940617Y34948156D01*
X53887370Y34680467D01*
X51776630Y34680467D01*
X51723383Y34948156D01*
X51618936Y35200313D01*
X51467302Y35427249D01*
X51274309Y35620242D01*
X51047373Y35771876D01*
X50795216Y35876323D01*
X50527527Y35929570D01*
X50254593Y35929570D01*
X49986904Y35876323D01*
X49734747Y35771876D01*
X49507811Y35620242D01*
X49314818Y35427249D01*
X49163184Y35200313D01*
X49058737Y34948156D01*
X49005490Y34680467D01*
X38460000Y34680467D01*
X38460000Y35956715D01*
X38542205Y36079744D01*
X38620226Y36268102D01*
X38660000Y36468061D01*
X38660000Y36671939D01*
X38620226Y36871898D01*
X38542205Y37060256D01*
X38428937Y37229774D01*
X38284774Y37373937D01*
X38115256Y37487205D01*
X37926898Y37565226D01*
X37726939Y37605000D01*
X37523061Y37605000D01*
X37323102Y37565226D01*
X37134744Y37487205D01*
X36965226Y37373937D01*
X36821063Y37229774D01*
X36707795Y37060256D01*
X36629774Y36871898D01*
X36590000Y36671939D01*
X36590000Y36468061D01*
X36629774Y36268102D01*
X36707795Y36079744D01*
X36790001Y35956714D01*
X36790000Y30565869D01*
X33658225Y27434093D01*
X33513102Y27405226D01*
X33324744Y27327205D01*
X33155226Y27213937D01*
X33011063Y27069774D01*
X32897795Y26900256D01*
X32819774Y26711898D01*
X32780000Y26511939D01*
X32780000Y26362000D01*
X32109285Y26362000D01*
X31986256Y26444205D01*
X31797898Y26522226D01*
X31597939Y26562000D01*
X31394061Y26562000D01*
X31194102Y26522226D01*
X31005744Y26444205D01*
X30836226Y26330937D01*
X30692063Y26186774D01*
X30578795Y26017256D01*
X30500774Y25828898D01*
X30461000Y25628939D01*
X29897000Y25628939D01*
X29897000Y32607939D01*
X29887031Y32658057D01*
X29882024Y32708895D01*
X29867196Y32757777D01*
X29857226Y32807898D01*
X29837669Y32855113D01*
X29822841Y32903993D01*
X29798762Y32949042D01*
X29779205Y32996256D01*
X29750814Y33038746D01*
X29726734Y33083797D01*
X29694328Y33123284D01*
X29665937Y33165774D01*
X29629803Y33201908D01*
X29597396Y33241396D01*
X29557908Y33273803D01*
X29521774Y33309937D01*
X29479284Y33338328D01*
X29439797Y33370734D01*
X29394747Y33394814D01*
X29352256Y33423205D01*
X29305039Y33442763D01*
X29259992Y33466841D01*
X29211116Y33481668D01*
X29163898Y33501226D01*
X29113774Y33511196D01*
X29064894Y33526024D01*
X29014058Y33531031D01*
X28963939Y33541000D01*
X28912838Y33541000D01*
X28862000Y33546007D01*
X28811162Y33541000D01*
X28760061Y33541000D01*
X28709943Y33531031D01*
X28659105Y33526024D01*
X28610223Y33511196D01*
X28560102Y33501226D01*
X28512887Y33481669D01*
X28464007Y33466841D01*
X28418958Y33442762D01*
X28371744Y33423205D01*
X28329254Y33394814D01*
X28284203Y33370734D01*
X28244716Y33338328D01*
X28202226Y33309937D01*
X28166092Y33273803D01*
X28126604Y33241396D01*
X28094197Y33201908D01*
X28058063Y33165774D01*
X28029672Y33123284D01*
X27997266Y33083797D01*
X27973186Y33038747D01*
X27944795Y32996256D01*
X27925237Y32949039D01*
X27901159Y32903992D01*
X27886332Y32855116D01*
X27866774Y32807898D01*
X27856804Y32757774D01*
X27841976Y32708894D01*
X27836969Y32658058D01*
X27827000Y32607939D01*
X989000Y32607939D01*
X989000Y34327592D01*
X8963000Y34327592D01*
X8963000Y34052408D01*
X9016686Y33782510D01*
X9121995Y33528273D01*
X9274880Y33299465D01*
X9469465Y33104880D01*
X9698273Y32951995D01*
X9952510Y32846686D01*
X10222408Y32793000D01*
X10497592Y32793000D01*
X10767490Y32846686D01*
X11021727Y32951995D01*
X11250535Y33104880D01*
X11445120Y33299465D01*
X11598005Y33528273D01*
X11703314Y33782510D01*
X11757000Y34052408D01*
X11757000Y34327592D01*
X13963000Y34327592D01*
X13963000Y34052408D01*
X14016686Y33782510D01*
X14121995Y33528273D01*
X14274880Y33299465D01*
X14469465Y33104880D01*
X14698273Y32951995D01*
X14952510Y32846686D01*
X15222408Y32793000D01*
X15497592Y32793000D01*
X15767490Y32846686D01*
X16021727Y32951995D01*
X16250535Y33104880D01*
X16445120Y33299465D01*
X16598005Y33528273D01*
X16703314Y33782510D01*
X16757000Y34052408D01*
X16757000Y34327592D01*
X16703314Y34597490D01*
X16598005Y34851727D01*
X16445120Y35080535D01*
X16250535Y35275120D01*
X16021727Y35428005D01*
X15767490Y35533314D01*
X15497592Y35587000D01*
X15222408Y35587000D01*
X14952510Y35533314D01*
X14698273Y35428005D01*
X14469465Y35275120D01*
X14274880Y35080535D01*
X14121995Y34851727D01*
X14016686Y34597490D01*
X13963000Y34327592D01*
X11757000Y34327592D01*
X11703314Y34597490D01*
X11598005Y34851727D01*
X11445120Y35080535D01*
X11250535Y35275120D01*
X11021727Y35428005D01*
X10767490Y35533314D01*
X10497592Y35587000D01*
X10222408Y35587000D01*
X9952510Y35533314D01*
X9698273Y35428005D01*
X9469465Y35275120D01*
X9274880Y35080535D01*
X9121995Y34851727D01*
X9016686Y34597490D01*
X8963000Y34327592D01*
X989000Y34327592D01*
X989000Y49811000D01*
X90451001Y49811000D01*
X90451000Y989000D01*
X90451000Y989000D01*
G37*
X90451000Y989000D02*
X989000Y989000D01*
X989000Y32607939D01*
X27827000Y32607939D01*
X27827000Y32556837D01*
X27827001Y20161944D01*
X27827000Y20161939D01*
X27827000Y19958061D01*
X27836971Y19907933D01*
X27841977Y19857105D01*
X27856803Y19808232D01*
X27866774Y19758102D01*
X27886335Y19710878D01*
X27901160Y19662007D01*
X27925235Y19616966D01*
X27944795Y19569744D01*
X27973191Y19527247D01*
X27997267Y19482203D01*
X28029668Y19442722D01*
X28058063Y19400226D01*
X28094203Y19364086D01*
X28126605Y19324604D01*
X28166087Y19292202D01*
X28202226Y19256063D01*
X28244721Y19227669D01*
X28284204Y19195266D01*
X28329250Y19171188D01*
X28371744Y19142795D01*
X28418962Y19123237D01*
X28464008Y19099159D01*
X28512884Y19084332D01*
X28560102Y19064774D01*
X28610226Y19054804D01*
X28659106Y19039976D01*
X28709942Y19034969D01*
X28760061Y19025000D01*
X28811162Y19025000D01*
X28862000Y19019993D01*
X28912838Y19025000D01*
X28963939Y19025000D01*
X29014057Y19034969D01*
X29064895Y19039976D01*
X29113777Y19054804D01*
X29163898Y19064774D01*
X29211113Y19084331D01*
X29259993Y19099159D01*
X29305042Y19123238D01*
X29352256Y19142795D01*
X29394746Y19171186D01*
X29439797Y19195266D01*
X29479284Y19227672D01*
X29521774Y19256063D01*
X29557908Y19292197D01*
X29597396Y19324604D01*
X29629803Y19364092D01*
X29665937Y19400226D01*
X29694328Y19442716D01*
X29726734Y19482203D01*
X29750814Y19527254D01*
X29779205Y19569744D01*
X29798762Y19616958D01*
X29822841Y19662007D01*
X29837669Y19710887D01*
X29857226Y19758102D01*
X29867196Y19808223D01*
X29882024Y19857105D01*
X29887031Y19907943D01*
X29897000Y19958061D01*
X29897000Y21844000D01*
X50902993Y21844000D01*
X50908000Y21793162D01*
X50908000Y21742061D01*
X50917969Y21691943D01*
X50922976Y21641105D01*
X50937804Y21592223D01*
X50947774Y21542102D01*
X50967331Y21494887D01*
X50982159Y21446007D01*
X51006238Y21400958D01*
X51025795Y21353744D01*
X51054186Y21311254D01*
X51078266Y21266203D01*
X51110672Y21226716D01*
X51139063Y21184226D01*
X51175196Y21148093D01*
X51207604Y21108604D01*
X51247092Y21076197D01*
X51283226Y21040063D01*
X51325716Y21011672D01*
X51365203Y20979266D01*
X51410254Y20955186D01*
X51452744Y20926795D01*
X51499958Y20907238D01*
X51545007Y20883159D01*
X51593887Y20868331D01*
X51641102Y20848774D01*
X51691223Y20838804D01*
X51740105Y20823976D01*
X51790943Y20818969D01*
X51841061Y20809000D01*
X63378715Y20809000D01*
X63368976Y20776894D01*
X63363969Y20726058D01*
X63354000Y20675939D01*
X63354000Y20624837D01*
X63354001Y16811712D01*
X62944290Y16402000D01*
X58318061Y16402000D01*
X58267943Y16392031D01*
X58217105Y16387024D01*
X58168223Y16372196D01*
X58118102Y16362226D01*
X58070887Y16342669D01*
X58022007Y16327841D01*
X57976958Y16303762D01*
X57929744Y16284205D01*
X57887254Y16255814D01*
X57842203Y16231734D01*
X57802716Y16199328D01*
X57760226Y16170937D01*
X57724092Y16134803D01*
X57684604Y16102396D01*
X57652197Y16062908D01*
X57616063Y16026774D01*
X57587672Y15984284D01*
X57555266Y15944797D01*
X57531186Y15899746D01*
X57502795Y15857256D01*
X57483238Y15810042D01*
X57459159Y15764993D01*
X57444331Y15716113D01*
X57424774Y15668898D01*
X57414804Y15618777D01*
X57399976Y15569895D01*
X57394969Y15519057D01*
X57385000Y15468939D01*
X57385000Y15417838D01*
X57379993Y15367000D01*
X57385000Y15316162D01*
X57385000Y15265061D01*
X57394969Y15214943D01*
X57399976Y15164105D01*
X57414804Y15115223D01*
X57424774Y15065102D01*
X57444331Y15017887D01*
X57459159Y14969007D01*
X57483238Y14923958D01*
X57502795Y14876744D01*
X57531186Y14834254D01*
X57555266Y14789203D01*
X57587672Y14749716D01*
X57616063Y14707226D01*
X57652197Y14671092D01*
X57684604Y14631604D01*
X57724092Y14599197D01*
X57760226Y14563063D01*
X57802716Y14534672D01*
X57842203Y14502266D01*
X57887254Y14478186D01*
X57929744Y14449795D01*
X57976958Y14430238D01*
X58022007Y14406159D01*
X58070887Y14391331D01*
X58118102Y14371774D01*
X58168223Y14361804D01*
X58217105Y14346976D01*
X58267943Y14341969D01*
X58318061Y14332000D01*
X63322172Y14332000D01*
X63373000Y14326994D01*
X63423828Y14332000D01*
X63423838Y14332000D01*
X63575895Y14346976D01*
X63770993Y14406159D01*
X63950797Y14502266D01*
X64108396Y14631604D01*
X64140807Y14671097D01*
X65084908Y15615197D01*
X65124396Y15647604D01*
X65220735Y15764993D01*
X65253734Y15805202D01*
X65349840Y15985006D01*
X65349841Y15985007D01*
X65409024Y16180105D01*
X65424000Y16332162D01*
X65424000Y16332164D01*
X65429007Y16383000D01*
X65424000Y16433835D01*
X65424000Y18143206D01*
X65430061Y18142000D01*
X65481162Y18142000D01*
X65532000Y18136993D01*
X65582838Y18142000D01*
X65633939Y18142000D01*
X65684058Y18151969D01*
X65734894Y18156976D01*
X65783774Y18171804D01*
X65833898Y18181774D01*
X65881116Y18201332D01*
X65929992Y18216159D01*
X65975039Y18240237D01*
X66022256Y18259795D01*
X66064747Y18288186D01*
X66109797Y18312266D01*
X66149284Y18344672D01*
X66191774Y18373063D01*
X66227908Y18409197D01*
X66267396Y18441604D01*
X66299803Y18481092D01*
X66335937Y18517226D01*
X66364328Y18559716D01*
X66396734Y18599203D01*
X66420814Y18644254D01*
X66449205Y18686744D01*
X66468762Y18733958D01*
X66492841Y18779007D01*
X66507669Y18827887D01*
X66527226Y18875102D01*
X66537196Y18925223D01*
X66552024Y18974105D01*
X66557031Y19024943D01*
X66567000Y19075061D01*
X66567000Y20904165D01*
X66572007Y20955000D01*
X66563629Y21040063D01*
X66552024Y21157895D01*
X66492841Y21352993D01*
X66443124Y21446007D01*
X66396734Y21532798D01*
X66299803Y21650908D01*
X66267396Y21690396D01*
X66227908Y21722803D01*
X65410807Y22539903D01*
X65378396Y22579396D01*
X65220797Y22708734D01*
X65040993Y22804841D01*
X64845895Y22864024D01*
X64693838Y22879000D01*
X64693828Y22879000D01*
X64643000Y22884006D01*
X64592172Y22879000D01*
X51841061Y22879000D01*
X51790943Y22869031D01*
X51740105Y22864024D01*
X51691223Y22849196D01*
X51641102Y22839226D01*
X51593887Y22819669D01*
X51545007Y22804841D01*
X51499958Y22780762D01*
X51452744Y22761205D01*
X51410254Y22732814D01*
X51365203Y22708734D01*
X51325716Y22676328D01*
X51283226Y22647937D01*
X51247092Y22611803D01*
X51207604Y22579396D01*
X51175197Y22539908D01*
X51139063Y22503774D01*
X51110672Y22461284D01*
X51078266Y22421797D01*
X51054186Y22376746D01*
X51025795Y22334256D01*
X51006238Y22287042D01*
X50982159Y22241993D01*
X50967331Y22193113D01*
X50947774Y22145898D01*
X50937804Y22095777D01*
X50922976Y22046895D01*
X50917969Y21996057D01*
X50908000Y21945939D01*
X50908000Y21894838D01*
X50902993Y21844000D01*
X29897000Y21844000D01*
X29897000Y25628939D01*
X30461000Y25628939D01*
X30461000Y25425061D01*
X30500774Y25225102D01*
X30578795Y25036744D01*
X30692063Y24867226D01*
X30836226Y24723063D01*
X31005744Y24609795D01*
X31194102Y24531774D01*
X31394061Y24492000D01*
X31597939Y24492000D01*
X31797898Y24531774D01*
X31986256Y24609795D01*
X32109285Y24692000D01*
X33377135Y24692000D01*
X33528557Y24540578D01*
X33554712Y24508708D01*
X33681857Y24404363D01*
X33809564Y24336102D01*
X33826916Y24326827D01*
X33984314Y24279081D01*
X34148002Y24262959D01*
X34189021Y24266999D01*
X45507981Y24266999D01*
X45548999Y24262959D01*
X45590017Y24266999D01*
X45590018Y24266999D01*
X45712688Y24279081D01*
X45870086Y24326827D01*
X46015145Y24404363D01*
X46142290Y24508708D01*
X46168445Y24540578D01*
X48732869Y27105000D01*
X52594132Y27105000D01*
X51278225Y25789093D01*
X51133102Y25760226D01*
X50944744Y25682205D01*
X50775226Y25568937D01*
X50631063Y25424774D01*
X50517795Y25255256D01*
X50439774Y25066898D01*
X50400000Y24866939D01*
X50400000Y24663061D01*
X50439774Y24463102D01*
X50517795Y24274744D01*
X50631063Y24105226D01*
X50775226Y23961063D01*
X50944744Y23847795D01*
X51133102Y23769774D01*
X51333061Y23730000D01*
X51536939Y23730000D01*
X51736898Y23769774D01*
X51925256Y23847795D01*
X52094774Y23961063D01*
X52238937Y24105226D01*
X52352205Y24274744D01*
X52430226Y24463102D01*
X52459093Y24608225D01*
X54155868Y26305000D01*
X54631715Y26305000D01*
X54754744Y26222795D01*
X54943102Y26144774D01*
X55143061Y26105000D01*
X55346939Y26105000D01*
X55546898Y26144774D01*
X55735256Y26222795D01*
X55904774Y26336063D01*
X56048937Y26480226D01*
X56162205Y26649744D01*
X56240226Y26838102D01*
X56280000Y27038061D01*
X56280000Y27105000D01*
X64791715Y27105000D01*
X64914744Y27022795D01*
X65103102Y26944774D01*
X65303061Y26905000D01*
X65506939Y26905000D01*
X65706898Y26944774D01*
X65895256Y27022795D01*
X66064774Y27136063D01*
X66208937Y27280226D01*
X66322205Y27449744D01*
X66375457Y27578304D01*
X68823190Y25130569D01*
X68849336Y25098710D01*
X68881195Y25072564D01*
X68881197Y25072562D01*
X68924842Y25036744D01*
X68976481Y24994365D01*
X69121540Y24916829D01*
X69278938Y24869083D01*
X69401608Y24857001D01*
X69401609Y24857001D01*
X69442627Y24852961D01*
X69483645Y24857001D01*
X70482132Y24857001D01*
X70857908Y24481224D01*
X70886774Y24336102D01*
X70964795Y24147744D01*
X71078063Y23978226D01*
X71222226Y23834063D01*
X71391744Y23720795D01*
X71580102Y23642774D01*
X71780061Y23603000D01*
X71983939Y23603000D01*
X72183898Y23642774D01*
X72372256Y23720795D01*
X72541774Y23834063D01*
X72685937Y23978226D01*
X72799205Y24147744D01*
X72877226Y24336102D01*
X72917000Y24536061D01*
X72917000Y24739939D01*
X72877226Y24939898D01*
X72799205Y25128256D01*
X72685937Y25297774D01*
X72541774Y25441937D01*
X72372256Y25555205D01*
X72183898Y25633226D01*
X72038776Y25662092D01*
X71447444Y26253423D01*
X71421290Y26285292D01*
X71402064Y26301070D01*
X71476717Y26301070D01*
X71676676Y26340844D01*
X71865034Y26418865D01*
X72034552Y26532133D01*
X72172419Y26670000D01*
X83562928Y26670000D01*
X83562928Y25146000D01*
X83575188Y25021518D01*
X83611498Y24901820D01*
X83670463Y24791506D01*
X83749815Y24694815D01*
X83819044Y24638000D01*
X83749815Y24581185D01*
X83670463Y24484494D01*
X83611498Y24374180D01*
X83575188Y24254482D01*
X83562928Y24130000D01*
X83562928Y22606000D01*
X83575188Y22481518D01*
X83611498Y22361820D01*
X83670463Y22251506D01*
X83749815Y22154815D01*
X83846506Y22075463D01*
X83956820Y22016498D01*
X84076518Y21980188D01*
X84201000Y21967928D01*
X85725000Y21967928D01*
X85849482Y21980188D01*
X85969180Y22016498D01*
X86079494Y22075463D01*
X86176185Y22154815D01*
X86233000Y22224044D01*
X86289815Y22154815D01*
X86386506Y22075463D01*
X86496820Y22016498D01*
X86616518Y21980188D01*
X86741000Y21967928D01*
X88265000Y21967928D01*
X88389482Y21980188D01*
X88509180Y22016498D01*
X88619494Y22075463D01*
X88716185Y22154815D01*
X88795537Y22251506D01*
X88854502Y22361820D01*
X88890812Y22481518D01*
X88903072Y22606000D01*
X88903072Y24130000D01*
X88890812Y24254482D01*
X88854502Y24374180D01*
X88795537Y24484494D01*
X88716185Y24581185D01*
X88646956Y24638000D01*
X88716185Y24694815D01*
X88795537Y24791506D01*
X88854502Y24901820D01*
X88890812Y25021518D01*
X88903072Y25146000D01*
X88903072Y26670000D01*
X88890812Y26794482D01*
X88854502Y26914180D01*
X88795537Y27024494D01*
X88716185Y27121185D01*
X88619494Y27200537D01*
X88509180Y27259502D01*
X88389482Y27295812D01*
X88265000Y27308072D01*
X86741000Y27308072D01*
X86616518Y27295812D01*
X86496820Y27259502D01*
X86386506Y27200537D01*
X86289815Y27121185D01*
X86233000Y27051956D01*
X86176185Y27121185D01*
X86079494Y27200537D01*
X85969180Y27259502D01*
X85849482Y27295812D01*
X85725000Y27308072D01*
X84201000Y27308072D01*
X84076518Y27295812D01*
X83956820Y27259502D01*
X83846506Y27200537D01*
X83749815Y27121185D01*
X83670463Y27024494D01*
X83611498Y26914180D01*
X83575188Y26794482D01*
X83562928Y26670000D01*
X72172419Y26670000D01*
X72178715Y26676296D01*
X72291983Y26845814D01*
X72370004Y27034172D01*
X72409778Y27234131D01*
X72409778Y27438009D01*
X72370004Y27637968D01*
X72291983Y27826326D01*
X72178715Y27995844D01*
X72034552Y28140007D01*
X71865034Y28253275D01*
X71676676Y28331296D01*
X71476717Y28371070D01*
X71272839Y28371070D01*
X71072880Y28331296D01*
X70884522Y28253275D01*
X70761493Y28171070D01*
X69275798Y28171070D01*
X68080093Y29366775D01*
X68075274Y29391000D01*
X77244297Y29391000D01*
X77285315Y29386960D01*
X77326333Y29391000D01*
X77326334Y29391000D01*
X77449004Y29403082D01*
X77606402Y29450828D01*
X77751461Y29528364D01*
X77878606Y29632709D01*
X77904760Y29664578D01*
X78382845Y30142662D01*
X78438102Y30119774D01*
X78638061Y30080000D01*
X78841939Y30080000D01*
X79041898Y30119774D01*
X79230256Y30197795D01*
X79399774Y30311063D01*
X79543937Y30455226D01*
X79657205Y30624744D01*
X79735226Y30813102D01*
X79775000Y31013061D01*
X79775000Y31216939D01*
X79735226Y31416898D01*
X79657205Y31605256D01*
X79543937Y31774774D01*
X79399774Y31918937D01*
X79230256Y32032205D01*
X79041898Y32110226D01*
X78841939Y32150000D01*
X78638061Y32150000D01*
X78438102Y32110226D01*
X78249744Y32032205D01*
X78125577Y31949240D01*
X78010626Y31937918D01*
X77853228Y31890172D01*
X77708169Y31812636D01*
X77631847Y31750000D01*
X77581024Y31708291D01*
X77554878Y31676432D01*
X76939447Y31061000D01*
X63900000Y31061000D01*
X63900000Y31216939D01*
X63860226Y31416898D01*
X63782205Y31605256D01*
X63668937Y31774774D01*
X63524774Y31918937D01*
X63355256Y32032205D01*
X63166898Y32110226D01*
X62966939Y32150000D01*
X62763061Y32150000D01*
X62563102Y32110226D01*
X62374744Y32032205D01*
X62251715Y31950000D01*
X44195495Y31950000D01*
X44175226Y32051898D01*
X44097205Y32240256D01*
X43983937Y32409774D01*
X43839774Y32553937D01*
X43670256Y32667205D01*
X43481898Y32745226D01*
X43281939Y32785000D01*
X43078061Y32785000D01*
X42878102Y32745226D01*
X42689744Y32667205D01*
X42520226Y32553937D01*
X42376063Y32409774D01*
X42262795Y32240256D01*
X42184774Y32051898D01*
X42145000Y31851939D01*
X42145000Y31648061D01*
X42184774Y31448102D01*
X42262795Y31259744D01*
X42376063Y31090226D01*
X42520226Y30946063D01*
X42689744Y30832795D01*
X42878102Y30754774D01*
X43023224Y30725908D01*
X43195561Y30553570D01*
X43221709Y30521709D01*
X43348854Y30417364D01*
X43493913Y30339828D01*
X43651311Y30292082D01*
X43773981Y30280000D01*
X43773982Y30280000D01*
X43815000Y30275960D01*
X43856018Y30280000D01*
X59579133Y30280000D01*
X59533225Y30234093D01*
X59388102Y30205226D01*
X59199744Y30127205D01*
X59030226Y30013937D01*
X58886063Y29869774D01*
X58772795Y29700256D01*
X58694774Y29511898D01*
X58655000Y29311939D01*
X58655000Y29108061D01*
X58694774Y28908102D01*
X58749907Y28775000D01*
X48428018Y28775000D01*
X48387000Y28779040D01*
X48345982Y28775000D01*
X48345981Y28775000D01*
X48223311Y28762918D01*
X48065913Y28715172D01*
X47920854Y28637636D01*
X47793709Y28533291D01*
X47767556Y28501424D01*
X47762078Y28495946D01*
X47762070Y28495939D01*
X45203132Y25936999D01*
X34739352Y25936999D01*
X34810226Y26108102D01*
X34839093Y26253225D01*
X38186433Y29600564D01*
X38218291Y29626709D01*
X38278650Y29700256D01*
X38322636Y29753854D01*
X38400172Y29898913D01*
X38402818Y29907636D01*
X38447918Y30056311D01*
X38460000Y30178981D01*
X38460000Y30178982D01*
X38464040Y30220000D01*
X38460000Y30261018D01*
X38460000Y33121939D01*
X62719000Y33121939D01*
X62719000Y32918061D01*
X62758774Y32718102D01*
X62836795Y32529744D01*
X62950063Y32360226D01*
X63094226Y32216063D01*
X63263744Y32102795D01*
X63452102Y32024774D01*
X63652061Y31985000D01*
X63855939Y31985000D01*
X64055898Y32024774D01*
X64244256Y32102795D01*
X64367285Y32185000D01*
X75586715Y32185000D01*
X75709744Y32102795D01*
X75898102Y32024774D01*
X76098061Y31985000D01*
X76301939Y31985000D01*
X76501898Y32024774D01*
X76690256Y32102795D01*
X76859774Y32216063D01*
X77003937Y32360226D01*
X77117205Y32529744D01*
X77195226Y32718102D01*
X77235000Y32918061D01*
X77235000Y33121939D01*
X77195226Y33321898D01*
X77117205Y33510256D01*
X77003937Y33679774D01*
X76859774Y33823937D01*
X76690256Y33937205D01*
X76501898Y34015226D01*
X76301939Y34055000D01*
X76098061Y34055000D01*
X75898102Y34015226D01*
X75709744Y33937205D01*
X75586715Y33855000D01*
X64367285Y33855000D01*
X64244256Y33937205D01*
X64055898Y34015226D01*
X63855939Y34055000D01*
X63652061Y34055000D01*
X63452102Y34015226D01*
X63263744Y33937205D01*
X63094226Y33823937D01*
X62950063Y33679774D01*
X62836795Y33510256D01*
X62758774Y33321898D01*
X62719000Y33121939D01*
X38460000Y33121939D01*
X38460000Y34680467D01*
X49005490Y34680467D01*
X49005490Y34407533D01*
X49058737Y34139844D01*
X49163184Y33887687D01*
X49314818Y33660751D01*
X49507811Y33467758D01*
X49734747Y33316124D01*
X49986904Y33211677D01*
X50254593Y33158430D01*
X50527527Y33158430D01*
X50795216Y33211677D01*
X51047373Y33316124D01*
X51274309Y33467758D01*
X51467302Y33660751D01*
X51618936Y33887687D01*
X51723383Y34139844D01*
X51776630Y34407533D01*
X51776630Y34680467D01*
X53887370Y34680467D01*
X53887370Y34407533D01*
X53940617Y34139844D01*
X54045064Y33887687D01*
X54196698Y33660751D01*
X54389691Y33467758D01*
X54616627Y33316124D01*
X54868784Y33211677D01*
X55136473Y33158430D01*
X55409407Y33158430D01*
X55677096Y33211677D01*
X55929253Y33316124D01*
X56156189Y33467758D01*
X56349182Y33660751D01*
X56500816Y33887687D01*
X56605263Y34139844D01*
X56658510Y34407533D01*
X56658510Y34680467D01*
X56640117Y34772939D01*
X59290000Y34772939D01*
X59290000Y34569061D01*
X59329774Y34369102D01*
X59407795Y34180744D01*
X59521063Y34011226D01*
X59665226Y33867063D01*
X59834744Y33753795D01*
X60023102Y33675774D01*
X60223061Y33636000D01*
X60426939Y33636000D01*
X60626898Y33675774D01*
X60815256Y33753795D01*
X60984774Y33867063D01*
X61128937Y34011226D01*
X61150500Y34043497D01*
X61172063Y34011226D01*
X61316226Y33867063D01*
X61485744Y33753795D01*
X61674102Y33675774D01*
X61874061Y33636000D01*
X62077939Y33636000D01*
X62277898Y33675774D01*
X62466256Y33753795D01*
X62635774Y33867063D01*
X62779937Y34011226D01*
X62893205Y34180744D01*
X62971226Y34369102D01*
X62991495Y34471000D01*
X70760715Y34471000D01*
X70883744Y34388795D01*
X71072102Y34310774D01*
X71272061Y34271000D01*
X71475939Y34271000D01*
X71675898Y34310774D01*
X71864256Y34388795D01*
X72033774Y34502063D01*
X72177937Y34646226D01*
X72291205Y34815744D01*
X72369226Y35004102D01*
X72409000Y35204061D01*
X72409000Y35213505D01*
X72556942Y35274785D01*
X72726460Y35388053D01*
X72870623Y35532216D01*
X72983891Y35701734D01*
X73061912Y35890092D01*
X73101686Y36090051D01*
X73101686Y36293929D01*
X73061912Y36493888D01*
X72983891Y36682246D01*
X72885166Y36830000D01*
X83562928Y36830000D01*
X83562928Y35306000D01*
X83575188Y35181518D01*
X83611498Y35061820D01*
X83670463Y34951506D01*
X83749815Y34854815D01*
X83819044Y34798000D01*
X83749815Y34741185D01*
X83670463Y34644494D01*
X83611498Y34534180D01*
X83575188Y34414482D01*
X83562928Y34290000D01*
X83562928Y32766000D01*
X83575188Y32641518D01*
X83611498Y32521820D01*
X83670463Y32411506D01*
X83749815Y32314815D01*
X83819044Y32258000D01*
X83749815Y32201185D01*
X83670463Y32104494D01*
X83611498Y31994180D01*
X83575188Y31874482D01*
X83562928Y31750000D01*
X83562928Y30226000D01*
X83575188Y30101518D01*
X83611498Y29981820D01*
X83670463Y29871506D01*
X83749815Y29774815D01*
X83846506Y29695463D01*
X83956820Y29636498D01*
X84076518Y29600188D01*
X84201000Y29587928D01*
X85725000Y29587928D01*
X85849482Y29600188D01*
X85969180Y29636498D01*
X86079494Y29695463D01*
X86176185Y29774815D01*
X86233000Y29844044D01*
X86289815Y29774815D01*
X86386506Y29695463D01*
X86496820Y29636498D01*
X86616518Y29600188D01*
X86741000Y29587928D01*
X88265000Y29587928D01*
X88389482Y29600188D01*
X88509180Y29636498D01*
X88619494Y29695463D01*
X88716185Y29774815D01*
X88795537Y29871506D01*
X88854502Y29981820D01*
X88890812Y30101518D01*
X88903072Y30226000D01*
X88903072Y31750000D01*
X88890812Y31874482D01*
X88854502Y31994180D01*
X88795537Y32104494D01*
X88716185Y32201185D01*
X88646956Y32258000D01*
X88716185Y32314815D01*
X88795537Y32411506D01*
X88854502Y32521820D01*
X88890812Y32641518D01*
X88903072Y32766000D01*
X88903072Y34290000D01*
X88890812Y34414482D01*
X88854502Y34534180D01*
X88795537Y34644494D01*
X88716185Y34741185D01*
X88646956Y34798000D01*
X88716185Y34854815D01*
X88795537Y34951506D01*
X88854502Y35061820D01*
X88890812Y35181518D01*
X88903072Y35306000D01*
X88903072Y36830000D01*
X88890812Y36954482D01*
X88854502Y37074180D01*
X88795537Y37184494D01*
X88716185Y37281185D01*
X88619494Y37360537D01*
X88509180Y37419502D01*
X88389482Y37455812D01*
X88265000Y37468072D01*
X86741000Y37468072D01*
X86616518Y37455812D01*
X86496820Y37419502D01*
X86386506Y37360537D01*
X86289815Y37281185D01*
X86233000Y37211956D01*
X86176185Y37281185D01*
X86079494Y37360537D01*
X85969180Y37419502D01*
X85849482Y37455812D01*
X85725000Y37468072D01*
X84201000Y37468072D01*
X84076518Y37455812D01*
X83956820Y37419502D01*
X83846506Y37360537D01*
X83749815Y37281185D01*
X83670463Y37184494D01*
X83611498Y37074180D01*
X83575188Y36954482D01*
X83562928Y36830000D01*
X72885166Y36830000D01*
X72870623Y36851764D01*
X72726460Y36995927D01*
X72556942Y37109195D01*
X72368584Y37187216D01*
X72168625Y37226990D01*
X71964747Y37226990D01*
X71764788Y37187216D01*
X71576430Y37109195D01*
X71453401Y37026990D01*
X61887008Y37026990D01*
X61845990Y37031030D01*
X61804972Y37026990D01*
X61804971Y37026990D01*
X61682301Y37014908D01*
X61524903Y36967162D01*
X61379844Y36889626D01*
X61252699Y36785281D01*
X61226553Y36753422D01*
X60168225Y35695093D01*
X60023102Y35666226D01*
X59834744Y35588205D01*
X59665226Y35474937D01*
X59521063Y35330774D01*
X59407795Y35161256D01*
X59329774Y34972898D01*
X59290000Y34772939D01*
X56640117Y34772939D01*
X56605263Y34948156D01*
X56500816Y35200313D01*
X56349182Y35427249D01*
X56156189Y35620242D01*
X55929253Y35771876D01*
X55677096Y35876323D01*
X55409407Y35929570D01*
X55136473Y35929570D01*
X54868784Y35876323D01*
X54616627Y35771876D01*
X54389691Y35620242D01*
X54196698Y35427249D01*
X54045064Y35200313D01*
X53940617Y34948156D01*
X53887370Y34680467D01*
X51776630Y34680467D01*
X51723383Y34948156D01*
X51618936Y35200313D01*
X51467302Y35427249D01*
X51274309Y35620242D01*
X51047373Y35771876D01*
X50795216Y35876323D01*
X50527527Y35929570D01*
X50254593Y35929570D01*
X49986904Y35876323D01*
X49734747Y35771876D01*
X49507811Y35620242D01*
X49314818Y35427249D01*
X49163184Y35200313D01*
X49058737Y34948156D01*
X49005490Y34680467D01*
X38460000Y34680467D01*
X38460000Y35956715D01*
X38542205Y36079744D01*
X38620226Y36268102D01*
X38660000Y36468061D01*
X38660000Y36671939D01*
X38620226Y36871898D01*
X38542205Y37060256D01*
X38428937Y37229774D01*
X38284774Y37373937D01*
X38115256Y37487205D01*
X37926898Y37565226D01*
X37726939Y37605000D01*
X37523061Y37605000D01*
X37323102Y37565226D01*
X37134744Y37487205D01*
X36965226Y37373937D01*
X36821063Y37229774D01*
X36707795Y37060256D01*
X36629774Y36871898D01*
X36590000Y36671939D01*
X36590000Y36468061D01*
X36629774Y36268102D01*
X36707795Y36079744D01*
X36790001Y35956714D01*
X36790000Y30565869D01*
X33658225Y27434093D01*
X33513102Y27405226D01*
X33324744Y27327205D01*
X33155226Y27213937D01*
X33011063Y27069774D01*
X32897795Y26900256D01*
X32819774Y26711898D01*
X32780000Y26511939D01*
X32780000Y26362000D01*
X32109285Y26362000D01*
X31986256Y26444205D01*
X31797898Y26522226D01*
X31597939Y26562000D01*
X31394061Y26562000D01*
X31194102Y26522226D01*
X31005744Y26444205D01*
X30836226Y26330937D01*
X30692063Y26186774D01*
X30578795Y26017256D01*
X30500774Y25828898D01*
X30461000Y25628939D01*
X29897000Y25628939D01*
X29897000Y32607939D01*
X29887031Y32658057D01*
X29882024Y32708895D01*
X29867196Y32757777D01*
X29857226Y32807898D01*
X29837669Y32855113D01*
X29822841Y32903993D01*
X29798762Y32949042D01*
X29779205Y32996256D01*
X29750814Y33038746D01*
X29726734Y33083797D01*
X29694328Y33123284D01*
X29665937Y33165774D01*
X29629803Y33201908D01*
X29597396Y33241396D01*
X29557908Y33273803D01*
X29521774Y33309937D01*
X29479284Y33338328D01*
X29439797Y33370734D01*
X29394747Y33394814D01*
X29352256Y33423205D01*
X29305039Y33442763D01*
X29259992Y33466841D01*
X29211116Y33481668D01*
X29163898Y33501226D01*
X29113774Y33511196D01*
X29064894Y33526024D01*
X29014058Y33531031D01*
X28963939Y33541000D01*
X28912838Y33541000D01*
X28862000Y33546007D01*
X28811162Y33541000D01*
X28760061Y33541000D01*
X28709943Y33531031D01*
X28659105Y33526024D01*
X28610223Y33511196D01*
X28560102Y33501226D01*
X28512887Y33481669D01*
X28464007Y33466841D01*
X28418958Y33442762D01*
X28371744Y33423205D01*
X28329254Y33394814D01*
X28284203Y33370734D01*
X28244716Y33338328D01*
X28202226Y33309937D01*
X28166092Y33273803D01*
X28126604Y33241396D01*
X28094197Y33201908D01*
X28058063Y33165774D01*
X28029672Y33123284D01*
X27997266Y33083797D01*
X27973186Y33038747D01*
X27944795Y32996256D01*
X27925237Y32949039D01*
X27901159Y32903992D01*
X27886332Y32855116D01*
X27866774Y32807898D01*
X27856804Y32757774D01*
X27841976Y32708894D01*
X27836969Y32658058D01*
X27827000Y32607939D01*
X989000Y32607939D01*
X989000Y34327592D01*
X8963000Y34327592D01*
X8963000Y34052408D01*
X9016686Y33782510D01*
X9121995Y33528273D01*
X9274880Y33299465D01*
X9469465Y33104880D01*
X9698273Y32951995D01*
X9952510Y32846686D01*
X10222408Y32793000D01*
X10497592Y32793000D01*
X10767490Y32846686D01*
X11021727Y32951995D01*
X11250535Y33104880D01*
X11445120Y33299465D01*
X11598005Y33528273D01*
X11703314Y33782510D01*
X11757000Y34052408D01*
X11757000Y34327592D01*
X13963000Y34327592D01*
X13963000Y34052408D01*
X14016686Y33782510D01*
X14121995Y33528273D01*
X14274880Y33299465D01*
X14469465Y33104880D01*
X14698273Y32951995D01*
X14952510Y32846686D01*
X15222408Y32793000D01*
X15497592Y32793000D01*
X15767490Y32846686D01*
X16021727Y32951995D01*
X16250535Y33104880D01*
X16445120Y33299465D01*
X16598005Y33528273D01*
X16703314Y33782510D01*
X16757000Y34052408D01*
X16757000Y34327592D01*
X16703314Y34597490D01*
X16598005Y34851727D01*
X16445120Y35080535D01*
X16250535Y35275120D01*
X16021727Y35428005D01*
X15767490Y35533314D01*
X15497592Y35587000D01*
X15222408Y35587000D01*
X14952510Y35533314D01*
X14698273Y35428005D01*
X14469465Y35275120D01*
X14274880Y35080535D01*
X14121995Y34851727D01*
X14016686Y34597490D01*
X13963000Y34327592D01*
X11757000Y34327592D01*
X11703314Y34597490D01*
X11598005Y34851727D01*
X11445120Y35080535D01*
X11250535Y35275120D01*
X11021727Y35428005D01*
X10767490Y35533314D01*
X10497592Y35587000D01*
X10222408Y35587000D01*
X9952510Y35533314D01*
X9698273Y35428005D01*
X9469465Y35275120D01*
X9274880Y35080535D01*
X9121995Y34851727D01*
X9016686Y34597490D01*
X8963000Y34327592D01*
X989000Y34327592D01*
X989000Y49811000D01*
X90451001Y49811000D01*
X90451000Y989000D01*
M02*
