G04 #@! TF.GenerationSoftware,KiCad,Pcbnew,(6.0.0-rc1-dev-205-gc0615c5ef)*
G04 #@! TF.CreationDate,2019-03-07T14:34:26+01:00*
G04 #@! TF.ProjectId,SPACEDOS01B_PCB01A,5350414345444F533031425F50434230,REV*
G04 #@! TF.SameCoordinates,Original*
G04 #@! TF.FileFunction,Soldermask,Top*
G04 #@! TF.FilePolarity,Negative*
%FSLAX46Y46*%
G04 Gerber Fmt 4.6, Leading zero omitted, Abs format (unit mm)*
G04 Created by KiCad (PCBNEW (6.0.0-rc1-dev-205-gc0615c5ef)) date 03/07/19 14:34:26*
%MOMM*%
%LPD*%
G01*
G04 APERTURE LIST*
%ADD10R,1.500000X0.650000*%
%ADD11R,1.000000X1.950000*%
%ADD12R,1.289000X1.797000*%
%ADD13R,1.797000X1.289000*%
%ADD14C,1.924000*%
%ADD15R,2.700000X1.400000*%
%ADD16R,4.200000X1.400000*%
%ADD17R,1.400000X2.700000*%
%ADD18R,1.400000X4.200000*%
%ADD19R,1.400000X1.400000*%
%ADD20R,1.924000X1.924000*%
%ADD21R,2.899360X2.950160*%
%ADD22R,2.940000X1.670000*%
%ADD23R,2.950000X3.700000*%
%ADD24R,0.950000X1.900000*%
%ADD25R,1.900000X0.950000*%
%ADD26C,6.400000*%
%ADD27R,1.960000X1.050000*%
%ADD28R,1.050000X1.960000*%
%ADD29R,1.200000X1.300000*%
%ADD30R,2.200000X1.400000*%
%ADD31C,0.150000*%
%ADD32C,1.550000*%
%ADD33R,1.050000X1.460000*%
%ADD34R,1.700000X2.100000*%
%ADD35R,1.900000X1.700000*%
%ADD36R,3.400000X1.100000*%
%ADD37C,0.254000*%
G04 APERTURE END LIST*
D10*
G04 #@! TO.C,U11*
X59808000Y78470000D03*
X59808000Y77970000D03*
X59808000Y77470000D03*
X59808000Y76970000D03*
X59808000Y76470000D03*
X55508000Y76470000D03*
X55508000Y76970000D03*
X55508000Y77470000D03*
X55508000Y77970000D03*
X55508000Y78470000D03*
G04 #@! TD*
D11*
G04 #@! TO.C,U2*
X62617700Y41633100D03*
X63887700Y41633100D03*
X65157700Y41633100D03*
X66427700Y41633100D03*
X66427700Y36233100D03*
X65157700Y36233100D03*
X63887700Y36233100D03*
X62617700Y36233100D03*
G04 #@! TD*
G04 #@! TO.C,U1*
X64649700Y19281100D03*
X65919700Y19281100D03*
X67189700Y19281100D03*
X68459700Y19281100D03*
X68459700Y13881100D03*
X67189700Y13881100D03*
X65919700Y13881100D03*
X64649700Y13881100D03*
G04 #@! TD*
D12*
G04 #@! TO.C,C3*
X67000000Y11501100D03*
X68905000Y11501100D03*
G04 #@! TD*
D13*
G04 #@! TO.C,C10*
X62744700Y17533600D03*
X62744700Y15628600D03*
G04 #@! TD*
G04 #@! TO.C,C5*
X62744700Y14041100D03*
X62744700Y12136100D03*
G04 #@! TD*
G04 #@! TO.C,R6*
X60204700Y14041100D03*
X60204700Y12136100D03*
G04 #@! TD*
D12*
G04 #@! TO.C,C20*
X59379200Y16327100D03*
X57474200Y16327100D03*
G04 #@! TD*
D13*
G04 #@! TO.C,R22*
X76974700Y24676100D03*
X76974700Y26581100D03*
G04 #@! TD*
G04 #@! TO.C,R19*
X76974700Y28486100D03*
X76974700Y30391100D03*
G04 #@! TD*
G04 #@! TO.C,R15*
X76974700Y32296100D03*
X76974700Y34201100D03*
G04 #@! TD*
D12*
G04 #@! TO.C,C21*
X74371200Y30645100D03*
X72466200Y30645100D03*
G04 #@! TD*
G04 #@! TO.C,C23*
X74371200Y28613100D03*
X72466200Y28613100D03*
G04 #@! TD*
G04 #@! TO.C,C2*
X74371200Y26581100D03*
X72466200Y26581100D03*
G04 #@! TD*
G04 #@! TO.C,C24*
X74434700Y24295100D03*
X72529700Y24295100D03*
G04 #@! TD*
G04 #@! TO.C,R8*
X68840700Y25000000D03*
X70745700Y25000000D03*
G04 #@! TD*
D13*
G04 #@! TO.C,R7*
X68750000Y23155000D03*
X68750000Y21250000D03*
G04 #@! TD*
D12*
G04 #@! TO.C,R2*
X64649700Y21661100D03*
X62744700Y21661100D03*
G04 #@! TD*
G04 #@! TO.C,C11*
X63405000Y24000000D03*
X61500000Y24000000D03*
G04 #@! TD*
G04 #@! TO.C,C6*
X63405000Y25979100D03*
X61500000Y25979100D03*
G04 #@! TD*
G04 #@! TO.C,R9*
X65000000Y24250000D03*
X66905000Y24250000D03*
G04 #@! TD*
G04 #@! TO.C,C15*
X65284700Y26487100D03*
X67189700Y26487100D03*
G04 #@! TD*
G04 #@! TO.C,C16*
X67316700Y29027100D03*
X65411700Y29027100D03*
G04 #@! TD*
G04 #@! TO.C,R10*
X65411700Y31059100D03*
X67316700Y31059100D03*
G04 #@! TD*
G04 #@! TO.C,C17*
X66237200Y33599100D03*
X68142200Y33599100D03*
G04 #@! TD*
G04 #@! TO.C,R11*
X61728700Y31059100D03*
X63633700Y31059100D03*
G04 #@! TD*
G04 #@! TO.C,C18*
X61728700Y33345100D03*
X63633700Y33345100D03*
G04 #@! TD*
G04 #@! TO.C,R4*
X70936200Y37155100D03*
X72841200Y37155100D03*
G04 #@! TD*
G04 #@! TO.C,C8*
X70936200Y39441100D03*
X72841200Y39441100D03*
G04 #@! TD*
G04 #@! TO.C,C13*
X70936200Y41727100D03*
X72841200Y41727100D03*
G04 #@! TD*
G04 #@! TO.C,C4*
X57785000Y37084000D03*
X59690000Y37084000D03*
G04 #@! TD*
G04 #@! TO.C,R3*
X60522200Y41981100D03*
X58617200Y41981100D03*
G04 #@! TD*
D13*
G04 #@! TO.C,R5*
X56394700Y44203600D03*
X56394700Y42298600D03*
G04 #@! TD*
D12*
G04 #@! TO.C,R1*
X72460200Y48585100D03*
X74365200Y48585100D03*
G04 #@! TD*
G04 #@! TO.C,C19*
X66618200Y44013100D03*
X68523200Y44013100D03*
G04 #@! TD*
D13*
G04 #@! TO.C,R13*
X66808700Y45854600D03*
X66808700Y47759600D03*
G04 #@! TD*
D12*
G04 #@! TO.C,C12*
X62808200Y44013100D03*
X64713200Y44013100D03*
G04 #@! TD*
G04 #@! TO.C,C7*
X62808200Y46299100D03*
X64713200Y46299100D03*
G04 #@! TD*
G04 #@! TO.C,R12*
X62427200Y48966100D03*
X64332200Y48966100D03*
G04 #@! TD*
G04 #@! TO.C,C9*
X56712200Y46426100D03*
X54807200Y46426100D03*
G04 #@! TD*
G04 #@! TO.C,C14*
X56712200Y48966100D03*
X54807200Y48966100D03*
G04 #@! TD*
G04 #@! TO.C,C43*
X68961000Y57150000D03*
X70866000Y57150000D03*
G04 #@! TD*
D13*
G04 #@! TO.C,R23*
X66814700Y56426100D03*
X66814700Y58331100D03*
G04 #@! TD*
D12*
G04 #@! TO.C,C34*
X66687700Y59982100D03*
X68592700Y59982100D03*
G04 #@! TD*
D13*
G04 #@! TO.C,C54*
X56388000Y54737000D03*
X56388000Y56642000D03*
G04 #@! TD*
D12*
G04 #@! TO.C,C50*
X54610000Y58420000D03*
X56515000Y58420000D03*
G04 #@! TD*
G04 #@! TO.C,C42*
X54483000Y60706000D03*
X56388000Y60706000D03*
G04 #@! TD*
G04 #@! TO.C,C32*
X55118000Y67056000D03*
X53213000Y67056000D03*
G04 #@! TD*
G04 #@! TO.C,C35*
X57658000Y69088000D03*
X55753000Y69088000D03*
G04 #@! TD*
D13*
G04 #@! TO.C,C39*
X74307700Y69951600D03*
X74307700Y71856600D03*
G04 #@! TD*
G04 #@! TO.C,F2*
X79248000Y75946000D03*
X79248000Y74041000D03*
G04 #@! TD*
G04 #@! TO.C,C36*
X76962000Y75882500D03*
X76962000Y73977500D03*
G04 #@! TD*
D12*
G04 #@! TO.C,C55*
X77787500Y82804000D03*
X79692500Y82804000D03*
G04 #@! TD*
D13*
G04 #@! TO.C,R20*
X61722000Y78232000D03*
X61722000Y80137000D03*
G04 #@! TD*
D12*
G04 #@! TO.C,C31*
X67881500Y77978000D03*
X69786500Y77978000D03*
G04 #@! TD*
D13*
G04 #@! TO.C,C26*
X75438000Y82740500D03*
X75438000Y80835500D03*
G04 #@! TD*
G04 #@! TO.C,C27*
X73406000Y82740500D03*
X73406000Y80835500D03*
G04 #@! TD*
G04 #@! TO.C,C28*
X71120000Y82740500D03*
X71120000Y80835500D03*
G04 #@! TD*
D12*
G04 #@! TO.C,R21*
X54991000Y74676000D03*
X53086000Y74676000D03*
G04 #@! TD*
G04 #@! TO.C,C47*
X57848500Y80772000D03*
X55943500Y80772000D03*
G04 #@! TD*
D14*
G04 #@! TO.C,D1*
X74250000Y21590000D03*
X74250000Y16590000D03*
G04 #@! TD*
D12*
G04 #@! TO.C,C44*
X64516000Y77978000D03*
X66421000Y77978000D03*
G04 #@! TD*
G04 #@! TO.C,C40*
X64008000Y80264000D03*
X65913000Y80264000D03*
G04 #@! TD*
D15*
G04 #@! TO.C,M9*
X79884000Y84844000D03*
X79884000Y53044000D03*
D16*
X74634000Y84844000D03*
X74634000Y53044000D03*
X68634000Y84844000D03*
X68634000Y53044000D03*
X62634000Y84844000D03*
X62634000Y53044000D03*
X56634000Y84844000D03*
X56634000Y53044000D03*
D15*
X51384000Y84844000D03*
X51384000Y53044000D03*
D17*
X81534000Y83194000D03*
X49734000Y83194000D03*
D18*
X81534000Y77944000D03*
X49734000Y77944000D03*
X81534000Y71944000D03*
X49734000Y71944000D03*
X81534000Y65944000D03*
X49734000Y65944000D03*
X81534000Y59944000D03*
X49734000Y59944000D03*
D17*
X81534000Y54694000D03*
X49734000Y54694000D03*
D19*
X81534000Y53044000D03*
X81534000Y84844000D03*
X49734000Y84844000D03*
X49734000Y53044000D03*
G04 #@! TD*
D20*
G04 #@! TO.C,J2*
X79502000Y66548000D03*
X76962000Y66548000D03*
G04 #@! TD*
G04 #@! TO.C,J3*
X79502000Y71628000D03*
X76962000Y71628000D03*
G04 #@! TD*
G04 #@! TO.C,J7*
X79502000Y61468000D03*
G04 #@! TD*
G04 #@! TO.C,J4*
X76962000Y58928000D03*
G04 #@! TD*
G04 #@! TO.C,J6*
X76962000Y61468000D03*
G04 #@! TD*
G04 #@! TO.C,J5*
X79502000Y58928000D03*
G04 #@! TD*
G04 #@! TO.C,J19*
X76962000Y64008000D03*
X79502000Y64008000D03*
G04 #@! TD*
D21*
G04 #@! TO.C,C1*
X55124700Y36250860D03*
X55124700Y31201340D03*
G04 #@! TD*
D22*
G04 #@! TO.C,L1*
X68580000Y80010000D03*
X68580000Y83058000D03*
G04 #@! TD*
D20*
G04 #@! TO.C,J22*
X59448700Y56934100D03*
X59448700Y59474100D03*
X61988700Y56934100D03*
X61988700Y59474100D03*
X64528700Y56934100D03*
X64528700Y59474100D03*
G04 #@! TD*
D18*
G04 #@! TO.C,M6*
X80785000Y44034000D03*
X80785000Y38034000D03*
X80785000Y32034000D03*
X80785000Y26034000D03*
X80785000Y20034000D03*
X80785000Y14034000D03*
X50485000Y44034000D03*
X50485000Y38034000D03*
X50485000Y32034000D03*
X50485000Y26034000D03*
X50485000Y20034000D03*
X50485000Y14034000D03*
D23*
X80010000Y49784000D03*
X80010000Y8284000D03*
X51260000Y49784000D03*
X51260000Y8284000D03*
D16*
X56635000Y7134000D03*
X62635000Y7134000D03*
X68635000Y7134000D03*
X74635000Y7134000D03*
X56635000Y50934000D03*
X62635000Y50934000D03*
X68635000Y50934000D03*
X74635000Y50934000D03*
G04 #@! TD*
D24*
G04 #@! TO.C,U10*
X62466700Y64319100D03*
X63266700Y64319100D03*
X64066700Y64319100D03*
X64866700Y64319100D03*
X65666700Y64319100D03*
X66466700Y64319100D03*
X67266700Y64319100D03*
X68066700Y64319100D03*
X68866700Y64319100D03*
X69666700Y64319100D03*
X70466700Y64319100D03*
D25*
X72166700Y66019100D03*
X72166700Y66819100D03*
X72166700Y67619100D03*
X72166700Y68419100D03*
X72166700Y69219100D03*
X72166700Y70019100D03*
X72166700Y70819100D03*
X72166700Y71619100D03*
X72166700Y72419100D03*
X72166700Y73219100D03*
X72166700Y74019100D03*
D24*
X70466700Y75719100D03*
X69666700Y75719100D03*
X68866700Y75719100D03*
X68066700Y75719100D03*
X67266700Y75719100D03*
X66466700Y75719100D03*
X65666700Y75719100D03*
X64866700Y75719100D03*
X64066700Y75719100D03*
X63266700Y75719100D03*
X62466700Y75719100D03*
D25*
X60766700Y74019100D03*
X60766700Y73219100D03*
X60766700Y72419100D03*
X60766700Y71619100D03*
X60766700Y70819100D03*
X60766700Y70019100D03*
X60766700Y69219100D03*
X60766700Y68419100D03*
X60766700Y67619100D03*
X60766700Y66819100D03*
X60766700Y66019100D03*
G04 #@! TD*
D26*
G04 #@! TO.C,M2*
X44450000Y77890000D03*
G04 #@! TD*
G04 #@! TO.C,M3*
X85090000Y5080000D03*
G04 #@! TD*
G04 #@! TO.C,M4*
X44450000Y23000000D03*
G04 #@! TD*
D27*
G04 #@! TO.C,U4*
X71046700Y45979100D03*
X71046700Y45029100D03*
X71046700Y44079100D03*
X73746700Y44079100D03*
X73746700Y45979100D03*
G04 #@! TD*
D28*
G04 #@! TO.C,U5*
X58619700Y49046100D03*
X60519700Y49046100D03*
X60519700Y46346100D03*
X59569700Y46346100D03*
X58619700Y46346100D03*
G04 #@! TD*
D29*
G04 #@! TO.C,U3*
X58426700Y22677100D03*
X59376700Y20677100D03*
X57476700Y20677100D03*
G04 #@! TD*
D26*
G04 #@! TO.C,M1*
X82550000Y90810000D03*
G04 #@! TD*
D30*
G04 #@! TO.C,Y2*
X53340000Y76962000D03*
X53340000Y79462000D03*
G04 #@! TD*
D31*
G04 #@! TO.C,L3*
G36*
X58401071Y65668377D02*
X58433781Y65663525D01*
X58465857Y65655491D01*
X58496991Y65644351D01*
X58526884Y65630213D01*
X58555247Y65613213D01*
X58581807Y65593515D01*
X58606308Y65571308D01*
X58628515Y65546807D01*
X58648213Y65520247D01*
X58665213Y65491884D01*
X58679351Y65461991D01*
X58690491Y65430857D01*
X58698525Y65398781D01*
X58703377Y65366071D01*
X58705000Y65333044D01*
X58705000Y64206956D01*
X58703377Y64173929D01*
X58698525Y64141219D01*
X58690491Y64109143D01*
X58679351Y64078009D01*
X58665213Y64048116D01*
X58648213Y64019753D01*
X58628515Y63993193D01*
X58606308Y63968692D01*
X58581807Y63946485D01*
X58555247Y63926787D01*
X58526884Y63909787D01*
X58496991Y63895649D01*
X58465857Y63884509D01*
X58433781Y63876475D01*
X58401071Y63871623D01*
X58368044Y63870000D01*
X57491956Y63870000D01*
X57458929Y63871623D01*
X57426219Y63876475D01*
X57394143Y63884509D01*
X57363009Y63895649D01*
X57333116Y63909787D01*
X57304753Y63926787D01*
X57278193Y63946485D01*
X57253692Y63968692D01*
X57231485Y63993193D01*
X57211787Y64019753D01*
X57194787Y64048116D01*
X57180649Y64078009D01*
X57169509Y64109143D01*
X57161475Y64141219D01*
X57156623Y64173929D01*
X57155000Y64206956D01*
X57155000Y65333044D01*
X57156623Y65366071D01*
X57161475Y65398781D01*
X57169509Y65430857D01*
X57180649Y65461991D01*
X57194787Y65491884D01*
X57211787Y65520247D01*
X57231485Y65546807D01*
X57253692Y65571308D01*
X57278193Y65593515D01*
X57304753Y65613213D01*
X57333116Y65630213D01*
X57363009Y65644351D01*
X57394143Y65655491D01*
X57426219Y65663525D01*
X57458929Y65668377D01*
X57491956Y65670000D01*
X58368044Y65670000D01*
X58401071Y65668377D01*
X58401071Y65668377D01*
G37*
D32*
X57930000Y64770000D03*
D31*
G36*
X56351071Y65668377D02*
X56383781Y65663525D01*
X56415857Y65655491D01*
X56446991Y65644351D01*
X56476884Y65630213D01*
X56505247Y65613213D01*
X56531807Y65593515D01*
X56556308Y65571308D01*
X56578515Y65546807D01*
X56598213Y65520247D01*
X56615213Y65491884D01*
X56629351Y65461991D01*
X56640491Y65430857D01*
X56648525Y65398781D01*
X56653377Y65366071D01*
X56655000Y65333044D01*
X56655000Y64206956D01*
X56653377Y64173929D01*
X56648525Y64141219D01*
X56640491Y64109143D01*
X56629351Y64078009D01*
X56615213Y64048116D01*
X56598213Y64019753D01*
X56578515Y63993193D01*
X56556308Y63968692D01*
X56531807Y63946485D01*
X56505247Y63926787D01*
X56476884Y63909787D01*
X56446991Y63895649D01*
X56415857Y63884509D01*
X56383781Y63876475D01*
X56351071Y63871623D01*
X56318044Y63870000D01*
X55441956Y63870000D01*
X55408929Y63871623D01*
X55376219Y63876475D01*
X55344143Y63884509D01*
X55313009Y63895649D01*
X55283116Y63909787D01*
X55254753Y63926787D01*
X55228193Y63946485D01*
X55203692Y63968692D01*
X55181485Y63993193D01*
X55161787Y64019753D01*
X55144787Y64048116D01*
X55130649Y64078009D01*
X55119509Y64109143D01*
X55111475Y64141219D01*
X55106623Y64173929D01*
X55105000Y64206956D01*
X55105000Y65333044D01*
X55106623Y65366071D01*
X55111475Y65398781D01*
X55119509Y65430857D01*
X55130649Y65461991D01*
X55144787Y65491884D01*
X55161787Y65520247D01*
X55181485Y65546807D01*
X55203692Y65571308D01*
X55228193Y65593515D01*
X55254753Y65613213D01*
X55283116Y65630213D01*
X55313009Y65644351D01*
X55344143Y65655491D01*
X55376219Y65663525D01*
X55408929Y65668377D01*
X55441956Y65670000D01*
X56318044Y65670000D01*
X56351071Y65668377D01*
X56351071Y65668377D01*
G37*
D32*
X55880000Y64770000D03*
G04 #@! TD*
D33*
G04 #@! TO.C,U8*
X54048700Y64938000D03*
X53098700Y64938000D03*
X52148700Y64938000D03*
X52148700Y62738000D03*
X54048700Y62738000D03*
G04 #@! TD*
D34*
G04 #@! TO.C,D3*
X75156000Y78232000D03*
X71656000Y78232000D03*
G04 #@! TD*
D20*
G04 #@! TO.C,J1*
X76962000Y69088000D03*
X79502000Y69088000D03*
G04 #@! TD*
D35*
G04 #@! TO.C,C29*
X78232000Y78152000D03*
D36*
X78232000Y79502000D03*
D35*
X78232000Y80852000D03*
G04 #@! TD*
G04 #@! TO.C,C52*
X52324000Y55212000D03*
D36*
X52324000Y56562000D03*
D35*
X52324000Y57912000D03*
G04 #@! TD*
D37*
G36*
X49910624Y5207000D02*
X40513376Y5207000D01*
X40766624Y90805000D01*
X49657376Y90805000D01*
X49910624Y5207000D01*
X49910624Y5207000D01*
G37*
X49910624Y5207000D02*
X40513376Y5207000D01*
X40766624Y90805000D01*
X49657376Y90805000D01*
X49910624Y5207000D01*
G36*
X85217000Y84709000D02*
X41275000Y84709000D01*
X41275000Y90805000D01*
X85217000Y90805000D01*
X85217000Y84709000D01*
X85217000Y84709000D01*
G37*
X85217000Y84709000D02*
X41275000Y84709000D01*
X41275000Y90805000D01*
X85217000Y90805000D01*
X85217000Y84709000D01*
G36*
X85369657Y89627000D02*
X72874777Y89627000D01*
X72773262Y95377000D01*
X85220257Y95377000D01*
X85369657Y89627000D01*
X85369657Y89627000D01*
G37*
X85369657Y89627000D02*
X72874777Y89627000D01*
X72773262Y95377000D01*
X85220257Y95377000D01*
X85369657Y89627000D01*
G36*
X89789000Y94615124D02*
X89789000Y1397000D01*
X81407000Y1397000D01*
X81407000Y94413396D01*
X81782949Y94622968D01*
X89789000Y94615124D01*
X89789000Y94615124D01*
G37*
X89789000Y94615124D02*
X89789000Y1397000D01*
X81407000Y1397000D01*
X81407000Y94413396D01*
X81782949Y94622968D01*
X89789000Y94615124D01*
G36*
X81674330Y5207000D02*
X41052320Y5207000D01*
X41503876Y7239000D01*
X81900108Y7239000D01*
X81674330Y5207000D01*
X81674330Y5207000D01*
G37*
X81674330Y5207000D02*
X41052320Y5207000D01*
X41503876Y7239000D01*
X81900108Y7239000D01*
X81674330Y5207000D01*
G36*
X82124118Y6128353D02*
X82167821Y1397000D01*
X76582122Y1397000D01*
X76625839Y6367409D01*
X82124118Y6128353D01*
X82124118Y6128353D01*
G37*
X82124118Y6128353D02*
X82167821Y1397000D01*
X76582122Y1397000D01*
X76625839Y6367409D01*
X82124118Y6128353D01*
M02*
