G04 #@! TF.GenerationSoftware,KiCad,Pcbnew,(5.1.0-rc1-108-gb4c0af021)*
G04 #@! TF.CreationDate,2019-03-06T20:25:16+01:00
G04 #@! TF.ProjectId,SPACEDOS01B_PCB01A,53504143-4544-44f5-9330-31425f504342,REV*
G04 #@! TF.SameCoordinates,Original*
G04 #@! TF.FileFunction,Soldermask,Bot*
G04 #@! TF.FilePolarity,Negative*
%FSLAX46Y46*%
G04 Gerber Fmt 4.6, Leading zero omitted, Abs format (unit mm)*
G04 Created by KiCad (PCBNEW (5.1.0-rc1-108-gb4c0af021)) date 2019-03-06 20:25:16*
%MOMM*%
%LPD*%
G04 APERTURE LIST*
%ADD10C,1.924000*%
%ADD11R,1.400000X1.400000*%
%ADD12R,2.700000X1.400000*%
%ADD13R,4.200000X1.400000*%
%ADD14R,1.400000X2.700000*%
%ADD15R,1.400000X4.200000*%
%ADD16R,1.924000X1.924000*%
%ADD17C,6.400000*%
G04 APERTURE END LIST*
D10*
X74250000Y21590000D03*
X74250000Y16590000D03*
D11*
X74066000Y72796000D03*
X42266000Y72796000D03*
X42266000Y40996000D03*
X74066000Y40996000D03*
D12*
X72416000Y72796000D03*
X72416000Y40996000D03*
D13*
X67166000Y72796000D03*
X67166000Y40996000D03*
X61166000Y72796000D03*
X61166000Y40996000D03*
X55166000Y72796000D03*
X55166000Y40996000D03*
X49166000Y72796000D03*
X49166000Y40996000D03*
D12*
X43916000Y72796000D03*
X43916000Y40996000D03*
D14*
X74066000Y71146000D03*
X42266000Y71146000D03*
D15*
X74066000Y65896000D03*
X42266000Y65896000D03*
X74066000Y59896000D03*
X42266000Y59896000D03*
X74066000Y53896000D03*
X42266000Y53896000D03*
X74066000Y47896000D03*
X42266000Y47896000D03*
D14*
X74066000Y42646000D03*
X42266000Y42646000D03*
D16*
X79502000Y66548000D03*
X76962000Y66548000D03*
X79502000Y69088000D03*
X76962000Y69088000D03*
X79502000Y71628000D03*
X76962000Y71628000D03*
X79502000Y61468000D03*
X76962000Y58928000D03*
X76962000Y61468000D03*
X79502000Y58928000D03*
X76962000Y64008000D03*
X79502000Y64008000D03*
D17*
X44450000Y77890000D03*
X85090000Y5080000D03*
X44450000Y23000000D03*
X82550000Y90810000D03*
D11*
X80174700Y7633100D03*
X80174700Y39433100D03*
X48374700Y39433100D03*
X48374700Y7633100D03*
D14*
X80174700Y9283100D03*
X48374700Y9283100D03*
D15*
X80174700Y14533100D03*
X48374700Y14533100D03*
X80174700Y20533100D03*
X48374700Y20533100D03*
X80174700Y26533100D03*
X48374700Y26533100D03*
X80174700Y32533100D03*
X48374700Y32533100D03*
D14*
X80174700Y37783100D03*
X48374700Y37783100D03*
D12*
X78524700Y7633100D03*
X78524700Y39433100D03*
D13*
X73274700Y7633100D03*
X73274700Y39433100D03*
X67274700Y7633100D03*
X67274700Y39433100D03*
X61274700Y7633100D03*
X61274700Y39433100D03*
X55274700Y7633100D03*
X55274700Y39433100D03*
D12*
X50024700Y7633100D03*
X50024700Y39433100D03*
M02*
