<?xml version='1.0' encoding='ASCII' standalone='yes'?>
<svg xmlns:svg="http://www.w3.org/2000/svg" xmlns="http://www.w3.org/2000/svg" xmlns:xlink="http://www.w3.org/1999/xlink" version="1.1" width="297.0022mm" height="210.0072mm" viewBox="0.0000 0.0000 297.0022 210.0072">
<title>SVG Image created as SPACEDOS01-B_Fab.svg date 2024/02/09 20:41:04 </title>
  <desc>Image generated by PCBNEW </desc>
<g style="fill:#000084; fill-opacity:1.0000;stroke:#000084; stroke-opacity:1.0000; stroke-linecap:round; stroke-linejoin:round;" transform="translate(0 0) scale(1 1)">
</g>
<g style="fill:#000084; fill-opacity:0.0;  stroke:#000084; stroke-width:0.0000; stroke-opacity:1;  stroke-linecap:round; stroke-linejoin:round;">
</g>
<g style="fill:#000084; fill-opacity:0.0;  stroke:#000084; stroke-width:0.9514; stroke-opacity:1;  stroke-linecap:round; stroke-linejoin:round;">
<g transform="rotate(90.000000 198.4504 155.9994)">
<text x="198.4504" y="158.0608" transform="scale(-1 1) translate(-396.900759 0)" textLength="17.3429" font-size="5.4971" lengthAdjust="spacingAndGlyphs" text-anchor="end" opacity="0">RST#</text>
</g>
<g class="stroked-text"><desc>RST#</desc>
<path d="M196.5926 168.6011 L198.5558 169.9754 "/>
<path d="M196.5926 170.9570 L200.7154 170.9570 "/>
<path d="M200.7154 170.9570 L200.7154 169.3864 "/>
<path d="M200.7154 169.3864 L200.5190 168.9938 "/>
<path d="M200.5190 168.9938 L200.3227 168.7974 "/>
<path d="M200.3227 168.7974 L199.9301 168.6011 "/>
<path d="M199.9301 168.6011 L199.3411 168.6011 "/>
<path d="M199.3411 168.6011 L198.9485 168.7974 "/>
<path d="M198.9485 168.7974 L198.7521 168.9938 "/>
<path d="M198.7521 168.9938 L198.5558 169.3864 "/>
<path d="M198.5558 169.3864 L198.5558 170.9570 "/>
<path d="M196.7889 167.0305 L196.5926 166.4415 "/>
<path d="M196.5926 166.4415 L196.5926 165.4599 "/>
<path d="M196.5926 165.4599 L196.7889 165.0673 "/>
<path d="M196.7889 165.0673 L196.9852 164.8710 "/>
<path d="M196.9852 164.8710 L197.3779 164.6746 "/>
<path d="M197.3779 164.6746 L197.7705 164.6746 "/>
<path d="M197.7705 164.6746 L198.1632 164.8710 "/>
<path d="M198.1632 164.8710 L198.3595 165.0673 "/>
<path d="M198.3595 165.0673 L198.5558 165.4599 "/>
<path d="M198.5558 165.4599 L198.7521 166.2452 "/>
<path d="M198.7521 166.2452 L198.9485 166.6379 "/>
<path d="M198.9485 166.6379 L199.1448 166.8342 "/>
<path d="M199.1448 166.8342 L199.5374 167.0305 "/>
<path d="M199.5374 167.0305 L199.9301 167.0305 "/>
<path d="M199.9301 167.0305 L200.3227 166.8342 "/>
<path d="M200.3227 166.8342 L200.5190 166.6379 "/>
<path d="M200.5190 166.6379 L200.7154 166.2452 "/>
<path d="M200.7154 166.2452 L200.7154 165.2636 "/>
<path d="M200.7154 165.2636 L200.5190 164.6746 "/>
<path d="M200.7154 163.4967 L200.7154 161.1408 "/>
<path d="M196.5926 162.3187 L200.7154 162.3187 "/>
<path d="M199.3411 159.9629 L199.3411 157.0180 "/>
<path d="M201.1080 158.7849 L195.8073 159.9629 "/>
<path d="M197.5742 157.4107 L197.5742 160.3555 "/>
<path d="M195.8073 158.5886 L201.1080 157.4107 "/>
</g><g transform="rotate(90.000000 190.5219 156.7923)">
<text x="190.5219" y="158.8537" transform="scale(-1 1) translate(-381.043845 0)" textLength="13.0238" font-size="5.4971" lengthAdjust="spacingAndGlyphs" text-anchor="end" opacity="0">TX0</text>
</g>
<g class="stroked-text"><desc>TX0</desc>
<path d="M192.7869 168.0197 L192.7869 165.6638 "/>
<path d="M188.6641 166.8417 L192.7869 166.8417 "/>
<path d="M192.7869 164.6822 L188.6641 161.9337 "/>
<path d="M192.7869 161.9337 L188.6641 164.6822 "/>
<path d="M192.7869 159.5778 L192.7869 159.1851 "/>
<path d="M192.7869 159.1851 L192.5906 158.7925 "/>
<path d="M192.5906 158.7925 L192.3943 158.5962 "/>
<path d="M192.3943 158.5962 L192.0016 158.3998 "/>
<path d="M192.0016 158.3998 L191.2163 158.2035 "/>
<path d="M191.2163 158.2035 L190.2347 158.2035 "/>
<path d="M190.2347 158.2035 L189.4494 158.3998 "/>
<path d="M189.4494 158.3998 L189.0568 158.5962 "/>
<path d="M189.0568 158.5962 L188.8604 158.7925 "/>
<path d="M188.8604 158.7925 L188.6641 159.1851 "/>
<path d="M188.6641 159.1851 L188.6641 159.5778 "/>
<path d="M188.6641 159.5778 L188.8604 159.9704 "/>
<path d="M188.8604 159.9704 L189.0568 160.1667 "/>
<path d="M189.0568 160.1667 L189.4494 160.3631 "/>
<path d="M189.4494 160.3631 L190.2347 160.5594 "/>
<path d="M190.2347 160.5594 L191.2163 160.5594 "/>
<path d="M191.2163 160.5594 L192.0016 160.3631 "/>
<path d="M192.0016 160.3631 L192.3943 160.1667 "/>
<path d="M192.3943 160.1667 L192.5906 159.9704 "/>
<path d="M192.5906 159.9704 L192.7869 159.5778 "/>
</g><g transform="rotate(90.000000 190.5219 126.6641)">
<text x="190.5219" y="128.7255" transform="scale(-1 1) translate(-381.043852 0)" textLength="14.0054" font-size="5.4971" lengthAdjust="spacingAndGlyphs" text-anchor="end" opacity="0">RX0</text>
</g>
<g class="stroked-text"><desc>RX0</desc>
<path d="M188.6641 135.9283 L190.6273 137.3026 "/>
<path d="M188.6641 138.2842 L192.7869 138.2842 "/>
<path d="M192.7869 138.2842 L192.7869 136.7136 "/>
<path d="M192.7869 136.7136 L192.5906 136.3210 "/>
<path d="M192.5906 136.3210 L192.3943 136.1246 "/>
<path d="M192.3943 136.1246 L192.0016 135.9283 "/>
<path d="M192.0016 135.9283 L191.4126 135.9283 "/>
<path d="M191.4126 135.9283 L191.0200 136.1246 "/>
<path d="M191.0200 136.1246 L190.8237 136.3210 "/>
<path d="M190.8237 136.3210 L190.6273 136.7136 "/>
<path d="M190.6273 136.7136 L190.6273 138.2842 "/>
<path d="M192.7869 134.5540 L188.6641 131.8055 "/>
<path d="M192.7869 131.8055 L188.6641 134.5540 "/>
<path d="M192.7869 129.4496 L192.7869 129.0570 "/>
<path d="M192.7869 129.0570 L192.5906 128.6643 "/>
<path d="M192.5906 128.6643 L192.3943 128.4680 "/>
<path d="M192.3943 128.4680 L192.0016 128.2717 "/>
<path d="M192.0016 128.2717 L191.2163 128.0754 "/>
<path d="M191.2163 128.0754 L190.2347 128.0754 "/>
<path d="M190.2347 128.0754 L189.4494 128.2717 "/>
<path d="M189.4494 128.2717 L189.0568 128.4680 "/>
<path d="M189.0568 128.4680 L188.8604 128.6643 "/>
<path d="M188.8604 128.6643 L188.6641 129.0570 "/>
<path d="M188.6641 129.0570 L188.6641 129.4496 "/>
<path d="M188.6641 129.4496 L188.8604 129.8423 "/>
<path d="M188.8604 129.8423 L189.0568 130.0386 "/>
<path d="M189.0568 130.0386 L189.4494 130.2349 "/>
<path d="M189.4494 130.2349 L190.2347 130.4312 "/>
<path d="M190.2347 130.4312 L191.2163 130.4312 "/>
<path d="M191.2163 130.4312 L192.0016 130.2349 "/>
<path d="M192.0016 130.2349 L192.3943 130.0386 "/>
<path d="M192.3943 130.0386 L192.5906 129.8423 "/>
<path d="M192.5906 129.8423 L192.7869 129.4496 "/>
</g><g transform="rotate(90.000000 182.5935 126.6641)">
<text x="182.5935" y="128.7255" transform="scale(-1 1) translate(-365.186931 0)" textLength="14.2018" font-size="5.4971" lengthAdjust="spacingAndGlyphs" text-anchor="end" opacity="0">PD3</text>
</g>
<g class="stroked-text"><desc>PD3</desc>
<path d="M180.7357 138.4805 L184.8585 138.4805 "/>
<path d="M184.8585 138.4805 L184.8585 136.9099 "/>
<path d="M184.8585 136.9099 L184.6621 136.5173 "/>
<path d="M184.6621 136.5173 L184.4658 136.3210 "/>
<path d="M184.4658 136.3210 L184.0732 136.1246 "/>
<path d="M184.0732 136.1246 L183.4842 136.1246 "/>
<path d="M183.4842 136.1246 L183.0915 136.3210 "/>
<path d="M183.0915 136.3210 L182.8952 136.5173 "/>
<path d="M182.8952 136.5173 L182.6989 136.9099 "/>
<path d="M182.6989 136.9099 L182.6989 138.4805 "/>
<path d="M180.7357 134.3577 L184.8585 134.3577 "/>
<path d="M184.8585 134.3577 L184.8585 133.3761 "/>
<path d="M184.8585 133.3761 L184.6621 132.7871 "/>
<path d="M184.6621 132.7871 L184.2695 132.3945 "/>
<path d="M184.2695 132.3945 L183.8768 132.1982 "/>
<path d="M183.8768 132.1982 L183.0915 132.0018 "/>
<path d="M183.0915 132.0018 L182.5026 132.0018 "/>
<path d="M182.5026 132.0018 L181.7173 132.1982 "/>
<path d="M181.7173 132.1982 L181.3246 132.3945 "/>
<path d="M181.3246 132.3945 L180.9320 132.7871 "/>
<path d="M180.9320 132.7871 L180.7357 133.3761 "/>
<path d="M180.7357 133.3761 L180.7357 134.3577 "/>
<path d="M184.8585 130.6276 L184.8585 128.0754 "/>
<path d="M184.8585 128.0754 L183.2879 129.4496 "/>
<path d="M183.2879 129.4496 L183.2879 128.8607 "/>
<path d="M183.2879 128.8607 L183.0915 128.4680 "/>
<path d="M183.0915 128.4680 L182.8952 128.2717 "/>
<path d="M182.8952 128.2717 L182.5026 128.0754 "/>
<path d="M182.5026 128.0754 L181.5209 128.0754 "/>
<path d="M181.5209 128.0754 L181.1283 128.2717 "/>
<path d="M181.1283 128.2717 L180.9320 128.4680 "/>
<path d="M180.9320 128.4680 L180.7357 128.8607 "/>
<path d="M180.7357 128.8607 L180.7357 130.0386 "/>
<path d="M180.7357 130.0386 L180.9320 130.4312 "/>
<path d="M180.9320 130.4312 L181.1283 130.6276 "/>
</g><g transform="rotate(90.000000 182.5935 156.7923)">
<text x="182.5935" y="158.8537" transform="scale(-1 1) translate(-365.186931 0)" textLength="14.2018" font-size="5.4971" lengthAdjust="spacingAndGlyphs" text-anchor="end" opacity="0">PD2</text>
</g>
<g class="stroked-text"><desc>PD2</desc>
<path d="M180.7357 168.6087 L184.8585 168.6087 "/>
<path d="M184.8585 168.6087 L184.8585 167.0381 "/>
<path d="M184.8585 167.0381 L184.6621 166.6454 "/>
<path d="M184.6621 166.6454 L184.4658 166.4491 "/>
<path d="M184.4658 166.4491 L184.0732 166.2528 "/>
<path d="M184.0732 166.2528 L183.4842 166.2528 "/>
<path d="M183.4842 166.2528 L183.0915 166.4491 "/>
<path d="M183.0915 166.4491 L182.8952 166.6454 "/>
<path d="M182.8952 166.6454 L182.6989 167.0381 "/>
<path d="M182.6989 167.0381 L182.6989 168.6087 "/>
<path d="M180.7357 164.4859 L184.8585 164.4859 "/>
<path d="M184.8585 164.4859 L184.8585 163.5042 "/>
<path d="M184.8585 163.5042 L184.6621 162.9153 "/>
<path d="M184.6621 162.9153 L184.2695 162.5226 "/>
<path d="M184.2695 162.5226 L183.8768 162.3263 "/>
<path d="M183.8768 162.3263 L183.0915 162.1300 "/>
<path d="M183.0915 162.1300 L182.5026 162.1300 "/>
<path d="M182.5026 162.1300 L181.7173 162.3263 "/>
<path d="M181.7173 162.3263 L181.3246 162.5226 "/>
<path d="M181.3246 162.5226 L180.9320 162.9153 "/>
<path d="M180.9320 162.9153 L180.7357 163.5042 "/>
<path d="M180.7357 163.5042 L180.7357 164.4859 "/>
<path d="M184.4658 160.5594 L184.6621 160.3631 "/>
<path d="M184.6621 160.3631 L184.8585 159.9704 "/>
<path d="M184.8585 159.9704 L184.8585 158.9888 "/>
<path d="M184.8585 158.9888 L184.6621 158.5962 "/>
<path d="M184.6621 158.5962 L184.4658 158.3998 "/>
<path d="M184.4658 158.3998 L184.0732 158.2035 "/>
<path d="M184.0732 158.2035 L183.6805 158.2035 "/>
<path d="M183.6805 158.2035 L183.0915 158.3998 "/>
<path d="M183.0915 158.3998 L180.7357 160.7557 "/>
<path d="M180.7357 160.7557 L180.7357 158.2035 "/>
</g><g transform="rotate(90.000000 222.2358 155.9994)">
<text x="222.2358" y="158.0608" transform="scale(-1 1) translate(-444.471502 0)" textLength="13.4165" font-size="5.4971" lengthAdjust="spacingAndGlyphs" text-anchor="end" opacity="0">3V3</text>
</g>
<g class="stroked-text"><desc>3V3</desc>
<path d="M224.5007 167.4232 L224.5007 164.8710 "/>
<path d="M224.5007 164.8710 L222.9301 166.2452 "/>
<path d="M222.9301 166.2452 L222.9301 165.6563 "/>
<path d="M222.9301 165.6563 L222.7338 165.2636 "/>
<path d="M222.7338 165.2636 L222.5375 165.0673 "/>
<path d="M222.5375 165.0673 L222.1449 164.8710 "/>
<path d="M222.1449 164.8710 L221.1632 164.8710 "/>
<path d="M221.1632 164.8710 L220.7706 165.0673 "/>
<path d="M220.7706 165.0673 L220.5743 165.2636 "/>
<path d="M220.5743 165.2636 L220.3779 165.6563 "/>
<path d="M220.3779 165.6563 L220.3779 166.8342 "/>
<path d="M220.3779 166.8342 L220.5743 167.2268 "/>
<path d="M220.5743 167.2268 L220.7706 167.4232 "/>
<path d="M224.5007 163.6930 L220.3779 162.3188 "/>
<path d="M220.3779 162.3188 L224.5007 160.9445 "/>
<path d="M224.5007 159.9629 L224.5007 157.4107 "/>
<path d="M224.5007 157.4107 L222.9301 158.7849 "/>
<path d="M222.9301 158.7849 L222.9301 158.1960 "/>
<path d="M222.9301 158.1960 L222.7338 157.8033 "/>
<path d="M222.7338 157.8033 L222.5375 157.6070 "/>
<path d="M222.5375 157.6070 L222.1449 157.4107 "/>
<path d="M222.1449 157.4107 L221.1632 157.4107 "/>
<path d="M221.1632 157.4107 L220.7706 157.6070 "/>
<path d="M220.7706 157.6070 L220.5743 157.8033 "/>
<path d="M220.5743 157.8033 L220.3779 158.1960 "/>
<path d="M220.3779 158.1960 L220.3779 159.3739 "/>
<path d="M220.3779 159.3739 L220.5743 159.7665 "/>
<path d="M220.5743 159.7665 L220.7706 159.9629 "/>
</g><g transform="rotate(90.000000 205.5860 155.9994)">
<text x="205.5860" y="158.0608" transform="scale(-1 1) translate(-411.171982 0)" textLength="14.5944" font-size="5.4971" lengthAdjust="spacingAndGlyphs" text-anchor="end" opacity="0">GND</text>
</g>
<g class="stroked-text"><desc>GND</desc>
<path d="M207.6547 166.0489 L207.8510 166.4415 "/>
<path d="M207.8510 166.4415 L207.8510 167.0305 "/>
<path d="M207.8510 167.0305 L207.6547 167.6195 "/>
<path d="M207.6547 167.6195 L207.2620 168.0121 "/>
<path d="M207.2620 168.0121 L206.8694 168.2085 "/>
<path d="M206.8694 168.2085 L206.0841 168.4048 "/>
<path d="M206.0841 168.4048 L205.4951 168.4048 "/>
<path d="M205.4951 168.4048 L204.7098 168.2085 "/>
<path d="M204.7098 168.2085 L204.3171 168.0121 "/>
<path d="M204.3171 168.0121 L203.9245 167.6195 "/>
<path d="M203.9245 167.6195 L203.7282 167.0305 "/>
<path d="M203.7282 167.0305 L203.7282 166.6379 "/>
<path d="M203.7282 166.6379 L203.9245 166.0489 "/>
<path d="M203.9245 166.0489 L204.1208 165.8526 "/>
<path d="M204.1208 165.8526 L205.4951 165.8526 "/>
<path d="M205.4951 165.8526 L205.4951 166.6379 "/>
<path d="M203.7282 164.0857 L207.8510 164.0857 "/>
<path d="M207.8510 164.0857 L203.7282 161.7298 "/>
<path d="M203.7282 161.7298 L207.8510 161.7298 "/>
<path d="M203.7282 159.7665 L207.8510 159.7665 "/>
<path d="M207.8510 159.7665 L207.8510 158.7849 "/>
<path d="M207.8510 158.7849 L207.6547 158.1960 "/>
<path d="M207.6547 158.1960 L207.2620 157.8033 "/>
<path d="M207.2620 157.8033 L206.8694 157.6070 "/>
<path d="M206.8694 157.6070 L206.0841 157.4107 "/>
<path d="M206.0841 157.4107 L205.4951 157.4107 "/>
<path d="M205.4951 157.4107 L204.7098 157.6070 "/>
<path d="M204.7098 157.6070 L204.3171 157.8033 "/>
<path d="M204.3171 157.8033 L203.9245 158.1960 "/>
<path d="M203.9245 158.1960 L203.7282 158.7849 "/>
<path d="M203.7282 158.7849 L203.7282 159.7665 "/>
</g></g>
<g style="fill:#000084; fill-opacity:0.0;  stroke:#000084; stroke-width:0.4757; stroke-opacity:1;  stroke-linecap:round; stroke-linejoin:round;">
<g transform="rotate(-90.000000 169.9079 83.5841)">
<text x="169.9079" y="85.1698" transform="scale(-1 1) translate(-339.815869 0)" textLength="35.6781" font-size="4.2285" lengthAdjust="spacingAndGlyphs" text-anchor="middle" opacity="0">BMI-S-204-F</text>
</g>
<g class="stroked-text"><desc>BMI-S-204-F</desc>
<path d="M169.6891 67.9537 L169.8402 68.4068 "/>
<path d="M169.8402 68.4068 L169.9912 68.5578 "/>
<path d="M169.9912 68.5578 L170.2932 68.7088 "/>
<path d="M170.2932 68.7088 L170.7463 68.7088 "/>
<path d="M170.7463 68.7088 L171.0483 68.5578 "/>
<path d="M171.0483 68.5578 L171.1993 68.4068 "/>
<path d="M171.1993 68.4068 L171.3503 68.1047 "/>
<path d="M171.3503 68.1047 L171.3503 66.8966 "/>
<path d="M171.3503 66.8966 L168.1790 66.8966 "/>
<path d="M168.1790 66.8966 L168.1790 67.9537 "/>
<path d="M168.1790 67.9537 L168.3300 68.2557 "/>
<path d="M168.3300 68.2557 L168.4810 68.4068 "/>
<path d="M168.4810 68.4068 L168.7830 68.5578 "/>
<path d="M168.7830 68.5578 L169.0851 68.5578 "/>
<path d="M169.0851 68.5578 L169.3871 68.4068 "/>
<path d="M169.3871 68.4068 L169.5381 68.2557 "/>
<path d="M169.5381 68.2557 L169.6891 67.9537 "/>
<path d="M169.6891 67.9537 L169.6891 66.8966 "/>
<path d="M171.3503 70.0680 L168.1790 70.0680 "/>
<path d="M168.1790 70.0680 L170.4442 71.1251 "/>
<path d="M170.4442 71.1251 L168.1790 72.1822 "/>
<path d="M168.1790 72.1822 L171.3503 72.1822 "/>
<path d="M171.3503 73.6924 L168.1790 73.6924 "/>
<path d="M170.1422 75.2026 L170.1422 77.6189 "/>
<path d="M171.1993 78.9780 L171.3503 79.4311 "/>
<path d="M171.3503 79.4311 L171.3503 80.1862 "/>
<path d="M171.3503 80.1862 L171.1993 80.4882 "/>
<path d="M171.1993 80.4882 L171.0483 80.6392 "/>
<path d="M171.0483 80.6392 L170.7463 80.7902 "/>
<path d="M170.7463 80.7902 L170.4442 80.7902 "/>
<path d="M170.4442 80.7902 L170.1422 80.6392 "/>
<path d="M170.1422 80.6392 L169.9912 80.4882 "/>
<path d="M169.9912 80.4882 L169.8402 80.1862 "/>
<path d="M169.8402 80.1862 L169.6891 79.5821 "/>
<path d="M169.6891 79.5821 L169.5381 79.2801 "/>
<path d="M169.5381 79.2801 L169.3871 79.1290 "/>
<path d="M169.3871 79.1290 L169.0851 78.9780 "/>
<path d="M169.0851 78.9780 L168.7830 78.9780 "/>
<path d="M168.7830 78.9780 L168.4810 79.1290 "/>
<path d="M168.4810 79.1290 L168.3300 79.2801 "/>
<path d="M168.3300 79.2801 L168.1790 79.5821 "/>
<path d="M168.1790 79.5821 L168.1790 80.3372 "/>
<path d="M168.1790 80.3372 L168.3300 80.7902 "/>
<path d="M170.1422 82.1494 L170.1422 84.5657 "/>
<path d="M168.4810 85.9249 L168.3300 86.0759 "/>
<path d="M168.3300 86.0759 L168.1790 86.3779 "/>
<path d="M168.1790 86.3779 L168.1790 87.1330 "/>
<path d="M168.1790 87.1330 L168.3300 87.4350 "/>
<path d="M168.3300 87.4350 L168.4810 87.5861 "/>
<path d="M168.4810 87.5861 L168.7830 87.7371 "/>
<path d="M168.7830 87.7371 L169.0851 87.7371 "/>
<path d="M169.0851 87.7371 L169.5381 87.5861 "/>
<path d="M169.5381 87.5861 L171.3503 85.7738 "/>
<path d="M171.3503 85.7738 L171.3503 87.7371 "/>
<path d="M168.1790 89.7003 L168.1790 90.0024 "/>
<path d="M168.1790 90.0024 L168.3300 90.3044 "/>
<path d="M168.3300 90.3044 L168.4810 90.4554 "/>
<path d="M168.4810 90.4554 L168.7830 90.6064 "/>
<path d="M168.7830 90.6064 L169.3871 90.7574 "/>
<path d="M169.3871 90.7574 L170.1422 90.7574 "/>
<path d="M170.1422 90.7574 L170.7463 90.6064 "/>
<path d="M170.7463 90.6064 L171.0483 90.4554 "/>
<path d="M171.0483 90.4554 L171.1993 90.3044 "/>
<path d="M171.1993 90.3044 L171.3503 90.0024 "/>
<path d="M171.3503 90.0024 L171.3503 89.7003 "/>
<path d="M171.3503 89.7003 L171.1993 89.3983 "/>
<path d="M171.1993 89.3983 L171.0483 89.2473 "/>
<path d="M171.0483 89.2473 L170.7463 89.0962 "/>
<path d="M170.7463 89.0962 L170.1422 88.9452 "/>
<path d="M170.1422 88.9452 L169.3871 88.9452 "/>
<path d="M169.3871 88.9452 L168.7830 89.0962 "/>
<path d="M168.7830 89.0962 L168.4810 89.2473 "/>
<path d="M168.4810 89.2473 L168.3300 89.3983 "/>
<path d="M168.3300 89.3983 L168.1790 89.7003 "/>
<path d="M169.2361 93.4758 L171.3503 93.4758 "/>
<path d="M168.0279 92.7207 L170.2932 91.9656 "/>
<path d="M170.2932 91.9656 L170.2932 93.9288 "/>
<path d="M170.1422 95.1370 L170.1422 97.5533 "/>
<path d="M169.6891 100.1206 L169.6891 99.0635 "/>
<path d="M171.3503 99.0635 L168.1790 99.0635 "/>
<path d="M168.1790 99.0635 L168.1790 100.5736 "/>
</g><g transform="rotate(-90.000000 175.9209 83.5841)">
<text x="175.9209" y="85.1698" transform="scale(-1 1) translate(-351.841752 0)" textLength="10.4580" font-size="4.2285" lengthAdjust="spacingAndGlyphs" text-anchor="middle" opacity="0">M10</text>
</g>
<g class="stroked-text"><desc>M10</desc>
<path d="M177.3633 79.5066 L174.1919 79.5066 "/>
<path d="M174.1919 79.5066 L176.4572 80.5637 "/>
<path d="M176.4572 80.5637 L174.1919 81.6208 "/>
<path d="M174.1919 81.6208 L177.3633 81.6208 "/>
<path d="M177.3633 84.7922 L177.3633 82.9800 "/>
<path d="M177.3633 83.8861 L174.1919 83.8861 "/>
<path d="M174.1919 83.8861 L174.6450 83.5841 "/>
<path d="M174.6450 83.5841 L174.9470 83.2820 "/>
<path d="M174.9470 83.2820 L175.0980 82.9800 "/>
<path d="M174.1919 86.7555 L174.1919 87.0575 "/>
<path d="M174.1919 87.0575 L174.3429 87.3595 "/>
<path d="M174.3429 87.3595 L174.4939 87.5106 "/>
<path d="M174.4939 87.5106 L174.7960 87.6616 "/>
<path d="M174.7960 87.6616 L175.4000 87.8126 "/>
<path d="M175.4000 87.8126 L176.1551 87.8126 "/>
<path d="M176.1551 87.8126 L176.7592 87.6616 "/>
<path d="M176.7592 87.6616 L177.0612 87.5106 "/>
<path d="M177.0612 87.5106 L177.2123 87.3595 "/>
<path d="M177.2123 87.3595 L177.3633 87.0575 "/>
<path d="M177.3633 87.0575 L177.3633 86.7555 "/>
<path d="M177.3633 86.7555 L177.2123 86.4534 "/>
<path d="M177.2123 86.4534 L177.0612 86.3024 "/>
<path d="M177.0612 86.3024 L176.7592 86.1514 "/>
<path d="M176.7592 86.1514 L176.1551 86.0004 "/>
<path d="M176.1551 86.0004 L175.4000 86.0004 "/>
<path d="M175.4000 86.0004 L174.7960 86.1514 "/>
<path d="M174.7960 86.1514 L174.4939 86.3024 "/>
<path d="M174.4939 86.3024 L174.3429 86.4534 "/>
<path d="M174.3429 86.4534 L174.1919 86.7555 "/>
</g><text x="67.6308" y="99.7074" transform="scale(-1 1) translate(-135.261678 0)" textLength="35.6781" font-size="4.2285" lengthAdjust="spacingAndGlyphs" text-anchor="middle" opacity="0">BMI-S-204-F</text>
<g class="stroked-text"><desc>BMI-S-204-F</desc>
<path d="M83.2612 97.9029 L82.8082 98.0539 "/>
<path d="M82.8082 98.0539 L82.6571 98.2049 "/>
<path d="M82.6571 98.2049 L82.5061 98.5070 "/>
<path d="M82.5061 98.5070 L82.5061 98.9600 "/>
<path d="M82.5061 98.9600 L82.6571 99.2621 "/>
<path d="M82.6571 99.2621 L82.8082 99.4131 "/>
<path d="M82.8082 99.4131 L83.1102 99.5641 "/>
<path d="M83.1102 99.5641 L84.3183 99.5641 "/>
<path d="M84.3183 99.5641 L84.3183 96.3927 "/>
<path d="M84.3183 96.3927 L83.2612 96.3927 "/>
<path d="M83.2612 96.3927 L82.9592 96.5437 "/>
<path d="M82.9592 96.5437 L82.8082 96.6948 "/>
<path d="M82.8082 96.6948 L82.6571 96.9968 "/>
<path d="M82.6571 96.9968 L82.6571 97.2988 "/>
<path d="M82.6571 97.2988 L82.8082 97.6009 "/>
<path d="M82.8082 97.6009 L82.9592 97.7519 "/>
<path d="M82.9592 97.7519 L83.2612 97.9029 "/>
<path d="M83.2612 97.9029 L84.3183 97.9029 "/>
<path d="M81.1470 99.5641 L81.1470 96.3927 "/>
<path d="M81.1470 96.3927 L80.0898 98.6580 "/>
<path d="M80.0898 98.6580 L79.0327 96.3927 "/>
<path d="M79.0327 96.3927 L79.0327 99.5641 "/>
<path d="M77.5225 99.5641 L77.5225 96.3927 "/>
<path d="M76.0123 98.3560 L73.5961 98.3560 "/>
<path d="M72.2369 99.4131 L71.7838 99.5641 "/>
<path d="M71.7838 99.5641 L71.0287 99.5641 "/>
<path d="M71.0287 99.5641 L70.7267 99.4131 "/>
<path d="M70.7267 99.4131 L70.5757 99.2621 "/>
<path d="M70.5757 99.2621 L70.4247 98.9600 "/>
<path d="M70.4247 98.9600 L70.4247 98.6580 "/>
<path d="M70.4247 98.6580 L70.5757 98.3560 "/>
<path d="M70.5757 98.3560 L70.7267 98.2049 "/>
<path d="M70.7267 98.2049 L71.0287 98.0539 "/>
<path d="M71.0287 98.0539 L71.6328 97.9029 "/>
<path d="M71.6328 97.9029 L71.9349 97.7519 "/>
<path d="M71.9349 97.7519 L72.0859 97.6009 "/>
<path d="M72.0859 97.6009 L72.2369 97.2988 "/>
<path d="M72.2369 97.2988 L72.2369 96.9968 "/>
<path d="M72.2369 96.9968 L72.0859 96.6948 "/>
<path d="M72.0859 96.6948 L71.9349 96.5437 "/>
<path d="M71.9349 96.5437 L71.6328 96.3927 "/>
<path d="M71.6328 96.3927 L70.8777 96.3927 "/>
<path d="M70.8777 96.3927 L70.4247 96.5437 "/>
<path d="M69.0655 98.3560 L66.6492 98.3560 "/>
<path d="M65.2901 96.6948 L65.1390 96.5437 "/>
<path d="M65.1390 96.5437 L64.8370 96.3927 "/>
<path d="M64.8370 96.3927 L64.0819 96.3927 "/>
<path d="M64.0819 96.3927 L63.7799 96.5437 "/>
<path d="M63.7799 96.5437 L63.6289 96.6948 "/>
<path d="M63.6289 96.6948 L63.4778 96.9968 "/>
<path d="M63.4778 96.9968 L63.4778 97.2988 "/>
<path d="M63.4778 97.2988 L63.6289 97.7519 "/>
<path d="M63.6289 97.7519 L65.4411 99.5641 "/>
<path d="M65.4411 99.5641 L63.4778 99.5641 "/>
<path d="M61.5146 96.3927 L61.2126 96.3927 "/>
<path d="M61.2126 96.3927 L60.9105 96.5437 "/>
<path d="M60.9105 96.5437 L60.7595 96.6948 "/>
<path d="M60.7595 96.6948 L60.6085 96.9968 "/>
<path d="M60.6085 96.9968 L60.4575 97.6009 "/>
<path d="M60.4575 97.6009 L60.4575 98.3560 "/>
<path d="M60.4575 98.3560 L60.6085 98.9600 "/>
<path d="M60.6085 98.9600 L60.7595 99.2621 "/>
<path d="M60.7595 99.2621 L60.9105 99.4131 "/>
<path d="M60.9105 99.4131 L61.2126 99.5641 "/>
<path d="M61.2126 99.5641 L61.5146 99.5641 "/>
<path d="M61.5146 99.5641 L61.8166 99.4131 "/>
<path d="M61.8166 99.4131 L61.9677 99.2621 "/>
<path d="M61.9677 99.2621 L62.1187 98.9600 "/>
<path d="M62.1187 98.9600 L62.2697 98.3560 "/>
<path d="M62.2697 98.3560 L62.2697 97.6009 "/>
<path d="M62.2697 97.6009 L62.1187 96.9968 "/>
<path d="M62.1187 96.9968 L61.9677 96.6948 "/>
<path d="M61.9677 96.6948 L61.8166 96.5437 "/>
<path d="M61.8166 96.5437 L61.5146 96.3927 "/>
<path d="M57.7391 97.4498 L57.7391 99.5641 "/>
<path d="M58.4942 96.2417 L59.2493 98.5070 "/>
<path d="M59.2493 98.5070 L57.2861 98.5070 "/>
<path d="M56.0779 98.3560 L53.6617 98.3560 "/>
<path d="M51.0943 97.9029 L52.1515 97.9029 "/>
<path d="M52.1515 99.5641 L52.1515 96.3927 "/>
<path d="M52.1515 96.3927 L50.6413 96.3927 "/>
</g><text x="70.1143" y="104.5428" transform="scale(-1 1) translate(-140.228697 0)" textLength="7.4376" font-size="4.2285" lengthAdjust="spacingAndGlyphs" text-anchor="middle" opacity="0">M8</text>
<g class="stroked-text"><desc>M8</desc>
<path d="M72.6817 104.3995 L72.6817 101.2281 "/>
<path d="M72.6817 101.2281 L71.6245 103.4934 "/>
<path d="M71.6245 103.4934 L70.5674 101.2281 "/>
<path d="M70.5674 101.2281 L70.5674 104.3995 "/>
<path d="M68.6042 102.5873 L68.9062 102.4363 "/>
<path d="M68.9062 102.4363 L69.0572 102.2853 "/>
<path d="M69.0572 102.2853 L69.2082 101.9832 "/>
<path d="M69.2082 101.9832 L69.2082 101.8322 "/>
<path d="M69.2082 101.8322 L69.0572 101.5302 "/>
<path d="M69.0572 101.5302 L68.9062 101.3791 "/>
<path d="M68.9062 101.3791 L68.6042 101.2281 "/>
<path d="M68.6042 101.2281 L68.0001 101.2281 "/>
<path d="M68.0001 101.2281 L67.6981 101.3791 "/>
<path d="M67.6981 101.3791 L67.5470 101.5302 "/>
<path d="M67.5470 101.5302 L67.3960 101.8322 "/>
<path d="M67.3960 101.8322 L67.3960 101.9832 "/>
<path d="M67.3960 101.9832 L67.5470 102.2853 "/>
<path d="M67.5470 102.2853 L67.6981 102.4363 "/>
<path d="M67.6981 102.4363 L68.0001 102.5873 "/>
<path d="M68.0001 102.5873 L68.6042 102.5873 "/>
<path d="M68.6042 102.5873 L68.9062 102.7383 "/>
<path d="M68.9062 102.7383 L69.0572 102.8893 "/>
<path d="M69.0572 102.8893 L69.2082 103.1914 "/>
<path d="M69.2082 103.1914 L69.2082 103.7954 "/>
<path d="M69.2082 103.7954 L69.0572 104.0975 "/>
<path d="M69.0572 104.0975 L68.9062 104.2485 "/>
<path d="M68.9062 104.2485 L68.6042 104.3995 "/>
<path d="M68.6042 104.3995 L68.0001 104.3995 "/>
<path d="M68.0001 104.3995 L67.6981 104.2485 "/>
<path d="M67.6981 104.2485 L67.5470 104.0975 "/>
<path d="M67.5470 104.0975 L67.3960 103.7954 "/>
<path d="M67.3960 103.7954 L67.3960 103.1914 "/>
<path d="M67.3960 103.1914 L67.5470 102.8893 "/>
<path d="M67.5470 102.8893 L67.6981 102.7383 "/>
<path d="M67.6981 102.7383 L68.0001 102.5873 "/>
</g></g>
<g style="fill:#000084; fill-opacity:0.0;  stroke:#000084; stroke-width:0.3171; stroke-opacity:1;  stroke-linecap:round; stroke-linejoin:round;">
<path d="M125.1788 134.3262 L125.1788 32.8420 "/>
<path d="M226.6630 134.3262 L125.1788 134.3262 "/>
<path d="M125.1788 32.8420 L226.6630 32.8420 "/>
<path d="M226.6630 32.8420 L226.6630 134.3262 "/>
<path d="M19.3722 52.2150 L120.8565 52.2150 "/>
<path d="M19.3722 153.6992 L19.3722 52.2150 "/>
<path d="M120.8565 52.2150 L120.8565 153.6992 "/>
<path d="M120.8565 153.6992 L19.3722 153.6992 "/>
<g>
</g>
<g>
</g>
<g>
</g>
<g>
</g>
<g>
</g>
<g>
</g>
<g>
</g>
<g>
</g>
<g>
</g>
<g>
</g>
<g>
</g>
<g>
</g>
<g>
</g>
<g>
</g>
<g>
</g>
<g>
</g>
<g>
</g>
<g>
</g>
<g>
</g>
<g>
</g>
<g>
</g>
<g>
</g>
<g>
</g>
<g>
</g>
<g>
</g>
<g>
</g>
<g>
</g>
<g>
</g>
<g>
</g>
<g>
</g>
<g>
</g>
<g>
</g>
<g>
</g>
<g>
</g>
<g>
</g>
<g>
</g>
<g>
</g>
<g>
</g>
<g>
</g>
<g>
</g>
<g>
</g>
<g>
</g>
<g>
</g>
<g>
</g>
<g>
</g>
<g>
</g>
<g>
</g>
<g>
</g>
<g>
</g>
<g>
</g>
<g>
</g>
<g>
</g>
<g>
</g>
<g>
</g>
<g>
</g>
<g>
</g>
<g>
</g>
<g>
</g>
<g>
</g>
<g>
</g>
<g>
</g>
<g>
</g>
<g>
</g>
<g>
</g>
<g>
</g>
<g>
</g>
<g>
</g>
<g>
</g>
<g>
</g>
<g>
</g>
<g>
</g>
<g>
</g>
<g>
</g>
<g>
</g>
<g>
</g>
<g>
</g>
<g>
</g>
<g>
</g>
<g>
</g>
<g>
</g>
<g>
</g>
<g>
</g>
<g>
</g>
<g>
</g>
<g>
</g>
<g>
</g>
<g>
</g>
<g>
</g>
<g>
</g>
<g>
</g>
<g>
</g>
<g>
</g>
<g>
</g>
<g>
</g>
<g>
</g>
</g> 
<svg:g><svg:g><svg:title>SVG Image created as SPACEDOS01-Edge_Cuts.svg date 2024/02/09 20:41:04 </svg:title>
  <svg:desc>Image generated by PCBNEW </svg:desc>
<svg:g style="fill:#C2C200; fill-opacity:1.0000;stroke:#C2C200; stroke-opacity:1.0000; stroke-linecap:round; stroke-linejoin:round;" transform="translate(0 0) scale(1 1)">
</svg:g>
<svg:g style="fill:#C2C200; fill-opacity:0.0;  stroke:#C2C200; stroke-width:0.0000; stroke-opacity:1;  stroke-linecap:round; stroke-linejoin:round;">
</svg:g>
<svg:g style="fill:#C2C200; fill-opacity:0.0;  stroke:#C2C200; stroke-width:0.4757; stroke-opacity:1;  stroke-linecap:round; stroke-linejoin:round;">
<svg:path d="M19.2673 28.6367 A6.3428 6.3428 0.0 0 0 12.9245 34.9795"/>
<svg:path d="M6.5817 146.4853 A6.3428 6.3428 0.0 0 0 0.2390 152.8281"/>
<svg:path d="M0.2390 175.0277 A6.3426 6.3426 0.0 0 0 6.5817 181.3705"/>
<svg:path d="M6.5817 181.3705 L207.9645 181.3705 "/>
<svg:path d="M12.9245 34.9795 L12.9245 140.1425 "/>
<svg:path d="M0.2390 152.8281 L0.2390 175.0277 "/>
<svg:path d="M212.7216 174.7106 L212.7216 176.6134 "/>
<svg:path d="M217.4787 169.9535 A4.7571 4.7571 0.0 0 0 212.7216 174.7106"/>
<svg:path d="M207.9645 181.3705 A4.7570 4.7570 0.0 0 0 212.7216 176.6134"/>
<svg:path d="M6.5817 146.4853 A6.3427 6.3427 0.0 0 0 12.9245 140.1425"/>
<svg:path d="M281.2235 34.9795 L281.2235 127.4570 "/>
<svg:path d="M296.7632 140.1425 L296.7632 163.6108 "/>
<svg:path d="M290.4205 169.9535 L217.4787 169.9535 "/>
<svg:path d="M290.4205 169.9535 A6.3427 6.3427 0.0 0 0 296.7632 163.6108"/>
<svg:path d="M290.4205 133.7998 L287.5662 133.7998 "/>
<svg:path d="M281.2235 127.4570 A6.3426 6.3426 0.0 0 0 287.5662 133.7998"/>
<svg:path d="M19.2673 28.6367 L274.8807 28.6367 "/>
<svg:path d="M296.7632 140.1425 A6.3429 6.3429 0.0 0 0 290.4205 133.7998"/>
<svg:path d="M281.2235 34.9795 A6.3429 6.3429 0.0 0 0 274.8807 28.6367"/>
<svg:g>
</svg:g>
<svg:g>
</svg:g>
<svg:g>
</svg:g>
<svg:g>
</svg:g>
<svg:g>
</svg:g>
<svg:g>
</svg:g>
<svg:g>
</svg:g>
<svg:g>
</svg:g>
<svg:g>
</svg:g>
<svg:g>
</svg:g>
<svg:g>
</svg:g>
<svg:g>
</svg:g>
<svg:g>
</svg:g>
<svg:g>
</svg:g>
<svg:g>
</svg:g>
<svg:g>
</svg:g>
<svg:g>
</svg:g>
<svg:g>
</svg:g>
<svg:g>
</svg:g>
<svg:g>
</svg:g>
<svg:g>
</svg:g>
<svg:g>
</svg:g>
<svg:g>
</svg:g>
<svg:g>
</svg:g>
<svg:g>
</svg:g>
<svg:g>
</svg:g>
<svg:g>
</svg:g>
<svg:g>
</svg:g>
<svg:g>
</svg:g>
<svg:g>
</svg:g>
<svg:g>
</svg:g>
<svg:g>
</svg:g>
<svg:g>
</svg:g>
<svg:g>
</svg:g>
<svg:g>
</svg:g>
<svg:g>
</svg:g>
<svg:g>
</svg:g>
<svg:g>
</svg:g>
<svg:g>
</svg:g>
<svg:g>
</svg:g>
<svg:g>
</svg:g>
<svg:g>
</svg:g>
<svg:g>
</svg:g>
<svg:g>
</svg:g>
<svg:g>
</svg:g>
<svg:g>
</svg:g>
<svg:g>
</svg:g>
<svg:g>
</svg:g>
<svg:g>
</svg:g>
<svg:g>
</svg:g>
<svg:g>
</svg:g>
<svg:g>
</svg:g>
<svg:g>
</svg:g>
<svg:g>
</svg:g>
<svg:g>
</svg:g>
<svg:g>
</svg:g>
<svg:g>
</svg:g>
<svg:g>
</svg:g>
<svg:g>
</svg:g>
<svg:g>
</svg:g>
<svg:g>
</svg:g>
<svg:g>
</svg:g>
<svg:g>
</svg:g>
<svg:g>
</svg:g>
<svg:g>
</svg:g>
<svg:g>
</svg:g>
<svg:g>
</svg:g>
<svg:g>
</svg:g>
<svg:g>
</svg:g>
<svg:g>
</svg:g>
<svg:g>
</svg:g>
<svg:g>
</svg:g>
<svg:g>
</svg:g>
<svg:g>
</svg:g>
<svg:g>
</svg:g>
<svg:g>
</svg:g>
<svg:g>
</svg:g>
<svg:g>
</svg:g>
<svg:g>
</svg:g>
<svg:g>
</svg:g>
<svg:g>
</svg:g>
<svg:g>
</svg:g>
<svg:g>
</svg:g>
<svg:g>
</svg:g>
<svg:g>
</svg:g>
<svg:g>
</svg:g>
<svg:g>
</svg:g>
<svg:g>
</svg:g>
<svg:g>
</svg:g>
<svg:g>
</svg:g>
<svg:g>
</svg:g>
<svg:g>
</svg:g>
<svg:g>
</svg:g>
<svg:g>
</svg:g>
<svg:g>
</svg:g>
</svg:g> 
</svg:g></svg:g></svg>
