%TF.GenerationSoftware,KiCad,Pcbnew,9.0.7+1*%
%TF.CreationDate,2026-03-29T01:48:46+00:00*%
%TF.ProjectId,SPACEDOS01,53504143-4544-44f5-9330-312e6b696361,B*%
%TF.SameCoordinates,Original*%
%TF.FileFunction,Copper,L2,Bot*%
%TF.FilePolarity,Positive*%
%FSLAX46Y46*%
G04 Gerber Fmt 4.6, Leading zero omitted, Abs format (unit mm)*
G04 Created by KiCad (PCBNEW 9.0.7+1) date 2026-03-29 01:48:46*
%MOMM*%
%LPD*%
G01*
G04 APERTURE LIST*
%TA.AperFunction,ComponentPad*%
%ADD10C,6.000000*%
%TD*%
%TA.AperFunction,ComponentPad*%
%ADD11C,1.524000*%
%TD*%
%TA.AperFunction,ComponentPad*%
%ADD12R,1.524000X1.524000*%
%TD*%
%TA.AperFunction,SMDPad,CuDef*%
%ADD13R,1.000000X1.000000*%
%TD*%
%TA.AperFunction,SMDPad,CuDef*%
%ADD14R,2.300000X1.000000*%
%TD*%
%TA.AperFunction,SMDPad,CuDef*%
%ADD15R,3.800000X1.000000*%
%TD*%
%TA.AperFunction,SMDPad,CuDef*%
%ADD16R,1.000000X2.300000*%
%TD*%
%TA.AperFunction,SMDPad,CuDef*%
%ADD17R,1.000000X3.800000*%
%TD*%
%TA.AperFunction,ViaPad*%
%ADD18C,0.800000*%
%TD*%
%TA.AperFunction,Conductor*%
%ADD19C,0.250000*%
%TD*%
%TA.AperFunction,Conductor*%
%ADD20C,0.400000*%
%TD*%
%TA.AperFunction,Conductor*%
%ADD21C,0.300000*%
%TD*%
%TA.AperFunction,Conductor*%
%ADD22C,0.800000*%
%TD*%
%TA.AperFunction,Conductor*%
%ADD23C,0.600000*%
%TD*%
G04 APERTURE END LIST*
D10*
%TO.P,M4,1*%
%TO.N,GND*%
X113934528Y-84421653D03*
%TD*%
%TO.P,M2,1*%
%TO.N,GND*%
X168824527Y-84421653D03*
%TD*%
%TO.P,M1,1*%
%TO.N,GND*%
X181744527Y-122521653D03*
%TD*%
%TO.P,M3,1*%
%TO.N,GND*%
X96014527Y-125061654D03*
%TD*%
D11*
%TO.P,D1,1,K*%
%TO.N,/K*%
X112524527Y-114221653D03*
%TO.P,D1,2,A*%
%TO.N,/A*%
X107524527Y-114221653D03*
%TD*%
D12*
%TO.P,J19,1*%
%TO.N,/cpu/RST#*%
X154942527Y-119473653D03*
%TO.P,J19,2*%
X154942527Y-116933653D03*
%TD*%
%TO.P,J6,1*%
%TO.N,/cpu/RX0*%
X152402527Y-116933653D03*
%TD*%
%TO.P,J4,1*%
%TO.N,/cpu/PD3*%
X149862527Y-116933653D03*
%TD*%
%TO.P,J7,1*%
%TO.N,/cpu/TX0*%
X152402527Y-119473653D03*
%TD*%
%TO.P,J3,1*%
%TO.N,/power/3*%
X162562527Y-116933653D03*
%TO.P,J3,2*%
X162562527Y-119473653D03*
%TD*%
%TO.P,J2,1*%
%TO.N,GND*%
X157482527Y-116933653D03*
%TO.P,J2,2*%
X157482527Y-119473653D03*
%TD*%
D13*
%TO.P,M10,1*%
%TO.N,GND*%
X131930527Y-114037654D03*
D14*
X133580527Y-114037654D03*
D15*
X138830527Y-114037654D03*
X144830527Y-114037654D03*
X150830527Y-114037654D03*
X156830527Y-114037654D03*
D14*
X162080527Y-114037654D03*
D13*
X163730527Y-114037654D03*
D16*
X131930527Y-112387654D03*
X163730527Y-112387654D03*
D17*
X131930527Y-107137654D03*
X163730527Y-107137654D03*
X131930527Y-101137654D03*
X163730527Y-101137654D03*
X131930527Y-95137654D03*
X163730527Y-95137654D03*
X131930527Y-89137654D03*
X163730527Y-89137654D03*
D16*
X131930527Y-83887654D03*
X163730527Y-83887654D03*
D13*
X131930527Y-82237654D03*
D14*
X133580527Y-82237654D03*
D15*
X138830527Y-82237654D03*
X144830527Y-82237654D03*
X150830527Y-82237654D03*
X156830527Y-82237654D03*
D14*
X162080527Y-82237654D03*
D13*
X163730527Y-82237654D03*
%TD*%
%TO.P,M8,1*%
%TO.N,GND*%
X98567627Y-88346353D03*
D16*
X98567627Y-89996353D03*
D17*
X98567627Y-95246353D03*
X98567627Y-101246353D03*
X98567627Y-107246353D03*
X98567627Y-113246353D03*
D16*
X98567627Y-118496353D03*
D13*
X98567627Y-120146353D03*
D14*
X100217627Y-88346353D03*
X100217627Y-120146353D03*
D15*
X105467627Y-88346353D03*
X105467627Y-120146353D03*
X111467627Y-88346353D03*
X111467627Y-120146353D03*
X117467627Y-88346353D03*
X117467627Y-120146353D03*
X123467627Y-88346353D03*
X123467627Y-120146353D03*
D14*
X128717627Y-88346353D03*
X128717627Y-120146353D03*
D13*
X130367627Y-88346353D03*
D16*
X130367627Y-89996353D03*
D17*
X130367627Y-95246353D03*
X130367627Y-101246353D03*
X130367627Y-107246353D03*
X130367627Y-113246353D03*
D16*
X130367627Y-118496353D03*
D13*
X130367627Y-120146353D03*
%TD*%
D12*
%TO.P,J5,1*%
%TO.N,/cpu/PD2*%
X149862527Y-119473653D03*
%TD*%
%TO.P,J1,1*%
%TO.N,unconnected-(J1-Pad1)*%
X160022527Y-119473653D03*
%TO.P,J1,2*%
%TO.N,unconnected-(J1-Pad2)*%
X160022527Y-116933653D03*
%TD*%
D18*
%TO.N,GND*%
X153570736Y-100614352D03*
X135945050Y-116412314D03*
X138031934Y-114094660D03*
X157647627Y-102214353D03*
X123230627Y-112501353D03*
X107355627Y-117454353D03*
X105831627Y-117454353D03*
X104307627Y-116438353D03*
X103291627Y-115422353D03*
X151932627Y-104627353D03*
X125770627Y-113136353D03*
X124500627Y-110596353D03*
X112684527Y-115971653D03*
X140883627Y-108310353D03*
X125770628Y-115041353D03*
X138089627Y-111358353D03*
X119420627Y-109326353D03*
X113705627Y-117581353D03*
X138089627Y-110342353D03*
X134660627Y-116946352D03*
X124500627Y-115041353D03*
X120563627Y-108818353D03*
X127040627Y-114406353D03*
X113705627Y-116311353D03*
X111419627Y-116438353D03*
X133390627Y-116311353D03*
X133390627Y-115041353D03*
X110403627Y-117454353D03*
X124500627Y-109326353D03*
X123230626Y-109834353D03*
X155615627Y-100690353D03*
X140121627Y-109326353D03*
X129580627Y-114406353D03*
X137200628Y-116311353D03*
X130850627Y-114406353D03*
X128310627Y-114406353D03*
X123230627Y-114406353D03*
X138851627Y-109326353D03*
X138089628Y-112882353D03*
X125135627Y-111866353D03*
X121960627Y-110850353D03*
X118150627Y-109326353D03*
X132120627Y-114406353D03*
X108879627Y-117454353D03*
X131485626Y-97261353D03*
X117434527Y-100221653D03*
X107990627Y-110596353D03*
X107952527Y-111853653D03*
X104934527Y-111721654D03*
X102910628Y-111471653D03*
X99735627Y-110596353D03*
X127167627Y-100690353D03*
X99735628Y-108691353D03*
X120055627Y-100436353D03*
X129580627Y-100436353D03*
X108934527Y-112971653D03*
X99735627Y-99801353D03*
X108934527Y-114721653D03*
X120055626Y-103738353D03*
X111508527Y-115409652D03*
X99735627Y-102976353D03*
X113184527Y-112471653D03*
X99735627Y-101071353D03*
X107990627Y-95991353D03*
X102275627Y-114406353D03*
X108934527Y-111721653D03*
X104815627Y-96626354D03*
X99735628Y-111866353D03*
X99735627Y-106786353D03*
X100370626Y-98531353D03*
X101640627Y-97261352D03*
X130850627Y-98531353D03*
X131231627Y-96118353D03*
X128310627Y-101071353D03*
X118785627Y-103738353D03*
X131485627Y-101071353D03*
X120055626Y-101706353D03*
X118785627Y-100436353D03*
X118785627Y-101706353D03*
X123865627Y-100436353D03*
X116245627Y-99166353D03*
X122595627Y-100436353D03*
X121325627Y-100436352D03*
X105684527Y-114471653D03*
X105184527Y-110471653D03*
X99735627Y-104881354D03*
X102910627Y-96626353D03*
X129707627Y-96118352D03*
X106085627Y-95991353D03*
X104934527Y-113221653D03*
X116880627Y-95356353D03*
X125135627Y-95356353D03*
X123230627Y-97261353D03*
X118150627Y-96626354D03*
X136311627Y-91038353D03*
X125135627Y-94086353D03*
X127962627Y-107669353D03*
X131485627Y-91038353D03*
X119420627Y-97261353D03*
X125478527Y-92549653D03*
X135963627Y-104748353D03*
X123865627Y-92816353D03*
X133009628Y-91038353D03*
X136090627Y-100811353D03*
X128526527Y-92295653D03*
X102181627Y-104494353D03*
X129105627Y-109066353D03*
X116245627Y-100221653D03*
X134533626Y-91038353D03*
X114975627Y-100221654D03*
X114975627Y-97896353D03*
X130413627Y-106526353D03*
X111165627Y-95991353D03*
X106499627Y-100938353D03*
X134820628Y-100811353D03*
X136725627Y-108431353D03*
X130623813Y-107548167D03*
X124500627Y-96626354D03*
X130629627Y-103478353D03*
X121960627Y-97261353D03*
X115610627Y-94721353D03*
X114975627Y-99166353D03*
X109895627Y-95991353D03*
X112435627Y-94721353D03*
X131645627Y-108266354D03*
X114340627Y-94721353D03*
X120690627Y-97261353D03*
X136090628Y-109066353D03*
X137835627Y-91038353D03*
X127002527Y-92295653D03*
X130215627Y-92562353D03*
X127835627Y-109066353D03*
X102181627Y-105764353D03*
X107515084Y-109046918D03*
X109420627Y-110336353D03*
X134660627Y-94721353D03*
X107515627Y-104621353D03*
X101259627Y-113390353D03*
X107515627Y-107796353D03*
X107515627Y-106526353D03*
X107863627Y-100811353D03*
X109420627Y-100811353D03*
X111927627Y-101198353D03*
X110055627Y-102716352D03*
X124434527Y-113471653D03*
X163684527Y-104471653D03*
X165184527Y-114471653D03*
X171452527Y-99661653D03*
X163324527Y-94327653D03*
X166434527Y-114471653D03*
X172468527Y-92803653D03*
X168677365Y-97820153D03*
X163324527Y-93057654D03*
X127256528Y-108297653D03*
X163324527Y-95597653D03*
X172722527Y-99661653D03*
X172684527Y-102721653D03*
X157684527Y-109721653D03*
X158184527Y-107971653D03*
X170434527Y-116721653D03*
X172468527Y-94073654D03*
X159684527Y-109221653D03*
%TO.N,/cpu/RST#*%
X149354527Y-110761353D03*
X154434527Y-112869653D03*
%TO.N,/cpu/PC0*%
X161800527Y-110075653D03*
X162308527Y-96867653D03*
%TO.N,/cpu/PC1*%
X163324527Y-110329653D03*
X163070526Y-98137655D03*
%TO.N,/cpu/PB6*%
X153075627Y-102214353D03*
X149138627Y-100563353D03*
%TO.N,+3V3*%
X126057627Y-111352353D03*
X126057627Y-98906353D03*
X133606527Y-92803653D03*
X161038527Y-91279653D03*
X133606527Y-93819653D03*
X162308527Y-91279653D03*
%TO.N,PA1*%
X128691627Y-104373353D03*
X160784527Y-105249653D03*
%TO.N,PA0*%
X140375627Y-110596353D03*
X159265113Y-105508239D03*
%TO.N,Net-(U2B--)*%
X135988730Y-112927085D03*
X133606527Y-105503653D03*
%TO.N,PB0*%
X159171627Y-102722353D03*
X139900627Y-101706354D03*
%TO.N,/cpu/PD3*%
X155673352Y-112266745D03*
X152080174Y-111847686D03*
%TO.N,/cpu/PD2*%
X151199832Y-110904958D03*
X154717866Y-111369642D03*
%TD*%
D19*
%TO.N,GND*%
X130629627Y-102208353D02*
X130883627Y-101954353D01*
X130629627Y-103478353D02*
X130629627Y-102208353D01*
X102181627Y-104494353D02*
X102181627Y-105764353D01*
D20*
X129105627Y-109066353D02*
X127835627Y-109066353D01*
X131645627Y-108266354D02*
X131645627Y-107758353D01*
X136725627Y-105510353D02*
X135963627Y-104748353D01*
D19*
X109420627Y-100811353D02*
X111325627Y-100811353D01*
X110690627Y-110336353D02*
X109401192Y-109046918D01*
X109401192Y-109046918D02*
X107515084Y-109046918D01*
D20*
X136725627Y-108431353D02*
X136725627Y-105510353D01*
X131645627Y-107758353D02*
X130413627Y-106526353D01*
X131341999Y-108266353D02*
X130623813Y-107548167D01*
D19*
X107515627Y-107796353D02*
X107515627Y-106526353D01*
D20*
X136090627Y-100811353D02*
X134820628Y-100811353D01*
X131645627Y-108266354D02*
X131341999Y-108266353D01*
D19*
X127334328Y-108297653D02*
X127256528Y-108297653D01*
X127962627Y-107669353D02*
X127334328Y-108297653D01*
D21*
%TO.N,/cpu/RST#*%
X153868842Y-112869653D02*
X154434527Y-112869653D01*
X149354527Y-110761353D02*
X151462827Y-112869653D01*
X151462827Y-112869653D02*
X153868842Y-112869653D01*
%TO.N,/cpu/PC0*%
X161800527Y-110075653D02*
X161800527Y-97375653D01*
X161800527Y-97375653D02*
X162308527Y-96867653D01*
%TO.N,/cpu/PC1*%
X162300537Y-109305663D02*
X163324527Y-110329653D01*
X163070526Y-98137655D02*
X162300537Y-98907645D01*
X162300537Y-98907645D02*
X162300537Y-109305663D01*
D20*
%TO.N,/cpu/PB6*%
X149138627Y-100563353D02*
X151424627Y-100563353D01*
X151424627Y-100563353D02*
X152675628Y-101814354D01*
X152675628Y-101814354D02*
X153075627Y-102214353D01*
D22*
%TO.N,+3V3*%
X126057627Y-111352353D02*
X126057627Y-98906353D01*
X161038527Y-91279653D02*
X159260527Y-91279653D01*
X159260527Y-91279653D02*
X157736527Y-92803653D01*
X157736527Y-92803653D02*
X133606527Y-92803653D01*
X161038527Y-91279653D02*
X162308527Y-91279653D01*
D23*
X133606527Y-92803653D02*
X133606527Y-93819653D01*
D20*
%TO.N,PA1*%
X131464630Y-103827352D02*
X159362226Y-103827352D01*
X130918629Y-104373353D02*
X131464630Y-103827352D01*
X128691627Y-104373353D02*
X130918629Y-104373353D01*
X159362226Y-103827352D02*
X160384528Y-104849654D01*
X160384528Y-104849654D02*
X160784527Y-105249653D01*
%TO.N,PA0*%
X141188329Y-109783651D02*
X151348525Y-109783651D01*
X140375627Y-110596353D02*
X141188329Y-109783651D01*
X159265113Y-105508239D02*
X154989701Y-109783651D01*
X154989701Y-109783651D02*
X151348525Y-109783651D01*
%TO.N,Net-(U2B--)*%
X135588731Y-112527086D02*
X135988730Y-112927085D01*
X133606527Y-105503653D02*
X133606527Y-110544882D01*
X133606527Y-110544882D02*
X135588731Y-112527086D01*
%TO.N,PB0*%
X141332617Y-103138343D02*
X139900627Y-101706354D01*
X159171627Y-102722353D02*
X158755637Y-103138343D01*
X158755637Y-103138343D02*
X141332617Y-103138343D01*
D21*
%TO.N,/cpu/PD3*%
X152645859Y-111847686D02*
X152917825Y-112119652D01*
X152917825Y-112119652D02*
X155526259Y-112119652D01*
X152080174Y-111847686D02*
X152645859Y-111847686D01*
X155526259Y-112119652D02*
X155673352Y-112266745D01*
%TO.N,/cpu/PD2*%
X154253181Y-110904958D02*
X154317867Y-110969643D01*
X151199832Y-110904958D02*
X154253181Y-110904958D01*
X154317867Y-110969643D02*
X154717866Y-111369642D01*
%TD*%
%TA.AperFunction,Conductor*%
%TO.N,GND*%
G36*
X179036129Y-80887258D02*
G01*
X179282522Y-80903410D01*
X179288876Y-80904246D01*
X179529479Y-80952108D01*
X179535660Y-80953764D01*
X179767959Y-81032621D01*
X179773872Y-81035070D01*
X179993904Y-81143579D01*
X179999439Y-81146774D01*
X180150739Y-81247869D01*
X180203418Y-81283068D01*
X180208504Y-81286970D01*
X180383287Y-81440251D01*
X180392939Y-81448715D01*
X180397471Y-81453247D01*
X180559224Y-81637689D01*
X180563116Y-81642760D01*
X180658376Y-81785325D01*
X180699409Y-81846734D01*
X180702614Y-81852284D01*
X180811121Y-82072309D01*
X180813573Y-82078231D01*
X180892428Y-82310517D01*
X180894087Y-82316708D01*
X180941949Y-82557304D01*
X180942786Y-82563658D01*
X180958922Y-82809763D01*
X180959027Y-82812969D01*
X180959027Y-111991293D01*
X180959045Y-111991489D01*
X180959044Y-112107682D01*
X180959044Y-112107685D01*
X180994550Y-112377428D01*
X181064965Y-112640236D01*
X181064967Y-112640241D01*
X181169072Y-112891586D01*
X181169076Y-112891593D01*
X181169077Y-112891595D01*
X181305110Y-113127218D01*
X181432739Y-113293549D01*
X181470738Y-113343071D01*
X181470740Y-113343073D01*
X181663115Y-113535449D01*
X181663127Y-113535460D01*
X181878953Y-113701070D01*
X181878962Y-113701076D01*
X181878966Y-113701079D01*
X182114587Y-113837114D01*
X182365948Y-113941230D01*
X182365953Y-113941231D01*
X182365955Y-113941232D01*
X182628741Y-114011643D01*
X182628742Y-114011643D01*
X182628749Y-114011645D01*
X182898493Y-114047154D01*
X183034529Y-114047153D01*
X183932923Y-114047153D01*
X183936128Y-114047258D01*
X184182521Y-114063410D01*
X184188875Y-114064246D01*
X184429478Y-114112108D01*
X184435659Y-114113764D01*
X184667959Y-114192621D01*
X184673872Y-114195070D01*
X184893903Y-114303578D01*
X184899438Y-114306774D01*
X185050736Y-114407868D01*
X185103417Y-114443068D01*
X185108502Y-114446970D01*
X185292938Y-114608715D01*
X185297470Y-114613247D01*
X185459218Y-114797683D01*
X185463120Y-114802768D01*
X185599413Y-115006740D01*
X185602617Y-115012290D01*
X185711118Y-115232301D01*
X185713571Y-115238223D01*
X185792428Y-115470516D01*
X185794087Y-115476707D01*
X185841949Y-115717304D01*
X185842786Y-115723658D01*
X185858922Y-115969747D01*
X185859027Y-115972953D01*
X185859027Y-123370053D01*
X185858922Y-123373257D01*
X185842778Y-123619650D01*
X185841942Y-123626004D01*
X185794087Y-123866616D01*
X185792428Y-123872808D01*
X185713578Y-124105107D01*
X185711125Y-124111028D01*
X185602631Y-124331045D01*
X185599427Y-124336596D01*
X185463136Y-124540579D01*
X185459234Y-124545664D01*
X185297491Y-124730102D01*
X185292959Y-124734635D01*
X185108519Y-124896391D01*
X185103434Y-124900293D01*
X184899456Y-125036592D01*
X184893905Y-125039796D01*
X184673893Y-125148298D01*
X184667971Y-125150751D01*
X184435673Y-125229610D01*
X184429482Y-125231269D01*
X184188881Y-125279131D01*
X184182527Y-125279968D01*
X183958662Y-125294644D01*
X183937255Y-125296048D01*
X183934052Y-125296153D01*
X176299568Y-125296153D01*
X176755045Y-80887153D01*
X179032924Y-80887153D01*
X179036129Y-80887258D01*
G37*
%TD.AperFunction*%
%TD*%
%TA.AperFunction,Conductor*%
%TO.N,GND*%
G36*
X179036129Y-80887258D02*
G01*
X179282522Y-80903410D01*
X179288876Y-80904246D01*
X179529479Y-80952108D01*
X179535660Y-80953764D01*
X179767959Y-81032621D01*
X179773872Y-81035070D01*
X179993904Y-81143579D01*
X179999439Y-81146774D01*
X180150739Y-81247869D01*
X180203418Y-81283068D01*
X180208504Y-81286970D01*
X180383287Y-81440251D01*
X180392939Y-81448715D01*
X180397471Y-81453247D01*
X180559224Y-81637689D01*
X180563116Y-81642760D01*
X180594051Y-81689057D01*
X180699409Y-81846734D01*
X180702614Y-81852284D01*
X180811121Y-82072309D01*
X180813573Y-82078231D01*
X180892428Y-82310517D01*
X180894087Y-82316708D01*
X180941949Y-82557304D01*
X180942786Y-82563658D01*
X180958922Y-82809763D01*
X180959027Y-82812969D01*
X180959027Y-84715184D01*
X164738527Y-84851110D01*
X164738527Y-84141654D01*
X162722527Y-84141654D01*
X162722527Y-84868004D01*
X132935153Y-85117619D01*
X132938527Y-85086250D01*
X132938527Y-84141654D01*
X130922527Y-84141654D01*
X130922527Y-85086250D01*
X130927708Y-85134441D01*
X96510027Y-85422857D01*
X96510027Y-83633654D01*
X130922527Y-83633654D01*
X131676527Y-83633654D01*
X132184527Y-83633654D01*
X132938527Y-83633654D01*
X132938527Y-83294654D01*
X132952879Y-83260006D01*
X132987527Y-83245654D01*
X133326527Y-83245654D01*
X133834527Y-83245654D01*
X134779123Y-83245654D01*
X134839617Y-83239150D01*
X134976491Y-83188098D01*
X135093430Y-83100557D01*
X135180971Y-82983618D01*
X135232023Y-82846744D01*
X135238527Y-82786250D01*
X136422527Y-82786250D01*
X136429030Y-82846744D01*
X136480082Y-82983618D01*
X136567623Y-83100557D01*
X136684562Y-83188098D01*
X136821436Y-83239150D01*
X136881931Y-83245654D01*
X138576527Y-83245654D01*
X139084527Y-83245654D01*
X140779123Y-83245654D01*
X140839617Y-83239150D01*
X140976491Y-83188098D01*
X141093430Y-83100557D01*
X141180971Y-82983618D01*
X141232023Y-82846744D01*
X141238527Y-82786250D01*
X142422527Y-82786250D01*
X142429030Y-82846744D01*
X142480082Y-82983618D01*
X142567623Y-83100557D01*
X142684562Y-83188098D01*
X142821436Y-83239150D01*
X142881931Y-83245654D01*
X144576527Y-83245654D01*
X145084527Y-83245654D01*
X146779123Y-83245654D01*
X146839617Y-83239150D01*
X146976491Y-83188098D01*
X147093430Y-83100557D01*
X147180971Y-82983618D01*
X147232023Y-82846744D01*
X147238527Y-82786250D01*
X148422527Y-82786250D01*
X148429030Y-82846744D01*
X148480082Y-82983618D01*
X148567623Y-83100557D01*
X148684562Y-83188098D01*
X148821436Y-83239150D01*
X148881931Y-83245654D01*
X150576527Y-83245654D01*
X151084527Y-83245654D01*
X152779123Y-83245654D01*
X152839617Y-83239150D01*
X152976491Y-83188098D01*
X153093430Y-83100557D01*
X153180971Y-82983618D01*
X153232023Y-82846744D01*
X153238527Y-82786250D01*
X154422527Y-82786250D01*
X154429030Y-82846744D01*
X154480082Y-82983618D01*
X154567623Y-83100557D01*
X154684562Y-83188098D01*
X154821436Y-83239150D01*
X154881931Y-83245654D01*
X156576527Y-83245654D01*
X157084527Y-83245654D01*
X158779123Y-83245654D01*
X158839617Y-83239150D01*
X158976491Y-83188098D01*
X159093430Y-83100557D01*
X159180971Y-82983618D01*
X159232023Y-82846744D01*
X159238527Y-82786250D01*
X160422527Y-82786250D01*
X160429030Y-82846744D01*
X160480082Y-82983618D01*
X160567623Y-83100557D01*
X160684562Y-83188098D01*
X160821436Y-83239150D01*
X160881931Y-83245654D01*
X161826527Y-83245654D01*
X162334527Y-83245654D01*
X162673527Y-83245654D01*
X162708175Y-83260006D01*
X162722527Y-83294654D01*
X162722527Y-83633654D01*
X163476527Y-83633654D01*
X163984527Y-83633654D01*
X164738527Y-83633654D01*
X164738527Y-82491654D01*
X163984527Y-82491654D01*
X163984527Y-83633654D01*
X163476527Y-83633654D01*
X163476527Y-82491654D01*
X162334527Y-82491654D01*
X162334527Y-83245654D01*
X161826527Y-83245654D01*
X161826527Y-82491654D01*
X160422527Y-82491654D01*
X160422527Y-82786250D01*
X159238527Y-82786250D01*
X159238527Y-82491654D01*
X157084527Y-82491654D01*
X157084527Y-83245654D01*
X156576527Y-83245654D01*
X156576527Y-82491654D01*
X154422527Y-82491654D01*
X154422527Y-82786250D01*
X153238527Y-82786250D01*
X153238527Y-82491654D01*
X151084527Y-82491654D01*
X151084527Y-83245654D01*
X150576527Y-83245654D01*
X150576527Y-82491654D01*
X148422527Y-82491654D01*
X148422527Y-82786250D01*
X147238527Y-82786250D01*
X147238527Y-82491654D01*
X145084527Y-82491654D01*
X145084527Y-83245654D01*
X144576527Y-83245654D01*
X144576527Y-82491654D01*
X142422527Y-82491654D01*
X142422527Y-82786250D01*
X141238527Y-82786250D01*
X141238527Y-82491654D01*
X139084527Y-82491654D01*
X139084527Y-83245654D01*
X138576527Y-83245654D01*
X138576527Y-82491654D01*
X136422527Y-82491654D01*
X136422527Y-82786250D01*
X135238527Y-82786250D01*
X135238527Y-82491654D01*
X133834527Y-82491654D01*
X133834527Y-83245654D01*
X133326527Y-83245654D01*
X133326527Y-82491654D01*
X132184527Y-82491654D01*
X132184527Y-83633654D01*
X131676527Y-83633654D01*
X131676527Y-82491654D01*
X130922527Y-82491654D01*
X130922527Y-83633654D01*
X96510027Y-83633654D01*
X96510027Y-82813255D01*
X96510132Y-82810049D01*
X96511012Y-82796634D01*
X96526288Y-82563658D01*
X96527124Y-82557309D01*
X96540186Y-82491654D01*
X96574989Y-82316708D01*
X96576641Y-82310540D01*
X96655504Y-82078231D01*
X96657954Y-82072319D01*
X96701681Y-81983654D01*
X96766460Y-81852302D01*
X96769655Y-81846767D01*
X96875039Y-81689057D01*
X130922527Y-81689057D01*
X130922527Y-81983654D01*
X131676527Y-81983654D01*
X132184527Y-81983654D01*
X133326527Y-81983654D01*
X133834527Y-81983654D01*
X135238527Y-81983654D01*
X135238527Y-81689057D01*
X136422527Y-81689057D01*
X136422527Y-81983654D01*
X138576527Y-81983654D01*
X139084527Y-81983654D01*
X141238527Y-81983654D01*
X141238527Y-81689057D01*
X142422527Y-81689057D01*
X142422527Y-81983654D01*
X144576527Y-81983654D01*
X145084527Y-81983654D01*
X147238527Y-81983654D01*
X147238527Y-81689057D01*
X148422527Y-81689057D01*
X148422527Y-81983654D01*
X150576527Y-81983654D01*
X151084527Y-81983654D01*
X153238527Y-81983654D01*
X153238527Y-81689057D01*
X154422527Y-81689057D01*
X154422527Y-81983654D01*
X156576527Y-81983654D01*
X157084527Y-81983654D01*
X159238527Y-81983654D01*
X159238527Y-81689057D01*
X160422527Y-81689057D01*
X160422527Y-81983654D01*
X161826527Y-81983654D01*
X162334527Y-81983654D01*
X163476527Y-81983654D01*
X163984527Y-81983654D01*
X164738527Y-81983654D01*
X164738527Y-81689057D01*
X164732023Y-81628563D01*
X164680971Y-81491689D01*
X164593430Y-81374750D01*
X164476491Y-81287209D01*
X164339617Y-81236157D01*
X164279123Y-81229654D01*
X163984527Y-81229654D01*
X163984527Y-81983654D01*
X163476527Y-81983654D01*
X163476527Y-81229654D01*
X162334527Y-81229654D01*
X162334527Y-81983654D01*
X161826527Y-81983654D01*
X161826527Y-81229654D01*
X160881931Y-81229654D01*
X160821436Y-81236157D01*
X160684562Y-81287209D01*
X160567623Y-81374750D01*
X160480082Y-81491689D01*
X160429030Y-81628563D01*
X160422527Y-81689057D01*
X159238527Y-81689057D01*
X159232023Y-81628563D01*
X159180971Y-81491689D01*
X159093430Y-81374750D01*
X158976491Y-81287209D01*
X158839617Y-81236157D01*
X158779123Y-81229654D01*
X157084527Y-81229654D01*
X157084527Y-81983654D01*
X156576527Y-81983654D01*
X156576527Y-81229654D01*
X154881931Y-81229654D01*
X154821436Y-81236157D01*
X154684562Y-81287209D01*
X154567623Y-81374750D01*
X154480082Y-81491689D01*
X154429030Y-81628563D01*
X154422527Y-81689057D01*
X153238527Y-81689057D01*
X153232023Y-81628563D01*
X153180971Y-81491689D01*
X153093430Y-81374750D01*
X152976491Y-81287209D01*
X152839617Y-81236157D01*
X152779123Y-81229654D01*
X151084527Y-81229654D01*
X151084527Y-81983654D01*
X150576527Y-81983654D01*
X150576527Y-81229654D01*
X148881931Y-81229654D01*
X148821436Y-81236157D01*
X148684562Y-81287209D01*
X148567623Y-81374750D01*
X148480082Y-81491689D01*
X148429030Y-81628563D01*
X148422527Y-81689057D01*
X147238527Y-81689057D01*
X147232023Y-81628563D01*
X147180971Y-81491689D01*
X147093430Y-81374750D01*
X146976491Y-81287209D01*
X146839617Y-81236157D01*
X146779123Y-81229654D01*
X145084527Y-81229654D01*
X145084527Y-81983654D01*
X144576527Y-81983654D01*
X144576527Y-81229654D01*
X142881931Y-81229654D01*
X142821436Y-81236157D01*
X142684562Y-81287209D01*
X142567623Y-81374750D01*
X142480082Y-81491689D01*
X142429030Y-81628563D01*
X142422527Y-81689057D01*
X141238527Y-81689057D01*
X141232023Y-81628563D01*
X141180971Y-81491689D01*
X141093430Y-81374750D01*
X140976491Y-81287209D01*
X140839617Y-81236157D01*
X140779123Y-81229654D01*
X139084527Y-81229654D01*
X139084527Y-81983654D01*
X138576527Y-81983654D01*
X138576527Y-81229654D01*
X136881931Y-81229654D01*
X136821436Y-81236157D01*
X136684562Y-81287209D01*
X136567623Y-81374750D01*
X136480082Y-81491689D01*
X136429030Y-81628563D01*
X136422527Y-81689057D01*
X135238527Y-81689057D01*
X135232023Y-81628563D01*
X135180971Y-81491689D01*
X135093430Y-81374750D01*
X134976491Y-81287209D01*
X134839617Y-81236157D01*
X134779123Y-81229654D01*
X133834527Y-81229654D01*
X133834527Y-81983654D01*
X133326527Y-81983654D01*
X133326527Y-81229654D01*
X132184527Y-81229654D01*
X132184527Y-81983654D01*
X131676527Y-81983654D01*
X131676527Y-81229654D01*
X131381931Y-81229654D01*
X131321436Y-81236157D01*
X131184562Y-81287209D01*
X131067623Y-81374750D01*
X130980082Y-81491689D01*
X130929030Y-81628563D01*
X130922527Y-81689057D01*
X96875039Y-81689057D01*
X96905953Y-81642793D01*
X96909844Y-81637721D01*
X97071606Y-81453273D01*
X97076130Y-81448750D01*
X97260579Y-81286998D01*
X97265636Y-81283118D01*
X97469635Y-81146815D01*
X97475166Y-81143623D01*
X97695183Y-81035128D01*
X97701102Y-81032676D01*
X97701267Y-81032620D01*
X97933407Y-80953822D01*
X97939573Y-80952170D01*
X98180197Y-80904311D01*
X98186531Y-80903478D01*
X98379600Y-80890826D01*
X98434056Y-80887258D01*
X98437260Y-80887153D01*
X98459057Y-80887153D01*
X179032924Y-80887153D01*
X179036129Y-80887258D01*
G37*
%TD.AperFunction*%
%TD*%
%TA.AperFunction,Conductor*%
%TO.N,GND*%
G36*
X99404888Y-87338353D02*
G01*
X98821627Y-87338353D01*
X98821627Y-88092353D01*
X99412280Y-88092353D01*
X99417261Y-88600353D01*
X98821627Y-88600353D01*
X98821627Y-91654353D01*
X99116223Y-91654353D01*
X99176717Y-91647849D01*
X99313591Y-91596797D01*
X99430530Y-91509257D01*
X99445581Y-91489149D01*
X99460626Y-93023651D01*
X99430530Y-92983449D01*
X99313591Y-92895908D01*
X99176717Y-92844856D01*
X99116223Y-92838353D01*
X98821627Y-92838353D01*
X98821627Y-97654353D01*
X99116223Y-97654353D01*
X99176717Y-97647849D01*
X99313591Y-97596797D01*
X99430530Y-97509256D01*
X99503644Y-97411588D01*
X99520259Y-99106254D01*
X99518071Y-99100388D01*
X99430530Y-98983449D01*
X99313591Y-98895908D01*
X99176717Y-98844856D01*
X99116223Y-98838353D01*
X98821627Y-98838353D01*
X98821627Y-103654353D01*
X99116223Y-103654353D01*
X99176717Y-103647849D01*
X99313591Y-103596797D01*
X99430530Y-103509256D01*
X99518071Y-103392317D01*
X99561146Y-103276827D01*
X99716651Y-119138353D01*
X99624627Y-119138353D01*
X99589979Y-119124001D01*
X99575627Y-119089353D01*
X99575627Y-118750353D01*
X98821627Y-118750353D01*
X98821627Y-119892353D01*
X99724044Y-119892353D01*
X99729024Y-120400353D01*
X98821627Y-120400353D01*
X98821627Y-121154353D01*
X99736416Y-121154353D01*
X99812316Y-128896153D01*
X94436128Y-128896153D01*
X94432924Y-128896048D01*
X94186537Y-128879902D01*
X94180182Y-128879066D01*
X93939577Y-128831209D01*
X93933386Y-128829550D01*
X93701092Y-128750698D01*
X93695170Y-128748245D01*
X93475154Y-128639746D01*
X93469607Y-128636543D01*
X93318312Y-128535451D01*
X93265633Y-128500252D01*
X93260548Y-128496350D01*
X93076113Y-128334604D01*
X93071581Y-128330072D01*
X92909837Y-128145635D01*
X92905935Y-128140550D01*
X92769649Y-127936579D01*
X92766444Y-127931028D01*
X92741547Y-127880540D01*
X92657943Y-127711003D01*
X92655498Y-127705100D01*
X92576642Y-127472787D01*
X92574988Y-127466613D01*
X92527129Y-127225988D01*
X92526296Y-127219655D01*
X92510132Y-126972952D01*
X92510027Y-126969748D01*
X92510027Y-120694949D01*
X97559627Y-120694949D01*
X97566130Y-120755443D01*
X97617182Y-120892317D01*
X97704723Y-121009256D01*
X97821662Y-121096797D01*
X97958536Y-121147849D01*
X98019031Y-121154353D01*
X98313627Y-121154353D01*
X98313627Y-120400353D01*
X97559627Y-120400353D01*
X97559627Y-120694949D01*
X92510027Y-120694949D01*
X92510027Y-119973255D01*
X92510132Y-119970049D01*
X92515226Y-119892353D01*
X97559627Y-119892353D01*
X98313627Y-119892353D01*
X98313627Y-118750353D01*
X97559627Y-118750353D01*
X97559627Y-119892353D01*
X92515226Y-119892353D01*
X92526287Y-119723664D01*
X92527124Y-119717310D01*
X92574988Y-119476710D01*
X92576641Y-119470540D01*
X92655504Y-119238231D01*
X92657954Y-119232319D01*
X92766460Y-119012302D01*
X92769655Y-119006767D01*
X92905952Y-118802795D01*
X92909849Y-118797717D01*
X92997521Y-118697749D01*
X93071606Y-118613273D01*
X93076130Y-118608750D01*
X93260579Y-118446998D01*
X93265636Y-118443118D01*
X93469635Y-118306815D01*
X93475166Y-118303623D01*
X93695183Y-118195128D01*
X93701102Y-118192676D01*
X93933407Y-118113822D01*
X93939573Y-118112170D01*
X94180197Y-118064311D01*
X94186531Y-118063478D01*
X94432947Y-118047330D01*
X94436104Y-118047226D01*
X94570566Y-118047225D01*
X94840314Y-118011708D01*
X95103118Y-117941285D01*
X95354482Y-117837162D01*
X95590105Y-117701120D01*
X95805954Y-117535487D01*
X95998338Y-117343097D01*
X96033128Y-117297756D01*
X97559627Y-117297756D01*
X97559627Y-118242353D01*
X98313627Y-118242353D01*
X98821627Y-118242353D01*
X99575627Y-118242353D01*
X99575627Y-117297756D01*
X99569123Y-117237262D01*
X99518071Y-117100388D01*
X99430530Y-116983449D01*
X99313591Y-116895908D01*
X99176717Y-116844856D01*
X99116223Y-116838353D01*
X98821627Y-116838353D01*
X98821627Y-118242353D01*
X98313627Y-118242353D01*
X98313627Y-116838353D01*
X98019031Y-116838353D01*
X97958536Y-116844856D01*
X97821662Y-116895908D01*
X97704723Y-116983449D01*
X97617182Y-117100388D01*
X97566130Y-117237262D01*
X97559627Y-117297756D01*
X96033128Y-117297756D01*
X96163963Y-117127241D01*
X96299996Y-116891613D01*
X96404110Y-116640245D01*
X96474523Y-116377439D01*
X96510030Y-116107689D01*
X96510027Y-115971651D01*
X96510027Y-115194949D01*
X97559627Y-115194949D01*
X97566130Y-115255443D01*
X97617182Y-115392317D01*
X97704723Y-115509256D01*
X97821662Y-115596797D01*
X97958536Y-115647849D01*
X98019031Y-115654353D01*
X98313627Y-115654353D01*
X98821627Y-115654353D01*
X99116223Y-115654353D01*
X99176717Y-115647849D01*
X99313591Y-115596797D01*
X99430530Y-115509256D01*
X99518071Y-115392317D01*
X99569123Y-115255443D01*
X99575627Y-115194949D01*
X99575627Y-113500353D01*
X98821627Y-113500353D01*
X98821627Y-115654353D01*
X98313627Y-115654353D01*
X98313627Y-113500353D01*
X97559627Y-113500353D01*
X97559627Y-115194949D01*
X96510027Y-115194949D01*
X96510027Y-111297756D01*
X97559627Y-111297756D01*
X97559627Y-112992353D01*
X98313627Y-112992353D01*
X98821627Y-112992353D01*
X99575627Y-112992353D01*
X99575627Y-111297756D01*
X99569123Y-111237262D01*
X99518071Y-111100388D01*
X99430530Y-110983449D01*
X99313591Y-110895908D01*
X99176717Y-110844856D01*
X99116223Y-110838353D01*
X98821627Y-110838353D01*
X98821627Y-112992353D01*
X98313627Y-112992353D01*
X98313627Y-110838353D01*
X98019031Y-110838353D01*
X97958536Y-110844856D01*
X97821662Y-110895908D01*
X97704723Y-110983449D01*
X97617182Y-111100388D01*
X97566130Y-111237262D01*
X97559627Y-111297756D01*
X96510027Y-111297756D01*
X96510027Y-109194949D01*
X97559627Y-109194949D01*
X97566130Y-109255443D01*
X97617182Y-109392317D01*
X97704723Y-109509256D01*
X97821662Y-109596797D01*
X97958536Y-109647849D01*
X98019031Y-109654353D01*
X98313627Y-109654353D01*
X98821627Y-109654353D01*
X99116223Y-109654353D01*
X99176717Y-109647849D01*
X99313591Y-109596797D01*
X99430530Y-109509256D01*
X99518071Y-109392317D01*
X99569123Y-109255443D01*
X99575627Y-109194949D01*
X99575627Y-107500353D01*
X98821627Y-107500353D01*
X98821627Y-109654353D01*
X98313627Y-109654353D01*
X98313627Y-107500353D01*
X97559627Y-107500353D01*
X97559627Y-109194949D01*
X96510027Y-109194949D01*
X96510027Y-105297756D01*
X97559627Y-105297756D01*
X97559627Y-106992353D01*
X98313627Y-106992353D01*
X98821627Y-106992353D01*
X99575627Y-106992353D01*
X99575627Y-105297756D01*
X99569123Y-105237262D01*
X99518071Y-105100388D01*
X99430530Y-104983449D01*
X99313591Y-104895908D01*
X99176717Y-104844856D01*
X99116223Y-104838353D01*
X98821627Y-104838353D01*
X98821627Y-106992353D01*
X98313627Y-106992353D01*
X98313627Y-104838353D01*
X98019031Y-104838353D01*
X97958536Y-104844856D01*
X97821662Y-104895908D01*
X97704723Y-104983449D01*
X97617182Y-105100388D01*
X97566130Y-105237262D01*
X97559627Y-105297756D01*
X96510027Y-105297756D01*
X96510027Y-103194949D01*
X97559627Y-103194949D01*
X97566130Y-103255443D01*
X97617182Y-103392317D01*
X97704723Y-103509256D01*
X97821662Y-103596797D01*
X97958536Y-103647849D01*
X98019031Y-103654353D01*
X98313627Y-103654353D01*
X98313627Y-101500353D01*
X97559627Y-101500353D01*
X97559627Y-103194949D01*
X96510027Y-103194949D01*
X96510027Y-99297756D01*
X97559627Y-99297756D01*
X97559627Y-100992353D01*
X98313627Y-100992353D01*
X98313627Y-98838353D01*
X98019031Y-98838353D01*
X97958536Y-98844856D01*
X97821662Y-98895908D01*
X97704723Y-98983449D01*
X97617182Y-99100388D01*
X97566130Y-99237262D01*
X97559627Y-99297756D01*
X96510027Y-99297756D01*
X96510027Y-97194949D01*
X97559627Y-97194949D01*
X97566130Y-97255443D01*
X97617182Y-97392317D01*
X97704723Y-97509256D01*
X97821662Y-97596797D01*
X97958536Y-97647849D01*
X98019031Y-97654353D01*
X98313627Y-97654353D01*
X98313627Y-95500353D01*
X97559627Y-95500353D01*
X97559627Y-97194949D01*
X96510027Y-97194949D01*
X96510027Y-93297756D01*
X97559627Y-93297756D01*
X97559627Y-94992353D01*
X98313627Y-94992353D01*
X98313627Y-92838353D01*
X98019031Y-92838353D01*
X97958536Y-92844856D01*
X97821662Y-92895908D01*
X97704723Y-92983449D01*
X97617182Y-93100388D01*
X97566130Y-93237262D01*
X97559627Y-93297756D01*
X96510027Y-93297756D01*
X96510027Y-91194949D01*
X97559627Y-91194949D01*
X97566130Y-91255443D01*
X97617182Y-91392317D01*
X97704723Y-91509256D01*
X97821662Y-91596797D01*
X97958536Y-91647849D01*
X98019031Y-91654353D01*
X98313627Y-91654353D01*
X98313627Y-90250353D01*
X97559627Y-90250353D01*
X97559627Y-91194949D01*
X96510027Y-91194949D01*
X96510027Y-89742353D01*
X97559627Y-89742353D01*
X98313627Y-89742353D01*
X98313627Y-88600353D01*
X97559627Y-88600353D01*
X97559627Y-89742353D01*
X96510027Y-89742353D01*
X96510027Y-87797756D01*
X97559627Y-87797756D01*
X97559627Y-88092353D01*
X98313627Y-88092353D01*
X98313627Y-87338353D01*
X98019031Y-87338353D01*
X97958536Y-87344856D01*
X97821662Y-87395908D01*
X97704723Y-87483449D01*
X97617182Y-87600388D01*
X97566130Y-87737262D01*
X97559627Y-87797756D01*
X96510027Y-87797756D01*
X96510027Y-82813255D01*
X96510132Y-82810049D01*
X96526287Y-82563664D01*
X96527124Y-82557310D01*
X96574988Y-82316710D01*
X96576641Y-82310540D01*
X96655504Y-82078231D01*
X96657954Y-82072319D01*
X96766460Y-81852302D01*
X96769655Y-81846767D01*
X96905952Y-81642795D01*
X96909844Y-81637721D01*
X97071606Y-81453273D01*
X97076130Y-81448750D01*
X97260579Y-81286998D01*
X97265636Y-81283118D01*
X97469635Y-81146815D01*
X97475166Y-81143623D01*
X97695183Y-81035128D01*
X97701102Y-81032676D01*
X97933407Y-80953822D01*
X97939573Y-80952170D01*
X98180197Y-80904311D01*
X98186531Y-80903478D01*
X98379600Y-80890826D01*
X98434056Y-80887258D01*
X98437260Y-80887153D01*
X99341641Y-80887153D01*
X99404888Y-87338353D01*
G37*
%TD.AperFunction*%
%TD*%
%TA.AperFunction,Conductor*%
%TO.N,GND*%
G36*
X185713578Y-124105107D02*
G01*
X185711125Y-124111028D01*
X185602631Y-124331045D01*
X185599427Y-124336596D01*
X185463136Y-124540579D01*
X185459234Y-124545664D01*
X185297491Y-124730102D01*
X185292959Y-124734635D01*
X185108519Y-124896391D01*
X185103434Y-124900293D01*
X184899456Y-125036592D01*
X184893905Y-125039796D01*
X184673893Y-125148298D01*
X184667971Y-125150751D01*
X184435673Y-125229610D01*
X184429482Y-125231269D01*
X184188881Y-125279131D01*
X184182527Y-125279968D01*
X183958662Y-125294644D01*
X183937255Y-125296048D01*
X183934052Y-125296153D01*
X160915131Y-125296153D01*
X160914378Y-125296225D01*
X160821845Y-125296225D01*
X160598786Y-125328292D01*
X160598780Y-125328293D01*
X160382565Y-125391775D01*
X160382557Y-125391777D01*
X160382553Y-125391779D01*
X160382549Y-125391780D01*
X160382540Y-125391784D01*
X160177561Y-125485390D01*
X160177554Y-125485394D01*
X159987984Y-125607216D01*
X159987961Y-125607233D01*
X159817654Y-125754799D01*
X159670076Y-125925104D01*
X159670065Y-125925118D01*
X159548230Y-126114688D01*
X159454606Y-126319678D01*
X159454604Y-126319683D01*
X159391108Y-126535908D01*
X159359031Y-126758970D01*
X159359030Y-126758975D01*
X159359027Y-126856634D01*
X159359027Y-127469731D01*
X159358876Y-127473574D01*
X159341797Y-127690661D01*
X159340594Y-127698255D01*
X159290219Y-127908108D01*
X159287844Y-127915421D01*
X159205255Y-128114826D01*
X159201764Y-128121677D01*
X159089004Y-128305695D01*
X159084485Y-128311916D01*
X158944321Y-128476036D01*
X158938884Y-128481473D01*
X158774775Y-128621642D01*
X158768554Y-128626162D01*
X158584538Y-128738933D01*
X158577688Y-128742424D01*
X158378294Y-128825021D01*
X158370981Y-128827397D01*
X158161122Y-128877783D01*
X158153528Y-128878986D01*
X157937384Y-128896002D01*
X157933538Y-128896153D01*
X94436128Y-128896153D01*
X94432924Y-128896048D01*
X94186537Y-128879902D01*
X94180182Y-128879066D01*
X93939577Y-128831209D01*
X93933386Y-128829550D01*
X93701092Y-128750698D01*
X93695170Y-128748245D01*
X93475154Y-128639746D01*
X93469607Y-128636543D01*
X93318312Y-128535451D01*
X93265633Y-128500252D01*
X93260548Y-128496350D01*
X93076113Y-128334604D01*
X93071581Y-128330072D01*
X93053089Y-128308986D01*
X92909837Y-128145635D01*
X92905935Y-128140550D01*
X92769649Y-127936579D01*
X92766444Y-127931028D01*
X92705485Y-127807412D01*
X92657943Y-127711003D01*
X92655498Y-127705100D01*
X92576642Y-127472787D01*
X92574988Y-127466613D01*
X92527129Y-127225988D01*
X92526296Y-127219655D01*
X92510132Y-126972952D01*
X92510027Y-126969748D01*
X92510027Y-124045653D01*
X185733759Y-124045653D01*
X185713578Y-124105107D01*
G37*
%TD.AperFunction*%
%TD*%
%TA.AperFunction,Conductor*%
%TO.N,GND*%
G36*
X179036129Y-80887258D02*
G01*
X179282522Y-80903410D01*
X179288876Y-80904246D01*
X179529479Y-80952108D01*
X179535660Y-80953764D01*
X179767959Y-81032621D01*
X179773872Y-81035070D01*
X179993904Y-81143579D01*
X179999439Y-81146774D01*
X180150739Y-81247869D01*
X180203418Y-81283068D01*
X180208504Y-81286970D01*
X180383287Y-81440251D01*
X180392939Y-81448715D01*
X180397471Y-81453247D01*
X180559224Y-81637689D01*
X180563116Y-81642760D01*
X180658376Y-81785325D01*
X180699409Y-81846734D01*
X180702614Y-81852284D01*
X180811121Y-82072309D01*
X180813573Y-82078231D01*
X180892428Y-82310517D01*
X180894087Y-82316708D01*
X180941949Y-82557304D01*
X180942786Y-82563658D01*
X180958922Y-82809763D01*
X180959027Y-82812969D01*
X180959027Y-111991293D01*
X180959045Y-111991489D01*
X180959044Y-112107682D01*
X180959044Y-112107685D01*
X180994550Y-112377428D01*
X181064965Y-112640236D01*
X181064967Y-112640241D01*
X181169072Y-112891586D01*
X181169076Y-112891593D01*
X181169077Y-112891595D01*
X181305110Y-113127218D01*
X181432739Y-113293549D01*
X181470738Y-113343071D01*
X181470740Y-113343073D01*
X181663115Y-113535449D01*
X181663127Y-113535460D01*
X181878953Y-113701070D01*
X181878962Y-113701076D01*
X181878966Y-113701079D01*
X182114587Y-113837114D01*
X182365948Y-113941230D01*
X182365953Y-113941231D01*
X182365955Y-113941232D01*
X182628741Y-114011643D01*
X182628742Y-114011643D01*
X182628749Y-114011645D01*
X182898493Y-114047154D01*
X183034529Y-114047153D01*
X183932923Y-114047153D01*
X183936128Y-114047258D01*
X184182521Y-114063410D01*
X184188875Y-114064246D01*
X184429478Y-114112108D01*
X184435659Y-114113764D01*
X184667959Y-114192621D01*
X184673872Y-114195070D01*
X184893903Y-114303578D01*
X184899438Y-114306774D01*
X185050736Y-114407868D01*
X185103417Y-114443068D01*
X185108502Y-114446970D01*
X185292938Y-114608715D01*
X185297470Y-114613247D01*
X185459218Y-114797683D01*
X185463120Y-114802768D01*
X185599413Y-115006740D01*
X185602617Y-115012290D01*
X185711118Y-115232301D01*
X185713571Y-115238223D01*
X185792428Y-115470516D01*
X185794087Y-115476707D01*
X185841949Y-115717304D01*
X185842786Y-115723658D01*
X185858922Y-115969747D01*
X185859027Y-115972953D01*
X185859027Y-123370053D01*
X185858922Y-123373257D01*
X185842778Y-123619650D01*
X185841942Y-123626004D01*
X185794087Y-123866616D01*
X185792428Y-123872808D01*
X185713578Y-124105107D01*
X185711125Y-124111028D01*
X185602631Y-124331045D01*
X185599427Y-124336596D01*
X185463136Y-124540579D01*
X185459234Y-124545664D01*
X185297491Y-124730102D01*
X185292959Y-124734635D01*
X185108519Y-124896391D01*
X185103434Y-124900293D01*
X184899456Y-125036592D01*
X184893905Y-125039796D01*
X184673893Y-125148298D01*
X184667971Y-125150751D01*
X184435673Y-125229610D01*
X184429482Y-125231269D01*
X184188881Y-125279131D01*
X184182527Y-125279968D01*
X183958662Y-125294644D01*
X183937255Y-125296048D01*
X183934052Y-125296153D01*
X176344434Y-125296153D01*
X176981883Y-80887153D01*
X179032924Y-80887153D01*
X179036129Y-80887258D01*
G37*
%TD.AperFunction*%
%TD*%
%TA.AperFunction,Conductor*%
%TO.N,GND*%
G36*
X157736527Y-119107034D02*
G01*
X157654098Y-119059445D01*
X157541047Y-119029153D01*
X157424007Y-119029153D01*
X157310956Y-119059445D01*
X157228527Y-119107034D01*
X157228527Y-117300271D01*
X157310956Y-117347861D01*
X157424007Y-117378153D01*
X157541047Y-117378153D01*
X157654098Y-117347861D01*
X157736527Y-117300271D01*
X157736527Y-119107034D01*
G37*
%TD.AperFunction*%
%TA.AperFunction,Conductor*%
G36*
X179038645Y-80887422D02*
G01*
X179277487Y-80903080D01*
X179293813Y-80905229D01*
X179524531Y-80951124D01*
X179540442Y-80955387D01*
X179763182Y-81031000D01*
X179778403Y-81037305D01*
X179989371Y-81141343D01*
X180003637Y-81149579D01*
X180199222Y-81280264D01*
X180212297Y-81290297D01*
X180389145Y-81445388D01*
X180400799Y-81457042D01*
X180555887Y-81633884D01*
X180565921Y-81646959D01*
X180696610Y-81842545D01*
X180704850Y-81856818D01*
X180808884Y-82067772D01*
X180815192Y-82082999D01*
X180890808Y-82305744D01*
X180895073Y-82321663D01*
X180940965Y-82552354D01*
X180943117Y-82568695D01*
X180958757Y-82807246D01*
X180959027Y-82815489D01*
X180959027Y-111998713D01*
X180959045Y-111998907D01*
X180959044Y-112107685D01*
X180959044Y-112107698D01*
X180994549Y-112377422D01*
X180994553Y-112377443D01*
X181064959Y-112640219D01*
X181064962Y-112640229D01*
X181095225Y-112713292D01*
X181169077Y-112891595D01*
X181169080Y-112891600D01*
X181305106Y-113127212D01*
X181305109Y-113127218D01*
X181470728Y-113343059D01*
X181470738Y-113343070D01*
X181663114Y-113535448D01*
X181663126Y-113535459D01*
X181878962Y-113701076D01*
X181878969Y-113701081D01*
X181963122Y-113749666D01*
X182114587Y-113837114D01*
X182114589Y-113837115D01*
X182114593Y-113837117D01*
X182294735Y-113911733D01*
X182365948Y-113941230D01*
X182628749Y-114011645D01*
X182628751Y-114011645D01*
X182628754Y-114011646D01*
X182763621Y-114029399D01*
X182898493Y-114047154D01*
X183034529Y-114047153D01*
X183930403Y-114047153D01*
X183938644Y-114047422D01*
X184177486Y-114063080D01*
X184193812Y-114065229D01*
X184424530Y-114111124D01*
X184440441Y-114115387D01*
X184663182Y-114191000D01*
X184678400Y-114197303D01*
X184889379Y-114301347D01*
X184903636Y-114309579D01*
X185099221Y-114440264D01*
X185112296Y-114450297D01*
X185289144Y-114605388D01*
X185300798Y-114617042D01*
X185455890Y-114793889D01*
X185465923Y-114806964D01*
X185596606Y-115002540D01*
X185604847Y-115016813D01*
X185708884Y-115227771D01*
X185715192Y-115242998D01*
X185790808Y-115465743D01*
X185795073Y-115481662D01*
X185840965Y-115712354D01*
X185843117Y-115728694D01*
X185858757Y-115967231D01*
X185859027Y-115975475D01*
X185859027Y-123367537D01*
X185858757Y-123375775D01*
X185843107Y-123614617D01*
X185840957Y-123630957D01*
X185811824Y-123777439D01*
X185795073Y-123861660D01*
X185790807Y-123877580D01*
X185715201Y-124100326D01*
X185708894Y-124115554D01*
X185604863Y-124326518D01*
X185596623Y-124340792D01*
X185465938Y-124536385D01*
X185455904Y-124549461D01*
X185300814Y-124726313D01*
X185289160Y-124737967D01*
X185112317Y-124893060D01*
X185099242Y-124903094D01*
X184903656Y-125033786D01*
X184889382Y-125042027D01*
X184678422Y-125146064D01*
X184663196Y-125152371D01*
X184440452Y-125227987D01*
X184424531Y-125232254D01*
X184193824Y-125278148D01*
X184177484Y-125280299D01*
X183976244Y-125293492D01*
X183939772Y-125295883D01*
X183931532Y-125296153D01*
X160907652Y-125296153D01*
X160906901Y-125296225D01*
X160821852Y-125296225D01*
X160821851Y-125296225D01*
X160821849Y-125296225D01*
X160602001Y-125327830D01*
X160598777Y-125328294D01*
X160382558Y-125391777D01*
X160382552Y-125391779D01*
X160177558Y-125485392D01*
X159987971Y-125607225D01*
X159817653Y-125754800D01*
X159670073Y-125925108D01*
X159548227Y-126114692D01*
X159548226Y-126114693D01*
X159454608Y-126319673D01*
X159454604Y-126319684D01*
X159391110Y-126535904D01*
X159359030Y-126758970D01*
X159359027Y-126856635D01*
X159359027Y-127466704D01*
X159358639Y-127476587D01*
X159342272Y-127684620D01*
X159339180Y-127704146D01*
X159314392Y-127807412D01*
X159291633Y-127902222D01*
X159285523Y-127921027D01*
X159207576Y-128109224D01*
X159198600Y-128126841D01*
X159092169Y-128300530D01*
X159080548Y-128316526D01*
X158948258Y-128471426D01*
X158934278Y-128485407D01*
X158779382Y-128617707D01*
X158763387Y-128629329D01*
X158589709Y-128735765D01*
X158572091Y-128744742D01*
X158383889Y-128822702D01*
X158365085Y-128828812D01*
X158167012Y-128876369D01*
X158147485Y-128879462D01*
X157966110Y-128893740D01*
X157940406Y-128895764D01*
X157930519Y-128896153D01*
X94438645Y-128896153D01*
X94430406Y-128895883D01*
X94191570Y-128880232D01*
X94175229Y-128878081D01*
X93944528Y-128832194D01*
X93928607Y-128827928D01*
X93924391Y-128826497D01*
X93891598Y-128815365D01*
X93705872Y-128752320D01*
X93690645Y-128746013D01*
X93479682Y-128641978D01*
X93465409Y-128633737D01*
X93269834Y-128503059D01*
X93256757Y-128493026D01*
X93248069Y-128485407D01*
X93079901Y-128337926D01*
X93068250Y-128326274D01*
X92913161Y-128149425D01*
X92903137Y-128136363D01*
X92772450Y-127940771D01*
X92764211Y-127926501D01*
X92752238Y-127902222D01*
X92660177Y-127715533D01*
X92653871Y-127700307D01*
X92648546Y-127684620D01*
X92578265Y-127477568D01*
X92574001Y-127461649D01*
X92528117Y-127230953D01*
X92525966Y-127214612D01*
X92510297Y-126975463D01*
X92510027Y-126967225D01*
X92510027Y-119975777D01*
X92510297Y-119967534D01*
X92524784Y-119746583D01*
X92525957Y-119728688D01*
X92528106Y-119712374D01*
X92574003Y-119481659D01*
X92578264Y-119465758D01*
X92653882Y-119243010D01*
X92660178Y-119227808D01*
X92764227Y-119016829D01*
X92772461Y-119002569D01*
X92903155Y-118806980D01*
X92913178Y-118793920D01*
X93024678Y-118666782D01*
X148800027Y-118666782D01*
X148800027Y-120280512D01*
X148800028Y-120280519D01*
X148802941Y-120305643D01*
X148802943Y-120305647D01*
X148848320Y-120408418D01*
X148927759Y-120487857D01*
X148927761Y-120487858D01*
X148927762Y-120487859D01*
X149030536Y-120533238D01*
X149055662Y-120536153D01*
X150669391Y-120536152D01*
X150694518Y-120533238D01*
X150797292Y-120487859D01*
X150876733Y-120408418D01*
X150922112Y-120305644D01*
X150925027Y-120280518D01*
X150925026Y-118666789D01*
X150925025Y-118666782D01*
X151340027Y-118666782D01*
X151340027Y-120280512D01*
X151340028Y-120280519D01*
X151342941Y-120305643D01*
X151342943Y-120305647D01*
X151388320Y-120408418D01*
X151467759Y-120487857D01*
X151467761Y-120487858D01*
X151467762Y-120487859D01*
X151570536Y-120533238D01*
X151595662Y-120536153D01*
X153209391Y-120536152D01*
X153234518Y-120533238D01*
X153337292Y-120487859D01*
X153416733Y-120408418D01*
X153462112Y-120305644D01*
X153465027Y-120280518D01*
X153465026Y-118666789D01*
X153462112Y-118641662D01*
X153416733Y-118538888D01*
X153416733Y-118538887D01*
X153337294Y-118459448D01*
X153337292Y-118459447D01*
X153234516Y-118414067D01*
X153234517Y-118414067D01*
X153209395Y-118411153D01*
X151595667Y-118411153D01*
X151595660Y-118411154D01*
X151570536Y-118414067D01*
X151570532Y-118414069D01*
X151467761Y-118459446D01*
X151388322Y-118538885D01*
X151388321Y-118538887D01*
X151342941Y-118641662D01*
X151340027Y-118666782D01*
X150925025Y-118666782D01*
X150922112Y-118641662D01*
X150876733Y-118538888D01*
X150876733Y-118538887D01*
X150797294Y-118459448D01*
X150797292Y-118459447D01*
X150694516Y-118414067D01*
X150694517Y-118414067D01*
X150669395Y-118411153D01*
X149055667Y-118411153D01*
X149055660Y-118411154D01*
X149030536Y-118414067D01*
X149030532Y-118414069D01*
X148927761Y-118459446D01*
X148848322Y-118538885D01*
X148848321Y-118538887D01*
X148802941Y-118641662D01*
X148800027Y-118666782D01*
X93024678Y-118666782D01*
X93068276Y-118617070D01*
X93079917Y-118605429D01*
X93256781Y-118450329D01*
X93269840Y-118440309D01*
X93465428Y-118309626D01*
X93479685Y-118301395D01*
X93690673Y-118197351D01*
X93705868Y-118191058D01*
X93928636Y-118115442D01*
X93944529Y-118111184D01*
X94175233Y-118065298D01*
X94191573Y-118063148D01*
X94430408Y-118047496D01*
X94438640Y-118047227D01*
X94570367Y-118047225D01*
X94570566Y-118047225D01*
X94840314Y-118011708D01*
X95103118Y-117941285D01*
X95354482Y-117837162D01*
X95354483Y-117837161D01*
X95354486Y-117837160D01*
X95590100Y-117701123D01*
X95590100Y-117701122D01*
X95590105Y-117701120D01*
X95805954Y-117535487D01*
X95998338Y-117343097D01*
X96163963Y-117127241D01*
X96299996Y-116891613D01*
X96404110Y-116640245D01*
X96474523Y-116377439D01*
X96505573Y-116141549D01*
X96507517Y-116126782D01*
X148800027Y-116126782D01*
X148800027Y-117740512D01*
X148800028Y-117740519D01*
X148802941Y-117765643D01*
X148802943Y-117765647D01*
X148848320Y-117868418D01*
X148927759Y-117947857D01*
X148927761Y-117947858D01*
X148927762Y-117947859D01*
X149030536Y-117993238D01*
X149055662Y-117996153D01*
X150669391Y-117996152D01*
X150694518Y-117993238D01*
X150797292Y-117947859D01*
X150876733Y-117868418D01*
X150922112Y-117765644D01*
X150925027Y-117740518D01*
X150925026Y-116126789D01*
X150925025Y-116126782D01*
X151340027Y-116126782D01*
X151340027Y-117740512D01*
X151340028Y-117740519D01*
X151342941Y-117765643D01*
X151342943Y-117765647D01*
X151388320Y-117868418D01*
X151467759Y-117947857D01*
X151467761Y-117947858D01*
X151467762Y-117947859D01*
X151570536Y-117993238D01*
X151595662Y-117996153D01*
X153209391Y-117996152D01*
X153234518Y-117993238D01*
X153337292Y-117947859D01*
X153416733Y-117868418D01*
X153462112Y-117765644D01*
X153465027Y-117740518D01*
X153465026Y-116126789D01*
X153465025Y-116126782D01*
X153880027Y-116126782D01*
X153880027Y-117740512D01*
X153880028Y-117740519D01*
X153882941Y-117765643D01*
X153882943Y-117765647D01*
X153928320Y-117868418D01*
X154007759Y-117947857D01*
X154007761Y-117947858D01*
X154007762Y-117947859D01*
X154110536Y-117993238D01*
X154135662Y-117996153D01*
X155749391Y-117996152D01*
X155774518Y-117993238D01*
X155877292Y-117947859D01*
X155956733Y-117868418D01*
X155986703Y-117800541D01*
X156032515Y-117746304D01*
X156100378Y-117725445D01*
X156168746Y-117744587D01*
X156215912Y-117797652D01*
X156220023Y-117807402D01*
X156270083Y-117941619D01*
X156357621Y-118058555D01*
X156416704Y-118102785D01*
X156459250Y-118159622D01*
X156464314Y-118230437D01*
X156430289Y-118292749D01*
X156416704Y-118304521D01*
X156357621Y-118348750D01*
X156270083Y-118465686D01*
X156220023Y-118599903D01*
X156177476Y-118656738D01*
X156110955Y-118681549D01*
X156041581Y-118666457D01*
X155991379Y-118616255D01*
X155986703Y-118606765D01*
X155956733Y-118538888D01*
X155956732Y-118538887D01*
X155956731Y-118538885D01*
X155877294Y-118459448D01*
X155877292Y-118459447D01*
X155774516Y-118414067D01*
X155774517Y-118414067D01*
X155749395Y-118411153D01*
X154135667Y-118411153D01*
X154135660Y-118411154D01*
X154110536Y-118414067D01*
X154110532Y-118414069D01*
X154007761Y-118459446D01*
X153928322Y-118538885D01*
X153928321Y-118538887D01*
X153882941Y-118641662D01*
X153880027Y-118666782D01*
X153880027Y-120280512D01*
X153880028Y-120280519D01*
X153882941Y-120305643D01*
X153882943Y-120305647D01*
X153928320Y-120408418D01*
X154007759Y-120487857D01*
X154007761Y-120487858D01*
X154007762Y-120487859D01*
X154110536Y-120533238D01*
X154135662Y-120536153D01*
X155749391Y-120536152D01*
X155774518Y-120533238D01*
X155877292Y-120487859D01*
X155956733Y-120408418D01*
X155986703Y-120340541D01*
X156032515Y-120286304D01*
X156100378Y-120265445D01*
X156168746Y-120284587D01*
X156215912Y-120337652D01*
X156220023Y-120347402D01*
X156270083Y-120481619D01*
X156357622Y-120598557D01*
X156474561Y-120686097D01*
X156611433Y-120737147D01*
X156671929Y-120743652D01*
X156671942Y-120743653D01*
X157228527Y-120743653D01*
X157228527Y-119840271D01*
X157310956Y-119887861D01*
X157424007Y-119918153D01*
X157541047Y-119918153D01*
X157654098Y-119887861D01*
X157736527Y-119840271D01*
X157736527Y-120743653D01*
X158293112Y-120743653D01*
X158293124Y-120743652D01*
X158353620Y-120737147D01*
X158490491Y-120686097D01*
X158490492Y-120686097D01*
X158607431Y-120598557D01*
X158694971Y-120481618D01*
X158745030Y-120347403D01*
X158787576Y-120290567D01*
X158854097Y-120265756D01*
X158923471Y-120280847D01*
X158973673Y-120331049D01*
X158978350Y-120340541D01*
X159008320Y-120408418D01*
X159087759Y-120487857D01*
X159087761Y-120487858D01*
X159087762Y-120487859D01*
X159190536Y-120533238D01*
X159215662Y-120536153D01*
X160829391Y-120536152D01*
X160854518Y-120533238D01*
X160957292Y-120487859D01*
X161036733Y-120408418D01*
X161082112Y-120305644D01*
X161085027Y-120280518D01*
X161085026Y-118666789D01*
X161085025Y-118666782D01*
X161500027Y-118666782D01*
X161500027Y-120280512D01*
X161500028Y-120280519D01*
X161502941Y-120305643D01*
X161502943Y-120305647D01*
X161548320Y-120408418D01*
X161627759Y-120487857D01*
X161627761Y-120487858D01*
X161627762Y-120487859D01*
X161730536Y-120533238D01*
X161755662Y-120536153D01*
X163369391Y-120536152D01*
X163394518Y-120533238D01*
X163497292Y-120487859D01*
X163576733Y-120408418D01*
X163622112Y-120305644D01*
X163625027Y-120280518D01*
X163625026Y-118666789D01*
X163622112Y-118641662D01*
X163576733Y-118538888D01*
X163576733Y-118538887D01*
X163497294Y-118459448D01*
X163497292Y-118459447D01*
X163394516Y-118414067D01*
X163394517Y-118414067D01*
X163369395Y-118411153D01*
X161755667Y-118411153D01*
X161755660Y-118411154D01*
X161730536Y-118414067D01*
X161730532Y-118414069D01*
X161627761Y-118459446D01*
X161548322Y-118538885D01*
X161548321Y-118538887D01*
X161502941Y-118641662D01*
X161500027Y-118666782D01*
X161085025Y-118666782D01*
X161082112Y-118641662D01*
X161036733Y-118538888D01*
X161036733Y-118538887D01*
X160957294Y-118459448D01*
X160957292Y-118459447D01*
X160854516Y-118414067D01*
X160854517Y-118414067D01*
X160829395Y-118411153D01*
X159215667Y-118411153D01*
X159215660Y-118411154D01*
X159190536Y-118414067D01*
X159190532Y-118414069D01*
X159087761Y-118459446D01*
X159008321Y-118538886D01*
X158978350Y-118606765D01*
X158932536Y-118661002D01*
X158864673Y-118681860D01*
X158796305Y-118662717D01*
X158749141Y-118609651D01*
X158745030Y-118599902D01*
X158694971Y-118465687D01*
X158607431Y-118348748D01*
X158548350Y-118304521D01*
X158505803Y-118247685D01*
X158500739Y-118176870D01*
X158534764Y-118114557D01*
X158548350Y-118102785D01*
X158607431Y-118058557D01*
X158694971Y-117941618D01*
X158745030Y-117807403D01*
X158787576Y-117750567D01*
X158854097Y-117725756D01*
X158923471Y-117740847D01*
X158973673Y-117791049D01*
X158978350Y-117800541D01*
X159008320Y-117868418D01*
X159087759Y-117947857D01*
X159087761Y-117947858D01*
X159087762Y-117947859D01*
X159190536Y-117993238D01*
X159215662Y-117996153D01*
X160829391Y-117996152D01*
X160854518Y-117993238D01*
X160957292Y-117947859D01*
X161036733Y-117868418D01*
X161082112Y-117765644D01*
X161085027Y-117740518D01*
X161085026Y-116126789D01*
X161085025Y-116126782D01*
X161500027Y-116126782D01*
X161500027Y-117740512D01*
X161500028Y-117740519D01*
X161502941Y-117765643D01*
X161502943Y-117765647D01*
X161548320Y-117868418D01*
X161627759Y-117947857D01*
X161627761Y-117947858D01*
X161627762Y-117947859D01*
X161730536Y-117993238D01*
X161755662Y-117996153D01*
X163369391Y-117996152D01*
X163394518Y-117993238D01*
X163497292Y-117947859D01*
X163576733Y-117868418D01*
X163622112Y-117765644D01*
X163625027Y-117740518D01*
X163625026Y-116126789D01*
X163622112Y-116101662D01*
X163576733Y-115998888D01*
X163576733Y-115998887D01*
X163497294Y-115919448D01*
X163497292Y-115919447D01*
X163394516Y-115874067D01*
X163394517Y-115874067D01*
X163369395Y-115871153D01*
X161755667Y-115871153D01*
X161755660Y-115871154D01*
X161730536Y-115874067D01*
X161730532Y-115874069D01*
X161627761Y-115919446D01*
X161548322Y-115998885D01*
X161548321Y-115998887D01*
X161502941Y-116101662D01*
X161500027Y-116126782D01*
X161085025Y-116126782D01*
X161082112Y-116101662D01*
X161036733Y-115998888D01*
X161036733Y-115998887D01*
X160957294Y-115919448D01*
X160957292Y-115919447D01*
X160854516Y-115874067D01*
X160854517Y-115874067D01*
X160829395Y-115871153D01*
X159215667Y-115871153D01*
X159215660Y-115871154D01*
X159190536Y-115874067D01*
X159190532Y-115874069D01*
X159087761Y-115919446D01*
X159008321Y-115998886D01*
X158978350Y-116066765D01*
X158932536Y-116121002D01*
X158864673Y-116141860D01*
X158796305Y-116122717D01*
X158749141Y-116069651D01*
X158745030Y-116059902D01*
X158694971Y-115925687D01*
X158607431Y-115808748D01*
X158490492Y-115721208D01*
X158353620Y-115670158D01*
X158293124Y-115663653D01*
X157736527Y-115663653D01*
X157736527Y-116567034D01*
X157654098Y-116519445D01*
X157541047Y-116489153D01*
X157424007Y-116489153D01*
X157310956Y-116519445D01*
X157228527Y-116567034D01*
X157228527Y-115663653D01*
X156671929Y-115663653D01*
X156611433Y-115670158D01*
X156474562Y-115721208D01*
X156474561Y-115721208D01*
X156357622Y-115808748D01*
X156270083Y-115925686D01*
X156220023Y-116059903D01*
X156177476Y-116116738D01*
X156110955Y-116141549D01*
X156041581Y-116126457D01*
X155991379Y-116076255D01*
X155986703Y-116066765D01*
X155956733Y-115998888D01*
X155956732Y-115998887D01*
X155956731Y-115998885D01*
X155877294Y-115919448D01*
X155877292Y-115919447D01*
X155774516Y-115874067D01*
X155774517Y-115874067D01*
X155749395Y-115871153D01*
X154135667Y-115871153D01*
X154135660Y-115871154D01*
X154110536Y-115874067D01*
X154110532Y-115874069D01*
X154007761Y-115919446D01*
X153928322Y-115998885D01*
X153928321Y-115998887D01*
X153882941Y-116101662D01*
X153880027Y-116126782D01*
X153465025Y-116126782D01*
X153462112Y-116101662D01*
X153416733Y-115998888D01*
X153416733Y-115998887D01*
X153337294Y-115919448D01*
X153337292Y-115919447D01*
X153234516Y-115874067D01*
X153234517Y-115874067D01*
X153209395Y-115871153D01*
X151595667Y-115871153D01*
X151595660Y-115871154D01*
X151570536Y-115874067D01*
X151570532Y-115874069D01*
X151467761Y-115919446D01*
X151388322Y-115998885D01*
X151388321Y-115998887D01*
X151342941Y-116101662D01*
X151340027Y-116126782D01*
X150925025Y-116126782D01*
X150922112Y-116101662D01*
X150876733Y-115998888D01*
X150876733Y-115998887D01*
X150797294Y-115919448D01*
X150797292Y-115919447D01*
X150694516Y-115874067D01*
X150694517Y-115874067D01*
X150669395Y-115871153D01*
X149055667Y-115871153D01*
X149055660Y-115871154D01*
X149030536Y-115874067D01*
X149030532Y-115874069D01*
X148927761Y-115919446D01*
X148848322Y-115998885D01*
X148848321Y-115998887D01*
X148802941Y-116101662D01*
X148800027Y-116126782D01*
X96507517Y-116126782D01*
X96509133Y-116114507D01*
X96509133Y-116114503D01*
X96510030Y-116107689D01*
X96510027Y-115971651D01*
X96510027Y-114117003D01*
X106462027Y-114117003D01*
X106462027Y-114117006D01*
X106462027Y-114326300D01*
X106502858Y-114531573D01*
X106582952Y-114724935D01*
X106629026Y-114793889D01*
X106699230Y-114898958D01*
X106699235Y-114898964D01*
X106847215Y-115046944D01*
X106847221Y-115046949D01*
X106847223Y-115046951D01*
X107021245Y-115163228D01*
X107214607Y-115243322D01*
X107419880Y-115284153D01*
X107419881Y-115284153D01*
X107629173Y-115284153D01*
X107629174Y-115284153D01*
X107834447Y-115243322D01*
X108027809Y-115163228D01*
X108201831Y-115046951D01*
X108349825Y-114898957D01*
X108466102Y-114724935D01*
X108546196Y-114531573D01*
X108587027Y-114326300D01*
X108587027Y-114117006D01*
X108587026Y-114117003D01*
X111462027Y-114117003D01*
X111462027Y-114117006D01*
X111462027Y-114326300D01*
X111502858Y-114531573D01*
X111582952Y-114724935D01*
X111629026Y-114793889D01*
X111699230Y-114898958D01*
X111699235Y-114898964D01*
X111847215Y-115046944D01*
X111847221Y-115046949D01*
X111847223Y-115046951D01*
X112021245Y-115163228D01*
X112214607Y-115243322D01*
X112419880Y-115284153D01*
X112419881Y-115284153D01*
X112629173Y-115284153D01*
X112629174Y-115284153D01*
X112834447Y-115243322D01*
X113027809Y-115163228D01*
X113201831Y-115046951D01*
X113349825Y-114898957D01*
X113466102Y-114724935D01*
X113546196Y-114531573D01*
X113587027Y-114326300D01*
X113587027Y-114117006D01*
X113546196Y-113911733D01*
X113466102Y-113718371D01*
X113349825Y-113544349D01*
X113349823Y-113544347D01*
X113349818Y-113544341D01*
X113201838Y-113396361D01*
X113201832Y-113396356D01*
X113167816Y-113373627D01*
X113027809Y-113280078D01*
X112891086Y-113223445D01*
X112834450Y-113199985D01*
X112834448Y-113199984D01*
X112834447Y-113199984D01*
X112731115Y-113179430D01*
X112629176Y-113159153D01*
X112629174Y-113159153D01*
X112419880Y-113159153D01*
X112419877Y-113159153D01*
X112266968Y-113189568D01*
X112214607Y-113199984D01*
X112214606Y-113199984D01*
X112214603Y-113199985D01*
X112021243Y-113280079D01*
X111847221Y-113396356D01*
X111847215Y-113396361D01*
X111699235Y-113544341D01*
X111699230Y-113544347D01*
X111582953Y-113718369D01*
X111502859Y-113911729D01*
X111462027Y-114117003D01*
X108587026Y-114117003D01*
X108546196Y-113911733D01*
X108466102Y-113718371D01*
X108349825Y-113544349D01*
X108349823Y-113544347D01*
X108349818Y-113544341D01*
X108201838Y-113396361D01*
X108201832Y-113396356D01*
X108167816Y-113373627D01*
X108027809Y-113280078D01*
X107891086Y-113223445D01*
X107834450Y-113199985D01*
X107834448Y-113199984D01*
X107834447Y-113199984D01*
X107731115Y-113179430D01*
X107629176Y-113159153D01*
X107629174Y-113159153D01*
X107419880Y-113159153D01*
X107419877Y-113159153D01*
X107266968Y-113189568D01*
X107214607Y-113199984D01*
X107214606Y-113199984D01*
X107214603Y-113199985D01*
X107021243Y-113280079D01*
X106847221Y-113396356D01*
X106847215Y-113396361D01*
X106699235Y-113544341D01*
X106699230Y-113544347D01*
X106582953Y-113718369D01*
X106502859Y-113911729D01*
X106462027Y-114117003D01*
X96510027Y-114117003D01*
X96510027Y-98837357D01*
X125357127Y-98837357D01*
X125357127Y-111421348D01*
X125384047Y-111556681D01*
X125384048Y-111556684D01*
X125403553Y-111603774D01*
X125436852Y-111684164D01*
X125462555Y-111722631D01*
X125513512Y-111798894D01*
X125513517Y-111798900D01*
X125611079Y-111896462D01*
X125611085Y-111896467D01*
X125725816Y-111973128D01*
X125853299Y-112025933D01*
X125988634Y-112052853D01*
X125988635Y-112052853D01*
X126126619Y-112052853D01*
X126126620Y-112052853D01*
X126261955Y-112025933D01*
X126389438Y-111973128D01*
X126504169Y-111896467D01*
X126601741Y-111798895D01*
X126678402Y-111684164D01*
X126731207Y-111556681D01*
X126758127Y-111421346D01*
X126758127Y-105434657D01*
X132906027Y-105434657D01*
X132906027Y-105572648D01*
X132932947Y-105707981D01*
X132932948Y-105707984D01*
X132934848Y-105712570D01*
X132985752Y-105835464D01*
X133036974Y-105912124D01*
X133062412Y-105950194D01*
X133062415Y-105950198D01*
X133069118Y-105956900D01*
X133103146Y-106019210D01*
X133106027Y-106045999D01*
X133106027Y-110478990D01*
X133106027Y-110610774D01*
X133120650Y-110665348D01*
X133140134Y-110738065D01*
X133140137Y-110738072D01*
X133206024Y-110852192D01*
X133206032Y-110852202D01*
X135188231Y-112834400D01*
X135251325Y-112897494D01*
X135285351Y-112959806D01*
X135288230Y-112986589D01*
X135288230Y-112996080D01*
X135314314Y-113127212D01*
X135315150Y-113131413D01*
X135367955Y-113258896D01*
X135408886Y-113320153D01*
X135444615Y-113373626D01*
X135444620Y-113373632D01*
X135542182Y-113471194D01*
X135542188Y-113471199D01*
X135656919Y-113547860D01*
X135784402Y-113600665D01*
X135919737Y-113627585D01*
X135919738Y-113627585D01*
X136057722Y-113627585D01*
X136057723Y-113627585D01*
X136193058Y-113600665D01*
X136320541Y-113547860D01*
X136435272Y-113471199D01*
X136532844Y-113373627D01*
X136609505Y-113258896D01*
X136662310Y-113131413D01*
X136689230Y-112996078D01*
X136689230Y-112858092D01*
X136662310Y-112722757D01*
X136609505Y-112595274D01*
X136532844Y-112480543D01*
X136532839Y-112480537D01*
X136435277Y-112382975D01*
X136435271Y-112382970D01*
X136364580Y-112335736D01*
X136320541Y-112306310D01*
X136240151Y-112273011D01*
X136193061Y-112253506D01*
X136193058Y-112253505D01*
X136057725Y-112226585D01*
X136057723Y-112226585D01*
X136048234Y-112226585D01*
X135980113Y-112206583D01*
X135959139Y-112189680D01*
X134143932Y-110374473D01*
X134109906Y-110312161D01*
X134107027Y-110285378D01*
X134107027Y-106045999D01*
X134127029Y-105977878D01*
X134143936Y-105956900D01*
X134150638Y-105950198D01*
X134150641Y-105950195D01*
X134227302Y-105835464D01*
X134280107Y-105707981D01*
X134307027Y-105572646D01*
X134307027Y-105434660D01*
X134280107Y-105299325D01*
X134227302Y-105171842D01*
X134150641Y-105057111D01*
X134150636Y-105057105D01*
X134053074Y-104959543D01*
X134053068Y-104959538D01*
X133945201Y-104887464D01*
X133938338Y-104882878D01*
X133857948Y-104849579D01*
X133810858Y-104830074D01*
X133810855Y-104830073D01*
X133675522Y-104803153D01*
X133675520Y-104803153D01*
X133537534Y-104803153D01*
X133537531Y-104803153D01*
X133402198Y-104830073D01*
X133402195Y-104830074D01*
X133274716Y-104882878D01*
X133159985Y-104959538D01*
X133159979Y-104959543D01*
X133062417Y-105057105D01*
X133062412Y-105057111D01*
X132985752Y-105171842D01*
X132932948Y-105299321D01*
X132932947Y-105299324D01*
X132906027Y-105434657D01*
X126758127Y-105434657D01*
X126758127Y-104304357D01*
X127991127Y-104304357D01*
X127991127Y-104304360D01*
X127991127Y-104442346D01*
X128018047Y-104577681D01*
X128070852Y-104705164D01*
X128116747Y-104773850D01*
X128147512Y-104819894D01*
X128147517Y-104819900D01*
X128245079Y-104917462D01*
X128245085Y-104917467D01*
X128359816Y-104994128D01*
X128487299Y-105046933D01*
X128622634Y-105073853D01*
X128622635Y-105073853D01*
X128760619Y-105073853D01*
X128760620Y-105073853D01*
X128895955Y-105046933D01*
X129023438Y-104994128D01*
X129138169Y-104917467D01*
X129138174Y-104917462D01*
X129144879Y-104910758D01*
X129207191Y-104876732D01*
X129233974Y-104873853D01*
X130984519Y-104873853D01*
X130984521Y-104873853D01*
X131111815Y-104839745D01*
X131225943Y-104773853D01*
X131635040Y-104364755D01*
X131697351Y-104330732D01*
X131724134Y-104327852D01*
X159102722Y-104327852D01*
X159170843Y-104347854D01*
X159191817Y-104364757D01*
X159419704Y-104592644D01*
X159453730Y-104654956D01*
X159448665Y-104725771D01*
X159406118Y-104782607D01*
X159339598Y-104807418D01*
X159330609Y-104807739D01*
X159196117Y-104807739D01*
X159060784Y-104834659D01*
X159060781Y-104834660D01*
X158933302Y-104887464D01*
X158818571Y-104964124D01*
X158818565Y-104964129D01*
X158721003Y-105061691D01*
X158720998Y-105061697D01*
X158644338Y-105176428D01*
X158591534Y-105303907D01*
X158591533Y-105303910D01*
X158564613Y-105439243D01*
X158564613Y-105448735D01*
X158544611Y-105516856D01*
X158527708Y-105537830D01*
X154819292Y-109246246D01*
X154756980Y-109280272D01*
X154730197Y-109283151D01*
X151414417Y-109283151D01*
X141254221Y-109283151D01*
X141122436Y-109283151D01*
X141054222Y-109301428D01*
X140995145Y-109317258D01*
X140995138Y-109317261D01*
X140881018Y-109383148D01*
X140881013Y-109383152D01*
X140834421Y-109429744D01*
X140787829Y-109476337D01*
X140405218Y-109858948D01*
X140342906Y-109892974D01*
X140316123Y-109895853D01*
X140306631Y-109895853D01*
X140171298Y-109922773D01*
X140171295Y-109922774D01*
X140043816Y-109975578D01*
X139929085Y-110052238D01*
X139929079Y-110052243D01*
X139831517Y-110149805D01*
X139831512Y-110149811D01*
X139754852Y-110264542D01*
X139702048Y-110392021D01*
X139702047Y-110392024D01*
X139675127Y-110527357D01*
X139675127Y-110665348D01*
X139702047Y-110800681D01*
X139702048Y-110800684D01*
X139714335Y-110830346D01*
X139754852Y-110928164D01*
X139779375Y-110964865D01*
X139831512Y-111042894D01*
X139831517Y-111042900D01*
X139929079Y-111140462D01*
X139929085Y-111140467D01*
X140043816Y-111217128D01*
X140171299Y-111269933D01*
X140306634Y-111296853D01*
X140306635Y-111296853D01*
X140444619Y-111296853D01*
X140444620Y-111296853D01*
X140579955Y-111269933D01*
X140707438Y-111217128D01*
X140822169Y-111140467D01*
X140919741Y-111042895D01*
X140996402Y-110928164D01*
X141049207Y-110800681D01*
X141076127Y-110665346D01*
X141076127Y-110655856D01*
X141096129Y-110587735D01*
X141113032Y-110566761D01*
X141358737Y-110321056D01*
X141421049Y-110287030D01*
X141447832Y-110284151D01*
X148605403Y-110284151D01*
X148673524Y-110304153D01*
X148720017Y-110357809D01*
X148730121Y-110428083D01*
X148721813Y-110458363D01*
X148710454Y-110485789D01*
X148680947Y-110557024D01*
X148654027Y-110692357D01*
X148654027Y-110830348D01*
X148680947Y-110965681D01*
X148680948Y-110965684D01*
X148696501Y-111003231D01*
X148733752Y-111093164D01*
X148765356Y-111140462D01*
X148810412Y-111207894D01*
X148810417Y-111207900D01*
X148907979Y-111305462D01*
X148907985Y-111305467D01*
X149022716Y-111382128D01*
X149150199Y-111434933D01*
X149285534Y-111461853D01*
X149365734Y-111461853D01*
X149433855Y-111481855D01*
X149454829Y-111498758D01*
X151186206Y-113230136D01*
X151186211Y-113230140D01*
X151186213Y-113230142D01*
X151236017Y-113258896D01*
X151288941Y-113289452D01*
X151403518Y-113320153D01*
X153809533Y-113320153D01*
X153842181Y-113320153D01*
X153910302Y-113340155D01*
X153931271Y-113357053D01*
X153987985Y-113413767D01*
X154102716Y-113490428D01*
X154230199Y-113543233D01*
X154365534Y-113570153D01*
X154365535Y-113570153D01*
X154503519Y-113570153D01*
X154503520Y-113570153D01*
X154638855Y-113543233D01*
X154766338Y-113490428D01*
X154881069Y-113413767D01*
X154978641Y-113316195D01*
X155055302Y-113201464D01*
X155108107Y-113073981D01*
X155131442Y-112956665D01*
X155164349Y-112893757D01*
X155226044Y-112858625D01*
X155296939Y-112862425D01*
X155325023Y-112876483D01*
X155341541Y-112887520D01*
X155469024Y-112940325D01*
X155604359Y-112967245D01*
X155604360Y-112967245D01*
X155742344Y-112967245D01*
X155742345Y-112967245D01*
X155877680Y-112940325D01*
X156005163Y-112887520D01*
X156119894Y-112810859D01*
X156217466Y-112713287D01*
X156294127Y-112598556D01*
X156346932Y-112471073D01*
X156373852Y-112335738D01*
X156373852Y-112197752D01*
X156346932Y-112062417D01*
X156294127Y-111934934D01*
X156217466Y-111820203D01*
X156217461Y-111820197D01*
X156119899Y-111722635D01*
X156119893Y-111722630D01*
X156062324Y-111684164D01*
X156005163Y-111645970D01*
X155907358Y-111605458D01*
X155877683Y-111593166D01*
X155877680Y-111593165D01*
X155742347Y-111566245D01*
X155742345Y-111566245D01*
X155604359Y-111566245D01*
X155604353Y-111566245D01*
X155568456Y-111573386D01*
X155497742Y-111567058D01*
X155441675Y-111523503D01*
X155418056Y-111456551D01*
X155418366Y-111442683D01*
X155418366Y-111300650D01*
X155418365Y-111300646D01*
X155417611Y-111296853D01*
X155391446Y-111165314D01*
X155338641Y-111037831D01*
X155261980Y-110923100D01*
X155261975Y-110923094D01*
X155164413Y-110825532D01*
X155164407Y-110825527D01*
X155125219Y-110799343D01*
X155049677Y-110748867D01*
X154969287Y-110715568D01*
X154922197Y-110696063D01*
X154922194Y-110696062D01*
X154786861Y-110669142D01*
X154786859Y-110669142D01*
X154706660Y-110669142D01*
X154681641Y-110661796D01*
X154655789Y-110658416D01*
X154645025Y-110651044D01*
X154638539Y-110649140D01*
X154625373Y-110639415D01*
X154621322Y-110635994D01*
X154529792Y-110544466D01*
X154476435Y-110513661D01*
X154467864Y-110506424D01*
X154454226Y-110485789D01*
X154437158Y-110467889D01*
X154435001Y-110456699D01*
X154428719Y-110447194D01*
X154428402Y-110422462D01*
X154423721Y-110398175D01*
X154427955Y-110387596D01*
X154427810Y-110376203D01*
X154440914Y-110355225D01*
X154450107Y-110332264D01*
X154459388Y-110325654D01*
X154465426Y-110315990D01*
X154487792Y-110305427D01*
X154507939Y-110291081D01*
X154523831Y-110288408D01*
X154529624Y-110285673D01*
X154535517Y-110286443D01*
X154549151Y-110284151D01*
X155055591Y-110284151D01*
X155055593Y-110284151D01*
X155182887Y-110250043D01*
X155297015Y-110184151D01*
X159235522Y-106245644D01*
X159297834Y-106211618D01*
X159324617Y-106208739D01*
X159334105Y-106208739D01*
X159334106Y-106208739D01*
X159469441Y-106181819D01*
X159596924Y-106129014D01*
X159711655Y-106052353D01*
X159809227Y-105954781D01*
X159885888Y-105840050D01*
X159938693Y-105712567D01*
X159951073Y-105650327D01*
X159983981Y-105587419D01*
X160045676Y-105552287D01*
X160116571Y-105556087D01*
X160174157Y-105597613D01*
X160179417Y-105604908D01*
X160240412Y-105696194D01*
X160240417Y-105696200D01*
X160337979Y-105793762D01*
X160337985Y-105793767D01*
X160452716Y-105870428D01*
X160580199Y-105923233D01*
X160715534Y-105950153D01*
X160715535Y-105950153D01*
X160853519Y-105950153D01*
X160853520Y-105950153D01*
X160988855Y-105923233D01*
X161116338Y-105870428D01*
X161154025Y-105845245D01*
X161221778Y-105824031D01*
X161290245Y-105842814D01*
X161337688Y-105895631D01*
X161350027Y-105950011D01*
X161350027Y-109483306D01*
X161330025Y-109551427D01*
X161313122Y-109572401D01*
X161256417Y-109629105D01*
X161256412Y-109629111D01*
X161179752Y-109743842D01*
X161126948Y-109871321D01*
X161126947Y-109871324D01*
X161100027Y-110006657D01*
X161100027Y-110144648D01*
X161126947Y-110279981D01*
X161126948Y-110279984D01*
X161131545Y-110291081D01*
X161179752Y-110407464D01*
X161220127Y-110467889D01*
X161256412Y-110522194D01*
X161256417Y-110522200D01*
X161353979Y-110619762D01*
X161353985Y-110619767D01*
X161468716Y-110696428D01*
X161596199Y-110749233D01*
X161731534Y-110776153D01*
X161731535Y-110776153D01*
X161869519Y-110776153D01*
X161869520Y-110776153D01*
X162004855Y-110749233D01*
X162132338Y-110696428D01*
X162247069Y-110619767D01*
X162344641Y-110522195D01*
X162409875Y-110424565D01*
X162464349Y-110379040D01*
X162534792Y-110370191D01*
X162598836Y-110400832D01*
X162636148Y-110461233D01*
X162638217Y-110469986D01*
X162650947Y-110533983D01*
X162650948Y-110533984D01*
X162703752Y-110661464D01*
X162729922Y-110700630D01*
X162780412Y-110776194D01*
X162780417Y-110776200D01*
X162877979Y-110873762D01*
X162877985Y-110873767D01*
X162992716Y-110950428D01*
X163120199Y-111003233D01*
X163255534Y-111030153D01*
X163255535Y-111030153D01*
X163393519Y-111030153D01*
X163393520Y-111030153D01*
X163528855Y-111003233D01*
X163656338Y-110950428D01*
X163771069Y-110873767D01*
X163868641Y-110776195D01*
X163945302Y-110661464D01*
X163998107Y-110533981D01*
X164025027Y-110398646D01*
X164025027Y-110260660D01*
X163998107Y-110125325D01*
X163945302Y-109997842D01*
X163868641Y-109883111D01*
X163868636Y-109883105D01*
X163771074Y-109785543D01*
X163771068Y-109785538D01*
X163708665Y-109743842D01*
X163656338Y-109708878D01*
X163575948Y-109675579D01*
X163528858Y-109656074D01*
X163528855Y-109656073D01*
X163393522Y-109629153D01*
X163393520Y-109629153D01*
X163313320Y-109629153D01*
X163245199Y-109609151D01*
X163224225Y-109592248D01*
X162787942Y-109155965D01*
X162753916Y-109093653D01*
X162751037Y-109066870D01*
X162751037Y-99146437D01*
X162771039Y-99078316D01*
X162787942Y-99057342D01*
X162970224Y-98875060D01*
X163032536Y-98841034D01*
X163059319Y-98838155D01*
X163139518Y-98838155D01*
X163139519Y-98838155D01*
X163274854Y-98811235D01*
X163402337Y-98758430D01*
X163517068Y-98681769D01*
X163614640Y-98584197D01*
X163691301Y-98469466D01*
X163744106Y-98341983D01*
X163771026Y-98206648D01*
X163771026Y-98068662D01*
X163744106Y-97933327D01*
X163691301Y-97805844D01*
X163614640Y-97691113D01*
X163614635Y-97691107D01*
X163517073Y-97593545D01*
X163517067Y-97593540D01*
X163478997Y-97568102D01*
X163402337Y-97516880D01*
X163321947Y-97483581D01*
X163274857Y-97464076D01*
X163274854Y-97464075D01*
X163139521Y-97437155D01*
X163139519Y-97437155D01*
X163006211Y-97437155D01*
X162938090Y-97417153D01*
X162891597Y-97363497D01*
X162881493Y-97293223D01*
X162901446Y-97241153D01*
X162929302Y-97199464D01*
X162982107Y-97071981D01*
X163009027Y-96936646D01*
X163009027Y-96798660D01*
X162982107Y-96663325D01*
X162929302Y-96535842D01*
X162852641Y-96421111D01*
X162852636Y-96421105D01*
X162755074Y-96323543D01*
X162755068Y-96323538D01*
X162716998Y-96298100D01*
X162640338Y-96246878D01*
X162559948Y-96213579D01*
X162512858Y-96194074D01*
X162512855Y-96194073D01*
X162377522Y-96167153D01*
X162377520Y-96167153D01*
X162239534Y-96167153D01*
X162239531Y-96167153D01*
X162104198Y-96194073D01*
X162104195Y-96194074D01*
X161976716Y-96246878D01*
X161861985Y-96323538D01*
X161861979Y-96323543D01*
X161764417Y-96421105D01*
X161764412Y-96421111D01*
X161687752Y-96535842D01*
X161634948Y-96663321D01*
X161634947Y-96663324D01*
X161608027Y-96798657D01*
X161608027Y-96878859D01*
X161588025Y-96946980D01*
X161571122Y-96967954D01*
X161440043Y-97099032D01*
X161440035Y-97099042D01*
X161380727Y-97201766D01*
X161380728Y-97201767D01*
X161356223Y-97293223D01*
X161350027Y-97316345D01*
X161350027Y-104549294D01*
X161330025Y-104617415D01*
X161276369Y-104663908D01*
X161206095Y-104674012D01*
X161154026Y-104654060D01*
X161116337Y-104628877D01*
X160988858Y-104576074D01*
X160988855Y-104576073D01*
X160853522Y-104549153D01*
X160853520Y-104549153D01*
X160844031Y-104549153D01*
X160814115Y-104540369D01*
X160783646Y-104533741D01*
X160778550Y-104529926D01*
X160775910Y-104529151D01*
X160754936Y-104512248D01*
X160691842Y-104449154D01*
X159669543Y-103426854D01*
X159663706Y-103422375D01*
X159621840Y-103365036D01*
X159617620Y-103294165D01*
X159651315Y-103233320D01*
X159715741Y-103168895D01*
X159792402Y-103054164D01*
X159845207Y-102926681D01*
X159872127Y-102791346D01*
X159872127Y-102653360D01*
X159845207Y-102518025D01*
X159792402Y-102390542D01*
X159715741Y-102275811D01*
X159715736Y-102275805D01*
X159618174Y-102178243D01*
X159618168Y-102178238D01*
X159568958Y-102145357D01*
X159503438Y-102101578D01*
X159423048Y-102068279D01*
X159375958Y-102048774D01*
X159375955Y-102048773D01*
X159240622Y-102021853D01*
X159240620Y-102021853D01*
X159102634Y-102021853D01*
X159102631Y-102021853D01*
X158967298Y-102048773D01*
X158967295Y-102048774D01*
X158839816Y-102101578D01*
X158725085Y-102178238D01*
X158725079Y-102178243D01*
X158627517Y-102275805D01*
X158627512Y-102275811D01*
X158550852Y-102390542D01*
X158498049Y-102518019D01*
X158498046Y-102518027D01*
X158496128Y-102527671D01*
X158494387Y-102536424D01*
X158461482Y-102599333D01*
X158399787Y-102634465D01*
X158370809Y-102637843D01*
X153847000Y-102637843D01*
X153778879Y-102617841D01*
X153732386Y-102564185D01*
X153722282Y-102493911D01*
X153730591Y-102463625D01*
X153738820Y-102443758D01*
X153749207Y-102418681D01*
X153776127Y-102283346D01*
X153776127Y-102145360D01*
X153749207Y-102010025D01*
X153696402Y-101882542D01*
X153619741Y-101767811D01*
X153619736Y-101767805D01*
X153522174Y-101670243D01*
X153522168Y-101670238D01*
X153472959Y-101637358D01*
X153407438Y-101593578D01*
X153327048Y-101560279D01*
X153279958Y-101540774D01*
X153279955Y-101540773D01*
X153144622Y-101513853D01*
X153144620Y-101513853D01*
X153135131Y-101513853D01*
X153105215Y-101505069D01*
X153074746Y-101498441D01*
X153069650Y-101494626D01*
X153067010Y-101493851D01*
X153046036Y-101476948D01*
X152982942Y-101413854D01*
X151731947Y-100162858D01*
X151731937Y-100162850D01*
X151617817Y-100096963D01*
X151617814Y-100096962D01*
X151617813Y-100096961D01*
X151617811Y-100096960D01*
X151617810Y-100096960D01*
X151583700Y-100087820D01*
X151490519Y-100062853D01*
X151490517Y-100062853D01*
X149680974Y-100062853D01*
X149612853Y-100042851D01*
X149591879Y-100025948D01*
X149585174Y-100019243D01*
X149585168Y-100019238D01*
X149547098Y-99993800D01*
X149470438Y-99942578D01*
X149390048Y-99909279D01*
X149342958Y-99889774D01*
X149342955Y-99889773D01*
X149207622Y-99862853D01*
X149207620Y-99862853D01*
X149069634Y-99862853D01*
X149069631Y-99862853D01*
X148934298Y-99889773D01*
X148934295Y-99889774D01*
X148806816Y-99942578D01*
X148692085Y-100019238D01*
X148692079Y-100019243D01*
X148594517Y-100116805D01*
X148594512Y-100116811D01*
X148517852Y-100231542D01*
X148465048Y-100359021D01*
X148465047Y-100359024D01*
X148438127Y-100494357D01*
X148438127Y-100494360D01*
X148438127Y-100632346D01*
X148465047Y-100767681D01*
X148517852Y-100895164D01*
X148569074Y-100971824D01*
X148594512Y-101009894D01*
X148594517Y-101009900D01*
X148692079Y-101107462D01*
X148692085Y-101107467D01*
X148806816Y-101184128D01*
X148934299Y-101236933D01*
X149069634Y-101263853D01*
X149069635Y-101263853D01*
X149207619Y-101263853D01*
X149207620Y-101263853D01*
X149342955Y-101236933D01*
X149470438Y-101184128D01*
X149585169Y-101107467D01*
X149585174Y-101107462D01*
X149591879Y-101100758D01*
X149654191Y-101066732D01*
X149680974Y-101063853D01*
X151165123Y-101063853D01*
X151233244Y-101083855D01*
X151254218Y-101100758D01*
X152338222Y-102184762D01*
X152371877Y-102245423D01*
X152375127Y-102259453D01*
X152375127Y-102283346D01*
X152402047Y-102418681D01*
X152424651Y-102473253D01*
X152427004Y-102483409D01*
X152425526Y-102508863D01*
X152428252Y-102534215D01*
X152423504Y-102543698D01*
X152422890Y-102554287D01*
X152407885Y-102574902D01*
X152396472Y-102597702D01*
X152387350Y-102603113D01*
X152381110Y-102611688D01*
X152357342Y-102620918D01*
X152335414Y-102633929D01*
X152318308Y-102636077D01*
X152314929Y-102637390D01*
X152312231Y-102636840D01*
X152304254Y-102637843D01*
X141592121Y-102637843D01*
X141524000Y-102617841D01*
X141503026Y-102600938D01*
X140638032Y-101735944D01*
X140604006Y-101673632D01*
X140601127Y-101646849D01*
X140601127Y-101637362D01*
X140601126Y-101637358D01*
X140574207Y-101502026D01*
X140521402Y-101374543D01*
X140444741Y-101259812D01*
X140444736Y-101259806D01*
X140347174Y-101162244D01*
X140347168Y-101162239D01*
X140309098Y-101136801D01*
X140232438Y-101085579D01*
X140152048Y-101052280D01*
X140104958Y-101032775D01*
X140104955Y-101032774D01*
X139969622Y-101005854D01*
X139969620Y-101005854D01*
X139831634Y-101005854D01*
X139831631Y-101005854D01*
X139696298Y-101032774D01*
X139696295Y-101032775D01*
X139568816Y-101085579D01*
X139454085Y-101162239D01*
X139454079Y-101162244D01*
X139356517Y-101259806D01*
X139356512Y-101259812D01*
X139279852Y-101374543D01*
X139227048Y-101502022D01*
X139227047Y-101502025D01*
X139200127Y-101637358D01*
X139200127Y-101775349D01*
X139227047Y-101910682D01*
X139279852Y-102038165D01*
X139286941Y-102048774D01*
X139356512Y-102152895D01*
X139356517Y-102152901D01*
X139454079Y-102250463D01*
X139454085Y-102250468D01*
X139568816Y-102327129D01*
X139696299Y-102379934D01*
X139831634Y-102406854D01*
X139841122Y-102406854D01*
X139909243Y-102426856D01*
X139930217Y-102443758D01*
X140277807Y-102791348D01*
X140598216Y-103111756D01*
X140632241Y-103174069D01*
X140627177Y-103244884D01*
X140584630Y-103301720D01*
X140518110Y-103326531D01*
X140509121Y-103326852D01*
X131530522Y-103326852D01*
X131398738Y-103326852D01*
X131337995Y-103343128D01*
X131271446Y-103360959D01*
X131271439Y-103360962D01*
X131157319Y-103426849D01*
X131157313Y-103426854D01*
X130952767Y-103631401D01*
X130748218Y-103835949D01*
X130685908Y-103869973D01*
X130659125Y-103872853D01*
X129233974Y-103872853D01*
X129165853Y-103852851D01*
X129144879Y-103835948D01*
X129138174Y-103829243D01*
X129138168Y-103829238D01*
X129100098Y-103803800D01*
X129023438Y-103752578D01*
X128943048Y-103719279D01*
X128895958Y-103699774D01*
X128895955Y-103699773D01*
X128760622Y-103672853D01*
X128760620Y-103672853D01*
X128622634Y-103672853D01*
X128622631Y-103672853D01*
X128487298Y-103699773D01*
X128487295Y-103699774D01*
X128359816Y-103752578D01*
X128245085Y-103829238D01*
X128245079Y-103829243D01*
X128147517Y-103926805D01*
X128147512Y-103926811D01*
X128070852Y-104041542D01*
X128018048Y-104169021D01*
X128018047Y-104169024D01*
X127991127Y-104304357D01*
X126758127Y-104304357D01*
X126758127Y-98837360D01*
X126731207Y-98702025D01*
X126678402Y-98574542D01*
X126601741Y-98459811D01*
X126601736Y-98459805D01*
X126504174Y-98362243D01*
X126504168Y-98362238D01*
X126441029Y-98320050D01*
X126389438Y-98285578D01*
X126309048Y-98252279D01*
X126261958Y-98232774D01*
X126261955Y-98232773D01*
X126126622Y-98205853D01*
X126126620Y-98205853D01*
X125988634Y-98205853D01*
X125988631Y-98205853D01*
X125853298Y-98232773D01*
X125853295Y-98232774D01*
X125725816Y-98285578D01*
X125611085Y-98362238D01*
X125611079Y-98362243D01*
X125513517Y-98459805D01*
X125513512Y-98459811D01*
X125436852Y-98574542D01*
X125384048Y-98702021D01*
X125384047Y-98702024D01*
X125357127Y-98837357D01*
X96510027Y-98837357D01*
X96510027Y-92734657D01*
X132906027Y-92734657D01*
X132906027Y-92872648D01*
X132932947Y-93007981D01*
X132932948Y-93007984D01*
X132985755Y-93135472D01*
X132988671Y-93140927D01*
X132987195Y-93141715D01*
X132990530Y-93152360D01*
X133000923Y-93168531D01*
X133005441Y-93199958D01*
X133006007Y-93201763D01*
X133006027Y-93204029D01*
X133006027Y-93419276D01*
X132987655Y-93481843D01*
X132988669Y-93482385D01*
X132986067Y-93487251D01*
X132986025Y-93487397D01*
X132985834Y-93487687D01*
X132985752Y-93487841D01*
X132932948Y-93615321D01*
X132932947Y-93615324D01*
X132906027Y-93750657D01*
X132906027Y-93750660D01*
X132906027Y-93888646D01*
X132932947Y-94023981D01*
X132985752Y-94151464D01*
X133036974Y-94228124D01*
X133062412Y-94266194D01*
X133062417Y-94266200D01*
X133159979Y-94363762D01*
X133159985Y-94363767D01*
X133274716Y-94440428D01*
X133402199Y-94493233D01*
X133537534Y-94520153D01*
X133537535Y-94520153D01*
X133675519Y-94520153D01*
X133675520Y-94520153D01*
X133810855Y-94493233D01*
X133938338Y-94440428D01*
X134053069Y-94363767D01*
X134150641Y-94266195D01*
X134227302Y-94151464D01*
X134280107Y-94023981D01*
X134307027Y-93888646D01*
X134307027Y-93750660D01*
X134287946Y-93654734D01*
X134294274Y-93584021D01*
X134337828Y-93527953D01*
X134404780Y-93504334D01*
X134411525Y-93504153D01*
X157805521Y-93504153D01*
X157940855Y-93477233D01*
X158068338Y-93424428D01*
X158183070Y-93347767D01*
X159513778Y-92017057D01*
X159576090Y-91983033D01*
X159602873Y-91980153D01*
X162377519Y-91980153D01*
X162377520Y-91980153D01*
X162512855Y-91953233D01*
X162640338Y-91900428D01*
X162755069Y-91823767D01*
X162852641Y-91726195D01*
X162929302Y-91611464D01*
X162982107Y-91483981D01*
X163009027Y-91348646D01*
X163009027Y-91210660D01*
X162982107Y-91075325D01*
X162929302Y-90947842D01*
X162852641Y-90833111D01*
X162852636Y-90833105D01*
X162755074Y-90735543D01*
X162755068Y-90735538D01*
X162716998Y-90710100D01*
X162640338Y-90658878D01*
X162512860Y-90606075D01*
X162512858Y-90606074D01*
X162512855Y-90606073D01*
X162377522Y-90579153D01*
X162377520Y-90579153D01*
X161107520Y-90579153D01*
X159191534Y-90579153D01*
X159191528Y-90579153D01*
X159083117Y-90600718D01*
X159083116Y-90600717D01*
X159056203Y-90606071D01*
X159056190Y-90606075D01*
X159003394Y-90627943D01*
X159003395Y-90627944D01*
X158928716Y-90658878D01*
X158928715Y-90658879D01*
X158813988Y-90735537D01*
X158813981Y-90735542D01*
X157483275Y-92066248D01*
X157420963Y-92100274D01*
X157394180Y-92103153D01*
X133537531Y-92103153D01*
X133402198Y-92130073D01*
X133402195Y-92130074D01*
X133274716Y-92182878D01*
X133159985Y-92259538D01*
X133159979Y-92259543D01*
X133062417Y-92357105D01*
X133062412Y-92357111D01*
X132985752Y-92471842D01*
X132932948Y-92599321D01*
X132932947Y-92599324D01*
X132906027Y-92734657D01*
X96510027Y-92734657D01*
X96510027Y-82815777D01*
X96510297Y-82807534D01*
X96518946Y-82675618D01*
X96525957Y-82568688D01*
X96528106Y-82552374D01*
X96574003Y-82321659D01*
X96578264Y-82305758D01*
X96653882Y-82083010D01*
X96660178Y-82067808D01*
X96764227Y-81856829D01*
X96772461Y-81842569D01*
X96903155Y-81646980D01*
X96913178Y-81633920D01*
X97068276Y-81457070D01*
X97079917Y-81445429D01*
X97256781Y-81290329D01*
X97269840Y-81280309D01*
X97465428Y-81149626D01*
X97479685Y-81141395D01*
X97690673Y-81037351D01*
X97705868Y-81031058D01*
X97928636Y-80955442D01*
X97944529Y-80951184D01*
X98175233Y-80905298D01*
X98191573Y-80903148D01*
X98431535Y-80887423D01*
X98439774Y-80887153D01*
X98459057Y-80887153D01*
X179030404Y-80887153D01*
X179038645Y-80887422D01*
G37*
%TD.AperFunction*%
%TD*%
M02*
