%TF.GenerationSoftware,KiCad,Pcbnew,9.0.7+1*%
%TF.CreationDate,2026-03-12T10:37:44+00:00*%
%TF.ProjectId,SPACEDOS01,53504143-4544-44f5-9330-312e6b696361,B*%
%TF.SameCoordinates,Original*%
%TF.FileFunction,Soldermask,Bot*%
%TF.FilePolarity,Negative*%
%FSLAX46Y46*%
G04 Gerber Fmt 4.6, Leading zero omitted, Abs format (unit mm)*
G04 Created by KiCad (PCBNEW 9.0.7+1) date 2026-03-12 10:37:44*
%MOMM*%
%LPD*%
G01*
G04 APERTURE LIST*
G04 Aperture macros list*
%AMRoundRect*
0 Rectangle with rounded corners*
0 $1 Rounding radius*
0 $2 $3 $4 $5 $6 $7 $8 $9 X,Y pos of 4 corners*
0 Add a 4 corners polygon primitive as box body*
4,1,4,$2,$3,$4,$5,$6,$7,$8,$9,$2,$3,0*
0 Add four circle primitives for the rounded corners*
1,1,$1+$1,$2,$3*
1,1,$1+$1,$4,$5*
1,1,$1+$1,$6,$7*
1,1,$1+$1,$8,$9*
0 Add four rect primitives between the rounded corners*
20,1,$1+$1,$2,$3,$4,$5,0*
20,1,$1+$1,$4,$5,$6,$7,0*
20,1,$1+$1,$6,$7,$8,$9,0*
20,1,$1+$1,$8,$9,$2,$3,0*%
G04 Aperture macros list end*
%ADD10C,6.400000*%
%ADD11C,1.924000*%
%ADD12RoundRect,0.200000X0.762000X-0.762000X0.762000X0.762000X-0.762000X0.762000X-0.762000X-0.762000X0*%
%ADD13RoundRect,0.200000X-0.762000X-0.762000X0.762000X-0.762000X0.762000X0.762000X-0.762000X0.762000X0*%
%ADD14RoundRect,0.200000X0.762000X0.762000X-0.762000X0.762000X-0.762000X-0.762000X0.762000X-0.762000X0*%
%ADD15RoundRect,0.200000X0.500000X-0.500000X0.500000X0.500000X-0.500000X0.500000X-0.500000X-0.500000X0*%
%ADD16RoundRect,0.200000X1.150000X-0.500000X1.150000X0.500000X-1.150000X0.500000X-1.150000X-0.500000X0*%
%ADD17RoundRect,0.200000X1.900000X-0.500000X1.900000X0.500000X-1.900000X0.500000X-1.900000X-0.500000X0*%
%ADD18RoundRect,0.200000X0.500000X-1.150000X0.500000X1.150000X-0.500000X1.150000X-0.500000X-1.150000X0*%
%ADD19RoundRect,0.200000X0.500000X-1.900000X0.500000X1.900000X-0.500000X1.900000X-0.500000X-1.900000X0*%
%ADD20RoundRect,0.200000X-0.500000X-0.500000X0.500000X-0.500000X0.500000X0.500000X-0.500000X0.500000X0*%
%ADD21RoundRect,0.200000X-0.500000X-1.150000X0.500000X-1.150000X0.500000X1.150000X-0.500000X1.150000X0*%
%ADD22RoundRect,0.200000X-0.500000X-1.900000X0.500000X-1.900000X0.500000X1.900000X-0.500000X1.900000X0*%
%ADD23RoundRect,0.200000X-1.150000X-0.500000X1.150000X-0.500000X1.150000X0.500000X-1.150000X0.500000X0*%
%ADD24RoundRect,0.200000X-1.900000X-0.500000X1.900000X-0.500000X1.900000X0.500000X-1.900000X0.500000X0*%
G04 APERTURE END LIST*
D10*
%TO.C,M4*%
X113934528Y-84421653D03*
%TD*%
%TO.C,M2*%
X168824527Y-84421653D03*
%TD*%
%TO.C,M1*%
X181744527Y-122521653D03*
%TD*%
%TO.C,M3*%
X96014527Y-125061654D03*
%TD*%
D11*
%TO.C,D1*%
X112524527Y-114221653D03*
X107524527Y-114221653D03*
%TD*%
D12*
%TO.C,J19*%
X154942527Y-119473653D03*
X154942527Y-116933653D03*
%TD*%
D13*
%TO.C,J6*%
X152402527Y-116933653D03*
%TD*%
%TO.C,J4*%
X149862527Y-116933653D03*
%TD*%
%TO.C,J7*%
X152402527Y-119473653D03*
%TD*%
D14*
%TO.C,J3*%
X162562527Y-116933653D03*
X162562527Y-119473653D03*
%TD*%
%TO.C,J2*%
X157482527Y-116933653D03*
X157482527Y-119473653D03*
%TD*%
D15*
%TO.C,M10*%
X131930527Y-114037654D03*
D16*
X133580527Y-114037654D03*
D17*
X138830527Y-114037654D03*
X144830527Y-114037654D03*
X150830527Y-114037654D03*
X156830527Y-114037654D03*
D16*
X162080527Y-114037654D03*
D15*
X163730527Y-114037654D03*
D18*
X131930527Y-112387654D03*
X163730527Y-112387654D03*
D19*
X131930527Y-107137654D03*
X163730527Y-107137654D03*
X131930527Y-101137654D03*
X163730527Y-101137654D03*
X131930527Y-95137654D03*
X163730527Y-95137654D03*
X131930527Y-89137654D03*
X163730527Y-89137654D03*
D18*
X131930527Y-83887654D03*
X163730527Y-83887654D03*
D15*
X131930527Y-82237654D03*
D16*
X133580527Y-82237654D03*
D17*
X138830527Y-82237654D03*
X144830527Y-82237654D03*
X150830527Y-82237654D03*
X156830527Y-82237654D03*
D16*
X162080527Y-82237654D03*
D15*
X163730527Y-82237654D03*
%TD*%
D20*
%TO.C,M8*%
X98567627Y-88346353D03*
D21*
X98567627Y-89996353D03*
D22*
X98567627Y-95246353D03*
X98567627Y-101246353D03*
X98567627Y-107246353D03*
X98567627Y-113246353D03*
D21*
X98567627Y-118496353D03*
D20*
X98567627Y-120146353D03*
D23*
X100217627Y-88346353D03*
X100217627Y-120146353D03*
D24*
X105467627Y-88346353D03*
X105467627Y-120146353D03*
X111467627Y-88346353D03*
X111467627Y-120146353D03*
X117467627Y-88346353D03*
X117467627Y-120146353D03*
X123467627Y-88346353D03*
X123467627Y-120146353D03*
D23*
X128717627Y-88346353D03*
X128717627Y-120146353D03*
D20*
X130367627Y-88346353D03*
D21*
X130367627Y-89996353D03*
D22*
X130367627Y-95246353D03*
X130367627Y-101246353D03*
X130367627Y-107246353D03*
X130367627Y-113246353D03*
D21*
X130367627Y-118496353D03*
D20*
X130367627Y-120146353D03*
%TD*%
D13*
%TO.C,J5*%
X149862527Y-119473653D03*
%TD*%
%TO.C,J1*%
X160022527Y-119473653D03*
X160022527Y-116933653D03*
%TD*%
G36*
X98242648Y-120237655D02*
G01*
X98289141Y-120291311D01*
X98300527Y-120343653D01*
X98300527Y-120471653D01*
X130558527Y-120471653D01*
X130558527Y-120343653D01*
X130578529Y-120275532D01*
X130632185Y-120229039D01*
X130684527Y-120217653D01*
X130922116Y-120217653D01*
X130946697Y-120220074D01*
X131007147Y-120232098D01*
X131052567Y-120250911D01*
X131093292Y-120278122D01*
X131128057Y-120312887D01*
X131155268Y-120353612D01*
X131174081Y-120399031D01*
X131185955Y-120458723D01*
X131188363Y-120485081D01*
X131070474Y-128847429D01*
X131049514Y-128915261D01*
X130995208Y-128960993D01*
X130944487Y-128971653D01*
X97407153Y-128971653D01*
X97339032Y-128951651D01*
X97292539Y-128897995D01*
X97281162Y-128847167D01*
X97180694Y-120487113D01*
X97182819Y-120462505D01*
X97194115Y-120401918D01*
X97212383Y-120356273D01*
X97239105Y-120315222D01*
X97273448Y-120280044D01*
X97313844Y-120252345D01*
X97359034Y-120232987D01*
X97418669Y-120220378D01*
X97444734Y-120217653D01*
X98174527Y-120217653D01*
X98242648Y-120237655D01*
G37*
G36*
X98126648Y-116699655D02*
G01*
X98173141Y-116753311D01*
X98184527Y-116805653D01*
X98184527Y-116933654D01*
X98188682Y-116937809D01*
X98242648Y-116953655D01*
X98289141Y-117007311D01*
X98300527Y-117059653D01*
X98300527Y-120471653D01*
X98428527Y-120471653D01*
X98496648Y-120491655D01*
X98543141Y-120545311D01*
X98554527Y-120597653D01*
X98554528Y-128845653D01*
X98534526Y-128913774D01*
X98480870Y-128960267D01*
X98428528Y-128971653D01*
X94435580Y-128971653D01*
X94433458Y-128971635D01*
X94299602Y-128969380D01*
X94283794Y-128968116D01*
X94017740Y-128929867D01*
X94000172Y-128926045D01*
X93743305Y-128850623D01*
X93726461Y-128844341D01*
X93482933Y-128733127D01*
X93467154Y-128724511D01*
X93241935Y-128579771D01*
X93227543Y-128568997D01*
X93025218Y-128393680D01*
X93012506Y-128380968D01*
X92837191Y-128178641D01*
X92826417Y-128164249D01*
X92681676Y-127939023D01*
X92673061Y-127923244D01*
X92561853Y-127679725D01*
X92555570Y-127662880D01*
X92480149Y-127406002D01*
X92476328Y-127388435D01*
X92459809Y-127273524D01*
X92458527Y-127255595D01*
X92458527Y-119688133D01*
X92459810Y-119670199D01*
X92476391Y-119554891D01*
X92480213Y-119537324D01*
X92555637Y-119280475D01*
X92561919Y-119263632D01*
X92673134Y-119020117D01*
X92681750Y-119004338D01*
X92826487Y-118779133D01*
X92837261Y-118764742D01*
X93012569Y-118562433D01*
X93025281Y-118549721D01*
X93227604Y-118374414D01*
X93241996Y-118363641D01*
X93467204Y-118218914D01*
X93482982Y-118210299D01*
X93726491Y-118099096D01*
X93743336Y-118092813D01*
X94000199Y-118017396D01*
X94017765Y-118013575D01*
X94283863Y-117975320D01*
X94299548Y-117974058D01*
X94434359Y-117971656D01*
X94434526Y-117971653D01*
X94577405Y-117969296D01*
X94860220Y-117928630D01*
X94860226Y-117928629D01*
X95134397Y-117848121D01*
X95134403Y-117848119D01*
X95394322Y-117729412D01*
X95634704Y-117574922D01*
X95850649Y-117387798D01*
X96037766Y-117171846D01*
X96192243Y-116931464D01*
X96192247Y-116931458D01*
X96273600Y-116753313D01*
X96320092Y-116699656D01*
X96388213Y-116679653D01*
X98058527Y-116679653D01*
X98126648Y-116699655D01*
G37*
G36*
X98196697Y-86970074D02*
G01*
X98257147Y-86982098D01*
X98302567Y-87000911D01*
X98343292Y-87028122D01*
X98378057Y-87062887D01*
X98405268Y-87103612D01*
X98424081Y-87149031D01*
X98436106Y-87209482D01*
X98438527Y-87234064D01*
X98438527Y-88095653D01*
X98418525Y-88163774D01*
X98364869Y-88210267D01*
X98312527Y-88221653D01*
X98184527Y-88221653D01*
X98184527Y-116933654D01*
X98188682Y-116937809D01*
X98242648Y-116953655D01*
X98289141Y-117007311D01*
X98300527Y-117059653D01*
X98300527Y-120471653D01*
X98312527Y-120471653D01*
X98380648Y-120491655D01*
X98427141Y-120545311D01*
X98438527Y-120597653D01*
X98438527Y-121209241D01*
X98436106Y-121233823D01*
X98424081Y-121294274D01*
X98405268Y-121339693D01*
X98378057Y-121380418D01*
X98343292Y-121415183D01*
X98302567Y-121442394D01*
X98257149Y-121461207D01*
X98196699Y-121473232D01*
X98172116Y-121475653D01*
X96196938Y-121475653D01*
X96172356Y-121473232D01*
X96111905Y-121461207D01*
X96066486Y-121442394D01*
X96025761Y-121415183D01*
X95990996Y-121380418D01*
X95963785Y-121339693D01*
X95944972Y-121294272D01*
X95932948Y-121233821D01*
X95930527Y-121209241D01*
X95930527Y-117342605D01*
X95950529Y-117274484D01*
X95961302Y-117260094D01*
X96037762Y-117171851D01*
X96037768Y-117171844D01*
X96192243Y-116931464D01*
X96192247Y-116931458D01*
X96310945Y-116671532D01*
X96391443Y-116397361D01*
X96432103Y-116114523D01*
X96432103Y-116114521D01*
X96434527Y-115971646D01*
X96434527Y-87093653D01*
X96454529Y-87025532D01*
X96508185Y-86979039D01*
X96560527Y-86967653D01*
X98172116Y-86967653D01*
X98196697Y-86970074D01*
G37*
G36*
X131880648Y-80831655D02*
G01*
X131927141Y-80885311D01*
X131938527Y-80937653D01*
X131938527Y-82095653D01*
X131918525Y-82163774D01*
X131864869Y-82210267D01*
X131812527Y-82221653D01*
X131684527Y-82221653D01*
X131684527Y-88095653D01*
X131664525Y-88163774D01*
X131610869Y-88210267D01*
X131558527Y-88221653D01*
X98184527Y-88221653D01*
X98184527Y-88349653D01*
X98164525Y-88417774D01*
X98110869Y-88464267D01*
X98058527Y-88475653D01*
X96560527Y-88475653D01*
X96492406Y-88455651D01*
X96445913Y-88401995D01*
X96434527Y-88349653D01*
X96434527Y-82812741D01*
X96434546Y-82810557D01*
X96436866Y-82676705D01*
X96438130Y-82660954D01*
X96476391Y-82394890D01*
X96480213Y-82377324D01*
X96555637Y-82120475D01*
X96561919Y-82103632D01*
X96673134Y-81860117D01*
X96681750Y-81844338D01*
X96826487Y-81619133D01*
X96837261Y-81604742D01*
X97012569Y-81402433D01*
X97025281Y-81389721D01*
X97227604Y-81214414D01*
X97241996Y-81203641D01*
X97467204Y-81058914D01*
X97482982Y-81050299D01*
X97726491Y-80939096D01*
X97743336Y-80932813D01*
X98000199Y-80857396D01*
X98017765Y-80853575D01*
X98283863Y-80815320D01*
X98299548Y-80814058D01*
X98433405Y-80811673D01*
X98435650Y-80811653D01*
X131812527Y-80811653D01*
X131880648Y-80831655D01*
G37*
G36*
X164880648Y-80831655D02*
G01*
X164927141Y-80885311D01*
X164938527Y-80937653D01*
X164938527Y-82209241D01*
X164936106Y-82233823D01*
X164924081Y-82294274D01*
X164905268Y-82339693D01*
X164878057Y-82380418D01*
X164843292Y-82415183D01*
X164802567Y-82442394D01*
X164757149Y-82461207D01*
X164696699Y-82473232D01*
X164672116Y-82475653D01*
X164205212Y-82475653D01*
X164137091Y-82455651D01*
X164090598Y-82401995D01*
X164079213Y-82349123D01*
X164079750Y-82221653D01*
X131684526Y-82221653D01*
X131683547Y-82222631D01*
X131664525Y-82287417D01*
X131610869Y-82333910D01*
X131540595Y-82344014D01*
X131476015Y-82314520D01*
X131437631Y-82254794D01*
X131434948Y-82243877D01*
X131432948Y-82233822D01*
X131430527Y-82209241D01*
X131430527Y-80937653D01*
X131450529Y-80869532D01*
X131504185Y-80823039D01*
X131556527Y-80811653D01*
X164812527Y-80811653D01*
X164880648Y-80831655D01*
G37*
G36*
X179035640Y-80811673D02*
G01*
X179169518Y-80814080D01*
X179185186Y-80815343D01*
X179451274Y-80853604D01*
X179468840Y-80857425D01*
X179725693Y-80932845D01*
X179742537Y-80939128D01*
X179986042Y-81050334D01*
X180001820Y-81058949D01*
X180227020Y-81203677D01*
X180241411Y-81214450D01*
X180443722Y-81389753D01*
X180456434Y-81402465D01*
X180631739Y-81604774D01*
X180642512Y-81619165D01*
X180787239Y-81844361D01*
X180795855Y-81860139D01*
X180907064Y-82103642D01*
X180913347Y-82120486D01*
X180988771Y-82377341D01*
X180992592Y-82394907D01*
X181030854Y-82660989D01*
X181032117Y-82676674D01*
X181034507Y-82810533D01*
X181034527Y-82812782D01*
X181034527Y-111971628D01*
X181036971Y-112114520D01*
X181077628Y-112397346D01*
X181158129Y-112671522D01*
X181276821Y-112931432D01*
X181276825Y-112931438D01*
X181431303Y-113171816D01*
X181618421Y-113387765D01*
X181834368Y-113574885D01*
X182074740Y-113729363D01*
X182074744Y-113729365D01*
X182318173Y-113840534D01*
X182354926Y-113866053D01*
X182374526Y-113885653D01*
X182444564Y-113885653D01*
X182480059Y-113890756D01*
X182538022Y-113907774D01*
X182597750Y-113946156D01*
X182627244Y-114010736D01*
X182628527Y-114028671D01*
X182628527Y-116667241D01*
X182626106Y-116691823D01*
X182614081Y-116752274D01*
X182595268Y-116797693D01*
X182568057Y-116838418D01*
X182533291Y-116873183D01*
X182492504Y-116900435D01*
X182447228Y-116919220D01*
X182387206Y-116931231D01*
X182362769Y-116933680D01*
X163947517Y-116975623D01*
X163922932Y-116973258D01*
X163862453Y-116961372D01*
X163816987Y-116942661D01*
X163776202Y-116915543D01*
X163741360Y-116880859D01*
X163714056Y-116840196D01*
X163695139Y-116794818D01*
X163683053Y-116734771D01*
X163680577Y-116709379D01*
X163691935Y-114011123D01*
X163712224Y-113943087D01*
X163766075Y-113896820D01*
X163817934Y-113885653D01*
X163946466Y-113885653D01*
X163946466Y-113885652D01*
X164079749Y-82221653D01*
X163952279Y-82221653D01*
X163884158Y-82201651D01*
X163837665Y-82147995D01*
X163826280Y-82095123D01*
X163831155Y-80937123D01*
X163851444Y-80869087D01*
X163905295Y-80822820D01*
X163957154Y-80811653D01*
X179033375Y-80811653D01*
X179035640Y-80811673D01*
G37*
G36*
X181953824Y-113651655D02*
G01*
X182074740Y-113729363D01*
X182074744Y-113729365D01*
X182318173Y-113840534D01*
X182354926Y-113866053D01*
X182374526Y-113885653D01*
X182444564Y-113885653D01*
X182480061Y-113890757D01*
X182608816Y-113928561D01*
X182608828Y-113928564D01*
X182891664Y-113969227D01*
X182891662Y-113969227D01*
X183034537Y-113971653D01*
X183933373Y-113971653D01*
X183935639Y-113971673D01*
X184069518Y-113974081D01*
X184085185Y-113975344D01*
X184351273Y-114013604D01*
X184368839Y-114017425D01*
X184625695Y-114092846D01*
X184642539Y-114099129D01*
X184886038Y-114210333D01*
X184901816Y-114218948D01*
X185127019Y-114363677D01*
X185141410Y-114374450D01*
X185343721Y-114549753D01*
X185356433Y-114562465D01*
X185531738Y-114764774D01*
X185542511Y-114779165D01*
X185687238Y-115004361D01*
X185695854Y-115020139D01*
X185807063Y-115263642D01*
X185813346Y-115280486D01*
X185888770Y-115537342D01*
X185892591Y-115554908D01*
X185930853Y-115820989D01*
X185932116Y-115836673D01*
X185934507Y-115970532D01*
X185934527Y-115972782D01*
X185934527Y-123370536D01*
X185934508Y-123372739D01*
X185932167Y-123506618D01*
X185930904Y-123522344D01*
X185892653Y-123788427D01*
X185888832Y-123805994D01*
X185813416Y-124062858D01*
X185807134Y-124079702D01*
X185695926Y-124323226D01*
X185687310Y-124339005D01*
X185542582Y-124564216D01*
X185531809Y-124578608D01*
X185356497Y-124780936D01*
X185343785Y-124793648D01*
X185141471Y-124968961D01*
X185127080Y-124979735D01*
X184901866Y-125124477D01*
X184886087Y-125133093D01*
X184642574Y-125244306D01*
X184625730Y-125250589D01*
X184368860Y-125326017D01*
X184351294Y-125329838D01*
X184085253Y-125368093D01*
X184069462Y-125369358D01*
X183935587Y-125371635D01*
X183933444Y-125371653D01*
X160934516Y-125371653D01*
X160816661Y-125374036D01*
X160816651Y-125374037D01*
X160583826Y-125410908D01*
X160359628Y-125483750D01*
X160359620Y-125483754D01*
X160149584Y-125590767D01*
X159958871Y-125729321D01*
X159792172Y-125896010D01*
X159653603Y-126086722D01*
X159546579Y-126296756D01*
X159546578Y-126296759D01*
X159473725Y-126520957D01*
X159436843Y-126753782D01*
X159436842Y-126753786D01*
X159434527Y-126871668D01*
X159434527Y-127470434D01*
X159434504Y-127472852D01*
X159432431Y-127580836D01*
X159430903Y-127598124D01*
X159396943Y-127812587D01*
X159392328Y-127831814D01*
X159325610Y-128037169D01*
X159318045Y-128055436D01*
X159220024Y-128247827D01*
X159209693Y-128264685D01*
X159082780Y-128439375D01*
X159069940Y-128454410D01*
X158917263Y-128607095D01*
X158902228Y-128619937D01*
X158727548Y-128746855D01*
X158710690Y-128757186D01*
X158518308Y-128855215D01*
X158500042Y-128862781D01*
X158294686Y-128929510D01*
X158275460Y-128934126D01*
X158061036Y-128968091D01*
X158043668Y-128969621D01*
X157935709Y-128971631D01*
X157933364Y-128971653D01*
X130430527Y-128971653D01*
X130362406Y-128951651D01*
X130315913Y-128897995D01*
X130304527Y-128845653D01*
X130304527Y-120597653D01*
X130324529Y-120529532D01*
X130378185Y-120483039D01*
X130430527Y-120471653D01*
X130558527Y-120471653D01*
X130558527Y-114011653D01*
X130578529Y-113943532D01*
X130632185Y-113897039D01*
X130684527Y-113885653D01*
X163946466Y-113885653D01*
X163947007Y-113757123D01*
X163967296Y-113689087D01*
X164021147Y-113642820D01*
X164073006Y-113631653D01*
X181885703Y-113631653D01*
X181953824Y-113651655D01*
G37*
M02*
