%TF.GenerationSoftware,KiCad,Pcbnew,9.0.7+1*%
%TF.CreationDate,2026-03-29T01:48:46+00:00*%
%TF.ProjectId,SPACEDOS01,53504143-4544-44f5-9330-312e6b696361,B*%
%TF.SameCoordinates,Original*%
%TF.FileFunction,Legend,Top*%
%TF.FilePolarity,Positive*%
%FSLAX46Y46*%
G04 Gerber Fmt 4.6, Leading zero omitted, Abs format (unit mm)*
G04 Created by KiCad (PCBNEW 9.0.7+1) date 2026-03-29 01:48:46*
%MOMM*%
%LPD*%
G01*
G04 APERTURE LIST*
%ADD10C,0.050000*%
%ADD11C,0.150000*%
%ADD12C,0.127000*%
%ADD13C,0.304800*%
%ADD14C,0.120000*%
%ADD15C,0.100000*%
G04 APERTURE END LIST*
D10*
X146360484Y-99649062D02*
X146074770Y-99649062D01*
X146217627Y-99649062D02*
X146217627Y-99149062D01*
X146217627Y-99149062D02*
X146170008Y-99220491D01*
X146170008Y-99220491D02*
X146122389Y-99268110D01*
X146122389Y-99268110D02*
X146074770Y-99291919D01*
D11*
X100033346Y-94681176D02*
X99033346Y-94681176D01*
X99033346Y-94681176D02*
X99747631Y-94347843D01*
X99747631Y-94347843D02*
X99033346Y-94014510D01*
X99033346Y-94014510D02*
X100033346Y-94014510D01*
X99033346Y-93109748D02*
X99033346Y-93300224D01*
X99033346Y-93300224D02*
X99080965Y-93395462D01*
X99080965Y-93395462D02*
X99128584Y-93443081D01*
X99128584Y-93443081D02*
X99271441Y-93538319D01*
X99271441Y-93538319D02*
X99461917Y-93585938D01*
X99461917Y-93585938D02*
X99842869Y-93585938D01*
X99842869Y-93585938D02*
X99938107Y-93538319D01*
X99938107Y-93538319D02*
X99985727Y-93490700D01*
X99985727Y-93490700D02*
X100033346Y-93395462D01*
X100033346Y-93395462D02*
X100033346Y-93204986D01*
X100033346Y-93204986D02*
X99985727Y-93109748D01*
X99985727Y-93109748D02*
X99938107Y-93062129D01*
X99938107Y-93062129D02*
X99842869Y-93014510D01*
X99842869Y-93014510D02*
X99604774Y-93014510D01*
X99604774Y-93014510D02*
X99509536Y-93062129D01*
X99509536Y-93062129D02*
X99461917Y-93109748D01*
X99461917Y-93109748D02*
X99414298Y-93204986D01*
X99414298Y-93204986D02*
X99414298Y-93395462D01*
X99414298Y-93395462D02*
X99461917Y-93490700D01*
X99461917Y-93490700D02*
X99509536Y-93538319D01*
X99509536Y-93538319D02*
X99604774Y-93585938D01*
X135090819Y-100329904D02*
X135900342Y-100329904D01*
X135900342Y-100329904D02*
X135995580Y-100282285D01*
X135995580Y-100282285D02*
X136043200Y-100234666D01*
X136043200Y-100234666D02*
X136090819Y-100139428D01*
X136090819Y-100139428D02*
X136090819Y-99948952D01*
X136090819Y-99948952D02*
X136043200Y-99853714D01*
X136043200Y-99853714D02*
X135995580Y-99806095D01*
X135995580Y-99806095D02*
X135900342Y-99758476D01*
X135900342Y-99758476D02*
X135090819Y-99758476D01*
X135090819Y-98806095D02*
X135090819Y-99282285D01*
X135090819Y-99282285D02*
X135567009Y-99329904D01*
X135567009Y-99329904D02*
X135519390Y-99282285D01*
X135519390Y-99282285D02*
X135471771Y-99187047D01*
X135471771Y-99187047D02*
X135471771Y-98948952D01*
X135471771Y-98948952D02*
X135519390Y-98853714D01*
X135519390Y-98853714D02*
X135567009Y-98806095D01*
X135567009Y-98806095D02*
X135662247Y-98758476D01*
X135662247Y-98758476D02*
X135900342Y-98758476D01*
X135900342Y-98758476D02*
X135995580Y-98806095D01*
X135995580Y-98806095D02*
X136043200Y-98853714D01*
X136043200Y-98853714D02*
X136090819Y-98948952D01*
X136090819Y-98948952D02*
X136090819Y-99187047D01*
X136090819Y-99187047D02*
X136043200Y-99282285D01*
X136043200Y-99282285D02*
X135995580Y-99329904D01*
X133566819Y-115569904D02*
X134376342Y-115569904D01*
X134376342Y-115569904D02*
X134471580Y-115522285D01*
X134471580Y-115522285D02*
X134519200Y-115474666D01*
X134519200Y-115474666D02*
X134566819Y-115379428D01*
X134566819Y-115379428D02*
X134566819Y-115188952D01*
X134566819Y-115188952D02*
X134519200Y-115093714D01*
X134519200Y-115093714D02*
X134471580Y-115046095D01*
X134471580Y-115046095D02*
X134376342Y-114998476D01*
X134376342Y-114998476D02*
X133566819Y-114998476D01*
X133900152Y-114093714D02*
X134566819Y-114093714D01*
X133519200Y-114331809D02*
X134233485Y-114569904D01*
X134233485Y-114569904D02*
X134233485Y-113950857D01*
X152685905Y-99530819D02*
X152685905Y-100340342D01*
X152685905Y-100340342D02*
X152733524Y-100435580D01*
X152733524Y-100435580D02*
X152781143Y-100483200D01*
X152781143Y-100483200D02*
X152876381Y-100530819D01*
X152876381Y-100530819D02*
X153066857Y-100530819D01*
X153066857Y-100530819D02*
X153162095Y-100483200D01*
X153162095Y-100483200D02*
X153209714Y-100435580D01*
X153209714Y-100435580D02*
X153257333Y-100340342D01*
X153257333Y-100340342D02*
X153257333Y-99530819D01*
X154257333Y-100530819D02*
X153685905Y-100530819D01*
X153971619Y-100530819D02*
X153971619Y-99530819D01*
X153971619Y-99530819D02*
X153876381Y-99673676D01*
X153876381Y-99673676D02*
X153781143Y-99768914D01*
X153781143Y-99768914D02*
X153685905Y-99816533D01*
X154876381Y-99530819D02*
X154971619Y-99530819D01*
X154971619Y-99530819D02*
X155066857Y-99578438D01*
X155066857Y-99578438D02*
X155114476Y-99626057D01*
X155114476Y-99626057D02*
X155162095Y-99721295D01*
X155162095Y-99721295D02*
X155209714Y-99911771D01*
X155209714Y-99911771D02*
X155209714Y-100149866D01*
X155209714Y-100149866D02*
X155162095Y-100340342D01*
X155162095Y-100340342D02*
X155114476Y-100435580D01*
X155114476Y-100435580D02*
X155066857Y-100483200D01*
X155066857Y-100483200D02*
X154971619Y-100530819D01*
X154971619Y-100530819D02*
X154876381Y-100530819D01*
X154876381Y-100530819D02*
X154781143Y-100483200D01*
X154781143Y-100483200D02*
X154733524Y-100435580D01*
X154733524Y-100435580D02*
X154685905Y-100340342D01*
X154685905Y-100340342D02*
X154638286Y-100149866D01*
X154638286Y-100149866D02*
X154638286Y-99911771D01*
X154638286Y-99911771D02*
X154685905Y-99721295D01*
X154685905Y-99721295D02*
X154733524Y-99626057D01*
X154733524Y-99626057D02*
X154781143Y-99578438D01*
X154781143Y-99578438D02*
X154876381Y-99530819D01*
X129286095Y-100546819D02*
X129286095Y-101356342D01*
X129286095Y-101356342D02*
X129333714Y-101451580D01*
X129333714Y-101451580D02*
X129381333Y-101499200D01*
X129381333Y-101499200D02*
X129476571Y-101546819D01*
X129476571Y-101546819D02*
X129667047Y-101546819D01*
X129667047Y-101546819D02*
X129762285Y-101499200D01*
X129762285Y-101499200D02*
X129809904Y-101451580D01*
X129809904Y-101451580D02*
X129857523Y-101356342D01*
X129857523Y-101356342D02*
X129857523Y-100546819D01*
X130286095Y-100642057D02*
X130333714Y-100594438D01*
X130333714Y-100594438D02*
X130428952Y-100546819D01*
X130428952Y-100546819D02*
X130667047Y-100546819D01*
X130667047Y-100546819D02*
X130762285Y-100594438D01*
X130762285Y-100594438D02*
X130809904Y-100642057D01*
X130809904Y-100642057D02*
X130857523Y-100737295D01*
X130857523Y-100737295D02*
X130857523Y-100832533D01*
X130857523Y-100832533D02*
X130809904Y-100975390D01*
X130809904Y-100975390D02*
X130238476Y-101546819D01*
X130238476Y-101546819D02*
X130857523Y-101546819D01*
X109474095Y-102578819D02*
X109474095Y-103388342D01*
X109474095Y-103388342D02*
X109521714Y-103483580D01*
X109521714Y-103483580D02*
X109569333Y-103531200D01*
X109569333Y-103531200D02*
X109664571Y-103578819D01*
X109664571Y-103578819D02*
X109855047Y-103578819D01*
X109855047Y-103578819D02*
X109950285Y-103531200D01*
X109950285Y-103531200D02*
X109997904Y-103483580D01*
X109997904Y-103483580D02*
X110045523Y-103388342D01*
X110045523Y-103388342D02*
X110045523Y-102578819D01*
X111045523Y-103578819D02*
X110474095Y-103578819D01*
X110759809Y-103578819D02*
X110759809Y-102578819D01*
X110759809Y-102578819D02*
X110664571Y-102721676D01*
X110664571Y-102721676D02*
X110569333Y-102816914D01*
X110569333Y-102816914D02*
X110474095Y-102864533D01*
X165062819Y-98774094D02*
X165872342Y-98774094D01*
X165872342Y-98774094D02*
X165967580Y-98726475D01*
X165967580Y-98726475D02*
X166015200Y-98678856D01*
X166015200Y-98678856D02*
X166062819Y-98583618D01*
X166062819Y-98583618D02*
X166062819Y-98393142D01*
X166062819Y-98393142D02*
X166015200Y-98297904D01*
X166015200Y-98297904D02*
X165967580Y-98250285D01*
X165967580Y-98250285D02*
X165872342Y-98202666D01*
X165872342Y-98202666D02*
X165062819Y-98202666D01*
X166062819Y-97202666D02*
X166062819Y-97774094D01*
X166062819Y-97488380D02*
X165062819Y-97488380D01*
X165062819Y-97488380D02*
X165205676Y-97583618D01*
X165205676Y-97583618D02*
X165300914Y-97678856D01*
X165300914Y-97678856D02*
X165348533Y-97774094D01*
X166062819Y-96250285D02*
X166062819Y-96821713D01*
X166062819Y-96535999D02*
X165062819Y-96535999D01*
X165062819Y-96535999D02*
X165205676Y-96631237D01*
X165205676Y-96631237D02*
X165300914Y-96726475D01*
X165300914Y-96726475D02*
X165348533Y-96821713D01*
D12*
X173609000Y-106517911D02*
X173246143Y-106517911D01*
X173246143Y-106517911D02*
X173246143Y-105755911D01*
X174262143Y-106517911D02*
X173826714Y-106517911D01*
X174044429Y-106517911D02*
X174044429Y-105755911D01*
X174044429Y-105755911D02*
X173971857Y-105864768D01*
X173971857Y-105864768D02*
X173899286Y-105937340D01*
X173899286Y-105937340D02*
X173826714Y-105973626D01*
D11*
X151854819Y-92709904D02*
X152664342Y-92709904D01*
X152664342Y-92709904D02*
X152759580Y-92662285D01*
X152759580Y-92662285D02*
X152807200Y-92614666D01*
X152807200Y-92614666D02*
X152854819Y-92519428D01*
X152854819Y-92519428D02*
X152854819Y-92328952D01*
X152854819Y-92328952D02*
X152807200Y-92233714D01*
X152807200Y-92233714D02*
X152759580Y-92186095D01*
X152759580Y-92186095D02*
X152664342Y-92138476D01*
X152664342Y-92138476D02*
X151854819Y-92138476D01*
X152283390Y-91519428D02*
X152235771Y-91614666D01*
X152235771Y-91614666D02*
X152188152Y-91662285D01*
X152188152Y-91662285D02*
X152092914Y-91709904D01*
X152092914Y-91709904D02*
X152045295Y-91709904D01*
X152045295Y-91709904D02*
X151950057Y-91662285D01*
X151950057Y-91662285D02*
X151902438Y-91614666D01*
X151902438Y-91614666D02*
X151854819Y-91519428D01*
X151854819Y-91519428D02*
X151854819Y-91328952D01*
X151854819Y-91328952D02*
X151902438Y-91233714D01*
X151902438Y-91233714D02*
X151950057Y-91186095D01*
X151950057Y-91186095D02*
X152045295Y-91138476D01*
X152045295Y-91138476D02*
X152092914Y-91138476D01*
X152092914Y-91138476D02*
X152188152Y-91186095D01*
X152188152Y-91186095D02*
X152235771Y-91233714D01*
X152235771Y-91233714D02*
X152283390Y-91328952D01*
X152283390Y-91328952D02*
X152283390Y-91519428D01*
X152283390Y-91519428D02*
X152331009Y-91614666D01*
X152331009Y-91614666D02*
X152378628Y-91662285D01*
X152378628Y-91662285D02*
X152473866Y-91709904D01*
X152473866Y-91709904D02*
X152664342Y-91709904D01*
X152664342Y-91709904D02*
X152759580Y-91662285D01*
X152759580Y-91662285D02*
X152807200Y-91614666D01*
X152807200Y-91614666D02*
X152854819Y-91519428D01*
X152854819Y-91519428D02*
X152854819Y-91328952D01*
X152854819Y-91328952D02*
X152807200Y-91233714D01*
X152807200Y-91233714D02*
X152759580Y-91186095D01*
X152759580Y-91186095D02*
X152664342Y-91138476D01*
X152664342Y-91138476D02*
X152473866Y-91138476D01*
X152473866Y-91138476D02*
X152378628Y-91186095D01*
X152378628Y-91186095D02*
X152331009Y-91233714D01*
X152331009Y-91233714D02*
X152283390Y-91328952D01*
X167586819Y-114115747D02*
X166586819Y-114115747D01*
X166586819Y-114115747D02*
X166586819Y-113877652D01*
X166586819Y-113877652D02*
X166634438Y-113734795D01*
X166634438Y-113734795D02*
X166729676Y-113639557D01*
X166729676Y-113639557D02*
X166824914Y-113591938D01*
X166824914Y-113591938D02*
X167015390Y-113544319D01*
X167015390Y-113544319D02*
X167158247Y-113544319D01*
X167158247Y-113544319D02*
X167348723Y-113591938D01*
X167348723Y-113591938D02*
X167443961Y-113639557D01*
X167443961Y-113639557D02*
X167539200Y-113734795D01*
X167539200Y-113734795D02*
X167586819Y-113877652D01*
X167586819Y-113877652D02*
X167586819Y-114115747D01*
X166586819Y-113210985D02*
X166586819Y-112591938D01*
X166586819Y-112591938D02*
X166967771Y-112925271D01*
X166967771Y-112925271D02*
X166967771Y-112782414D01*
X166967771Y-112782414D02*
X167015390Y-112687176D01*
X167015390Y-112687176D02*
X167063009Y-112639557D01*
X167063009Y-112639557D02*
X167158247Y-112591938D01*
X167158247Y-112591938D02*
X167396342Y-112591938D01*
X167396342Y-112591938D02*
X167491580Y-112639557D01*
X167491580Y-112639557D02*
X167539200Y-112687176D01*
X167539200Y-112687176D02*
X167586819Y-112782414D01*
X167586819Y-112782414D02*
X167586819Y-113068128D01*
X167586819Y-113068128D02*
X167539200Y-113163366D01*
X167539200Y-113163366D02*
X167491580Y-113210985D01*
X154378819Y-97043319D02*
X154378819Y-97519509D01*
X154378819Y-97519509D02*
X153378819Y-97519509D01*
X153378819Y-96805223D02*
X153378819Y-96186176D01*
X153378819Y-96186176D02*
X153759771Y-96519509D01*
X153759771Y-96519509D02*
X153759771Y-96376652D01*
X153759771Y-96376652D02*
X153807390Y-96281414D01*
X153807390Y-96281414D02*
X153855009Y-96233795D01*
X153855009Y-96233795D02*
X153950247Y-96186176D01*
X153950247Y-96186176D02*
X154188342Y-96186176D01*
X154188342Y-96186176D02*
X154283580Y-96233795D01*
X154283580Y-96233795D02*
X154331200Y-96281414D01*
X154331200Y-96281414D02*
X154378819Y-96376652D01*
X154378819Y-96376652D02*
X154378819Y-96662366D01*
X154378819Y-96662366D02*
X154331200Y-96757604D01*
X154331200Y-96757604D02*
X154283580Y-96805223D01*
X111506095Y-95466819D02*
X111506095Y-96276342D01*
X111506095Y-96276342D02*
X111553714Y-96371580D01*
X111553714Y-96371580D02*
X111601333Y-96419200D01*
X111601333Y-96419200D02*
X111696571Y-96466819D01*
X111696571Y-96466819D02*
X111887047Y-96466819D01*
X111887047Y-96466819D02*
X111982285Y-96419200D01*
X111982285Y-96419200D02*
X112029904Y-96371580D01*
X112029904Y-96371580D02*
X112077523Y-96276342D01*
X112077523Y-96276342D02*
X112077523Y-95466819D01*
X112458476Y-95466819D02*
X113077523Y-95466819D01*
X113077523Y-95466819D02*
X112744190Y-95847771D01*
X112744190Y-95847771D02*
X112887047Y-95847771D01*
X112887047Y-95847771D02*
X112982285Y-95895390D01*
X112982285Y-95895390D02*
X113029904Y-95943009D01*
X113029904Y-95943009D02*
X113077523Y-96038247D01*
X113077523Y-96038247D02*
X113077523Y-96276342D01*
X113077523Y-96276342D02*
X113029904Y-96371580D01*
X113029904Y-96371580D02*
X112982285Y-96419200D01*
X112982285Y-96419200D02*
X112887047Y-96466819D01*
X112887047Y-96466819D02*
X112601333Y-96466819D01*
X112601333Y-96466819D02*
X112506095Y-96419200D01*
X112506095Y-96419200D02*
X112458476Y-96371580D01*
X140154819Y-110910666D02*
X139678628Y-111243999D01*
X140154819Y-111482094D02*
X139154819Y-111482094D01*
X139154819Y-111482094D02*
X139154819Y-111101142D01*
X139154819Y-111101142D02*
X139202438Y-111005904D01*
X139202438Y-111005904D02*
X139250057Y-110958285D01*
X139250057Y-110958285D02*
X139345295Y-110910666D01*
X139345295Y-110910666D02*
X139488152Y-110910666D01*
X139488152Y-110910666D02*
X139583390Y-110958285D01*
X139583390Y-110958285D02*
X139631009Y-111005904D01*
X139631009Y-111005904D02*
X139678628Y-111101142D01*
X139678628Y-111101142D02*
X139678628Y-111482094D01*
X140154819Y-109958285D02*
X140154819Y-110529713D01*
X140154819Y-110243999D02*
X139154819Y-110243999D01*
X139154819Y-110243999D02*
X139297676Y-110339237D01*
X139297676Y-110339237D02*
X139392914Y-110434475D01*
X139392914Y-110434475D02*
X139440533Y-110529713D01*
X157943003Y-92242473D02*
X157943003Y-91242473D01*
X157943003Y-91242473D02*
X158276336Y-91956758D01*
X158276336Y-91956758D02*
X158609669Y-91242473D01*
X158609669Y-91242473D02*
X158609669Y-92242473D01*
X159133479Y-92242473D02*
X159323955Y-92242473D01*
X159323955Y-92242473D02*
X159419193Y-92194854D01*
X159419193Y-92194854D02*
X159466812Y-92147234D01*
X159466812Y-92147234D02*
X159562050Y-92004377D01*
X159562050Y-92004377D02*
X159609669Y-91813901D01*
X159609669Y-91813901D02*
X159609669Y-91432949D01*
X159609669Y-91432949D02*
X159562050Y-91337711D01*
X159562050Y-91337711D02*
X159514431Y-91290092D01*
X159514431Y-91290092D02*
X159419193Y-91242473D01*
X159419193Y-91242473D02*
X159228717Y-91242473D01*
X159228717Y-91242473D02*
X159133479Y-91290092D01*
X159133479Y-91290092D02*
X159085860Y-91337711D01*
X159085860Y-91337711D02*
X159038241Y-91432949D01*
X159038241Y-91432949D02*
X159038241Y-91671044D01*
X159038241Y-91671044D02*
X159085860Y-91766282D01*
X159085860Y-91766282D02*
X159133479Y-91813901D01*
X159133479Y-91813901D02*
X159228717Y-91861520D01*
X159228717Y-91861520D02*
X159419193Y-91861520D01*
X159419193Y-91861520D02*
X159514431Y-91813901D01*
X159514431Y-91813901D02*
X159562050Y-91766282D01*
X159562050Y-91766282D02*
X159609669Y-91671044D01*
X102562819Y-115038094D02*
X101562819Y-115038094D01*
X101562819Y-115038094D02*
X101562819Y-114799999D01*
X101562819Y-114799999D02*
X101610438Y-114657142D01*
X101610438Y-114657142D02*
X101705676Y-114561904D01*
X101705676Y-114561904D02*
X101800914Y-114514285D01*
X101800914Y-114514285D02*
X101991390Y-114466666D01*
X101991390Y-114466666D02*
X102134247Y-114466666D01*
X102134247Y-114466666D02*
X102324723Y-114514285D01*
X102324723Y-114514285D02*
X102419961Y-114561904D01*
X102419961Y-114561904D02*
X102515200Y-114657142D01*
X102515200Y-114657142D02*
X102562819Y-114799999D01*
X102562819Y-114799999D02*
X102562819Y-115038094D01*
X102562819Y-113514285D02*
X102562819Y-114085713D01*
X102562819Y-113799999D02*
X101562819Y-113799999D01*
X101562819Y-113799999D02*
X101705676Y-113895237D01*
X101705676Y-113895237D02*
X101800914Y-113990475D01*
X101800914Y-113990475D02*
X101848533Y-114085713D01*
X112072622Y-112136472D02*
X112072622Y-111136472D01*
X112644050Y-112136472D02*
X112215479Y-111565043D01*
X112644050Y-111136472D02*
X112072622Y-111707900D01*
D13*
X124406627Y-98490391D02*
X124334055Y-98562963D01*
X124334055Y-98562963D02*
X124116341Y-98635534D01*
X124116341Y-98635534D02*
X123971198Y-98635534D01*
X123971198Y-98635534D02*
X123753484Y-98562963D01*
X123753484Y-98562963D02*
X123608341Y-98417820D01*
X123608341Y-98417820D02*
X123535770Y-98272677D01*
X123535770Y-98272677D02*
X123463198Y-97982391D01*
X123463198Y-97982391D02*
X123463198Y-97764677D01*
X123463198Y-97764677D02*
X123535770Y-97474391D01*
X123535770Y-97474391D02*
X123608341Y-97329248D01*
X123608341Y-97329248D02*
X123753484Y-97184105D01*
X123753484Y-97184105D02*
X123971198Y-97111534D01*
X123971198Y-97111534D02*
X124116341Y-97111534D01*
X124116341Y-97111534D02*
X124334055Y-97184105D01*
X124334055Y-97184105D02*
X124406627Y-97256677D01*
X125858055Y-98635534D02*
X124987198Y-98635534D01*
X125422627Y-98635534D02*
X125422627Y-97111534D01*
X125422627Y-97111534D02*
X125277484Y-97329248D01*
X125277484Y-97329248D02*
X125132341Y-97474391D01*
X125132341Y-97474391D02*
X124987198Y-97546963D01*
X129078776Y-97755123D02*
X130239919Y-97755123D01*
X129659347Y-98335694D02*
X129659347Y-97174551D01*
D11*
X169793669Y-120755580D02*
X169746050Y-120803200D01*
X169746050Y-120803200D02*
X169603193Y-120850819D01*
X169603193Y-120850819D02*
X169507955Y-120850819D01*
X169507955Y-120850819D02*
X169365098Y-120803200D01*
X169365098Y-120803200D02*
X169269860Y-120707961D01*
X169269860Y-120707961D02*
X169222241Y-120612723D01*
X169222241Y-120612723D02*
X169174622Y-120422247D01*
X169174622Y-120422247D02*
X169174622Y-120279390D01*
X169174622Y-120279390D02*
X169222241Y-120088914D01*
X169222241Y-120088914D02*
X169269860Y-119993676D01*
X169269860Y-119993676D02*
X169365098Y-119898438D01*
X169365098Y-119898438D02*
X169507955Y-119850819D01*
X169507955Y-119850819D02*
X169603193Y-119850819D01*
X169603193Y-119850819D02*
X169746050Y-119898438D01*
X169746050Y-119898438D02*
X169793669Y-119946057D01*
X170174622Y-119946057D02*
X170222241Y-119898438D01*
X170222241Y-119898438D02*
X170317479Y-119850819D01*
X170317479Y-119850819D02*
X170555574Y-119850819D01*
X170555574Y-119850819D02*
X170650812Y-119898438D01*
X170650812Y-119898438D02*
X170698431Y-119946057D01*
X170698431Y-119946057D02*
X170746050Y-120041295D01*
X170746050Y-120041295D02*
X170746050Y-120136533D01*
X170746050Y-120136533D02*
X170698431Y-120279390D01*
X170698431Y-120279390D02*
X170127003Y-120850819D01*
X170127003Y-120850819D02*
X170746050Y-120850819D01*
X171222241Y-120850819D02*
X171412717Y-120850819D01*
X171412717Y-120850819D02*
X171507955Y-120803200D01*
X171507955Y-120803200D02*
X171555574Y-120755580D01*
X171555574Y-120755580D02*
X171650812Y-120612723D01*
X171650812Y-120612723D02*
X171698431Y-120422247D01*
X171698431Y-120422247D02*
X171698431Y-120041295D01*
X171698431Y-120041295D02*
X171650812Y-119946057D01*
X171650812Y-119946057D02*
X171603193Y-119898438D01*
X171603193Y-119898438D02*
X171507955Y-119850819D01*
X171507955Y-119850819D02*
X171317479Y-119850819D01*
X171317479Y-119850819D02*
X171222241Y-119898438D01*
X171222241Y-119898438D02*
X171174622Y-119946057D01*
X171174622Y-119946057D02*
X171127003Y-120041295D01*
X171127003Y-120041295D02*
X171127003Y-120279390D01*
X171127003Y-120279390D02*
X171174622Y-120374628D01*
X171174622Y-120374628D02*
X171222241Y-120422247D01*
X171222241Y-120422247D02*
X171317479Y-120469866D01*
X171317479Y-120469866D02*
X171507955Y-120469866D01*
X171507955Y-120469866D02*
X171603193Y-120422247D01*
X171603193Y-120422247D02*
X171650812Y-120374628D01*
X171650812Y-120374628D02*
X171698431Y-120279390D01*
X145661142Y-94847580D02*
X145613523Y-94895200D01*
X145613523Y-94895200D02*
X145470666Y-94942819D01*
X145470666Y-94942819D02*
X145375428Y-94942819D01*
X145375428Y-94942819D02*
X145232571Y-94895200D01*
X145232571Y-94895200D02*
X145137333Y-94799961D01*
X145137333Y-94799961D02*
X145089714Y-94704723D01*
X145089714Y-94704723D02*
X145042095Y-94514247D01*
X145042095Y-94514247D02*
X145042095Y-94371390D01*
X145042095Y-94371390D02*
X145089714Y-94180914D01*
X145089714Y-94180914D02*
X145137333Y-94085676D01*
X145137333Y-94085676D02*
X145232571Y-93990438D01*
X145232571Y-93990438D02*
X145375428Y-93942819D01*
X145375428Y-93942819D02*
X145470666Y-93942819D01*
X145470666Y-93942819D02*
X145613523Y-93990438D01*
X145613523Y-93990438D02*
X145661142Y-94038057D01*
X146565904Y-93942819D02*
X146089714Y-93942819D01*
X146089714Y-93942819D02*
X146042095Y-94419009D01*
X146042095Y-94419009D02*
X146089714Y-94371390D01*
X146089714Y-94371390D02*
X146184952Y-94323771D01*
X146184952Y-94323771D02*
X146423047Y-94323771D01*
X146423047Y-94323771D02*
X146518285Y-94371390D01*
X146518285Y-94371390D02*
X146565904Y-94419009D01*
X146565904Y-94419009D02*
X146613523Y-94514247D01*
X146613523Y-94514247D02*
X146613523Y-94752342D01*
X146613523Y-94752342D02*
X146565904Y-94847580D01*
X146565904Y-94847580D02*
X146518285Y-94895200D01*
X146518285Y-94895200D02*
X146423047Y-94942819D01*
X146423047Y-94942819D02*
X146184952Y-94942819D01*
X146184952Y-94942819D02*
X146089714Y-94895200D01*
X146089714Y-94895200D02*
X146042095Y-94847580D01*
X146994476Y-94038057D02*
X147042095Y-93990438D01*
X147042095Y-93990438D02*
X147137333Y-93942819D01*
X147137333Y-93942819D02*
X147375428Y-93942819D01*
X147375428Y-93942819D02*
X147470666Y-93990438D01*
X147470666Y-93990438D02*
X147518285Y-94038057D01*
X147518285Y-94038057D02*
X147565904Y-94133295D01*
X147565904Y-94133295D02*
X147565904Y-94228533D01*
X147565904Y-94228533D02*
X147518285Y-94371390D01*
X147518285Y-94371390D02*
X146946857Y-94942819D01*
X146946857Y-94942819D02*
X147565904Y-94942819D01*
%TO.C,J22*%
X146598627Y-98150353D02*
X151678627Y-98150353D01*
X146598627Y-105770353D02*
X146598627Y-98150353D01*
X151678627Y-98150353D02*
X151678627Y-105770353D01*
X151678627Y-105770353D02*
X146598627Y-105770353D01*
D14*
%TO.C,U5*%
X137730627Y-101151353D02*
X139530627Y-101151353D01*
X139530627Y-97931353D02*
X137080627Y-97931353D01*
%TO.C,U4*%
X134353627Y-111468354D02*
X134353627Y-113268354D01*
X137573627Y-113268354D02*
X137573627Y-110818354D01*
D11*
%TO.C,C8*%
X129613627Y-110336353D02*
X131137627Y-110336353D01*
X129613627Y-111352353D02*
X129613627Y-110336353D01*
X129613627Y-113384353D02*
X129613627Y-112368353D01*
X131137627Y-110336353D02*
X131137627Y-111352353D01*
X131137627Y-112368353D02*
X131137627Y-113384353D01*
X131137627Y-113384353D02*
X129613627Y-113384353D01*
X129740627Y-110209353D02*
G75*
G02*
X129486627Y-110209353I-127000J0D01*
G01*
X129486627Y-110209353D02*
G75*
G02*
X129740627Y-110209353I127000J0D01*
G01*
%TO.C,C3*%
X101673627Y-106400154D02*
X103197627Y-106400154D01*
X101673627Y-107416154D02*
X101673627Y-106400154D01*
X101673627Y-109448154D02*
X101673627Y-108432154D01*
X103197627Y-106400154D02*
X103197627Y-107416154D01*
X103197627Y-108432154D02*
X103197627Y-109448154D01*
X103197627Y-109448154D02*
X101673627Y-109448154D01*
X101800627Y-106273154D02*
G75*
G02*
X101546627Y-106273154I-127000J0D01*
G01*
X101546627Y-106273154D02*
G75*
G02*
X101800627Y-106273154I127000J0D01*
G01*
%TO.C,R6*%
X102499127Y-99414353D02*
X103515127Y-99414353D01*
X102499127Y-100938353D02*
X102499127Y-99414353D01*
X103515127Y-100938353D02*
X102499127Y-100938353D01*
X104531127Y-99414353D02*
X105547127Y-99414353D01*
X105547127Y-99414353D02*
X105547127Y-100938353D01*
X105547127Y-100938353D02*
X104531127Y-100938353D01*
X105801127Y-99414353D02*
G75*
G02*
X105547127Y-99414353I-127000J0D01*
G01*
X105547127Y-99414353D02*
G75*
G02*
X105801127Y-99414353I127000J0D01*
G01*
%TO.C,C13*%
X131899627Y-110336353D02*
X133423627Y-110336353D01*
X131899627Y-111352353D02*
X131899627Y-110336353D01*
X131899627Y-113384353D02*
X131899627Y-112368353D01*
X133423627Y-110336353D02*
X133423627Y-111352353D01*
X133423627Y-112368353D02*
X133423627Y-113384353D01*
X133423627Y-113384353D02*
X131899627Y-113384353D01*
X132026627Y-110209353D02*
G75*
G02*
X131772627Y-110209353I-127000J0D01*
G01*
X131772627Y-110209353D02*
G75*
G02*
X132026627Y-110209353I127000J0D01*
G01*
%TO.C,C24*%
X114467627Y-111929853D02*
X115991627Y-111929853D01*
X114467627Y-112945853D02*
X114467627Y-111929853D01*
X114467627Y-114977853D02*
X114467627Y-113961853D01*
X115991627Y-111929853D02*
X115991627Y-112945853D01*
X115991627Y-113961853D02*
X115991627Y-114977853D01*
X115991627Y-114977853D02*
X114467627Y-114977853D01*
X116118627Y-115104853D02*
G75*
G02*
X115864627Y-115104853I-127000J0D01*
G01*
X115864627Y-115104853D02*
G75*
G02*
X116118627Y-115104853I127000J0D01*
G01*
%TO.C,C4*%
X127256527Y-97185154D02*
X128780527Y-97185154D01*
X127256527Y-98201154D02*
X127256527Y-97185154D01*
X127256527Y-100233154D02*
X127256527Y-99217154D01*
X128780527Y-97185154D02*
X128780527Y-98201154D01*
X128780527Y-99217154D02*
X128780527Y-100233154D01*
X128780527Y-100233154D02*
X127256527Y-100233154D01*
X127383527Y-97058154D02*
G75*
G02*
X127129527Y-97058154I-127000J0D01*
G01*
X127129527Y-97058154D02*
G75*
G02*
X127383527Y-97058154I127000J0D01*
G01*
%TO.C,U10*%
X155778627Y-101263353D02*
X155778627Y-101838353D01*
X155778627Y-101263353D02*
X156453627Y-101263353D01*
X155778627Y-101838353D02*
X154503627Y-101838353D01*
X155778627Y-111613353D02*
X155778627Y-110938353D01*
X155778627Y-111613353D02*
X156453627Y-111613353D01*
X166128627Y-101263353D02*
X165453627Y-101263353D01*
X166128627Y-101263353D02*
X166128627Y-101938353D01*
X166128627Y-111613353D02*
X165453627Y-111613353D01*
X166128627Y-111613353D02*
X166128627Y-110938353D01*
%TO.C,R4*%
X127327627Y-110336353D02*
X128851627Y-110336353D01*
X127327627Y-111352353D02*
X127327627Y-110336353D01*
X127327627Y-113384353D02*
X127327627Y-112368353D01*
X128851627Y-110336353D02*
X128851627Y-111352353D01*
X128851627Y-112368353D02*
X128851627Y-113384353D01*
X128851627Y-113384353D02*
X127327627Y-113384353D01*
X127454627Y-110209353D02*
G75*
G02*
X127200627Y-110209353I-127000J0D01*
G01*
X127200627Y-110209353D02*
G75*
G02*
X127454627Y-110209353I127000J0D01*
G01*
%TO.C,C10*%
X105991627Y-101954353D02*
X107007627Y-101954353D01*
X105991627Y-103478353D02*
X105991627Y-101954353D01*
X107007627Y-103478353D02*
X105991627Y-103478353D01*
X108023627Y-101954353D02*
X109039627Y-101954353D01*
X109039627Y-101954353D02*
X109039627Y-103478353D01*
X109039627Y-103478353D02*
X108023627Y-103478353D01*
X109293627Y-101954353D02*
G75*
G02*
X109039627Y-101954353I-127000J0D01*
G01*
X109039627Y-101954353D02*
G75*
G02*
X109293627Y-101954353I127000J0D01*
G01*
%TO.C,C5*%
X102499127Y-101954353D02*
X103515127Y-101954353D01*
X102499127Y-103478353D02*
X102499127Y-101954353D01*
X103515127Y-103478353D02*
X102499127Y-103478353D01*
X104531127Y-101954353D02*
X105547127Y-101954353D01*
X105547127Y-101954353D02*
X105547127Y-103478353D01*
X105547127Y-103478353D02*
X104531127Y-103478353D01*
X105801127Y-101954353D02*
G75*
G02*
X105547127Y-101954353I-127000J0D01*
G01*
X105547127Y-101954353D02*
G75*
G02*
X105801127Y-101954353I127000J0D01*
G01*
%TO.C,R3*%
X132153627Y-98017352D02*
X133677627Y-98017352D01*
X132153627Y-99033352D02*
X132153627Y-98017352D01*
X132153627Y-101065352D02*
X132153627Y-100049352D01*
X133677627Y-98017352D02*
X133677627Y-99033352D01*
X133677627Y-100049352D02*
X133677627Y-101065352D01*
X133677627Y-101065352D02*
X132153627Y-101065352D01*
X133804627Y-101192352D02*
G75*
G02*
X133550627Y-101192352I-127000J0D01*
G01*
X133550627Y-101192352D02*
G75*
G02*
X133804627Y-101192352I127000J0D01*
G01*
%TO.C,R2*%
X111833627Y-102144853D02*
X113357627Y-102144853D01*
X111833627Y-103160853D02*
X111833627Y-102144853D01*
X111833627Y-105192853D02*
X111833627Y-104176853D01*
X113357627Y-102144853D02*
X113357627Y-103160853D01*
X113357627Y-104176853D02*
X113357627Y-105192853D01*
X113357627Y-105192853D02*
X111833627Y-105192853D01*
X113484627Y-105319853D02*
G75*
G02*
X113230627Y-105319853I-127000J0D01*
G01*
X113230627Y-105319853D02*
G75*
G02*
X113484627Y-105319853I127000J0D01*
G01*
%TO.C,U2*%
X127792627Y-101919353D02*
X127792627Y-102064353D01*
X127792627Y-101919353D02*
X131942627Y-101919353D01*
X127792627Y-102064353D02*
X126392627Y-102064353D01*
X127792627Y-107069353D02*
X127792627Y-106924353D01*
X127792627Y-107069353D02*
X131942627Y-107069353D01*
X131942627Y-101919353D02*
X131942627Y-102064353D01*
%TO.C,R10*%
X121231627Y-104811853D02*
X122755627Y-104811853D01*
X121231627Y-105827853D02*
X121231627Y-104811853D01*
X121231627Y-107859853D02*
X121231627Y-106843853D01*
X122755627Y-104811853D02*
X122755627Y-105827853D01*
X122755627Y-106843853D02*
X122755627Y-107859853D01*
X122755627Y-107859853D02*
X121231627Y-107859853D01*
X121358627Y-104684853D02*
G75*
G02*
X121104627Y-104684853I-127000J0D01*
G01*
X121104627Y-104684853D02*
G75*
G02*
X121358627Y-104684853I127000J0D01*
G01*
%TO.C,C18*%
X123517627Y-101128853D02*
X125041627Y-101128853D01*
X123517627Y-102144853D02*
X123517627Y-101128853D01*
X123517627Y-104176853D02*
X123517627Y-103160853D01*
X125041627Y-101128853D02*
X125041627Y-102144853D01*
X125041627Y-103160853D02*
X125041627Y-104176853D01*
X125041627Y-104176853D02*
X123517627Y-104176853D01*
X123644627Y-101001853D02*
G75*
G02*
X123390627Y-101001853I-127000J0D01*
G01*
X123390627Y-101001853D02*
G75*
G02*
X123644627Y-101001853I127000J0D01*
G01*
%TO.C,U1*%
X105440627Y-103951353D02*
X105440627Y-104096353D01*
X105440627Y-103951353D02*
X109590627Y-103951353D01*
X105440627Y-104096353D02*
X104040627Y-104096353D01*
X105440627Y-109101353D02*
X105440627Y-108956353D01*
X105440627Y-109101353D02*
X109590627Y-109101353D01*
X109590627Y-103951353D02*
X109590627Y-104096353D01*
%TO.C,C20*%
X106499627Y-96874353D02*
X108023627Y-96874353D01*
X106499627Y-97890353D02*
X106499627Y-96874353D01*
X106499627Y-99922353D02*
X106499627Y-98906353D01*
X108023627Y-96874353D02*
X108023627Y-97890353D01*
X108023627Y-98906353D02*
X108023627Y-99922353D01*
X108023627Y-99922353D02*
X106499627Y-99922353D01*
X108150627Y-100049353D02*
G75*
G02*
X107896627Y-100049353I-127000J0D01*
G01*
X107896627Y-100049353D02*
G75*
G02*
X108150627Y-100049353I127000J0D01*
G01*
%TO.C,R7*%
X111613027Y-107959653D02*
X112629027Y-107959653D01*
X111613027Y-109483653D02*
X111613027Y-107959653D01*
X112629027Y-109483653D02*
X111613027Y-109483653D01*
X113645027Y-107959653D02*
X114661027Y-107959653D01*
X114661027Y-107959653D02*
X114661027Y-109483653D01*
X114661027Y-109483653D02*
X113645027Y-109483653D01*
X114915027Y-107959653D02*
G75*
G02*
X114661027Y-107959653I-127000J0D01*
G01*
X114661027Y-107959653D02*
G75*
G02*
X114915027Y-107959653I127000J0D01*
G01*
%TO.C,C17*%
X123771627Y-105637353D02*
X125295627Y-105637353D01*
X123771627Y-106653353D02*
X123771627Y-105637353D01*
X123771627Y-108685353D02*
X123771627Y-107669353D01*
X125295627Y-105637353D02*
X125295627Y-106653353D01*
X125295627Y-107669353D02*
X125295627Y-108685353D01*
X125295627Y-108685353D02*
X123771627Y-108685353D01*
X123898627Y-105510353D02*
G75*
G02*
X123644627Y-105510353I-127000J0D01*
G01*
X123644627Y-105510353D02*
G75*
G02*
X123898627Y-105510353I127000J0D01*
G01*
%TO.C,R9*%
X114422527Y-104400154D02*
X115946527Y-104400154D01*
X114422527Y-105416154D02*
X114422527Y-104400154D01*
X114422527Y-107448154D02*
X114422527Y-106432154D01*
X115946527Y-104400154D02*
X115946527Y-105416154D01*
X115946527Y-106432154D02*
X115946527Y-107448154D01*
X115946527Y-107448154D02*
X114422527Y-107448154D01*
X114549527Y-104273154D02*
G75*
G02*
X114295527Y-104273154I-127000J0D01*
G01*
X114295527Y-104273154D02*
G75*
G02*
X114549527Y-104273154I127000J0D01*
G01*
%TO.C,C11*%
X114172527Y-100900153D02*
X115696527Y-100900153D01*
X114172527Y-101916153D02*
X114172527Y-100900153D01*
X114172527Y-103948153D02*
X114172527Y-102932153D01*
X115696527Y-100900153D02*
X115696527Y-101916153D01*
X115696527Y-102932153D02*
X115696527Y-103948153D01*
X115696527Y-103948153D02*
X114172527Y-103948153D01*
X115823527Y-104075153D02*
G75*
G02*
X115569527Y-104075153I-127000J0D01*
G01*
X115569527Y-104075153D02*
G75*
G02*
X115823527Y-104075153I127000J0D01*
G01*
%TO.C,C16*%
X119199627Y-104811853D02*
X120723627Y-104811853D01*
X119199627Y-105827853D02*
X119199627Y-104811853D01*
X119199627Y-107859853D02*
X119199627Y-106843853D01*
X120723627Y-104811853D02*
X120723627Y-105827853D01*
X120723627Y-106843853D02*
X120723627Y-107859853D01*
X120723627Y-107859853D02*
X119199627Y-107859853D01*
X120850627Y-107986853D02*
G75*
G02*
X120596627Y-107986853I-127000J0D01*
G01*
X120596627Y-107986853D02*
G75*
G02*
X120850627Y-107986853I127000J0D01*
G01*
%TO.C,R11*%
X121231627Y-101128853D02*
X122755627Y-101128853D01*
X121231627Y-102144853D02*
X121231627Y-101128853D01*
X121231627Y-104176853D02*
X121231627Y-103160853D01*
X122755627Y-101128853D02*
X122755627Y-102144853D01*
X122755627Y-103160853D02*
X122755627Y-104176853D01*
X122755627Y-104176853D02*
X121231627Y-104176853D01*
X121358627Y-101001853D02*
G75*
G02*
X121104627Y-101001853I-127000J0D01*
G01*
X121104627Y-101001853D02*
G75*
G02*
X121358627Y-101001853I127000J0D01*
G01*
%TO.C,C15*%
X116659627Y-104684853D02*
X118183627Y-104684853D01*
X116659627Y-105700853D02*
X116659627Y-104684853D01*
X116659627Y-107732853D02*
X116659627Y-106716853D01*
X118183627Y-104684853D02*
X118183627Y-105700853D01*
X118183627Y-106716853D02*
X118183627Y-107732853D01*
X118183627Y-107732853D02*
X116659627Y-107732853D01*
X116786627Y-104557853D02*
G75*
G02*
X116532627Y-104557853I-127000J0D01*
G01*
X116532627Y-104557853D02*
G75*
G02*
X116786627Y-104557853I127000J0D01*
G01*
%TO.C,R5*%
X132661627Y-95604353D02*
X133677627Y-95604353D01*
X132661627Y-97128353D02*
X132661627Y-95604353D01*
X133677627Y-97128353D02*
X132661627Y-97128353D01*
X134693627Y-95604353D02*
X135709627Y-95604353D01*
X135709627Y-95604353D02*
X135709627Y-97128353D01*
X135709627Y-97128353D02*
X134693627Y-97128353D01*
X135963627Y-95604353D02*
G75*
G02*
X135709627Y-95604353I-127000J0D01*
G01*
X135709627Y-95604353D02*
G75*
G02*
X135963627Y-95604353I127000J0D01*
G01*
%TO.C,C12*%
X134185627Y-102208353D02*
X135709627Y-102208353D01*
X134185627Y-103224353D02*
X134185627Y-102208353D01*
X134185627Y-105256353D02*
X134185627Y-104240353D01*
X135709627Y-102208353D02*
X135709627Y-103224353D01*
X135709627Y-104240353D02*
X135709627Y-105256353D01*
X135709627Y-105256353D02*
X134185627Y-105256353D01*
X134312627Y-102081353D02*
G75*
G02*
X134058627Y-102081353I-127000J0D01*
G01*
X134058627Y-102081353D02*
G75*
G02*
X134312627Y-102081353I127000J0D01*
G01*
%TO.C,U11*%
X166779527Y-96004653D02*
X166779527Y-99254653D01*
X166779527Y-96004653D02*
X167054527Y-96004653D01*
X166779527Y-99254653D02*
X167054527Y-99254653D01*
X169854527Y-96004653D02*
X169854527Y-94929653D01*
X170029527Y-96004653D02*
X169854527Y-96004653D01*
X170029527Y-96004653D02*
X170029527Y-99254653D01*
X170029527Y-99254653D02*
X169754527Y-99254653D01*
X169654527Y-96629653D02*
G75*
G02*
X169154527Y-96629653I-250000J0D01*
G01*
X169154527Y-96629653D02*
G75*
G02*
X169654527Y-96629653I250000J0D01*
G01*
%TO.C,R13*%
X136217627Y-106018353D02*
X137233627Y-106018353D01*
X136217627Y-107542353D02*
X136217627Y-106018353D01*
X137233627Y-107542353D02*
X136217627Y-107542353D01*
X138249627Y-106018353D02*
X139265627Y-106018353D01*
X139265627Y-106018353D02*
X139265627Y-107542353D01*
X139265627Y-107542353D02*
X138249627Y-107542353D01*
X136217627Y-107542353D02*
G75*
G02*
X135963627Y-107542353I-127000J0D01*
G01*
X135963627Y-107542353D02*
G75*
G02*
X136217627Y-107542353I127000J0D01*
G01*
%TO.C,C9*%
X136598627Y-94207353D02*
X138122627Y-94207353D01*
X136598627Y-95223353D02*
X136598627Y-94207353D01*
X136598627Y-97255353D02*
X136598627Y-96239353D01*
X138122627Y-94207353D02*
X138122627Y-95223353D01*
X138122627Y-96239353D02*
X138122627Y-97255353D01*
X138122627Y-97255353D02*
X136598627Y-97255353D01*
X138249627Y-97382353D02*
G75*
G02*
X137995627Y-97382353I-127000J0D01*
G01*
X137995627Y-97382353D02*
G75*
G02*
X138249627Y-97382353I127000J0D01*
G01*
%TO.C,C14*%
X139138627Y-94207354D02*
X140662627Y-94207354D01*
X139138627Y-95223354D02*
X139138627Y-94207354D01*
X139138627Y-97255354D02*
X139138627Y-96239354D01*
X140662627Y-94207354D02*
X140662627Y-95223354D01*
X140662627Y-96239354D02*
X140662627Y-97255354D01*
X140662627Y-97255354D02*
X139138627Y-97255354D01*
X140789627Y-97382354D02*
G75*
G02*
X140535627Y-97382354I-127000J0D01*
G01*
X140535627Y-97382354D02*
G75*
G02*
X140789627Y-97382354I127000J0D01*
G01*
%TO.C,C7*%
X136471627Y-102208353D02*
X137995627Y-102208353D01*
X136471627Y-103224353D02*
X136471627Y-102208353D01*
X136471627Y-105256353D02*
X136471627Y-104240353D01*
X137995627Y-102208353D02*
X137995627Y-103224353D01*
X137995627Y-104240353D02*
X137995627Y-105256353D01*
X137995627Y-105256353D02*
X136471627Y-105256353D01*
X136598627Y-102081353D02*
G75*
G02*
X136344627Y-102081353I-127000J0D01*
G01*
X136344627Y-102081353D02*
G75*
G02*
X136598627Y-102081353I127000J0D01*
G01*
%TO.C,R12*%
X139138627Y-101827353D02*
X140662627Y-101827353D01*
X139138627Y-102843353D02*
X139138627Y-101827353D01*
X139138627Y-104875353D02*
X139138627Y-103859353D01*
X140662627Y-101827353D02*
X140662627Y-102843353D01*
X140662627Y-103859353D02*
X140662627Y-104875353D01*
X140662627Y-104875353D02*
X139138627Y-104875353D01*
X139265627Y-101700353D02*
G75*
G02*
X139011627Y-101700353I-127000J0D01*
G01*
X139011627Y-101700353D02*
G75*
G02*
X139265627Y-101700353I127000J0D01*
G01*
%TO.C,L1*%
X170182527Y-107154654D02*
X170182527Y-109948654D01*
X170182527Y-109948654D02*
X171706527Y-109948654D01*
X171706527Y-107154654D02*
X170182527Y-107154654D01*
X173230527Y-109948654D02*
X174754527Y-109948654D01*
X173230527Y-109948654D02*
X174754527Y-109948654D01*
X174754527Y-107154654D02*
X173230527Y-107154654D01*
X174754527Y-109948654D02*
X174754527Y-107154654D01*
X175061132Y-107027654D02*
G75*
G02*
X174701922Y-107027654I-179605J0D01*
G01*
X174701922Y-107027654D02*
G75*
G02*
X175061132Y-107027654I179605J0D01*
G01*
%TO.C,C19*%
X134185627Y-106018353D02*
X135709627Y-106018353D01*
X134185627Y-107034353D02*
X134185627Y-106018353D01*
X134185627Y-109066353D02*
X134185627Y-108050353D01*
X135709627Y-106018353D02*
X135709627Y-107034353D01*
X135709627Y-108050353D02*
X135709627Y-109066353D01*
X135709627Y-109066353D02*
X134185627Y-109066353D01*
X134312627Y-105891353D02*
G75*
G02*
X134058627Y-105891353I-127000J0D01*
G01*
X134058627Y-105891353D02*
G75*
G02*
X134312627Y-105891353I127000J0D01*
G01*
D14*
%TO.C,U8*%
X154772527Y-91510353D02*
X153972527Y-91510353D01*
X154772527Y-91510353D02*
X155572527Y-91510353D01*
X154772527Y-94630353D02*
X153972527Y-94630353D01*
X154772527Y-94630353D02*
X156572527Y-94630353D01*
D11*
%TO.C,C2*%
X116753627Y-111866353D02*
X118277627Y-111866353D01*
X116753627Y-112882353D02*
X116753627Y-111866353D01*
X116753627Y-114914353D02*
X116753627Y-113898353D01*
X118277627Y-111866353D02*
X118277627Y-112882353D01*
X118277627Y-113898353D02*
X118277627Y-114914353D01*
X118277627Y-114914353D02*
X116753627Y-114914353D01*
X118404627Y-115041353D02*
G75*
G02*
X118150627Y-115041353I-127000J0D01*
G01*
X118150627Y-115041353D02*
G75*
G02*
X118404627Y-115041353I127000J0D01*
G01*
D14*
%TO.C,D3*%
X168056527Y-111627653D02*
X168056527Y-116037653D01*
X168056527Y-116037653D02*
X170276527Y-116037653D01*
X170276527Y-116037653D02*
X170276527Y-111627653D01*
D11*
%TO.C,F2*%
X164404027Y-118457653D02*
X165420027Y-118457653D01*
X164404027Y-119981653D02*
X164404027Y-118457653D01*
X165420027Y-119981653D02*
X164404027Y-119981653D01*
X166436027Y-118457653D02*
X167452027Y-118457653D01*
X167452027Y-118457653D02*
X167452027Y-119981653D01*
X167452027Y-119981653D02*
X166436027Y-119981653D01*
X167706027Y-118457653D02*
G75*
G02*
X167452027Y-118457653I-127000J0D01*
G01*
X167452027Y-118457653D02*
G75*
G02*
X167706027Y-118457653I127000J0D01*
G01*
%TO.C,C55*%
X172976527Y-117187653D02*
X174500527Y-117187653D01*
X172976527Y-118203653D02*
X172976527Y-117187653D01*
X172976527Y-120235653D02*
X172976527Y-119219653D01*
X174500527Y-117187653D02*
X174500527Y-118203653D01*
X174500527Y-119219653D02*
X174500527Y-120235653D01*
X174500527Y-120235653D02*
X172976527Y-120235653D01*
X173103527Y-117060653D02*
G75*
G02*
X172849527Y-117060653I-127000J0D01*
G01*
X172849527Y-117060653D02*
G75*
G02*
X173103527Y-117060653I127000J0D01*
G01*
D14*
%TO.C,L3*%
X154994527Y-97137905D02*
X154994527Y-96615401D01*
X156414527Y-97137905D02*
X156414527Y-96615401D01*
D11*
%TO.C,R22*%
X115039127Y-116184352D02*
X116055127Y-116184352D01*
X115039127Y-117708352D02*
X115039127Y-116184352D01*
X116055127Y-117708352D02*
X115039127Y-117708352D01*
X117071127Y-116184352D02*
X118087127Y-116184352D01*
X118087127Y-116184352D02*
X118087127Y-117708352D01*
X118087127Y-117708352D02*
X117071127Y-117708352D01*
X115039127Y-117708352D02*
G75*
G02*
X114785127Y-117708352I-127000J0D01*
G01*
X114785127Y-117708352D02*
G75*
G02*
X115039127Y-117708352I127000J0D01*
G01*
%TO.C,R19*%
X118849127Y-116184353D02*
X119865127Y-116184353D01*
X118849127Y-117708353D02*
X118849127Y-116184353D01*
X119865127Y-117708353D02*
X118849127Y-117708353D01*
X120881127Y-116184353D02*
X121897127Y-116184353D01*
X121897127Y-116184353D02*
X121897127Y-117708353D01*
X121897127Y-117708353D02*
X120881127Y-117708353D01*
X118849127Y-117708353D02*
G75*
G02*
X118595127Y-117708353I-127000J0D01*
G01*
X118595127Y-117708353D02*
G75*
G02*
X118849127Y-117708353I127000J0D01*
G01*
%TO.C,R15*%
X122659127Y-116184353D02*
X123675127Y-116184353D01*
X122659127Y-117708353D02*
X122659127Y-116184353D01*
X123675127Y-117708353D02*
X122659127Y-117708353D01*
X124691127Y-116184353D02*
X125707127Y-116184353D01*
X125707127Y-116184353D02*
X125707127Y-117708353D01*
X125707127Y-117708353D02*
X124691127Y-117708353D01*
X122659127Y-117708353D02*
G75*
G02*
X122405127Y-117708353I-127000J0D01*
G01*
X122405127Y-117708353D02*
G75*
G02*
X122659127Y-117708353I127000J0D01*
G01*
%TO.C,C23*%
X118785627Y-111866353D02*
X120309627Y-111866353D01*
X118785627Y-112882353D02*
X118785627Y-111866353D01*
X118785627Y-114914353D02*
X118785627Y-113898353D01*
X120309627Y-111866353D02*
X120309627Y-112882353D01*
X120309627Y-113898353D02*
X120309627Y-114914353D01*
X120309627Y-114914353D02*
X118785627Y-114914353D01*
X120436627Y-115041353D02*
G75*
G02*
X120182627Y-115041353I-127000J0D01*
G01*
X120182627Y-115041353D02*
G75*
G02*
X120436627Y-115041353I127000J0D01*
G01*
%TO.C,C21*%
X120817627Y-111866353D02*
X122341627Y-111866353D01*
X120817627Y-112882353D02*
X120817627Y-111866353D01*
X120817627Y-114914353D02*
X120817627Y-113898353D01*
X122341627Y-111866353D02*
X122341627Y-112882353D01*
X122341627Y-113898353D02*
X122341627Y-114914353D01*
X122341627Y-114914353D02*
X120817627Y-114914353D01*
X122468627Y-115041353D02*
G75*
G02*
X122214627Y-115041353I-127000J0D01*
G01*
X122214627Y-115041353D02*
G75*
G02*
X122468627Y-115041353I127000J0D01*
G01*
%TO.C,C34*%
X150154627Y-106087853D02*
X151678627Y-106087853D01*
X150154627Y-107103853D02*
X150154627Y-106087853D01*
X150154627Y-109135853D02*
X150154627Y-108119853D01*
X151678627Y-106087853D02*
X151678627Y-107103853D01*
X151678627Y-108119853D02*
X151678627Y-109135853D01*
X151678627Y-109135853D02*
X150154627Y-109135853D01*
X150281627Y-105960853D02*
G75*
G02*
X150027627Y-105960853I-127000J0D01*
G01*
X150027627Y-105960853D02*
G75*
G02*
X150281627Y-105960853I127000J0D01*
G01*
%TO.C,C27*%
X171198527Y-112615653D02*
X172214527Y-112615653D01*
X171198527Y-114139653D02*
X171198527Y-112615653D01*
X172214527Y-114139653D02*
X171198527Y-114139653D01*
X173230527Y-112615653D02*
X174246527Y-112615653D01*
X174246527Y-112615653D02*
X174246527Y-114139653D01*
X174246527Y-114139653D02*
X173230527Y-114139653D01*
X174500527Y-112615653D02*
G75*
G02*
X174246527Y-112615653I-127000J0D01*
G01*
X174246527Y-112615653D02*
G75*
G02*
X174500527Y-112615653I127000J0D01*
G01*
%TO.C,R20*%
X168595027Y-100931653D02*
X169611027Y-100931653D01*
X168595027Y-102455653D02*
X168595027Y-100931653D01*
X169611027Y-102455653D02*
X168595027Y-102455653D01*
X170627027Y-100931653D02*
X171643027Y-100931653D01*
X171643027Y-100931653D02*
X171643027Y-102455653D01*
X171643027Y-102455653D02*
X170627027Y-102455653D01*
X168595027Y-102455653D02*
G75*
G02*
X168341027Y-102455653I-127000J0D01*
G01*
X168341027Y-102455653D02*
G75*
G02*
X168595027Y-102455653I127000J0D01*
G01*
%TO.C,R23*%
X146789127Y-106024353D02*
X147805127Y-106024353D01*
X146789127Y-107548353D02*
X146789127Y-106024353D01*
X147805127Y-107548353D02*
X146789127Y-107548353D01*
X148821127Y-106024353D02*
X149837127Y-106024353D01*
X149837127Y-106024353D02*
X149837127Y-107548353D01*
X149837127Y-107548353D02*
X148821127Y-107548353D01*
X146789127Y-107548353D02*
G75*
G02*
X146535127Y-107548353I-127000J0D01*
G01*
X146535127Y-107548353D02*
G75*
G02*
X146789127Y-107548353I127000J0D01*
G01*
%TO.C,C26*%
X171198527Y-114647653D02*
X172214527Y-114647653D01*
X171198527Y-116171653D02*
X171198527Y-114647653D01*
X172214527Y-116171653D02*
X171198527Y-116171653D01*
X173230527Y-114647653D02*
X174246527Y-114647653D01*
X174246527Y-114647653D02*
X174246527Y-116171653D01*
X174246527Y-116171653D02*
X173230527Y-116171653D01*
X174500527Y-114647653D02*
G75*
G02*
X174246527Y-114647653I-127000J0D01*
G01*
X174246527Y-114647653D02*
G75*
G02*
X174500527Y-114647653I127000J0D01*
G01*
D14*
%TO.C,U3*%
X112611627Y-96838353D02*
X110936627Y-96838353D01*
X112611627Y-96838353D02*
X113261627Y-96838353D01*
X112611627Y-99958353D02*
X111961627Y-99958353D01*
X112611627Y-99958353D02*
X113261627Y-99958353D01*
D11*
%TO.C,C43*%
X147322528Y-108361153D02*
X148846528Y-108361153D01*
X147322528Y-109377153D02*
X147322528Y-108361153D01*
X147322528Y-111409153D02*
X147322528Y-110393153D01*
X148846528Y-108361153D02*
X148846528Y-109377153D01*
X148846528Y-110393153D02*
X148846528Y-111409153D01*
X148846528Y-111409153D02*
X147322528Y-111409153D01*
X147449528Y-108234153D02*
G75*
G02*
X147195528Y-108234153I-127000J0D01*
G01*
X147195528Y-108234153D02*
G75*
G02*
X147449528Y-108234153I127000J0D01*
G01*
%TO.C,C39*%
X160314627Y-113517354D02*
X161330627Y-113517354D01*
X160314627Y-115041354D02*
X160314627Y-113517354D01*
X161330627Y-115041354D02*
X160314627Y-115041354D01*
X162346627Y-113517354D02*
X163362627Y-113517354D01*
X163362627Y-113517354D02*
X163362627Y-115041354D01*
X163362627Y-115041354D02*
X162346627Y-115041354D01*
X160314627Y-115041354D02*
G75*
G02*
X160060627Y-115041354I-127000J0D01*
G01*
X160060627Y-115041354D02*
G75*
G02*
X160314627Y-115041354I127000J0D01*
G01*
%TO.C,C28*%
X171198527Y-110329653D02*
X172214527Y-110329653D01*
X171198527Y-111853653D02*
X171198527Y-110329653D01*
X172214527Y-111853653D02*
X171198527Y-111853653D01*
X173230527Y-110329653D02*
X174246527Y-110329653D01*
X174246527Y-110329653D02*
X174246527Y-111853653D01*
X174246527Y-111853653D02*
X173230527Y-111853653D01*
X174500527Y-110329653D02*
G75*
G02*
X174246527Y-110329653I-127000J0D01*
G01*
X174246527Y-110329653D02*
G75*
G02*
X174500527Y-110329653I127000J0D01*
G01*
%TO.C,R1*%
X138757627Y-111860353D02*
X140281627Y-111860353D01*
X138757627Y-112876353D02*
X138757627Y-111860353D01*
X138757627Y-114908353D02*
X138757627Y-113892353D01*
X140281627Y-111860353D02*
X140281627Y-112876353D01*
X140281627Y-113892353D02*
X140281627Y-114908353D01*
X140281627Y-114908353D02*
X138757627Y-114908353D01*
X138884627Y-111733353D02*
G75*
G02*
X138630627Y-111733353I-127000J0D01*
G01*
X138630627Y-111733353D02*
G75*
G02*
X138884627Y-111733353I127000J0D01*
G01*
%TO.C,C36*%
X164340527Y-116171653D02*
X165356527Y-116171653D01*
X164340527Y-117695653D02*
X164340527Y-116171653D01*
X165356527Y-117695653D02*
X164340527Y-117695653D01*
X166372527Y-116171653D02*
X167388527Y-116171653D01*
X167388527Y-116171653D02*
X167388527Y-117695653D01*
X167388527Y-117695653D02*
X166372527Y-117695653D01*
X167642527Y-116171653D02*
G75*
G02*
X167388527Y-116171653I-127000J0D01*
G01*
X167388527Y-116171653D02*
G75*
G02*
X167642527Y-116171653I127000J0D01*
G01*
%TO.C,C32*%
X157228527Y-92613153D02*
X158752527Y-92613153D01*
X157228527Y-93629153D02*
X157228527Y-92613153D01*
X157228527Y-95661153D02*
X157228527Y-94645153D01*
X158752527Y-92613153D02*
X158752527Y-93629153D01*
X158752527Y-94645153D02*
X158752527Y-95661153D01*
X158752527Y-95661153D02*
X157228527Y-95661153D01*
X158879527Y-95788153D02*
G75*
G02*
X158625527Y-95788153I-127000J0D01*
G01*
X158625527Y-95788153D02*
G75*
G02*
X158879527Y-95788153I127000J0D01*
G01*
D14*
%TO.C,M9*%
X143728527Y-92805654D02*
X143728527Y-94405654D01*
X143728527Y-98805654D02*
X143728527Y-100405654D01*
X143728527Y-104805654D02*
X143728527Y-106405654D01*
X143728527Y-110805654D02*
X143728527Y-112405654D01*
X143728527Y-116805654D02*
X143728527Y-118405654D01*
X147078527Y-89455654D02*
X148678527Y-89455654D01*
X147078527Y-121755654D02*
X148678527Y-121755654D01*
X153078527Y-89455654D02*
X154678527Y-89455654D01*
X153078527Y-121755654D02*
X154678527Y-121755654D01*
X159078527Y-89455654D02*
X160678527Y-89455654D01*
X159078527Y-121755654D02*
X160678527Y-121755654D01*
X165078527Y-89455654D02*
X166678527Y-89455654D01*
X165078527Y-121755654D02*
X166678527Y-121755654D01*
X171078527Y-89455654D02*
X172678527Y-89455654D01*
X171078527Y-121755654D02*
X172678527Y-121755654D01*
X176028527Y-92805654D02*
X176028527Y-94405654D01*
X176028527Y-98805654D02*
X176028527Y-100405654D01*
X176028527Y-104805654D02*
X176028527Y-106405654D01*
X176028527Y-110805654D02*
X176028527Y-112405654D01*
X176028527Y-116805654D02*
X176028527Y-118405654D01*
D11*
%TO.C,R21*%
X164848527Y-92486153D02*
X166372527Y-92486153D01*
X164848527Y-93502153D02*
X164848527Y-92486153D01*
X164848527Y-95534153D02*
X164848527Y-94518153D01*
X166372527Y-92486153D02*
X166372527Y-93502153D01*
X166372527Y-94518153D02*
X166372527Y-95534153D01*
X166372527Y-95534153D02*
X164848527Y-95534153D01*
X166499527Y-95661153D02*
G75*
G02*
X166245527Y-95661153I-127000J0D01*
G01*
X166245527Y-95661153D02*
G75*
G02*
X166499527Y-95661153I127000J0D01*
G01*
%TO.C,C44*%
X168150527Y-103916153D02*
X169674527Y-103916153D01*
X168150527Y-104932153D02*
X168150527Y-103916153D01*
X168150527Y-106964153D02*
X168150527Y-105948153D01*
X169674527Y-103916153D02*
X169674527Y-104932153D01*
X169674527Y-105948153D02*
X169674527Y-106964153D01*
X169674527Y-106964153D02*
X168150527Y-106964153D01*
X168277527Y-103789153D02*
G75*
G02*
X168023527Y-103789153I-127000J0D01*
G01*
X168023527Y-103789153D02*
G75*
G02*
X168277527Y-103789153I127000J0D01*
G01*
%TO.C,C31*%
X168150527Y-107281653D02*
X169674527Y-107281653D01*
X168150527Y-108297653D02*
X168150527Y-107281653D01*
X168150527Y-110329653D02*
X168150527Y-109313653D01*
X169674527Y-107281653D02*
X169674527Y-108297653D01*
X169674527Y-109313653D02*
X169674527Y-110329653D01*
X169674527Y-110329653D02*
X168150527Y-110329653D01*
X168277527Y-107154653D02*
G75*
G02*
X168023527Y-107154653I-127000J0D01*
G01*
X168023527Y-107154653D02*
G75*
G02*
X168277527Y-107154653I127000J0D01*
G01*
%TO.C,C40*%
X170436527Y-103408153D02*
X171960527Y-103408153D01*
X170436527Y-104424153D02*
X170436527Y-103408153D01*
X170436527Y-106456153D02*
X170436527Y-105440153D01*
X171960527Y-103408153D02*
X171960527Y-104424153D01*
X171960527Y-105440153D02*
X171960527Y-106456153D01*
X171960527Y-106456153D02*
X170436527Y-106456153D01*
X170563527Y-103281153D02*
G75*
G02*
X170309527Y-103281153I-127000J0D01*
G01*
X170309527Y-103281153D02*
G75*
G02*
X170563527Y-103281153I127000J0D01*
G01*
%TO.C,C50*%
X148592527Y-94010153D02*
X150116527Y-94010153D01*
X148592527Y-95026153D02*
X148592527Y-94010153D01*
X148592527Y-97058153D02*
X148592527Y-96042153D01*
X150116527Y-94010153D02*
X150116527Y-95026153D01*
X150116527Y-96042153D02*
X150116527Y-97058153D01*
X150116527Y-97058153D02*
X148592527Y-97058153D01*
X148719527Y-93883153D02*
G75*
G02*
X148465527Y-93883153I-127000J0D01*
G01*
X148465527Y-93883153D02*
G75*
G02*
X148719527Y-93883153I127000J0D01*
G01*
%TO.C,C42*%
X150878526Y-93883153D02*
X152402526Y-93883153D01*
X150878526Y-94899153D02*
X150878526Y-93883153D01*
X150878526Y-96931153D02*
X150878526Y-95915153D01*
X152402526Y-93883153D02*
X152402526Y-94899153D01*
X152402526Y-95915153D02*
X152402526Y-96931153D01*
X152402526Y-96931153D02*
X150878526Y-96931153D01*
X151005526Y-93756153D02*
G75*
G02*
X150751526Y-93756153I-127000J0D01*
G01*
X150751526Y-93756153D02*
G75*
G02*
X151005526Y-93756153I127000J0D01*
G01*
%TO.C,C35*%
X159260527Y-95153153D02*
X160784527Y-95153153D01*
X159260527Y-96169153D02*
X159260527Y-95153153D01*
X159260527Y-98201153D02*
X159260527Y-97185153D01*
X160784527Y-95153153D02*
X160784527Y-96169153D01*
X160784527Y-97185153D02*
X160784527Y-98201153D01*
X160784527Y-98201153D02*
X159260527Y-98201153D01*
X160911527Y-98328153D02*
G75*
G02*
X160657527Y-98328153I-127000J0D01*
G01*
X160657527Y-98328153D02*
G75*
G02*
X160911527Y-98328153I127000J0D01*
G01*
%TO.C,C47*%
X170944528Y-95343653D02*
X172468528Y-95343653D01*
X170944528Y-96359653D02*
X170944528Y-95343653D01*
X170944528Y-98391653D02*
X170944528Y-97375653D01*
X172468528Y-95343653D02*
X172468528Y-96359653D01*
X172468528Y-97375653D02*
X172468528Y-98391653D01*
X172468528Y-98391653D02*
X170944528Y-98391653D01*
X172595528Y-98518653D02*
G75*
G02*
X172341528Y-98518653I-127000J0D01*
G01*
X172341528Y-98518653D02*
G75*
G02*
X172595528Y-98518653I127000J0D01*
G01*
%TO.C,C54*%
X145100027Y-95597653D02*
X146116027Y-95597653D01*
X145100027Y-97121653D02*
X145100027Y-95597653D01*
X146116027Y-97121653D02*
X145100027Y-97121653D01*
X147132027Y-95597653D02*
X148148027Y-95597653D01*
X148148027Y-95597653D02*
X148148027Y-97121653D01*
X148148027Y-97121653D02*
X147132027Y-97121653D01*
X145100027Y-97121653D02*
G75*
G02*
X144846027Y-97121653I-127000J0D01*
G01*
X144846027Y-97121653D02*
G75*
G02*
X145100027Y-97121653I127000J0D01*
G01*
D15*
%TO.C,D1*%
X103024527Y-109721653D02*
X103024527Y-118721653D01*
X114024527Y-109721653D02*
X103024527Y-109721653D01*
X114024527Y-109721653D02*
X114024527Y-118721653D01*
X114024527Y-118721653D02*
X103024527Y-118721653D01*
D11*
%TO.C,R8*%
X115172528Y-108240853D02*
X116696528Y-108240853D01*
X115172528Y-109256853D02*
X115172528Y-108240853D01*
X115172528Y-111288853D02*
X115172528Y-110272853D01*
X116696528Y-108240853D02*
X116696528Y-109256853D01*
X116696528Y-110272853D02*
X116696528Y-111288853D01*
X116696528Y-111288853D02*
X115172528Y-111288853D01*
X115299528Y-108113853D02*
G75*
G02*
X115045528Y-108113853I-127000J0D01*
G01*
X115045528Y-108113853D02*
G75*
G02*
X115299528Y-108113853I127000J0D01*
G01*
%TO.C,C6*%
X116151627Y-100900153D02*
X117675627Y-100900153D01*
X116151627Y-101916153D02*
X116151627Y-100900153D01*
X116151627Y-103948153D02*
X116151627Y-102932153D01*
X117675627Y-100900153D02*
X117675627Y-101916153D01*
X117675627Y-102932153D02*
X117675627Y-103948153D01*
X117675627Y-103948153D02*
X116151627Y-103948153D01*
X117802627Y-104075153D02*
G75*
G02*
X117548627Y-104075153I-127000J0D01*
G01*
X117548627Y-104075153D02*
G75*
G02*
X117802627Y-104075153I127000J0D01*
G01*
%TO.C,C1*%
X121660887Y-93397093D02*
X127660367Y-93397093D01*
X121683747Y-96798153D02*
X127683227Y-96798153D01*
X128960847Y-96795613D02*
X128960847Y-93397093D01*
X128978627Y-96798153D02*
X128978627Y-93399633D01*
X129661887Y-98149433D02*
X129661887Y-97049613D01*
X130261327Y-97649053D02*
X129062447Y-97649053D01*
%TO.C,C29*%
X168404527Y-117441653D02*
X168404527Y-117568653D01*
X168404527Y-117441653D02*
X172468527Y-117441653D01*
X168404527Y-118965653D02*
X168404527Y-117441653D01*
X172468527Y-117441653D02*
X172468527Y-118965653D01*
X172468527Y-118965653D02*
X168404527Y-118965653D01*
%TO.C,C52*%
X145464527Y-91533653D02*
X149528527Y-91533653D01*
X145464527Y-93057653D02*
X145464527Y-91533653D01*
X149528527Y-91533653D02*
X149528527Y-93057653D01*
X149528527Y-93057653D02*
X145464527Y-93057653D01*
X149528527Y-93057653D02*
X149528527Y-92930653D01*
%TD*%
M02*
